<svg width="2048" height="2048" fill="none" xmlns="http://www.w3.org/2000/svg"><path fill="url(#a)" d="M0 0h2048v2048H0z"/><path d="M1067.92 992.117a348.273 348.273 0 0 0-177.208 23.733 348.28 348.28 0 0 0-188.498 188.5 348.27 348.27 0 0 0-26.513 133.29H327.402a696.596 696.596 0 0 1 921.648-659.247l-181.13 313.724Zm93.6 25.523a348.086 348.086 0 0 1 108.76 73.71 348.267 348.267 0 0 1 102.02 246.29h348.3c0-91.48-18.02-182.07-53.03-266.58a696.549 696.549 0 0 0-151-225.994 696.557 696.557 0 0 0-180.29-130.112l-174.76 302.686Z" fill="#F27878"/><path d="M1369.18 657.965a762.36 762.36 0 0 1 193.85 140.643 762.362 762.362 0 0 1 165.24 247.312 762.253 762.253 0 0 1 58.03 291.72h84.7c0-111.23-21.91-221.37-64.47-324.14a847.113 847.113 0 0 0-183.61-274.784 846.95 846.95 0 0 0-211.34-154.199l-42.4 73.448Zm-43.74-111.876A847.054 847.054 0 0 0 1024 490.636a846.995 846.995 0 0 0-598.919 248.08A847.01 847.01 0 0 0 241.474 1013.5 847.056 847.056 0 0 0 177 1337.64h84.7a762.25 762.25 0 0 1 58.027-291.72 762.3 762.3 0 0 1 962.753-425.425l42.96-74.406ZM1095 1333.64c0 41.42-33.58 75-75 75-41.421 0-75-33.58-75-75 0-41.43 33.579-75 75-75 41.42 0 75 33.57 75 75Z" fill="#F27878"/><path d="M992.346 1310.66 1486.94 454l68.53 39.567-494.59 856.663-68.534-39.57Z" fill="#F27878"/><defs><linearGradient id="a" x1="2048" y1="0" x2="0" y2="2048" gradientUnits="userSpaceOnUse"><stop stop-color="#65CC76"/><stop offset="1" stop-color="#68D49E"/></linearGradient></defs></svg>