<svg width="2048" height="2048" fill="none" xmlns="http://www.w3.org/2000/svg"><path fill="url(#a)" d="M0 0h2048v2048H0z"/><path d="M787.347 613H585.466a846.999 846.999 0 0 1 739.974-66.911L1286.81 613h-26.16a762.3 762.3 0 0 0-473.303 0Zm699.173 0h-91.38l91.8-159 68.53 39.567L1486.52 613Z" fill="#F27777"/><path d="M1302.76 773h129.21a697.335 697.335 0 0 0-27.08-18.61l32.89-56.978A762.217 762.217 0 0 1 1536.14 773h119.2a841.718 841.718 0 0 0-32.42-34.284 847.25 847.25 0 0 0-142.74-114.739l6.34-10.977h-91.38l-92.38 160Zm-108.33 0 54.62-94.607A696.595 696.595 0 0 0 616.035 773h578.395Zm-682.57 0H392.656a846.995 846.995 0 0 1 192.81-160h201.881A762.293 762.293 0 0 0 511.86 773Zm748.79-160h26.16l-4.33 7.495a760.06 760.06 0 0 0-21.83-7.495Z" fill="#E5AB71"/><path d="M1211.54 931h378.05a695.587 695.587 0 0 0-73.02-85.934 697.146 697.146 0 0 0-84.6-72.066h-129.21l-91.22 158ZM616.034 773h578.396l-91.22 158H458.406a696.581 696.581 0 0 1 157.628-158Zm-223.379 0h119.204a762.288 762.288 0 0 0-132.645 158h-98.219a846.985 846.985 0 0 1 111.66-158Zm1262.685 0h-119.2a769.05 769.05 0 0 1 26.89 25.608A762.581 762.581 0 0 1 1668.79 931H1767a846.288 846.288 0 0 0-111.66-158Z" fill="#F2D377"/><path d="M1119.74 1090h91.38l19.09-33.06a348.62 348.62 0 0 1 38.72 33.06h406.17c-2.42-6.35-4.93-12.66-7.53-18.94A695.984 695.984 0 0 0 1589.59 931h-378.05l-91.8 159ZM458.406 931h644.804l-35.29 61.117a348.273 348.273 0 0 0-177.208 23.733A348.244 348.244 0 0 0 779.074 1090h-406.17a696.567 696.567 0 0 1 85.502-159Zm-177.411 0h98.219a762.143 762.143 0 0 0-59.487 114.92 760.476 760.476 0 0 0-16.683 44.08h-89.035a846.523 846.523 0 0 1 27.465-76.5 847.183 847.183 0 0 1 39.521-82.5Zm1486.015 0h-98.22a762.198 762.198 0 0 1 59.48 114.92 756.205 756.205 0 0 1 16.69 44.08h89.03a847.098 847.098 0 0 0-27.46-76.5 847.639 847.639 0 0 0-39.52-82.5Z" fill="#5FB258"/><path d="M1027.37 1250h91.37l92.38-160h-91.38l-92.37 160Zm-654.466-160h406.17l-1.359 1.35a348.258 348.258 0 0 0-75.501 113 348.336 348.336 0 0 0-15.308 45.65h-353.97a696.687 696.687 0 0 1 39.968-160Zm-158.895 0h89.035a762.383 762.383 0 0 0-36.29 160h-85.208a847.015 847.015 0 0 1 32.463-160Zm1619.981 0h-89.03a762.32 762.32 0 0 1 36.29 160h85.2a846.694 846.694 0 0 0-32.46-160Zm-118.93 160a696.568 696.568 0 0 0-39.96-160h-406.17l1.35 1.35c32.35 32.34 58 70.74 75.51 113a348.001 348.001 0 0 1 15.3 45.65h353.97Z" fill="#6476CC"/><path fill-rule="evenodd" clip-rule="evenodd" d="M1088.33 1302.68c4.28 9.43 6.67 19.92 6.67 30.96 0 41.42-33.58 75-75 75-41.421 0-75-33.58-75-75 0-41.43 33.579-75 75-75 .79 0 1.58.01 2.36.03l5.01-8.67h91.37l-30.41 52.68Zm272.76-52.68c7.43 28.55 11.21 58 11.21 87.64h348.3c0-29.37-1.86-58.63-5.54-87.64h-353.97Zm420.16 0c3.36 29.03 5.05 58.29 5.05 87.64h84.7c0-29.33-1.52-58.58-4.55-87.64h-85.2Zm-1094.344 0a348.294 348.294 0 0 0-11.205 87.64H327.402c0-29.37 1.856-58.63 5.534-87.64h353.97Zm-420.152 0a762.234 762.234 0 0 0-5.054 87.64H177c0-29.33 1.523-58.58 4.546-87.64h85.208Z" fill="#8D58B2"/><defs><linearGradient id="a" x1="2048" y1="0" x2="0" y2="2048" gradientUnits="userSpaceOnUse"><stop stop-color="#71E6C5"/><stop offset="1" stop-color="#68D49E"/></linearGradient></defs></svg>