<svg width="2048" height="2048" fill="none" xmlns="http://www.w3.org/2000/svg"><path fill="url(#a)" d="M0 0h2048v2048H0z"/><path d="M705.634 645H536.491A847.02 847.02 0 0 1 1024 490.636a847.054 847.054 0 0 1 301.44 55.453l-42.96 74.406A762.321 762.321 0 0 0 705.634 645Zm392.566 0H949.804a696.562 696.562 0 0 1 148.396 0Zm413.31 0h-134.85l110.28-191 68.53 39.567-75.29 130.41A847.92 847.92 0 0 1 1511.51 645Z" fill="#6576CC"/><path d="M1266.39 836h240.94a696.657 696.657 0 0 0-102.44-81.61l32.89-56.978a762.166 762.166 0 0 1 125.25 101.196A767.043 767.043 0 0 1 1597.99 836h108.48a846.438 846.438 0 0 0-83.55-97.284A847.218 847.218 0 0 0 1511.51 645h-134.85l-110.27 191ZM949.804 645H1098.2a696.645 696.645 0 0 1 150.85 33.393L1158.06 836H540.667a696.6 696.6 0 0 1 409.137-191Zm-413.313 0h169.143a762.286 762.286 0 0 0-255.622 191H341.526a846.958 846.958 0 0 1 194.965-191Z" fill="#D46899"/><path d="M1156.12 1027h491.38a696.688 696.688 0 0 0-130.93-181.934 658.323 658.323 0 0 0-9.24-9.066h-240.94l-110.27 191ZM540.667 836h617.393l-90.14 156.117A348.273 348.273 0 0 0 866.463 1027H400.498a696.607 696.607 0 0 1 140.169-191Zm-199.141 0h108.485a762.315 762.315 0 0 0-122.148 191h-91.844a847.03 847.03 0 0 1 105.507-191Zm1364.944 0h-108.48a762.322 762.322 0 0 1 122.15 191h91.84c-1.78-4.51-3.6-9.01-5.45-13.5A847.242 847.242 0 0 0 1706.47 836Z" fill="#fff"/><path d="M1046.42 1217h91.38l92.41-160.06a346.621 346.621 0 0 1 40.07 34.41c32.35 32.34 58 70.74 75.51 113 1.73 4.19 3.38 8.4 4.95 12.65h359.33c-8.78-49.93-23-98.88-42.5-145.94a691.349 691.349 0 0 0-20.07-44.06h-491.38l-109.7 190Zm-645.922-190h465.965a348.258 348.258 0 0 0-164.249 177.35c-1.735 4.19-3.387 8.4-4.955 12.65H337.927a696.594 696.594 0 0 1 62.571-190Zm-164.479 0h91.844a744.611 744.611 0 0 0-8.136 18.92A762.164 762.164 0 0 0 271.306 1217h-85.671a846.861 846.861 0 0 1 50.384-190Zm1575.961 0h-91.84c2.79 6.26 5.5 12.57 8.13 18.92a762.266 762.266 0 0 1 48.42 171.08h85.67a846.266 846.266 0 0 0-50.38-190Z" fill="#D46899"/><path d="M1088.33 1302.68c4.28 9.43 6.67 19.92 6.67 30.96 0 41.42-33.58 75-75 75-41.421 0-75-33.58-75-75 0-41.43 33.579-75 75-75 .79 0 1.58.01 2.36.03l24.06-41.67h91.38l-49.47 85.68Zm262.41-85.68a348.247 348.247 0 0 1 21.56 120.64h348.3c0-40.54-3.54-80.9-10.53-120.64h-359.33Zm425.95 0c6.38 39.8 9.61 80.14 9.61 120.64h84.7c0-40.46-2.9-80.77-8.63-120.64h-85.68Zm-1079.43 0a348.316 348.316 0 0 0-21.559 120.64H327.402c0-40.54 3.538-80.9 10.525-120.64H697.26Zm-425.954 0a762.312 762.312 0 0 0-9.606 120.64H177c0-40.46 2.898-80.77 8.635-120.64h85.671Z" fill="#6476CC"/><defs><linearGradient id="a" x1="2048" y1="0" x2="0" y2="2048" gradientUnits="userSpaceOnUse"><stop stop-color="#71E6C5"/><stop offset="1" stop-color="#68D49E"/></linearGradient></defs></svg>