<svg width="2048" height="2048" viewBox="0 0 2048 2048" fill="none" xmlns="http://www.w3.org/2000/svg">
<rect width="2048" height="2048" fill="url(#paint0_linear_31037665)"/>
<path d="M749 1024.46L889.219 1164.68C913.101 1188.56 951.822 1188.56 975.704 1164.68L1299.38 841" stroke="white" stroke-width="121.684" stroke-linecap="round" stroke-linejoin="round"/>
<path d="M1558.75 663.479C1541.47 562.783 1453.74 486.158 1348.12 486.158H699.885C594.258 486.158 506.527 562.783 489.247 663.479H615.322C629.431 630.751 661.982 607.842 699.885 607.842H1348.12C1386.02 607.842 1418.57 630.751 1432.68 663.479H1558.75Z" fill="#F27777"/>
<path d="M489.246 663.479C487.216 675.31 486.158 687.474 486.158 699.885V844.086H607.842V699.885C607.842 686.953 610.509 674.644 615.322 663.479H489.246Z" fill="#E5AB71"/>
<path d="M1558.75 663.479H1432.68C1437.49 674.644 1440.16 686.953 1440.16 699.885V844.086H1561.84V699.885C1561.84 687.474 1560.78 675.31 1558.75 663.479Z" fill="#E5AB71"/>
<path d="M486.158 1022.44V844.086H607.842V1022.44H486.158Z" fill="#F2D377"/>
<path d="M1561.84 844.086V1022.44H1440.16V844.086H1561.84Z" fill="#F2D377"/>
<path d="M486.158 1201.92V1022.44H607.842V1201.92H486.158Z" fill="#5FB258"/>
<path d="M1561.84 1022.44V1201.92H1440.16V1022.44H1561.84Z" fill="#5FB258"/>
<path d="M488.913 1382.52C487.1 1371.32 486.158 1359.83 486.158 1348.12V1201.91H607.842V1348.12C607.842 1360.28 610.202 1371.89 614.488 1382.52H488.913Z" fill="#6476CC"/>
<path d="M1561.84 1201.91V1348.12C1561.84 1359.83 1560.9 1371.32 1559.09 1382.52H1433.51C1437.8 1371.89 1440.16 1360.28 1440.16 1348.12V1201.91H1561.84Z" fill="#6476CC"/>
<path d="M1559.09 1382.52C1542.63 1484.2 1454.44 1561.84 1348.12 1561.84H699.885C593.559 1561.84 505.368 1484.2 488.913 1382.52H614.488C628.115 1416.31 661.215 1440.16 699.885 1440.16H1348.12C1386.79 1440.16 1419.89 1416.31 1433.51 1382.52H1559.09Z" fill="#8D58B2"/>
<defs>
<linearGradient id="paint0_linear_31037665" x1="2048" y1="0" x2="0" y2="2048" gradientUnits="userSpaceOnUse">
<stop stop-color="#78ECF2"/>
<stop offset="1" stop-color="#71AFE5"/>
</linearGradient>
</defs>
</svg>
