<svg width="2048" height="2048" fill="none" xmlns="http://www.w3.org/2000/svg"><path fill="url(#a)" d="M0 0h2048v2048H0z"/><path d="m749 1024.46 140.219 140.22c23.882 23.88 62.603 23.88 86.485 0L1299.38 841" stroke="#fff" stroke-width="121.684" stroke-linecap="round" stroke-linejoin="round"/><path d="M1558.75 663.479c-17.28-100.696-105.01-177.321-210.63-177.321H699.885c-105.627 0-193.358 76.625-210.638 177.321h126.075c14.109-32.728 46.66-55.637 84.563-55.637h648.235c37.9 0 70.45 22.909 84.56 55.637h126.07Z" fill="#F27777"/><path d="M489.246 663.479a215.156 215.156 0 0 0-3.088 36.406v144.201h121.684V699.885c0-12.932 2.667-25.241 7.48-36.406H489.246ZM1558.75 663.479h-126.07c4.81 11.165 7.48 23.474 7.48 36.406v144.201h121.68V699.885c0-12.411-1.06-24.575-3.09-36.406Z" fill="#E5AB71"/><path d="M486.158 1022.44V844.086h121.684v178.354H486.158ZM1561.84 844.086v178.354h-121.68V844.086h121.68Z" fill="#F2D377"/><path d="M486.158 1201.92v-179.48h121.684v179.48H486.158ZM1561.84 1022.44v179.48h-121.68v-179.48h121.68Z" fill="#5FB258"/><path d="M488.913 1382.52a215.16 215.16 0 0 1-2.755-34.4v-146.21h121.684v146.21c0 12.16 2.36 23.77 6.646 34.4H488.913ZM1561.84 1201.91v146.21c0 11.71-.94 23.2-2.75 34.4h-125.58c4.29-10.63 6.65-22.24 6.65-34.4v-146.21h121.68Z" fill="#6476CC"/><path d="M1559.09 1382.52c-16.46 101.68-104.65 179.32-210.97 179.32H699.885c-106.326 0-194.517-77.64-210.972-179.32h125.575c13.627 33.79 46.727 57.64 85.397 57.64h648.235c38.67 0 71.77-23.85 85.39-57.64h125.58Z" fill="#8D58B2"/><defs><linearGradient id="a" x1="2048" y1="0" x2="0" y2="2048" gradientUnits="userSpaceOnUse"><stop stop-color="#78ECF2"/><stop offset="1" stop-color="#71AFE5"/></linearGradient></defs></svg>