<svg width="2048" height="2048" fill="none" xmlns="http://www.w3.org/2000/svg"><path fill="url(#a)" d="M0 0h2048v2048H0z"/><path d="m749 1024.46 140.219 140.22c23.882 23.88 62.603 23.88 86.485 0L1299.38 841" stroke="#fff" stroke-width="121.684" stroke-linecap="round" stroke-linejoin="round"/><path d="M1561.84 700v-.115c0-118.038-95.69-213.727-213.72-213.727H699.885c-118.038 0-213.727 95.689-213.727 213.727V700h121.684v-.115c0-50.834 41.209-92.043 92.043-92.043h648.235c50.83 0 92.04 41.209 92.04 92.043V700h121.68Z" fill="#71AFE5"/><path d="M486.158 916V700h121.684v216H486.158ZM1561.84 700v216h-121.68V700h121.68Z" fill="#D46899"/><path d="M486.158 1130V916h121.684v214H486.158ZM1561.84 916v214h-121.68V916h121.68Z" fill="#fff"/><path d="M486.158 1345v-215h121.684v215H486.158Zm1075.682-215v215h-121.68v-215h121.68Z" fill="#D46899"/><path d="M1561.84 1345v3.12c0 118.03-95.69 213.72-213.72 213.72H699.885c-118.038 0-213.727-95.69-213.727-213.72V1345h121.684v3.12c0 50.83 41.209 92.04 92.043 92.04h648.235c50.83 0 92.04-41.21 92.04-92.04V1345h121.68Z" fill="#71AFE5"/><defs><linearGradient id="a" x1="2048" y1="0" x2="0" y2="2048" gradientUnits="userSpaceOnUse"><stop stop-color="#6576CC"/><stop offset="1" stop-color="#775EBF"/></linearGradient></defs></svg>