<svg width="2048" height="2048" viewBox="0 0 2048 2048" fill="none" xmlns="http://www.w3.org/2000/svg">
<rect width="2048" height="2048" rx="1024" fill="url(#paint0_linear_31037652)"/>
<path d="M1505.69 1272.26C1518.05 1228.98 1492.98 1183.87 1449.7 1171.52C1406.41 1159.16 1361.31 1184.23 1348.95 1227.51L1505.69 1272.26ZM1028 507.008L946.497 507.008L1028 507.008ZM1348.95 1227.51C1332.17 1286.31 1299.36 1339.27 1254.19 1380.48L1364.05 1500.89C1431.56 1439.3 1480.6 1360.13 1505.69 1272.26L1348.95 1227.51ZM1254.19 1380.48C1209.02 1421.7 1153.28 1449.53 1093.19 1460.87L1123.43 1621.04C1213.23 1604.09 1296.55 1562.49 1364.05 1500.89L1254.19 1380.48ZM1093.19 1460.87C1033.11 1472.22 971.058 1466.62 913.974 1444.71L855.569 1596.89C940.888 1629.63 1033.63 1638 1123.43 1621.04L1093.19 1460.87ZM913.974 1444.71C856.889 1422.8 807.026 1385.45 769.959 1336.82L640.325 1435.63C695.724 1508.31 770.251 1564.15 855.569 1596.89L913.974 1444.71ZM769.959 1336.82C732.893 1288.19 710.086 1230.21 704.089 1169.36L541.875 1185.35C550.838 1276.29 584.925 1362.95 640.325 1435.63L769.959 1336.82ZM704.089 1169.36C698.092 1108.51 709.142 1047.19 736.002 992.264L589.572 920.659C549.427 1002.75 532.912 1094.4 541.875 1185.35L704.089 1169.36ZM736.002 992.264C760.927 941.295 808.959 893.784 864.994 858.424L778.006 720.576C705.047 766.616 631.654 834.603 589.572 920.659L736.002 992.264ZM946.497 3.42587e-06L946.497 507.008L1109.5 507.008L1109.5 -3.42587e-06L946.497 3.42587e-06ZM864.994 858.424C920.484 823.407 979.938 777.665 1026.26 721.11C1072.82 664.27 1109.5 592.16 1109.5 507.008L946.497 507.008C946.497 543.15 931.212 579.921 900.167 617.821C868.889 656.005 825.094 690.862 778.006 720.576L864.994 858.424Z" fill="#424242"/>
<defs>
<linearGradient id="paint0_linear_31037652" x1="2048" y1="0" x2="0" y2="2048" gradientUnits="userSpaceOnUse">
<stop stop-color="#F2D478"/>
<stop offset="1" stop-color="#EDC575"/>
</linearGradient>
</defs>
</svg>
