<svg width="2048" height="2048" fill="none" xmlns="http://www.w3.org/2000/svg"><rect width="2048" height="2048" rx="1024" fill="url(#a)"/><path d="M1505.69 1272.26c12.36-43.28-12.71-88.39-55.99-100.74-43.29-12.36-88.39 12.71-100.75 55.99l156.74 44.75ZM1028 507.008h-81.503H1028Zm320.95 720.502a329.432 329.432 0 0 1-94.76 152.97l109.86 120.41a492.538 492.538 0 0 0 141.64-228.63l-156.74-44.75Zm-94.76 152.97a329.471 329.471 0 0 1-161 80.39l30.24 160.17a492.464 492.464 0 0 0 240.62-120.15l-109.86-120.41Zm-161 80.39a329.462 329.462 0 0 1-179.216-16.16l-58.405 152.18a492.526 492.526 0 0 0 267.861 24.15l-30.24-160.17Zm-179.216-16.16a329.547 329.547 0 0 1-144.015-107.89l-129.634 98.81a492.522 492.522 0 0 0 215.244 161.26l58.405-152.18Zm-144.015-107.89a329.568 329.568 0 0 1-65.87-167.46l-162.214 15.99a492.557 492.557 0 0 0 98.45 250.28l129.634-98.81Zm-65.87-167.46a329.556 329.556 0 0 1 31.913-177.096l-146.43-71.605a492.558 492.558 0 0 0-47.697 264.691l162.214-15.99Zm31.913-177.096c24.925-50.969 72.957-98.48 128.992-133.84l-86.988-137.848c-72.959 46.04-146.352 114.027-188.434 200.083l146.43 71.605ZM946.497 0v507.008H1109.5V0H946.497Zm-81.503 858.424c55.49-35.017 114.944-80.759 161.266-137.314 46.56-56.84 83.24-128.95 83.24-214.102H946.497c0 36.142-15.285 72.913-46.33 110.813-31.278 38.184-75.073 73.041-122.161 102.755l86.988 137.848Z" fill="#424242"/><defs><linearGradient id="a" x1="2048" y1="0" x2="0" y2="2048" gradientUnits="userSpaceOnUse"><stop stop-color="#F2D478"/><stop offset="1" stop-color="#EDC575"/></linearGradient></defs></svg>