<svg width="256" height="256" fill="none" xmlns="http://www.w3.org/2000/svg"><path d="M88.5 188.5v-9h71v-112h9v121h-80Z" fill="#775EBF"/><path d="M108.5 208.5v-9h71v-112h9v121h-80Z" fill="#775EBF"/><path d="M68.5 168.5v-121h80v121h-80Z" fill="#775EBF"/><path fill-rule="evenodd" clip-rule="evenodd" d="M0 50C0 22.386 22.386 0 50 0h156c27.614 0 50 22.386 50 50v156c0 27.614-22.386 50-50 50H50c-27.614 0-50-22.386-50-50V50Zm57.5-13.5v143h20v20h20v20h102v-143h-20v-20h-20v-20h-102Z" fill="#775EBF"/></svg>