<svg width="256" height="256" fill="none" xmlns="http://www.w3.org/2000/svg"><path fill-rule="evenodd" clip-rule="evenodd" d="M50 0C22.386 0 0 22.386 0 50v156c0 27.614 22.386 50 50 50h156c27.614 0 50-22.386 50-50V50c0-27.614-22.386-50-50-50H50Zm171.364 106.6c-6.221 0-11.546-4.258-13.821-10.047a84.99 84.99 0 0 0-4.13-8.944c-2.703-5.057-2.226-11.398 1.828-15.454 4.617-4.621 4.616-12.11-.003-16.728l-4.677-4.676c-4.617-4.618-12.104-4.616-16.719.002-4.049 4.051-10.381 4.534-15.432 1.835a85.065 85.065 0 0 0-8.973-4.141c-5.785-2.274-10.037-7.596-10.037-13.812 0-7.53-6.105-13.635-13.635-13.635h-15.53c-7.53 0-13.635 6.105-13.635 13.635 0 6.22-4.259 11.545-10.05 13.82a84.414 84.414 0 0 0-8.942 4.127c-5.056 2.703-11.398 2.228-15.452-1.826-4.615-4.615-12.097-4.615-16.712 0l-4.688 4.688c-4.615 4.615-4.615 12.097 0 16.712 4.054 4.054 4.53 10.396 1.826 15.452a84.414 84.414 0 0 0-4.128 8.943c-2.274 5.79-7.598 10.049-13.82 10.049-7.53 0-13.634 6.105-13.634 13.635v15.53c0 7.53 6.105 13.635 13.635 13.635 6.22 0 11.546 4.259 13.82 10.049a84.595 84.595 0 0 0 4.13 8.944c2.702 5.055 2.226 11.396-1.828 15.45-4.615 4.615-4.615 12.099 0 16.714l4.681 4.681c4.618 4.618 12.106 4.618 16.724 0 4.052-4.052 10.389-4.532 15.442-1.83a84.979 84.979 0 0 0 8.95 4.134c5.788 2.276 10.046 7.601 10.046 13.822 0 7.531 6.105 13.636 13.636 13.636h15.529c7.53 0 13.635-6.105 13.635-13.635 0-6.221 4.259-11.546 10.048-13.822a84.915 84.915 0 0 0 8.963-4.14c5.05-2.701 11.382-2.218 15.431 1.833 4.615 4.619 12.102 4.62 16.719.003l4.683-4.683c4.615-4.615 4.616-12.098.002-16.715-4.05-4.054-4.527-10.391-1.827-15.445a85.045 85.045 0 0 0 4.134-8.961c2.273-5.784 7.595-10.035 13.81-10.035 7.532 0 13.637-6.105 13.637-13.637v-15.527c0-7.531-6.105-13.636-13.636-13.636ZM170.8 128c0 23.637-19.163 42.8-42.8 42.8-23.638 0-42.8-19.163-42.8-42.8 0-23.638 19.162-42.8 42.8-42.8 23.637 0 42.8 19.162 42.8 42.8Z" fill="#8D8D8D"/></svg>