<svg width="256" height="256" fill="none" xmlns="http://www.w3.org/2000/svg"><path fill-rule="evenodd" clip-rule="evenodd" d="M50 0C22.386 0 0 22.386 0 50v156c0 27.61 22.386 50 50 50h156c27.614 0 50-22.39 50-50V50c0-27.614-22.386-50-50-50H50Zm126.471 192.76c-13.678 9.66-30.369 15.33-48.384 15.33-18.043 0-34.757-5.69-48.446-15.37 1.125-8.83 6.042-17.13 14.004-23.47 9.125-7.25 21.503-11.33 34.408-11.33 12.906 0 25.283 4.08 34.408 11.33 7.975 6.35 12.896 14.66 14.01 23.51Zm10.349-8.62c-2.736-8.15-8.129-15.66-15.757-21.73-11.407-9.07-26.878-14.17-43.01-14.17-16.132 0-31.603 5.1-43.01 14.17-7.613 6.06-13 13.55-15.74 21.68-15.561-15.25-25.217-36.5-25.217-60 0-46.395 37.609-84.004 84.001-84.004s84 37.609 84 84.004c0 23.53-9.676 44.8-25.267 60.05Zm37.353-60.05c0 53.06-43.019 96.08-96.086 96.08S32 177.15 32 124.09C32 71.019 75.02 28 128.087 28s96.086 43.019 96.086 96.09Zm-96.12-.47c13.062 0 23.523-10.5 23.523-23.29 0-12.788-10.461-23.285-23.523-23.285S104.53 87.542 104.53 100.33c0 12.79 10.461 23.29 23.523 23.29Zm0 11c19.066 0 34.523-15.35 34.523-34.29 0-18.933-15.457-34.285-34.523-34.285-19.066 0-34.523 15.352-34.523 34.285 0 18.94 15.457 34.29 34.523 34.29Z" fill="#6576CC"/></svg>