<svg width="256" height="256" fill="none" xmlns="http://www.w3.org/2000/svg"><path fill-rule="evenodd" clip-rule="evenodd" d="M50 0C22.386 0 0 22.386 0 50v156c0 27.614 22.386 50 50 50h156c27.614 0 50-22.386 50-50V50c0-27.614-22.386-50-50-50H50Zm158.901 159.793h-20.456c-25.825 0-40.751-14.984-54.349-31.793 13.598-16.809 28.524-31.793 54.349-31.793h20.456v19.076L235 89.141 208.901 63v19.076h-29.626c-26.474 0-41.494 15.747-55.371 33.064-13.878-17.317-28.897-33.064-55.372-33.064h-39.5c-3.896 0-7.032 3.163-7.032 7.065 0 3.902 3.14 7.066 7.036 7.066h30.326c25.826 0 40.751 14.984 54.349 31.793-13.598 16.809-28.523 31.793-54.349 31.793H29.036c-3.896 0-7.036 3.164-7.036 7.066 0 3.902 3.136 7.065 7.032 7.065h39.5c26.475 0 41.494-15.747 55.372-33.064 13.877 17.317 28.897 33.064 55.371 33.064h29.626V193L235 166.859l-26.099-26.142v19.076Z" fill="#71AFE5"/></svg>