<svg width="256" height="256" fill="none" xmlns="http://www.w3.org/2000/svg"><path fill-rule="evenodd" clip-rule="evenodd" d="M0 50C0 22.386 22.386 0 50 0h156c27.614 0 50 22.386 50 50v156c0 27.614-22.386 50-50 50H50c-27.614 0-50-22.386-50-50V50Zm59.584 117.5c21.815 37.785 70.131 50.731 107.916 28.916s50.731-70.131 28.916-107.916S126.285 37.769 88.5 59.584 37.769 129.715 59.584 167.5Zm-17.32 10c27.337 47.351 87.885 63.575 135.236 36.236 47.351-27.338 63.575-87.885 36.236-135.236a99.656 99.656 0 0 0-9.767-14.006c.119-.095.235-.198.345-.308l5.41-5.41a4 4 0 0 0 0-5.656l-8.486-8.486a4 4 0 0 0-5.657 0l-5.409 5.41c-.165.165-.312.34-.442.524C174.774 38.652 156.742 31.418 138 29.5V24a4 4 0 0 0-4-4h-12a4 4 0 0 0-4 4v5.482c-13.517 1.364-26.97 5.548-39.5 12.781C31.149 69.602 14.925 130.15 42.263 177.5Zm138.564-80c-2.762-4.783-8.878-6.422-13.661-3.66L123 119.34c-4.783 2.761-6.422 8.877-3.66 13.66 2.761 4.783 8.877 6.422 13.66 3.66l44.167-25.5c4.783-2.761 6.422-8.877 3.661-13.66Z" fill="#F27878"/></svg>