<svg width="550" height="250" fill="none" xmlns="http://www.w3.org/2000/svg"><g filter="url(#a)"><rect x="25" y="25" width="500" height="200" rx="25.328" fill="url(#b)" fill-opacity=".65" shape-rendering="crispEdges"/></g><mask id="c" style="mask-type:alpha" maskUnits="userSpaceOnUse" x="25" y="25" width="500" height="200"><rect x="25" y="25" width="500" height="200" rx="25.328" fill="#181818"/></mask><g mask="url(#c)"><path d="m253.613 104.274 56.986-10.72m0 0 19.281-3.626m-19.281 3.627-7.363 12.374-34.277 6.448m0 0 9.173 3.77m-9.173-3.77-10.711 2.015m19.884 1.755 9.172 3.769 29.994-5.642 4.171-7.012m-43.337 8.885-11.045 18.562-62.126 11.686m53.287-32.003-32.563 6.125m32.563-6.125-7.363 12.375-73.696 13.862m0 0-2.454 4.125m2.454-4.125-44.988 8.463m42.534-4.338-4.908 8.25-18.424 3.466m23.332-11.716 29.964 12.314 30.42-5.723m23.994-4.513-7.363 12.375-58.27 10.961m-13.204-8.506-30.42 5.722-17.734-7.287-53.986 10.155m0 0-17.567 3.304m17.567-3.304 17.733 7.287m183.382-34.495 7.117-11.962 40.704-7.657 17.734 7.287m-414.402 88.943 17.734 7.287 46.274-8.704m0 0-17.734-7.288m17.734 7.288 18.345 7.538 57.842-10.88 6.872-11.55m0 0 13.71-2.579 7.609-12.787m-21.32 15.366-22.28 4.191m43.6-19.557-34.706 6.528m34.706-6.528 10.711-2.015 7.363-12.375 14.568-2.74M43.09 198.457l-7.118 11.963-17.995 3.385-17.733-7.288m0 0 14.996-2.821 7.362-12.374M.244 206.517l-18.345-7.539-19.71 3.708-7.117 11.962m228.195-86.151 18.852-3.547 9.572-16.087m-28.424 19.634-44.989 8.462m44.989-8.462 7.363-12.375m25.969-15.508-4.908 8.249m0 0-12.23-5.026-38.562 7.254m10.021 8.738-49.701 9.35-7.363 12.374m0 0-7.363 12.375m7.363-12.375-22.28 4.191-6.872 11.55-23.994 4.514-10.395-4.272m0 0-4.172 7.012-39.847 7.495m44.019-14.507-6.727-2.765m0 0 26.137-4.916m-26.137 4.916-9.854 1.854L16 149.338m0 0 19.71-3.708M16 149.338l-12.425 2.337-35.467-14.575M76.16 181.247l-35.99 6.77-17.734-7.287m0 0 17.567-3.305m-17.567 3.305L7.44 183.55l-28.74-11.81m0 0 3.19-5.363 28.707-5.4m-31.898 10.763-3.681 6.187-30.85 5.803m20.924-35.806-67.268 12.654-7.363 12.375m363.922-90.437 38.561-7.253 6.872-11.55 22.709-4.272m-87.851 26.783-28.279 5.32-17.733-7.288L150.1 91.51m31.873 4.627-37.276 7.012-36.079-14.826-28.707 5.4m-33.927 17.372 57.414-10.8 18.039 7.413m18.039 7.413-18.039-7.413m0 0-78.194 14.709m74.382-3.186-14.568 2.741-7.118 11.962-40.275 7.576m21.257-14.622-35.134 6.609-12.842-5.277m-38.557 4.689 34.277-6.448 4.28 1.759m0 0-4.663 7.837-17.995 3.385m122.067 42.977 44.131-8.302 6.727 2.764m0 0 11.007 4.524 28.706-5.4m-39.713.876-4.418 7.425-65.126 12.251m109.257-20.552 18.853-3.547m-18.853 3.547-7.362 12.374-50.13 9.43m0 0L92.45 210.785m68.983-12.976 17.733 7.288 48.416-9.108 7.118-11.962 35.134-6.609 18.344 7.539m41.482 3.186-23.137 4.353-18.345-7.539m-31.119-16.126 14.996-2.82 18.345 7.538 46.274-8.704m-29.706 17.31 44.132-8.302m0 0 17.122 7.037 56.128-10.559m-73.25 3.522 31.278-5.883m-320.61 59.21 58.699-11.042 9.478 3.896m28.759.268-19.281 3.627-9.478-3.895m0 0-3.804 6.393-10.712 2.015m-54.185 20.084 36.847-6.932 6.627-11.137 10.711-2.015m0 0 16.511 6.785 44.988-8.463m-95.347 8.045-56.129 10.558-17.121-7.036 31.277-5.883M-.29 119.799l25.28-4.755 7.362-12.375 28.279-5.32M44.61 89.74l66.411-12.493 18.957 7.79 46.702-8.785 7.608-12.787 42.418-7.979m-44.909-2.542-65.555 12.332m0 0L70.397 73.9m45.846-8.624 18.345 7.539 27.421-5.159m-110.035 9.71L27.98 81.878m0 0-54.843 10.316M27.98 81.88l-14.235 23.924-56.985 10.72m238.836-44.561 54.415-10.236 17.733 7.287m0 0 4.285-.806 7.362-12.374m-11.647 13.18-50.558 9.51M1.336 97.88l-32.563 6.126m0 0-18.345-7.54-33.42 6.287m51.765 1.253-64.698 12.17m297.003-66.858 31.706-5.965 7.118-11.962m0 0 49.273-9.269m-49.273 9.27-93.833 17.65m42.496-18.984L130.294 41.02l-6.871 11.55-29.35 5.52M109.3 44.97l-33.849 6.367m0 0-6.871 11.55-26.994 5.077m33.865-16.627-6.855 1.29m0 0L-.814 65.681m69.41-13.056-7.338-3.016m-46.935 1.502 34.705-6.528 12.23 5.026m0 0 4.172-7.012 37.276-7.012m0 0 20.138-3.788m-20.138 3.788-18.956-7.79-39.847 7.495m0 0-69.84 13.138m69.84-13.138 6.872-11.55 77.98-14.668M11.103 74.43l-44.56 8.382-18.345-7.539m0 0 29.564-5.56m-29.564 5.56-25.707 4.836 7.362-12.374 28.279-5.32m191.277-35.614 42.846-8.06 17.733 7.287 56.129-10.558M-12.304 56.854l-12.854 2.418-27.518-11.308m0 0 3.19-5.363L4.074 32.527m-56.749 15.437-3.926 6.6-21.423 4.03m247.467-46.918 24.851-4.674 18.345 7.538 36.419-6.85m.508-11.086-35.991 6.77-17.122-7.036-41.561 7.818-6.872 11.55-40.704 7.657m180.863 161.594-23.565 4.433m-23.952 16.594 8.099-13.612 15.853-2.982m-23.952 16.594-6.627 11.137m6.627-11.137 33.632 13.821m-53.033-11.271-41.99 7.899m0 0-18.345-7.539-20.566 3.869m38.911 3.67 18.345 7.539 14.568-2.74m19.693 6.552 18.852-3.546 17.733 7.287 24.423-4.594m0 0 16.71-3.143m-16.71 3.143-7.608 12.788-22.28 4.191m-147.338-5.62 18.957 7.79 74.981-14.105 17.733 7.288m-20.874 5.025-20.995 3.95-6.871 11.549-21.424 4.03m0 0-30.849 5.803m30.849-5.803-3.313 5.569m0 0-3.313 5.568-27.422 5.159-18.039-7.414m48.774-3.313 9.478 3.895 48.417-9.108 18.345 7.539m-171.331-1.106 28.278-5.32 18.039 7.413m0 0-7.73 12.994m69.26-33.909-58.271 10.961-9.784-4.021m-62.484 5.893 52.7-9.913 9.784 4.02m0 0 3.927-6.599 11.569-2.177m150.564-60.558 18.956 7.79m66.657-12.905-6.626 11.137-65.126 12.251-17.734-7.288m123.256-11.463-18.424 3.466-6.872 11.549-42.846 8.06m0 0-18.852 3.546m18.852-3.546 17.734 7.288 45.845-8.624 9.172 3.769m38.308-1.711-29.135 5.481-9.173-3.77m0 0-3.681 6.187-38.133 7.174m-17.812 3.717-20.995 3.949-7.363 12.375m0 0 22.709-4.272 18.345 7.539m-41.054-3.267-60.841 11.444-18.345-7.538m120.24-.639-29.993 5.641m29.993-5.641 32.134-6.045 17.122 7.036m-169.496-.352-22.709 4.271m22.709-4.271 21.423-4.03 6.872-11.55m-69.34 44.913 33.849-6.367 18.344 7.539m57.493-21.805-41.132 7.738-7.117 11.962m-67.514 13.066-17.734-7.287-66.411 12.492m0 0-35.991 6.77m35.99-6.77-18.956-7.79m270.971-50.605 71.982-13.541m-23.233 25.617 26.136-4.916m-26.136 4.916-30.849 5.803M596.383 39.796l56.985-10.72m0 0 19.281-3.626m-19.281 3.627-7.363 12.375-34.277 6.447m0 0 9.173 3.77m-9.173-3.77-10.711 2.015m19.884 1.755 9.172 3.77m-9.172-3.77L609.857 70.23 547.73 81.917m53.287-32.003-32.563 6.126m32.563-6.126-7.363 12.375-73.695 13.863m0 0-2.454 4.124m2.454-4.124-44.989 8.462m42.535-4.338-4.909 8.25-18.424 3.466m23.333-11.716 29.963 12.314 30.421-5.722m23.994-4.514L594.52 94.73l-58.271 10.961m-13.203-8.506-30.421 5.722-17.734-7.287-53.986 10.155m0 0-17.567 3.305m17.567-3.305 17.734 7.288M622.02 78.566l7.118-11.962 40.703-7.657 17.734 7.288m-414.401 88.942 17.733 7.287 46.274-8.704m0 0-17.734-7.288m17.734 7.288 18.345 7.539 57.842-10.881 6.872-11.55m0 0 13.711-2.579 7.608-12.787m-21.319 15.366-22.28 4.191m43.599-19.557-34.705 6.528m34.705-6.528 10.712-2.015 7.362-12.375 14.568-2.74m-88.342 27.608-7.117 11.962-17.996 3.385-17.733-7.288m0 0 14.996-2.821 7.363-12.374m-22.359 15.195-18.345-7.538-19.709 3.707-7.118 11.962m228.195-86.151 18.852-3.547 9.572-16.087M526.036 64.02l-44.988 8.462m44.988-8.462 7.363-12.375m25.97-15.508-4.909 8.25m0 0-12.23-5.026-38.561 7.253m10.021 8.739L463.988 64.7l-7.363 12.375m0 0-7.362 12.374m7.362-12.374-22.28 4.19-6.872 11.55-23.993 4.514-10.396-4.272m0 0-4.172 7.012-39.847 7.496m44.019-14.508-6.726-2.765m0 0 26.136-4.916m-26.136 4.916-9.855 1.854-17.733-7.287m0 0 19.709-3.708M358.77 84.86l-12.426 2.337-35.467-14.575m108.052 44.147-35.99 6.77-17.734-7.287m0 0 17.567-3.305m-17.567 3.305-14.996 2.821-28.74-11.811m0 0 3.19-5.362 28.707-5.4m-45.504-13.054L240.593 96.1l-7.363 12.375m363.922-90.436 38.562-7.254 6.872-11.55 22.708-4.271m-87.851 26.782-28.279 5.32-17.733-7.288-38.562 7.254m31.873 4.628-37.276 7.012-36.079-14.827-28.706 5.4m-33.928 17.372 57.414-10.8 18.039 7.413m18.039 7.413-18.039-7.413m0 0-78.194 14.709m74.382-3.185-14.568 2.74-7.117 11.962-40.276 7.576M419.69 62.41l-35.134 6.61-12.841-5.278m-38.558 4.689 34.277-6.448 4.281 1.76m0 0-4.663 7.836-17.996 3.386m122.067 42.976 44.131-8.302 6.727 2.764m0 0 11.007 4.524 28.707-5.4m-39.714.876-4.418 7.425-65.126 12.251m109.258-20.552 18.852-3.547m-18.852 3.547-7.363 12.374-50.13 9.43m0 0-68.982 12.976m68.982-12.976 17.733 7.288 48.417-9.108 7.117-11.962 35.134-6.609 18.345 7.539m41.482 3.187-23.137 4.352-18.345-7.539m-31.12-16.125 14.996-2.821 18.345 7.538 46.274-8.704m-29.397 16.153 44.131-8.301m-289.64 54.483 58.699-11.041 9.478 3.895m28.759.268-19.28 3.627-9.479-3.895m0 0-3.804 6.393-10.711 2.015m-54.186 20.084 36.848-6.932 6.626-11.137 10.712-2.015m0 0 16.51 6.785 44.989-8.463M342.479 55.321l25.28-4.755 7.362-12.375 28.279-5.319m-16.02-7.61 66.412-12.492 18.956 7.79 46.702-8.785 7.609-12.788 42.417-7.979m-44.909-2.541L459.012.796m0 0-45.845 8.625M459.012.798l18.345 7.539 27.422-5.158m-110.036 9.709L370.749 17.4m0 0-54.843 10.316m54.843-10.316-14.235 23.924-56.985 10.72M538.365 7.484 592.78-2.752l17.733 7.288m0 0 4.285-.806 7.363-12.375m-11.648 13.18-50.558 9.511M344.106 33.403l-32.564 6.125m0 0-18.344-7.539-33.42 6.287m51.764 1.252-64.697 12.17M543.848-15.16l31.706-5.965 7.117-11.962m0 0 49.273-9.268m-49.273 9.268-93.833 17.651m42.497-18.983-58.271 10.96-6.872 11.55-29.35 5.521m15.227-13.121-33.848 6.367m0 0-6.872 11.55-26.993 5.077m33.865-16.627-6.856 1.29m0 0-69.41 13.056m69.41-13.056-7.338-3.016m-46.935 1.503 34.705-6.529 12.23 5.026m0 0 4.173-7.012 37.276-7.012m0 0 20.137-3.788m-20.137 3.788-18.957-7.79-39.847 7.495m0 0-69.839 13.138m69.839-13.138 6.872-11.55 77.98-14.668M353.873 9.952l-44.56 8.382-18.345-7.538m0 0 29.563-5.562m-29.563 5.562L265.26 15.63l7.363-12.374 28.278-5.32m191.277-35.614 42.846-8.06 17.734 7.288 56.128-10.559M330.465-7.624l-12.854 2.418-27.517-11.308m0 0 3.19-5.363 53.558-10.074m-56.748 15.437-3.927 6.6-21.423 4.03m247.468-46.918 24.85-4.674 18.345 7.538 36.42-6.85m.507-11.085-35.991 6.77-17.122-7.036-41.561 7.817-6.871 11.55-40.704 7.657m180.863 161.594-23.566 4.433m-23.952 16.594 8.099-13.612 15.853-2.982m-23.952 16.594-6.626 11.137m6.626-11.137 33.633 13.821m-53.034-11.27-41.989 7.898m0 0-18.345-7.539-20.567 3.869m38.912 3.67 18.345 7.539 14.567-2.74m19.693 6.552 18.852-3.546 17.734 7.288 24.422-4.594m0 0 16.71-3.144m-16.71 3.144-7.608 12.787-22.28 4.191m-147.337-5.62 18.956 7.79 74.981-14.105 17.733 7.288m-20.874 5.025-20.994 3.95-6.872 11.549-21.423 4.03m0 0-30.849 5.803m30.849-5.803-3.313 5.569m0 0-3.314 5.568-27.421 5.159-18.039-7.413m48.774-3.314 9.478 3.895 48.416-9.108 18.345 7.539m-171.331-1.106 28.278-5.32 18.04 7.414m0 0-7.731 12.993m69.26-33.909-58.27 10.961-9.784-4.02m-62.485 5.892 52.701-9.913 9.784 4.021m0 0 3.927-6.6 11.568-2.176m150.564-60.559 18.957 7.79m66.657-12.905-6.627 11.137-65.126 12.251-17.733-7.288m123.255-11.463-18.423 3.466-6.872 11.55-42.847 8.059m0 0-18.852 3.547m18.852-3.547 17.734 7.288 45.845-8.624 9.173 3.769m38.308-1.711-29.136 5.481-9.172-3.77m0 0-3.682 6.188-38.133 7.173m-17.812 3.717-20.995 3.949-7.362 12.375m0 0 22.708-4.272 18.345 7.539m-41.053-3.267-60.842 11.445-18.345-7.539m120.24-.639-29.992 5.642m29.992-5.642 32.135-6.045 17.122 7.036m-169.497-.352-22.708 4.271m22.708-4.271 21.423-4.03 6.872-11.55m-69.34 44.914 33.849-6.368 18.345 7.539m57.493-21.804-41.133 7.737-7.117 11.962m-67.514 13.066-17.733-7.287-66.412 12.492m0 0-35.991 6.771m35.991-6.771-18.956-7.79m270.97-50.605 71.982-13.541m-23.232 25.617 26.136-4.916m-26.136 4.916-30.85 5.803" stroke="url(#d)" stroke-opacity=".35" stroke-width="5.319" stroke-linecap="round" stroke-linejoin="round"/></g><g filter="url(#e)"><path d="M144.141 92.495h-20.925l-4.378 12.577h-9.758l20.406-54.02h8.422l20.443 54.02h-9.795l-4.415-12.577Zm-18.291-7.57h15.657l-7.828-22.409-7.829 22.41Zm61.664 16.214c-2.647 3.117-6.407 4.675-11.279 4.675-4.354 0-7.656-1.274-9.907-3.821-2.226-2.548-3.339-6.233-3.339-11.057V64.928h9.016v25.897c0 5.095 2.115 7.643 6.344 7.643 4.378 0 7.334-1.57 8.868-4.712V64.928h9.015v40.144h-8.496l-.222-3.933Zm29.199-45.969v9.758h7.086v6.678h-7.086v22.41c0 1.533.297 2.646.89 3.339.619.668 1.707 1.002 3.265 1.002 1.039 0 2.09-.124 3.154-.371v6.975c-2.053.569-4.032.853-5.936.853-6.926 0-10.389-3.821-10.389-11.464V71.606h-6.604v-6.678h6.604V55.17h9.016Zm11.205 29.46c0-3.934.779-7.47 2.337-10.612 1.558-3.166 3.747-5.59 6.567-7.272 2.82-1.707 6.06-2.56 9.721-2.56 5.417 0 9.807 1.744 13.171 5.231 3.389 3.488 5.219 8.113 5.491 13.876l.037 2.115c0 3.958-.767 7.495-2.3 10.611-1.509 3.117-3.686 5.529-6.53 7.235-2.82 1.707-6.085 2.56-9.795 2.56-5.664 0-10.203-1.88-13.616-5.639-3.389-3.785-5.083-8.818-5.083-15.1v-.446Zm9.015.778c0 4.13.854 7.371 2.56 9.72 1.707 2.326 4.082 3.489 7.124 3.489s5.405-1.188 7.086-3.562c1.707-2.375 2.561-5.85 2.561-10.426 0-4.056-.879-7.272-2.635-9.647-1.731-2.374-4.093-3.561-7.086-3.561-2.944 0-5.281 1.175-7.012 3.524-1.732 2.326-2.598 5.813-2.598 10.463Zm44.411-20.48.26 4.192c2.82-3.29 6.679-4.934 11.576-4.934 5.367 0 9.041 2.053 11.019 6.159 2.919-4.106 7.025-6.16 12.318-6.16 4.428 0 7.717 1.225 9.869 3.674 2.177 2.449 3.29 6.06 3.339 10.834v26.379h-9.015v-26.12c0-2.547-.557-4.415-1.67-5.602-1.113-1.187-2.956-1.78-5.528-1.78-2.053 0-3.735.556-5.046 1.669-1.286 1.088-2.189 2.523-2.708 4.304l.037 27.529h-9.016V78.656c-.124-4.725-2.535-7.087-7.235-7.087-3.611 0-6.171 1.472-7.68 4.415v29.088h-9.016V64.928h8.496Zm81.625 40.144c-.396-.767-.742-2.016-1.039-3.747-2.869 2.993-6.382 4.489-10.537 4.489-4.032 0-7.321-1.15-9.869-3.45-2.548-2.301-3.822-5.145-3.822-8.534 0-4.279 1.583-7.556 4.749-9.832 3.191-2.3 7.742-3.45 13.654-3.45h5.528v-2.634c0-2.078-.581-3.735-1.744-4.972-1.162-1.261-2.931-1.892-5.305-1.892-2.053 0-3.735.52-5.046 1.558-1.311 1.014-1.966 2.313-1.966 3.896h-9.016c0-2.202.729-4.255 2.189-6.16 1.459-1.928 3.438-3.437 5.936-4.526 2.523-1.088 5.33-1.632 8.422-1.632 4.7 0 8.447 1.187 11.242 3.562 2.795 2.35 4.23 5.664 4.304 9.943v18.106c0 3.611.507 6.493 1.521 8.645v.63h-9.201Zm-9.906-6.493c1.781 0 3.45-.432 5.008-1.298 1.583-.866 2.771-2.028 3.562-3.488v-7.569h-4.86c-3.339 0-5.85.582-7.532 1.744-1.682 1.163-2.523 2.808-2.523 4.935 0 1.731.569 3.116 1.707 4.155 1.162 1.014 2.708 1.521 4.638 1.521Zm38.326-43.409v9.758h7.086v6.678h-7.086v22.41c0 1.533.297 2.646.89 3.339.619.668 1.707 1.002 3.265 1.002 1.039 0 2.09-.124 3.154-.371v6.975c-2.053.569-4.032.853-5.936.853-6.926 0-10.389-3.821-10.389-11.464V71.606h-6.604v-6.678h6.604V55.17h9.016Zm31.685 50.644c-5.714 0-10.351-1.793-13.913-5.379-3.537-3.612-5.306-8.41-5.306-14.396v-1.113c0-4.007.767-7.581 2.301-10.723 1.558-3.166 3.735-5.627 6.53-7.383 2.795-1.756 5.911-2.634 9.349-2.634 5.467 0 9.684 1.744 12.652 5.231 2.993 3.488 4.489 8.422 4.489 14.804v3.636h-26.231c.272 3.314 1.373 5.936 3.302 7.866 1.954 1.929 4.403 2.894 7.347 2.894 4.13 0 7.494-1.67 10.091-5.01l4.861 4.639c-1.608 2.399-3.76 4.266-6.456 5.602-2.671 1.311-5.677 1.966-9.016 1.966Zm-1.076-34.393c-2.473 0-4.477.865-6.01 2.597-1.509 1.731-2.474 4.143-2.894 7.235h17.178v-.668c-.198-3.018-1.002-5.293-2.412-6.827-1.41-1.558-3.364-2.337-5.862-2.337Z" fill="url(#f)"/></g><g filter="url(#g)"><path d="m134.367 145.014 4.064-11.704h1.659l-5.942 16.283-.309.72c-.763 1.69-1.942 2.534-3.537 2.534a4.32 4.32 0 0 1-1.183-.18l-.013-1.273.798.077c.754 0 1.363-.189 1.826-.566.472-.369.87-1.007 1.196-1.916l.682-1.878-5.248-13.801h1.685l4.322 11.704Zm7.061-4.952c0-1.337.257-2.542.772-3.614.523-1.072 1.256-1.903 2.199-2.495.952-.6 2.028-.9 3.229-.9 1.852 0 3.352.651 4.501 1.955 1.149 1.294 1.724 3.014 1.724 5.157v.322c0 1.346-.262 2.559-.785 3.64-.514 1.072-1.243 1.899-2.186 2.482-.944.583-2.02.875-3.229.875-1.843 0-3.344-.648-4.501-1.942-1.149-1.304-1.724-3.027-1.724-5.171v-.309Zm1.543.425c0 1.663.429 3.031 1.287 4.103.866 1.063 1.998 1.595 3.395 1.595 1.389 0 2.513-.532 3.37-1.595.866-1.072 1.299-2.483 1.299-4.232v-.296c0-1.063-.197-2.036-.592-2.919-.394-.883-.947-1.565-1.659-2.045-.711-.489-1.526-.733-2.443-.733-1.372 0-2.491.54-3.357 1.62-.867 1.072-1.3 2.478-1.3 4.219v.283Zm23.023 4.977c-.926 1.347-2.405 2.02-4.437 2.02-1.483 0-2.611-.429-3.383-1.286-.771-.866-1.166-2.144-1.183-3.833v-9.055h1.531v8.862c0 2.649 1.071 3.974 3.215 3.974 2.23 0 3.64-.922 4.232-2.765V133.31h1.543v13.917h-1.492l-.026-1.763Zm11.962-10.842a5.752 5.752 0 0 0-1.042-.09c-.96 0-1.775.27-2.443.81-.661.532-1.132 1.308-1.415 2.328v9.557h-1.531V133.31h1.505l.026 2.212c.814-1.646 2.122-2.469 3.923-2.469.428 0 .767.055 1.016.167l-.039 1.402Zm17.184 9.068c0-.764-.309-1.377-.926-1.84-.609-.463-1.531-.823-2.766-1.08-1.234-.266-2.195-.566-2.881-.901-.677-.343-1.183-.758-1.517-1.247-.326-.489-.489-1.081-.489-1.775 0-1.098.459-2.002 1.376-2.714.918-.72 2.092-1.08 3.524-1.08 1.552 0 2.796.385 3.73 1.157.943.763 1.415 1.762 1.415 2.997h-1.543c0-.815-.343-1.492-1.029-2.032-.678-.54-1.535-.81-2.573-.81-1.012 0-1.826.227-2.443.681-.609.446-.914 1.029-.914 1.749 0 .695.253 1.235.759 1.621.515.377 1.445.725 2.791 1.042 1.355.317 2.367.656 3.036 1.016.677.36 1.179.793 1.505 1.299.325.506.488 1.119.488 1.839 0 1.175-.476 2.114-1.427 2.817-.944.703-2.178 1.055-3.705 1.055-1.62 0-2.936-.39-3.948-1.171-1.004-.789-1.505-1.783-1.505-2.984h1.543c.06.901.438 1.604 1.132 2.11.703.497 1.629.746 2.778.746 1.072 0 1.938-.236 2.598-.708.661-.471.991-1.067.991-1.787Zm10.405 3.794c-1.183 0-2.255-.292-3.215-.875-.952-.583-1.694-1.393-2.225-2.431-.532-1.046-.798-2.216-.798-3.511v-.553c0-1.338.257-2.543.772-3.614.523-1.072 1.247-1.913 2.174-2.521a5.314 5.314 0 0 1 3.009-.926c1.689 0 3.027.578 4.013 1.736.995 1.149 1.492 2.722 1.492 4.72v.862h-9.929v.296c0 1.578.45 2.894 1.35 3.949.909 1.046 2.05 1.569 3.422 1.569.823 0 1.547-.15 2.173-.45.635-.301 1.209-.781 1.724-1.441l.964.733c-1.131 1.638-2.774 2.457-4.926 2.457Zm-.283-13.119c-1.157 0-2.135.424-2.932 1.273-.789.849-1.269 1.989-1.441 3.421h8.348v-.167c-.043-1.338-.425-2.427-1.145-3.267-.72-.84-1.664-1.26-2.83-1.26Zm14.933.257a5.752 5.752 0 0 0-1.042-.09c-.96 0-1.775.27-2.444.81-.66.532-1.131 1.308-1.414 2.328v9.557h-1.531V133.31h1.505l.026 2.212c.814-1.646 2.122-2.469 3.923-2.469.428 0 .767.055 1.016.167l-.039 1.402Zm7.01 10.482 4.231-11.794h1.583l-5.197 13.917h-1.247l-5.222-13.917h1.582l4.27 11.794Zm13.556 2.38c-1.183 0-2.255-.292-3.215-.875-.952-.583-1.694-1.393-2.225-2.431-.532-1.046-.798-2.216-.798-3.511v-.553c0-1.338.258-2.543.772-3.614.523-1.072 1.248-1.913 2.174-2.521a5.314 5.314 0 0 1 3.009-.926c1.69 0 3.027.578 4.013 1.736.995 1.149 1.492 2.722 1.492 4.72v.862h-9.929v.296c0 1.578.45 2.894 1.35 3.949.909 1.046 2.05 1.569 3.422 1.569.823 0 1.547-.15 2.173-.45.635-.301 1.209-.781 1.724-1.441l.965.733c-1.132 1.638-2.774 2.457-4.927 2.457Zm-.283-13.119c-1.157 0-2.135.424-2.932 1.273-.789.849-1.269 1.989-1.441 3.421h8.348v-.167c-.043-1.338-.425-2.427-1.145-3.267-.72-.84-1.663-1.26-2.83-1.26Zm14.933.257a5.752 5.752 0 0 0-1.042-.09c-.96 0-1.774.27-2.443.81-.661.532-1.132 1.308-1.415 2.328v9.557h-1.531V133.31h1.505l.026 2.212c.814-1.646 2.122-2.469 3.923-2.469.429 0 .767.055 1.016.167l-.039 1.402Zm12.181 9.402.231 1.196.309-1.26 3.344-10.65h1.312l3.305 10.56.361 1.466.295-1.351 2.856-10.675h1.595l-4.052 13.917h-1.312l-3.575-11.036-.168-.759-.167.772-3.511 11.023h-1.312l-4.039-13.917h1.582l2.946 10.714Zm18.251 3.203h-1.544V133.31h1.544v13.917Zm-1.814-17.943c0-.292.095-.536.283-.733.189-.206.446-.309.772-.309s.583.103.772.309a.995.995 0 0 1 .296.733.995.995 0 0 1-.296.733c-.189.197-.446.296-.772.296s-.583-.099-.772-.296a1.02 1.02 0 0 1-.283-.733Zm8.399.463v3.563h2.881v1.26h-2.881v9.274c0 .772.137 1.346.412 1.723.283.378.75.566 1.402.566.257 0 .673-.043 1.247-.128l.065 1.26c-.403.146-.952.219-1.647.219-1.054 0-1.822-.305-2.302-.913-.48-.618-.72-1.522-.72-2.714v-9.287h-2.56v-1.26h2.56v-3.563h1.543Zm7.602 5.917c.506-.832 1.153-1.475 1.942-1.93a5.091 5.091 0 0 1 2.585-.681c1.492 0 2.603.42 3.331 1.26.729.84 1.098 2.101 1.107 3.782v9.132h-1.531v-9.145c-.009-1.244-.274-2.17-.798-2.779-.514-.608-1.341-.913-2.482-.913-.952 0-1.796.3-2.534.901-.729.591-1.269 1.393-1.62 2.405v9.531h-1.531V127.47h1.531v8.194Zm22.663 8.36.231 1.196.309-1.26 3.344-10.65h1.312l3.305 10.56.36 1.466.296-1.351 2.856-10.675h1.595l-4.052 13.917h-1.312l-3.576-11.036-.167-.759-.167.772-3.511 11.023h-1.312l-4.039-13.917h1.582l2.946 10.714Zm21.916 3.46c-1.183 0-2.255-.292-3.215-.875-.952-.583-1.694-1.393-2.225-2.431-.532-1.046-.798-2.216-.798-3.511v-.553c0-1.338.258-2.543.772-3.614.523-1.072 1.248-1.913 2.174-2.521a5.314 5.314 0 0 1 3.009-.926c1.69 0 3.027.578 4.013 1.736.995 1.149 1.492 2.722 1.492 4.72v.862h-9.929v.296c0 1.578.45 2.894 1.35 3.949.909 1.046 2.05 1.569 3.422 1.569.823 0 1.547-.15 2.173-.45.635-.301 1.209-.781 1.724-1.441l.965.733c-1.132 1.638-2.774 2.457-4.927 2.457Zm-.283-13.119c-1.157 0-2.135.424-2.932 1.273-.789.849-1.269 1.989-1.441 3.421h8.348v-.167c-.043-1.338-.425-2.427-1.145-3.267-.72-.84-1.663-1.26-2.83-1.26Zm10.226 12.862h-1.544V127.47h1.544v19.757Zm9.338-1.042c1.071 0 1.968-.3 2.688-.901.729-.608 1.123-1.393 1.183-2.353h1.479a4.389 4.389 0 0 1-.797 2.328c-.489.694-1.141 1.239-1.955 1.633a5.824 5.824 0 0 1-2.598.592c-1.827 0-3.276-.635-4.348-1.904-1.063-1.269-1.595-2.975-1.595-5.119v-.463c0-1.372.24-2.585.721-3.64.48-1.055 1.166-1.869 2.058-2.444.9-.574 1.95-.861 3.151-.861 1.526 0 2.782.454 3.768 1.363.995.909 1.527 2.105 1.595 3.588h-1.479c-.068-1.088-.463-1.967-1.183-2.636-.712-.669-1.612-1.003-2.701-1.003-1.389 0-2.47.501-3.241 1.504-.764 1.004-1.145 2.41-1.145 4.219v.45c0 1.775.381 3.16 1.145 4.155.771.994 1.856 1.492 3.254 1.492Zm7.588-6.123c0-1.337.257-2.542.772-3.614.523-1.072 1.256-1.903 2.199-2.495.952-.6 2.028-.9 3.229-.9 1.852 0 3.352.651 4.501 1.955 1.149 1.294 1.724 3.014 1.724 5.157v.322c0 1.346-.262 2.559-.785 3.64-.514 1.072-1.243 1.899-2.186 2.482-.943.583-2.02.875-3.229.875-1.843 0-3.344-.648-4.501-1.942-1.149-1.304-1.724-3.027-1.724-5.171v-.309Zm1.544.425c0 1.663.428 3.031 1.286 4.103.866 1.063 1.998 1.595 3.395 1.595 1.39 0 2.513-.532 3.37-1.595.866-1.072 1.299-2.483 1.299-4.232v-.296c0-1.063-.197-2.036-.591-2.919-.395-.883-.948-1.565-1.66-2.045-.711-.489-1.526-.733-2.443-.733-1.372 0-2.491.54-3.357 1.62-.866 1.072-1.299 2.478-1.299 4.219v.283Zm15.473-7.177.051 2.264c.515-.841 1.158-1.471 1.929-1.891.772-.42 1.63-.63 2.573-.63 2.195 0 3.588.9 4.18 2.701.497-.866 1.162-1.531 1.994-1.994.831-.472 1.749-.707 2.752-.707 2.984 0 4.506 1.629 4.566 4.887v9.287h-1.543v-9.171c-.009-1.243-.279-2.165-.811-2.765-.523-.601-1.38-.901-2.572-.901-1.106.017-2.041.378-2.804 1.081-.763.694-1.188 1.543-1.273 2.546v9.21h-1.544v-9.287c-.008-1.192-.291-2.079-.849-2.662-.548-.592-1.397-.888-2.546-.888-.969 0-1.801.279-2.496.836-.694.549-1.209 1.368-1.543 2.457v9.544h-1.543V133.31h1.479Zm27.344 14.174c-1.183 0-2.255-.292-3.215-.875-.952-.583-1.694-1.393-2.225-2.431-.532-1.046-.798-2.216-.798-3.511v-.553c0-1.338.258-2.543.772-3.614.523-1.072 1.248-1.913 2.174-2.521a5.314 5.314 0 0 1 3.009-.926c1.69 0 3.027.578 4.013 1.736.995 1.149 1.492 2.722 1.492 4.72v.862h-9.929v.296c0 1.578.45 2.894 1.35 3.949.909 1.046 2.05 1.569 3.422 1.569.823 0 1.547-.15 2.173-.45.635-.301 1.209-.781 1.724-1.441l.965.733c-1.132 1.638-2.774 2.457-4.927 2.457Zm-.283-13.119c-1.157 0-2.135.424-2.932 1.273-.789.849-1.269 1.989-1.441 3.421h8.348v-.167c-.043-1.338-.425-2.427-1.145-3.267-.72-.84-1.663-1.26-2.83-1.26ZM132.193 164.31l.052 2.264c.514-.841 1.157-1.471 1.929-1.891.772-.42 1.629-.63 2.572-.63 2.195 0 3.589.9 4.18 2.701.498-.866 1.162-1.531 1.994-1.994a5.478 5.478 0 0 1 2.752-.707c2.984 0 4.506 1.629 4.567 4.887v9.287h-1.544v-9.171c-.009-1.243-.279-2.165-.81-2.765-.523-.601-1.381-.901-2.573-.901-1.106.017-2.04.378-2.804 1.081-.763.694-1.187 1.543-1.273 2.546v9.21h-1.543v-9.287c-.009-1.192-.292-2.079-.849-2.662-.549-.592-1.398-.888-2.547-.888-.969 0-1.801.279-2.495.836-.695.549-1.209 1.368-1.544 2.457v9.544h-1.543V164.31h1.479Zm27.345 14.174c-1.184 0-2.255-.292-3.216-.875-.952-.583-1.693-1.393-2.225-2.431-.532-1.046-.797-2.216-.797-3.511v-.553c0-1.338.257-2.543.771-3.614.523-1.072 1.248-1.913 2.174-2.521a5.315 5.315 0 0 1 3.01-.926c1.689 0 3.027.578 4.013 1.736.994 1.149 1.492 2.722 1.492 4.72v.862h-9.93v.296c0 1.578.45 2.894 1.351 3.949.909 1.046 2.049 1.569 3.421 1.569.823 0 1.548-.15 2.174-.45.634-.301 1.209-.781 1.723-1.441l.965.733c-1.132 1.638-2.774 2.457-4.926 2.457Zm-.283-13.119c-1.158 0-2.135.424-2.933 1.273-.789.849-1.269 1.989-1.44 3.421h8.347v-.167c-.043-1.338-.424-2.427-1.145-3.267-.72-.84-1.663-1.26-2.829-1.26Zm16.836 9.325c0-.764-.308-1.377-.926-1.84-.609-.463-1.53-.823-2.765-1.08-1.235-.266-2.195-.566-2.881-.901-.678-.343-1.184-.758-1.518-1.247-.326-.489-.489-1.081-.489-1.775 0-1.098.459-2.002 1.376-2.714.918-.72 2.093-1.08 3.525-1.08 1.552 0 2.795.385 3.73 1.157.943.763 1.414 1.762 1.414 2.997h-1.543c0-.815-.343-1.492-1.029-2.032-.677-.54-1.535-.81-2.572-.81-1.012 0-1.827.227-2.444.681-.609.446-.913 1.029-.913 1.749 0 .695.253 1.235.759 1.621.514.377 1.444.725 2.791 1.042 1.354.317 2.366.656 3.035 1.016.677.36 1.179.793 1.505 1.299.326.506.489 1.119.489 1.839 0 1.175-.476 2.114-1.428 2.817-.943.703-2.178 1.055-3.704 1.055-1.621 0-2.937-.39-3.949-1.171-1.003-.789-1.505-1.783-1.505-2.984h1.544c.06.901.437 1.604 1.131 2.11.704.497 1.63.746 2.779.746 1.072 0 1.938-.236 2.598-.708.66-.471.99-1.067.99-1.787Zm13.351 0c0-.764-.309-1.377-.926-1.84-.609-.463-1.531-.823-2.765-1.08-1.235-.266-2.196-.566-2.882-.901-.677-.343-1.183-.758-1.517-1.247-.326-.489-.489-1.081-.489-1.775 0-1.098.459-2.002 1.376-2.714.918-.72 2.092-1.08 3.524-1.08 1.552 0 2.796.385 3.73 1.157.944.763 1.415 1.762 1.415 2.997h-1.543c0-.815-.343-1.492-1.029-2.032-.678-.54-1.535-.81-2.573-.81-1.011 0-1.826.227-2.443.681-.609.446-.914 1.029-.914 1.749 0 .695.253 1.235.759 1.621.515.377 1.445.725 2.791 1.042 1.355.317 2.367.656 3.036 1.016.677.36 1.179.793 1.505 1.299.326.506.488 1.119.488 1.839 0 1.175-.475 2.114-1.427 2.817-.943.703-2.178 1.055-3.705 1.055-1.62 0-2.936-.39-3.948-1.171-1.003-.789-1.505-1.783-1.505-2.984h1.543c.06.901.438 1.604 1.132 2.11.703.497 1.629.746 2.778.746 1.072 0 1.938-.236 2.599-.708.66-.471.99-1.067.99-1.787Zm13.801 3.537c-.154-.438-.253-1.085-.296-1.943a5.4 5.4 0 0 1-2.071 1.634 6.341 6.341 0 0 1-2.649.566c-1.338 0-2.423-.373-3.254-1.119-.824-.746-1.235-1.689-1.235-2.83 0-1.355.562-2.426 1.685-3.215 1.132-.789 2.705-1.184 4.72-1.184h2.791v-1.582c0-.994-.308-1.775-.926-2.341-.609-.574-1.5-.861-2.675-.861-1.072 0-1.959.274-2.663.823-.703.549-1.054 1.209-1.054 1.981l-1.544-.013c0-1.106.515-2.062 1.544-2.868 1.029-.815 2.293-1.222 3.794-1.222 1.552 0 2.774.39 3.666 1.17.9.772 1.363 1.852 1.389 3.241v6.586c0 1.346.141 2.353.424 3.022v.155h-1.646Zm-4.836-1.107c1.029 0 1.946-.248 2.752-.746.815-.497 1.407-1.161 1.775-1.993v-3.061h-2.752c-1.535.017-2.736.3-3.602.849-.866.54-1.299 1.286-1.299 2.238 0 .78.288 1.427.862 1.942.583.514 1.338.771 2.264.771Zm9.556-5.98c0-2.178.48-3.902 1.441-5.171.969-1.278 2.281-1.916 3.936-1.916 1.895 0 3.335.754 4.321 2.263l.077-2.006h1.441v13.634c0 1.792-.502 3.211-1.505 4.257-1.003 1.046-2.362 1.569-4.077 1.569a6.185 6.185 0 0 1-2.778-.656c-.875-.429-1.565-1.003-2.071-1.723l.862-.926c1.089 1.337 2.383 2.006 3.884 2.006 1.286 0 2.289-.382 3.01-1.145.72-.754 1.093-1.805 1.119-3.151v-1.749c-.986 1.372-2.423 2.058-4.309 2.058-1.612 0-2.907-.643-3.884-1.93-.978-1.286-1.467-3.022-1.467-5.209v-.205Zm1.557.27c0 1.775.355 3.177 1.067 4.206.712 1.02 1.715 1.53 3.01 1.53 1.895 0 3.237-.849 4.026-2.547v-6.469c-.36-.892-.879-1.569-1.557-2.032-.677-.472-1.492-.708-2.443-.708-1.295 0-2.303.51-3.023 1.531-.72 1.012-1.08 2.508-1.08 4.489Zm19.061 7.074c-1.183 0-2.255-.292-3.215-.875-.952-.583-1.694-1.393-2.226-2.431-.531-1.046-.797-2.216-.797-3.511v-.553c0-1.338.257-2.543.772-3.614.523-1.072 1.247-1.913 2.173-2.521a5.32 5.32 0 0 1 3.01-.926c1.689 0 3.027.578 4.013 1.736.995 1.149 1.492 2.722 1.492 4.72v.862h-9.929v.296c0 1.578.45 2.894 1.35 3.949.909 1.046 2.049 1.569 3.421 1.569.824 0 1.548-.15 2.174-.45.635-.301 1.209-.781 1.724-1.441l.964.733c-1.132 1.638-2.774 2.457-4.926 2.457Zm-.283-13.119c-1.157 0-2.135.424-2.932 1.273-.789.849-1.269 1.989-1.441 3.421h8.348v-.167c-.043-1.338-.425-2.427-1.145-3.267-.72-.84-1.664-1.26-2.83-1.26Zm16.837 9.325c0-.764-.309-1.377-.927-1.84-.608-.463-1.53-.823-2.765-1.08-1.235-.266-2.195-.566-2.881-.901-.677-.343-1.183-.758-1.518-1.247-.325-.489-.488-1.081-.488-1.775 0-1.098.458-2.002 1.376-2.714.917-.72 2.092-1.08 3.524-1.08 1.552 0 2.795.385 3.73 1.157.943.763 1.415 1.762 1.415 2.997h-1.544c0-.815-.343-1.492-1.029-2.032-.677-.54-1.534-.81-2.572-.81-1.012 0-1.826.227-2.444.681-.609.446-.913 1.029-.913 1.749 0 .695.253 1.235.759 1.621.514.377 1.445.725 2.791 1.042 1.355.317 2.367.656 3.035 1.016.678.36 1.179.793 1.505 1.299.326.506.489 1.119.489 1.839 0 1.175-.476 2.114-1.428 2.817-.943.703-2.178 1.055-3.704 1.055-1.621 0-2.937-.39-3.949-1.171-1.003-.789-1.504-1.783-1.504-2.984h1.543c.06.901.437 1.604 1.132 2.11.703.497 1.629.746 2.778.746 1.072 0 1.938-.236 2.598-.708.66-.471.991-1.067.991-1.787Zm20.206 3.537c-.155-.438-.253-1.085-.296-1.943a5.4 5.4 0 0 1-2.071 1.634 6.344 6.344 0 0 1-2.649.566c-1.338 0-2.423-.373-3.254-1.119-.824-.746-1.235-1.689-1.235-2.83 0-1.355.561-2.426 1.685-3.215 1.132-.789 2.705-1.184 4.72-1.184h2.791v-1.582c0-.994-.309-1.775-.926-2.341-.609-.574-1.501-.861-2.675-.861-1.072 0-1.96.274-2.663.823-.703.549-1.054 1.209-1.054 1.981l-1.544-.013c0-1.106.515-2.062 1.544-2.868 1.029-.815 2.293-1.222 3.794-1.222 1.552 0 2.774.39 3.666 1.17.9.772 1.363 1.852 1.389 3.241v6.586c0 1.346.141 2.353.424 3.022v.155h-1.646Zm-4.836-1.107c1.029 0 1.946-.248 2.752-.746.815-.497 1.406-1.161 1.775-1.993v-3.061h-2.752c-1.535.017-2.736.3-3.602.849-.866.54-1.299 1.286-1.299 2.238 0 .78.287 1.427.862 1.942.583.514 1.338.771 2.264.771Zm11.64-12.81.051 2.379c.523-.857 1.175-1.509 1.955-1.955a5.05 5.05 0 0 1 2.586-.681c1.492 0 2.602.42 3.331 1.26.729.84 1.097 2.101 1.106 3.782v9.132h-1.531v-9.145c-.008-1.244-.274-2.17-.797-2.779-.515-.608-1.342-.913-2.482-.913-.952 0-1.797.3-2.534.901-.729.591-1.269 1.393-1.621 2.405v9.531h-1.53V164.31h1.466Zm12.399 6.83c0-2.161.48-3.88 1.44-5.158.969-1.286 2.281-1.929 3.936-1.929 1.878 0 3.31.741 4.296 2.225v-7.808h1.531v19.757h-1.441l-.064-1.853c-.986 1.407-2.435 2.11-4.348 2.11-1.603 0-2.898-.643-3.884-1.93-.977-1.294-1.466-3.039-1.466-5.234v-.18Zm1.556.27c0 1.775.356 3.177 1.068 4.206.711 1.02 1.715 1.53 3.009 1.53 1.895 0 3.242-.836 4.039-2.508v-6.534c-.797-1.809-2.135-2.714-4.013-2.714-1.295 0-2.302.51-3.022 1.531-.721 1.012-1.081 2.508-1.081 4.489Zm28.888 6.817c-.154-.438-.253-1.085-.296-1.943a5.405 5.405 0 0 1-2.07 1.634 6.346 6.346 0 0 1-2.65.566c-1.338 0-2.422-.373-3.254-1.119-.823-.746-1.235-1.689-1.235-2.83 0-1.355.562-2.426 1.685-3.215 1.132-.789 2.705-1.184 4.72-1.184h2.792v-1.582c0-.994-.309-1.775-.927-2.341-.608-.574-1.5-.861-2.675-.861-1.072 0-1.959.274-2.662.823-.703.549-1.055 1.209-1.055 1.981l-1.543-.013c0-1.106.514-2.062 1.543-2.868 1.029-.815 2.294-1.222 3.794-1.222 1.552 0 2.774.39 3.666 1.17.9.772 1.363 1.852 1.389 3.241v6.586c0 1.346.142 2.353.425 3.022v.155h-1.647Zm-4.836-1.107c1.029 0 1.947-.248 2.753-.746.814-.497 1.406-1.161 1.775-1.993v-3.061h-2.753c-1.535.017-2.735.3-3.601.849-.866.54-1.299 1.286-1.299 2.238 0 .78.287 1.427.861 1.942.583.514 1.338.771 2.264.771Zm19.126-.656c-.926 1.347-2.405 2.02-4.437 2.02-1.484 0-2.611-.429-3.383-1.286-.772-.866-1.166-2.144-1.184-3.833v-9.055h1.531v8.862c0 2.649 1.072 3.974 3.216 3.974 2.229 0 3.64-.922 4.231-2.765V164.31h1.544v13.917h-1.492l-.026-1.763Zm7.923-15.717v3.563h2.881v1.26h-2.881v9.274c0 .772.137 1.346.412 1.723.282.378.75.566 1.401.566.258 0 .674-.043 1.248-.128l.064 1.26c-.403.146-.951.219-1.646.219-1.055 0-1.822-.305-2.302-.913-.48-.618-.721-1.522-.721-2.714v-9.287h-2.559v-1.26h2.559v-3.563h1.544Zm4.965 10.315c0-1.337.257-2.542.771-3.614.523-1.072 1.257-1.903 2.2-2.495.952-.6 2.028-.9 3.228-.9 1.852 0 3.353.651 4.502 1.955 1.149 1.294 1.723 3.014 1.723 5.157v.322c0 1.346-.261 2.559-.784 3.64-.515 1.072-1.244 1.899-2.187 2.482-.943.583-2.019.875-3.228.875-1.844 0-3.344-.648-4.502-1.942-1.149-1.304-1.723-3.027-1.723-5.171v-.309Zm1.543.425c0 1.663.429 3.031 1.286 4.103.866 1.063 1.998 1.595 3.396 1.595 1.389 0 2.512-.532 3.37-1.595.866-1.072 1.299-2.483 1.299-4.232v-.296c0-1.063-.197-2.036-.592-2.919-.394-.883-.947-1.565-1.659-2.045-.712-.489-1.526-.733-2.444-.733-1.372 0-2.491.54-3.357 1.62-.866 1.072-1.299 2.478-1.299 4.219v.283Zm15.473-7.177.052 2.264c.514-.841 1.157-1.471 1.929-1.891.772-.42 1.629-.63 2.572-.63 2.195 0 3.589.9 4.18 2.701.498-.866 1.162-1.531 1.994-1.994a5.48 5.48 0 0 1 2.753-.707c2.984 0 4.506 1.629 4.566 4.887v9.287h-1.544v-9.171c-.008-1.243-.279-2.165-.81-2.765-.523-.601-1.381-.901-2.573-.901-1.106.017-2.04.378-2.804 1.081-.763.694-1.187 1.543-1.273 2.546v9.21h-1.543v-9.287c-.009-1.192-.292-2.079-.849-2.662-.549-.592-1.398-.888-2.547-.888-.969 0-1.801.279-2.495.836-.695.549-1.209 1.368-1.544 2.457v9.544h-1.543V164.31h1.479Zm30.74 13.917c-.154-.438-.253-1.085-.295-1.943a5.415 5.415 0 0 1-2.071 1.634 6.346 6.346 0 0 1-2.65.566c-1.337 0-2.422-.373-3.254-1.119-.823-.746-1.235-1.689-1.235-2.83 0-1.355.562-2.426 1.685-3.215 1.132-.789 2.706-1.184 4.721-1.184h2.791v-1.582c0-.994-.309-1.775-.926-2.341-.609-.574-1.501-.861-2.676-.861-1.072 0-1.959.274-2.662.823-.703.549-1.055 1.209-1.055 1.981l-1.543-.013c0-1.106.514-2.062 1.543-2.868 1.029-.815 2.294-1.222 3.794-1.222 1.553 0 2.774.39 3.666 1.17.901.772 1.364 1.852 1.389 3.241v6.586c0 1.346.142 2.353.425 3.022v.155h-1.647Zm-4.836-1.107c1.029 0 1.947-.248 2.753-.746.814-.497 1.406-1.161 1.775-1.993v-3.061h-2.753c-1.535.017-2.735.3-3.601.849-.866.54-1.299 1.286-1.299 2.238 0 .78.287 1.427.862 1.942.583.514 1.337.771 2.263.771Zm12.566-16.373v3.563h2.882v1.26h-2.882v9.274c0 .772.138 1.346.412 1.723.283.378.75.566 1.402.566.257 0 .673-.043 1.248-.128l.064 1.26c-.403.146-.952.219-1.646.219-1.055 0-1.823-.305-2.303-.913-.48-.618-.72-1.522-.72-2.714v-9.287h-2.56v-1.26h2.56v-3.563h1.543Zm7.795 17.48h-1.544V164.31h1.544v13.917Zm-1.814-17.943c0-.292.095-.536.283-.733.189-.206.446-.309.772-.309s.583.103.772.309a.995.995 0 0 1 .296.733.995.995 0 0 1-.296.733c-.189.197-.446.296-.772.296s-.583-.099-.772-.296a1.02 1.02 0 0 1-.283-.733Zm11.152 16.901c1.072 0 1.968-.3 2.688-.901.729-.608 1.123-1.393 1.183-2.353h1.479a4.389 4.389 0 0 1-.797 2.328c-.489.694-1.141 1.239-1.955 1.633a5.824 5.824 0 0 1-2.598.592c-1.827 0-3.276-.635-4.348-1.904-1.063-1.269-1.595-2.975-1.595-5.119v-.463c0-1.372.241-2.585.721-3.64.48-1.055 1.166-1.869 2.058-2.444.9-.574 1.95-.861 3.151-.861 1.526 0 2.782.454 3.768 1.363.995.909 1.527 2.105 1.595 3.588h-1.479c-.068-1.088-.463-1.967-1.183-2.636-.712-.669-1.612-1.003-2.701-1.003-1.389 0-2.47.501-3.241 1.504-.764 1.004-1.145 2.41-1.145 4.219v.45c0 1.775.381 3.16 1.145 4.155.771.994 1.856 1.492 3.254 1.492ZM212.169 195.31l.052 2.264c.514-.841 1.157-1.471 1.929-1.891.772-.42 1.629-.63 2.572-.63 2.195 0 3.589.9 4.18 2.701.498-.866 1.162-1.531 1.994-1.994a5.48 5.48 0 0 1 2.753-.707c2.984 0 4.506 1.629 4.566 4.887v9.287h-1.544v-9.171c-.008-1.243-.279-2.165-.81-2.765-.523-.601-1.381-.901-2.573-.901-1.106.017-2.04.378-2.803 1.081-.764.694-1.188 1.543-1.274 2.546v9.21h-1.543v-9.287c-.009-1.192-.292-2.079-.849-2.662-.549-.592-1.398-.888-2.547-.888-.969 0-1.801.279-2.495.836-.695.549-1.209 1.368-1.544 2.457v9.544h-1.543V195.31h1.479Zm21.107 6.752c0-1.337.257-2.542.771-3.614.524-1.072 1.257-1.903 2.2-2.495.952-.6 2.028-.9 3.228-.9 1.852 0 3.353.651 4.502 1.955 1.149 1.294 1.723 3.014 1.723 5.157v.322c0 1.346-.261 2.559-.784 3.64-.515 1.072-1.243 1.899-2.187 2.482-.943.583-2.019.875-3.228.875-1.844 0-3.344-.648-4.502-1.942-1.149-1.304-1.723-3.027-1.723-5.171v-.309Zm1.543.425c0 1.663.429 3.031 1.286 4.103.866 1.063 1.998 1.595 3.396 1.595 1.389 0 2.512-.532 3.37-1.595.866-1.072 1.299-2.483 1.299-4.232v-.296c0-1.063-.197-2.036-.592-2.919-.394-.883-.947-1.565-1.659-2.045-.712-.489-1.526-.733-2.444-.733-1.372 0-2.491.54-3.357 1.62-.866 1.072-1.299 2.478-1.299 4.219v.283Zm13.454-.347c0-2.161.48-3.88 1.44-5.158.969-1.286 2.281-1.929 3.936-1.929 1.878 0 3.31.741 4.296 2.225v-7.808h1.531v19.757h-1.441l-.064-1.853c-.986 1.407-2.435 2.11-4.348 2.11-1.603 0-2.898-.643-3.884-1.93-.977-1.294-1.466-3.039-1.466-5.234v-.18Zm1.556.27c0 1.775.356 3.177 1.068 4.206.711 1.02 1.715 1.53 3.009 1.53 1.895 0 3.242-.836 4.039-2.508v-6.534c-.797-1.809-2.135-2.714-4.013-2.714-1.295 0-2.302.51-3.022 1.531-.721 1.012-1.081 2.508-1.081 4.489Zm19.087 7.074c-1.183 0-2.255-.292-3.215-.875-.952-.583-1.694-1.393-2.225-2.431-.532-1.046-.798-2.216-.798-3.511v-.553c0-1.338.258-2.543.772-3.614.523-1.072 1.248-1.913 2.174-2.521a5.314 5.314 0 0 1 3.009-.926c1.69 0 3.027.578 4.013 1.736.995 1.149 1.492 2.722 1.492 4.72v.862h-9.929v.296c0 1.578.45 2.894 1.35 3.949.909 1.046 2.05 1.569 3.422 1.569.823 0 1.547-.15 2.173-.45.635-.301 1.209-.781 1.724-1.441l.965.733c-1.132 1.638-2.774 2.457-4.927 2.457Zm-.283-13.119c-1.157 0-2.135.424-2.932 1.273-.789.849-1.269 1.989-1.441 3.421h8.348v-.167c-.043-1.338-.425-2.427-1.145-3.267-.72-.84-1.663-1.26-2.83-1.26Zm14.933.257a5.752 5.752 0 0 0-1.042-.09c-.96 0-1.775.27-2.443.81-.661.532-1.132 1.308-1.415 2.328v9.557h-1.531V195.31h1.505l.026 2.212c.814-1.646 2.122-2.469 3.923-2.469.428 0 .767.055 1.016.167l-.039 1.402Zm10.714 12.605c-.154-.438-.253-1.085-.295-1.943a5.415 5.415 0 0 1-2.071 1.634 6.346 6.346 0 0 1-2.65.566c-1.337 0-2.422-.373-3.254-1.119-.823-.746-1.235-1.689-1.235-2.83 0-1.355.562-2.426 1.685-3.215 1.132-.789 2.706-1.184 4.721-1.184h2.791v-1.582c0-.994-.309-1.775-.926-2.341-.609-.574-1.501-.861-2.676-.861-1.072 0-1.959.274-2.662.823-.703.549-1.055 1.209-1.055 1.981l-1.543-.013c0-1.106.514-2.062 1.543-2.868 1.029-.815 2.294-1.222 3.794-1.222 1.552 0 2.774.39 3.666 1.17.9.772 1.364 1.852 1.389 3.241v6.586c0 1.346.142 2.353.425 3.022v.155h-1.647Zm-4.836-1.107c1.029 0 1.947-.248 2.753-.746.814-.497 1.406-1.161 1.775-1.993v-3.061h-2.753c-1.535.017-2.735.3-3.601.849-.866.54-1.299 1.286-1.299 2.238 0 .78.287 1.427.862 1.942.583.514 1.337.771 2.263.771Zm12.566-16.373v3.563h2.882v1.26h-2.882v9.274c0 .772.138 1.346.412 1.723.283.378.75.566 1.402.566.257 0 .673-.043 1.248-.128l.064 1.26c-.403.146-.952.219-1.646.219-1.055 0-1.823-.305-2.303-.913-.48-.618-.72-1.522-.72-2.714v-9.287h-2.56v-1.26h2.56v-3.563h1.543Zm7.795 17.48h-1.544V195.31h1.544v13.917Zm-1.814-17.943c0-.292.095-.536.283-.733.189-.206.446-.309.772-.309s.583.103.772.309a.995.995 0 0 1 .296.733.995.995 0 0 1-.296.733c-.189.197-.446.296-.772.296s-.583-.099-.772-.296a1.02 1.02 0 0 1-.283-.733Zm5.158 10.778c0-1.337.257-2.542.772-3.614.523-1.072 1.256-1.903 2.199-2.495.952-.6 2.028-.9 3.228-.9 1.853 0 3.353.651 4.502 1.955 1.149 1.294 1.724 3.014 1.724 5.157v.322c0 1.346-.262 2.559-.785 3.64-.514 1.072-1.243 1.899-2.186 2.482-.944.583-2.02.875-3.229.875-1.843 0-3.344-.648-4.502-1.942-1.149-1.304-1.723-3.027-1.723-5.171v-.309Zm1.543.425c0 1.663.429 3.031 1.287 4.103.866 1.063 1.997 1.595 3.395 1.595 1.389 0 2.513-.532 3.37-1.595.866-1.072 1.299-2.483 1.299-4.232v-.296c0-1.063-.197-2.036-.592-2.919-.394-.883-.947-1.565-1.659-2.045-.711-.489-1.526-.733-2.444-.733-1.372 0-2.491.54-3.357 1.62-.866 1.072-1.299 2.478-1.299 4.219v.283Zm15.538-7.177.051 2.379c.523-.857 1.175-1.509 1.955-1.955a5.046 5.046 0 0 1 2.585-.681c1.492 0 2.603.42 3.332 1.26.729.84 1.097 2.101 1.106 3.782v9.132h-1.531v-9.145c-.008-1.244-.274-2.17-.797-2.779-.515-.608-1.342-.913-2.483-.913-.951 0-1.796.3-2.533.901-.729.591-1.269 1.393-1.621 2.405v9.531h-1.531V195.31h1.467Z" fill="#000"/></g><defs><linearGradient id="b" x1="25" y1="25" x2="512.876" y2="251.156" gradientUnits="userSpaceOnUse"><stop stop-color="#fff" stop-opacity=".9"/><stop offset="1" stop-color="#fff" stop-opacity=".7"/></linearGradient><linearGradient id="d" x1="235.442" y1="-10.996" x2="288.618" y2="271.692" gradientUnits="userSpaceOnUse"><stop stop-color="#B358A3"/><stop offset="1" stop-color="#BF5E9F"/></linearGradient><linearGradient id="f" x1="275" y1="34.072" x2="275" y2="123.228" gradientUnits="userSpaceOnUse"><stop stop-color="#B358A3"/><stop offset="1" stop-color="#BF5E9F"/></linearGradient><filter id="a" x=".016" y=".016" width="549.968" height="249.968" filterUnits="userSpaceOnUse" color-interpolation-filters="sRGB"><feFlood flood-opacity="0" result="BackgroundImageFix"/><feGaussianBlur in="BackgroundImage" stdDeviation="11.651"/><feComposite in2="SourceAlpha" operator="in" result="effect1_backgroundBlur"/><feColorMatrix in="SourceAlpha" values="0 0 0 0 0 0 0 0 0 0 0 0 0 0 0 0 0 0 127 0" result="hardAlpha"/><feMorphology radius="4.164" operator="dilate" in="SourceAlpha" result="effect2_dropShadow"/><feOffset/><feGaussianBlur stdDeviation="10.41"/><feComposite in2="hardAlpha" operator="out"/><feColorMatrix values="0 0 0 0 0 0 0 0 0 0 0 0 0 0 0 0 0 0 0.5 0"/><feBlend in2="effect1_backgroundBlur" result="effect2_dropShadow"/><feBlend in="SourceGraphic" in2="effect2_dropShadow" result="shape"/></filter><filter id="e" x="106.547" y="48.518" width="335.162" height="59.828" filterUnits="userSpaceOnUse" color-interpolation-filters="sRGB"><feFlood flood-opacity="0" result="BackgroundImageFix"/><feColorMatrix in="SourceAlpha" values="0 0 0 0 0 0 0 0 0 0 0 0 0 0 0 0 0 0 127 0" result="hardAlpha"/><feOffset/><feGaussianBlur stdDeviation="1.266"/><feComposite in2="hardAlpha" operator="out"/><feColorMatrix values="0 0 0 0 0 0 0 0 0 0 0 0 0 0 0 0 0 0 0.5 0"/><feBlend in2="BackgroundImageFix" result="effect1_dropShadow"/><feBlend in="SourceGraphic" in2="effect1_dropShadow" result="shape"/></filter><filter id="g" x="125.828" y="124.938" width="297.767" height="87.079" filterUnits="userSpaceOnUse" color-interpolation-filters="sRGB"><feFlood flood-opacity="0" result="BackgroundImageFix"/><feColorMatrix in="SourceAlpha" values="0 0 0 0 0 0 0 0 0 0 0 0 0 0 0 0 0 0 127 0" result="hardAlpha"/><feOffset/><feGaussianBlur stdDeviation="1.266"/><feComposite in2="hardAlpha" operator="out"/><feColorMatrix values="0 0 0 0 0 0 0 0 0 0 0 0 0 0 0 0 0 0 0.5 0"/><feBlend in2="BackgroundImageFix" result="effect1_dropShadow"/><feBlend in="SourceGraphic" in2="effect1_dropShadow" result="shape"/></filter></defs></svg>