<svg width="550" height="250" fill="none" xmlns="http://www.w3.org/2000/svg"><g filter="url(#a)"><rect x="25" y="25" width="500" height="200" rx="25.328" fill="url(#b)" fill-opacity=".65" shape-rendering="crispEdges"/></g><path d="m240.117 168.241-2.637 2.598v6.701h-1.582v-18.727h1.582v10.097l9.596-10.097h1.993l-7.846 8.335 8.451 10.392h-1.93l-7.627-9.299Zm17.094 9.556c-1.183 0-2.255-.291-3.216-.874-.951-.583-1.693-1.394-2.225-2.431-.531-1.046-.797-2.217-.797-3.512v-.553c0-1.337.257-2.542.771-3.614.524-1.072 1.248-1.912 2.174-2.521a5.322 5.322 0 0 1 3.01-.926c1.689 0 3.027.579 4.013 1.736.994 1.149 1.492 2.723 1.492 4.721v.862h-9.93v.295c0 1.578.451 2.894 1.351 3.949.909 1.046 2.049 1.569 3.421 1.569.823 0 1.548-.15 2.174-.45.634-.3 1.209-.78 1.723-1.441l.965.734c-1.132 1.637-2.774 2.456-4.926 2.456Zm-.283-13.119c-1.158 0-2.135.424-2.933 1.273-.789.849-1.269 1.99-1.44 3.422h8.347v-.168c-.043-1.337-.424-2.426-1.144-3.267-.721-.84-1.664-1.26-2.83-1.26Zm13.891 13.119c-1.183 0-2.255-.291-3.216-.874-.951-.583-1.693-1.394-2.225-2.431-.531-1.046-.797-2.217-.797-3.512v-.553c0-1.337.257-2.542.771-3.614.524-1.072 1.248-1.912 2.174-2.521a5.322 5.322 0 0 1 3.01-.926c1.689 0 3.027.579 4.013 1.736.995 1.149 1.492 2.723 1.492 4.721v.862h-9.93v.295c0 1.578.451 2.894 1.351 3.949.909 1.046 2.049 1.569 3.421 1.569.823 0 1.548-.15 2.174-.45.634-.3 1.209-.78 1.723-1.441l.965.734c-1.132 1.637-2.774 2.456-4.926 2.456Zm-.283-13.119c-1.158 0-2.135.424-2.933 1.273-.789.849-1.269 1.99-1.44 3.422h8.347v-.168c-.043-1.337-.424-2.426-1.144-3.267-.721-.84-1.664-1.26-2.83-1.26Zm19.692 6.045c0 2.17-.481 3.893-1.441 5.171-.96 1.269-2.246 1.903-3.858 1.903-1.904 0-3.362-.669-4.374-2.006v7.1h-1.53v-19.268h1.428l.077 1.968c1.003-1.483 2.456-2.225 4.36-2.225 1.663 0 2.967.63 3.91 1.891.952 1.26 1.428 3.01 1.428 5.248v.218Zm-1.544-.27c0-1.775-.364-3.177-1.093-4.206-.729-1.029-1.745-1.543-3.048-1.543-.944 0-1.754.227-2.431.681-.678.455-1.196 1.115-1.557 1.981v6.676c.369.797.896 1.406 1.582 1.826.686.42 1.497.63 2.431.63 1.295 0 2.303-.514 3.023-1.543.729-1.038 1.093-2.538 1.093-4.502Zm6.688 7.087h-1.543v-13.917h1.543v13.917Zm-1.813-17.942c0-.292.094-.536.283-.734.189-.205.446-.308.772-.308.325 0 .583.103.771.308a.995.995 0 0 1 .296.734.995.995 0 0 1-.296.733c-.188.197-.446.295-.771.295-.326 0-.583-.098-.772-.295a1.02 1.02 0 0 1-.283-.733Zm7.473 4.025.051 2.38c.523-.858 1.175-1.509 1.955-1.955a5.04 5.04 0 0 1 2.586-.682c1.491 0 2.602.42 3.331 1.261.729.84 1.097 2.1 1.106 3.781v9.132h-1.531v-9.145c-.008-1.243-.274-2.169-.797-2.778-.515-.609-1.342-.913-2.482-.913-.952 0-1.797.3-2.534.9-.729.592-1.269 1.393-1.621 2.405v9.531h-1.531v-13.917h1.467Zm12.399 6.83c0-2.178.48-3.901 1.44-5.17.969-1.278 2.281-1.917 3.936-1.917 1.895 0 3.336.755 4.322 2.264l.077-2.007h1.44v13.634c0 1.792-.501 3.211-1.504 4.257-1.004 1.047-2.363 1.57-4.078 1.57a6.185 6.185 0 0 1-2.778-.656c-.874-.429-1.565-1.004-2.071-1.724l.862-.926c1.089 1.338 2.384 2.007 3.884 2.007 1.287 0 2.29-.382 3.01-1.145.72-.755 1.093-1.805 1.119-3.151v-1.75c-.986 1.372-2.422 2.058-4.309 2.058-1.612 0-2.906-.643-3.884-1.929-.977-1.286-1.466-3.023-1.466-5.209v-.206Zm1.556.27c0 1.775.356 3.177 1.068 4.206.711 1.02 1.715 1.531 3.009 1.531 1.895 0 3.237-.849 4.026-2.547v-6.47c-.36-.891-.879-1.569-1.556-2.032-.678-.471-1.492-.707-2.444-.707-1.295 0-2.302.51-3.023 1.53-.72 1.012-1.08 2.508-1.08 4.489Zm24.489 4.605 4.065-11.705h1.659l-5.942 16.284-.309.72c-.763 1.689-1.942 2.534-3.537 2.534-.369 0-.763-.06-1.183-.18l-.013-1.274.797.078c.755 0 1.364-.189 1.827-.566.471-.369.87-1.008 1.196-1.917l.681-1.878-5.247-13.801h1.685l4.321 11.705Zm7.062-4.952c0-1.338.257-2.543.771-3.614.523-1.072 1.257-1.904 2.2-2.496.952-.6 2.028-.9 3.228-.9 1.852 0 3.353.652 4.502 1.955 1.149 1.295 1.723 3.014 1.723 5.158v.321c0 1.347-.261 2.56-.784 3.64-.515 1.072-1.244 1.9-2.187 2.483-.943.583-2.019.874-3.228.874-1.844 0-3.344-.647-4.502-1.942-1.149-1.303-1.723-3.027-1.723-5.17v-.309Zm1.543.424c0 1.664.429 3.031 1.286 4.103.866 1.064 1.998 1.595 3.396 1.595 1.389 0 2.512-.531 3.37-1.595.866-1.072 1.299-2.482 1.299-4.231v-.296c0-1.063-.197-2.037-.592-2.92-.394-.883-.947-1.565-1.659-2.045-.712-.489-1.526-.733-2.444-.733-1.372 0-2.491.54-3.357 1.621-.866 1.071-1.299 2.478-1.299 4.218v.283Zm23.023 4.978c-.926 1.346-2.405 2.019-4.437 2.019-1.484 0-2.611-.428-3.383-1.286-.772-.866-1.166-2.144-1.183-3.833v-9.055h1.53v8.862c0 2.65 1.072 3.975 3.216 3.975 2.229 0 3.64-.922 4.231-2.766v-10.071h1.544v13.917h-1.492l-.026-1.762Zm11.962-10.843a5.752 5.752 0 0 0-1.042-.09c-.96 0-1.775.27-2.444.811-.66.531-1.132 1.307-1.415 2.328v9.556h-1.53v-13.917h1.505l.025 2.213c.815-1.647 2.123-2.47 3.923-2.47.429 0 .768.056 1.016.167l-.038 1.402Zm17.183 9.068c0-.763-.308-1.376-.926-1.839-.608-.463-1.53-.823-2.765-1.081-1.235-.266-2.195-.566-2.881-.9-.677-.343-1.183-.759-1.518-1.248-.326-.488-.489-1.08-.489-1.775 0-1.097.459-2.002 1.377-2.714.917-.72 2.092-1.08 3.524-1.08 1.552 0 2.795.386 3.73 1.158.943.763 1.415 1.762 1.415 2.997h-1.544c0-.815-.343-1.492-1.029-2.033-.677-.54-1.535-.81-2.572-.81-1.012 0-1.827.227-2.444.682-.609.446-.913 1.029-.913 1.749 0 .694.253 1.235.759 1.621.514.377 1.445.724 2.791 1.041 1.355.318 2.366.656 3.035 1.016.678.361 1.179.794 1.505 1.3.326.505.489 1.119.489 1.839 0 1.175-.476 2.113-1.428 2.817-.943.703-2.178 1.054-3.704 1.054-1.621 0-2.937-.39-3.949-1.17-1.003-.789-1.505-1.784-1.505-2.984h1.544c.06.9.437 1.603 1.132 2.109.703.498 1.629.746 2.778.746 1.072 0 1.938-.236 2.598-.707.66-.472.99-1.068.99-1.788Zm10.406 3.794c-1.183 0-2.255-.291-3.216-.874-.951-.583-1.693-1.394-2.225-2.431-.531-1.046-.797-2.217-.797-3.512v-.553c0-1.337.257-2.542.771-3.614.524-1.072 1.248-1.912 2.174-2.521a5.322 5.322 0 0 1 3.01-.926c1.689 0 3.027.579 4.013 1.736.994 1.149 1.492 2.723 1.492 4.721v.862h-9.93v.295c0 1.578.45 2.894 1.351 3.949.909 1.046 2.049 1.569 3.421 1.569.823 0 1.548-.15 2.174-.45.634-.3 1.209-.78 1.723-1.441l.965.734c-1.132 1.637-2.774 2.456-4.926 2.456Zm-.283-13.119c-1.158 0-2.135.424-2.933 1.273-.789.849-1.269 1.99-1.44 3.422h8.347v-.168c-.043-1.337-.424-2.426-1.144-3.267-.721-.84-1.664-1.26-2.83-1.26Zm14.933.257a5.752 5.752 0 0 0-1.042-.09c-.961 0-1.775.27-2.444.811-.66.531-1.132 1.307-1.415 2.328v9.556h-1.53v-13.917h1.505l.025 2.213c.815-1.647 2.122-2.47 3.923-2.47.429 0 .768.056 1.016.167l-.038 1.402Zm7.009 10.483 4.232-11.795h1.582l-5.196 13.917h-1.248l-5.222-13.917h1.582l4.27 11.795Zm13.557 2.379c-1.183 0-2.255-.291-3.215-.874-.952-.583-1.694-1.394-2.226-2.431-.531-1.046-.797-2.217-.797-3.512v-.553c0-1.337.257-2.542.772-3.614.523-1.072 1.247-1.912 2.173-2.521a5.325 5.325 0 0 1 3.01-.926c1.689 0 3.027.579 4.013 1.736.995 1.149 1.492 2.723 1.492 4.721v.862h-9.929v.295c0 1.578.45 2.894 1.35 3.949.909 1.046 2.049 1.569 3.421 1.569.824 0 1.548-.15 2.174-.45.635-.3 1.209-.78 1.724-1.441l.964.734c-1.132 1.637-2.774 2.456-4.926 2.456Zm-.283-13.119c-1.158 0-2.135.424-2.932 1.273-.789.849-1.27 1.99-1.441 3.422h8.347v-.168c-.042-1.337-.424-2.426-1.144-3.267-.721-.84-1.664-1.26-2.83-1.26Zm14.933.257a5.752 5.752 0 0 0-1.042-.09c-.96 0-1.775.27-2.444.811-.66.531-1.132 1.307-1.415 2.328v9.556h-1.53v-13.917h1.505l.025 2.213c.815-1.647 2.123-2.47 3.923-2.47.429 0 .768.056 1.016.167l-.038 1.402ZM332.84 205.003c0-.763-.309-1.376-.927-1.839-.608-.463-1.53-.823-2.765-1.081-1.235-.266-2.195-.566-2.881-.9-.677-.343-1.183-.759-1.518-1.248-.325-.488-.488-1.08-.488-1.775 0-1.097.458-2.002 1.376-2.714.917-.72 2.092-1.08 3.524-1.08 1.552 0 2.795.386 3.73 1.158.943.763 1.415 1.762 1.415 2.997h-1.544c0-.815-.343-1.492-1.029-2.033-.677-.54-1.534-.81-2.572-.81-1.012 0-1.826.227-2.444.682-.609.446-.913 1.029-.913 1.749 0 .694.253 1.235.759 1.621.514.377 1.445.724 2.791 1.041 1.355.318 2.367.656 3.035 1.016.678.361 1.179.794 1.505 1.3.326.505.489 1.119.489 1.839 0 1.175-.476 2.113-1.428 2.817-.943.703-2.178 1.054-3.704 1.054-1.621 0-2.937-.39-3.949-1.17-1.003-.789-1.504-1.784-1.504-2.984h1.543c.06.9.437 1.603 1.132 2.109.703.498 1.629.746 2.778.746 1.072 0 1.938-.236 2.598-.707.66-.472.991-1.068.991-1.788Zm13.801 3.537c-.155-.437-.253-1.085-.296-1.942a5.422 5.422 0 0 1-2.071 1.633 6.33 6.33 0 0 1-2.65.566c-1.337 0-2.422-.373-3.254-1.119-.823-.746-1.235-1.689-1.235-2.829 0-1.355.562-2.427 1.685-3.216 1.132-.789 2.706-1.183 4.721-1.183h2.791v-1.582c0-.995-.309-1.775-.926-2.341-.609-.575-1.501-.862-2.676-.862-1.071 0-1.959.275-2.662.823-.703.549-1.055 1.209-1.055 1.981l-1.543-.013c0-1.106.514-2.062 1.543-2.868 1.029-.815 2.294-1.222 3.795-1.222 1.552 0 2.774.39 3.665 1.171.901.771 1.364 1.852 1.389 3.241v6.585c0 1.346.142 2.354.425 3.023v.154h-1.646Zm-4.837-1.106c1.029 0 1.947-.249 2.753-.746.814-.497 1.406-1.162 1.775-1.994v-3.061h-2.753c-1.535.017-2.735.3-3.601.849-.866.54-1.299 1.286-1.299 2.238 0 .78.287 1.428.862 1.942.583.515 1.337.772 2.263.772Zm11.28 1.106v-12.656h-2.302v-1.261h2.302v-1.685c0-1.423.361-2.516 1.081-3.279.729-.764 1.74-1.145 3.035-1.145.583 0 1.128.073 1.634.219l-.116 1.286a5.997 5.997 0 0 0-1.402-.155c-.849 0-1.509.266-1.981.798-.471.523-.707 1.269-.707 2.238v1.723h3.318v1.261h-3.318v12.656h-1.544Zm12.695.257c-1.183 0-2.255-.291-3.215-.874-.952-.583-1.694-1.394-2.225-2.431-.532-1.046-.798-2.217-.798-3.512v-.553c0-1.337.257-2.542.772-3.614.523-1.072 1.247-1.912 2.174-2.521a5.322 5.322 0 0 1 3.009-.926c1.689 0 3.027.579 4.013 1.736.995 1.149 1.492 2.723 1.492 4.721v.862h-9.929v.295c0 1.578.45 2.894 1.35 3.949.909 1.046 2.05 1.569 3.422 1.569.823 0 1.547-.15 2.173-.45.635-.3 1.209-.78 1.724-1.441l.964.734c-1.131 1.637-2.774 2.456-4.926 2.456Zm-.283-13.119c-1.157 0-2.135.424-2.932 1.273-.789.849-1.269 1.99-1.441 3.422h8.348v-.168c-.043-1.337-.425-2.426-1.145-3.267-.72-.84-1.664-1.26-2.83-1.26Z" fill="#000"/><path d="M103.965 120.342a7.598 7.598 0 1 0-11.113 10.365l11.113-10.365Zm10.219 22.094-5.557 5.183a7.6 7.6 0 0 0 11.113 0l-5.556-5.183Zm38.364-29.988a7.6 7.6 0 0 0-11.113-10.366l11.113 10.366Zm-59.696 18.259 15.775 16.912 11.113-10.366-15.775-16.911-11.113 10.365Zm26.888 16.912 32.808-35.171-11.113-10.366-32.808 35.171 11.113 10.366Zm57.719-22.585c0 33.332-25.083 59.436-54.93 59.436v15.197c39.219 0 70.127-33.921 70.127-74.633h-15.197Zm-54.93 59.436c-29.848 0-54.93-26.104-54.93-59.436H52.4c0 40.712 30.908 74.633 70.128 74.633V184.47Zm-54.93-59.436c0-33.332 25.082-59.436 54.93-59.436V50.401c-39.22 0-70.127 33.921-70.127 74.633h15.197Zm54.93-59.436c29.847 0 54.93 26.104 54.93 59.436h15.197c0-40.712-30.908-74.633-70.127-74.633v15.197Z" fill="url(#c)"/><path d="M103.965 120.342a7.598 7.598 0 1 0-11.113 10.365l11.113-10.365Zm10.219 22.094-5.557 5.183a7.6 7.6 0 0 0 11.113 0l-5.556-5.183Zm38.364-29.988a7.6 7.6 0 0 0-11.113-10.366l11.113 10.366Zm-59.696 18.259 15.775 16.912 11.113-10.366-15.775-16.911-11.113 10.365Zm26.888 16.912 32.808-35.171-11.113-10.366-32.808 35.171 11.113 10.366Zm57.719-22.585c0 33.332-25.083 59.436-54.93 59.436v15.197c39.219 0 70.127-33.921 70.127-74.633h-15.197Zm-54.93 59.436c-29.848 0-54.93-26.104-54.93-59.436H52.4c0 40.712 30.908 74.633 70.128 74.633V184.47Zm-54.93-59.436c0-33.332 25.082-59.436 54.93-59.436V50.401c-39.22 0-70.127 33.921-70.127 74.633h15.197Zm54.93-59.436c29.847 0 54.93 26.104 54.93 59.436h15.197c0-40.712-30.908-74.633-70.127-74.633v15.197Z" fill="#000" fill-opacity=".15"/><path d="M249.224 69.81c-.409 4.323-2.004 7.699-4.787 10.13-2.782 2.41-6.483 3.617-11.102 3.617-3.228 0-6.076-.761-8.543-2.282-2.449-1.54-4.341-3.72-5.677-6.54-1.335-2.82-2.031-6.094-2.087-9.822v-3.785c0-3.821.677-7.188 2.032-10.1 1.354-2.913 3.292-5.158 5.815-6.735 2.542-1.576 5.473-2.365 8.794-2.365 4.47 0 8.069 1.215 10.796 3.645 2.727 2.43 4.313 5.862 4.759 10.296h-7.013c-.334-2.912-1.187-5.009-2.56-6.289-1.354-1.298-3.348-1.947-5.982-1.947-3.061 0-5.417 1.122-7.068 3.366-1.633 2.227-2.468 5.5-2.505 9.823v3.59c0 4.378.779 7.717 2.338 10.017 1.576 2.3 3.877 3.45 6.901 3.45 2.764 0 4.841-.62 6.233-1.864 1.391-1.242 2.272-3.31 2.643-6.205h7.013Zm28.995 3.757h-15.694L259.241 83h-7.318l15.304-40.515h6.317L288.876 83h-7.346l-3.311-9.433ZM264.5 67.89h11.743l-5.871-16.807L264.5 67.89Zm36.036.056V83h-7.04V42.485h15.499c4.526 0 8.116 1.178 10.769 3.534 2.671 2.356 4.007 5.472 4.007 9.35 0 3.97-1.308 7.058-3.924 9.266-2.597 2.207-6.242 3.31-10.936 3.31h-8.375Zm0-5.649h8.459c2.504 0 4.415-.584 5.732-1.753 1.317-1.187 1.976-2.894 1.976-5.12 0-2.19-.668-3.933-2.004-5.231-1.335-1.318-3.172-1.995-5.509-2.032h-8.654v14.136Zm58.686-14.136h-12.634V83h-6.984V48.161h-12.522v-5.676h32.14v5.676Zm35.478 21.65c-.408 4.322-2.003 7.698-4.786 10.128-2.782 2.412-6.483 3.618-11.102 3.618-3.228 0-6.076-.761-8.543-2.282-2.449-1.54-4.341-3.72-5.677-6.54-1.335-2.82-2.031-6.094-2.087-9.822v-3.785c0-3.821.677-7.188 2.032-10.1 1.354-2.913 3.292-5.158 5.815-6.735 2.542-1.576 5.473-2.365 8.793-2.365 4.471 0 8.07 1.215 10.797 3.645 2.727 2.43 4.313 5.862 4.758 10.296h-7.012c-.334-2.912-1.187-5.009-2.56-6.289-1.354-1.298-3.348-1.947-5.983-1.947-3.06 0-5.416 1.122-7.067 3.366-1.633 2.227-2.468 5.5-2.505 9.823v3.59c0 4.378.779 7.717 2.338 10.017 1.576 2.3 3.877 3.45 6.901 3.45 2.764 0 4.841-.62 6.233-1.864 1.391-1.242 2.272-3.31 2.643-6.205h7.012ZM433.185 83h-7.013V64.996h-18.115V83h-7.04V42.485h7.04v16.862h18.115V42.486h7.013V83Zm31.527-9.433h-15.694L445.734 83h-7.318l15.304-40.515h6.317L475.37 83h-7.347l-3.311-9.433Zm-13.719-5.677h11.743l-5.871-16.807-5.872 16.807Zm-219.594 66.27 9.152-28.173h6.876L234.466 142h-6.06l-12.911-36.014h6.851l9.053 28.173Zm30.226 8.336c-3.809 0-6.901-1.196-9.276-3.587-2.358-2.407-3.537-5.606-3.537-9.597v-.742c0-2.671.512-5.054 1.534-7.148 1.039-2.111 2.49-3.752 4.353-4.922 1.864-1.171 3.941-1.757 6.233-1.757 3.645 0 6.456 1.163 8.435 3.488 1.995 2.325 2.993 5.615 2.993 9.869v2.424h-17.488c.182 2.21.915 3.958 2.202 5.244 1.302 1.286 2.935 1.929 4.897 1.929 2.754 0 4.997-1.113 6.728-3.339l3.24 3.092c-1.072 1.599-2.506 2.844-4.304 3.735-1.78.874-3.784 1.311-6.01 1.311Zm-.717-22.929c-1.649 0-2.985.577-4.007 1.731-1.006 1.154-1.649 2.762-1.93 4.823h11.452v-.445c-.132-2.012-.667-3.529-1.607-4.551-.94-1.039-2.243-1.558-3.908-1.558Zm30.151 1.162a14.863 14.863 0 0 0-2.449-.198c-2.753 0-4.608 1.056-5.565 3.166V142h-6.01v-26.763h5.738l.148 2.993c1.452-2.325 3.463-3.488 6.036-3.488.857 0 1.566.116 2.127.347l-.025 5.639ZM301.25 142h-6.011v-26.763h6.011V142Zm-6.382-33.713c0-.924.289-1.691.866-2.301.594-.61 1.435-.915 2.523-.915s1.929.305 2.523.915c.593.61.89 1.377.89 2.301 0 .907-.297 1.665-.89 2.275-.594.594-1.435.891-2.523.891s-1.929-.297-2.523-.891c-.577-.61-.866-1.368-.866-2.275ZM309.412 142v-22.311h-4.081v-4.452h4.081v-1.83c.017-2.094.462-3.892 1.336-5.392.874-1.501 2.111-2.631 3.71-3.389 1.6-.759 3.521-1.138 5.763-1.138 1.319 0 2.581.14 3.785.421 1.22.28 2.481.634 3.784 1.063l-.915 4.972c-2.276-.792-4.353-1.187-6.233-1.187-1.831 0-3.158.404-3.982 1.212-.825.791-1.237 1.987-1.237 3.586v1.682h5.268v4.452h-5.268V142h-6.011Zm21.223 0h-6.011v-26.763h6.011V142Zm17.66-4.304c1.501 0 2.746-.437 3.735-1.311.989-.874 1.517-1.954 1.583-3.24h5.664c-.066 1.665-.585 3.224-1.558 4.675-.973 1.434-2.292 2.572-3.957 3.413-1.666.841-3.463 1.262-5.393 1.262-3.743 0-6.711-1.212-8.904-3.636-2.193-2.424-3.29-5.772-3.29-10.043v-.618c0-4.073 1.088-7.33 3.265-9.77 2.177-2.457 5.145-3.686 8.905-3.686 3.182 0 5.771.932 7.766 2.795 2.012 1.847 3.067 4.28 3.166 7.297h-5.664c-.066-1.533-.594-2.795-1.583-3.784-.973-.99-2.218-1.484-3.735-1.484-1.946 0-3.446.709-4.502 2.127-1.055 1.401-1.591 3.537-1.607 6.406v.965c0 2.902.519 5.07 1.558 6.505 1.055 1.418 2.572 2.127 4.551 2.127ZM379.807 142c-.264-.511-.495-1.344-.692-2.498-1.913 1.995-4.255 2.993-7.025 2.993-2.688 0-4.881-.767-6.58-2.301-1.698-1.533-2.547-3.43-2.547-5.689 0-2.852 1.055-5.037 3.166-6.554 2.127-1.534 5.161-2.301 9.102-2.301h3.686v-1.756c0-1.385-.388-2.49-1.163-3.314-.775-.841-1.954-1.262-3.537-1.262-1.369 0-2.49.347-3.364 1.039-.874.676-1.311 1.542-1.311 2.597h-6.01c0-1.467.486-2.836 1.459-4.106.973-1.286 2.292-2.292 3.958-3.017 1.682-.726 3.553-1.089 5.614-1.089 3.133 0 5.632.792 7.495 2.375 1.863 1.566 2.82 3.776 2.869 6.629v12.07c0 2.408.338 4.329 1.014 5.764v.42h-6.134Zm-6.604-4.329a6.77 6.77 0 0 0 3.339-.865c1.055-.577 1.847-1.352 2.375-2.325v-5.046h-3.241c-2.226 0-3.899.387-5.021 1.162-1.121.775-1.682 1.872-1.682 3.29 0 1.154.38 2.078 1.138 2.77.775.676 1.806 1.014 3.092 1.014Zm25.551-28.939v6.505h4.724v4.452h-4.724v14.94c0 1.022.198 1.764.594 2.226.412.445 1.137.668 2.176.668.693 0 1.394-.082 2.103-.247v4.65c-1.369.379-2.688.569-3.958.569-4.617 0-6.926-2.548-6.926-7.643v-15.163h-4.402v-4.452h4.402v-6.505h6.011ZM414.485 142h-6.01v-26.763h6.01V142Zm-6.381-33.713c0-.924.288-1.691.865-2.301.594-.61 1.435-.915 2.523-.915 1.089 0 1.93.305 2.523.915.594.61.891 1.377.891 2.301 0 .907-.297 1.665-.891 2.275-.593.594-1.434.891-2.523.891-1.088 0-1.929-.297-2.523-.891-.577-.61-.865-1.368-.865-2.275Zm11.823 20.084c0-2.622.519-4.98 1.558-7.074 1.039-2.111 2.498-3.727 4.378-4.848 1.88-1.138 4.04-1.707 6.481-1.707 3.611 0 6.538 1.163 8.78 3.488 2.259 2.325 3.48 5.409 3.661 9.251l.025 1.41c0 2.638-.511 4.996-1.534 7.074-1.006 2.077-2.457 3.685-4.353 4.823-1.88 1.138-4.057 1.707-6.53 1.707-3.776 0-6.802-1.254-9.078-3.76-2.259-2.523-3.388-5.879-3.388-10.067v-.297Zm6.01.52c0 2.753.569 4.914 1.707 6.48 1.138 1.55 2.721 2.325 4.749 2.325 2.028 0 3.603-.791 4.724-2.374 1.138-1.583 1.707-3.9 1.707-6.951 0-2.704-.585-4.848-1.756-6.431-1.154-1.583-2.729-2.374-4.724-2.374-1.963 0-3.521.783-4.675 2.349-1.155 1.55-1.732 3.876-1.732 6.976Zm29.533-13.654.174 3.092c1.978-2.391 4.576-3.587 7.791-3.587 5.574 0 8.41 3.191 8.509 9.573V142h-6.011v-17.339c0-1.698-.371-2.952-1.113-3.76-.725-.824-1.921-1.236-3.586-1.236-2.424 0-4.23 1.096-5.417 3.289V142h-6.011v-26.763h5.664Z" fill="url(#d)"/><path d="M249.224 69.81c-.409 4.323-2.004 7.699-4.787 10.13-2.782 2.41-6.483 3.617-11.102 3.617-3.228 0-6.076-.761-8.543-2.282-2.449-1.54-4.341-3.72-5.677-6.54-1.335-2.82-2.031-6.094-2.087-9.822v-3.785c0-3.821.677-7.188 2.032-10.1 1.354-2.913 3.292-5.158 5.815-6.735 2.542-1.576 5.473-2.365 8.794-2.365 4.47 0 8.069 1.215 10.796 3.645 2.727 2.43 4.313 5.862 4.759 10.296h-7.013c-.334-2.912-1.187-5.009-2.56-6.289-1.354-1.298-3.348-1.947-5.982-1.947-3.061 0-5.417 1.122-7.068 3.366-1.633 2.227-2.468 5.5-2.505 9.823v3.59c0 4.378.779 7.717 2.338 10.017 1.576 2.3 3.877 3.45 6.901 3.45 2.764 0 4.841-.62 6.233-1.864 1.391-1.242 2.272-3.31 2.643-6.205h7.013Zm28.995 3.757h-15.694L259.241 83h-7.318l15.304-40.515h6.317L288.876 83h-7.346l-3.311-9.433ZM264.5 67.89h11.743l-5.871-16.807L264.5 67.89Zm36.036.056V83h-7.04V42.485h15.499c4.526 0 8.116 1.178 10.769 3.534 2.671 2.356 4.007 5.472 4.007 9.35 0 3.97-1.308 7.058-3.924 9.266-2.597 2.207-6.242 3.31-10.936 3.31h-8.375Zm0-5.649h8.459c2.504 0 4.415-.584 5.732-1.753 1.317-1.187 1.976-2.894 1.976-5.12 0-2.19-.668-3.933-2.004-5.231-1.335-1.318-3.172-1.995-5.509-2.032h-8.654v14.136Zm58.686-14.136h-12.634V83h-6.984V48.161h-12.522v-5.676h32.14v5.676Zm35.478 21.65c-.408 4.322-2.003 7.698-4.786 10.128-2.782 2.412-6.483 3.618-11.102 3.618-3.228 0-6.076-.761-8.543-2.282-2.449-1.54-4.341-3.72-5.677-6.54-1.335-2.82-2.031-6.094-2.087-9.822v-3.785c0-3.821.677-7.188 2.032-10.1 1.354-2.913 3.292-5.158 5.815-6.735 2.542-1.576 5.473-2.365 8.793-2.365 4.471 0 8.07 1.215 10.797 3.645 2.727 2.43 4.313 5.862 4.758 10.296h-7.012c-.334-2.912-1.187-5.009-2.56-6.289-1.354-1.298-3.348-1.947-5.983-1.947-3.06 0-5.416 1.122-7.067 3.366-1.633 2.227-2.468 5.5-2.505 9.823v3.59c0 4.378.779 7.717 2.338 10.017 1.576 2.3 3.877 3.45 6.901 3.45 2.764 0 4.841-.62 6.233-1.864 1.391-1.242 2.272-3.31 2.643-6.205h7.012ZM433.185 83h-7.013V64.996h-18.115V83h-7.04V42.485h7.04v16.862h18.115V42.486h7.013V83Zm31.527-9.433h-15.694L445.734 83h-7.318l15.304-40.515h6.317L475.37 83h-7.347l-3.311-9.433Zm-13.719-5.677h11.743l-5.871-16.807-5.872 16.807Zm-219.594 66.27 9.152-28.173h6.876L234.466 142h-6.06l-12.911-36.014h6.851l9.053 28.173Zm30.226 8.336c-3.809 0-6.901-1.196-9.276-3.587-2.358-2.407-3.537-5.606-3.537-9.597v-.742c0-2.671.512-5.054 1.534-7.148 1.039-2.111 2.49-3.752 4.353-4.922 1.864-1.171 3.941-1.757 6.233-1.757 3.645 0 6.456 1.163 8.435 3.488 1.995 2.325 2.993 5.615 2.993 9.869v2.424h-17.488c.182 2.21.915 3.958 2.202 5.244 1.302 1.286 2.935 1.929 4.897 1.929 2.754 0 4.997-1.113 6.728-3.339l3.24 3.092c-1.072 1.599-2.506 2.844-4.304 3.735-1.78.874-3.784 1.311-6.01 1.311Zm-.717-22.929c-1.649 0-2.985.577-4.007 1.731-1.006 1.154-1.649 2.762-1.93 4.823h11.452v-.445c-.132-2.012-.667-3.529-1.607-4.551-.94-1.039-2.243-1.558-3.908-1.558Zm30.151 1.162a14.863 14.863 0 0 0-2.449-.198c-2.753 0-4.608 1.056-5.565 3.166V142h-6.01v-26.763h5.738l.148 2.993c1.452-2.325 3.463-3.488 6.036-3.488.857 0 1.566.116 2.127.347l-.025 5.639ZM301.25 142h-6.011v-26.763h6.011V142Zm-6.382-33.713c0-.924.289-1.691.866-2.301.594-.61 1.435-.915 2.523-.915s1.929.305 2.523.915c.593.61.89 1.377.89 2.301 0 .907-.297 1.665-.89 2.275-.594.594-1.435.891-2.523.891s-1.929-.297-2.523-.891c-.577-.61-.866-1.368-.866-2.275ZM309.412 142v-22.311h-4.081v-4.452h4.081v-1.83c.017-2.094.462-3.892 1.336-5.392.874-1.501 2.111-2.631 3.71-3.389 1.6-.759 3.521-1.138 5.763-1.138 1.319 0 2.581.14 3.785.421 1.22.28 2.481.634 3.784 1.063l-.915 4.972c-2.276-.792-4.353-1.187-6.233-1.187-1.831 0-3.158.404-3.982 1.212-.825.791-1.237 1.987-1.237 3.586v1.682h5.268v4.452h-5.268V142h-6.011Zm21.223 0h-6.011v-26.763h6.011V142Zm17.66-4.304c1.501 0 2.746-.437 3.735-1.311.989-.874 1.517-1.954 1.583-3.24h5.664c-.066 1.665-.585 3.224-1.558 4.675-.973 1.434-2.292 2.572-3.957 3.413-1.666.841-3.463 1.262-5.393 1.262-3.743 0-6.711-1.212-8.904-3.636-2.193-2.424-3.29-5.772-3.29-10.043v-.618c0-4.073 1.088-7.33 3.265-9.77 2.177-2.457 5.145-3.686 8.905-3.686 3.182 0 5.771.932 7.766 2.795 2.012 1.847 3.067 4.28 3.166 7.297h-5.664c-.066-1.533-.594-2.795-1.583-3.784-.973-.99-2.218-1.484-3.735-1.484-1.946 0-3.446.709-4.502 2.127-1.055 1.401-1.591 3.537-1.607 6.406v.965c0 2.902.519 5.07 1.558 6.505 1.055 1.418 2.572 2.127 4.551 2.127ZM379.807 142c-.264-.511-.495-1.344-.692-2.498-1.913 1.995-4.255 2.993-7.025 2.993-2.688 0-4.881-.767-6.58-2.301-1.698-1.533-2.547-3.43-2.547-5.689 0-2.852 1.055-5.037 3.166-6.554 2.127-1.534 5.161-2.301 9.102-2.301h3.686v-1.756c0-1.385-.388-2.49-1.163-3.314-.775-.841-1.954-1.262-3.537-1.262-1.369 0-2.49.347-3.364 1.039-.874.676-1.311 1.542-1.311 2.597h-6.01c0-1.467.486-2.836 1.459-4.106.973-1.286 2.292-2.292 3.958-3.017 1.682-.726 3.553-1.089 5.614-1.089 3.133 0 5.632.792 7.495 2.375 1.863 1.566 2.82 3.776 2.869 6.629v12.07c0 2.408.338 4.329 1.014 5.764v.42h-6.134Zm-6.604-4.329a6.77 6.77 0 0 0 3.339-.865c1.055-.577 1.847-1.352 2.375-2.325v-5.046h-3.241c-2.226 0-3.899.387-5.021 1.162-1.121.775-1.682 1.872-1.682 3.29 0 1.154.38 2.078 1.138 2.77.775.676 1.806 1.014 3.092 1.014Zm25.551-28.939v6.505h4.724v4.452h-4.724v14.94c0 1.022.198 1.764.594 2.226.412.445 1.137.668 2.176.668.693 0 1.394-.082 2.103-.247v4.65c-1.369.379-2.688.569-3.958.569-4.617 0-6.926-2.548-6.926-7.643v-15.163h-4.402v-4.452h4.402v-6.505h6.011ZM414.485 142h-6.01v-26.763h6.01V142Zm-6.381-33.713c0-.924.288-1.691.865-2.301.594-.61 1.435-.915 2.523-.915 1.089 0 1.93.305 2.523.915.594.61.891 1.377.891 2.301 0 .907-.297 1.665-.891 2.275-.593.594-1.434.891-2.523.891-1.088 0-1.929-.297-2.523-.891-.577-.61-.865-1.368-.865-2.275Zm11.823 20.084c0-2.622.519-4.98 1.558-7.074 1.039-2.111 2.498-3.727 4.378-4.848 1.88-1.138 4.04-1.707 6.481-1.707 3.611 0 6.538 1.163 8.78 3.488 2.259 2.325 3.48 5.409 3.661 9.251l.025 1.41c0 2.638-.511 4.996-1.534 7.074-1.006 2.077-2.457 3.685-4.353 4.823-1.88 1.138-4.057 1.707-6.53 1.707-3.776 0-6.802-1.254-9.078-3.76-2.259-2.523-3.388-5.879-3.388-10.067v-.297Zm6.01.52c0 2.753.569 4.914 1.707 6.48 1.138 1.55 2.721 2.325 4.749 2.325 2.028 0 3.603-.791 4.724-2.374 1.138-1.583 1.707-3.9 1.707-6.951 0-2.704-.585-4.848-1.756-6.431-1.154-1.583-2.729-2.374-4.724-2.374-1.963 0-3.521.783-4.675 2.349-1.155 1.55-1.732 3.876-1.732 6.976Zm29.533-13.654.174 3.092c1.978-2.391 4.576-3.587 7.791-3.587 5.574 0 8.41 3.191 8.509 9.573V142h-6.011v-17.339c0-1.698-.371-2.952-1.113-3.76-.725-.824-1.921-1.236-3.586-1.236-2.424 0-4.23 1.096-5.417 3.289V142h-6.011v-26.763h5.664Z" fill="#000" fill-opacity=".15"/><defs><linearGradient id="b" x1="25" y1="25" x2="512.876" y2="251.156" gradientUnits="userSpaceOnUse"><stop stop-color="#fff" stop-opacity=".9"/><stop offset="1" stop-color="#fff" stop-opacity=".7"/></linearGradient><linearGradient id="c" x1="122.529" y1="58" x2="122.529" y2="192.069" gradientUnits="userSpaceOnUse"><stop stop-color="#68D49F"/><stop offset="1" stop-color="#65CC76"/></linearGradient><linearGradient id="d" x1="345.03" y1="25" x2="345.03" y2="159.314" gradientUnits="userSpaceOnUse"><stop stop-color="#68D49F"/><stop offset="1" stop-color="#65CC76"/></linearGradient><filter id="a" x=".016" y=".016" width="549.968" height="249.968" filterUnits="userSpaceOnUse" color-interpolation-filters="sRGB"><feFlood flood-opacity="0" result="BackgroundImageFix"/><feGaussianBlur in="BackgroundImage" stdDeviation="11.651"/><feComposite in2="SourceAlpha" operator="in" result="effect1_backgroundBlur"/><feColorMatrix in="SourceAlpha" values="0 0 0 0 0 0 0 0 0 0 0 0 0 0 0 0 0 0 127 0" result="hardAlpha"/><feMorphology radius="4.164" operator="dilate" in="SourceAlpha" result="effect2_dropShadow"/><feOffset/><feGaussianBlur stdDeviation="10.41"/><feComposite in2="hardAlpha" operator="out"/><feColorMatrix values="0 0 0 0 0 0 0 0 0 0 0 0 0 0 0 0 0 0 0.5 0"/><feBlend in2="effect1_backgroundBlur" result="effect2_dropShadow"/><feBlend in="SourceGraphic" in2="effect2_dropShadow" result="shape"/></filter></defs></svg>