<svg width="550" height="250" fill="none" xmlns="http://www.w3.org/2000/svg"><g filter="url(#a)"><rect x="25" y="25" width="500" height="200" rx="25.328" fill="url(#b)" fill-opacity=".65" shape-rendering="crispEdges"/></g><path d="m131.733 130.465 73.876 26.857v20.806l-96.534-40.232v-15.499l96.534-40.126v20.806l-73.876 27.388Z" fill="url(#c)" fill-opacity=".25"/><path d="M244.435 212.097h-18.764l71.751-167.828h18.646l-71.633 167.828Z" fill="url(#d)" fill-opacity=".25"/><path d="m416.969 129.828-78.006-27.494V82.165l100.782 40.126v15.499l-100.782 40.232V157.64l78.006-27.812Z" fill="url(#e)" fill-opacity=".25"/><path d="m111.549 50.33 5.724-10.213h1.826l-6.765 11.678v7.049h-1.582v-7.049l-6.753-11.678h1.878l5.672 10.212Zm8.219 1.35c0-1.338.257-2.543.772-3.615.523-1.072 1.256-1.903 2.199-2.495.952-.6 2.028-.9 3.229-.9 1.852 0 3.352.651 4.501 1.955 1.149 1.295 1.724 3.014 1.724 5.157v.322c0 1.346-.262 2.56-.785 3.64-.514 1.072-1.243 1.9-2.186 2.482-.943.584-2.02.875-3.229.875-1.843 0-3.344-.647-4.501-1.942-1.149-1.303-1.724-3.027-1.724-5.17v-.31Zm1.544.424c0 1.663.428 3.031 1.286 4.103.866 1.063 1.998 1.595 3.395 1.595 1.389 0 2.513-.532 3.37-1.595.866-1.072 1.299-2.482 1.299-4.232v-.295c0-1.064-.197-2.037-.591-2.92-.395-.883-.948-1.565-1.66-2.045-.711-.489-1.526-.733-2.443-.733-1.372 0-2.491.54-3.357 1.62-.866 1.072-1.299 2.478-1.299 4.22v.282Zm23.023 4.978c-.926 1.346-2.406 2.019-4.438 2.019-1.483 0-2.611-.429-3.382-1.286-.772-.866-1.167-2.144-1.184-3.833v-9.055h1.531v8.862c0 2.65 1.072 3.974 3.215 3.974 2.23 0 3.64-.921 4.232-2.765V44.927h1.543v13.917h-1.492l-.025-1.762Zm5.234-12.374-.913-.668c.772-1.038 1.171-2.127 1.196-3.267v-1.685h1.518v1.299c0 1.792-.6 3.232-1.801 4.321Zm11.409 1.531a5.743 5.743 0 0 0-1.042-.09c-.96 0-1.775.27-2.444.81-.66.532-1.131 1.308-1.414 2.328v9.557h-1.531V44.927h1.505l.026 2.212c.814-1.646 2.122-2.47 3.923-2.47.428 0 .767.056 1.016.168l-.039 1.402Zm7.576 12.862c-1.183 0-2.255-.291-3.216-.875-.951-.583-1.693-1.393-2.225-2.43-.531-1.047-.797-2.217-.797-3.512v-.553c0-1.338.257-2.542.771-3.614.524-1.072 1.248-1.912 2.174-2.521a5.32 5.32 0 0 1 3.01-.926c1.689 0 3.027.579 4.013 1.736.994 1.15 1.492 2.723 1.492 4.72v.862h-9.93v.296c0 1.578.45 2.894 1.351 3.949.909 1.046 2.049 1.569 3.421 1.569.823 0 1.548-.15 2.174-.45.634-.3 1.209-.78 1.723-1.44l.965.732c-1.132 1.638-2.774 2.457-4.926 2.457Zm-.283-13.12c-1.158 0-2.135.425-2.933 1.274-.789.849-1.269 1.99-1.44 3.421h8.347v-.167c-.043-1.337-.424-2.426-1.145-3.267-.72-.84-1.663-1.26-2.829-1.26Zm23.692 12.863c-.155-.438-.253-1.085-.296-1.942a5.414 5.414 0 0 1-2.071 1.633 6.341 6.341 0 0 1-2.649.566c-1.338 0-2.423-.373-3.255-1.119-.823-.746-1.234-1.69-1.234-2.83 0-1.355.561-2.426 1.685-3.215 1.131-.789 2.705-1.183 4.72-1.183h2.791v-1.582c0-.995-.309-1.775-.926-2.341-.609-.575-1.501-.862-2.675-.862-1.072 0-1.96.274-2.663.823-.703.549-1.054 1.21-1.054 1.98l-1.544-.012c0-1.106.515-2.062 1.544-2.868 1.028-.815 2.293-1.222 3.794-1.222 1.552 0 2.774.39 3.665 1.17.901.772 1.364 1.852 1.39 3.241v6.586c0 1.346.141 2.354.424 3.022v.155h-1.646Zm-4.836-1.106c1.029 0 1.946-.25 2.752-.746.815-.498 1.406-1.162 1.775-1.994v-3.061h-2.752c-1.535.017-2.736.3-3.602.849-.866.54-1.299 1.286-1.299 2.238 0 .78.287 1.427.862 1.942.583.514 1.338.772 2.264.772Zm11.897 1.106h-1.543V39.088h1.543v19.756Zm7.524-3.203.232 1.196.308-1.26 3.345-10.65h1.312l3.305 10.56.36 1.466.296-1.35 2.855-10.676h1.595l-4.051 13.917h-1.312l-3.576-11.036-.167-.759-.167.772-3.512 11.023h-1.312l-4.038-13.917h1.582l2.945 10.714Zm25.313 3.203c-.155-.438-.253-1.085-.296-1.942a5.414 5.414 0 0 1-2.071 1.633 6.341 6.341 0 0 1-2.649.566c-1.338 0-2.423-.373-3.255-1.119-.823-.746-1.234-1.69-1.234-2.83 0-1.355.561-2.426 1.685-3.215 1.131-.789 2.705-1.183 4.72-1.183h2.791v-1.582c0-.995-.309-1.775-.926-2.341-.609-.575-1.501-.862-2.675-.862-1.072 0-1.96.274-2.663.823-.703.549-1.054 1.21-1.054 1.98l-1.544-.012c0-1.106.515-2.062 1.544-2.868 1.028-.815 2.293-1.222 3.794-1.222 1.552 0 2.774.39 3.665 1.17.901.772 1.364 1.852 1.39 3.241v6.586c0 1.346.141 2.354.424 3.022v.155h-1.646Zm-4.836-1.106c1.029 0 1.946-.25 2.752-.746.815-.498 1.406-1.162 1.775-1.994v-3.061H228.8c-1.535.017-2.736.3-3.602.849-.866.54-1.299 1.286-1.299 2.238 0 .78.287 1.427.862 1.942.583.514 1.338.772 2.264.772Zm14.379-1.106 4.065-11.705h1.659l-5.942 16.283-.309.72c-.763 1.69-1.942 2.535-3.537 2.535-.369 0-.763-.06-1.183-.18l-.013-1.274.797.077c.755 0 1.364-.188 1.827-.566.471-.368.87-1.007 1.196-1.916l.681-1.878-5.247-13.801h1.685l4.321 11.705Zm16.451-1.325c0-.764-.309-1.377-.926-1.84-.609-.463-1.531-.823-2.766-1.08-1.234-.266-2.195-.566-2.881-.9-.677-.343-1.183-.76-1.517-1.248-.326-.489-.489-1.08-.489-1.775 0-1.097.459-2.002 1.376-2.714.918-.72 2.092-1.08 3.524-1.08 1.552 0 2.796.386 3.73 1.157.944.764 1.415 1.763 1.415 2.997h-1.543c0-.814-.343-1.492-1.029-2.032-.678-.54-1.535-.81-2.573-.81-1.011 0-1.826.227-2.443.681-.609.446-.914 1.03-.914 1.75 0 .694.253 1.234.759 1.62.515.377 1.445.725 2.791 1.042 1.355.317 2.367.656 3.036 1.016.677.36 1.179.793 1.505 1.3.325.505.488 1.118.488 1.839 0 1.174-.476 2.113-1.427 2.816-.944.703-2.178 1.055-3.705 1.055-1.62 0-2.936-.39-3.948-1.17-1.004-.79-1.505-1.784-1.505-2.984h1.543c.06.9.438 1.603 1.132 2.109.703.497 1.629.746 2.778.746 1.072 0 1.938-.236 2.598-.708.661-.471.991-1.067.991-1.787Zm10.804-3.55c0-2.178.48-3.902 1.441-5.17.968-1.278 2.28-1.917 3.935-1.917 1.895 0 3.336.754 4.322 2.264l.077-2.007h1.441v13.634c0 1.792-.502 3.211-1.505 4.257-1.003 1.046-2.363 1.57-4.077 1.57a6.189 6.189 0 0 1-2.779-.657c-.874-.428-1.565-1.003-2.07-1.723l.861-.926c1.089 1.337 2.384 2.006 3.885 2.006 1.286 0 2.289-.381 3.009-1.145.721-.754 1.094-1.804 1.119-3.15v-1.75c-.986 1.372-2.422 2.058-4.308 2.058-1.612 0-2.907-.643-3.885-1.93-.977-1.285-1.466-3.022-1.466-5.208v-.206Zm1.556.27c0 1.775.356 3.177 1.068 4.206.712 1.02 1.715 1.53 3.01 1.53 1.895 0 3.236-.849 4.025-2.546v-6.47c-.36-.892-.879-1.57-1.556-2.032-.677-.472-1.492-.708-2.444-.708-1.295 0-2.302.51-3.022 1.531-.721 1.012-1.081 2.508-1.081 4.489Zm19.062 7.074c-1.184 0-2.255-.291-3.216-.875-.951-.583-1.693-1.393-2.225-2.43-.531-1.047-.797-2.217-.797-3.512v-.553c0-1.338.257-2.542.771-3.614.523-1.072 1.248-1.912 2.174-2.521a5.32 5.32 0 0 1 3.01-.926c1.689 0 3.027.579 4.013 1.736.994 1.15 1.492 2.723 1.492 4.72v.862h-9.93v.296c0 1.578.45 2.894 1.351 3.949.909 1.046 2.049 1.569 3.421 1.569.823 0 1.548-.15 2.174-.45.634-.3 1.209-.78 1.723-1.44l.965.732c-1.132 1.638-2.774 2.457-4.926 2.457Zm-.283-13.12c-1.158 0-2.135.425-2.933 1.274-.789.849-1.269 1.99-1.44 3.421h8.347v-.167c-.043-1.337-.424-2.426-1.145-3.267-.72-.84-1.663-1.26-2.829-1.26Zm10.894-4.617v3.563h2.881v1.26h-2.881v9.274c0 .772.137 1.346.412 1.724.283.377.75.566 1.402.566.257 0 .673-.043 1.247-.13l.064 1.261c-.403.146-.951.219-1.646.219-1.055 0-1.822-.304-2.302-.913-.48-.618-.72-1.522-.72-2.714v-9.286h-2.56v-1.261h2.56v-3.563h1.543Zm8.463 0v3.563h2.881v1.26h-2.881v9.274c0 .772.137 1.346.412 1.724.283.377.75.566 1.402.566.257 0 .673-.043 1.247-.13l.065 1.261c-.403.146-.952.219-1.647.219-1.054 0-1.822-.304-2.302-.913-.48-.618-.72-1.522-.72-2.714v-9.286h-2.56v-1.261h2.56v-3.563h1.543Zm7.795 17.48h-1.544V44.927h1.544v13.917ZM314.332 40.9c0-.291.094-.536.283-.733.189-.206.446-.309.772-.309s.583.103.771.31a.993.993 0 0 1 .296.732.993.993 0 0 1-.296.733c-.188.198-.445.296-.771.296s-.583-.098-.772-.296a1.018 1.018 0 0 1-.283-.733Zm7.473 4.026.051 2.38c.523-.858 1.175-1.51 1.955-1.956a5.046 5.046 0 0 1 2.586-.681c1.492 0 2.602.42 3.331 1.26.729.84 1.097 2.101 1.106 3.782v9.132h-1.531v-9.145c-.008-1.243-.274-2.17-.797-2.778-.515-.61-1.342-.914-2.482-.914a3.9 3.9 0 0 0-2.534.9c-.729.592-1.269 1.394-1.621 2.406v9.53h-1.53V44.928h1.466Zm12.399 6.83c0-2.178.48-3.902 1.44-5.17.969-1.278 2.281-1.917 3.936-1.917 1.895 0 3.336.754 4.322 2.264l.077-2.007h1.441v13.634c0 1.792-.502 3.211-1.505 4.257-1.004 1.046-2.363 1.57-4.078 1.57a6.182 6.182 0 0 1-2.778-.657c-.874-.428-1.565-1.003-2.071-1.723l.862-.926c1.089 1.337 2.384 2.006 3.885 2.006 1.286 0 2.289-.381 3.009-1.145.721-.754 1.094-1.804 1.119-3.15v-1.75c-.986 1.372-2.422 2.058-4.309 2.058-1.612 0-2.906-.643-3.884-1.93-.977-1.285-1.466-3.022-1.466-5.208v-.206Zm1.556.27c0 1.775.356 3.177 1.068 4.206.711 1.02 1.715 1.53 3.009 1.53 1.895 0 3.237-.849 4.026-2.546v-6.47c-.36-.892-.879-1.57-1.556-2.032-.677-.472-1.492-.708-2.444-.708-1.295 0-2.302.51-3.022 1.531-.721 1.012-1.081 2.508-1.081 4.489Zm19.229-.347c0-1.338.257-2.543.772-3.615.523-1.072 1.256-1.903 2.199-2.495.952-.6 2.028-.9 3.228-.9 1.853 0 3.353.651 4.502 1.955 1.149 1.295 1.724 3.014 1.724 5.157v.322c0 1.346-.262 2.56-.785 3.64-.514 1.072-1.243 1.9-2.187 2.482-.943.584-2.019.875-3.228.875-1.843 0-3.344-.647-4.502-1.942-1.149-1.303-1.723-3.027-1.723-5.17v-.31Zm1.543.424c0 1.663.429 3.031 1.287 4.103.866 1.063 1.997 1.595 3.395 1.595 1.389 0 2.512-.532 3.37-1.595.866-1.072 1.299-2.482 1.299-4.232v-.295c0-1.064-.197-2.037-.592-2.92-.394-.883-.947-1.565-1.659-2.045-.712-.489-1.526-.733-2.444-.733-1.372 0-2.491.54-3.357 1.62-.866 1.072-1.299 2.478-1.299 4.22v.282Zm23.023 4.978c-.926 1.346-2.405 2.019-4.437 2.019-1.483 0-2.611-.429-3.383-1.286-.771-.866-1.166-2.144-1.183-3.833v-9.055h1.531v8.862c0 2.65 1.071 3.974 3.215 3.974 2.229 0 3.64-.921 4.232-2.765V44.927h1.543v13.917h-1.492l-.026-1.762Zm11.962-10.843a5.743 5.743 0 0 0-1.042-.09c-.96 0-1.775.27-2.444.81-.66.532-1.131 1.308-1.414 2.328v9.557h-1.531V44.927h1.505l.026 2.212c.814-1.646 2.122-2.47 3.923-2.47.428 0 .767.056 1.016.168l-.039 1.402Zm10.315-1.312.052 2.38c.523-.858 1.175-1.51 1.955-1.956a5.042 5.042 0 0 1 2.585-.681c1.492 0 2.603.42 3.331 1.26.729.84 1.098 2.101 1.107 3.782v9.132h-1.531v-9.145c-.009-1.243-.274-2.17-.797-2.778-.515-.61-1.342-.914-2.483-.914-.952 0-1.796.3-2.534.9-.729.592-1.269 1.394-1.62 2.406v9.53h-1.531V44.928h1.466Zm18.406 14.174c-1.183 0-2.255-.291-3.216-.875-.951-.583-1.693-1.393-2.225-2.43-.531-1.047-.797-2.217-.797-3.512v-.553c0-1.338.257-2.542.772-3.614.523-1.072 1.247-1.912 2.173-2.521a5.322 5.322 0 0 1 3.01-.926c1.689 0 3.027.579 4.013 1.736.995 1.15 1.492 2.723 1.492 4.72v.862h-9.93v.296c0 1.578.451 2.894 1.351 3.949.909 1.046 2.049 1.569 3.421 1.569.823 0 1.548-.15 2.174-.45.634-.3 1.209-.78 1.723-1.44l.965.732c-1.132 1.638-2.774 2.457-4.926 2.457Zm-.283-13.12c-1.158 0-2.135.425-2.933 1.274-.788.849-1.269 1.99-1.44 3.421h8.347v-.167c-.043-1.337-.424-2.426-1.144-3.267-.721-.84-1.664-1.26-2.83-1.26Zm11.833 9.66.232 1.196.308-1.26 3.344-10.65h1.312l3.306 10.56.36 1.466.296-1.35 2.855-10.676h1.595l-4.051 13.917h-1.312l-3.576-11.036-.167-.759-.167.772-3.512 11.023h-1.312l-4.038-13.917h1.582l2.945 10.714Z" fill="#000"/><path d="M218.886 107.347h-11.858l-2.481 7.128h-5.53l11.564-30.612h4.772l11.585 30.612h-5.551l-2.501-7.128Zm-10.365-4.289h8.872l-4.436-12.699-4.436 12.699Zm30.758 7.758c1.276 0 2.334-.371 3.175-1.114.841-.743 1.29-1.661 1.346-2.754h4.814c-.056 1.415-.497 2.74-1.324 3.973-.827 1.22-1.949 2.187-3.364 2.902-1.416.715-2.944 1.072-4.584 1.072-3.181 0-5.704-1.03-7.568-3.09-1.865-2.061-2.797-4.906-2.797-8.536v-.526c0-3.462.925-6.23 2.776-8.305 1.85-2.088 4.373-3.132 7.568-3.132 2.706 0 4.906.792 6.602 2.375 1.71 1.57 2.607 3.638 2.691 6.203H243.8c-.056-1.304-.505-2.376-1.346-3.217-.827-.841-1.885-1.262-3.175-1.262-1.654 0-2.929.603-3.826 1.808-.897 1.192-1.353 3.007-1.367 5.446v.82c0 2.467.442 4.31 1.325 5.529.897 1.206 2.186 1.808 3.868 1.808Zm19.595-24.62v5.53h4.016v3.784h-4.016v12.699c0 .869.168 1.5.505 1.893.35.378.967.567 1.85.567.589 0 1.184-.07 1.787-.21v3.953c-1.163.322-2.285.483-3.364.483-3.925 0-5.887-2.165-5.887-6.496V95.51h-3.742v-3.784h3.742v-5.53h5.109Zm13.372 28.279h-5.109V91.726h5.109v22.749Zm-5.425-28.657c0-.785.246-1.436.736-1.955.505-.519 1.22-.778 2.145-.778s1.64.26 2.144.778c.505.519.757 1.17.757 1.955 0 .771-.252 1.416-.757 1.934-.504.505-1.219.757-2.144.757s-1.64-.252-2.145-.757c-.49-.518-.736-1.163-.736-1.934ZM285.849 108l4.814-16.273h5.277l-7.884 22.749h-4.436l-7.947-22.749h5.298L285.849 108Zm23.021 6.896c-3.237 0-5.866-1.016-7.884-3.048-2.004-2.047-3.006-4.766-3.006-8.158v-.631c0-2.27.434-4.296 1.303-6.076.883-1.794 2.117-3.189 3.7-4.184 1.584-.995 3.35-1.492 5.299-1.492 3.097 0 5.487.988 7.169 2.964 1.696 1.976 2.544 4.773 2.544 8.389v2.06h-14.864c.154 1.878.778 3.364 1.871 4.457 1.107 1.094 2.495 1.64 4.163 1.64 2.34 0 4.247-.946 5.718-2.838l2.754 2.628c-.911 1.36-2.13 2.418-3.658 3.175-1.514.743-3.217 1.114-5.109 1.114Zm-.609-19.49c-1.402 0-2.537.491-3.406 1.472-.855.981-1.402 2.348-1.64 4.1h9.734v-.379c-.112-1.71-.568-2.999-1.367-3.868-.798-.883-1.906-1.325-3.321-1.325Zm19.153 19.07h-5.109V82.181h5.109v32.294Zm13.54-7.317 4.625-15.432h5.445l-9.04 26.197c-1.388 3.826-3.743 5.739-7.064 5.739-.743 0-1.563-.126-2.46-.378v-3.953l.967.063c1.289 0 2.256-.238 2.901-.714.659-.463 1.178-1.248 1.556-2.355l.736-1.956-7.989-22.643h5.508l4.815 15.432Zm-164.012 57.317v-30.612h9.04c2.705 0 5.102.603 7.191 1.808 2.102 1.205 3.728 2.915 4.877 5.13 1.15 2.215 1.724 4.752 1.724 7.611v1.535c0 2.901-.581 5.452-1.745 7.653-1.149 2.2-2.796 3.896-4.94 5.088-2.131 1.191-4.577 1.787-7.338 1.787h-8.809Zm5.319-26.323v22.076h3.469c2.789 0 4.927-.869 6.412-2.607 1.5-1.752 2.264-4.261 2.292-7.527v-1.703c0-3.322-.722-5.859-2.165-7.611-1.444-1.752-3.54-2.628-6.287-2.628h-3.721Zm32.336 26.743c-3.238 0-5.866-1.016-7.885-3.048-2.004-2.047-3.006-4.766-3.006-8.158v-.631c0-2.27.434-4.296 1.303-6.076.883-1.794 2.117-3.188 3.701-4.184 1.584-.995 3.35-1.492 5.298-1.492 3.097 0 5.487.988 7.169 2.964 1.696 1.976 2.544 4.773 2.544 8.389v2.06h-14.864c.154 1.878.778 3.364 1.871 4.457 1.107 1.094 2.495 1.64 4.163 1.64 2.341 0 4.247-.946 5.719-2.838l2.754 2.628c-.911 1.36-2.131 2.418-3.658 3.175-1.514.743-3.217 1.114-5.109 1.114Zm-.61-19.49c-1.402 0-2.537.491-3.406 1.472-.855.981-1.402 2.348-1.64 4.1h9.734v-.379c-.112-1.71-.567-2.999-1.366-3.868-.799-.883-1.906-1.325-3.322-1.325Zm21.445 12.594 4.814-16.273h5.278l-7.885 22.749h-4.436l-7.947-22.749h5.298l4.878 16.273Zm23.022 6.896c-3.238 0-5.866-1.016-7.885-3.048-2.004-2.047-3.006-4.766-3.006-8.158v-.631c0-2.27.434-4.296 1.303-6.076.883-1.794 2.117-3.188 3.701-4.184 1.584-.995 3.35-1.492 5.298-1.492 3.098 0 5.487.988 7.169 2.964 1.696 1.976 2.544 4.773 2.544 8.389v2.06h-14.864c.154 1.878.778 3.364 1.871 4.457 1.107 1.094 2.495 1.64 4.163 1.64 2.341 0 4.247-.946 5.719-2.838l2.754 2.628c-.911 1.36-2.131 2.418-3.658 3.175-1.514.743-3.217 1.114-5.109 1.114Zm-.61-19.49c-1.402 0-2.537.491-3.406 1.472-.855.981-1.402 2.348-1.64 4.1h9.734v-.379c-.112-1.71-.567-2.999-1.366-3.868-.799-.883-1.906-1.325-3.322-1.325Zm19.153 19.07h-5.109v-32.294h5.109v32.294Zm4.626-11.585c0-2.228.441-4.233 1.324-6.013.883-1.794 2.124-3.168 3.721-4.121 1.598-.967 3.434-1.45 5.509-1.45 3.069 0 5.557.988 7.464 2.964 1.92 1.976 2.957 4.597 3.111 7.863l.021 1.199c0 2.242-.434 4.247-1.303 6.013-.855 1.766-2.089 3.132-3.701 4.099-1.597.968-3.448 1.451-5.55 1.451-3.21 0-5.782-1.065-7.716-3.196-1.92-2.144-2.88-4.996-2.88-8.557v-.252Zm5.109.442c0 2.34.483 4.177 1.45 5.508.967 1.318 2.313 1.976 4.037 1.976 1.724 0 3.062-.672 4.016-2.018.967-1.346 1.45-3.315 1.45-5.908 0-2.299-.497-4.121-1.492-5.466-.982-1.346-2.32-2.019-4.016-2.019-1.668 0-2.993.666-3.974 1.998-.981 1.317-1.471 3.294-1.471 5.929Zm40.282 0c0 3.518-.799 6.328-2.396 8.43-1.598 2.089-3.743 3.133-6.434 3.133-2.495 0-4.492-.82-5.992-2.46v10.786h-5.109v-31.495h4.71l.21 2.313c1.5-1.822 3.539-2.733 6.118-2.733 2.775 0 4.948 1.037 6.518 3.111 1.583 2.061 2.375 4.927 2.375 8.599v.316Zm-5.088-.442c0-2.271-.455-4.072-1.366-5.403-.897-1.332-2.187-1.997-3.869-1.997-2.088 0-3.588.862-4.499 2.586v10.091c.925 1.766 2.439 2.649 4.541 2.649 1.626 0 2.895-.651 3.806-1.955.925-1.317 1.387-3.308 1.387-5.971Zm19.448 12.005c-3.238 0-5.866-1.016-7.884-3.048-2.004-2.047-3.007-4.766-3.007-8.158v-.631c0-2.27.435-4.296 1.304-6.076.883-1.794 2.116-3.188 3.7-4.184 1.584-.995 3.35-1.492 5.298-1.492 3.098 0 5.488.988 7.17 2.964 1.696 1.976 2.544 4.773 2.544 8.389v2.06h-14.865c.155 1.878.778 3.364 1.872 4.457 1.107 1.094 2.495 1.64 4.162 1.64 2.341 0 4.247-.946 5.719-2.838l2.754 2.628c-.911 1.36-2.13 2.418-3.658 3.175-1.514.743-3.217 1.114-5.109 1.114Zm-.61-19.49c-1.401 0-2.537.491-3.406 1.472-.855.981-1.401 2.348-1.639 4.1h9.734v-.379c-.112-1.71-.568-2.999-1.367-3.868-.799-.883-1.906-1.325-3.322-1.325Zm12.762 7.527c0-3.504.813-6.314 2.439-8.431 1.626-2.13 3.806-3.195 6.539-3.195 2.411 0 4.359.841 5.845 2.523v-11.648h5.108v32.294h-4.625l-.252-2.355c-1.528 1.85-3.567 2.775-6.118 2.775-2.663 0-4.822-1.072-6.476-3.217-1.64-2.144-2.46-5.06-2.46-8.746Zm5.109.442c0 2.312.442 4.12 1.325 5.424.897 1.29 2.165 1.934 3.805 1.934 2.089 0 3.616-.932 4.584-2.796v-9.713c-.94-1.822-2.453-2.733-4.542-2.733-1.654 0-2.929.658-3.826 1.976-.897 1.303-1.346 3.273-1.346 5.908Z" fill="url(#f)"/><path d="M149.827 208.281v-12.656h-2.303v-1.26h2.303v-1.685c0-1.424.36-2.517 1.08-3.28.729-.763 1.741-1.145 3.036-1.145.583 0 1.127.073 1.633.219l-.116 1.286a5.993 5.993 0 0 0-1.402-.154c-.849 0-1.509.265-1.98.797-.472.523-.708 1.269-.708 2.238v1.724h3.319v1.26h-3.319v12.656h-1.543Zm12.695.257c-1.184 0-2.256-.291-3.216-.874-.952-.583-1.693-1.394-2.225-2.431-.532-1.046-.798-2.217-.798-3.511v-.553c0-1.338.258-2.543.772-3.615.523-1.072 1.248-1.912 2.174-2.521a5.322 5.322 0 0 1 3.01-.926c1.689 0 3.026.579 4.012 1.737.995 1.149 1.492 2.722 1.492 4.72v.862h-9.929v.296c0 1.577.45 2.894 1.351 3.948.908 1.046 2.049 1.569 3.421 1.569.823 0 1.548-.15 2.174-.45.634-.3 1.209-.78 1.723-1.44l.965.733c-1.132 1.638-2.774 2.456-4.926 2.456Zm-.283-13.119c-1.158 0-2.136.425-2.933 1.274-.789.848-1.269 1.989-1.441 3.421h8.348v-.167c-.043-1.338-.425-2.427-1.145-3.267-.72-.841-1.663-1.261-2.829-1.261Zm17.286 12.862c-.154-.437-.253-1.084-.296-1.942a5.41 5.41 0 0 1-2.071 1.634 6.337 6.337 0 0 1-2.649.565c-1.338 0-2.422-.373-3.254-1.119-.823-.746-1.235-1.689-1.235-2.829 0-1.355.562-2.427 1.685-3.216 1.132-.789 2.705-1.183 4.72-1.183h2.791v-1.582c0-.995-.308-1.775-.926-2.341-.608-.574-1.5-.862-2.675-.862-1.072 0-1.959.275-2.662.824-.704.548-1.055 1.209-1.055 1.98l-1.544-.013c0-1.106.515-2.062 1.544-2.868 1.029-.814 2.294-1.222 3.794-1.222 1.552 0 2.774.39 3.666 1.171.9.771 1.363 1.852 1.389 3.241v6.585c0 1.347.141 2.354.424 3.023v.154h-1.646Zm-4.836-1.106c1.029 0 1.946-.249 2.752-.746.815-.497 1.407-1.162 1.775-1.993v-3.062h-2.752c-1.535.017-2.735.3-3.601.849-.866.54-1.299 1.286-1.299 2.238 0 .781.287 1.428.861 1.942.583.515 1.338.772 2.264.772Zm12.566-16.373v3.563h2.881v1.26h-2.881v9.274c0 .771.137 1.346.412 1.723.283.377.75.566 1.402.566.257 0 .673-.043 1.247-.129l.065 1.261c-.403.146-.952.218-1.647.218-1.054 0-1.822-.304-2.302-.913-.48-.617-.72-1.522-.72-2.714v-9.286h-2.56v-1.26h2.56v-3.563h1.543Zm15.023 15.717c-.926 1.346-2.405 2.019-4.437 2.019-1.484 0-2.611-.428-3.383-1.286-.772-.866-1.166-2.143-1.183-3.833v-9.054h1.53v8.861c0 2.65 1.072 3.975 3.216 3.975 2.229 0 3.64-.922 4.231-2.765v-10.071h1.544v13.916h-1.492l-.026-1.762Zm11.962-10.843a5.752 5.752 0 0 0-1.042-.09c-.96 0-1.775.271-2.444.811-.66.531-1.132 1.307-1.415 2.328v9.556h-1.53v-13.916h1.505l.025 2.212c.815-1.647 2.123-2.47 3.923-2.47.429 0 .768.056 1.016.168l-.038 1.401Zm7.575 12.862c-1.183 0-2.255-.291-3.215-.874-.952-.583-1.694-1.394-2.225-2.431-.532-1.046-.798-2.217-.798-3.511v-.553c0-1.338.258-2.543.772-3.615.523-1.072 1.248-1.912 2.174-2.521a5.322 5.322 0 0 1 3.01-.926c1.689 0 3.026.579 4.012 1.737.995 1.149 1.492 2.722 1.492 4.72v.862h-9.929v.296c0 1.577.45 2.894 1.35 3.948.909 1.046 2.05 1.569 3.422 1.569.823 0 1.548-.15 2.173-.45.635-.3 1.209-.78 1.724-1.44l.965.733c-1.132 1.638-2.774 2.456-4.927 2.456Zm-.282-13.119c-1.158 0-2.136.425-2.933 1.274-.789.848-1.269 1.989-1.441 3.421h8.348v-.167c-.043-1.338-.425-2.427-1.145-3.267-.72-.841-1.663-1.261-2.829-1.261Zm16.836 9.325c0-.763-.309-1.376-.926-1.839-.609-.463-1.531-.823-2.766-1.08-1.234-.266-2.195-.566-2.881-.901-.677-.343-1.183-.759-1.517-1.247-.326-.489-.489-1.081-.489-1.775 0-1.098.459-2.003 1.376-2.714.918-.721 2.092-1.081 3.524-1.081 1.552 0 2.796.386 3.73 1.158.944.763 1.415 1.762 1.415 2.997h-1.543c0-.815-.343-1.492-1.029-2.032-.678-.541-1.535-.811-2.573-.811-1.011 0-1.826.227-2.443.682-.609.446-.914 1.029-.914 1.749 0 .695.253 1.235.759 1.621.515.377 1.445.724 2.791 1.042 1.355.317 2.367.656 3.036 1.016.677.36 1.179.793 1.505 1.299.325.506.488 1.119.488 1.839 0 1.175-.476 2.114-1.427 2.817-.944.703-2.178 1.054-3.705 1.054-1.62 0-2.936-.39-3.948-1.17-1.003-.789-1.505-1.783-1.505-2.984h1.543c.06.9.438 1.604 1.132 2.109.703.498 1.629.746 2.778.746 1.072 0 1.938-.235 2.599-.707.66-.472.99-1.068.99-1.788Zm20.206 3.537c-.154-.437-.253-1.084-.296-1.942a5.414 5.414 0 0 1-2.07 1.634 6.345 6.345 0 0 1-2.65.565c-1.338 0-2.422-.373-3.254-1.119-.823-.746-1.235-1.689-1.235-2.829 0-1.355.562-2.427 1.685-3.216 1.132-.789 2.705-1.183 4.72-1.183h2.791v-1.582c0-.995-.308-1.775-.926-2.341-.608-.574-1.5-.862-2.675-.862-1.072 0-1.959.275-2.662.824-.703.548-1.055 1.209-1.055 1.98l-1.543-.013c0-1.106.514-2.062 1.543-2.868 1.029-.814 2.294-1.222 3.794-1.222 1.552 0 2.774.39 3.666 1.171.9.771 1.363 1.852 1.389 3.241v6.585c0 1.347.142 2.354.424 3.023v.154h-1.646Zm-4.836-1.106c1.029 0 1.946-.249 2.752-.746.815-.497 1.407-1.162 1.775-1.993v-3.062h-2.752c-1.535.017-2.735.3-3.601.849-.866.54-1.299 1.286-1.299 2.238 0 .781.287 1.428.861 1.942.583.515 1.338.772 2.264.772Zm19.126-.656c-.926 1.346-2.405 2.019-4.438 2.019-1.483 0-2.611-.428-3.382-1.286-.772-.866-1.166-2.143-1.184-3.833v-9.054h1.531v8.861c0 2.65 1.072 3.975 3.216 3.975 2.229 0 3.639-.922 4.231-2.765v-10.071h1.544v13.916h-1.492l-.026-1.762Zm7.923-15.717v3.563h2.881v1.26h-2.881v9.274c0 .771.137 1.346.411 1.723.283.377.751.566 1.402.566.258 0 .674-.043 1.248-.129l.064 1.261c-.403.146-.951.218-1.646.218-1.055 0-1.822-.304-2.302-.913-.481-.617-.721-1.522-.721-2.714v-9.286h-2.559v-1.26h2.559v-3.563h1.544Zm4.965 10.315c0-1.338.257-2.542.771-3.614.523-1.072 1.256-1.904 2.2-2.495.952-.601 2.028-.901 3.228-.901 1.852 0 3.353.652 4.502 1.955 1.149 1.295 1.723 3.014 1.723 5.158v.322c0 1.346-.261 2.559-.784 3.64-.515 1.071-1.244 1.899-2.187 2.482-.943.583-2.019.874-3.228.874-1.844 0-3.344-.647-4.502-1.942-1.149-1.303-1.723-3.027-1.723-5.17v-.309Zm1.543.425c0 1.663.429 3.031 1.286 4.103.866 1.063 1.998 1.594 3.396 1.594 1.389 0 2.512-.531 3.37-1.594.866-1.072 1.299-2.483 1.299-4.232v-.296c0-1.063-.197-2.036-.592-2.92-.394-.883-.947-1.564-1.659-2.045-.712-.488-1.526-.733-2.444-.733-1.372 0-2.491.54-3.357 1.621-.866 1.072-1.299 2.478-1.299 4.219v.283Zm15.473-7.177.051 2.263c.515-.84 1.158-1.47 1.93-1.89.772-.421 1.629-.631 2.572-.631 2.195 0 3.589.901 4.18 2.701.498-.866 1.162-1.53 1.994-1.993a5.48 5.48 0 0 1 2.752-.708c2.984 0 4.506 1.629 4.566 4.888v9.286h-1.543v-9.17c-.009-1.244-.279-2.165-.81-2.766-.523-.6-1.381-.9-2.573-.9-1.106.017-2.04.377-2.804 1.08-.763.695-1.187 1.544-1.273 2.547v9.209h-1.543v-9.286c-.009-1.192-.292-2.079-.849-2.663-.549-.591-1.398-.887-2.547-.887-.969 0-1.801.279-2.495.836-.695.549-1.209 1.368-1.544 2.457v9.543h-1.543v-13.916h1.479Zm30.74 13.916c-.154-.437-.253-1.084-.296-1.942a5.414 5.414 0 0 1-2.07 1.634 6.345 6.345 0 0 1-2.65.565c-1.338 0-2.422-.373-3.254-1.119-.823-.746-1.235-1.689-1.235-2.829 0-1.355.562-2.427 1.685-3.216 1.132-.789 2.705-1.183 4.721-1.183h2.791v-1.582c0-.995-.309-1.775-.926-2.341-.609-.574-1.501-.862-2.676-.862-1.072 0-1.959.275-2.662.824-.703.548-1.055 1.209-1.055 1.98l-1.543-.013c0-1.106.514-2.062 1.543-2.868 1.029-.814 2.294-1.222 3.794-1.222 1.552 0 2.774.39 3.666 1.171.9.771 1.363 1.852 1.389 3.241v6.585c0 1.347.142 2.354.425 3.023v.154h-1.647Zm-4.836-1.106c1.029 0 1.947-.249 2.753-.746.814-.497 1.406-1.162 1.775-1.993v-3.062h-2.753c-1.535.017-2.735.3-3.601.849-.866.54-1.299 1.286-1.299 2.238 0 .781.287 1.428.861 1.942.584.515 1.338.772 2.264.772Zm12.566-16.373v3.563h2.881v1.26h-2.881v9.274c0 .771.138 1.346.412 1.723.283.377.75.566 1.402.566.257 0 .673-.043 1.248-.129l.064 1.261c-.403.146-.952.218-1.646.218-1.055 0-1.823-.304-2.303-.913-.48-.617-.72-1.522-.72-2.714v-9.286h-2.56v-1.26h2.56v-3.563h1.543Zm7.795 17.479h-1.544v-13.916h1.544v13.916Zm-1.814-17.942c0-.292.095-.536.283-.733.189-.206.446-.309.772-.309s.583.103.772.309a.994.994 0 0 1 .295.733.996.996 0 0 1-.295.733c-.189.197-.446.296-.772.296s-.583-.099-.772-.296a1.022 1.022 0 0 1-.283-.733Zm11.152 16.9c1.071 0 1.967-.3 2.688-.9.729-.609 1.123-1.393 1.183-2.354h1.479a4.389 4.389 0 0 1-.797 2.328c-.489.695-1.141 1.239-1.955 1.634a5.837 5.837 0 0 1-2.598.591c-1.827 0-3.276-.634-4.348-1.903-1.063-1.269-1.595-2.976-1.595-5.119v-.463c0-1.372.24-2.585.721-3.64.48-1.055 1.166-1.869 2.058-2.444.9-.574 1.95-.862 3.151-.862 1.526 0 2.782.455 3.768 1.364.995.909 1.527 2.105 1.595 3.588h-1.479c-.069-1.089-.463-1.968-1.183-2.637-.712-.668-1.612-1.003-2.701-1.003-1.389 0-2.47.502-3.241 1.505-.764 1.003-1.145 2.41-1.145 4.219v.45c0 1.775.381 3.16 1.145 4.154.771.995 1.856 1.492 3.254 1.492Zm17.222 1.042c-.154-.437-.253-1.084-.296-1.942a5.41 5.41 0 0 1-2.071 1.634 6.344 6.344 0 0 1-2.649.565c-1.338 0-2.423-.373-3.254-1.119-.824-.746-1.235-1.689-1.235-2.829 0-1.355.561-2.427 1.685-3.216 1.132-.789 2.705-1.183 4.72-1.183h2.791v-1.582c0-.995-.309-1.775-.926-2.341-.609-.574-1.5-.862-2.675-.862-1.072 0-1.96.275-2.663.824-.703.548-1.054 1.209-1.054 1.98l-1.544-.013c0-1.106.515-2.062 1.544-2.868 1.029-.814 2.293-1.222 3.794-1.222 1.552 0 2.774.39 3.666 1.171.9.771 1.363 1.852 1.389 3.241v6.585c0 1.347.141 2.354.424 3.023v.154h-1.646Zm-4.836-1.106c1.029 0 1.946-.249 2.752-.746.815-.497 1.406-1.162 1.775-1.993v-3.062h-2.752c-1.535.017-2.736.3-3.602.849-.866.54-1.299 1.286-1.299 2.238 0 .781.288 1.428.862 1.942.583.515 1.338.772 2.264.772Zm11.897 1.106h-1.543v-19.756h1.543v19.756Zm5.917 0h-1.544v-19.756h1.544v19.756Zm8.604-2.212 4.065-11.704h1.659l-5.942 16.283-.309.72c-.763 1.689-1.942 2.534-3.537 2.534-.369 0-.763-.06-1.183-.18l-.013-1.273.797.077c.755 0 1.364-.189 1.827-.566.471-.369.87-1.008 1.196-1.917l.681-1.878-5.247-13.8h1.685l4.321 11.704Z" fill="#000"/><defs><linearGradient id="b" x1="25" y1="25" x2="512.876" y2="251.156" gradientUnits="userSpaceOnUse"><stop stop-color="#fff" stop-opacity=".9"/><stop offset="1" stop-color="#fff" stop-opacity=".7"/></linearGradient><linearGradient id="c" x1="275" y1="-2.451" x2="275" y2="252.206" gradientUnits="userSpaceOnUse"><stop stop-color="#775EBF"/><stop offset="1" stop-color="#8D58B3"/></linearGradient><linearGradient id="d" x1="275" y1="-2.451" x2="275" y2="252.206" gradientUnits="userSpaceOnUse"><stop stop-color="#775EBF"/><stop offset="1" stop-color="#8D58B3"/></linearGradient><linearGradient id="e" x1="275" y1="-2.451" x2="275" y2="252.206" gradientUnits="userSpaceOnUse"><stop stop-color="#775EBF"/><stop offset="1" stop-color="#8D58B3"/></linearGradient><linearGradient id="f" x1="216.618" y1="74.475" x2="319.577" y2="175.281" gradientUnits="userSpaceOnUse"><stop stop-color="#8D58B3"/><stop offset="1" stop-color="#775EBF"/></linearGradient><filter id="a" x=".016" y=".016" width="549.968" height="249.968" filterUnits="userSpaceOnUse" color-interpolation-filters="sRGB"><feFlood flood-opacity="0" result="BackgroundImageFix"/><feGaussianBlur in="BackgroundImage" stdDeviation="11.651"/><feComposite in2="SourceAlpha" operator="in" result="effect1_backgroundBlur"/><feColorMatrix in="SourceAlpha" values="0 0 0 0 0 0 0 0 0 0 0 0 0 0 0 0 0 0 127 0" result="hardAlpha"/><feMorphology radius="4.164" operator="dilate" in="SourceAlpha" result="effect2_dropShadow"/><feOffset/><feGaussianBlur stdDeviation="10.41"/><feComposite in2="hardAlpha" operator="out"/><feColorMatrix values="0 0 0 0 0 0 0 0 0 0 0 0 0 0 0 0 0 0 0.5 0"/><feBlend in2="effect1_backgroundBlur" result="effect2_dropShadow"/><feBlend in="SourceGraphic" in2="effect2_dropShadow" result="shape"/></filter></defs></svg>