<svg width="350" height="350" fill="none" xmlns="http://www.w3.org/2000/svg"><g filter="url(#a)"><rect x="25" y="25" width="300" height="300" rx="25.328" fill="url(#b)" fill-opacity=".65" shape-rendering="crispEdges"/></g><path d="M75.32 242.299c-.926 1.347-2.405 2.02-4.438 2.02-1.483 0-2.61-.429-3.382-1.286-.772-.866-1.166-2.144-1.184-3.833v-9.055h1.53v8.862c0 2.649 1.073 3.974 3.216 3.974 2.23 0 3.64-.922 4.232-2.765v-10.071h1.544v13.917h-1.492l-.026-1.763Zm13.865-1.775c0-.763-.309-1.376-.926-1.839-.609-.463-1.53-.823-2.765-1.08-1.235-.266-2.195-.566-2.882-.901-.677-.343-1.183-.758-1.517-1.247-.326-.489-.489-1.081-.489-1.775 0-1.098.459-2.002 1.376-2.714.918-.72 2.093-1.08 3.525-1.08 1.551 0 2.795.385 3.73 1.157.943.763 1.414 1.762 1.414 2.997h-1.543c0-.815-.343-1.492-1.03-2.032-.677-.54-1.534-.811-2.572-.811-1.011 0-1.826.228-2.443.682-.61.446-.913 1.029-.913 1.749 0 .695.252 1.235.758 1.621.515.377 1.445.725 2.791 1.042 1.355.317 2.367.656 3.036 1.016.677.36 1.179.793 1.505 1.299.326.506.489 1.119.489 1.839 0 1.175-.476 2.114-1.428 2.817-.943.703-2.178 1.055-3.704 1.055-1.621 0-2.937-.39-3.95-1.171-1.002-.789-1.504-1.783-1.504-2.984h1.543c.06.901.438 1.604 1.132 2.11.703.497 1.63.746 2.779.746 1.071 0 1.937-.236 2.598-.708.66-.471.99-1.067.99-1.788Zm6.74 3.538H94.38v-13.917h1.544v13.917Zm-1.814-17.943c0-.292.094-.536.283-.733.189-.206.446-.309.772-.309s.583.103.772.309a.994.994 0 0 1 .295.733.994.994 0 0 1-.295.733c-.19.197-.446.296-.772.296s-.583-.099-.772-.296a1.018 1.018 0 0 1-.283-.733Zm7.473 4.026.051 2.379c.524-.857 1.175-1.509 1.955-1.955a5.053 5.053 0 0 1 2.586-.681c1.492 0 2.602.42 3.331 1.26.729.84 1.098 2.101 1.106 3.781v9.133h-1.53v-9.145c-.009-1.244-.275-2.17-.798-2.779-.514-.608-1.342-.913-2.482-.913-.952 0-1.797.3-2.534.901-.729.591-1.269 1.393-1.621 2.405v9.531h-1.53v-13.917h1.466Zm12.399 6.83c0-2.178.48-3.902 1.441-5.171.968-1.278 2.28-1.916 3.935-1.916 1.895 0 3.336.754 4.322 2.263l.077-2.006h1.441v13.634c0 1.792-.502 3.211-1.505 4.257-1.003 1.046-2.362 1.569-4.077 1.569a6.193 6.193 0 0 1-2.779-.656c-.874-.429-1.565-1.003-2.07-1.723l.861-.926c1.089 1.337 2.384 2.006 3.885 2.006 1.286 0 2.289-.382 3.009-1.145.721-.754 1.094-1.805 1.119-3.151v-1.749c-.986 1.372-2.422 2.058-4.308 2.058-1.612 0-2.907-.643-3.885-1.93-.977-1.286-1.466-3.022-1.466-5.209v-.205Zm1.556.27c0 1.775.356 3.177 1.068 4.206.712 1.02 1.715 1.53 3.01 1.53 1.895 0 3.237-.849 4.025-2.547v-6.469c-.36-.892-.879-1.569-1.556-2.032-.677-.472-1.492-.708-2.444-.708-1.294 0-2.302.51-3.022 1.531-.721 1.012-1.081 2.508-1.081 4.489Zm28.863 6.817c-.155-.438-.253-1.085-.296-1.943a5.417 5.417 0 0 1-2.071 1.634 6.344 6.344 0 0 1-2.649.566c-1.338 0-2.423-.373-3.255-1.119-.823-.746-1.234-1.689-1.234-2.83 0-1.355.561-2.427 1.685-3.215 1.131-.789 2.705-1.184 4.72-1.184h2.791v-1.582c0-.994-.309-1.775-.926-2.341-.609-.574-1.501-.861-2.675-.861-1.072 0-1.96.274-2.663.823-.703.549-1.054 1.209-1.054 1.981l-1.544-.013c0-1.106.515-2.063 1.544-2.869 1.028-.814 2.293-1.221 3.794-1.221 1.552 0 2.774.39 3.665 1.17.901.772 1.364 1.852 1.39 3.241v6.586c0 1.346.141 2.353.424 3.022v.155h-1.646Zm-4.836-1.107c1.029 0 1.946-.248 2.752-.746.815-.497 1.406-1.161 1.775-1.993v-3.061h-2.752c-1.535.017-2.736.3-3.602.849-.866.54-1.299 1.286-1.299 2.238 0 .78.287 1.427.862 1.942.583.514 1.338.771 2.264.771Zm11.64-12.81.051 2.379c.523-.857 1.175-1.509 1.955-1.955a5.046 5.046 0 0 1 2.585-.681c1.492 0 2.603.42 3.332 1.26.729.84 1.097 2.101 1.106 3.781v9.133h-1.531v-9.145c-.008-1.244-.274-2.17-.797-2.779-.515-.608-1.342-.913-2.483-.913-.951 0-1.796.3-2.533.901-.729.591-1.269 1.393-1.621 2.405v9.531h-1.531v-13.917h1.467Zm28.206 13.917c-.154-.438-.253-1.085-.296-1.943a5.414 5.414 0 0 1-2.07 1.634 6.346 6.346 0 0 1-2.65.566c-1.338 0-2.422-.373-3.254-1.119-.823-.746-1.235-1.689-1.235-2.83 0-1.355.562-2.427 1.685-3.215 1.132-.789 2.705-1.184 4.72-1.184h2.791v-1.582c0-.994-.308-1.775-.926-2.341-.608-.574-1.5-.861-2.675-.861-1.072 0-1.959.274-2.662.823-.703.549-1.055 1.209-1.055 1.981l-1.543-.013c0-1.106.514-2.063 1.543-2.869 1.029-.814 2.294-1.221 3.794-1.221 1.552 0 2.774.39 3.666 1.17.9.772 1.363 1.852 1.389 3.241v6.586c0 1.346.142 2.353.424 3.022v.155h-1.646Zm-4.836-1.107c1.029 0 1.946-.248 2.752-.746.815-.497 1.407-1.161 1.775-1.993v-3.061h-2.752c-1.535.017-2.735.3-3.601.849-.866.54-1.299 1.286-1.299 2.238 0 .78.287 1.427.861 1.942.583.514 1.338.771 2.264.771Zm19.126-.656c-.926 1.347-2.405 2.02-4.438 2.02-1.483 0-2.611-.429-3.382-1.286-.772-.866-1.166-2.144-1.184-3.833v-9.055h1.531v8.862c0 2.649 1.072 3.974 3.216 3.974 2.229 0 3.639-.922 4.231-2.765v-10.071h1.544v13.917h-1.492l-.026-1.763Zm7.923-15.717v3.563h2.881v1.26h-2.881v9.274c0 .772.137 1.346.411 1.723.283.378.751.566 1.402.566.258 0 .674-.043 1.248-.128l.064 1.26c-.403.146-.951.219-1.646.219-1.055 0-1.822-.305-2.302-.913-.48-.618-.721-1.522-.721-2.714v-9.287h-2.559v-1.26h2.559v-3.563h1.544Zm4.965 10.315c0-1.337.257-2.542.771-3.614.523-1.072 1.257-1.903 2.2-2.495.952-.6 2.028-.9 3.228-.9 1.852 0 3.353.651 4.502 1.955 1.149 1.294 1.723 3.014 1.723 5.157v.322c0 1.346-.261 2.559-.784 3.64-.515 1.072-1.244 1.899-2.187 2.482-.943.583-2.019.875-3.228.875-1.844 0-3.344-.648-4.502-1.942-1.149-1.304-1.723-3.027-1.723-5.171v-.309Zm1.543.425c0 1.663.429 3.031 1.286 4.103.866 1.063 1.998 1.595 3.396 1.595 1.389 0 2.512-.532 3.37-1.595.866-1.072 1.299-2.483 1.299-4.232v-.296c0-1.063-.197-2.036-.592-2.919-.394-.883-.947-1.565-1.659-2.045-.712-.489-1.526-.734-2.444-.734-1.372 0-2.491.541-3.357 1.621-.866 1.072-1.299 2.478-1.299 4.219v.283Zm15.473-7.177.052 2.264c.514-.841 1.157-1.471 1.929-1.891.772-.42 1.629-.63 2.572-.63 2.195 0 3.589.9 4.18 2.701.498-.866 1.162-1.531 1.994-1.994a5.478 5.478 0 0 1 2.752-.707c2.984 0 4.506 1.629 4.566 4.887v9.287h-1.543v-9.171c-.009-1.243-.279-2.165-.81-2.765-.523-.601-1.381-.901-2.573-.901-1.106.017-2.04.378-2.804 1.081-.763.694-1.187 1.543-1.273 2.546v9.21h-1.543v-9.287c-.009-1.192-.292-2.079-.849-2.662-.549-.592-1.398-.888-2.547-.888-.969 0-1.801.279-2.495.836-.695.549-1.209 1.368-1.544 2.457v9.544h-1.543v-13.917h1.479Zm30.74 13.917c-.154-.438-.253-1.085-.296-1.943a5.414 5.414 0 0 1-2.07 1.634 6.346 6.346 0 0 1-2.65.566c-1.338 0-2.422-.373-3.254-1.119-.823-.746-1.235-1.689-1.235-2.83 0-1.355.562-2.427 1.685-3.215 1.132-.789 2.705-1.184 4.721-1.184h2.791v-1.582c0-.994-.309-1.775-.926-2.341-.609-.574-1.501-.861-2.676-.861-1.072 0-1.959.274-2.662.823-.703.549-1.055 1.209-1.055 1.981l-1.543-.013c0-1.106.514-2.063 1.543-2.869 1.029-.814 2.294-1.221 3.794-1.221 1.552 0 2.774.39 3.666 1.17.9.772 1.363 1.852 1.389 3.241v6.586c0 1.346.142 2.353.425 3.022v.155h-1.647Zm-4.836-1.107c1.029 0 1.947-.248 2.753-.746.814-.497 1.406-1.161 1.775-1.993v-3.061h-2.753c-1.535.017-2.735.3-3.601.849-.866.54-1.299 1.286-1.299 2.238 0 .78.287 1.427.861 1.942.584.514 1.338.771 2.264.771Zm12.566-16.373v3.563h2.881v1.26h-2.881v9.274c0 .772.138 1.346.412 1.723.283.378.75.566 1.402.566.257 0 .673-.043 1.248-.128l.064 1.26c-.403.146-.952.219-1.647.219-1.054 0-1.822-.305-2.302-.913-.48-.618-.72-1.522-.72-2.714v-9.287h-2.56v-1.26h2.56v-3.563h1.543Zm7.795 17.48h-1.544v-13.917h1.544v13.917Zm-1.814-17.943c0-.292.095-.536.283-.733.189-.206.446-.309.772-.309s.583.103.772.309a.994.994 0 0 1 .295.733.994.994 0 0 1-.295.733c-.189.197-.446.296-.772.296s-.583-.099-.772-.296a1.02 1.02 0 0 1-.283-.733Zm11.152 16.901c1.071 0 1.967-.3 2.688-.901.729-.608 1.123-1.393 1.183-2.353h1.479a4.389 4.389 0 0 1-.797 2.328c-.489.694-1.141 1.239-1.955 1.633a5.824 5.824 0 0 1-2.598.592c-1.827 0-3.276-.635-4.348-1.904-1.063-1.269-1.595-2.975-1.595-5.119v-.463c0-1.372.24-2.585.721-3.64.48-1.055 1.166-1.869 2.058-2.444.9-.574 1.95-.861 3.151-.861 1.526 0 2.782.454 3.768 1.363.995.909 1.527 2.105 1.595 3.588h-1.479c-.069-1.089-.463-1.967-1.183-2.636-.712-.669-1.612-1.004-2.701-1.004-1.389 0-2.47.502-3.241 1.505-.764 1.004-1.145 2.41-1.145 4.219v.45c0 1.775.381 3.16 1.145 4.155.771.994 1.856 1.492 3.254 1.492ZM74.972 257.582v3.563h2.882v1.26h-2.882v9.274c0 .772.138 1.346.412 1.723.283.378.75.566 1.402.566.257 0 .673-.043 1.248-.128l.064 1.26c-.403.146-.952.219-1.646.219-1.055 0-1.823-.305-2.303-.913-.48-.618-.72-1.522-.72-2.714v-9.287h-2.56v-1.26h2.56v-3.563h1.543Zm11.46 17.737c-1.183 0-2.255-.292-3.215-.875-.952-.583-1.694-1.393-2.225-2.431-.532-1.046-.797-2.216-.797-3.511v-.553c0-1.338.257-2.543.771-3.614.523-1.072 1.248-1.913 2.174-2.521a5.315 5.315 0 0 1 3.01-.926c1.689 0 3.026.578 4.012 1.736.995 1.149 1.492 2.722 1.492 4.72v.862h-9.929v.296c0 1.578.45 2.894 1.35 3.949.91 1.046 2.05 1.569 3.422 1.569.823 0 1.548-.15 2.174-.45.634-.301 1.209-.781 1.723-1.441l.965.733c-1.132 1.638-2.774 2.457-4.926 2.457Zm-.282-13.12c-1.158 0-2.136.425-2.933 1.274-.789.849-1.269 1.989-1.44 3.421h8.347v-.167c-.043-1.338-.424-2.427-1.145-3.267-.72-.84-1.663-1.261-2.83-1.261Zm12.874 4.592 3.756-5.646h1.827l-4.72 6.83 4.925 7.087h-1.813l-3.962-5.891-3.961 5.891h-1.814l4.914-7.087-4.72-6.83h1.813l3.755 5.646Zm10.83-9.209v3.563h2.881v1.26h-2.881v9.274c0 .772.137 1.346.412 1.723.283.378.75.566 1.402.566.257 0 .673-.043 1.247-.128l.065 1.26c-.403.146-.952.219-1.647.219-1.054 0-1.822-.305-2.302-.913-.48-.618-.72-1.522-.72-2.714v-9.287h-2.56v-1.26h2.56v-3.563h1.543Zm18.907 4.875a5.74 5.74 0 0 0-1.041-.09c-.961 0-1.775.27-2.444.81-.66.532-1.132 1.308-1.415 2.328v9.557h-1.531v-13.917h1.505l.026 2.212c.815-1.646 2.122-2.469 3.923-2.469.429 0 .767.055 1.016.167l-.039 1.402Zm7.576 12.862c-1.183 0-2.255-.292-3.215-.875-.952-.583-1.694-1.393-2.225-2.431-.532-1.046-.798-2.216-.798-3.511v-.553c0-1.338.257-2.543.772-3.614.523-1.072 1.247-1.913 2.174-2.521a5.314 5.314 0 0 1 3.009-.926c1.689 0 3.027.578 4.013 1.736.995 1.149 1.492 2.722 1.492 4.72v.862h-9.929v.296c0 1.578.45 2.894 1.35 3.949.909 1.046 2.05 1.569 3.422 1.569.823 0 1.547-.15 2.173-.45.635-.301 1.209-.781 1.724-1.441l.964.733c-1.131 1.638-2.774 2.457-4.926 2.457Zm-.283-13.12c-1.157 0-2.135.425-2.932 1.274-.789.849-1.269 1.989-1.441 3.421h8.348v-.167c-.043-1.338-.425-2.427-1.145-3.267-.72-.84-1.664-1.261-2.83-1.261Zm13.647 11.821c1.072 0 1.968-.3 2.688-.901.729-.608 1.123-1.393 1.183-2.353h1.479a4.38 4.38 0 0 1-.797 2.328 5.005 5.005 0 0 1-1.955 1.633 5.824 5.824 0 0 1-2.598.592c-1.827 0-3.276-.635-4.348-1.904-1.063-1.269-1.594-2.975-1.594-5.119v-.463c0-1.372.24-2.585.72-3.64.48-1.055 1.166-1.869 2.058-2.444.9-.574 1.951-.861 3.151-.861 1.526 0 2.782.454 3.769 1.363.994.909 1.526 2.105 1.594 3.588h-1.479c-.068-1.089-.463-1.967-1.183-2.636-.712-.669-1.612-1.004-2.701-1.004-1.389 0-2.47.502-3.241 1.505-.763 1.004-1.145 2.41-1.145 4.219v.45c0 1.775.382 3.16 1.145 4.155.771.994 1.856 1.492 3.254 1.492Zm7.588-6.123c0-1.337.258-2.542.772-3.614.523-1.072 1.256-1.903 2.2-2.495.951-.6 2.027-.9 3.228-.9 1.852 0 3.353.651 4.502 1.955 1.149 1.294 1.723 3.014 1.723 5.157v.322c0 1.346-.261 2.559-.784 3.64-.515 1.072-1.244 1.899-2.187 2.482-.943.583-2.019.875-3.228.875-1.844 0-3.344-.648-4.502-1.942-1.149-1.304-1.724-3.027-1.724-5.171v-.309Zm1.544.425c0 1.663.429 3.031 1.286 4.103.866 1.063 1.998 1.595 3.396 1.595 1.389 0 2.512-.532 3.37-1.595.866-1.072 1.299-2.483 1.299-4.232v-.296c0-1.063-.198-2.036-.592-2.919-.395-.883-.948-1.565-1.659-2.045-.712-.489-1.527-.734-2.444-.734-1.372 0-2.491.541-3.357 1.621-.866 1.072-1.299 2.478-1.299 4.219v.283Zm13.454-.347c0-2.178.48-3.902 1.44-5.171.969-1.278 2.281-1.916 3.936-1.916 1.895 0 3.335.754 4.322 2.263l.077-2.006h1.44v13.634c0 1.792-.501 3.211-1.505 4.257-1.003 1.046-2.362 1.569-4.077 1.569a6.185 6.185 0 0 1-2.778-.656c-.875-.429-1.565-1.003-2.071-1.723l.862-.926c1.089 1.337 2.384 2.006 3.884 2.006 1.286 0 2.29-.382 3.01-1.145.72-.754 1.093-1.805 1.119-3.151v-1.749c-.986 1.372-2.422 2.058-4.309 2.058-1.612 0-2.907-.643-3.884-1.93-.978-1.286-1.466-3.022-1.466-5.209v-.205Zm1.556.27c0 1.775.356 3.177 1.067 4.206.712 1.02 1.715 1.53 3.01 1.53 1.895 0 3.237-.849 4.026-2.547v-6.469c-.36-.892-.879-1.569-1.556-2.032-.678-.472-1.492-.708-2.444-.708-1.295 0-2.302.51-3.023 1.531-.72 1.012-1.08 2.508-1.08 4.489Zm15.138-7.1.052 2.379c.523-.857 1.175-1.509 1.955-1.955a5.046 5.046 0 0 1 2.585-.681c1.492 0 2.603.42 3.331 1.26.729.84 1.098 2.101 1.107 3.781v9.133h-1.531v-9.145c-.009-1.244-.274-2.17-.797-2.779-.515-.608-1.342-.913-2.483-.913-.952 0-1.796.3-2.534.901-.728.591-1.269 1.393-1.62 2.405v9.531h-1.531v-13.917h1.466Zm14.74 13.917h-1.543v-13.917h1.543v13.917Zm-1.813-17.943c0-.292.094-.536.283-.733.188-.206.446-.309.771-.309.326 0 .584.103.772.309a.995.995 0 0 1 .296.733.995.995 0 0 1-.296.733c-.188.197-.446.296-.772.296-.325 0-.583-.099-.771-.296a1.017 1.017 0 0 1-.283-.733Zm8.399.463v3.563h2.881v1.26h-2.881v9.274c0 .772.137 1.346.411 1.723.283.378.751.566 1.402.566.257 0 .673-.043 1.248-.128l.064 1.26c-.403.146-.952.219-1.646.219-1.055 0-1.822-.305-2.302-.913-.481-.618-.721-1.522-.721-2.714v-9.287h-2.559v-1.26h2.559v-3.563h1.544Zm7.794 17.48h-1.543v-13.917h1.543v13.917Zm-1.813-17.943c0-.292.094-.536.283-.733.188-.206.445-.309.771-.309s.583.103.772.309a.995.995 0 0 1 .296.733.995.995 0 0 1-.296.733c-.189.197-.446.296-.772.296s-.583-.099-.771-.296a1.017 1.017 0 0 1-.283-.733Zm5.157 10.778c0-1.337.257-2.542.772-3.614.523-1.072 1.256-1.903 2.199-2.495.952-.6 2.028-.9 3.229-.9 1.852 0 3.352.651 4.501 1.955 1.149 1.294 1.724 3.014 1.724 5.157v.322c0 1.346-.262 2.559-.785 3.64-.514 1.072-1.243 1.899-2.186 2.482-.943.583-2.02.875-3.229.875-1.843 0-3.344-.648-4.501-1.942-1.149-1.304-1.724-3.027-1.724-5.171v-.309Zm1.544.425c0 1.663.428 3.031 1.286 4.103.866 1.063 1.998 1.595 3.395 1.595 1.39 0 2.513-.532 3.37-1.595.866-1.072 1.299-2.483 1.299-4.232v-.296c0-1.063-.197-2.036-.591-2.919-.395-.883-.948-1.565-1.659-2.045-.712-.489-1.527-.734-2.444-.734-1.372 0-2.491.541-3.357 1.621-.866 1.072-1.299 2.478-1.299 4.219v.283Zm15.537-7.177.051 2.379c.524-.857 1.175-1.509 1.955-1.955a5.053 5.053 0 0 1 2.586-.681c1.492 0 2.602.42 3.331 1.26.729.84 1.098 2.101 1.106 3.781v9.133h-1.53v-9.145c-.009-1.244-.275-2.17-.798-2.779-.514-.608-1.342-.913-2.482-.913-.952 0-1.797.3-2.534.901-.729.591-1.269 1.393-1.621 2.405v9.531h-1.53v-13.917h1.466Zm29.891 8.669h-8.501l-1.93 5.248h-1.659l7.087-18.728h1.505l7.087 18.728h-1.646l-1.943-5.248Zm-8.013-1.351h7.512l-3.756-10.199-3.756 10.199Zm16.297 6.599h-1.583v-18.728h1.583v18.728Z" fill="#000"/><path d="M101.968 91.43v12.713h-5.945V69.93h13.088c3.823 0 6.854.994 9.094 2.984 2.256 1.99 3.384 4.621 3.384 7.895 0 3.353-1.105 5.96-3.314 7.825-2.193 1.864-5.271 2.796-9.234 2.796h-7.073Zm0-4.77h7.143c2.115 0 3.729-.493 4.841-1.48 1.112-1.003 1.668-2.444 1.668-4.324 0-1.848-.564-3.32-1.692-4.417-1.128-1.113-2.678-1.684-4.652-1.716h-7.308V86.66Zm37.597-2.726a14.13 14.13 0 0 0-2.327-.188c-2.616 0-4.378 1.003-5.287 3.008v17.389h-5.71V78.718h5.452l.141 2.843c1.378-2.209 3.289-3.313 5.733-3.313.815 0 1.488.11 2.021.329l-.023 5.357Zm14.333 20.679c-3.618 0-6.556-1.136-8.811-3.408-2.241-2.287-3.361-5.326-3.361-9.117v-.705c0-2.538.486-4.801 1.457-6.79.987-2.006 2.366-3.565 4.136-4.677 1.77-1.112 3.744-1.668 5.921-1.668 3.462 0 6.133 1.104 8.013 3.313 1.896 2.209 2.843 5.334 2.843 9.376v2.303h-16.613c.173 2.099.87 3.76 2.092 4.981 1.237 1.222 2.788 1.833 4.652 1.833 2.616 0 4.747-1.058 6.392-3.172l3.078 2.937c-1.018 1.519-2.381 2.702-4.089 3.548-1.692.83-3.595 1.246-5.71 1.246Zm-.681-21.783c-1.567 0-2.836.548-3.807 1.645-.955 1.096-1.566 2.624-1.833 4.582h10.88v-.423c-.125-1.911-.635-3.352-1.527-4.324-.893-.987-2.131-1.48-3.713-1.48Zm23.968 14.075 5.381-18.187h5.898l-8.812 25.425h-4.958l-8.882-25.425h5.921l5.452 18.187Zm25.73 7.708c-3.619 0-6.556-1.136-8.812-3.408-2.24-2.287-3.36-5.326-3.36-9.117v-.705c0-2.538.486-4.801 1.457-6.79.987-2.006 2.365-3.565 4.136-4.677 1.77-1.112 3.744-1.668 5.921-1.668 3.462 0 6.133 1.104 8.013 3.313 1.895 2.209 2.843 5.334 2.843 9.376v2.303H196.5c.172 2.099.869 3.76 2.091 4.981 1.238 1.222 2.789 1.833 4.653 1.833 2.616 0 4.747-1.058 6.391-3.172l3.079 2.937c-1.019 1.519-2.381 2.702-4.089 3.548-1.692.83-3.595 1.246-5.71 1.246Zm-.681-21.783c-1.567 0-2.836.548-3.807 1.645-.956 1.096-1.567 2.624-1.833 4.582h10.88v-.423c-.126-1.911-.635-3.352-1.528-4.324-.893-.987-2.13-1.48-3.712-1.48Zm20.631-4.112.164 2.937c1.88-2.271 4.347-3.407 7.402-3.407 5.295 0 7.989 3.031 8.083 9.094v16.801h-5.71V87.671c0-1.614-.352-2.805-1.057-3.572-.689-.783-1.825-1.175-3.407-1.175-2.303 0-4.018 1.042-5.146 3.125v18.094h-5.71V78.718h5.381Zm28.644-6.18v6.18h4.488v4.23h-4.488V97.14c0 .971.188 1.676.564 2.115.391.423 1.081.635 2.067.635.658 0 1.324-.079 1.998-.236v4.418c-1.3.36-2.554.541-3.76.541-4.386 0-6.579-2.421-6.579-7.261V82.947h-4.183v-4.23h4.183v-6.18h5.71Zm-177.01 71.639H61.246l-2.773 7.966h-6.18l12.924-34.213h5.334L83.5 152.143h-6.204l-2.796-7.966Zm-11.585-4.794h9.916l-4.958-14.193-4.958 14.193Zm22.864-.141c0-3.916.908-7.057 2.726-9.422 1.817-2.382 4.253-3.572 7.307-3.572 2.695 0 4.872.94 6.533 2.82V116.05h5.71v36.093h-5.17l-.282-2.632c-1.707 2.068-3.987 3.102-6.838 3.102-2.976 0-5.388-1.199-7.237-3.596-1.833-2.396-2.75-5.655-2.75-9.775Zm5.71.494c0 2.584.493 4.605 1.48 6.062 1.003 1.441 2.42 2.162 4.253 2.162 2.334 0 4.042-1.042 5.123-3.125v-10.856c-1.05-2.037-2.742-3.055-5.076-3.055-1.848 0-3.274.736-4.276 2.209-1.003 1.457-1.504 3.658-1.504 6.603Zm31.487 5.169 5.381-18.187h5.898l-8.812 25.425h-4.958l-8.882-25.425h5.922l5.451 18.187Zm25.73 7.708c-3.618 0-6.556-1.136-8.811-3.408-2.241-2.287-3.361-5.326-3.361-9.117v-.705c0-2.538.486-4.801 1.457-6.791.987-2.005 2.366-3.564 4.136-4.676s3.744-1.668 5.921-1.668c3.462 0 6.133 1.104 8.013 3.313 1.896 2.209 2.843 5.334 2.843 9.376v2.303H142.29c.173 2.099.87 3.759 2.092 4.981 1.237 1.222 2.788 1.833 4.652 1.833 2.616 0 4.747-1.057 6.392-3.172l3.078 2.937c-1.018 1.519-2.381 2.702-4.089 3.548-1.692.83-3.595 1.246-5.71 1.246Zm-.681-21.783c-1.567 0-2.836.548-3.807 1.645-.955 1.096-1.566 2.624-1.833 4.582h10.88v-.423c-.125-1.911-.635-3.352-1.527-4.324-.893-.987-2.131-1.48-3.713-1.48Zm28.644 1.104a14.17 14.17 0 0 0-2.326-.188c-2.617 0-4.379 1.003-5.288 3.008v17.389h-5.71v-25.425h5.452l.141 2.843c1.379-2.209 3.29-3.313 5.733-3.313.815 0 1.489.11 2.021.329l-.023 5.357Zm11.937-11.396v6.18h4.488v4.229h-4.488v14.193c0 .971.188 1.676.564 2.115.391.423 1.081.634 2.068.634.657 0 1.323-.078 1.997-.235v4.418c-1.3.36-2.554.541-3.76.541-4.386 0-6.579-2.421-6.579-7.261v-14.405h-4.183v-4.229h4.183v-6.18h5.71Zm14.944 31.605h-5.71v-25.425h5.71v25.425Zm-6.062-32.028c0-.877.274-1.606.822-2.185.564-.58 1.363-.87 2.397-.87 1.034 0 1.833.29 2.397.87.564.579.846 1.308.846 2.185 0 .861-.282 1.582-.846 2.162-.564.564-1.363.846-2.397.846-1.034 0-1.833-.282-2.397-.846-.548-.58-.822-1.301-.822-2.162Zm26.553 25.119c0-1.018-.423-1.793-1.269-2.326-.831-.533-2.217-1.003-4.159-1.41-1.943-.407-3.564-.924-4.864-1.551-2.852-1.378-4.277-3.376-4.277-5.992 0-2.193.924-4.026 2.773-5.498 1.848-1.473 4.198-2.209 7.049-2.209 3.039 0 5.491.752 7.355 2.256 1.88 1.504 2.82 3.454 2.82 5.851h-5.71c0-1.097-.408-2.006-1.222-2.726-.815-.736-1.896-1.105-3.243-1.105-1.253 0-2.279.29-3.078.87-.783.58-1.175 1.355-1.175 2.326 0 .877.368 1.559 1.104 2.045.737.485 2.225.979 4.465 1.48 2.24.486 3.995 1.073 5.263 1.762 1.285.674 2.233 1.488 2.844 2.444.626.956.94 2.115.94 3.478 0 2.287-.948 4.143-2.844 5.569-1.895 1.41-4.378 2.115-7.448 2.115-2.084 0-3.94-.376-5.569-1.128-1.63-.752-2.899-1.786-3.807-3.102-.909-1.316-1.363-2.734-1.363-4.253h5.545c.079 1.347.588 2.389 1.528 3.125.94.721 2.185 1.081 3.736 1.081 1.504 0 2.647-.282 3.431-.846.783-.58 1.175-1.332 1.175-2.256Zm16.683 6.909h-5.71v-25.425h5.71v25.425Zm-6.062-32.028c0-.877.274-1.606.822-2.185.564-.58 1.363-.87 2.397-.87 1.034 0 1.833.29 2.397.87.564.579.846 1.308.846 2.185 0 .861-.282 1.582-.846 2.162-.564.564-1.363.846-2.397.846-1.034 0-1.833-.282-2.397-.846-.548-.58-.822-1.301-.822-2.162Zm17.6 6.603.164 2.937c1.88-2.271 4.347-3.407 7.402-3.407 5.295 0 7.989 3.031 8.083 9.094v16.801h-5.71v-16.472c0-1.614-.352-2.805-1.057-3.572-.689-.783-1.825-1.175-3.407-1.175-2.303 0-4.018 1.042-5.146 3.125v18.094h-5.71v-25.425h5.381Zm20.49 12.524c0-3.947.924-7.096 2.773-9.446 1.864-2.365 4.331-3.548 7.401-3.548 2.899 0 5.178 1.01 6.838 3.031l.259-2.561h5.146v24.649c0 3.337-1.042 5.969-3.125 7.895-2.068 1.927-4.864 2.891-8.389 2.891-1.864 0-3.689-.392-5.475-1.175-1.77-.768-3.118-1.778-4.042-3.031l2.702-3.431c1.755 2.083 3.917 3.125 6.486 3.125 1.895 0 3.391-.517 4.488-1.551 1.097-1.018 1.645-2.522 1.645-4.511v-1.716c-1.645 1.833-3.838 2.75-6.58 2.75-2.976 0-5.412-1.183-7.307-3.549-1.88-2.365-2.82-5.639-2.82-9.822Zm5.686.494c0 2.553.517 4.566 1.551 6.039 1.05 1.457 2.499 2.185 4.347 2.185 2.303 0 4.011-.987 5.123-2.961v-11.185c-1.081-1.927-2.773-2.89-5.076-2.89-1.88 0-3.344.744-4.394 2.232-1.034 1.488-1.551 3.682-1.551 6.58ZM78.822 200.143h-5.921V165.93h5.921v34.213Zm12.055-25.425.164 2.937c1.88-2.271 4.347-3.407 7.402-3.407 5.295 0 7.989 3.031 8.083 9.094v16.801h-5.71v-16.472c0-1.614-.352-2.805-1.057-3.572-.69-.783-1.825-1.175-3.407-1.175-2.303 0-4.018 1.042-5.146 3.125v18.094h-5.71v-25.425h5.38Zm40.299 25.425h-5.922V165.93h5.922v34.213Zm12.125-25.425.164 2.655c1.786-2.083 4.23-3.125 7.332-3.125 3.399 0 5.725 1.3 6.978 3.901 1.849-2.601 4.449-3.901 7.802-3.901 2.804 0 4.887.775 6.25 2.326 1.379 1.551 2.084 3.838 2.115 6.862v16.707h-5.71V183.6c0-1.613-.352-2.796-1.057-3.548-.705-.752-1.872-1.128-3.502-1.128-1.3 0-2.365.352-3.195 1.057-.815.69-1.387 1.598-1.716 2.726l.024 17.436h-5.71v-16.731c-.078-2.992-1.606-4.488-4.582-4.488-2.287 0-3.909.932-4.864 2.796v18.423h-5.71v-25.425h5.381Zm51.695 25.425c-.25-.486-.47-1.277-.658-2.374-1.817 1.896-4.041 2.844-6.673 2.844-2.554 0-4.637-.729-6.251-2.186-1.613-1.457-2.42-3.258-2.42-5.404 0-2.71 1.003-4.786 3.008-6.227 2.021-1.457 4.903-2.186 8.647-2.186h3.501v-1.668c0-1.316-.368-2.365-1.104-3.149-.736-.799-1.856-1.198-3.36-1.198-1.301 0-2.366.329-3.196.987-.83.642-1.245 1.465-1.245 2.467h-5.71c0-1.394.462-2.694 1.386-3.9.924-1.222 2.177-2.178 3.76-2.867 1.597-.69 3.375-1.034 5.334-1.034 2.976 0 5.349.752 7.12 2.256 1.77 1.488 2.678 3.587 2.725 6.297v11.467c0 2.287.321 4.112.964 5.475v.4h-5.828Zm-6.274-4.113a6.429 6.429 0 0 0 3.172-.822c1.003-.548 1.755-1.285 2.256-2.209v-4.793h-3.078c-2.115 0-3.705.368-4.77 1.104-1.065.736-1.598 1.778-1.598 3.125 0 1.097.36 1.974 1.081 2.632.736.642 1.715.963 2.937.963Zm16.12-8.788c0-3.947.924-7.096 2.773-9.446 1.864-2.365 4.331-3.548 7.401-3.548 2.899 0 5.178 1.01 6.838 3.031l.259-2.561h5.146v24.649c0 3.337-1.042 5.969-3.125 7.895-2.068 1.927-4.864 2.891-8.389 2.891-1.864 0-3.689-.392-5.475-1.175-1.77-.768-3.118-1.778-4.042-3.031l2.702-3.431c1.755 2.083 3.917 3.125 6.486 3.125 1.895 0 3.391-.517 4.488-1.551 1.097-1.018 1.645-2.522 1.645-4.511v-1.716c-1.645 1.833-3.838 2.75-6.58 2.75-2.976 0-5.412-1.183-7.307-3.549-1.88-2.365-2.82-5.639-2.82-9.822Zm5.686.494c0 2.553.517 4.566 1.551 6.039 1.05 1.457 2.499 2.185 4.347 2.185 2.303 0 4.011-.987 5.123-2.961v-11.185c-1.081-1.927-2.773-2.89-5.076-2.89-1.88 0-3.344.744-4.394 2.232-1.034 1.488-1.551 3.682-1.551 6.58Zm33.814 12.877c-3.619 0-6.556-1.136-8.812-3.408-2.24-2.287-3.36-5.326-3.36-9.117v-.705c0-2.538.486-4.801 1.457-6.791.987-2.005 2.365-3.564 4.135-4.676 1.771-1.112 3.744-1.668 5.922-1.668 3.462 0 6.133 1.104 8.013 3.313 1.895 2.209 2.843 5.334 2.843 9.376v2.303h-16.613c.172 2.099.869 3.759 2.091 4.981 1.238 1.222 2.789 1.833 4.653 1.833 2.616 0 4.746-1.057 6.391-3.172l3.078 2.937c-1.018 1.519-2.381 2.702-4.088 3.548-1.692.83-3.595 1.246-5.71 1.246Zm-.682-21.783c-1.566 0-2.835.548-3.806 1.645-.956 1.096-1.567 2.624-1.833 4.582H248.9v-.423c-.125-1.911-.634-3.352-1.527-4.324-.893-.987-2.13-1.48-3.713-1.48Zm29.584 14.404c0-1.018-.423-1.793-1.269-2.326-.83-.533-2.216-1.003-4.159-1.41-1.942-.407-3.564-.924-4.864-1.551-2.851-1.378-4.276-3.376-4.276-5.992 0-2.193.924-4.026 2.772-5.498 1.849-1.473 4.199-2.209 7.05-2.209 3.039 0 5.49.752 7.355 2.256 1.879 1.504 2.819 3.454 2.819 5.851h-5.71c0-1.097-.407-2.006-1.222-2.726-.814-.736-1.895-1.105-3.242-1.105-1.253 0-2.28.29-3.079.87-.783.58-1.174 1.355-1.174 2.326 0 .877.368 1.559 1.104 2.045.736.485 2.224.979 4.465 1.48 2.24.486 3.994 1.073 5.263 1.762 1.285.674 2.232 1.488 2.843 2.444.627.956.94 2.115.94 3.478 0 2.287-.947 4.143-2.843 5.569-1.895 1.41-4.378 2.115-7.449 2.115-2.083 0-3.94-.376-5.569-1.128-1.629-.752-2.898-1.786-3.806-3.102-.909-1.316-1.363-2.734-1.363-4.253h5.545c.079 1.347.588 2.389 1.528 3.125.939.721 2.185 1.081 3.736 1.081 1.504 0 2.647-.282 3.43-.846.784-.58 1.175-1.332 1.175-2.256Z" fill="url(#c)"/><defs><linearGradient id="b" x1="25" y1="25" x2="368.806" y2="88.749" gradientUnits="userSpaceOnUse"><stop stop-color="#fff" stop-opacity=".9"/><stop offset="1" stop-color="#fff" stop-opacity=".7"/></linearGradient><linearGradient id="c" x1="140.153" y1="64.143" x2="243.092" y2="106.496" gradientUnits="userSpaceOnUse"><stop stop-color="#65CC76"/><stop offset="1" stop-color="#60B358"/></linearGradient><filter id="a" x=".016" y=".016" width="349.968" height="349.968" filterUnits="userSpaceOnUse" color-interpolation-filters="sRGB"><feFlood flood-opacity="0" result="BackgroundImageFix"/><feGaussianBlur in="BackgroundImage" stdDeviation="11.651"/><feComposite in2="SourceAlpha" operator="in" result="effect1_backgroundBlur"/><feColorMatrix in="SourceAlpha" values="0 0 0 0 0 0 0 0 0 0 0 0 0 0 0 0 0 0 127 0" result="hardAlpha"/><feMorphology radius="4.164" operator="dilate" in="SourceAlpha" result="effect2_dropShadow"/><feOffset/><feGaussianBlur stdDeviation="10.41"/><feComposite in2="hardAlpha" operator="out"/><feColorMatrix values="0 0 0 0 0 0 0 0 0 0 0 0 0 0 0 0 0 0 0.5 0"/><feBlend in2="effect1_backgroundBlur" result="effect2_dropShadow"/><feBlend in="SourceGraphic" in2="effect2_dropShadow" result="shape"/></filter></defs></svg>