<svg width="350" height="350" fill="none" xmlns="http://www.w3.org/2000/svg"><g filter="url(#a)"><rect x="25" y="25" width="300" height="300" rx="25.328" fill="url(#b)" fill-opacity=".65" shape-rendering="crispEdges"/></g><mask id="e" style="mask-typealpha" maskUnits="userSpaceOnUse" x="25" y="25" width="300" height="300"><rect x="25" y="25" width="299.103" height="299.103" rx="25.328" fill="url(#c)"/></mask><g filter="url(#d)" mask="url(#e)"><rect x="44.444" y="-18.182" width="260.859" height="82.323" rx="2.533" fill="#fff"/><path d="M44.444-15.649a2.533 2.533 0 0 1 2.533-2.533h3.528v82.324h-3.528a2.533 2.533 0 0 1-2.533-2.533V-15.65Z" fill="#F27878"/><rect x="44.444" y="81.314" width="260.859" height="82.323" rx="2.533" fill="#fff"/><path d="M44.444 83.846a2.533 2.533 0 0 1 2.533-2.532h3.528v82.323h-3.528a2.533 2.533 0 0 1-2.533-2.533V83.846Z" fill="#F27878"/><rect x="44.444" y="180.808" width="260.859" height="82.323" rx="2.533" fill="#fff"/><path d="M44.444 183.34a2.533 2.533 0 0 1 2.533-2.532h3.528v82.323h-3.528a2.533 2.533 0 0 1-2.533-2.533V183.34Z" fill="#F27878"/><rect x="44.444" y="280.304" width="260.859" height="82.323" rx="2.533" fill="#fff"/><path d="M44.444 282.837a2.533 2.533 0 0 1 2.533-2.533h3.528v82.323h-3.528a2.533 2.533 0 0 1-2.533-2.533v-77.257Z" fill="#F27878"/></g><path d="m77.236 106.118-2.637 2.598v6.701h-1.582V96.69H74.6v10.097l9.596-10.097h1.993l-7.846 8.334 8.45 10.393h-1.929l-7.627-9.299Zm17.094 9.556c-1.184 0-2.255-.291-3.216-.874-.952-.583-1.693-1.394-2.225-2.431-.531-1.046-.797-2.217-.797-3.512v-.553c0-1.337.257-2.542.771-3.614.523-1.072 1.248-1.912 2.174-2.521a5.323 5.323 0 0 1 3.01-.926c1.689 0 3.027.579 4.013 1.736.994 1.149 1.492 2.723 1.492 4.721v.862h-9.93v.295c0 1.578.45 2.894 1.35 3.949.91 1.046 2.05 1.569 3.422 1.569.823 0 1.548-.15 2.174-.45.634-.3 1.209-.78 1.723-1.441l.965.734c-1.132 1.637-2.774 2.456-4.926 2.456Zm-.283-13.119c-1.158 0-2.135.424-2.933 1.273-.789.849-1.269 1.99-1.44 3.422h8.347v-.168c-.043-1.337-.424-2.426-1.145-3.267-.72-.84-1.663-1.26-2.83-1.26Zm13.891 13.119c-1.184 0-2.255-.291-3.216-.874-.952-.583-1.693-1.394-2.225-2.431-.532-1.046-.797-2.217-.797-3.512v-.553c0-1.337.257-2.542.771-3.614.523-1.072 1.248-1.912 2.174-2.521a5.322 5.322 0 0 1 3.01-.926c1.689 0 3.027.579 4.013 1.736.994 1.149 1.492 2.723 1.492 4.721v.862h-9.93v.295c0 1.578.45 2.894 1.351 3.949.909 1.046 2.049 1.569 3.421 1.569.823 0 1.548-.15 2.174-.45.634-.3 1.209-.78 1.723-1.441l.965.734c-1.132 1.637-2.774 2.456-4.926 2.456Zm-.283-13.119c-1.158 0-2.135.424-2.933 1.273-.789.849-1.269 1.99-1.44 3.422h8.347v-.168c-.043-1.337-.424-2.426-1.145-3.267-.72-.84-1.663-1.26-2.829-1.26Zm19.692 6.045c0 2.17-.481 3.893-1.441 5.171-.96 1.269-2.247 1.903-3.859 1.903-1.903 0-3.361-.669-4.373-2.006v7.1h-1.53V101.5h1.427l.078 1.968c1.003-1.483 2.456-2.225 4.36-2.225 1.663 0 2.967.63 3.91 1.891.952 1.26 1.428 3.009 1.428 5.247v.219Zm-1.544-.27c0-1.775-.364-3.177-1.093-4.206-.729-1.029-1.745-1.543-3.048-1.543-.944 0-1.754.227-2.431.681-.678.455-1.197 1.115-1.557 1.981v6.676c.369.797.896 1.406 1.582 1.826.686.42 1.497.63 2.431.63 1.295 0 2.303-.514 3.023-1.543.729-1.038 1.093-2.538 1.093-4.502Zm13.762-10.392v3.562h2.882v1.261h-2.882v9.273c0 .772.138 1.347.412 1.724.283.377.75.566 1.402.566.257 0 .673-.043 1.248-.129l.064 1.261c-.403.145-.952.218-1.646.218-1.055 0-1.823-.304-2.303-.913-.48-.617-.72-1.522-.72-2.714v-9.286h-2.56V101.5h2.56v-3.563h1.543Zm12.502 4.874a5.74 5.74 0 0 0-1.041-.09c-.961 0-1.775.27-2.444.81-.66.532-1.132 1.308-1.415 2.329v9.556h-1.531V101.5h1.505l.026 2.213c.815-1.647 2.122-2.47 3.923-2.47.429 0 .767.056 1.016.167l-.039 1.402Zm10.714 12.605c-.154-.437-.253-1.085-.295-1.942a5.422 5.422 0 0 1-2.071 1.633 6.33 6.33 0 0 1-2.65.566c-1.337 0-2.422-.373-3.254-1.119-.823-.746-1.235-1.689-1.235-2.829 0-1.355.562-2.427 1.685-3.216 1.132-.789 2.706-1.183 4.721-1.183h2.791v-1.582c0-.995-.309-1.775-.926-2.341-.609-.575-1.501-.862-2.676-.862-1.071 0-1.959.274-2.662.823-.703.549-1.055 1.209-1.055 1.981l-1.543-.013c0-1.106.514-2.062 1.543-2.868 1.029-.815 2.294-1.222 3.795-1.222 1.552 0 2.773.39 3.665 1.17.901.772 1.364 1.853 1.389 3.242v6.585c0 1.346.142 2.354.425 3.023v.154h-1.647Zm-4.836-1.106c1.029 0 1.947-.249 2.753-.746.814-.497 1.406-1.162 1.775-1.994v-3.061h-2.753c-1.535.017-2.735.3-3.601.849-.866.54-1.299 1.286-1.299 2.238 0 .78.287 1.428.862 1.942.583.515 1.337.772 2.263.772Zm15.319.064c1.072 0 1.968-.3 2.688-.9.729-.609 1.123-1.394 1.183-2.354h1.48a4.39 4.39 0 0 1-.798 2.328c-.489.695-1.14 1.239-1.955 1.634a5.837 5.837 0 0 1-2.598.591c-1.826 0-3.276-.634-4.347-1.903-1.064-1.269-1.595-2.976-1.595-5.119v-.463c0-1.372.24-2.586.72-3.64.48-1.055 1.166-1.87 2.058-2.444.9-.575 1.951-.862 3.151-.862 1.526 0 2.783.454 3.769 1.363.994.909 1.526 2.105 1.595 3.589h-1.48c-.068-1.089-.463-1.968-1.183-2.637-.712-.669-1.612-1.003-2.701-1.003-1.389 0-2.469.502-3.241 1.505-.763 1.003-1.145 2.409-1.145 4.219v.45c0 1.775.382 3.16 1.145 4.154.772.995 1.856 1.492 3.254 1.492Zm11.743-5.968-1.762 1.698v5.312h-1.544V95.661h1.544v12.643l1.453-1.569 5.325-5.235h1.942l-5.903 5.865 6.418 8.052h-1.839l-5.634-7.01Zm15.164-.154c0-1.338.258-2.543.772-3.614.523-1.072 1.256-1.904 2.199-2.496.952-.6 2.028-.9 3.229-.9 1.852 0 3.353.652 4.502 1.955 1.149 1.295 1.723 3.014 1.723 5.158v.321c0 1.347-.261 2.56-.785 3.64-.514 1.072-1.243 1.9-2.186 2.483-.943.583-2.019.874-3.228.874-1.844 0-3.345-.647-4.502-1.942-1.149-1.303-1.724-3.027-1.724-5.17v-.309Zm1.544.424c0 1.664.429 3.031 1.286 4.103.866 1.064 1.998 1.595 3.396 1.595 1.389 0 2.512-.531 3.369-1.595.866-1.072 1.299-2.482 1.299-4.231v-.296c0-1.063-.197-2.037-.591-2.92-.395-.883-.948-1.565-1.659-2.045-.712-.489-1.527-.733-2.444-.733-1.372 0-2.491.54-3.357 1.621-.866 1.071-1.299 2.478-1.299 4.218v.283Zm15.177 6.74v-12.656h-2.302V101.5h2.302v-1.685c0-1.423.36-2.516 1.08-3.28.729-.763 1.741-1.144 3.036-1.144.583 0 1.127.073 1.633.218l-.115 1.287a6.01 6.01 0 0 0-1.402-.155c-.849 0-1.51.266-1.981.798-.472.523-.708 1.269-.708 2.238v1.723h3.319v1.261h-3.319v12.656h-1.543Zm18.431-2.212 4.065-11.705h1.659l-5.942 16.284-.309.72c-.763 1.689-1.942 2.534-3.537 2.534-.369 0-.763-.06-1.183-.18l-.013-1.274.797.077c.755 0 1.364-.188 1.827-.565.471-.369.87-1.008 1.196-1.917l.681-1.878-5.247-13.801h1.685l4.321 11.705Zm7.062-4.952c0-1.338.257-2.543.771-3.614.523-1.072 1.256-1.904 2.2-2.496.951-.6 2.028-.9 3.228-.9 1.852 0 3.353.652 4.502 1.955 1.149 1.295 1.723 3.014 1.723 5.158v.321c0 1.347-.261 2.56-.784 3.64-.515 1.072-1.244 1.9-2.187 2.483-.943.583-2.019.874-3.228.874-1.844 0-3.344-.647-4.502-1.942-1.149-1.303-1.723-3.027-1.723-5.17v-.309Zm1.543.424c0 1.664.429 3.031 1.286 4.103.866 1.064 1.998 1.595 3.396 1.595 1.389 0 2.512-.531 3.37-1.595.866-1.072 1.299-2.482 1.299-4.231v-.296c0-1.063-.198-2.037-.592-2.92-.394-.883-.947-1.565-1.659-2.045-.712-.489-1.526-.733-2.444-.733-1.372 0-2.491.54-3.357 1.621-.866 1.071-1.299 2.478-1.299 4.218v.283Zm23.023 4.978c-.926 1.346-2.405 2.019-4.437 2.019-1.484 0-2.611-.429-3.383-1.286-.772-.866-1.166-2.144-1.183-3.833V101.5h1.53v8.862c0 2.65 1.072 3.975 3.216 3.975 2.229 0 3.64-.922 4.231-2.766V101.5h1.544v13.917h-1.492l-.026-1.762Zm11.962-10.843a5.752 5.752 0 0 0-1.042-.09c-.961 0-1.775.27-2.444.81-.66.532-1.132 1.308-1.415 2.329v9.556h-1.53V101.5h1.505l.025 2.213c.815-1.647 2.122-2.47 3.923-2.47.429 0 .768.056 1.016.167l-.038 1.402ZM95.474 132.5l.052 2.264c.514-.84 1.157-1.471 1.93-1.891.77-.42 1.628-.63 2.572-.63 2.195 0 3.588.9 4.18 2.701.497-.866 1.162-1.531 1.993-1.994a5.492 5.492 0 0 1 2.753-.707c2.984 0 4.506 1.629 4.566 4.888v9.286h-1.544v-9.171c-.008-1.243-.278-2.165-.81-2.765-.523-.6-1.38-.9-2.572-.9-1.106.017-2.041.377-2.804 1.08-.763.695-1.188 1.544-1.274 2.547v9.209h-1.543v-9.286c-.009-1.192-.292-2.08-.849-2.663-.549-.591-1.398-.887-2.547-.887-.968 0-1.8.278-2.495.836-.694.549-1.209 1.367-1.543 2.456v9.544h-1.544V132.5h1.48Zm27.345 14.174c-1.183 0-2.255-.291-3.215-.874-.952-.583-1.694-1.394-2.226-2.431-.531-1.046-.797-2.217-.797-3.512v-.553c0-1.337.257-2.542.772-3.614.523-1.072 1.247-1.912 2.173-2.521.927-.617 1.93-.926 3.01-.926 1.689 0 3.027.579 4.013 1.736.995 1.149 1.492 2.723 1.492 4.721v.862h-9.929v.295c0 1.578.45 2.894 1.35 3.949.909 1.046 2.049 1.569 3.421 1.569.824 0 1.548-.15 2.174-.45.635-.3 1.209-.78 1.724-1.441l.964.734c-1.132 1.637-2.774 2.456-4.926 2.456Zm-.283-13.119c-1.157 0-2.135.424-2.932 1.273-.789.849-1.269 1.99-1.441 3.422h8.348v-.168c-.043-1.337-.425-2.426-1.145-3.267-.72-.84-1.664-1.26-2.83-1.26Zm9.904-1.055.051 2.264c.515-.84 1.158-1.471 1.93-1.891.771-.42 1.629-.63 2.572-.63 2.195 0 3.589.9 4.18 2.701.498-.866 1.162-1.531 1.994-1.994a5.489 5.489 0 0 1 2.752-.707c2.984 0 4.506 1.629 4.566 4.888v9.286h-1.543v-9.171c-.009-1.243-.279-2.165-.81-2.765-.523-.6-1.381-.9-2.573-.9-1.106.017-2.041.377-2.804 1.08-.763.695-1.187 1.544-1.273 2.547v9.209h-1.544v-9.286c-.008-1.192-.291-2.08-.848-2.663-.549-.591-1.398-.887-2.547-.887-.969 0-1.801.278-2.495.836-.695.549-1.209 1.367-1.544 2.456v9.544h-1.543V132.5h1.479Zm33.158 7.1c0 2.17-.48 3.893-1.44 5.171-.961 1.269-2.251 1.903-3.872 1.903-1.938 0-3.404-.72-4.399-2.161l-.064 1.904h-1.44v-19.756h1.53v7.859c.978-1.518 2.427-2.277 4.347-2.277 1.647 0 2.946.63 3.898 1.891.96 1.252 1.44 2.997 1.44 5.235v.231Zm-1.543-.27c0-1.835-.356-3.25-1.068-4.244-.711-1.004-1.715-1.505-3.009-1.505-.987 0-1.823.244-2.509.733-.686.48-1.204 1.187-1.556 2.122v6.277c.772 1.749 2.135 2.624 4.09 2.624 1.269 0 2.26-.502 2.971-1.505.721-1.004 1.081-2.504 1.081-4.502Zm10.341 7.344c-1.183 0-2.255-.291-3.216-.874-.951-.583-1.693-1.394-2.225-2.431-.531-1.046-.797-2.217-.797-3.512v-.553c0-1.337.257-2.542.771-3.614.524-1.072 1.248-1.912 2.174-2.521a5.322 5.322 0 0 1 3.01-.926c1.689 0 3.027.579 4.013 1.736.994 1.149 1.492 2.723 1.492 4.721v.862h-9.93v.295c0 1.578.451 2.894 1.351 3.949.909 1.046 2.049 1.569 3.421 1.569.823 0 1.548-.15 2.174-.45.634-.3 1.209-.78 1.723-1.441l.965.734c-1.132 1.637-2.774 2.456-4.926 2.456Zm-.283-13.119c-1.158 0-2.135.424-2.933 1.273-.789.849-1.269 1.99-1.44 3.422h8.347v-.168c-.043-1.337-.424-2.426-1.144-3.267-.721-.84-1.664-1.26-2.83-1.26Zm14.933.257a5.752 5.752 0 0 0-1.042-.09c-.96 0-1.775.27-2.444.81-.66.532-1.132 1.308-1.415 2.329v9.556h-1.53V132.5h1.505l.025 2.213c.815-1.647 2.122-2.47 3.923-2.47.429 0 .768.056 1.016.167l-.038 1.402Zm10.778 9.068c0-.763-.309-1.376-.926-1.839-.609-.463-1.531-.824-2.765-1.081-1.235-.266-2.195-.566-2.881-.9-.678-.343-1.184-.759-1.518-1.248-.326-.488-.489-1.08-.489-1.775 0-1.097.459-2.002 1.376-2.714.918-.72 2.093-1.08 3.525-1.08 1.552 0 2.795.386 3.73 1.158.943.763 1.414 1.762 1.414 2.996h-1.543c0-.814-.343-1.492-1.029-2.032-.677-.54-1.535-.81-2.572-.81-1.012 0-1.827.227-2.444.682-.609.446-.913 1.029-.913 1.749 0 .694.253 1.235.758 1.621.515.377 1.445.724 2.791 1.041 1.355.318 2.367.656 3.036 1.016.677.361 1.179.794 1.505 1.299.326.506.489 1.119.489 1.84 0 1.174-.476 2.113-1.428 2.817-.943.703-2.178 1.054-3.704 1.054-1.621 0-2.937-.39-3.949-1.17-1.003-.789-1.505-1.784-1.505-2.984h1.544c.06.9.437 1.603 1.131 2.109.703.498 1.63.746 2.779.746 1.071 0 1.937-.236 2.598-.707.66-.472.99-1.068.99-1.788Zm14.753.334.231 1.197.309-1.261 3.344-10.65h1.312l3.306 10.56.36 1.466.296-1.35 2.855-10.676h1.595l-4.052 13.917h-1.312l-3.575-11.036-.167-.758-.168.771-3.511 11.023h-1.312l-4.039-13.917h1.582l2.946 10.714Zm18.251 3.203h-1.543V132.5h1.543v13.917Zm-1.814-17.943c0-.291.095-.535.283-.733.189-.205.446-.308.772-.308s.583.103.772.308a.998.998 0 0 1 .296.733 1 1 0 0 1-.296.734c-.189.197-.446.295-.772.295s-.583-.098-.772-.295a1.025 1.025 0 0 1-.283-.734Zm8.399.463v3.563h2.881v1.261h-2.881v9.273c0 .772.138 1.347.412 1.724.283.377.75.566 1.402.566.257 0 .673-.043 1.248-.129l.064 1.261c-.403.145-.952.218-1.646.218-1.055 0-1.823-.304-2.303-.913-.48-.617-.72-1.522-.72-2.714v-9.286h-2.56V132.5h2.56v-3.563h1.543Zm7.602 5.917c.506-.832 1.153-1.475 1.942-1.929a5.085 5.085 0 0 1 2.585-.682c1.492 0 2.603.42 3.332 1.261.728.84 1.097 2.1 1.106 3.781v9.132h-1.531v-9.145c-.008-1.243-.274-2.169-.797-2.778-.515-.609-1.342-.913-2.483-.913-.952 0-1.796.3-2.534.9-.728.592-1.269 1.393-1.62 2.405v9.531h-1.531v-19.756h1.531v8.193Z" fill="#000"/><path d="M90.784 194.877H77.531l-2.773 7.966h-6.18l12.924-34.213h5.334l12.948 34.213H93.58l-2.796-7.966ZM79.2 190.083h9.916l-4.958-14.192-4.958 14.192Zm22.863-.141c0-3.916.909-7.057 2.726-9.422 1.817-2.381 4.253-3.572 7.308-3.572 2.694 0 4.872.94 6.532 2.82V166.75h5.71v36.093h-5.169l-.282-2.632c-1.708 2.068-3.987 3.102-6.838 3.102-2.977 0-5.389-1.199-7.238-3.595-1.833-2.397-2.749-5.656-2.749-9.776Zm5.71.494c0 2.585.494 4.605 1.48 6.062 1.003 1.442 2.421 2.162 4.254 2.162 2.334 0 4.041-1.042 5.122-3.125v-10.856c-1.049-2.037-2.741-3.055-5.075-3.055-1.849 0-3.275.736-4.277 2.209-1.003 1.457-1.504 3.658-1.504 6.603Zm31.487 5.169 5.381-18.187h5.898l-8.811 25.425h-4.959l-8.882-25.425h5.922l5.451 18.187Zm29.678 7.238c-.25-.486-.47-1.277-.658-2.374-1.817 1.896-4.041 2.844-6.673 2.844-2.554 0-4.637-.729-6.251-2.186-1.613-1.456-2.42-3.258-2.42-5.404 0-2.71 1.003-4.786 3.008-6.227 2.021-1.457 4.903-2.185 8.647-2.185h3.501v-1.669c0-1.316-.368-2.365-1.104-3.148-.736-.799-1.857-1.199-3.36-1.199-1.301 0-2.366.329-3.196.987-.83.642-1.245 1.465-1.245 2.467h-5.71c0-1.394.462-2.694 1.386-3.9.924-1.222 2.177-2.178 3.76-2.867 1.597-.689 3.375-1.034 5.334-1.034 2.976 0 5.349.752 7.119 2.256 1.771 1.488 2.679 3.587 2.726 6.297v11.467c0 2.287.321 4.112.964 5.475v.4h-5.828Zm-6.274-4.112a6.43 6.43 0 0 0 3.172-.823c1.003-.548 1.755-1.284 2.256-2.209v-4.793h-3.078c-2.115 0-3.705.368-4.77 1.104-1.065.736-1.598 1.778-1.598 3.125 0 1.097.36 1.974 1.081 2.632.736.642 1.715.964 2.937.964Zm22.417-21.313.165 2.937c1.88-2.271 4.347-3.407 7.402-3.407 5.294 0 7.989 3.031 8.083 9.094v16.801h-5.71v-16.472c0-1.614-.353-2.804-1.058-3.572-.689-.783-1.825-1.175-3.407-1.175-2.303 0-4.018 1.042-5.146 3.125v18.094h-5.71v-25.425h5.381Zm31.934 21.336c1.425 0 2.608-.415 3.548-1.245.94-.831 1.441-1.857 1.504-3.078h5.381c-.063 1.582-.556 3.062-1.48 4.441-.925 1.363-2.178 2.443-3.76 3.242-1.582.799-3.29 1.199-5.123 1.199-3.556 0-6.375-1.152-8.459-3.454-2.083-2.303-3.125-5.483-3.125-9.541v-.587c0-3.869 1.034-6.963 3.102-9.282 2.067-2.334 4.887-3.501 8.459-3.501 3.023 0 5.483.885 7.378 2.655 1.911 1.755 2.914 4.065 3.008 6.932h-5.381c-.063-1.457-.564-2.655-1.504-3.595-.924-.94-2.107-1.41-3.548-1.41-1.849 0-3.274.674-4.277 2.021-1.002 1.332-1.511 3.36-1.527 6.086v.916c0 2.757.493 4.817 1.48 6.18 1.003 1.348 2.444 2.021 4.324 2.021Zm25.942 4.559c-3.619 0-6.556-1.136-8.812-3.407-2.24-2.288-3.36-5.327-3.36-9.118v-.705c0-2.537.485-4.801 1.457-6.791.986-2.005 2.365-3.563 4.135-4.676 1.77-1.112 3.744-1.668 5.922-1.668 3.462 0 6.133 1.104 8.012 3.313 1.896 2.209 2.844 5.334 2.844 9.376v2.303h-16.613c.172 2.099.869 3.759 2.091 4.981 1.238 1.222 2.788 1.833 4.653 1.833 2.616 0 4.746-1.057 6.391-3.172l3.078 2.937c-1.018 1.52-2.381 2.702-4.088 3.548-1.692.831-3.596 1.246-5.71 1.246Zm-.682-21.783c-1.566 0-2.835.548-3.806 1.645-.956 1.097-1.567 2.624-1.833 4.582h10.879v-.423c-.125-1.911-.634-3.352-1.527-4.323-.893-.987-2.131-1.481-3.713-1.481Zm14.263 8.412c0-3.916.909-7.057 2.726-9.422 1.817-2.381 4.253-3.572 7.308-3.572 2.694 0 4.872.94 6.532 2.82V166.75h5.71v36.093h-5.169l-.282-2.632c-1.708 2.068-3.987 3.102-6.838 3.102-2.976 0-5.389-1.199-7.237-3.595-1.833-2.397-2.75-5.656-2.75-9.776Zm5.71.494c0 2.585.494 4.605 1.481 6.062 1.002 1.442 2.42 2.162 4.253 2.162 2.334 0 4.042-1.042 5.122-3.125v-10.856c-1.049-2.037-2.741-3.055-5.075-3.055-1.849 0-3.274.736-4.277 2.209-1.002 1.457-1.504 3.658-1.504 6.603Zm-165.049 55.66h15.532v4.747H91.254V216.63h5.945v29.466Zm18.469-8.201c0-2.49.494-4.731 1.481-6.72.987-2.005 2.373-3.54 4.159-4.606 1.786-1.08 3.838-1.621 6.156-1.621 3.431 0 6.212 1.104 8.342 3.313 2.146 2.209 3.305 5.138 3.478 8.788l.023 1.34c0 2.506-.485 4.746-1.457 6.72-.955 1.974-2.334 3.501-4.135 4.582-1.786 1.081-3.854 1.622-6.204 1.622-3.587 0-6.462-1.191-8.623-3.572-2.147-2.397-3.22-5.585-3.22-9.564v-.282Zm5.71.494c0 2.616.541 4.668 1.622 6.156 1.081 1.473 2.584 2.209 4.511 2.209s3.423-.752 4.488-2.256c1.081-1.504 1.622-3.705 1.622-6.603 0-2.569-.556-4.605-1.669-6.109-1.096-1.504-2.592-2.256-4.488-2.256-1.864 0-3.344.744-4.441 2.232-1.096 1.473-1.645 3.682-1.645 6.627Zm21.759-.447c0-3.947.925-7.096 2.773-9.446 1.864-2.365 4.332-3.548 7.402-3.548 2.898 0 5.177 1.01 6.838 3.031l.258-2.561h5.146v24.649c0 3.337-1.041 5.969-3.125 7.896-2.068 1.926-4.864 2.89-8.389 2.89-1.864 0-3.689-.392-5.475-1.175-1.77-.768-3.117-1.778-4.041-3.031l2.702-3.431c1.755 2.084 3.916 3.125 6.486 3.125 1.895 0 3.391-.517 4.488-1.551 1.096-1.018 1.644-2.522 1.644-4.511v-1.716c-1.644 1.833-3.838 2.75-6.579 2.75-2.976 0-5.412-1.183-7.308-3.548-1.88-2.366-2.82-5.64-2.82-9.823Zm5.687.494c0 2.553.517 4.566 1.551 6.039 1.049 1.457 2.498 2.185 4.347 2.185 2.303 0 4.01-.987 5.122-2.961v-11.185c-1.08-1.926-2.772-2.89-5.075-2.89-1.88 0-3.345.744-4.394 2.232-1.034 1.489-1.551 3.682-1.551 6.58Zm21.618-.494c0-3.947.924-7.096 2.773-9.446 1.864-2.365 4.331-3.548 7.402-3.548 2.898 0 5.177 1.01 6.838 3.031l.258-2.561h5.146v24.649c0 3.337-1.042 5.969-3.125 7.896-2.068 1.926-4.864 2.89-8.389 2.89-1.864 0-3.689-.392-5.475-1.175-1.77-.768-3.117-1.778-4.042-3.031l2.703-3.431c1.754 2.084 3.916 3.125 6.485 3.125 1.896 0 3.392-.517 4.488-1.551 1.097-1.018 1.645-2.522 1.645-4.511v-1.716c-1.645 1.833-3.838 2.75-6.579 2.75-2.977 0-5.413-1.183-7.308-3.548-1.88-2.366-2.82-5.64-2.82-9.823Zm5.687.494c0 2.553.516 4.566 1.55 6.039 1.05 1.457 2.499 2.185 4.348 2.185 2.302 0 4.01-.987 5.122-2.961v-11.185c-1.081-1.926-2.773-2.89-5.075-2.89-1.88 0-3.345.744-4.395 2.232-1.034 1.489-1.55 3.682-1.55 6.58Zm28.691 12.407h-5.71v-25.425h5.71v25.425Zm-6.063-32.028c0-.877.274-1.606.822-2.185.564-.58 1.363-.87 2.397-.87 1.034 0 1.833.29 2.397.87.564.579.846 1.308.846 2.185 0 .862-.282 1.582-.846 2.162-.564.564-1.363.846-2.397.846-1.034 0-1.833-.282-2.397-.846-.548-.58-.822-1.3-.822-2.162Zm17.6 6.603.164 2.937c1.88-2.271 4.348-3.407 7.402-3.407 5.295 0 7.99 3.031 8.084 9.094v16.801h-5.71v-16.472c0-1.614-.353-2.804-1.058-3.572-.689-.783-1.825-1.175-3.407-1.175-2.303 0-4.018 1.042-5.146 3.125v18.094h-5.71v-25.425h5.381Zm20.49 12.524c0-3.947.924-7.096 2.773-9.446 1.864-2.365 4.331-3.548 7.402-3.548 2.898 0 5.177 1.01 6.838 3.031l.258-2.561h5.146v24.649c0 3.337-1.042 5.969-3.125 7.896-2.068 1.926-4.864 2.89-8.389 2.89-1.864 0-3.689-.392-5.475-1.175-1.77-.768-3.117-1.778-4.041-3.031l2.702-3.431c1.754 2.084 3.916 3.125 6.485 3.125 1.896 0 3.392-.517 4.488-1.551 1.097-1.018 1.645-2.522 1.645-4.511v-1.716c-1.645 1.833-3.838 2.75-6.579 2.75-2.977 0-5.413-1.183-7.308-3.548-1.88-2.366-2.82-5.64-2.82-9.823Zm5.687.494c0 2.553.517 4.566 1.551 6.039 1.049 1.457 2.498 2.185 4.347 2.185 2.302 0 4.01-.987 5.122-2.961v-11.185c-1.081-1.926-2.773-2.89-5.075-2.89-1.88 0-3.345.744-4.394 2.232-1.034 1.489-1.551 3.682-1.551 6.58Z" fill="url(#f)"/><defs><linearGradient id="b" x1="25" y1="25" x2="368.806" y2="88.749" gradientUnits="userSpaceOnUse"><stop stop-color="#fff" stop-opacity=".9"/><stop offset="1" stop-color="#fff" stop-opacity=".7"/></linearGradient><linearGradient id="c" x1="25" y1="159.319" x2="324.103" y2="160.452" gradientUnits="userSpaceOnUse"><stop stop-color="#181818" stop-opacity=".5"/><stop offset="1" stop-color="#181818" stop-opacity="0"/></linearGradient><linearGradient id="f" x1="140.049" y1="162.843" x2="227.476" y2="216.799" gradientUnits="userSpaceOnUse"><stop stop-color="#D96B6B"/><stop offset="1" stop-color="#CC7665"/></linearGradient><filter id="a" x=".016" y=".016" width="349.968" height="349.968" filterUnits="userSpaceOnUse" color-interpolation-filters="sRGB"><feFlood flood-opacity="0" result="BackgroundImageFix"/><feGaussianBlur in="BackgroundImage" stdDeviation="11.651"/><feComposite in2="SourceAlpha" operator="in" result="effect1_backgroundBlur"/><feColorMatrix in="SourceAlpha" values="0 0 0 0 0 0 0 0 0 0 0 0 0 0 0 0 0 0 127 0" result="hardAlpha"/><feMorphology radius="4.164" operator="dilate" in="SourceAlpha" result="effect2_dropShadow"/><feOffset/><feGaussianBlur stdDeviation="10.41"/><feComposite in2="hardAlpha" operator="out"/><feColorMatrix values="0 0 0 0 0 0 0 0 0 0 0 0 0 0 0 0 0 0 0.5 0"/><feBlend in2="effect1_backgroundBlur" result="effect2_dropShadow"/><feBlend in="SourceGraphic" in2="effect2_dropShadow" result="shape"/></filter><filter id="d" x="36.846" y="-25.78" width="276.056" height="396.006" filterUnits="userSpaceOnUse" color-interpolation-filters="sRGB"><feFlood flood-opacity="0" result="BackgroundImageFix"/><feColorMatrix in="SourceAlpha" values="0 0 0 0 0 0 0 0 0 0 0 0 0 0 0 0 0 0 127 0" result="hardAlpha"/><feOffset/><feGaussianBlur stdDeviation="3.799"/><feColorMatrix values="0 0 0 0 0.95 0 0 0 0 0.468777 0 0 0 0 0.468777 0 0 0 1 0"/><feBlend in2="BackgroundImageFix" result="effect1_dropShadow"/><feBlend in="SourceGraphic" in2="effect1_dropShadow" result="shape"/></filter></defs></svg>