<svg width="350" height="250" fill="none" xmlns="http://www.w3.org/2000/svg"><g filter="url(#a)"><rect x="25" y="25" width="300" height="200" rx="12.664" fill="url(#b)" fill-opacity=".65" shape-rendering="crispEdges"/></g><path d="M89.819 68.48h-4.367v4.373h-.791V63.49h5.8v.675h-5.009v3.64h4.367v.675Zm6.405 3.492c-.463.674-1.203 1.01-2.219 1.01-.742 0-1.305-.214-1.691-.643-.386-.433-.583-1.072-.592-1.916v-4.528h.766v4.431c0 1.325.535 1.987 1.607 1.987 1.115 0 1.82-.46 2.116-1.382v-5.036h.772v6.959h-.746l-.013-.882Zm3.627.882h-.772v-9.879h.772v9.878Zm2.958 0h-.771v-9.879h.771v9.878Zm4.303-1.107 2.032-5.852h.829l-2.971 8.142-.154.36c-.382.845-.971 1.267-1.769 1.267-.184 0-.381-.03-.591-.09l-.007-.637.399.039c.377 0 .682-.095.913-.283.236-.185.435-.504.598-.958l.341-.94-2.624-6.9h.843l2.161 5.852Zm11.653 1.106c-.078-.218-.127-.542-.148-.97-.27.351-.615.623-1.036.816a3.168 3.168 0 0 1-1.324.283c-.669 0-1.212-.186-1.627-.56a1.826 1.826 0 0 1-.618-1.414c0-.678.281-1.213.843-1.608.566-.394 1.352-.592 2.36-.592h1.395v-.79c0-.498-.154-.888-.463-1.171-.304-.287-.75-.43-1.337-.43-.536 0-.98.136-1.332.41-.351.275-.527.605-.527.991l-.772-.006c0-.553.258-1.031.772-1.434.515-.408 1.147-.612 1.897-.612.776 0 1.387.196 1.833.586.45.386.682.926.695 1.62v3.293c0 .673.07 1.177.212 1.511v.078h-.823Zm-2.418-.553c.514 0 .973-.124 1.376-.373.407-.248.703-.58.887-.996V69.4h-1.376c-.767.008-1.368.15-1.801.424-.433.27-.649.643-.649 1.118 0 .39.143.714.431.972.291.257.669.385 1.132.385Zm9.563-.328c-.464.674-1.203 1.01-2.219 1.01-.742 0-1.306-.214-1.692-.643-.385-.433-.583-1.072-.591-1.916v-4.528h.765v4.431c0 1.325.536 1.987 1.608 1.987 1.115 0 1.82-.46 2.116-1.382v-5.036h.771v6.959h-.746l-.012-.882Zm3.961-7.858v1.781h1.441v.63h-1.441v4.637c0 .386.069.673.206.862.141.189.375.283.701.283.128 0 .336-.022.624-.064l.032.63c-.202.073-.476.11-.823.11-.528 0-.911-.153-1.152-.458-.24-.308-.36-.76-.36-1.356v-4.644h-1.279v-.63h1.279v-1.781h.772Zm2.482 5.157c0-.668.129-1.27.386-1.807a2.974 2.974 0 0 1 1.1-1.247c.476-.3 1.014-.45 1.614-.45.926 0 1.676.325 2.251.977.574.647.862 1.507.862 2.579v.16c0 .674-.131 1.28-.393 1.82-.257.537-.621.95-1.093 1.242-.471.291-1.009.437-1.614.437-.922 0-1.672-.324-2.251-.97-.574-.653-.862-1.514-.862-2.586v-.155Zm.772.213c0 .831.214 1.515.643 2.051.433.532.999.798 1.698.798.695 0 1.256-.266 1.685-.798.433-.536.649-1.241.649-2.116v-.148c0-.531-.098-1.018-.295-1.46-.198-.441-.474-.782-.83-1.022a2.106 2.106 0 0 0-1.222-.367c-.686 0-1.245.27-1.678.81-.433.537-.65 1.24-.65 2.11v.142Zm7.737-3.589.025 1.132a2.58 2.58 0 0 1 .965-.945c.386-.21.815-.316 1.286-.316 1.098 0 1.794.45 2.09 1.351.249-.433.581-.765.997-.997a2.743 2.743 0 0 1 1.376-.354c1.492 0 2.253.815 2.283 2.444v4.644h-.771v-4.586c-.005-.621-.14-1.082-.406-1.383-.261-.3-.69-.45-1.286-.45-.553.009-1.02.189-1.402.54a1.884 1.884 0 0 0-.636 1.274v4.605h-.772V68.21c-.004-.596-.146-1.04-.425-1.33-.274-.297-.698-.445-1.273-.445-.484 0-.9.14-1.248.418-.347.275-.604.684-.771 1.229v4.772h-.772v-6.959h.74Zm15.37 6.959c-.077-.22-.127-.543-.148-.972-.27.352-.615.624-1.036.817a3.165 3.165 0 0 1-1.324.283c-.669 0-1.212-.186-1.627-.56a1.826 1.826 0 0 1-.618-1.414c0-.678.281-1.213.843-1.608.566-.394 1.352-.592 2.36-.592h1.395v-.79c0-.498-.154-.888-.463-1.171-.304-.287-.75-.43-1.337-.43-.536 0-.98.136-1.332.41-.351.275-.527.605-.527.991l-.772-.006c0-.553.258-1.031.772-1.434.515-.408 1.147-.612 1.897-.612.776 0 1.387.196 1.833.586.45.386.682.926.695 1.62v3.293c0 .673.07 1.177.212 1.511v.078h-.823Zm-2.418-.554c.514 0 .973-.124 1.376-.373.407-.248.703-.58.887-.996V69.4h-1.376c-.767.008-1.368.15-1.801.424-.433.27-.649.643-.649 1.118 0 .39.144.714.431.972.291.257.669.385 1.132.385Zm6.283-8.186v1.781h1.44v.63h-1.44v4.637c0 .386.068.673.206.862.141.189.375.283.701.283.128 0 .336-.022.623-.064l.033.63c-.202.073-.476.11-.824.11-.527 0-.911-.153-1.151-.458-.24-.308-.36-.76-.36-1.356v-4.644h-1.28v-.63h1.28v-1.781h.772Zm5.73 8.868a3.036 3.036 0 0 1-1.608-.437 2.994 2.994 0 0 1-1.113-1.216 3.83 3.83 0 0 1-.398-1.755v-.277c0-.669.128-1.271.386-1.807a3.09 3.09 0 0 1 1.086-1.26 2.661 2.661 0 0 1 1.505-.464c.845 0 1.514.29 2.007.869.497.574.746 1.361.746 2.36v.43h-4.965v.149c0 .789.225 1.447.675 1.974.455.523 1.025.785 1.711.785.412 0 .774-.075 1.087-.225.317-.15.604-.39.862-.72l.482.366c-.566.819-1.387 1.228-2.463 1.228Zm-.142-6.56c-.578 0-1.067.213-1.466.637-.394.425-.634.995-.72 1.71h4.174v-.083c-.022-.669-.213-1.213-.573-1.633-.36-.42-.832-.63-1.415-.63Zm3.943 2.888c0-1.08.24-1.94.72-2.579.484-.643 1.14-.965 1.968-.965.939 0 1.655.371 2.148 1.113v-3.904h.765v9.878h-.72l-.032-.926c-.494.704-1.218 1.055-2.174 1.055-.802 0-1.449-.321-1.942-.965-.489-.647-.733-1.52-.733-2.617v-.09Zm.778.135c0 .888.178 1.589.533 2.103.356.51.858.765 1.505.765.948 0 1.621-.418 2.02-1.254v-3.267c-.399-.904-1.068-1.357-2.007-1.357-.647 0-1.151.255-1.511.766-.36.506-.54 1.254-.54 2.244Z" fill="#000"/><path d="M101.927 119.3h-4.693l-12.04-19.163V119.3h-4.693V92.29h4.693l12.077 19.237V92.29h4.656v27.01Zm19.664-6.957c0-1.187-.42-2.102-1.261-2.745-.829-.643-2.332-1.293-4.508-1.948-2.177-.656-3.908-1.385-5.195-2.189-2.461-1.546-3.691-3.562-3.691-6.048 0-2.176.884-3.97 2.653-5.38 1.781-1.41 4.087-2.115 6.919-2.115 1.88 0 3.556.347 5.027 1.04 1.472.692 2.629 1.681 3.47 2.968.84 1.273 1.261 2.69 1.261 4.248h-4.675c0-1.41-.445-2.51-1.336-3.302-.878-.804-2.139-1.206-3.784-1.206-1.533 0-2.727.328-3.58.983-.841.656-1.262 1.57-1.262 2.746 0 .989.458 1.818 1.373 2.485.915.656 2.424 1.299 4.526 1.93 2.103.618 3.791 1.329 5.065 2.133 1.274.792 2.207 1.707 2.801 2.746.594 1.026.891 2.232.891 3.617 0 2.251-.866 4.044-2.598 5.38-1.719 1.323-4.056 1.985-7.012 1.985-1.954 0-3.753-.359-5.398-1.076-1.633-.73-2.907-1.732-3.822-3.005-.903-1.274-1.354-2.758-1.354-4.453h4.693c0 1.534.508 2.721 1.522 3.562 1.014.841 2.467 1.262 4.359 1.262 1.633 0 2.857-.328 3.673-.984.829-.667 1.243-1.545 1.243-2.634Zm24.376-4.489h-10.871V119.3h-4.693V92.29h17.16v3.784h-12.467v8.033h10.871v3.747Zm26.51 4.767 4.155-20.331h4.656l-6.233 27.01h-4.489l-5.139-19.72-5.25 19.72h-4.508l-6.233-27.01h4.656l4.193 20.294 5.157-20.294h3.933l5.102 20.331ZM41.061 130.29l7.792 20.702 7.773-20.702h6.066v27.01h-4.675v-8.905l.464-11.909-7.977 20.814h-3.358l-7.958-20.796.463 11.891v8.905h-4.675v-27.01h6.085Zm25.916 16.788c0-1.966.39-3.735 1.169-5.305.779-1.583 1.873-2.795 3.283-3.636 1.41-.854 3.03-1.28 4.86-1.28 2.709 0 4.904.871 6.586 2.615 1.695 1.744 2.61 4.057 2.746 6.938l.018 1.058c0 1.979-.383 3.747-1.15 5.305-.754 1.559-1.843 2.764-3.265 3.618-1.41.853-3.042 1.28-4.897 1.28-2.832 0-5.102-.94-6.808-2.82-1.695-1.892-2.542-4.409-2.542-7.55v-.223Zm4.508.39c0 2.065.427 3.685 1.28 4.86.853 1.163 2.04 1.744 3.562 1.744 1.52 0 2.702-.594 3.543-1.781.853-1.187 1.28-2.925 1.28-5.213 0-2.028-.44-3.636-1.317-4.823-.866-1.187-2.047-1.781-3.543-1.781-1.472 0-2.64.587-3.507 1.762-.865 1.163-1.298 2.907-1.298 5.232Zm17.123-.353c0-3.092.717-5.571 2.151-7.439 1.435-1.879 3.358-2.819 5.77-2.819 2.127 0 3.846.742 5.157 2.226v-10.278h4.508V157.3h-4.081l-.223-2.078c-1.348 1.633-3.147 2.449-5.398 2.449-2.35 0-4.255-.946-5.714-2.838-1.447-1.893-2.17-4.465-2.17-7.718Zm4.507.39c0 2.04.39 3.636 1.17 4.786.79 1.138 1.91 1.707 3.357 1.707 1.843 0 3.191-.823 4.044-2.468v-8.57c-.829-1.608-2.164-2.412-4.007-2.412-1.46 0-2.585.582-3.376 1.744-.792 1.15-1.188 2.888-1.188 5.213Zm26.621 10.166c-2.857 0-5.176-.897-6.957-2.69-1.768-1.806-2.652-4.205-2.652-7.198v-.556c0-2.004.383-3.791 1.15-5.362.779-1.583 1.867-2.813 3.265-3.691 1.397-.878 2.956-1.317 4.675-1.317 2.733 0 4.841.871 6.325 2.615 1.497 1.744 2.245 4.211 2.245 7.402v1.818h-13.115c.136 1.657.686 2.968 1.651 3.933.977.965 2.201 1.447 3.673 1.447 2.065 0 3.747-.835 5.046-2.504l2.43 2.318c-.804 1.2-1.88 2.134-3.228 2.802-1.336.655-2.838.983-4.508.983Zm-.538-17.197c-1.237 0-2.238.433-3.005 1.299-.755.865-1.237 2.071-1.447 3.617h8.589v-.334c-.099-1.509-.501-2.646-1.206-3.413-.705-.779-1.682-1.169-2.931-1.169Zm22.614.872a11.155 11.155 0 0 0-1.837-.148c-2.065 0-3.456.791-4.174 2.374V157.3h-4.508v-20.072h4.304l.111 2.244c1.089-1.744 2.598-2.615 4.527-2.615.643 0 1.175.086 1.595.259l-.018 4.23Zm14.284 15.954c-.198-.384-.371-1.008-.519-1.874-1.435 1.497-3.191 2.245-5.269 2.245-2.016 0-3.661-.575-4.934-1.725-1.274-1.151-1.911-2.573-1.911-4.267 0-2.14.791-3.778 2.374-4.916 1.596-1.15 3.871-1.725 6.827-1.725h2.764v-1.318c0-1.038-.29-1.867-.872-2.485-.581-.631-1.465-.946-2.653-.946-1.026 0-1.867.259-2.522.779-.656.507-.984 1.156-.984 1.948h-4.508c0-1.101.365-2.128 1.095-3.08.73-.965 1.719-1.719 2.968-2.263 1.262-.544 2.665-.816 4.211-.816 2.35 0 4.224.593 5.621 1.78 1.398 1.175 2.115 2.833 2.152 4.972v9.053c0 1.806.254 3.246.761 4.322v.316h-4.601Zm-4.953-3.247c.89 0 1.725-.216 2.504-.649.792-.433 1.385-1.014 1.781-1.744v-3.784h-2.43c-1.67 0-2.925.291-3.766.872-.841.581-1.261 1.403-1.261 2.467 0 .866.284 1.558.853 2.078.581.507 1.354.76 2.319.76Zm19.163-21.704v4.879h3.543v3.339h-3.543v11.205c0 .766.148 1.323.445 1.669.309.334.854.501 1.633.501.519 0 1.045-.062 1.577-.185v3.487a11.086 11.086 0 0 1-2.969.427c-3.462 0-5.194-1.911-5.194-5.732v-11.372h-3.302v-3.339h3.302v-4.879h4.508Zm11.799 24.951h-4.508v-20.072h4.508V157.3Zm-4.787-25.285c0-.693.217-1.268.65-1.725.445-.458 1.076-.687 1.892-.687.816 0 1.447.229 1.892.687.445.457.668 1.032.668 1.725 0 .68-.223 1.249-.668 1.706-.445.446-1.076.668-1.892.668-.816 0-1.447-.222-1.892-.668-.433-.457-.65-1.026-.65-1.706Zm8.868 15.063c0-1.966.389-3.735 1.168-5.305.78-1.583 1.874-2.795 3.284-3.636 1.41-.854 3.03-1.28 4.86-1.28 2.709 0 4.904.871 6.586 2.615 1.694 1.744 2.609 4.057 2.745 6.938l.019 1.058c0 1.979-.383 3.747-1.15 5.305-.755 1.559-1.843 2.764-3.265 3.618-1.41.853-3.042 1.28-4.898 1.28-2.832 0-5.101-.94-6.808-2.82-1.694-1.892-2.541-4.409-2.541-7.55v-.223Zm4.508.39c0 2.065.426 3.685 1.28 4.86.853 1.163 2.04 1.744 3.561 1.744 1.522 0 2.703-.594 3.544-1.781.853-1.187 1.28-2.925 1.28-5.213 0-2.028-.439-3.636-1.317-4.823-.866-1.187-2.047-1.781-3.544-1.781-1.471 0-2.64.587-3.506 1.762-.866 1.163-1.298 2.907-1.298 5.232Zm22.15-10.24.129 2.318c1.484-1.793 3.432-2.689 5.844-2.689 4.18 0 6.307 2.393 6.381 7.179V157.3h-4.507v-13.004c0-1.274-.279-2.214-.835-2.82-.544-.619-1.441-.928-2.69-.928-1.818 0-3.172.823-4.063 2.468V157.3h-4.508v-20.072h4.249Z" fill="url(#c)"/><path d="M43.798 186.831v-6.328h-1.15v-.63h1.15v-.843c0-.711.18-1.258.54-1.64.365-.381.87-.572 1.518-.572.292 0 .564.036.817.109l-.058.643a3.026 3.026 0 0 0-.7-.077c-.425 0-.755.133-.991.399-.236.261-.354.634-.354 1.119v.862h1.66v.63h-1.66v6.328h-.772Zm3.383-3.582c0-.669.129-1.271.386-1.807a2.974 2.974 0 0 1 1.1-1.248c.475-.3 1.014-.45 1.614-.45.926 0 1.676.326 2.25.978.575.647.862 1.507.862 2.578v.161c0 .673-.13 1.28-.392 1.82-.257.536-.622.95-1.093 1.241a3.003 3.003 0 0 1-1.614.438c-.922 0-1.672-.324-2.251-.971-.575-.652-.862-1.514-.862-2.586v-.154Zm.772.212c0 .832.214 1.516.643 2.052.433.531.999.797 1.698.797.694 0 1.256-.266 1.685-.797.433-.536.65-1.241.65-2.116v-.148a3.54 3.54 0 0 0-.297-1.46c-.197-.441-.474-.782-.83-1.022a2.103 2.103 0 0 0-1.221-.367c-.686 0-1.246.27-1.679.81-.433.536-.65 1.239-.65 2.11v.141Zm10.25-2.932a2.876 2.876 0 0 0-.52-.045c-.48 0-.888.135-1.222.405-.33.266-.566.654-.707 1.164v4.778h-.766v-6.958h.753l.013 1.106c.407-.823 1.06-1.235 1.961-1.235.214 0 .384.028.508.084l-.02.701Zm5.287 6.302h-.772v-6.958h.772v6.958Zm-.907-8.971c0-.146.047-.268.142-.367a.497.497 0 0 1 .386-.154c.163 0 .291.051.386.154a.5.5 0 0 1 .147.367.507.507 0 0 1-.534.514.507.507 0 0 1-.385-.148.507.507 0 0 1-.142-.366Zm3.705 2.013.025 1.132a2.57 2.57 0 0 1 .965-.946c.386-.21.814-.315 1.286-.315 1.098 0 1.794.45 2.09 1.351.249-.433.581-.766.997-.997a2.74 2.74 0 0 1 1.376-.354c1.492 0 2.253.815 2.283 2.444v4.643h-.771v-4.585c-.005-.622-.14-1.083-.406-1.383-.261-.3-.69-.45-1.286-.45-.553.008-1.02.189-1.402.54a1.886 1.886 0 0 0-.636 1.273v4.605h-.772v-4.643c-.004-.596-.146-1.04-.425-1.331-.274-.296-.698-.444-1.273-.444-.484 0-.9.139-1.248.418-.347.274-.604.684-.771 1.228v4.772h-.772v-6.958h.74Zm15.37 6.958c-.078-.219-.127-.542-.148-.971-.27.352-.615.624-1.036.817a3.18 3.18 0 0 1-1.324.283c-.67 0-1.212-.187-1.627-.56a1.826 1.826 0 0 1-.618-1.415c0-.677.281-1.213.843-1.607.566-.395 1.352-.592 2.36-.592h1.395v-.791c0-.497-.154-.888-.463-1.171-.304-.287-.75-.43-1.337-.43-.536 0-.98.137-1.332.411-.351.275-.527.605-.527.991l-.772-.007c0-.553.258-1.031.772-1.434.515-.407 1.147-.611 1.897-.611.776 0 1.387.195 1.833.585.45.386.682.926.695 1.621v3.293c0 .673.07 1.176.212 1.511v.077h-.823Zm-2.418-.553c.514 0 .973-.124 1.376-.373.407-.249.703-.581.887-.997v-1.53h-1.376c-.767.008-1.367.15-1.8.424-.434.27-.65.643-.65 1.119 0 .39.143.714.43.971.292.257.67.386 1.133.386Zm4.778-2.99c0-1.089.24-1.951.72-2.586.485-.639 1.14-.958 1.968-.958.947 0 1.668.377 2.16 1.132l.04-1.003h.72v6.817c0 .896-.251 1.605-.753 2.128-.501.523-1.18.785-2.038.785a3.1 3.1 0 0 1-1.39-.328 2.678 2.678 0 0 1-1.035-.862l.431-.463c.544.669 1.192 1.003 1.942 1.003.643 0 1.145-.19 1.505-.572.36-.377.547-.903.56-1.576v-.874c-.493.686-1.212 1.029-2.155 1.029-.806 0-1.453-.322-1.942-.965-.489-.643-.733-1.511-.733-2.605v-.102Zm.778.135c0 .887.178 1.588.534 2.103.356.51.857.765 1.505.765.947 0 1.618-.425 2.013-1.273v-3.235c-.18-.446-.44-.785-.779-1.016-.338-.236-.746-.354-1.222-.354-.647 0-1.15.255-1.51.765-.36.506-.541 1.254-.541 2.245Zm9.53 3.537a3.034 3.034 0 0 1-1.607-.438 2.986 2.986 0 0 1-1.112-1.215 3.819 3.819 0 0 1-.4-1.756v-.276c0-.669.13-1.271.387-1.807a3.1 3.1 0 0 1 1.087-1.261 2.657 2.657 0 0 1 1.504-.463c.845 0 1.514.289 2.007.868.497.575.746 1.361.746 2.36v.431h-4.965v.148c0 .789.225 1.447.675 1.975a2.171 2.171 0 0 0 1.71.784c.412 0 .775-.075 1.088-.225.317-.15.604-.39.862-.72l.482.366c-.566.819-1.387 1.229-2.463 1.229Zm-.14-6.56c-.58 0-1.068.212-1.467.637-.394.424-.634.994-.72 1.71h4.174v-.083c-.022-.669-.213-1.214-.573-1.634-.36-.42-.832-.63-1.415-.63Zm8.418 4.663c0-.382-.155-.689-.464-.92-.304-.232-.765-.412-1.382-.54-.618-.133-1.098-.283-1.44-.45-.34-.172-.592-.38-.76-.624-.163-.245-.244-.54-.244-.888 0-.549.23-1.001.688-1.357.459-.36 1.046-.54 1.762-.54.776 0 1.398.193 1.865.579.472.381.708.881.708 1.498h-.772c0-.407-.172-.746-.515-1.016-.338-.27-.767-.405-1.286-.405-.506 0-.913.114-1.222.341-.304.223-.456.514-.456.875 0 .347.126.617.38.81.256.188.722.362 1.395.521.677.158 1.183.328 1.517.508.339.18.59.396.753.649.163.253.244.56.244.92 0 .587-.238 1.057-.714 1.408-.471.352-1.089.528-1.852.528-.81 0-1.468-.195-1.974-.586-.502-.394-.752-.891-.752-1.492h.771c.03.451.219.802.566 1.055.352.249.815.373 1.389.373.536 0 .969-.118 1.299-.354.33-.235.496-.533.496-.893Zm10.103 1.768c-.078-.219-.127-.542-.148-.971-.27.352-.616.624-1.036.817a3.178 3.178 0 0 1-1.324.283c-.669 0-1.212-.187-1.628-.56a1.828 1.828 0 0 1-.617-1.415c0-.677.281-1.213.843-1.607.565-.395 1.352-.592 2.36-.592h1.395v-.791c0-.497-.154-.888-.463-1.171-.304-.287-.75-.43-1.337-.43-.536 0-.98.137-1.332.411-.351.275-.527.605-.527.991l-.772-.007c0-.553.258-1.031.772-1.434.515-.407 1.147-.611 1.897-.611.776 0 1.387.195 1.833.585.45.386.682.926.695 1.621v3.293c0 .673.07 1.176.212 1.511v.077h-.823Zm-2.418-.553c.514 0 .973-.124 1.376-.373a2.19 2.19 0 0 0 .887-.997v-1.53h-1.376c-.767.008-1.368.15-1.801.424-.433.27-.649.643-.649 1.119 0 .39.143.714.431.971.291.257.669.386 1.132.386Zm5.82-6.405.025 1.189c.262-.428.588-.754.978-.977.39-.227.821-.341 1.292-.341.746 0 1.302.21 1.666.63.365.42.549 1.051.553 1.891v4.566h-.765v-4.572c-.004-.622-.137-1.085-.399-1.389-.257-.305-.671-.457-1.241-.457-.476 0-.898.15-1.267.45-.364.296-.634.697-.81 1.203v4.765h-.766v-6.958h.734Zm6.199 3.415c0-1.081.24-1.94.72-2.579.485-.643 1.141-.965 1.968-.965.939 0 1.655.371 2.148 1.113v-3.904h.766v9.878h-.721l-.032-.926c-.493.703-1.217 1.055-2.174 1.055-.801 0-1.449-.322-1.942-.965-.488-.647-.733-1.52-.733-2.617v-.09Zm.778.135c0 .887.178 1.588.534 2.103.356.51.858.765 1.505.765.947 0 1.621-.418 2.019-1.254v-3.267c-.398-.905-1.067-1.357-2.006-1.357-.648 0-1.151.255-1.512.765-.36.506-.54 1.254-.54 2.245Zm15.647 0c0 1.084-.24 1.946-.72 2.585-.481.634-1.124.952-1.93.952-.951 0-1.68-.335-2.186-1.004v3.55h-.765v-9.633h.713l.039.984c.502-.742 1.228-1.113 2.18-1.113.832 0 1.483.315 1.955.945.476.631.714 1.505.714 2.624v.11Zm-.772-.135c0-.888-.182-1.589-.546-2.103-.365-.515-.873-.772-1.525-.772-.471 0-.876.114-1.215.341-.339.227-.598.557-.778.99v3.338c.184.399.448.703.791.913.343.21.748.315 1.215.315.648 0 1.151-.257 1.512-.772.364-.518.546-1.269.546-2.25Zm5.698-2.759a2.872 2.872 0 0 0-.521-.045c-.48 0-.887.135-1.222.405-.33.266-.566.654-.707 1.164v4.778h-.765v-6.958h.752l.013 1.106c.407-.823 1.061-1.235 1.961-1.235.215 0 .384.028.508.084l-.019.701Zm.669 2.72c0-.669.129-1.271.386-1.807a2.969 2.969 0 0 1 1.1-1.248c.475-.3 1.013-.45 1.614-.45.926 0 1.676.326 2.251.978.574.647.861 1.507.861 2.578v.161c0 .673-.13 1.28-.392 1.82-.257.536-.622.95-1.093 1.241a3.005 3.005 0 0 1-1.614.438c-.922 0-1.673-.324-2.251-.971-.575-.652-.862-1.514-.862-2.586v-.154Zm.772.212c0 .832.214 1.516.643 2.052.433.531.999.797 1.698.797.694 0 1.256-.266 1.684-.797.433-.536.65-1.241.65-2.116v-.148c0-.532-.099-1.018-.296-1.46-.197-.441-.474-.782-.829-1.022a2.105 2.105 0 0 0-1.222-.367c-.686 0-1.246.27-1.679.81-.433.536-.649 1.239-.649 2.11v.141Zm7.498 3.37v-6.328h-1.157v-.63h1.157v-.714c0-.742.202-1.316.605-1.724.403-.411.971-.617 1.704-.617.574 0 1.166.126 1.775.379l-.129.663a3.97 3.97 0 0 0-1.595-.341c-1.059 0-1.588.551-1.588 1.653v.701h1.627v.63h-1.627v6.328h-.772Zm4.502 0h-.772v-6.958h.772v6.958Zm2.971 0h-.772v-9.878h.772v9.878Zm4.791.129a3.038 3.038 0 0 1-1.608-.438 2.992 2.992 0 0 1-1.112-1.215 3.816 3.816 0 0 1-.399-1.756v-.276c0-.669.129-1.271.386-1.807a3.104 3.104 0 0 1 1.087-1.261 2.656 2.656 0 0 1 1.505-.463c.844 0 1.513.289 2.006.868.497.575.746 1.361.746 2.36v.431h-4.965v.148c0 .789.225 1.447.676 1.975a2.17 2.17 0 0 0 1.71.784c.412 0 .774-.075 1.087-.225.317-.15.605-.39.862-.72l.482.366c-.566.819-1.387 1.229-2.463 1.229Zm-.141-6.56c-.579 0-1.068.212-1.467.637-.394.424-.634.994-.72 1.71h4.174v-.083c-.022-.669-.212-1.214-.573-1.634-.36-.42-.831-.63-1.414-.63Zm13.048 3.023c0 1.084-.24 1.946-.72 2.585-.48.634-1.123.952-1.929.952-.952 0-1.681-.335-2.187-1.004v3.55h-.765v-9.633h.714l.038.984c.502-.742 1.229-1.113 2.18-1.113.832 0 1.484.315 1.955.945.476.631.714 1.505.714 2.624v.11Zm-.772-.135c0-.888-.182-1.589-.546-2.103-.365-.515-.873-.772-1.524-.772-.472 0-.877.114-1.216.341-.338.227-.598.557-.778.99v3.338c.184.399.448.703.791.913.343.21.748.315 1.216.315.647 0 1.151-.257 1.511-.772.364-.518.546-1.269.546-2.25Zm3.345 3.543h-.772v-6.958h.772v6.958Zm-.907-8.971c0-.146.047-.268.141-.367a.498.498 0 0 1 .386-.154c.163 0 .292.051.386.154a.498.498 0 0 1 .148.367.507.507 0 0 1-.534.514.509.509 0 0 1-.386-.148.508.508 0 0 1-.141-.366Zm5.576 8.45c.535 0 .983-.15 1.344-.45.364-.304.561-.697.591-1.177h.74a2.2 2.2 0 0 1-.399 1.164c-.244.347-.57.62-.977.817a2.919 2.919 0 0 1-1.299.296c-.914 0-1.638-.318-2.174-.952-.532-.635-.798-1.488-.798-2.56v-.231c0-.686.12-1.293.361-1.82.24-.527.583-.935 1.028-1.222.451-.287.976-.431 1.576-.431.763 0 1.391.227 1.884.682.498.454.764 1.052.798 1.794h-.74c-.034-.544-.231-.984-.591-1.318-.356-.335-.806-.502-1.351-.502-.694 0-1.235.251-1.621.752-.381.502-.572 1.205-.572 2.11v.225c0 .887.191 1.58.572 2.077.386.497.929.746 1.628.746Zm5.414-8.219v1.782h1.441v.63h-1.441v4.637c0 .386.069.673.206.861.142.189.375.283.701.283.129 0 .337-.021.624-.064l.032.63c-.201.073-.476.11-.823.11-.527 0-.911-.153-1.151-.457-.24-.309-.36-.761-.36-1.357v-4.643h-1.28v-.63h1.28v-1.782h.771Zm7.512 7.859c-.463.673-1.203 1.01-2.219 1.01-.742 0-1.305-.215-1.691-.643-.386-.433-.583-1.072-.592-1.917v-4.527h.765v4.431c0 1.324.536 1.987 1.608 1.987 1.115 0 1.82-.461 2.116-1.383v-5.035h.772v6.958h-.746l-.013-.881Zm5.981-5.421a2.88 2.88 0 0 0-.521-.045c-.48 0-.888.135-1.222.405-.33.266-.566.654-.708 1.164v4.778h-.765v-6.958h.753l.012 1.106c.408-.823 1.062-1.235 1.962-1.235.214 0 .384.028.508.084l-.019.701Zm3.788 6.431a3.033 3.033 0 0 1-1.608-.438 2.988 2.988 0 0 1-1.113-1.215 3.816 3.816 0 0 1-.398-1.756v-.276c0-.669.128-1.271.385-1.807a3.104 3.104 0 0 1 1.087-1.261 2.659 2.659 0 0 1 1.505-.463c.845 0 1.514.289 2.007.868.497.575.746 1.361.746 2.36v.431h-4.965v.148c0 .789.225 1.447.675 1.975a2.173 2.173 0 0 0 1.711.784 2.49 2.49 0 0 0 1.087-.225c.317-.15.604-.39.861-.72l.483.366c-.566.819-1.387 1.229-2.463 1.229Zm-.142-6.56c-.579 0-1.067.212-1.466.637-.395.424-.635.994-.72 1.71h4.173v-.083c-.021-.669-.212-1.214-.572-1.634-.36-.42-.832-.63-1.415-.63Zm8.418 4.663c0-.382-.154-.689-.463-.92-.304-.232-.765-.412-1.382-.54-.618-.133-1.098-.283-1.441-.45-.339-.172-.592-.38-.759-.624-.163-.245-.244-.54-.244-.888 0-.549.229-1.001.688-1.357.459-.36 1.046-.54 1.762-.54.776 0 1.398.193 1.865.579.472.381.707.881.707 1.498h-.771c0-.407-.172-.746-.515-1.016-.338-.27-.767-.405-1.286-.405-.506 0-.913.114-1.222.341-.304.223-.456.514-.456.875 0 .347.126.617.379.81.257.188.722.362 1.395.521.678.158 1.184.328 1.518.508.339.18.59.396.753.649.163.253.244.56.244.92 0 .587-.238 1.057-.714 1.408-.471.352-1.089.528-1.852.528-.81 0-1.468-.195-1.974-.586-.502-.394-.753-.891-.753-1.492h.772c.03.451.219.802.566 1.055.351.249.815.373 1.389.373.536 0 .969-.118 1.299-.354.33-.235.495-.533.495-.893Z" fill="#000"/><path d="M268.705 88.095c2.498-4.806 9.373-4.806 11.871 0l32.467 62.469c2.314 4.453-.917 9.775-5.936 9.775h-64.933c-5.019 0-8.25-5.322-5.936-9.775l32.467-62.469Z" stroke="url(#d)" stroke-width="8.514"/><path d="M271.289 105.593c0-2.031 1.48-3.678 3.307-3.678 1.826 0 3.306 1.647 3.306 3.678v24.823c0 2.031-1.48 3.677-3.306 3.677-1.827 0-3.307-1.646-3.307-3.677v-24.823Z" fill="url(#e)"/><path d="M277.902 143.287c0 2.031-1.48 3.678-3.306 3.678-1.827 0-3.307-1.647-3.307-3.678 0-2.031 1.48-3.677 3.307-3.677 1.826 0 3.306 1.646 3.306 3.677Z" fill="url(#f)"/><defs><linearGradient id="b" x1="25" y1="25" x2="355.091" y2="116.809" gradientUnits="userSpaceOnUse"><stop stop-color="#fff" stop-opacity=".9"/><stop offset="1" stop-color="#fff" stop-opacity=".7"/></linearGradient><linearGradient id="c" x1="129.865" y1="90.3" x2="129.865" y2="159.699" gradientUnits="userSpaceOnUse"><stop stop-color="#D46899"/><stop offset="1" stop-color="#F27878"/></linearGradient><linearGradient id="d" x1="274.641" y1="76.675" x2="274.641" y2="160.339" gradientUnits="userSpaceOnUse"><stop stop-color="#D56997"/><stop offset="1" stop-color="#F27878"/></linearGradient><linearGradient id="e" x1="274.607" y1="101.894" x2="274.593" y2="146.965" gradientUnits="userSpaceOnUse"><stop stop-color="#D66A96"/><stop offset=".775" stop-color="#F27878"/></linearGradient><linearGradient id="f" x1="274.607" y1="101.894" x2="274.593" y2="146.965" gradientUnits="userSpaceOnUse"><stop stop-color="#D66A96"/><stop offset=".775" stop-color="#F27878"/></linearGradient><filter id="a" x=".016" y=".016" width="349.968" height="249.968" filterUnits="userSpaceOnUse" color-interpolation-filters="sRGB"><feFlood flood-opacity="0" result="BackgroundImageFix"/><feGaussianBlur in="BackgroundImage" stdDeviation="5.826"/><feComposite in2="SourceAlpha" operator="in" result="effect1_backgroundBlur"/><feColorMatrix in="SourceAlpha" values="0 0 0 0 0 0 0 0 0 0 0 0 0 0 0 0 0 0 127 0" result="hardAlpha"/><feMorphology radius="4.164" operator="dilate" in="SourceAlpha" result="effect2_dropShadow"/><feOffset/><feGaussianBlur stdDeviation="10.41"/><feComposite in2="hardAlpha" operator="out"/><feColorMatrix values="0 0 0 0 0 0 0 0 0 0 0 0 0 0 0 0 0 0 0.5 0"/><feBlend in2="effect1_backgroundBlur" result="effect2_dropShadow"/><feBlend in="SourceGraphic" in2="effect2_dropShadow" result="shape"/></filter></defs></svg>