<svg width="350" height="250" fill="none" xmlns="http://www.w3.org/2000/svg"><g filter="url(#a)"><rect x="25" y="25" width="300" height="200" rx="25.328" fill="url(#b)" fill-opacity=".65" shape-rendering="crispEdges"/></g><path d="M67.88 66.773H55.308v9.419h14.696v4.247H49.988V49.827h19.869v4.289h-14.55v8.452H67.88v4.205Zm19.553 13.666c-.224-.435-.42-1.143-.589-2.124-1.625 1.696-3.616 2.544-5.97 2.544-2.285 0-4.15-.652-5.593-1.955-1.444-1.304-2.166-2.916-2.166-4.836 0-2.425.898-4.282 2.692-5.571 1.808-1.304 4.387-1.956 7.737-1.956h3.132V65.05c0-1.178-.33-2.117-.988-2.818-.659-.715-1.66-1.072-3.006-1.072-1.164 0-2.117.294-2.86.883-.743.575-1.114 1.31-1.114 2.208h-5.109c0-1.248.413-2.411 1.24-3.49.827-1.094 1.949-1.949 3.364-2.565 1.43-.617 3.02-.925 4.773-.925 2.663 0 4.787.672 6.37 2.018 1.584 1.331 2.397 3.21 2.44 5.634v10.26c0 2.047.287 3.68.861 4.9v.357h-5.214Zm-5.613-3.68c1.009 0 1.955-.245 2.838-.736.897-.49 1.57-1.149 2.018-1.976v-4.289h-2.754c-1.892 0-3.315.33-4.268.988-.953.659-1.43 1.591-1.43 2.797 0 .98.323 1.765.968 2.354.658.575 1.534.862 2.628.862Zm28.067-2.502c0-.91-.378-1.605-1.135-2.081-.743-.477-1.983-.897-3.721-1.262-1.738-.364-3.189-.827-4.352-1.387-2.552-1.234-3.827-3.02-3.827-5.362 0-1.962.827-3.602 2.48-4.92 1.655-1.317 3.757-1.975 6.308-1.975 2.719 0 4.913.672 6.581 2.018 1.682 1.345 2.523 3.09 2.523 5.235h-5.109c0-.981-.364-1.794-1.093-2.439-.729-.659-1.696-.988-2.902-.988-1.121 0-2.039.26-2.754.778-.701.518-1.051 1.212-1.051 2.081 0 .785.329 1.395.988 1.83.659.434 1.99.875 3.995 1.324 2.004.434 3.574.96 4.709 1.577 1.149.602 1.997 1.331 2.544 2.186.561.855.841 1.892.841 3.112 0 2.046-.848 3.707-2.544 4.983-1.696 1.261-3.917 1.892-6.665 1.892-1.864 0-3.525-.336-4.982-1.01-1.458-.672-2.594-1.597-3.406-2.774-.813-1.178-1.22-2.446-1.22-3.806h4.962c.07 1.206.526 2.138 1.367 2.796.841.645 1.955.968 3.342.968 1.346 0 2.369-.253 3.07-.757.701-.519 1.051-1.192 1.051-2.019Zm14.928 6.181h-5.109V57.69h5.109v22.749Zm-5.425-28.656c0-.785.246-1.436.736-1.955.505-.519 1.22-.778 2.145-.778s1.64.26 2.144.778c.505.519.757 1.17.757 1.955 0 .771-.252 1.416-.757 1.934-.504.505-1.219.757-2.144.757s-1.64-.252-2.145-.757c-.49-.518-.736-1.163-.736-1.934Zm16.441 28.657h-5.109V48.145h5.109v32.294Zm13.54-7.317 4.626-15.432h5.445l-9.041 26.197c-1.387 3.826-3.742 5.74-7.064 5.74-.743 0-1.563-.127-2.46-.38v-3.952l.967.063c1.29 0 2.257-.238 2.902-.715.659-.462 1.177-1.247 1.556-2.354l.735-1.956-7.989-22.643h5.509l4.814 15.432Zm29.561-4.058V80.44h-5.32V49.827h11.711c3.42 0 6.132.89 8.136 2.67 2.019 1.78 3.028 4.135 3.028 7.064 0 3-.988 5.333-2.964 7.001-1.963 1.668-4.717 2.502-8.263 2.502h-6.328Zm0-4.268h6.391c1.892 0 3.336-.441 4.331-1.324.995-.897 1.493-2.187 1.493-3.869 0-1.654-.505-2.971-1.514-3.952-1.009-.995-2.397-1.507-4.163-1.535h-6.538v10.68Zm35.51 13.414c-1.5 1.766-3.63 2.649-6.392 2.649-2.466 0-4.338-.722-5.613-2.166-1.262-1.443-1.892-3.532-1.892-6.265V57.69h5.109v14.675c0 2.887 1.198 4.331 3.595 4.331 2.481 0 4.156-.89 5.025-2.67V57.69h5.109v22.749h-4.815l-.126-2.23Zm14.885-20.52.147 2.628c1.682-2.032 3.89-3.048 6.623-3.048 4.738 0 7.148 2.712 7.233 8.136v15.032h-5.109V65.7c0-1.443-.316-2.509-.947-3.195-.616-.701-1.632-1.052-3.048-1.052-2.06 0-3.595.932-4.604 2.797v16.189h-5.109V57.69h4.814Zm24.662 22.749h-5.109V57.69h5.109v22.749Zm-5.424-28.657c0-.785.245-1.436.735-1.955.505-.519 1.22-.778 2.145-.778s1.64.26 2.144.778c.505.519.757 1.17.757 1.955 0 .771-.252 1.416-.757 1.934-.504.505-1.219.757-2.144.757s-1.64-.252-2.145-.757c-.49-.518-.735-1.163-.735-1.934Zm23.757 22.475c0-.91-.378-1.605-1.135-2.081-.743-.477-1.983-.897-3.721-1.262-1.738-.364-3.189-.827-4.352-1.387-2.551-1.234-3.827-3.02-3.827-5.362 0-1.962.827-3.602 2.481-4.92 1.654-1.317 3.756-1.975 6.307-1.975 2.719 0 4.913.672 6.581 2.018 1.682 1.345 2.523 3.09 2.523 5.235h-5.109c0-.981-.364-1.794-1.093-2.439-.729-.659-1.696-.988-2.902-.988-1.121 0-2.039.26-2.754.778-.701.518-1.051 1.212-1.051 2.081 0 .785.329 1.395.988 1.83.659.434 1.99.875 3.995 1.324 2.004.434 3.574.96 4.709 1.577 1.149.602 1.997 1.331 2.544 2.186.561.855.841 1.892.841 3.112 0 2.046-.848 3.707-2.544 4.983-1.696 1.261-3.917 1.892-6.665 1.892-1.864 0-3.525-.336-4.982-1.01-1.458-.672-2.593-1.597-3.406-2.774-.813-1.178-1.22-2.446-1.22-3.806h4.962c.07 1.206.526 2.138 1.367 2.796.841.645 1.955.968 3.342.968 1.346 0 2.369-.253 3.07-.757.701-.519 1.051-1.192 1.051-2.019Zm14.528-14.086c1.668-1.934 3.778-2.901 6.329-2.901 4.849 0 7.309 2.768 7.379 8.304V80.44h-5.109V65.763c0-1.57-.343-2.677-1.03-3.322-.673-.658-1.668-.988-2.986-.988-2.046 0-3.574.911-4.583 2.734v16.252h-5.109V48.145h5.109V60.17ZM62.897 118.644H56.97v11.794h-5.32V99.827h10.765c3.532 0 6.258.792 8.178 2.376 1.92 1.583 2.88 3.875 2.88 6.875 0 2.046-.497 3.763-1.492 5.151-.981 1.373-2.355 2.431-4.12 3.174l6.874 12.762v.273h-5.697l-6.14-11.794Zm-5.928-4.268h5.466c1.794 0 3.196-.449 4.205-1.346 1.01-.911 1.514-2.151 1.514-3.721 0-1.64-.47-2.908-1.409-3.806-.925-.897-2.313-1.359-4.163-1.387H56.97v10.26Zm34.837 13.834c-1.5 1.766-3.63 2.649-6.391 2.649-2.467 0-4.338-.722-5.614-2.166-1.261-1.443-1.892-3.532-1.892-6.265V107.69h5.109v14.675c0 2.887 1.198 4.331 3.595 4.331 2.481 0 4.156-.89 5.025-2.67V107.69h5.109v22.748h-4.815l-.126-2.228Zm15.579 2.228h-5.109V98.145h5.109v32.293Zm15.6.421c-3.237 0-5.865-1.016-7.884-3.049-2.004-2.046-3.006-4.765-3.006-8.157v-.631c0-2.27.434-4.296 1.303-6.076.883-1.794 2.117-3.189 3.701-4.184 1.583-.995 3.35-1.492 5.298-1.492 3.097 0 5.487.988 7.169 2.964 1.696 1.976 2.544 4.773 2.544 8.389v2.06h-14.864c.154 1.878.778 3.364 1.871 4.457 1.107 1.094 2.495 1.64 4.163 1.64 2.341 0 4.247-.946 5.718-2.838l2.755 2.628c-.911 1.36-2.131 2.418-3.659 3.175-1.513.743-3.216 1.114-5.109 1.114Zm-.609-19.49c-1.402 0-2.537.491-3.406 1.472-.855.981-1.402 2.348-1.64 4.1h9.734v-.379c-.112-1.71-.567-2.999-1.366-3.868-.799-.883-1.907-1.325-3.322-1.325Zm33.681 7.927c0 3.532-.792 6.342-2.376 8.43-1.57 2.089-3.735 3.133-6.496 3.133-2.663 0-4.738-.96-6.224-2.88l-.252 2.459h-4.625V98.145h5.109v11.732c1.471-1.738 3.455-2.607 5.95-2.607 2.775 0 4.954 1.03 6.538 3.09 1.584 2.061 2.376 4.941 2.376 8.641v.295Zm-5.109-.442c0-2.467-.435-4.317-1.304-5.55-.869-1.234-2.13-1.851-3.784-1.851-2.214 0-3.77.968-4.667 2.902v9.377c.911 1.976 2.481 2.964 4.709 2.964 1.598 0 2.831-.596 3.7-1.787.869-1.191 1.318-2.992 1.346-5.403v-.652Zm21.319-6.497a12.664 12.664 0 0 0-2.082-.168c-2.34 0-3.917.897-4.73 2.691v15.558h-5.109V107.69h4.878l.126 2.544c1.233-1.976 2.943-2.964 5.13-2.964.729 0 1.331.098 1.808.294l-.021 4.793Zm12.825 18.502c-3.238 0-5.866-1.016-7.884-3.049-2.005-2.046-3.007-4.765-3.007-8.157v-.631c0-2.27.435-4.296 1.304-6.076.883-1.794 2.116-3.189 3.7-4.184 1.584-.995 3.35-1.492 5.298-1.492 3.098 0 5.487.988 7.169 2.964 1.696 1.976 2.544 4.773 2.544 8.389v2.06h-14.864c.154 1.878.778 3.364 1.871 4.457 1.108 1.094 2.495 1.64 4.163 1.64 2.341 0 4.247-.946 5.719-2.838l2.754 2.628c-.911 1.36-2.131 2.418-3.658 3.175-1.514.743-3.217 1.114-5.109 1.114Zm-.61-19.49c-1.402 0-2.537.491-3.406 1.472-.855.981-1.402 2.348-1.64 4.1h9.734v-.379c-.112-1.71-.567-2.999-1.366-3.868-.799-.883-1.906-1.325-3.322-1.325Zm27.311 19.069c-.224-.434-.421-1.142-.589-2.123-1.626 1.696-3.616 2.544-5.971 2.544-2.284 0-4.149-.652-5.592-1.955-1.444-1.304-2.166-2.916-2.166-4.836 0-2.425.897-4.282 2.691-5.571 1.808-1.304 4.387-1.956 7.737-1.956h3.133v-1.492c0-1.178-.329-2.117-.988-2.818-.659-.715-1.661-1.072-3.007-1.072-1.163 0-2.116.294-2.859.883-.743.575-1.114 1.311-1.114 2.208h-5.109c0-1.248.413-2.411 1.24-3.49.827-1.094 1.948-1.949 3.364-2.565 1.43-.617 3.021-.925 4.773-.925 2.663 0 4.786.672 6.37 2.018 1.584 1.331 2.397 3.21 2.439 5.634v10.26c0 2.047.287 3.68.862 4.899v.357h-5.214Zm-5.614-3.679a5.751 5.751 0 0 0 2.839-.736c.897-.49 1.569-1.149 2.018-1.976v-4.289h-2.754c-1.892 0-3.315.329-4.268.988-.953.659-1.43 1.591-1.43 2.796 0 .982.322 1.767.967 2.355.659.575 1.535.862 2.628.862Zm22.707-6.076-2.271 2.334v7.421h-5.109V98.145h5.109v18.628l1.598-1.998 6.286-7.085h6.139l-8.451 9.482 9.355 13.266h-5.907l-6.749-9.755Zm24.703 10.176c-3.237 0-5.865-1.016-7.884-3.049-2.004-2.046-3.006-4.765-3.006-8.157v-.631c0-2.27.434-4.296 1.303-6.076.883-1.794 2.117-3.189 3.701-4.184 1.583-.995 3.349-1.492 5.298-1.492 3.097 0 5.487.988 7.169 2.964 1.696 1.976 2.544 4.773 2.544 8.389v2.06H247.85c.154 1.878.778 3.364 1.871 4.457 1.107 1.094 2.495 1.64 4.163 1.64 2.341 0 4.247-.946 5.718-2.838l2.755 2.628c-.911 1.36-2.131 2.418-3.659 3.175-1.513.743-3.216 1.114-5.109 1.114Zm-.609-19.49c-1.402 0-2.537.491-3.406 1.472-.855.981-1.402 2.348-1.64 4.1h9.734v-.379c-.112-1.71-.567-2.999-1.366-3.868-.799-.883-1.907-1.325-3.322-1.325Zm25.629.988a12.664 12.664 0 0 0-2.082-.168c-2.341 0-3.917.897-4.73 2.691v15.558h-5.109V107.69h4.877l.126 2.544c1.234-1.976 2.944-2.964 5.13-2.964.729 0 1.332.098 1.809.294l-.021 4.793Zm15.978 11.9c0-.911-.378-1.605-1.135-2.081-.743-.477-1.983-.897-3.722-1.262-1.738-.364-3.188-.827-4.352-1.387-2.551-1.234-3.826-3.021-3.826-5.361 0-1.963.827-3.603 2.481-4.92 1.654-1.318 3.756-1.976 6.307-1.976 2.719 0 4.913.672 6.581 2.018 1.682 1.345 2.523 3.09 2.523 5.235h-5.109c0-.981-.365-1.794-1.093-2.439-.729-.659-1.696-.988-2.902-.988-1.121 0-2.039.259-2.754.778-.701.518-1.051 1.212-1.051 2.081 0 .785.329 1.395.988 1.829.659.435 1.99.876 3.995 1.325 2.004.434 3.574.96 4.709 1.577 1.149.603 1.997 1.331 2.544 2.186.561.855.841 1.893.841 3.112 0 2.046-.848 3.707-2.544 4.983-1.696 1.261-3.918 1.892-6.665 1.892-1.864 0-3.525-.336-4.983-1.009-1.457-.673-2.593-1.598-3.405-2.775-.813-1.178-1.22-2.446-1.22-3.806h4.962c.07 1.206.525 2.138 1.366 2.796.841.645 1.956.968 3.343.968 1.346 0 2.369-.253 3.07-.757.701-.519 1.051-1.192 1.051-2.019Z" fill="url(#c)"/><path d="M46.02 173.629c-.155-.437-.254-1.085-.296-1.942a5.413 5.413 0 0 1-2.071 1.633 6.329 6.329 0 0 1-2.65.566c-1.337 0-2.422-.373-3.254-1.119-.823-.746-1.235-1.689-1.235-2.829 0-1.355.562-2.427 1.685-3.216 1.132-.789 2.706-1.183 4.72-1.183h2.792v-1.582c0-.995-.309-1.775-.926-2.341-.61-.575-1.5-.862-2.676-.862-1.072 0-1.959.274-2.662.823-.703.549-1.055 1.209-1.055 1.981l-1.543-.013c0-1.106.514-2.062 1.543-2.868 1.03-.815 2.294-1.222 3.794-1.222 1.553 0 2.774.39 3.666 1.17.9.772 1.364 1.853 1.39 3.242v6.585c0 1.346.14 2.354.424 3.023v.154h-1.647Zm-4.837-1.106c1.03 0 1.947-.249 2.753-.746.814-.498 1.406-1.162 1.775-1.994v-3.061h-2.753c-1.535.017-2.735.3-3.601.849-.866.54-1.3 1.286-1.3 2.238 0 .78.288 1.428.863 1.942.583.515 1.337.772 2.263.772Zm11.64-12.811.052 2.38c.523-.858 1.175-1.509 1.955-1.955a5.038 5.038 0 0 1 2.585-.682c1.492 0 2.603.42 3.331 1.26.73.841 1.098 2.101 1.107 3.782v9.132h-1.531v-9.145c-.009-1.243-.274-2.169-.797-2.778-.515-.609-1.342-.913-2.483-.913-.952 0-1.796.3-2.534.9-.729.592-1.269 1.393-1.62 2.405v9.531h-1.53v-13.917h1.465Zm12.4 6.83c0-2.161.48-3.88 1.44-5.158.969-1.286 2.28-1.929 3.936-1.929 1.878 0 3.31.742 4.296 2.225v-7.807h1.53v19.756h-1.44l-.065-1.852c-.986 1.406-2.435 2.109-4.347 2.109-1.603 0-2.898-.643-3.884-1.929-.978-1.295-1.467-3.04-1.467-5.235v-.18Zm1.556.27c0 1.775.356 3.177 1.067 4.206.712 1.02 1.715 1.53 3.01 1.53 1.895 0 3.241-.836 4.039-2.508v-6.534c-.798-1.809-2.135-2.713-4.013-2.713-1.295 0-2.303.51-3.023 1.53-.72 1.012-1.08 2.508-1.08 4.489Zm28.438 3.28c0-.763-.309-1.376-.926-1.839-.61-.463-1.531-.824-2.766-1.081-1.235-.266-2.195-.566-2.88-.9-.678-.343-1.184-.759-1.519-1.248-.325-.489-.488-1.08-.488-1.775 0-1.097.458-2.002 1.376-2.714.917-.72 2.092-1.08 3.524-1.08 1.552 0 2.796.386 3.73 1.158.943.763 1.415 1.762 1.415 2.996h-1.544c0-.814-.343-1.492-1.028-2.032-.678-.54-1.535-.81-2.573-.81-1.012 0-1.826.227-2.444.682-.608.445-.913 1.029-.913 1.749 0 .694.253 1.235.759 1.62.514.378 1.445.725 2.791 1.042 1.355.318 2.367.656 3.035 1.016.678.36 1.18.794 1.505 1.299.326.506.49 1.119.49 1.84 0 1.174-.477 2.113-1.429 2.816-.943.704-2.178 1.055-3.704 1.055-1.62 0-2.937-.39-3.948-1.17-1.004-.789-1.505-1.784-1.505-2.984h1.543c.06.9.437 1.603 1.132 2.109.703.497 1.63.746 2.778.746 1.072 0 1.938-.236 2.598-.707.66-.472.99-1.068.99-1.788Zm10.405 3.794c-1.183 0-2.255-.291-3.215-.874-.952-.584-1.694-1.394-2.226-2.431-.531-1.047-.797-2.217-.797-3.512v-.553c0-1.337.257-2.542.772-3.614.523-1.072 1.247-1.912 2.173-2.521a5.325 5.325 0 0 1 3.01-.926c1.689 0 3.027.579 4.013 1.736.995 1.149 1.492 2.723 1.492 4.721v.861h-9.929v.296c0 1.578.45 2.894 1.35 3.949.909 1.046 2.049 1.569 3.421 1.569.824 0 1.548-.15 2.174-.45.635-.3 1.209-.78 1.724-1.441l.964.733c-1.132 1.638-2.774 2.457-4.926 2.457Zm-.283-13.119c-1.158 0-2.135.424-2.932 1.273-.789.849-1.27 1.99-1.441 3.422h8.347v-.168c-.042-1.337-.424-2.426-1.144-3.267-.721-.84-1.664-1.26-2.83-1.26Zm13.891 13.119c-1.183 0-2.255-.291-3.215-.874-.952-.584-1.694-1.394-2.226-2.431-.531-1.047-.797-2.217-.797-3.512v-.553c0-1.337.257-2.542.772-3.614.523-1.072 1.247-1.912 2.173-2.521a5.325 5.325 0 0 1 3.01-.926c1.689 0 3.027.579 4.013 1.736.995 1.149 1.492 2.723 1.492 4.721v.861h-9.929v.296c0 1.578.45 2.894 1.35 3.949.909 1.046 2.049 1.569 3.421 1.569.824 0 1.548-.15 2.174-.45.635-.3 1.209-.78 1.724-1.441l.964.733c-1.132 1.638-2.774 2.457-4.926 2.457Zm-.283-13.119c-1.157 0-2.135.424-2.932 1.273-.789.849-1.269 1.99-1.441 3.422h8.347v-.168c-.042-1.337-.424-2.426-1.144-3.267-.721-.84-1.664-1.26-2.83-1.26Zm23.692 12.862c-.154-.437-.253-1.085-.296-1.942a5.407 5.407 0 0 1-2.071 1.633 6.326 6.326 0 0 1-2.649.566c-1.338 0-2.423-.373-3.254-1.119-.824-.746-1.235-1.689-1.235-2.829 0-1.355.562-2.427 1.685-3.216 1.132-.789 2.705-1.183 4.72-1.183h2.791v-1.582c0-.995-.308-1.775-.926-2.341-.609-.575-1.5-.862-2.675-.862-1.072 0-1.959.274-2.663.823-.703.549-1.054 1.209-1.054 1.981l-1.544-.013c0-1.106.515-2.062 1.544-2.868 1.029-.815 2.293-1.222 3.794-1.222 1.552 0 2.774.39 3.666 1.17.9.772 1.363 1.853 1.389 3.242v6.585c0 1.346.141 2.354.424 3.023v.154h-1.646Zm-4.836-1.106c1.029 0 1.946-.249 2.752-.746.815-.498 1.407-1.162 1.775-1.994v-3.061h-2.752c-1.535.017-2.736.3-3.602.849-.866.54-1.299 1.286-1.299 2.238 0 .78.288 1.428.862 1.942.583.515 1.338.772 2.264.772Zm11.897 1.106h-1.543v-19.756h1.543v19.756Zm5.917 0h-1.544v-19.756h1.544v19.756Zm21.788-6.817c0 2.169-.48 3.893-1.441 5.171-.96 1.269-2.246 1.903-3.858 1.903-1.904 0-3.361-.669-4.373-2.006v7.1h-1.531v-19.268h1.428l.077 1.968c1.003-1.483 2.457-2.225 4.36-2.225 1.664 0 2.967.63 3.91 1.891.952 1.26 1.428 3.009 1.428 5.247v.219Zm-1.543-.27c0-1.775-.365-3.177-1.094-4.206-.729-1.029-1.745-1.543-3.048-1.543-.943 0-1.754.227-2.431.681-.677.455-1.196 1.115-1.556 1.981v6.675c.368.798.896 1.407 1.582 1.827.686.42 1.496.63 2.431.63 1.294 0 2.302-.514 3.022-1.543.729-1.038 1.094-2.538 1.094-4.502Zm13.916 5.325c-.926 1.346-2.405 2.019-4.437 2.019-1.484 0-2.611-.429-3.383-1.286-.772-.866-1.166-2.144-1.183-3.833v-9.055h1.53v8.862c0 2.65 1.072 3.974 3.216 3.974 2.229 0 3.64-.921 4.232-2.765v-10.071h1.543v13.917h-1.492l-.026-1.762Zm6.997-12.155.052 2.38c.523-.858 1.174-1.509 1.955-1.955a5.037 5.037 0 0 1 2.585-.682c1.492 0 2.602.42 3.331 1.26.729.841 1.098 2.101 1.106 3.782v9.132h-1.53v-9.145c-.009-1.243-.275-2.169-.798-2.778-.514-.609-1.342-.913-2.482-.913-.952 0-1.796.3-2.534.9-.729.592-1.269 1.393-1.62 2.405v9.531h-1.531v-13.917h1.466Zm14.74 13.917h-1.543v-13.917h1.543v13.917Zm-1.813-17.943c0-.291.094-.536.283-.733.188-.206.445-.308.771-.308s.583.102.772.308a.997.997 0 0 1 .296.733 1 1 0 0 1-.296.734c-.189.197-.446.295-.772.295s-.583-.098-.771-.295a1.02 1.02 0 0 1-.283-.734Zm14.341 14.406c0-.763-.309-1.376-.926-1.839-.609-.463-1.531-.824-2.766-1.081-1.234-.266-2.195-.566-2.881-.9-.677-.343-1.183-.759-1.518-1.248-.325-.489-.488-1.08-.488-1.775 0-1.097.458-2.002 1.376-2.714.917-.72 2.092-1.08 3.524-1.08 1.552 0 2.796.386 3.73 1.158.943.763 1.415 1.762 1.415 2.996h-1.543c0-.814-.343-1.492-1.029-2.032-.678-.54-1.535-.81-2.573-.81-1.012 0-1.826.227-2.444.682-.608.445-.913 1.029-.913 1.749 0 .694.253 1.235.759 1.62.515.378 1.445.725 2.791 1.042 1.355.318 2.367.656 3.036 1.016.677.36 1.179.794 1.504 1.299.326.506.489 1.119.489 1.84 0 1.174-.476 2.113-1.428 2.816-.943.704-2.177 1.055-3.704 1.055-1.62 0-2.937-.39-3.948-1.17-1.004-.789-1.505-1.784-1.505-2.984h1.543c.06.9.437 1.603 1.132 2.109.703.497 1.629.746 2.778.746 1.072 0 1.938-.236 2.598-.707.661-.472.991-1.068.991-1.788Zm6.546-8.026c.506-.832 1.154-1.475 1.943-1.929a5.082 5.082 0 0 1 2.585-.682c1.492 0 2.602.42 3.331 1.26.729.841 1.098 2.101 1.106 3.782v9.132h-1.53v-9.145c-.009-1.243-.275-2.169-.798-2.778-.514-.609-1.342-.913-2.482-.913-.952 0-1.796.3-2.534.9-.729.592-1.269 1.393-1.621 2.405v9.531h-1.53v-19.756h1.53v8.193Zm14.329-2.354.051 2.264c.515-.84 1.158-1.471 1.93-1.891.771-.42 1.629-.63 2.572-.63 2.195 0 3.588.9 4.18 2.701.497-.866 1.162-1.531 1.994-1.994a5.486 5.486 0 0 1 2.752-.707c2.984 0 4.506 1.629 4.566 4.888v9.286h-1.543v-9.171c-.009-1.243-.279-2.165-.811-2.765-.523-.6-1.38-.9-2.572-.9-1.106.017-2.041.377-2.804 1.08-.763.695-1.187 1.543-1.273 2.547v9.209h-1.544v-9.286c-.008-1.192-.291-2.08-.849-2.663-.548-.592-1.397-.887-2.546-.887-.969 0-1.801.278-2.495.836-.695.548-1.209 1.367-1.544 2.456v9.544h-1.543v-13.917h1.479Zm27.344 14.174c-1.183 0-2.255-.291-3.215-.874-.952-.584-1.694-1.394-2.225-2.431-.532-1.047-.798-2.217-.798-3.512v-.553c0-1.337.258-2.542.772-3.614.523-1.072 1.248-1.912 2.174-2.521a5.322 5.322 0 0 1 3.009-.926c1.69 0 3.027.579 4.013 1.736.995 1.149 1.492 2.723 1.492 4.721v.861h-9.929v.296c0 1.578.45 2.894 1.35 3.949.909 1.046 2.05 1.569 3.422 1.569.823 0 1.547-.15 2.173-.45.635-.3 1.209-.78 1.724-1.441l.965.733c-1.132 1.638-2.774 2.457-4.927 2.457Zm-.283-13.119c-1.157 0-2.135.424-2.932 1.273-.789.849-1.269 1.99-1.441 3.422h8.348v-.168c-.043-1.337-.425-2.426-1.145-3.267-.72-.84-1.663-1.26-2.83-1.26Zm9.969-1.055.051 2.38c.523-.858 1.175-1.509 1.955-1.955a5.037 5.037 0 0 1 2.585-.682c1.492 0 2.603.42 3.332 1.26.728.841 1.097 2.101 1.106 3.782v9.132h-1.531v-9.145c-.008-1.243-.274-2.169-.797-2.778-.515-.609-1.342-.913-2.483-.913-.951 0-1.796.3-2.534.9-.728.592-1.269 1.393-1.62 2.405v9.531h-1.531v-13.917h1.467Zm15.408-3.563v3.563h2.881v1.261h-2.881v9.273c0 .772.137 1.346.412 1.724.283.377.75.566 1.402.566.257 0 .673-.043 1.247-.129l.065 1.26c-.403.146-.952.219-1.647.219-1.054 0-1.822-.304-2.302-.913-.48-.617-.72-1.522-.72-2.714v-9.286h-2.56v-1.261h2.56v-3.563h1.543Zm14.406 13.943c0-.763-.309-1.376-.926-1.839-.609-.463-1.531-.824-2.766-1.081-1.234-.266-2.195-.566-2.881-.9-.677-.343-1.183-.759-1.517-1.248-.326-.489-.489-1.08-.489-1.775 0-1.097.458-2.002 1.376-2.714.917-.72 2.092-1.08 3.524-1.08 1.552 0 2.796.386 3.73 1.158.943.763 1.415 1.762 1.415 2.996h-1.543c0-.814-.343-1.492-1.029-2.032-.678-.54-1.535-.81-2.573-.81-1.012 0-1.826.227-2.444.682-.608.445-.913 1.029-.913 1.749 0 .694.253 1.235.759 1.62.515.378 1.445.725 2.791 1.042 1.355.318 2.367.656 3.036 1.016.677.36 1.179.794 1.504 1.299.326.506.489 1.119.489 1.84 0 1.174-.476 2.113-1.428 2.816-.943.704-2.177 1.055-3.704 1.055-1.62 0-2.937-.39-3.948-1.17-1.004-.789-1.505-1.784-1.505-2.984h1.543c.06.9.437 1.603 1.132 2.109.703.497 1.629.746 2.778.746 1.072 0 1.938-.236 2.598-.707.661-.472.991-1.068.991-1.788ZM81.544 204.629h-1.543v-13.917h1.543v13.917Zm-1.813-17.943c0-.291.094-.536.283-.733.188-.206.446-.308.772-.308.325 0 .582.102.771.308a.996.996 0 0 1 .296.733.998.998 0 0 1-.296.734c-.189.197-.446.295-.772.295-.325 0-.583-.098-.771-.295a1.022 1.022 0 0 1-.283-.734Zm7.473 4.026.051 2.38c.523-.858 1.175-1.509 1.955-1.955a5.038 5.038 0 0 1 2.585-.682c1.492 0 2.603.42 3.332 1.26.729.841 1.097 2.101 1.106 3.782v9.132h-1.53v-9.145c-.01-1.243-.275-2.169-.798-2.778-.515-.609-1.342-.913-2.483-.913-.951 0-1.796.3-2.534.9-.728.592-1.269 1.393-1.62 2.405v9.531h-1.53v-13.917h1.466Zm18.572 6.753c0-1.338.258-2.543.772-3.614.523-1.072 1.256-1.904 2.2-2.496.951-.6 2.027-.9 3.228-.9 1.852 0 3.353.652 4.502 1.955 1.149 1.295 1.723 3.014 1.723 5.158v.321c0 1.346-.261 2.56-.784 3.64-.515 1.072-1.244 1.899-2.187 2.483-.943.583-2.019.874-3.228.874-1.844 0-3.345-.647-4.502-1.942-1.149-1.303-1.724-3.027-1.724-5.171v-.308Zm1.544.424c0 1.664.429 3.031 1.286 4.103.866 1.063 1.998 1.595 3.396 1.595 1.389 0 2.512-.532 3.369-1.595.867-1.072 1.3-2.482 1.3-4.231v-.296c0-1.064-.198-2.037-.592-2.92-.395-.883-.948-1.565-1.659-2.045-.712-.489-1.527-.733-2.444-.733-1.372 0-2.491.54-3.357 1.62-.866 1.072-1.299 2.479-1.299 4.219v.283Zm15.537-7.177.052 2.38c.523-.858 1.174-1.509 1.955-1.955a5.037 5.037 0 0 1 2.585-.682c1.492 0 2.602.42 3.331 1.26.729.841 1.098 2.101 1.106 3.782v9.132h-1.53v-9.145c-.009-1.243-.275-2.169-.798-2.778-.514-.609-1.342-.913-2.482-.913-.952 0-1.796.3-2.534.9-.729.592-1.269 1.393-1.621 2.405v9.531h-1.53v-13.917h1.466Zm18.406 14.174c-1.184 0-2.255-.291-3.216-.874-.952-.584-1.693-1.394-2.225-2.431-.532-1.047-.797-2.217-.797-3.512v-.553c0-1.337.257-2.542.771-3.614.523-1.072 1.248-1.912 2.174-2.521a5.322 5.322 0 0 1 3.01-.926c1.689 0 3.027.579 4.013 1.736.994 1.149 1.492 2.723 1.492 4.721v.861h-9.93v.296c0 1.578.45 2.894 1.351 3.949.909 1.046 2.049 1.569 3.421 1.569.823 0 1.548-.15 2.174-.45.634-.3 1.209-.78 1.723-1.441l.965.733c-1.132 1.638-2.774 2.457-4.926 2.457Zm-.283-13.119c-1.158 0-2.135.424-2.933 1.273-.789.849-1.269 1.99-1.44 3.422h8.347v-.168c-.043-1.337-.424-2.426-1.145-3.267-.72-.84-1.663-1.26-2.829-1.26Zm20.052 11.82c1.071 0 1.968-.3 2.688-.9.729-.609 1.123-1.394 1.183-2.354h1.479a4.389 4.389 0 0 1-.797 2.328c-.489.695-1.141 1.239-1.955 1.633a5.824 5.824 0 0 1-2.598.592c-1.827 0-3.276-.634-4.348-1.903-1.063-1.269-1.595-2.976-1.595-5.12v-.463c0-1.372.24-2.585.721-3.64.48-1.054 1.166-1.869 2.058-2.443.9-.575 1.95-.862 3.151-.862 1.526 0 2.782.454 3.768 1.363.995.909 1.527 2.105 1.595 3.589h-1.479c-.068-1.089-.463-1.968-1.183-2.637-.712-.669-1.612-1.003-2.701-1.003-1.389 0-2.47.501-3.241 1.505-.764 1.003-1.145 2.409-1.145 4.218v.451c0 1.775.381 3.159 1.145 4.154.771.995 1.856 1.492 3.254 1.492Zm7.588-6.122c0-1.338.257-2.543.772-3.614.523-1.072 1.256-1.904 2.199-2.496.952-.6 2.028-.9 3.229-.9 1.852 0 3.352.652 4.501 1.955 1.149 1.295 1.724 3.014 1.724 5.158v.321c0 1.346-.262 2.56-.785 3.64-.514 1.072-1.243 1.899-2.186 2.483-.943.583-2.019.874-3.229.874-1.843 0-3.344-.647-4.501-1.942-1.149-1.303-1.724-3.027-1.724-5.171v-.308Zm1.544.424c0 1.664.428 3.031 1.286 4.103.866 1.063 1.998 1.595 3.395 1.595 1.39 0 2.513-.532 3.37-1.595.866-1.072 1.299-2.482 1.299-4.231v-.296c0-1.064-.197-2.037-.591-2.92-.395-.883-.948-1.565-1.659-2.045-.712-.489-1.527-.733-2.444-.733-1.372 0-2.491.54-3.357 1.62-.866 1.072-1.299 2.479-1.299 4.219v.283Zm15.473-7.177.051 2.264c.515-.84 1.158-1.471 1.929-1.891.772-.42 1.63-.63 2.573-.63 2.195 0 3.588.9 4.18 2.701.497-.866 1.162-1.531 1.994-1.994a5.486 5.486 0 0 1 2.752-.707c2.984 0 4.506 1.629 4.566 4.888v9.286h-1.543v-9.171c-.009-1.243-.279-2.165-.811-2.765-.523-.6-1.38-.9-2.572-.9-1.106.017-2.041.377-2.804 1.08-.763.695-1.188 1.543-1.273 2.547v9.209h-1.544v-9.286c-.008-1.192-.291-2.08-.849-2.663-.548-.592-1.397-.887-2.546-.887-.969 0-1.801.278-2.496.836-.694.548-1.209 1.367-1.543 2.456v9.544h-1.543v-13.917h1.479Zm23.357 0 .052 2.264c.514-.84 1.157-1.471 1.929-1.891.772-.42 1.629-.63 2.572-.63 2.195 0 3.589.9 4.18 2.701.498-.866 1.162-1.531 1.994-1.994a5.49 5.49 0 0 1 2.753-.707c2.984 0 4.506 1.629 4.566 4.888v9.286h-1.544v-9.171c-.008-1.243-.279-2.165-.81-2.765-.523-.6-1.381-.9-2.573-.9-1.106.017-2.04.377-2.803 1.08-.764.695-1.188 1.543-1.274 2.547v9.209h-1.543v-9.286c-.009-1.192-.292-2.08-.849-2.663-.549-.592-1.398-.887-2.547-.887-.969 0-1.801.278-2.495.836-.695.548-1.209 1.367-1.544 2.456v9.544h-1.543v-13.917h1.479Zm30.74 13.917c-.154-.437-.253-1.085-.295-1.942a5.422 5.422 0 0 1-2.071 1.633 6.33 6.33 0 0 1-2.65.566c-1.337 0-2.422-.373-3.254-1.119-.823-.746-1.235-1.689-1.235-2.829 0-1.355.562-2.427 1.685-3.216 1.132-.789 2.706-1.183 4.721-1.183h2.791v-1.582c0-.995-.309-1.775-.926-2.341-.609-.575-1.501-.862-2.676-.862-1.072 0-1.959.274-2.662.823-.703.549-1.055 1.209-1.055 1.981l-1.543-.013c0-1.106.514-2.062 1.543-2.868 1.029-.815 2.294-1.222 3.795-1.222 1.552 0 2.773.39 3.665 1.17.901.772 1.364 1.853 1.389 3.242v6.585c0 1.346.142 2.354.425 3.023v.154h-1.647Zm-4.836-1.106c1.029 0 1.947-.249 2.753-.746.814-.498 1.406-1.162 1.775-1.994v-3.061h-2.753c-1.535.017-2.735.3-3.601.849-.866.54-1.299 1.286-1.299 2.238 0 .78.287 1.428.862 1.942.583.515 1.337.772 2.263.772Zm11.64-12.811.052 2.38c.523-.858 1.175-1.509 1.955-1.955a5.037 5.037 0 0 1 2.585-.682c1.492 0 2.603.42 3.331 1.26.729.841 1.098 2.101 1.107 3.782v9.132h-1.531v-9.145c-.009-1.243-.274-2.169-.797-2.778-.515-.609-1.342-.913-2.483-.913-.952 0-1.796.3-2.534.9-.729.592-1.269 1.393-1.62 2.405v9.531h-1.531v-13.917h1.466Zm12.399 6.83c0-2.161.481-3.88 1.441-5.158.969-1.286 2.281-1.929 3.936-1.929 1.878 0 3.31.742 4.296 2.225v-7.807h1.53v19.756h-1.44l-.065-1.852c-.986 1.406-2.435 2.109-4.347 2.109-1.603 0-2.898-.643-3.884-1.929-.978-1.295-1.467-3.04-1.467-5.235v-.18Zm1.557.27c0 1.775.356 3.177 1.067 4.206.712 1.02 1.715 1.53 3.01 1.53 1.895 0 3.241-.836 4.039-2.508v-6.534c-.798-1.809-2.135-2.713-4.013-2.713-1.295 0-2.303.51-3.023 1.53-.72 1.012-1.08 2.508-1.08 4.489Z" fill="#000"/><defs><linearGradient id="b" x1="25" y1="25" x2="355.091" y2="116.809" gradientUnits="userSpaceOnUse"><stop stop-color="#fff" stop-opacity=".9"/><stop offset="1" stop-color="#fff" stop-opacity=".7"/></linearGradient><linearGradient id="c" x1="132.848" y1="40.438" x2="229.932" y2="109.068" gradientUnits="userSpaceOnUse"><stop stop-color="#775EBF"/><stop offset="1" stop-color="#6576CC"/></linearGradient><filter id="a" x=".016" y=".016" width="349.968" height="249.968" filterUnits="userSpaceOnUse" color-interpolation-filters="sRGB"><feFlood flood-opacity="0" result="BackgroundImageFix"/><feGaussianBlur in="BackgroundImage" stdDeviation="11.651"/><feComposite in2="SourceAlpha" operator="in" result="effect1_backgroundBlur"/><feColorMatrix in="SourceAlpha" values="0 0 0 0 0 0 0 0 0 0 0 0 0 0 0 0 0 0 127 0" result="hardAlpha"/><feMorphology radius="4.164" operator="dilate" in="SourceAlpha" result="effect2_dropShadow"/><feOffset/><feGaussianBlur stdDeviation="10.41"/><feComposite in2="hardAlpha" operator="out"/><feColorMatrix values="0 0 0 0 0 0 0 0 0 0 0 0 0 0 0 0 0 0 0.5 0"/><feBlend in2="effect1_backgroundBlur" result="effect2_dropShadow"/><feBlend in="SourceGraphic" in2="effect2_dropShadow" result="shape"/></filter></defs></svg>