<svg width="350" height="250" fill="none" xmlns="http://www.w3.org/2000/svg"><g filter="url(#a)"><rect x="25" y="25" width="300" height="200" rx="25.328" fill="url(#b)" fill-opacity=".65" shape-rendering="crispEdges"/></g><path d="M67.756 61.492h-1.594v-8.977H55.46v8.977h-1.582V42.765h1.582v8.412h10.702v-8.412h1.594v18.727Zm9.801.257c-1.183 0-2.255-.291-3.215-.874-.952-.583-1.694-1.394-2.225-2.431-.532-1.046-.798-2.217-.798-3.511v-.553c0-1.338.257-2.543.772-3.615.523-1.072 1.248-1.912 2.174-2.52a5.32 5.32 0 0 1 3.01-.927c1.688 0 3.026.579 4.012 1.737.995 1.149 1.492 2.722 1.492 4.72v.862h-9.93v.296c0 1.577.45 2.894 1.351 3.948.91 1.046 2.05 1.57 3.421 1.57.824 0 1.548-.15 2.174-.45.635-.3 1.21-.781 1.724-1.441l.964.733c-1.132 1.638-2.773 2.456-4.926 2.456Zm-.283-13.119c-1.157 0-2.135.425-2.932 1.273-.79.85-1.27 1.99-1.44 3.422h8.347v-.167c-.043-1.338-.425-2.427-1.145-3.267-.72-.84-1.664-1.26-2.83-1.26ZM87.5 61.492h-1.544V41.736H87.5v19.756Zm15.383-6.817c0 2.17-.481 3.893-1.441 5.17-.96 1.27-2.247 1.904-3.859 1.904-1.903 0-3.36-.668-4.373-2.006v7.1h-1.53V47.575h1.427l.078 1.968c1.003-1.483 2.456-2.225 4.36-2.225 1.663 0 2.967.63 3.91 1.891.952 1.26 1.428 3.01 1.428 5.248v.218Zm-1.544-.27c0-1.775-.364-3.177-1.093-4.206-.729-1.029-1.745-1.543-3.048-1.543-.944 0-1.754.227-2.431.682-.678.454-1.197 1.114-1.557 1.98v6.676c.369.797.896 1.406 1.582 1.826.686.42 1.497.63 2.431.63 1.295 0 2.303-.514 3.023-1.543.729-1.038 1.093-2.538 1.093-4.502Zm15.782 4.875 4.064-11.705h1.659l-5.942 16.284-.309.72c-.763 1.69-1.942 2.534-3.537 2.534a4.32 4.32 0 0 1-1.183-.18l-.013-1.274.798.078c.754 0 1.363-.189 1.826-.566.472-.369.87-1.008 1.196-1.917l.682-1.878-5.248-13.8h1.685l4.322 11.704Zm7.061-4.952c0-1.338.257-2.542.772-3.614.523-1.072 1.256-1.904 2.199-2.495.952-.6 2.028-.9 3.229-.9 1.852 0 3.352.65 4.501 1.954 1.149 1.295 1.724 3.014 1.724 5.158v.322c0 1.346-.262 2.559-.785 3.64-.514 1.071-1.243 1.899-2.186 2.482-.944.583-2.02.874-3.229.874-1.843 0-3.344-.647-4.501-1.942-1.149-1.303-1.724-3.027-1.724-5.17v-.309Zm1.544.424c0 1.664.428 3.032 1.286 4.103.866 1.064 1.998 1.595 3.395 1.595 1.389 0 2.513-.531 3.37-1.595.866-1.071 1.299-2.482 1.299-4.231v-.296c0-1.063-.197-2.036-.591-2.92-.395-.883-.948-1.565-1.66-2.045-.711-.489-1.526-.733-2.443-.733-1.372 0-2.491.54-3.357 1.62-.866 1.073-1.299 2.479-1.299 4.22v.282Zm23.023 4.978c-.927 1.346-2.406 2.02-4.438 2.02-1.483 0-2.611-.43-3.383-1.287-.771-.866-1.166-2.143-1.183-3.833v-9.055h1.531v8.862c0 2.65 1.072 3.975 3.215 3.975 2.23 0 3.64-.922 4.232-2.766v-10.07h1.543v13.916h-1.492l-.025-1.762Zm11.961-10.843a5.752 5.752 0 0 0-1.042-.09c-.96 0-1.775.27-2.443.81-.661.532-1.132 1.308-1.415 2.329v9.556h-1.531V47.576h1.505l.026 2.212c.814-1.647 2.122-2.47 3.923-2.47.428 0 .767.056 1.016.167l-.039 1.402Zm13.994 11.563c1.072 0 1.968-.3 2.688-.9.729-.609 1.124-1.393 1.184-2.354h1.479a4.39 4.39 0 0 1-.798 2.328c-.488.695-1.14 1.24-1.955 1.634a5.832 5.832 0 0 1-2.598.591c-1.826 0-3.275-.634-4.347-1.903-1.064-1.27-1.595-2.976-1.595-5.12v-.462c0-1.372.24-2.586.72-3.64.48-1.055 1.166-1.87 2.058-2.444.9-.575 1.951-.862 3.151-.862 1.527 0 2.783.455 3.769 1.364.994.908 1.526 2.105 1.595 3.588h-1.479c-.069-1.089-.463-1.968-1.184-2.637-.711-.668-1.612-1.003-2.701-1.003-1.389 0-2.469.502-3.241 1.505-.763 1.003-1.145 2.41-1.145 4.219v.45c0 1.775.382 3.16 1.145 4.154.772.995 1.856 1.492 3.254 1.492Zm7.589-6.122c0-1.338.257-2.542.771-3.614.523-1.072 1.257-1.904 2.2-2.495.952-.6 2.028-.9 3.228-.9 1.852 0 3.353.65 4.502 1.954 1.149 1.295 1.723 3.014 1.723 5.158v.322c0 1.346-.261 2.559-.784 3.64-.515 1.071-1.243 1.899-2.187 2.482-.943.583-2.019.874-3.228.874-1.844 0-3.344-.647-4.502-1.942-1.149-1.303-1.723-3.027-1.723-5.17v-.309Zm1.543.424c0 1.664.429 3.032 1.286 4.103.866 1.064 1.998 1.595 3.396 1.595 1.389 0 2.512-.531 3.37-1.595.866-1.071 1.299-2.482 1.299-4.231v-.296c0-1.063-.197-2.036-.592-2.92-.394-.883-.947-1.565-1.659-2.045-.712-.489-1.526-.733-2.444-.733-1.372 0-2.491.54-3.357 1.62-.866 1.073-1.299 2.479-1.299 4.22v.282Zm15.473-7.177.052 2.264c.514-.84 1.157-1.47 1.929-1.89.772-.42 1.629-.63 2.572-.63 2.195 0 3.589.9 4.18 2.7.498-.866 1.162-1.53 1.994-1.993a5.484 5.484 0 0 1 2.753-.708c2.984 0 4.506 1.63 4.566 4.888v9.286h-1.544v-9.17c-.008-1.244-.279-2.166-.81-2.766-.523-.6-1.381-.9-2.573-.9-1.106.017-2.04.377-2.803 1.08-.764.695-1.188 1.544-1.274 2.547v9.21h-1.543v-9.287c-.009-1.192-.292-2.08-.849-2.663-.549-.591-1.398-.887-2.547-.887-.969 0-1.801.279-2.495.836-.695.549-1.209 1.368-1.544 2.457v9.543h-1.543V47.576h1.479Zm23.358 0 .051 2.264c.515-.84 1.158-1.47 1.929-1.89.772-.42 1.63-.63 2.573-.63 2.195 0 3.588.9 4.18 2.7a5.176 5.176 0 0 1 1.994-1.993 5.48 5.48 0 0 1 2.752-.708c2.984 0 4.506 1.63 4.566 4.888v9.286h-1.543v-9.17c-.009-1.244-.279-2.166-.811-2.766-.523-.6-1.38-.9-2.572-.9-1.106.017-2.041.377-2.804 1.08-.763.695-1.188 1.544-1.273 2.547v9.21h-1.544v-9.287c-.008-1.192-.291-2.08-.849-2.663-.548-.591-1.397-.887-2.546-.887-.969 0-1.801.279-2.496.836-.694.549-1.209 1.368-1.543 2.457v9.543h-1.544V47.576h1.48Zm30.907 12.155c-.926 1.346-2.405 2.02-4.437 2.02-1.484 0-2.611-.43-3.383-1.287-.772-.866-1.166-2.143-1.183-3.833v-9.055h1.53v8.862c0 2.65 1.072 3.975 3.216 3.975 2.229 0 3.64-.922 4.231-2.766v-10.07h1.544v13.916H253.6l-.026-1.762Zm6.997-12.154.051 2.379c.524-.858 1.175-1.51 1.955-1.955a5.05 5.05 0 0 1 2.586-.682c1.492 0 2.602.42 3.331 1.26.729.841 1.098 2.101 1.106 3.782v9.132h-1.53v-9.145c-.009-1.243-.275-2.17-.798-2.778-.514-.609-1.342-.913-2.482-.913a3.9 3.9 0 0 0-2.534.9c-.729.592-1.269 1.394-1.621 2.405v9.531h-1.53V47.576h1.466Zm14.74 13.916h-1.544V47.576h1.544v13.916Zm-1.814-17.942c0-.292.095-.536.283-.733.189-.206.446-.31.772-.31s.583.104.772.31a.997.997 0 0 1 .296.733.997.997 0 0 1-.296.733c-.189.197-.446.296-.772.296s-.583-.099-.772-.296a1.022 1.022 0 0 1-.283-.733Zm8.399.463v3.563h2.881v1.26h-2.881v9.273c0 .772.137 1.347.412 1.724.283.377.75.566 1.402.566.257 0 .673-.043 1.247-.129l.065 1.26c-.403.146-.952.22-1.647.22-1.054 0-1.822-.305-2.302-.914-.48-.617-.72-1.522-.72-2.714v-9.286h-2.56v-1.26h2.56v-3.563h1.543Zm10.483 15.267 4.064-11.705h1.659L292.16 63.86l-.309.72c-.763 1.69-1.942 2.534-3.537 2.534a4.32 4.32 0 0 1-1.183-.18l-.013-1.274.798.078c.754 0 1.363-.189 1.826-.566.472-.369.87-1.008 1.196-1.917l.682-1.878-5.248-13.8h1.685l4.322 11.704ZM116.105 75.013v3.563h2.881v1.26h-2.881v9.273c0 .772.137 1.347.411 1.724.283.377.751.566 1.402.566.258 0 .673-.043 1.248-.129l.064 1.26c-.403.147-.952.22-1.646.22-1.055 0-1.822-.305-2.302-.914-.481-.617-.721-1.522-.721-2.714v-9.286h-2.559v-1.26h2.559v-3.563h1.544Zm4.964 10.315c0-1.338.258-2.542.772-3.614.523-1.072 1.256-1.904 2.2-2.495.951-.6 2.027-.9 3.228-.9 1.852 0 3.353.65 4.502 1.954 1.149 1.295 1.723 3.014 1.723 5.158v.322c0 1.346-.261 2.559-.784 3.64-.515 1.071-1.244 1.899-2.187 2.482-.943.583-2.019.874-3.228.874-1.844 0-3.344-.647-4.502-1.942-1.149-1.303-1.724-3.027-1.724-5.17v-.309Zm1.544.424c0 1.664.429 3.032 1.286 4.104.866 1.063 1.998 1.594 3.396 1.594 1.389 0 2.512-.531 3.37-1.594.866-1.072 1.299-2.483 1.299-4.232v-.296c0-1.063-.198-2.036-.592-2.92-.394-.883-.948-1.564-1.659-2.045-.712-.489-1.527-.733-2.444-.733-1.372 0-2.491.54-3.357 1.62-.866 1.073-1.299 2.479-1.299 4.22v.282Zm22.869-10.74v3.564h2.881v1.26h-2.881v9.273c0 .772.137 1.347.411 1.724.283.377.75.566 1.402.566.257 0 .673-.043 1.248-.129l.064 1.26c-.403.147-.952.22-1.646.22-1.055 0-1.822-.305-2.303-.914-.48-.617-.72-1.522-.72-2.714v-9.286h-2.559v-1.26h2.559v-3.563h1.544Zm7.601 5.917c.506-.832 1.153-1.475 1.942-1.93a5.09 5.09 0 0 1 2.585-.68c1.492 0 2.603.42 3.332 1.26.729.84 1.097 2.1 1.106 3.781v9.132h-1.531v-9.145c-.008-1.243-.274-2.17-.797-2.778-.515-.609-1.342-.913-2.483-.913a3.9 3.9 0 0 0-2.533.9c-.729.592-1.269 1.394-1.621 2.405v9.531h-1.531V72.736h1.531v8.193Zm19.357-1.042a5.74 5.74 0 0 0-1.041-.09c-.961 0-1.775.27-2.444.81-.66.532-1.132 1.308-1.415 2.329v9.556h-1.531V78.576h1.505l.026 2.212c.815-1.647 2.122-2.47 3.923-2.47.429 0 .767.056 1.016.167l-.039 1.402Zm4.168 12.605h-1.544V78.576h1.544v13.916Zm-1.814-17.942c0-.292.094-.536.283-.733.189-.206.446-.31.772-.31s.583.104.772.31a.996.996 0 0 1 .295.733.996.996 0 0 1-.295.733c-.189.197-.446.296-.772.296s-.583-.099-.772-.296a1.018 1.018 0 0 1-.283-.733Zm10.341 15.82 4.232-11.794h1.582l-5.196 13.916h-1.248l-5.222-13.916h1.582l4.27 11.794Zm13.557 2.38c-1.184 0-2.255-.292-3.216-.875-.952-.583-1.693-1.394-2.225-2.431-.531-1.046-.797-2.217-.797-3.511v-.554c0-1.337.257-2.542.771-3.614.523-1.072 1.248-1.912 2.174-2.52a5.32 5.32 0 0 1 3.01-.927c1.689 0 3.027.579 4.013 1.737.994 1.149 1.492 2.722 1.492 4.72v.862h-9.93v.296c0 1.577.45 2.893 1.351 3.948.909 1.046 2.049 1.57 3.421 1.57.823 0 1.548-.15 2.174-.45.634-.3 1.209-.781 1.723-1.441l.965.733c-1.132 1.637-2.774 2.456-4.926 2.456Zm-.283-13.12c-1.158 0-2.135.425-2.933 1.273-.789.85-1.269 1.99-1.44 3.422h8.347v-.167c-.043-1.338-.424-2.427-1.145-3.267-.72-.84-1.663-1.26-2.829-1.26Zm26.11 6.045c0 2.17-.48 3.893-1.441 5.17-.96 1.27-2.251 1.904-3.871 1.904-1.938 0-3.404-.72-4.399-2.16l-.064 1.903h-1.441V72.736h1.531v7.859c.977-1.518 2.426-2.277 4.347-2.277 1.646 0 2.945.63 3.897 1.891.961 1.252 1.441 2.997 1.441 5.235v.231Zm-1.544-.27c0-1.835-.356-3.25-1.067-4.244-.712-1.004-1.715-1.505-3.01-1.505-.986 0-1.822.244-2.508.733-.686.48-1.205 1.188-1.556 2.122v6.277c.771 1.75 2.135 2.624 4.09 2.624 1.269 0 2.259-.502 2.971-1.505.72-1.003 1.08-2.504 1.08-4.502Zm9.21 4.875 4.064-11.704h1.659l-5.942 16.283-.309.72c-.763 1.69-1.942 2.534-3.537 2.534a4.31 4.31 0 0 1-1.183-.18l-.013-1.274.797.078c.755 0 1.364-.189 1.827-.566.471-.369.87-1.008 1.196-1.917l.682-1.878-5.248-13.8h1.685l4.322 11.704Z" fill="#000"/><path d="M77.153 137.955v11.709h-5.476v-31.512h12.055c3.52 0 6.313.916 8.376 2.749 2.078 1.832 3.117 4.256 3.117 7.272 0 3.087-1.018 5.49-3.052 7.207-2.02 1.717-4.855 2.575-8.506 2.575h-6.514Zm0-4.393h6.58c1.947 0 3.433-.455 4.457-1.364 1.025-.923 1.537-2.251 1.537-3.982 0-1.703-.52-3.059-1.558-4.069-1.039-1.024-2.467-1.551-4.285-1.58h-6.731v10.995Zm34.628-2.511a13.056 13.056 0 0 0-2.142-.173c-2.41 0-4.033.924-4.87 2.77v16.016h-5.26v-23.417h5.022l.13 2.618c1.269-2.034 3.03-3.051 5.281-3.051.75 0 1.37.101 1.861.303l-.022 4.934Zm13.202 19.046c-3.333 0-6.038-1.046-8.116-3.138-2.063-2.107-3.095-4.906-3.095-8.398v-.649c0-2.337.448-4.422 1.342-6.255.909-1.847 2.179-3.282 3.809-4.307 1.631-1.024 3.449-1.536 5.454-1.536 3.189 0 5.649 1.017 7.381 3.051 1.745 2.035 2.618 4.913 2.618 8.636v2.121h-15.301c.159 1.933.801 3.463 1.926 4.588 1.14 1.125 2.568 1.688 4.285 1.688 2.41 0 4.372-.974 5.887-2.922l2.835 2.706c-.937 1.399-2.193 2.489-3.765 3.268-1.559.765-3.312 1.147-5.26 1.147Zm-.627-20.063c-1.443 0-2.612.505-3.506 1.515-.881 1.01-1.443 2.417-1.689 4.22h10.021v-.389c-.115-1.76-.584-3.088-1.407-3.982-.822-.909-1.962-1.364-3.419-1.364Zm22.075 12.964 4.957-16.751h5.432l-8.116 23.417h-4.567l-8.181-23.417h5.454l5.021 16.751Zm23.699 7.099c-3.333 0-6.038-1.046-8.116-3.138-2.063-2.107-3.095-4.906-3.095-8.398v-.649c0-2.337.448-4.422 1.342-6.255.909-1.847 2.179-3.282 3.809-4.307 1.631-1.024 3.449-1.536 5.454-1.536 3.189 0 5.649 1.017 7.381 3.051 1.745 2.035 2.618 4.913 2.618 8.636v2.121h-15.301c.159 1.933.801 3.463 1.926 4.588 1.14 1.125 2.568 1.688 4.285 1.688 2.41 0 4.372-.974 5.887-2.922l2.835 2.706c-.937 1.399-2.193 2.489-3.765 3.268-1.559.765-3.312 1.147-5.26 1.147Zm-.627-20.063c-1.443 0-2.612.505-3.506 1.515-.881 1.01-1.443 2.417-1.689 4.22h10.021v-.389c-.115-1.76-.584-3.088-1.407-3.982-.822-.909-1.962-1.364-3.419-1.364Zm19.002-3.787.152 2.705c1.731-2.092 4.003-3.138 6.817-3.138 4.877 0 7.359 2.792 7.445 8.375v15.475h-5.259v-15.172c0-1.486-.325-2.582-.974-3.289-.635-.722-1.681-1.082-3.138-1.082-2.121 0-3.701.959-4.74 2.878v16.665h-5.259v-23.417h4.956Zm26.383-5.693v5.693h4.133v3.895h-4.133v13.072c0 .895.173 1.544.519 1.948.361.39.996.585 1.905.585.606 0 1.219-.072 1.839-.217v4.069c-1.197.332-2.352.498-3.463.498-4.04 0-6.06-2.229-6.06-6.688v-13.267h-3.852v-3.895h3.852v-5.693h5.26Zm13.765 29.11h-5.26v-23.417h5.26v23.417Zm-5.584-29.499c0-.808.252-1.479.757-2.013.52-.534 1.255-.801 2.208-.801.952 0 1.688.267 2.207.801.52.534.779 1.205.779 2.013 0 .793-.259 1.457-.779 1.991-.519.519-1.255.779-2.207.779-.953 0-1.688-.26-2.208-.779-.505-.534-.757-1.198-.757-1.991Zm16.21 6.082.152 2.705c1.731-2.092 4.004-3.138 6.817-3.138 4.877 0 7.359 2.792 7.445 8.375v15.475h-5.259v-15.172c0-1.486-.325-2.582-.974-3.289-.635-.722-1.681-1.082-3.138-1.082-2.121 0-3.701.959-4.74 2.878v16.665h-5.259v-23.417h4.956Zm18.873 11.535c0-3.636.851-6.536 2.554-8.7 1.717-2.179 3.989-3.268 6.817-3.268 2.669 0 4.769.93 6.298 2.792l.238-2.359h4.74v22.703c0 3.073-.96 5.497-2.879 7.272-1.904 1.775-4.48 2.662-7.726 2.662-1.717 0-3.398-.361-5.043-1.082-1.63-.707-2.871-1.638-3.722-2.792l2.489-3.16c1.616 1.919 3.607 2.878 5.973 2.878 1.746 0 3.124-.476 4.134-1.428 1.01-.938 1.515-2.323 1.515-4.155v-1.58c-1.515 1.688-3.535 2.532-6.06 2.532-2.742 0-4.985-1.089-6.731-3.268-1.732-2.179-2.597-5.194-2.597-9.047Zm5.237.455c0 2.352.476 4.206 1.429 5.562.966 1.342 2.301 2.013 4.004 2.013 2.121 0 3.693-.909 4.718-2.727v-10.302c-.996-1.775-2.554-2.662-4.675-2.662-1.732 0-3.081.685-4.047 2.056-.953 1.37-1.429 3.39-1.429 6.06Zm-129.056 51.285h-6.103v12.142h-5.476v-31.512h11.081c3.636 0 6.443.815 8.419 2.446 1.977 1.63 2.965 3.989 2.965 7.077 0 2.107-.512 3.874-1.536 5.302-1.01 1.414-2.424 2.504-4.242 3.269l7.077 13.137v.281h-5.865l-6.32-12.142Zm-6.103-4.393h5.627c1.847 0 3.29-.462 4.328-1.385 1.039-.938 1.559-2.215 1.559-3.831 0-1.688-.484-2.994-1.45-3.917-.953-.924-2.381-1.4-4.286-1.429h-5.778v10.562Zm35.667 16.535c-.231-.447-.433-1.176-.606-2.186-1.674 1.746-3.722 2.619-6.146 2.619-2.352 0-4.271-.671-5.757-2.013-1.487-1.342-2.23-3.001-2.23-4.978 0-2.496.924-4.408 2.771-5.735 1.861-1.342 4.516-2.013 7.964-2.013h3.225v-1.536c0-1.212-.339-2.179-1.017-2.901-.678-.735-1.71-1.103-3.095-1.103-1.198 0-2.179.303-2.944.909-.764.591-1.147 1.349-1.147 2.272h-5.259c0-1.284.426-2.482 1.277-3.593.851-1.125 2.006-2.005 3.463-2.64 1.472-.635 3.109-.952 4.913-.952 2.741 0 4.927.692 6.558 2.077 1.63 1.371 2.467 3.305 2.51 5.801v10.561c0 2.107.296 3.788.888 5.043v.368h-5.368Zm-5.778-3.787a5.922 5.922 0 0 0 2.921-.758c.924-.505 1.616-1.183 2.078-2.034v-4.415h-2.835c-1.948 0-3.413.339-4.394 1.017-.981.678-1.471 1.637-1.471 2.878 0 1.01.331 1.818.995 2.424.678.592 1.58.888 2.706.888Zm21.361 3.787h-5.259v-23.417h5.259v23.417Zm-5.584-29.499c0-.808.253-1.479.758-2.013.519-.534 1.255-.801 2.207-.801.953 0 1.688.267 2.208.801.519.534.779 1.205.779 2.013 0 .793-.26 1.457-.779 1.991-.52.519-1.255.779-2.208.779-.952 0-1.688-.26-2.207-.779-.505-.534-.758-1.198-.758-1.991Zm10.345 17.617c0-3.607.837-6.5 2.511-8.679 1.674-2.193 3.917-3.289 6.731-3.289 2.482 0 4.487.865 6.017 2.597v-11.99h5.259v33.243h-4.762l-.259-2.424c-1.573 1.905-3.672 2.857-6.298 2.857-2.742 0-4.964-1.104-6.666-3.311-1.688-2.208-2.533-5.209-2.533-9.004Zm5.26.455c0 2.38.454 4.242 1.363 5.583.924 1.328 2.229 1.992 3.917 1.992 2.15 0 3.723-.96 4.719-2.879v-9.999c-.967-1.876-2.525-2.813-4.675-2.813-1.703 0-3.016.678-3.939 2.034-.924 1.342-1.385 3.369-1.385 6.082Zm33.871 5.064c0-.938-.39-1.652-1.169-2.143-.765-.49-2.042-.923-3.831-1.298-1.789-.375-3.282-.851-4.48-1.429-2.626-1.269-3.939-3.109-3.939-5.518 0-2.02.851-3.709 2.554-5.065 1.703-1.356 3.867-2.034 6.493-2.034 2.799 0 5.057.692 6.774 2.077 1.731 1.386 2.597 3.182 2.597 5.389h-5.259c0-1.01-.375-1.846-1.125-2.51-.751-.678-1.746-1.017-2.987-1.017-1.154 0-2.1.267-2.835.8-.722.534-1.083 1.249-1.083 2.143 0 .808.34 1.436 1.018 1.883.678.447 2.049.902 4.112 1.364 2.063.447 3.679.988 4.848 1.623 1.183.62 2.056 1.37 2.619 2.251.577.88.865 1.947.865 3.203 0 2.106-.873 3.816-2.618 5.129-1.746 1.299-4.033 1.948-6.861 1.948-1.919 0-3.629-.346-5.13-1.039-1.5-.693-2.669-1.645-3.506-2.857-.837-1.212-1.255-2.518-1.255-3.917h5.108c.072 1.241.541 2.2 1.406 2.878.866.664 2.013.996 3.442.996 1.385 0 2.438-.26 3.16-.779.721-.534 1.082-1.227 1.082-2.078Z" fill="#E6AB71"/><defs><linearGradient id="b" x1="25" y1="25" x2="355.091" y2="116.809" gradientUnits="userSpaceOnUse"><stop stop-color="#fff" stop-opacity=".9"/><stop offset="1" stop-color="#fff" stop-opacity=".7"/></linearGradient><filter id="a" x=".016" y=".016" width="349.968" height="249.968" filterUnits="userSpaceOnUse" color-interpolation-filters="sRGB"><feFlood flood-opacity="0" result="BackgroundImageFix"/><feGaussianBlur in="BackgroundImage" stdDeviation="11.651"/><feComposite in2="SourceAlpha" operator="in" result="effect1_backgroundBlur"/><feColorMatrix in="SourceAlpha" values="0 0 0 0 0 0 0 0 0 0 0 0 0 0 0 0 0 0 127 0" result="hardAlpha"/><feMorphology radius="4.164" operator="dilate" in="SourceAlpha" result="effect2_dropShadow"/><feOffset/><feGaussianBlur stdDeviation="10.41"/><feComposite in2="hardAlpha" operator="out"/><feColorMatrix values="0 0 0 0 0 0 0 0 0 0 0 0 0 0 0 0 0 0 0.5 0"/><feBlend in2="effect1_backgroundBlur" result="effect2_dropShadow"/><feBlend in="SourceGraphic" in2="effect2_dropShadow" result="shape"/></filter></defs></svg>