<svg width="350" height="250" fill="none" xmlns="http://www.w3.org/2000/svg"><g filter="url(#a)"><rect x="25" y="25" width="300" height="200" rx="25.328" fill="url(#b)" fill-opacity=".65" shape-rendering="crispEdges"/></g><mask id="c" style="mask-type:alpha" maskUnits="userSpaceOnUse" x="25" y="25" width="300" height="200"><rect x="25" y="25" width="300" height="200" rx="25.328" fill="#181818"/></mask><g mask="url(#c)"><path d="m314.633 57 .011-.013.009-.015 14.397-22.384c2.222-3.456 3.87-6.016 5.213-7.637.672-.811 1.245-1.36 1.753-1.667.497-.302.902-.359 1.277-.241.375.118.675.396.911.927.24.543.398 1.32.486 2.37.176 2.098.066 5.14-.084 9.246l-8.203 224.201c-.047 1.28-.081 2.202-.2 2.904-.118.69-.309 1.113-.633 1.425-.323.311-.752.487-1.447.579-.705.094-1.628.094-2.909.094H24.646c-1.324 0-2.279 0-3.006-.098-.717-.097-1.155-.281-1.481-.606-.326-.326-.51-.765-.606-1.481-.098-.728-.099-1.683-.099-3.007v-62.88c0-.969.005-1.366.13-1.731.124-.365.364-.682.958-1.449l17.455-22.529c.769-.991 1.323-1.705 1.819-2.197.487-.484.882-.714 1.319-.782.436-.069.882.029 1.495.34.622.316 1.369.826 2.404 1.534l5.969 4.085.022.015c.917.627 1.634 1.118 2.25 1.435.63.325 1.196.491 1.808.426.612-.065 1.13-.345 1.679-.795.536-.439 1.135-1.07 1.9-1.875l.018-.019 15.786-16.62c.894-.941 1.266-1.321 1.738-1.509.472-.188 1.003-.169 2.3-.1l12.62.666.065.003c.817.043 1.312.07 1.789-.055.477-.125.896-.39 1.587-.828l.055-.035 12.001-7.595c.637-.403 1.093-.691 1.478-.887.378-.191.662-.28.949-.298.287-.018.58.035.979.178.406.145.895.374 1.578.695l22.576 10.603.017.008c.661.311 1.181.555 1.625.714.455.163.855.247 1.28.221.425-.026.812-.159 1.244-.377.42-.213.906-.519 1.523-.908l.017-.01 24.008-15.139c.619-.39 1.061-.669 1.435-.859.367-.186.643-.274.922-.295.278-.021.564.025.955.155.397.133.876.343 1.546.637l20.756 9.121.022.01c.905.397 1.615.709 2.211.892.611.188 1.142.253 1.685.125.542-.128.988-.422 1.452-.862.452-.43.949-1.026 1.582-1.785l.015-.019 7.969-9.563c.788-.945 1.36-1.631 1.848-2.109.487-.478.85-.707 1.207-.789a2.401 2.401 0 0 1 1.505.142c.335.146.649.44 1.038.999.391.562.825 1.343 1.422 2.417l.011.021c1.088 1.957 1.917 3.45 2.626 4.486.697 1.02 1.344 1.705 2.103 1.882a3.172 3.172 0 0 0 2.486-.457c.646-.435 1.007-1.306 1.296-2.507.294-1.221.537-2.911.857-5.127l.004-.023 4.848-33.593c.092-.637.132-.898.224-1.14.093-.242.238-.463.595-.998l10.562-15.843c1.076-1.614 1.86-2.788 2.559-3.562.695-.769 1.244-1.07 1.837-1.064.593.006 1.135.318 1.815 1.1.684.789 1.443 1.978 2.487 3.613l10.586 16.595.016.026c.761 1.193 1.354 2.122 1.912 2.775.568.667 1.14 1.096 1.875 1.219.735.124 1.417-.094 2.172-.538.74-.435 1.604-1.119 2.713-1.998l.025-.019 9.811-7.77.04-.03c.501-.398.805-.638 1.042-.944l-.301-.233.301.233c.237-.307.393-.661.65-1.246l.021-.047 9.953-22.606c.637-1.445 1.099-2.495 1.546-3.235.443-.737.832-1.103 1.288-1.256.21-.071.428-.113.649-.124.481-.024.977.174 1.66.697.686.526 1.501 1.333 2.623 2.444l.019.019c.87.862 1.547 1.534 2.14 1.994.603.469 1.161.755 1.797.79a3.16 3.16 0 0 0 .757-.047c.627-.116 1.145-.47 1.684-1.01.53-.531 1.118-1.283 1.872-2.247l.017-.022 11.99-15.326Z" fill="url(#d)" fill-opacity=".35" stroke="#424242" stroke-width=".76"/></g><path d="M111.994 65.97h-8.423v23.225h-4.656V65.97h-8.348v-3.785h21.427v3.784Zm12.41 7.272a11.143 11.143 0 0 0-1.836-.149c-2.066 0-3.457.792-4.174 2.375v13.727h-4.508V69.123h4.304l.111 2.245c1.088-1.744 2.597-2.616 4.526-2.616.643 0 1.175.087 1.596.26l-.019 4.23Zm14.284 15.953c-.197-.383-.371-1.008-.519-1.873-1.435 1.496-3.191 2.244-5.268 2.244-2.016 0-3.661-.575-4.935-1.725-1.274-1.15-1.911-2.572-1.911-4.267 0-2.14.792-3.778 2.375-4.916 1.595-1.15 3.871-1.725 6.827-1.725h2.764v-1.317c0-1.039-.291-1.867-.872-2.486-.582-.63-1.466-.946-2.653-.946-1.027 0-1.868.26-2.523.78-.655.506-.983 1.156-.983 1.947h-4.508c0-1.1.365-2.127 1.094-3.08.73-.964 1.719-1.719 2.969-2.263 1.261-.544 2.665-.816 4.211-.816 2.349 0 4.223.594 5.621 1.781 1.397 1.175 2.114 2.832 2.151 4.972v9.053c0 1.805.254 3.246.761 4.322v.315h-4.601Zm-4.953-3.246c.891 0 1.726-.216 2.505-.65.791-.432 1.385-1.014 1.781-1.743V79.77h-2.431c-1.669 0-2.924.291-3.765.872-.841.582-1.262 1.404-1.262 2.468 0 .865.285 1.558.853 2.077.582.507 1.355.76 2.319.76Zm21.761.018c1.125 0 2.059-.327 2.801-.983.742-.655 1.138-1.465 1.187-2.43h4.248c-.049 1.25-.439 2.418-1.168 3.506-.73 1.076-1.719 1.93-2.969 2.56a8.844 8.844 0 0 1-4.044.946c-2.807 0-5.033-.909-6.678-2.727-1.645-1.818-2.467-4.328-2.467-7.531v-.464c0-3.055.816-5.497 2.448-7.328 1.633-1.843 3.859-2.764 6.679-2.764 2.387 0 4.328.699 5.825 2.096 1.509 1.386 2.3 3.21 2.374 5.473h-4.248c-.049-1.15-.445-2.096-1.187-2.838-.73-.742-1.664-1.113-2.801-1.113-1.46 0-2.585.531-3.377 1.595-.791 1.051-1.193 2.653-1.205 4.805v.723c0 2.177.389 3.803 1.168 4.88.792 1.063 1.93 1.594 3.414 1.594Zm18.161-5.38-2.003 2.06v6.548h-4.508V60.701h4.508v16.436l1.409-1.762 5.547-6.252h5.417l-7.457 8.367 8.255 11.705h-5.213l-5.955-8.607Zm-99.6 46.652c0-1.188-.42-2.103-1.262-2.746-.828-.643-2.331-1.292-4.508-1.948-2.176-.655-3.908-1.385-5.194-2.189-2.461-1.546-3.692-3.562-3.692-6.047 0-2.177.885-3.97 2.653-5.38 1.781-1.41 4.088-2.115 6.92-2.115 1.88 0 3.555.346 5.027 1.039 1.472.692 2.628 1.682 3.47 2.968.84 1.274 1.26 2.69 1.26 4.248h-4.674c0-1.41-.445-2.51-1.336-3.302-.878-.804-2.14-1.206-3.784-1.206-1.534 0-2.727.328-3.58.984-.842.655-1.262 1.57-1.262 2.745 0 .989.457 1.818 1.373 2.486.915.655 2.424 1.298 4.526 1.929 2.103.619 3.79 1.33 5.064 2.134 1.274.791 2.208 1.706 2.802 2.745.593 1.027.89 2.232.89 3.618 0 2.25-.866 4.044-2.597 5.379-1.719 1.324-4.056 1.985-7.012 1.985-1.954 0-3.754-.358-5.399-1.076-1.632-.729-2.906-1.731-3.821-3.005-.903-1.274-1.354-2.758-1.354-4.452h4.693c0 1.533.507 2.721 1.521 3.562 1.014.841 2.468 1.261 4.36 1.261 1.632 0 2.857-.328 3.673-.983.829-.668 1.243-1.546 1.243-2.634Zm14.024-17.995v4.879h3.544v3.339H88.08v11.205c0 .767.149 1.323.445 1.67.31.334.854.501 1.633.501.52 0 1.045-.062 1.577-.186v3.488a11.119 11.119 0 0 1-2.968.426c-3.463 0-5.195-1.91-5.195-5.732v-11.372h-3.302v-3.339h3.302v-4.879h4.508Zm18.997 24.951c-.198-.383-.371-1.008-.52-1.873-1.434 1.496-3.191 2.244-5.268 2.244-2.016 0-3.661-.575-4.935-1.725-1.274-1.15-1.91-2.572-1.91-4.267 0-2.139.79-3.778 2.374-4.916 1.595-1.15 3.871-1.725 6.827-1.725h2.764v-1.317c0-1.039-.291-1.867-.872-2.486-.581-.631-1.466-.946-2.653-.946-1.026 0-1.867.26-2.523.779-.655.507-.983 1.157-.983 1.948H94.87c0-1.101.365-2.127 1.095-3.079.73-.965 1.719-1.719 2.968-2.264 1.261-.544 2.665-.816 4.211-.816 2.35 0 4.223.594 5.621 1.781 1.397 1.175 2.114 2.832 2.152 4.972v9.053c0 1.805.253 3.246.76 4.322v.315h-4.6Zm-4.954-3.246c.891 0 1.726-.217 2.505-.649.791-.433 1.385-1.015 1.781-1.744v-3.785h-2.43c-1.67 0-2.925.291-3.766.872-.841.582-1.262 1.404-1.262 2.468 0 .865.285 1.558.853 2.077.582.507 1.355.761 2.319.761Zm19.164-21.705v4.879h3.543v3.339h-3.543v11.205c0 .767.148 1.323.445 1.67.309.334.853.501 1.632.501.52 0 1.045-.062 1.577-.186v3.488a11.116 11.116 0 0 1-2.968.426c-3.463 0-5.194-1.91-5.194-5.732v-11.372h-3.302v-3.339h3.302v-4.879h4.508Zm11.798 24.951h-4.508v-20.072h4.508v20.072ZM128.3 108.91c0-.692.216-1.267.649-1.725.445-.458 1.076-.686 1.892-.686.817 0 1.447.228 1.893.686.445.458.667 1.033.667 1.725 0 .681-.222 1.249-.667 1.707-.446.445-1.076.668-1.893.668-.816 0-1.447-.223-1.892-.668-.433-.458-.649-1.026-.649-1.707Zm20.963 19.831c0-.804-.334-1.416-1.002-1.836-.656-.421-1.75-.792-3.284-1.113-1.533-.322-2.813-.73-3.84-1.225-2.251-1.088-3.376-2.665-3.376-4.73 0-1.732.73-3.179 2.189-4.341 1.459-1.163 3.314-1.744 5.565-1.744 2.399 0 4.335.594 5.807 1.781 1.484 1.187 2.226 2.727 2.226 4.619h-4.508c0-.866-.322-1.583-.965-2.152-.643-.581-1.496-.872-2.56-.872-.989 0-1.799.229-2.43.687-.618.457-.928 1.07-.928 1.836 0 .693.291 1.231.872 1.614.582.384 1.757.773 3.525 1.169 1.769.383 3.154.847 4.155 1.391 1.015.532 1.763 1.175 2.245 1.93.495.754.742 1.669.742 2.745 0 1.806-.748 3.271-2.244 4.397-1.497 1.113-3.457 1.669-5.881 1.669-1.645 0-3.111-.296-4.397-.89-1.286-.594-2.288-1.41-3.005-2.449-.717-1.039-1.076-2.158-1.076-3.358h4.378c.062 1.064.464 1.886 1.206 2.468.742.569 1.725.853 2.95.853 1.187 0 2.09-.223 2.708-.668.618-.457.928-1.051.928-1.781Zm14.024-19.497v4.879h3.543v3.339h-3.543v11.205c0 .767.148 1.323.445 1.67.309.334.854.501 1.633.501.519 0 1.045-.062 1.577-.186v3.488a11.124 11.124 0 0 1-2.969.426c-3.462 0-5.194-1.91-5.194-5.732v-11.372h-3.302v-3.339h3.302v-4.879h4.508Zm11.799 24.951h-4.508v-20.072h4.508v20.072Zm-4.787-25.285c0-.692.217-1.267.65-1.725.445-.458 1.076-.686 1.892-.686.816 0 1.447.228 1.892.686.445.458.668 1.033.668 1.725 0 .681-.223 1.249-.668 1.707-.445.445-1.076.668-1.892.668-.816 0-1.447-.223-1.892-.668-.433-.458-.65-1.026-.65-1.707Zm17.958 22.057c1.125 0 2.059-.327 2.801-.983.742-.655 1.138-1.465 1.187-2.43h4.248c-.049 1.249-.439 2.418-1.168 3.506-.73 1.076-1.719 1.929-2.969 2.56a8.841 8.841 0 0 1-4.044.946c-2.807 0-5.033-.909-6.678-2.727-1.645-1.818-2.467-4.328-2.467-7.531v-.464c0-3.055.816-5.497 2.448-7.328 1.633-1.843 3.859-2.764 6.679-2.764 2.387 0 4.328.699 5.825 2.096 1.509 1.386 2.3 3.21 2.374 5.473h-4.248c-.049-1.15-.445-2.096-1.187-2.838-.73-.742-1.663-1.113-2.801-1.113-1.46 0-2.585.531-3.377 1.595-.791 1.051-1.193 2.653-1.205 4.805v.723c0 2.177.389 3.803 1.168 4.879.792 1.064 1.93 1.595 3.414 1.595Zm22.892-2.226c0-.804-.334-1.416-1.002-1.836-.656-.421-1.75-.792-3.284-1.113-1.533-.322-2.813-.73-3.84-1.225-2.251-1.088-3.376-2.665-3.376-4.73 0-1.732.73-3.179 2.189-4.341 1.459-1.163 3.314-1.744 5.565-1.744 2.4 0 4.335.594 5.807 1.781 1.484 1.187 2.226 2.727 2.226 4.619h-4.508c0-.866-.322-1.583-.965-2.152-.643-.581-1.496-.872-2.56-.872-.989 0-1.799.229-2.43.687-.618.457-.927 1.07-.927 1.836 0 .693.29 1.231.872 1.614.581.384 1.756.773 3.524 1.169 1.769.383 3.154.847 4.156 1.391 1.014.532 1.762 1.175 2.244 1.93.495.754.742 1.669.742 2.745 0 1.806-.748 3.271-2.244 4.397-1.497 1.113-3.457 1.669-5.881 1.669-1.645 0-3.11-.296-4.397-.89-1.286-.594-2.288-1.41-3.005-2.449-.717-1.039-1.076-2.158-1.076-3.358h4.378c.062 1.064.464 1.886 1.206 2.468.742.569 1.725.853 2.95.853 1.187 0 2.09-.223 2.708-.668.618-.457.928-1.051.928-1.781Z" fill="url(#e)"/><path d="M128.82 176.723c-.154-.438-.253-1.085-.296-1.943a5.4 5.4 0 0 1-2.071 1.634 6.341 6.341 0 0 1-2.649.566c-1.338 0-2.423-.373-3.254-1.119-.824-.746-1.235-1.689-1.235-2.83 0-1.355.562-2.426 1.685-3.215 1.132-.789 2.705-1.184 4.72-1.184h2.791v-1.582c0-.994-.308-1.775-.926-2.34-.609-.575-1.5-.862-2.675-.862-1.072 0-1.959.274-2.663.823-.703.549-1.054 1.209-1.054 1.981l-1.544-.013c0-1.106.515-2.062 1.544-2.868 1.029-.815 2.293-1.222 3.794-1.222 1.552 0 2.774.39 3.666 1.17.9.772 1.363 1.852 1.389 3.241v6.586c0 1.346.141 2.353.424 3.022v.155h-1.646Zm-4.836-1.106c1.029 0 1.946-.249 2.752-.746.815-.498 1.407-1.162 1.775-1.994v-3.061h-2.752c-1.535.017-2.736.3-3.602.849-.866.54-1.299 1.286-1.299 2.238 0 .78.288 1.427.862 1.942.583.514 1.338.772 2.264.772Zm11.64-12.811.051 2.379c.523-.857 1.175-1.509 1.955-1.955a5.05 5.05 0 0 1 2.586-.681c1.492 0 2.602.42 3.331 1.26.729.841 1.098 2.101 1.106 3.782v9.132h-1.53v-9.145c-.009-1.244-.275-2.17-.798-2.778-.514-.609-1.342-.914-2.482-.914-.952 0-1.797.3-2.534.901-.729.591-1.269 1.393-1.621 2.405v9.531h-1.53v-13.917h1.466Zm12.399 6.83c0-2.161.48-3.88 1.44-5.158.969-1.286 2.281-1.929 3.936-1.929 1.878 0 3.31.741 4.296 2.225v-7.807h1.531v19.756h-1.441l-.064-1.852c-.986 1.406-2.435 2.109-4.347 2.109-1.604 0-2.899-.643-3.885-1.929-.977-1.295-1.466-3.04-1.466-5.235v-.18Zm1.556.27c0 1.775.356 3.177 1.068 4.206.711 1.02 1.715 1.53 3.01 1.53 1.895 0 3.241-.836 4.038-2.508V166.6c-.797-1.809-2.135-2.714-4.013-2.714-1.295 0-2.302.511-3.022 1.531-.721 1.012-1.081 2.508-1.081 4.489Zm29.056 5.055c-.927 1.346-2.406 2.019-4.438 2.019-1.483 0-2.611-.429-3.383-1.286-.771-.866-1.166-2.144-1.183-3.833v-9.055h1.531v8.862c0 2.649 1.072 3.974 3.215 3.974 2.23 0 3.64-.922 4.232-2.765v-10.071h1.543v13.917h-1.492l-.025-1.762Zm13.865-1.775c0-.764-.309-1.377-.926-1.84-.609-.463-1.531-.823-2.766-1.08-1.234-.266-2.195-.566-2.881-.9-.677-.343-1.183-.759-1.517-1.248-.326-.489-.489-1.08-.489-1.775 0-1.098.459-2.002 1.376-2.714.918-.72 2.092-1.08 3.524-1.08 1.552 0 2.796.386 3.73 1.157.943.763 1.415 1.762 1.415 2.997h-1.543c0-.814-.343-1.492-1.029-2.032-.678-.54-1.535-.81-2.573-.81-1.012 0-1.826.227-2.443.681-.609.446-.914 1.029-.914 1.75 0 .694.253 1.234.759 1.62.515.377 1.445.725 2.791 1.042 1.355.317 2.367.656 3.036 1.016.677.36 1.179.793 1.505 1.299.325.506.488 1.119.488 1.839 0 1.175-.476 2.114-1.427 2.817-.944.703-2.178 1.055-3.705 1.055-1.62 0-2.937-.39-3.948-1.171-1.004-.788-1.505-1.783-1.505-2.984h1.543c.06.901.438 1.604 1.132 2.11.703.497 1.629.746 2.778.746 1.072 0 1.938-.236 2.598-.708.661-.471.991-1.067.991-1.787Zm10.405 3.794c-1.183 0-2.255-.292-3.215-.875-.952-.583-1.694-1.393-2.225-2.431-.532-1.046-.798-2.216-.798-3.511v-.553c0-1.338.257-2.542.772-3.614.523-1.072 1.247-1.912 2.174-2.521a5.314 5.314 0 0 1 3.009-.926c1.689 0 3.027.578 4.013 1.736.995 1.149 1.492 2.723 1.492 4.72v.862h-9.929v.296c0 1.578.45 2.894 1.35 3.949.909 1.046 2.05 1.569 3.422 1.569.823 0 1.547-.15 2.173-.45.635-.3 1.209-.781 1.724-1.441l.964.733c-1.131 1.638-2.774 2.457-4.926 2.457Zm-.283-13.119c-1.157 0-2.135.424-2.932 1.273-.789.849-1.269 1.989-1.441 3.421h8.348v-.167c-.043-1.338-.425-2.427-1.145-3.267-.72-.84-1.664-1.26-2.83-1.26Zm17.3-4.618v3.563h2.881v1.26h-2.881v9.274c0 .772.137 1.346.411 1.723.283.378.751.566 1.402.566.257 0 .673-.042 1.248-.128l.064 1.26c-.403.146-.952.219-1.646.219-1.055 0-1.822-.305-2.302-.913-.481-.618-.721-1.522-.721-2.714v-9.287h-2.559v-1.26h2.559v-3.563h1.544Zm7.601 5.917c.506-.832 1.153-1.475 1.942-1.93a5.095 5.095 0 0 1 2.586-.681c1.492 0 2.602.42 3.331 1.26.729.841 1.097 2.101 1.106 3.782v9.132h-1.531v-9.145c-.008-1.244-.274-2.17-.797-2.778-.515-.609-1.342-.914-2.482-.914-.952 0-1.797.3-2.534.901-.729.591-1.269 1.393-1.621 2.405v9.531h-1.53v-19.756h1.53v8.193Zm18.316 11.82c-1.184 0-2.255-.292-3.216-.875-.952-.583-1.693-1.393-2.225-2.431-.532-1.046-.797-2.216-.797-3.511v-.553c0-1.338.257-2.542.771-3.614.523-1.072 1.248-1.912 2.174-2.521a5.315 5.315 0 0 1 3.01-.926c1.689 0 3.027.578 4.013 1.736.994 1.149 1.492 2.723 1.492 4.72v.862h-9.93v.296c0 1.578.45 2.894 1.351 3.949.909 1.046 2.049 1.569 3.421 1.569.823 0 1.548-.15 2.174-.45.634-.3 1.209-.781 1.723-1.441l.965.733c-1.132 1.638-2.774 2.457-4.926 2.457Zm-.283-13.119c-1.158 0-2.135.424-2.933 1.273-.789.849-1.269 1.989-1.44 3.421h8.347v-.167c-.043-1.338-.424-2.427-1.145-3.267-.72-.84-1.663-1.26-2.829-1.26Zm9.903-1.055.052 2.264c.514-.841 1.157-1.471 1.929-1.891.772-.42 1.629-.63 2.573-.63 2.195 0 3.588.9 4.18 2.701.497-.866 1.162-1.531 1.993-1.994a5.492 5.492 0 0 1 2.753-.707c2.984 0 4.506 1.629 4.566 4.887v9.287h-1.544v-9.171c-.008-1.243-.278-2.165-.81-2.765-.523-.601-1.38-.901-2.572-.901-1.106.018-2.041.378-2.804 1.081-.763.694-1.188 1.543-1.274 2.546v9.21h-1.543v-9.287c-.009-1.192-.292-2.079-.849-2.662-.549-.592-1.398-.888-2.547-.888-.968 0-1.8.279-2.495.836-.694.549-1.209 1.368-1.543 2.457v9.544h-1.544v-13.917h1.479Zm30.754-3.563v3.563h2.881v1.26h-2.881v9.274c0 .772.137 1.346.411 1.723.283.378.75.566 1.402.566.257 0 .673-.042 1.248-.128l.064 1.26c-.403.146-.952.219-1.646.219-1.055 0-1.822-.305-2.303-.913-.48-.618-.72-1.522-.72-2.714v-9.287h-2.559v-1.26h2.559v-3.563h1.544Zm4.964 10.316c0-1.338.258-2.543.772-3.615.523-1.072 1.256-1.903 2.199-2.495.952-.6 2.028-.9 3.229-.9 1.852 0 3.352.651 4.502 1.955 1.149 1.295 1.723 3.014 1.723 5.157v.322c0 1.346-.262 2.559-.785 3.64-.514 1.072-1.243 1.899-2.186 2.482-.943.583-2.019.875-3.228.875-1.844 0-3.345-.647-4.502-1.942-1.149-1.304-1.724-3.027-1.724-5.171v-.308Zm1.544.424c0 1.663.428 3.031 1.286 4.103.866 1.063 1.998 1.595 3.396 1.595 1.389 0 2.512-.532 3.369-1.595.866-1.072 1.299-2.482 1.299-4.232v-.295c0-1.064-.197-2.037-.591-2.92-.395-.883-.948-1.565-1.659-2.045-.712-.489-1.527-.733-2.444-.733-1.372 0-2.491.54-3.357 1.62-.866 1.072-1.299 2.478-1.299 4.219v.283Zm-179.207 30.653c0-2.178.48-3.902 1.441-5.171.969-1.277 2.281-1.916 3.935-1.916 1.895 0 3.336.754 4.322 2.263l.077-2.006h1.441v13.634c0 1.792-.502 3.211-1.505 4.257-1.003 1.046-2.362 1.569-4.077 1.569a6.18 6.18 0 0 1-2.779-.656c-.874-.429-1.564-1.003-2.07-1.723l.861-.926c1.089 1.337 2.384 2.006 3.885 2.006 1.286 0 2.289-.381 3.01-1.145.72-.754 1.093-1.805 1.119-3.151v-1.749c-.987 1.372-2.423 2.058-4.309 2.058-1.612 0-2.907-.643-3.885-1.929-.977-1.287-1.466-3.023-1.466-5.21v-.205Zm1.556.27c0 1.775.356 3.177 1.068 4.206.712 1.02 1.715 1.53 3.01 1.53 1.895 0 3.237-.849 4.026-2.546v-6.47c-.361-.892-.879-1.569-1.557-2.032-.677-.472-1.492-.708-2.444-.708-1.294 0-2.302.511-3.022 1.531-.72 1.012-1.081 2.508-1.081 4.489Zm20.104-5.788a5.752 5.752 0 0 0-1.042-.09c-.96 0-1.775.27-2.444.81-.66.532-1.132 1.308-1.415 2.328v9.557h-1.53v-13.917h1.505l.025 2.212c.815-1.646 2.123-2.469 3.923-2.469.429 0 .768.055 1.016.167l-.038 1.402Zm1.337 5.441c0-1.338.258-2.543.772-3.615.523-1.072 1.256-1.903 2.2-2.495.951-.6 2.027-.9 3.228-.9 1.852 0 3.353.651 4.502 1.955 1.149 1.295 1.723 3.014 1.723 5.157v.322c0 1.346-.261 2.559-.784 3.64-.515 1.072-1.244 1.899-2.187 2.482-.943.583-2.019.875-3.228.875-1.844 0-3.344-.647-4.502-1.942-1.149-1.304-1.724-3.027-1.724-5.171v-.308Zm1.544.424c0 1.663.429 3.031 1.286 4.103.866 1.063 1.998 1.595 3.396 1.595 1.389 0 2.512-.532 3.369-1.595.867-1.072 1.3-2.482 1.3-4.232v-.295c0-1.064-.198-2.037-.592-2.92-.395-.883-.948-1.565-1.659-2.045-.712-.489-1.527-.733-2.444-.733-1.372 0-2.491.54-3.357 1.62-.866 1.072-1.299 2.478-1.299 4.219v.283Zm17.402 3.537.232 1.196.308-1.26 3.345-10.65h1.311l3.306 10.56.36 1.466.296-1.351 2.855-10.675h1.595l-4.051 13.917h-1.312l-3.576-11.036-.167-.759-.167.772-3.512 11.023h-1.312l-4.038-13.917h1.582l2.945 10.714Zm27.345.99 4.064-11.704h1.659l-5.942 16.283-.308.721c-.764 1.689-1.943 2.533-3.538 2.533a4.32 4.32 0 0 1-1.183-.18l-.013-1.273.798.077c.754 0 1.363-.189 1.826-.566.472-.369.87-1.007 1.196-1.916l.682-1.878-5.248-13.801h1.685l4.322 11.704Zm7.061-4.951c0-1.338.257-2.543.772-3.615.523-1.072 1.256-1.903 2.199-2.495.952-.6 2.028-.9 3.229-.9 1.852 0 3.352.651 4.501 1.955 1.149 1.295 1.724 3.014 1.724 5.157v.322c0 1.346-.262 2.559-.785 3.64-.514 1.072-1.243 1.899-2.186 2.482-.944.583-2.02.875-3.229.875-1.843 0-3.344-.647-4.501-1.942-1.149-1.304-1.724-3.027-1.724-5.171v-.308Zm1.544.424c0 1.663.428 3.031 1.286 4.103.866 1.063 1.998 1.595 3.395 1.595 1.389 0 2.513-.532 3.37-1.595.866-1.072 1.299-2.482 1.299-4.232v-.295c0-1.064-.197-2.037-.591-2.92-.395-.883-.948-1.565-1.66-2.045-.711-.489-1.526-.733-2.443-.733-1.372 0-2.491.54-3.357 1.62-.866 1.072-1.299 2.478-1.299 4.219v.283Zm23.023 4.978c-.926 1.346-2.406 2.019-4.438 2.019-1.483 0-2.611-.429-3.383-1.286-.771-.866-1.166-2.144-1.183-3.833v-9.055h1.531v8.862c0 2.649 1.072 3.974 3.215 3.974 2.23 0 3.64-.922 4.232-2.765v-10.071h1.543v13.917h-1.492l-.025-1.762Zm11.961-10.843a5.752 5.752 0 0 0-1.042-.09c-.96 0-1.775.27-2.443.81-.661.532-1.132 1.308-1.415 2.328v9.557h-1.531v-13.917h1.505l.026 2.212c.814-1.646 2.122-2.469 3.923-2.469.428 0 .767.055 1.016.167l-.039 1.402Zm17.184 9.068c0-.764-.309-1.377-.926-1.84-.609-.463-1.531-.823-2.765-1.08-1.235-.266-2.196-.566-2.882-.9-.677-.343-1.183-.759-1.517-1.248-.326-.489-.489-1.08-.489-1.775 0-1.098.459-2.002 1.376-2.714.918-.72 2.092-1.08 3.524-1.08 1.552 0 2.796.386 3.73 1.157.944.763 1.415 1.762 1.415 2.997h-1.543c0-.814-.343-1.492-1.029-2.032-.678-.54-1.535-.81-2.573-.81-1.011 0-1.826.227-2.443.681-.609.446-.914 1.029-.914 1.75 0 .694.253 1.234.759 1.62.515.377 1.445.725 2.791 1.042 1.355.317 2.367.656 3.036 1.016.677.36 1.179.793 1.505 1.299.325.506.488 1.119.488 1.839 0 1.175-.476 2.114-1.427 2.817-.944.703-2.178 1.055-3.705 1.055-1.62 0-2.936-.39-3.948-1.171-1.003-.788-1.505-1.783-1.505-2.984h1.543c.06.901.438 1.604 1.132 2.11.703.497 1.629.746 2.778.746 1.072 0 1.938-.236 2.599-.708.66-.471.99-1.067.99-1.787Zm10.405 3.794c-1.183 0-2.255-.292-3.215-.875-.952-.583-1.694-1.393-2.225-2.431-.532-1.046-.798-2.216-.798-3.511v-.553c0-1.338.257-2.542.772-3.614.523-1.072 1.248-1.912 2.174-2.521a5.314 5.314 0 0 1 3.009-.926c1.69 0 3.027.578 4.013 1.736.995 1.149 1.492 2.723 1.492 4.72v.862h-9.929v.296c0 1.578.45 2.894 1.35 3.949.909 1.046 2.05 1.569 3.422 1.569.823 0 1.547-.15 2.173-.45.635-.3 1.209-.781 1.724-1.441l.964.733c-1.131 1.638-2.773 2.457-4.926 2.457Zm-.283-13.119c-1.157 0-2.135.424-2.932 1.273-.789.849-1.269 1.989-1.441 3.421h8.348v-.167c-.043-1.338-.425-2.427-1.145-3.267-.72-.84-1.663-1.26-2.83-1.26Zm14.933.257a5.752 5.752 0 0 0-1.042-.09c-.96 0-1.775.27-2.443.81-.661.532-1.132 1.308-1.415 2.328v9.557h-1.531v-13.917h1.505l.026 2.212c.814-1.646 2.122-2.469 3.923-2.469.428 0 .767.055 1.016.167l-.039 1.402Zm7.01 10.482 4.232-11.794h1.582l-5.197 13.917h-1.247l-5.222-13.917h1.582l4.27 11.794Zm13.557 2.38c-1.184 0-2.256-.292-3.216-.875-.952-.583-1.693-1.393-2.225-2.431-.532-1.046-.798-2.216-.798-3.511v-.553c0-1.338.258-2.542.772-3.614.523-1.072 1.248-1.912 2.174-2.521a5.315 5.315 0 0 1 3.01-.926c1.689 0 3.026.578 4.013 1.736.994 1.149 1.492 2.723 1.492 4.72v.862h-9.93v.296c0 1.578.45 2.894 1.351 3.949.908 1.046 2.049 1.569 3.421 1.569.823 0 1.548-.15 2.174-.45.634-.3 1.209-.781 1.723-1.441l.965.733c-1.132 1.638-2.774 2.457-4.926 2.457Zm-.283-13.119c-1.158 0-2.136.424-2.933 1.273-.789.849-1.269 1.989-1.441 3.421h8.348v-.167c-.043-1.338-.425-2.427-1.145-3.267-.72-.84-1.663-1.26-2.829-1.26Zm14.932.257a5.74 5.74 0 0 0-1.041-.09c-.961 0-1.775.27-2.444.81-.66.532-1.132 1.308-1.415 2.328v9.557h-1.531v-13.917h1.505l.026 2.212c.815-1.646 2.122-2.469 3.923-2.469.429 0 .767.055 1.016.167l-.039 1.402Z" fill="#000"/><defs><linearGradient id="b" x1="25" y1="25" x2="355.091" y2="116.809" gradientUnits="userSpaceOnUse"><stop stop-color="#fff" stop-opacity=".9"/><stop offset="1" stop-color="#fff" stop-opacity=".7"/></linearGradient><linearGradient id="d" x1="174.831" y1="105.76" x2="174.905" y2="207.102" gradientUnits="userSpaceOnUse"><stop stop-color="#8D58B3"/><stop offset="1" stop-color="#775EBF" stop-opacity=".25"/></linearGradient><linearGradient id="e" x1="107.11" y1="54.195" x2="185.525" y2="98.942" gradientUnits="userSpaceOnUse"><stop stop-color="#8D58B3"/><stop offset="1" stop-color="#775EBF"/></linearGradient><filter id="a" x=".016" y=".016" width="349.967" height="249.968" filterUnits="userSpaceOnUse" color-interpolation-filters="sRGB"><feFlood flood-opacity="0" result="BackgroundImageFix"/><feGaussianBlur in="BackgroundImage" stdDeviation="11.651"/><feComposite in2="SourceAlpha" operator="in" result="effect1_backgroundBlur"/><feColorMatrix in="SourceAlpha" values="0 0 0 0 0 0 0 0 0 0 0 0 0 0 0 0 0 0 127 0" result="hardAlpha"/><feMorphology radius="4.164" operator="dilate" in="SourceAlpha" result="effect2_dropShadow"/><feOffset/><feGaussianBlur stdDeviation="10.41"/><feComposite in2="hardAlpha" operator="out"/><feColorMatrix values="0 0 0 0 0 0 0 0 0 0 0 0 0 0 0 0 0 0 0.5 0"/><feBlend in2="effect1_backgroundBlur" result="effect2_dropShadow"/><feBlend in="SourceGraphic" in2="effect2_dropShadow" result="shape"/></filter></defs></svg>