<svg width="250" height="250" fill="none" xmlns="http://www.w3.org/2000/svg"><g filter="url(#a)"><rect x="25" y="25" width="200" height="200" rx="25.328" fill="url(#b)" fill-opacity=".65" shape-rendering="crispEdges"/></g><path d="M107.194 206.786h1.454-1.454c0 1.989 1.627 3.602 3.634 3.602v-1.441 1.441h11.166c.964 0 1.888-.38 2.57-1.055l23.354-23.146a3.579 3.579 0 0 0 0-5.093l-11.166-11.066a3.658 3.658 0 0 0-5.139 0l-23.355 23.146a3.585 3.585 0 0 0-1.064 2.546v11.066Zm9.207-5.636a3.649 3.649 0 0 1 0-5.193 3.729 3.729 0 0 1 5.24 0 3.649 3.649 0 0 1 0 5.193 3.729 3.729 0 0 1-5.24 0Z" stroke="url(#c)" stroke-width="2.894"/><path d="M33.937 147.908v-12.656h-2.302v-1.261h2.302v-1.684c0-1.424.36-2.517 1.08-3.28.73-.763 1.74-1.145 3.036-1.145.583 0 1.127.073 1.633.219l-.116 1.286a5.998 5.998 0 0 0-1.402-.154c-.849 0-1.509.265-1.98.797-.472.523-.708 1.269-.708 2.238v1.723h3.32v1.261h-3.32v12.656h-1.543Zm6.765-7.164c0-1.338.258-2.542.772-3.614.523-1.072 1.256-1.904 2.2-2.495.951-.601 2.027-.901 3.228-.901 1.852 0 3.352.652 4.501 1.955 1.15 1.295 1.724 3.014 1.724 5.158v.322c0 1.346-.262 2.559-.785 3.639-.514 1.072-1.243 1.9-2.186 2.483-.943.583-2.02.874-3.228.874-1.844 0-3.345-.647-4.502-1.942-1.15-1.303-1.724-3.027-1.724-5.17v-.309Zm1.544.425c0 1.663.428 3.031 1.286 4.102.866 1.064 1.998 1.595 3.396 1.595 1.389 0 2.512-.531 3.37-1.595.865-1.071 1.298-2.482 1.298-4.231v-.296c0-1.063-.197-2.036-.591-2.92-.395-.883-.948-1.565-1.66-2.045-.711-.488-1.526-.733-2.443-.733-1.372 0-2.491.54-3.357 1.621-.866 1.072-1.3 2.478-1.3 4.219v.283Zm20.502-5.866a5.752 5.752 0 0 0-1.042-.09c-.96 0-1.775.27-2.444.811-.66.531-1.132 1.307-1.415 2.328v9.556h-1.53v-13.917h1.505l.025 2.213c.815-1.647 2.123-2.47 3.923-2.47.429 0 .768.056 1.016.167l-.038 1.402Zm8.231 5.518c0-2.178.48-3.901 1.441-5.17.969-1.278 2.29-1.917 3.962-1.917 1.877 0 3.305.716 4.283 2.148l.077-1.891h1.44v19.268H80.64v-7.074c-1.012 1.32-2.44 1.98-4.283 1.98-1.63 0-2.933-.643-3.91-1.929-.978-1.286-1.467-3.022-1.467-5.209v-.206Zm1.557.27c0 1.801.36 3.216 1.08 4.245.729 1.02 1.737 1.53 3.023 1.53 1.843 0 3.177-.801 4-2.405v-6.817c-.386-.831-.922-1.47-1.608-1.916-.677-.455-1.466-.682-2.367-.682-1.294 0-2.306.515-3.035 1.544-.729 1.02-1.093 2.521-1.093 4.501Zm22.701 5.055c-.926 1.346-2.405 2.019-4.437 2.019-1.484 0-2.611-.428-3.383-1.286-.772-.866-1.166-2.143-1.183-3.833v-9.055h1.53v8.862c0 2.65 1.072 3.975 3.216 3.975 2.23 0 3.64-.922 4.231-2.766v-10.071h1.544v13.917h-1.492l-.026-1.762Zm7.254 1.762h-1.543v-13.917h1.543v13.917Zm-1.813-17.942c0-.292.094-.536.283-.733.188-.206.446-.309.772-.309.325 0 .583.103.771.309a.995.995 0 0 1 .296.733.997.997 0 0 1-.296.733c-.188.197-.446.296-.771.296-.326 0-.584-.099-.772-.296a1.018 1.018 0 0 1-.283-.733Zm11.151 16.9c1.072 0 1.968-.3 2.688-.9.729-.609 1.124-1.393 1.184-2.354h1.479a4.39 4.39 0 0 1-.798 2.328c-.488.695-1.14 1.239-1.955 1.634a5.837 5.837 0 0 1-2.598.591c-1.826 0-3.275-.634-4.347-1.903-1.063-1.269-1.595-2.976-1.595-5.119v-.463c0-1.372.24-2.586.72-3.64.48-1.055 1.166-1.869 2.058-2.444.901-.574 1.951-.862 3.151-.862 1.527 0 2.783.455 3.769 1.364.995.909 1.526 2.105 1.595 3.588h-1.479c-.069-1.089-.463-1.968-1.184-2.637-.711-.668-1.612-1.003-2.701-1.003-1.389 0-2.469.502-3.241 1.505-.763 1.003-1.145 2.41-1.145 4.219v.45c0 1.775.382 3.16 1.145 4.154.772.995 1.857 1.492 3.254 1.492Zm11.743-5.968-1.762 1.698v5.312h-1.543v-19.756h1.543v12.644l1.454-1.57 5.324-5.235h1.943l-5.904 5.866 6.418 8.051h-1.839l-5.634-7.01Zm24.798 7.01c-.154-.437-.253-1.084-.296-1.942a5.414 5.414 0 0 1-2.07 1.634 6.345 6.345 0 0 1-2.65.565c-1.338 0-2.422-.373-3.254-1.119-.823-.746-1.235-1.689-1.235-2.829 0-1.355.562-2.427 1.685-3.216 1.132-.789 2.705-1.183 4.721-1.183h2.791v-1.582c0-.995-.309-1.775-.926-2.341-.609-.574-1.501-.862-2.676-.862-1.072 0-1.959.275-2.662.823-.703.549-1.055 1.21-1.055 1.981l-1.543-.013c0-1.106.514-2.062 1.543-2.868 1.029-.814 2.294-1.222 3.794-1.222 1.552 0 2.774.39 3.666 1.171.9.771 1.363 1.852 1.389 3.241v6.585c0 1.347.142 2.354.425 3.023v.154h-1.647Zm-4.836-1.106c1.029 0 1.947-.249 2.753-.746.814-.497 1.406-1.162 1.775-1.994v-3.061h-2.753c-1.535.017-2.735.3-3.601.849-.866.54-1.299 1.286-1.299 2.238 0 .78.287 1.428.861 1.942.584.515 1.338.772 2.264.772Zm15.319.064c1.072 0 1.968-.3 2.688-.9.729-.609 1.123-1.393 1.183-2.354h1.479a4.38 4.38 0 0 1-.797 2.328c-.489.695-1.14 1.239-1.955 1.634a5.837 5.837 0 0 1-2.598.591c-1.827 0-3.276-.634-4.348-1.903-1.063-1.269-1.594-2.976-1.594-5.119v-.463c0-1.372.24-2.586.72-3.64.48-1.055 1.166-1.869 2.058-2.444.9-.574 1.95-.862 3.151-.862 1.526 0 2.782.455 3.769 1.364.994.909 1.526 2.105 1.594 3.588h-1.479c-.068-1.089-.463-1.968-1.183-2.637-.712-.668-1.612-1.003-2.701-1.003-1.389 0-2.47.502-3.241 1.505-.763 1.003-1.145 2.41-1.145 4.219v.45c0 1.775.382 3.16 1.145 4.154.771.995 1.856 1.492 3.254 1.492Zm13.582 0c1.072 0 1.968-.3 2.688-.9.729-.609 1.124-1.393 1.184-2.354h1.479a4.39 4.39 0 0 1-.798 2.328c-.488.695-1.14 1.239-1.955 1.634a5.837 5.837 0 0 1-2.598.591c-1.826 0-3.275-.634-4.347-1.903-1.064-1.269-1.595-2.976-1.595-5.119v-.463c0-1.372.24-2.586.72-3.64.48-1.055 1.166-1.869 2.058-2.444.9-.574 1.951-.862 3.151-.862 1.527 0 2.783.455 3.769 1.364.994.909 1.526 2.105 1.595 3.588h-1.479c-.069-1.089-.463-1.968-1.184-2.637-.711-.668-1.612-1.003-2.701-1.003-1.389 0-2.469.502-3.241 1.505-.763 1.003-1.145 2.41-1.145 4.219v.45c0 1.775.382 3.16 1.145 4.154.772.995 1.856 1.492 3.254 1.492Zm13.827 1.299c-1.184 0-2.255-.291-3.216-.874-.951-.583-1.693-1.394-2.225-2.431-.531-1.046-.797-2.217-.797-3.511v-.553c0-1.338.257-2.543.771-3.615.523-1.072 1.248-1.912 2.174-2.521a5.322 5.322 0 0 1 3.01-.926c1.689 0 3.027.579 4.013 1.737.994 1.149 1.492 2.722 1.492 4.72v.862h-9.93v.296c0 1.577.45 2.894 1.351 3.948.909 1.046 2.049 1.569 3.421 1.569.823 0 1.548-.15 2.174-.45.634-.3 1.209-.78 1.723-1.44l.965.733c-1.132 1.638-2.774 2.456-4.926 2.456Zm-.283-13.119c-1.158 0-2.135.425-2.933 1.274-.789.848-1.269 1.989-1.44 3.421h8.347v-.167c-.043-1.338-.424-2.427-1.145-3.267-.72-.841-1.663-1.261-2.829-1.261Zm16.836 9.325c0-.763-.308-1.376-.926-1.839-.609-.463-1.53-.823-2.765-1.081-1.235-.265-2.195-.565-2.881-.9-.678-.343-1.184-.759-1.518-1.247-.326-.489-.489-1.081-.489-1.775 0-1.098.459-2.003 1.376-2.714.918-.721 2.093-1.081 3.525-1.081 1.552 0 2.795.386 3.73 1.158.943.763 1.414 1.762 1.414 2.997h-1.543c0-.815-.343-1.492-1.029-2.033-.677-.54-1.535-.81-2.572-.81-1.012 0-1.827.227-2.444.682-.609.446-.913 1.029-.913 1.749 0 .695.253 1.235.759 1.621.514.377 1.444.724 2.791 1.042 1.354.317 2.366.656 3.035 1.016.677.36 1.179.793 1.505 1.299.326.506.489 1.119.489 1.839 0 1.175-.476 2.114-1.428 2.817-.943.703-2.178 1.054-3.704 1.054-1.621 0-2.937-.39-3.949-1.17-1.003-.789-1.505-1.784-1.505-2.984h1.544c.06.9.437 1.603 1.132 2.109.703.498 1.629.746 2.778.746 1.072 0 1.938-.235 2.598-.707.66-.472.99-1.068.99-1.788Zm13.351 0c0-.763-.309-1.376-.926-1.839-.609-.463-1.531-.823-2.765-1.081-1.235-.265-2.196-.565-2.881-.9-.678-.343-1.184-.759-1.518-1.247-.326-.489-.489-1.081-.489-1.775 0-1.098.459-2.003 1.376-2.714.918-.721 2.092-1.081 3.524-1.081 1.552 0 2.796.386 3.73 1.158.944.763 1.415 1.762 1.415 2.997h-1.543c0-.815-.343-1.492-1.029-2.033-.678-.54-1.535-.81-2.573-.81-1.011 0-1.826.227-2.443.682-.609.446-.914 1.029-.914 1.749 0 .695.253 1.235.759 1.621.515.377 1.445.724 2.791 1.042 1.355.317 2.367.656 3.036 1.016.677.36 1.179.793 1.505 1.299.326.506.488 1.119.488 1.839 0 1.175-.475 2.114-1.427 2.817-.943.703-2.178 1.054-3.705 1.054-1.62 0-2.936-.39-3.948-1.17-1.003-.789-1.505-1.784-1.505-2.984h1.543c.06.9.438 1.603 1.132 2.109.703.498 1.629.746 2.778.746 1.072 0 1.938-.235 2.599-.707.66-.472.99-1.068.99-1.788Z" fill="#000"/><path d="M103.933 88.026h-9.545v26.323h-5.277V88.026h-9.46v-4.289h24.282v4.289Zm13.603 26.323c-.224-.435-.42-1.143-.588-2.124-1.626 1.696-3.617 2.544-5.971 2.544-2.285 0-4.149-.652-5.593-1.955-1.444-1.304-2.165-2.916-2.165-4.836 0-2.425.897-4.282 2.691-5.571 1.808-1.304 4.387-1.956 7.737-1.956h3.132v-1.492c0-1.178-.329-2.117-.988-2.818-.659-.714-1.661-1.072-3.006-1.072-1.164 0-2.117.294-2.86.883-.742.575-1.114 1.31-1.114 2.208h-5.109c0-1.248.414-2.411 1.241-3.49.827-1.094 1.948-1.948 3.364-2.565 1.429-.617 3.02-.925 4.772-.925 2.663 0 4.787.672 6.371 2.018 1.583 1.332 2.396 3.21 2.438 5.635v10.26c0 2.046.288 3.679.862 4.898v.358h-5.214Zm-5.613-3.68a5.748 5.748 0 0 0 2.838-.736c.897-.49 1.57-1.149 2.018-1.976v-4.289h-2.754c-1.892 0-3.315.33-4.268.988-.953.659-1.429 1.591-1.429 2.797 0 .981.322 1.766.967 2.354.658.575 1.534.862 2.628.862Zm14.423-7.863c0-3.532.826-6.35 2.48-8.452 1.668-2.116 3.876-3.174 6.623-3.174 2.593 0 4.633.904 6.118 2.712l.232-2.292h4.604v22.055c0 2.985-.932 5.34-2.796 7.064-1.851 1.724-4.352 2.586-7.506 2.586-1.668 0-3.301-.35-4.899-1.051-1.584-.687-2.789-1.591-3.616-2.712l2.418-3.07c1.57 1.864 3.504 2.796 5.803 2.796 1.696 0 3.034-.462 4.015-1.387.981-.911 1.472-2.257 1.472-4.037v-1.535c-1.472 1.64-3.434 2.46-5.887 2.46-2.663 0-4.843-1.058-6.539-3.175-1.681-2.116-2.522-5.045-2.522-8.788Zm5.087.442c0 2.284.463 4.085 1.388 5.403.939 1.304 2.236 1.955 3.89 1.955 2.06 0 3.588-.883 4.583-2.649V97.95c-.967-1.725-2.481-2.587-4.541-2.587-1.682 0-2.993.666-3.932 1.998-.925 1.331-1.388 3.294-1.388 5.887Zm32.988 4.919c0-.911-.379-1.604-1.135-2.081-.743-.477-1.984-.897-3.722-1.261-1.738-.365-3.189-.827-4.352-1.388-2.551-1.234-3.826-3.021-3.826-5.361 0-1.963.827-3.602 2.481-4.92 1.653-1.318 3.756-1.976 6.307-1.976 2.719 0 4.913.672 6.581 2.018 1.682 1.346 2.522 3.09 2.522 5.235h-5.108c0-.981-.365-1.794-1.094-2.439-.729-.659-1.696-.988-2.901-.988-1.121 0-2.039.26-2.754.778-.701.519-1.052 1.212-1.052 2.081 0 .785.33 1.395.989 1.83.658.434 1.99.876 3.994 1.324 2.005.435 3.574.96 4.71 1.577 1.149.603 1.997 1.332 2.544 2.187.56.854.841 1.892.841 3.111 0 2.047-.848 3.707-2.544 4.983-1.696 1.261-3.918 1.892-6.665 1.892-1.864 0-3.525-.336-4.983-1.009-1.458-.673-2.593-1.598-3.406-2.775-.813-1.178-1.219-2.446-1.219-3.806h4.962c.07 1.206.525 2.138 1.366 2.797.841.644 1.955.967 3.343.967 1.346 0 2.369-.253 3.07-.757.7-.519 1.051-1.192 1.051-2.019Z" fill="url(#d)"/><path d="M55.79 64.44c-.215 1.972-.922 3.481-2.123 4.527-1.192 1.046-2.782 1.57-4.772 1.57-1.389 0-2.62-.348-3.691-1.042-1.063-.695-1.886-1.677-2.47-2.946-.583-1.277-.879-2.735-.887-4.373v-2.43c0-1.664.291-3.139.875-4.425.583-1.286 1.419-2.277 2.508-2.971 1.097-.703 2.358-1.055 3.781-1.055 2.007 0 3.589.544 4.746 1.633 1.166 1.08 1.844 2.577 2.032 4.49h-1.595c-.394-3.182-2.122-4.773-5.183-4.773-1.698 0-3.053.635-4.064 1.904-1.004 1.27-1.505 3.023-1.505 5.26v2.29c0 2.16.489 3.884 1.466 5.17.986 1.287 2.315 1.93 3.987 1.93 1.655 0 2.903-.394 3.743-1.183.84-.798 1.36-1.99 1.556-3.576h1.595Zm9.916-6.765a5.75 5.75 0 0 0-1.042-.09c-.96 0-1.775.27-2.444.81-.66.531-1.131 1.307-1.414 2.328v9.556h-1.531V56.363h1.505l.026 2.212c.814-1.647 2.122-2.47 3.922-2.47.43 0 .768.056 1.017.168l-.039 1.401Zm7.576 12.862c-1.184 0-2.255-.292-3.216-.875-.951-.583-1.693-1.394-2.225-2.431-.531-1.046-.797-2.217-.797-3.511v-.553c0-1.338.257-2.543.771-3.615.523-1.072 1.248-1.912 2.174-2.52a5.32 5.32 0 0 1 3.01-.927c1.689 0 3.027.58 4.013 1.737.994 1.149 1.492 2.722 1.492 4.72v.862h-9.93v.296c0 1.577.45 2.894 1.35 3.948.91 1.046 2.05 1.57 3.422 1.57.823 0 1.548-.15 2.174-.45.634-.3 1.209-.781 1.723-1.441l.965.733c-1.132 1.638-2.774 2.457-4.926 2.457Zm-.283-13.12c-1.158 0-2.135.425-2.933 1.274-.789.848-1.269 1.989-1.44 3.42h8.347v-.166c-.043-1.338-.424-2.427-1.145-3.267-.72-.84-1.663-1.26-2.83-1.26ZM90.285 70.28c-.154-.437-.253-1.084-.295-1.942a5.411 5.411 0 0 1-2.071 1.634 6.339 6.339 0 0 1-2.65.566c-1.338 0-2.422-.374-3.254-1.12-.823-.746-1.235-1.689-1.235-2.83 0-1.354.562-2.426 1.685-3.215 1.132-.788 2.706-1.183 4.72-1.183h2.792v-1.582c0-.995-.309-1.775-.926-2.34-.61-.575-1.501-.863-2.676-.863-1.072 0-1.959.275-2.662.824-.703.548-1.055 1.209-1.055 1.98l-1.543-.012c0-1.107.514-2.063 1.543-2.869 1.03-.814 2.294-1.222 3.794-1.222 1.552 0 2.774.39 3.666 1.17.9.773 1.364 1.853 1.39 3.242v6.585c0 1.347.14 2.354.424 3.023v.154h-1.647Zm-4.836-1.106c1.03 0 1.947-.249 2.753-.746.814-.497 1.406-1.162 1.775-1.993v-3.062h-2.753c-1.535.017-2.735.3-3.601.85-.866.54-1.3 1.285-1.3 2.237 0 .78.288 1.428.863 1.942.583.515 1.337.772 2.263.772ZM98.015 52.8v3.563h2.882v1.26h-2.882v9.274c0 .771.138 1.346.412 1.723.283.377.75.566 1.402.566.257 0 .673-.043 1.248-.129l.064 1.26c-.403.147-.952.22-1.646.22-1.055 0-1.823-.305-2.303-.914-.48-.617-.72-1.522-.72-2.714v-9.286h-2.56v-1.26h2.56V52.8h1.543Zm11.46 17.737c-1.183 0-2.255-.292-3.215-.875-.952-.583-1.694-1.394-2.225-2.431-.532-1.046-.798-2.217-.798-3.511v-.553c0-1.338.258-2.543.772-3.615.523-1.072 1.248-1.912 2.174-2.52a5.32 5.32 0 0 1 3.01-.927c1.689 0 3.026.58 4.012 1.737.995 1.149 1.492 2.722 1.492 4.72v.862h-9.929v.296c0 1.577.45 2.894 1.351 3.948.908 1.046 2.049 1.57 3.421 1.57.823 0 1.548-.15 2.173-.45.635-.3 1.21-.781 1.724-1.441l.965.733c-1.132 1.638-2.774 2.457-4.927 2.457Zm-.282-13.12c-1.158 0-2.136.425-2.933 1.274-.789.848-1.269 1.989-1.441 3.42h8.348v-.166c-.043-1.338-.425-2.427-1.145-3.267-.72-.84-1.663-1.26-2.829-1.26Zm20.051 11.82c1.072 0 1.968-.3 2.689-.9.728-.609 1.123-1.393 1.183-2.354h1.479a4.398 4.398 0 0 1-.797 2.328c-.489.695-1.141 1.24-1.955 1.634a5.836 5.836 0 0 1-2.599.592c-1.826 0-3.275-.635-4.347-1.904-1.063-1.27-1.595-2.975-1.595-5.12v-.462c0-1.372.24-2.585.72-3.64.481-1.055 1.167-1.87 2.058-2.444.901-.574 1.951-.862 3.152-.862 1.526 0 2.782.455 3.768 1.364.995.909 1.526 2.105 1.595 3.588h-1.479c-.069-1.089-.463-1.968-1.183-2.637-.712-.668-1.612-1.003-2.701-1.003-1.39 0-2.47.502-3.242 1.505-.763 1.003-1.144 2.41-1.144 4.219v.45c0 1.775.381 3.16 1.144 4.155.772.994 1.857 1.492 3.254 1.492Zm17.39-.72c-.926 1.346-2.405 2.02-4.438 2.02-1.483 0-2.61-.43-3.382-1.287-.772-.866-1.166-2.143-1.184-3.832v-9.055h1.531v8.862c0 2.65 1.072 3.974 3.216 3.974 2.229 0 3.64-.922 4.231-2.765V56.363h1.544v13.916h-1.492l-.026-1.762Zm13.865-1.775c0-.763-.309-1.376-.926-1.839-.609-.463-1.53-.823-2.765-1.08-1.235-.266-2.195-.566-2.881-.9-.678-.344-1.184-.76-1.518-1.248-.326-.49-.489-1.08-.489-1.775 0-1.098.459-2.002 1.376-2.714.918-.72 2.093-1.08 3.525-1.08 1.552 0 2.795.385 3.73 1.157.943.763 1.414 1.762 1.414 2.997h-1.543c0-.815-.343-1.492-1.029-2.032-.677-.54-1.535-.81-2.572-.81-1.012 0-1.827.227-2.444.681-.609.446-.913 1.029-.913 1.75 0 .694.253 1.234.758 1.62.515.377 1.445.724 2.792 1.042 1.354.317 2.366.656 3.035 1.016.677.36 1.179.793 1.505 1.299.326.506.489 1.119.489 1.84 0 1.174-.476 2.113-1.428 2.816-.943.703-2.178 1.055-3.704 1.055-1.621 0-2.937-.39-3.949-1.17-1.003-.79-1.505-1.784-1.505-2.985h1.544c.06.9.437 1.604 1.131 2.11.704.497 1.63.745 2.779.745 1.071 0 1.938-.235 2.598-.707.66-.472.99-1.067.99-1.788Zm7.409-13.942v3.563h2.881v1.26h-2.881v9.274c0 .771.137 1.346.411 1.723.283.377.751.566 1.402.566.257 0 .673-.043 1.248-.129l.064 1.26c-.403.147-.952.22-1.646.22-1.055 0-1.822-.305-2.302-.914-.481-.617-.721-1.522-.721-2.714v-9.286h-2.559v-1.26h2.559V52.8h1.544Zm4.964 10.315c0-1.337.258-2.542.772-3.614.523-1.072 1.256-1.904 2.2-2.495.951-.6 2.027-.9 3.228-.9 1.852 0 3.353.651 4.502 1.954 1.149 1.295 1.723 3.014 1.723 5.158v.322c0 1.346-.261 2.56-.784 3.64-.515 1.071-1.244 1.899-2.187 2.482-.943.583-2.019.874-3.228.874-1.844 0-3.344-.647-4.502-1.942-1.149-1.303-1.724-3.026-1.724-5.17v-.309Zm1.544.425c0 1.663.429 3.03 1.286 4.103.866 1.063 1.998 1.594 3.396 1.594 1.389 0 2.512-.531 3.369-1.594.867-1.072 1.3-2.483 1.3-4.232v-.296c0-1.063-.198-2.036-.592-2.92-.395-.883-.948-1.564-1.659-2.045-.712-.488-1.527-.733-2.444-.733-1.372 0-2.491.54-3.357 1.62-.866 1.073-1.299 2.479-1.299 4.22v.283Zm15.473-7.177.051 2.263c.515-.84 1.158-1.47 1.93-1.89.771-.42 1.629-.63 2.572-.63 2.195 0 3.589.9 4.18 2.7.498-.866 1.162-1.53 1.994-1.993a5.482 5.482 0 0 1 2.752-.708c2.984 0 4.506 1.63 4.566 4.888v9.286h-1.543v-9.17c-.009-1.244-.279-2.165-.81-2.766-.523-.6-1.381-.9-2.573-.9-1.106.017-2.041.377-2.804 1.08-.763.695-1.187 1.544-1.273 2.547v9.21h-1.544v-9.287c-.008-1.192-.291-2.08-.848-2.663-.549-.591-1.398-.887-2.547-.887-.969 0-1.801.279-2.495.836-.695.549-1.209 1.368-1.544 2.457v9.543h-1.543V56.363h1.479Z" fill="#000"/><defs><linearGradient id="b" x1="25" y1="25" x2="254.204" y2="67.499" gradientUnits="userSpaceOnUse"><stop stop-color="#fff" stop-opacity=".9"/><stop offset="1" stop-color="#fff" stop-opacity=".7"/></linearGradient><linearGradient id="c" x1="134.142" y1="213.143" x2="123.377" y2="171.038" gradientUnits="userSpaceOnUse"><stop stop-color="#6576CC"/><stop offset="1" stop-color="#71AFE5"/></linearGradient><linearGradient id="d" x1="98.179" y1="77.349" x2="143.651" y2="123.662" gradientUnits="userSpaceOnUse"><stop stop-color="#6576CC"/><stop offset="1" stop-color="#71AFE5"/></linearGradient><filter id="a" x=".016" y=".016" width="249.968" height="249.968" filterUnits="userSpaceOnUse" color-interpolation-filters="sRGB"><feFlood flood-opacity="0" result="BackgroundImageFix"/><feGaussianBlur in="BackgroundImage" stdDeviation="11.651"/><feComposite in2="SourceAlpha" operator="in" result="effect1_backgroundBlur"/><feColorMatrix in="SourceAlpha" values="0 0 0 0 0 0 0 0 0 0 0 0 0 0 0 0 0 0 127 0" result="hardAlpha"/><feMorphology radius="4.164" operator="dilate" in="SourceAlpha" result="effect2_dropShadow"/><feOffset/><feGaussianBlur stdDeviation="10.41"/><feComposite in2="hardAlpha" operator="out"/><feColorMatrix values="0 0 0 0 0 0 0 0 0 0 0 0 0 0 0 0 0 0 0.5 0"/><feBlend in2="effect1_backgroundBlur" result="effect2_dropShadow"/><feBlend in="SourceGraphic" in2="effect2_dropShadow" result="shape"/></filter></defs></svg>