<svg width="1280" height="640" viewBox="0 0 1280 640" fill="none" xmlns="http://www.w3.org/2000/svg">
<rect width="1280" height="640" rx="40" fill="white"/>
<rect width="1280" height="640" rx="40" fill="url(#paint0_linear_3103:7495)"/>
<path fill-rule="evenodd" clip-rule="evenodd" d="M0 307L53 339C107 371 213 435 320 422C427 409 533 320 640 307C747 294 853 358 960 352C1067 345 1173 269 1227 230L1280 192V640H1227C1173 640 1067 640 960 640C853 640 747 640 640 640C533 640 427 640 320 640C213 640 107 640 53 640H0V307Z" fill="url(#paint1_linear_3103:7495)"/>
<rect width="1280" height="640" fill="black" fill-opacity="0.25"/>
<g filter="url(#filter0_bd_3103:7495)">
<rect x="78" y="78" width="1124" height="484" rx="40" fill="url(#paint2_linear_3103:7495)" fill-opacity="0.65" shape-rendering="crispEdges"/>
</g>
<g clip-path="url(#clip0_3103:7495)">
<rect x="275" y="114" width="128" height="128" rx="64" fill="url(#paint3_linear_3103:7495)"/>
<path d="M383.762 204.512C333.155 207.494 291.271 223.212 279.234 242H403.002L403.002 204.026C396.741 203.969 390.311 204.126 383.762 204.512Z" fill="url(#paint4_linear_3103:7495)"/>
<g filter="url(#filter1_d_3103:7495)">
<path d="M300.438 191.617C300.438 211.028 310.594 229.438 310.594 229.438L318.5 226.125C318.5 226.125 309.581 205.491 310.594 191.617C311.708 176.354 319.813 153.75 319.813 153.75H309.656C309.656 153.75 300.437 176.302 300.438 191.617Z" fill="url(#paint5_linear_3103:7495)"/>
</g>
<g filter="url(#filter2_d_3103:7495)">
<path d="M339.817 176.877C329.79 164.048 330.171 160.942 318.943 156.838L309.999 153.927C309.598 153.797 309.293 153.472 309.165 153.07C306.933 146.061 299.489 139.692 283.802 132.596C290.099 132.357 304.985 139.684 310.102 142.309C310.924 142.73 311.901 142.161 311.918 141.238C312.007 136.459 312.03 124.093 310.186 115.477C315.636 122.679 318.377 128.063 319.601 142.548C319.703 143.762 319.795 145.04 319.877 146.388C319.901 146.785 320.112 147.146 320.441 147.368C322.32 148.63 323.999 149.972 325.53 151.439C331.497 157.155 335.224 164.761 339.817 176.877Z" fill="url(#paint6_linear_3103:7495)"/>
<path d="M319.601 142.548C319.703 143.762 319.795 145.04 319.877 146.388C319.901 146.785 320.112 147.146 320.441 147.368C322.32 148.63 323.999 149.972 325.53 151.439C333.015 142.277 338.095 146.225 350.633 147.159C337.266 143.279 332.607 139.142 319.601 142.548Z" fill="url(#paint7_linear_3103:7495)"/>
</g>
<g filter="url(#filter3_d_3103:7495)">
<path d="M381.313 158.813C379.644 157.77 379.559 157.401 378.115 157.399L377.574 157.418C377.152 157.432 376.764 157.213 376.423 156.965C375.792 156.506 374.758 156.222 373.125 156.098C373.466 155.959 374.109 155.938 374.76 155.963C375.683 155.999 376.41 155.124 376.037 154.279C375.849 153.851 375.635 153.418 375.413 153.062C376.313 153.645 376.843 154.136 377.561 155.666C377.73 156.026 378.053 156.285 378.425 156.425C379.441 156.809 380.212 157.534 381.313 158.813Z" fill="url(#paint8_linear_3103:7495)"/>
</g>
<g filter="url(#filter4_d_3103:7495)">
<path d="M379 150.188C377.332 149.145 377.247 148.776 375.803 148.774L375.261 148.793C374.84 148.807 374.452 148.588 374.11 148.34C373.479 147.881 372.445 147.597 370.812 147.473C371.154 147.334 371.797 147.313 372.447 147.338C373.37 147.374 374.097 146.499 373.725 145.654C373.536 145.226 373.322 144.793 373.1 144.438C374 145.02 374.531 145.511 375.249 147.041C375.417 147.401 375.74 147.66 376.112 147.8C377.128 148.184 377.899 148.909 379 150.188Z" fill="url(#paint9_linear_3103:7495)"/>
</g>
<g filter="url(#filter5_d_3103:7495)">
<path d="M358.625 155.938C356.957 154.895 356.872 154.527 355.428 154.525L354.886 154.543C354.465 154.558 354.077 154.339 353.735 154.091C353.104 153.632 352.07 153.348 350.438 153.224C350.779 153.085 351.422 153.064 352.072 153.089C352.995 153.124 353.722 152.249 353.35 151.404C353.161 150.976 352.947 150.543 352.725 150.188C353.625 150.771 354.156 151.262 354.874 152.792C355.042 153.151 355.365 153.411 355.737 153.551C356.753 153.935 357.524 154.66 358.625 155.938Z" fill="url(#paint10_linear_3103:7495)"/>
</g>
<g filter="url(#filter6_d_3103:7495)">
<path d="M368.563 154.688C366.894 153.645 366.809 153.276 365.365 153.274L364.824 153.293C364.402 153.307 364.014 153.088 363.673 152.84C363.042 152.381 362.008 152.097 360.375 151.973C360.716 151.834 361.359 151.813 362.01 151.838C362.933 151.874 363.66 150.999 363.287 150.154C363.099 149.726 362.885 149.293 362.663 148.938C363.563 149.52 364.093 150.011 364.811 151.541C364.98 151.901 365.303 152.16 365.675 152.3C366.691 152.684 367.462 153.409 368.563 154.688Z" fill="url(#paint11_linear_3103:7495)"/>
</g>
<g filter="url(#filter7_d_3103:7495)">
<path d="M370.5 141C368.832 139.957 368.747 139.589 367.303 139.587L366.761 139.605C366.34 139.62 365.952 139.401 365.61 139.153C364.979 138.694 363.945 138.41 362.312 138.286C362.654 138.147 363.297 138.126 363.947 138.151C364.87 138.186 365.597 137.311 365.225 136.466C365.036 136.038 364.822 135.605 364.6 135.25C365.5 135.833 366.031 136.324 366.749 137.854C366.917 138.213 367.24 138.473 367.612 138.613C368.628 138.997 369.399 139.722 370.5 141Z" fill="url(#paint12_linear_3103:7495)"/>
</g>
<g filter="url(#filter8_d_3103:7495)">
<path d="M350.596 179.433C348.113 179.433 346.218 178.743 344.91 177.361C343.617 175.98 342.971 174.019 342.971 171.477C342.971 170.214 343.169 169.09 343.566 168.105C343.963 167.106 344.506 166.269 345.197 165.593C345.887 164.902 346.71 164.381 347.665 164.028C348.62 163.675 349.656 163.499 350.773 163.499C351.419 163.499 352.007 163.551 352.536 163.653C353.065 163.742 353.527 163.852 353.924 163.984C354.321 164.102 354.651 164.226 354.916 164.359C355.18 164.491 355.371 164.594 355.489 164.667L354.497 167.444C354.027 167.194 353.476 166.981 352.844 166.805C352.227 166.629 351.522 166.54 350.728 166.54C350.2 166.54 349.678 166.629 349.164 166.805C348.664 166.981 348.216 167.268 347.819 167.664C347.437 168.046 347.129 168.546 346.894 169.163C346.659 169.78 346.541 170.529 346.541 171.411C346.541 172.116 346.615 172.777 346.762 173.394C346.923 173.997 347.173 174.518 347.511 174.959C347.863 175.4 348.319 175.753 348.877 176.017C349.436 176.267 350.111 176.392 350.905 176.392C351.404 176.392 351.852 176.362 352.249 176.304C352.646 176.245 352.998 176.179 353.307 176.105C353.616 176.017 353.887 175.922 354.122 175.819C354.357 175.716 354.571 175.62 354.762 175.532L355.709 178.287C355.224 178.581 354.541 178.845 353.66 179.08C352.778 179.316 351.757 179.433 350.596 179.433ZM362.347 176.832C362.671 176.832 362.979 176.825 363.273 176.81C363.567 176.796 363.802 176.774 363.978 176.744V174.254C363.846 174.225 363.648 174.195 363.383 174.166C363.119 174.136 362.876 174.122 362.656 174.122C362.347 174.122 362.053 174.144 361.774 174.188C361.51 174.217 361.275 174.283 361.069 174.386C360.863 174.489 360.702 174.629 360.584 174.805C360.467 174.981 360.408 175.202 360.408 175.466C360.408 175.98 360.577 176.34 360.915 176.546C361.267 176.737 361.745 176.832 362.347 176.832ZM362.083 167.224C363.053 167.224 363.861 167.334 364.507 167.554C365.154 167.775 365.668 168.091 366.05 168.502C366.446 168.913 366.726 169.413 366.887 170.001C367.049 170.588 367.13 171.242 367.13 171.962V178.794C366.66 178.897 366.006 179.014 365.168 179.147C364.331 179.293 363.317 179.367 362.127 179.367C361.378 179.367 360.694 179.301 360.077 179.169C359.475 179.036 358.953 178.823 358.513 178.529C358.072 178.221 357.734 177.824 357.499 177.339C357.264 176.855 357.146 176.259 357.146 175.554C357.146 174.878 357.278 174.305 357.543 173.835C357.822 173.365 358.189 172.99 358.645 172.711C359.1 172.432 359.622 172.234 360.21 172.116C360.797 171.984 361.407 171.918 362.039 171.918C362.465 171.918 362.839 171.94 363.163 171.984C363.501 172.013 363.772 172.057 363.978 172.116V171.808C363.978 171.249 363.809 170.801 363.471 170.463C363.133 170.125 362.546 169.956 361.708 169.956C361.15 169.956 360.599 170.001 360.055 170.089C359.512 170.162 359.041 170.272 358.645 170.419L358.226 167.775C358.417 167.716 358.652 167.657 358.931 167.598C359.225 167.525 359.541 167.466 359.879 167.422C360.217 167.363 360.57 167.319 360.937 167.29C361.319 167.246 361.701 167.224 362.083 167.224ZM373.427 176.766C374.029 176.766 374.455 176.708 374.705 176.59C374.955 176.473 375.08 176.245 375.08 175.907C375.08 175.642 374.918 175.415 374.595 175.224C374.272 175.018 373.779 174.79 373.118 174.54C372.604 174.349 372.134 174.151 371.708 173.945C371.296 173.74 370.944 173.497 370.65 173.218C370.356 172.924 370.128 172.579 369.967 172.182C369.805 171.786 369.724 171.308 369.724 170.75C369.724 169.663 370.128 168.803 370.936 168.171C371.745 167.54 372.854 167.224 374.264 167.224C374.97 167.224 375.645 167.29 376.292 167.422C376.938 167.54 377.453 167.672 377.835 167.819L377.262 170.375C376.88 170.243 376.461 170.125 376.005 170.023C375.565 169.92 375.065 169.868 374.507 169.868C373.478 169.868 372.964 170.155 372.964 170.728C372.964 170.86 372.986 170.978 373.03 171.08C373.074 171.183 373.162 171.286 373.295 171.389C373.427 171.477 373.603 171.58 373.824 171.697C374.059 171.8 374.352 171.918 374.705 172.05C375.425 172.315 376.02 172.579 376.49 172.844C376.96 173.093 377.328 173.372 377.592 173.681C377.871 173.975 378.062 174.305 378.165 174.673C378.283 175.04 378.341 175.466 378.341 175.951C378.341 177.097 377.908 177.964 377.041 178.552C376.189 179.139 374.977 179.433 373.405 179.433C372.376 179.433 371.517 179.345 370.826 179.169C370.15 178.992 369.68 178.845 369.416 178.728L369.967 176.061C370.525 176.282 371.098 176.458 371.686 176.59C372.273 176.708 372.854 176.766 373.427 176.766ZM380.685 164.645L383.969 164.116V167.532H387.914V170.265H383.969V174.342C383.969 175.033 384.087 175.584 384.322 175.995C384.571 176.406 385.064 176.612 385.798 176.612C386.151 176.612 386.511 176.583 386.878 176.524C387.26 176.45 387.605 176.355 387.914 176.237L388.377 178.794C387.98 178.956 387.539 179.095 387.054 179.213C386.57 179.33 385.975 179.389 385.269 179.389C384.373 179.389 383.631 179.271 383.043 179.036C382.456 178.787 381.986 178.449 381.633 178.023C381.28 177.582 381.031 177.053 380.884 176.436C380.751 175.819 380.685 175.136 380.685 174.386V164.645Z" fill="#4A4A4A"/>
<path d="M338.275 197C338.092 196.4 337.884 195.783 337.65 195.15C337.434 194.516 337.217 193.883 337 193.25H330.25C330.034 193.883 329.809 194.516 329.575 195.15C329.359 195.783 329.159 196.4 328.975 197H324.925C325.575 195.133 326.192 193.408 326.775 191.825C327.359 190.241 327.925 188.75 328.475 187.35C329.042 185.95 329.592 184.625 330.125 183.375C330.675 182.108 331.242 180.875 331.825 179.675H335.55C336.117 180.875 336.675 182.108 337.225 183.375C337.775 184.625 338.325 185.95 338.875 187.35C339.442 188.75 340.017 190.241 340.6 191.825C341.184 193.408 341.8 195.133 342.45 197H338.275ZM333.6 183.6C333.517 183.85 333.392 184.191 333.225 184.625C333.059 185.058 332.867 185.558 332.65 186.125C332.434 186.691 332.192 187.316 331.925 188C331.675 188.683 331.417 189.4 331.15 190.15H336.075C335.809 189.4 335.55 188.683 335.3 188C335.05 187.316 334.809 186.691 334.575 186.125C334.359 185.558 334.167 185.058 334 184.625C333.834 184.191 333.7 183.85 333.6 183.6ZM351.784 189.45C351.45 190.716 351.092 191.975 350.709 193.225C350.342 194.475 349.95 195.733 349.534 197H346.634C346.334 196.3 346.009 195.466 345.659 194.5C345.309 193.533 344.942 192.483 344.559 191.35C344.192 190.2 343.809 188.991 343.409 187.725C343.025 186.441 342.65 185.15 342.284 183.85H346.209C346.342 184.45 346.484 185.108 346.634 185.825C346.8 186.525 346.967 187.25 347.134 188C347.317 188.75 347.5 189.508 347.684 190.275C347.884 191.025 348.084 191.75 348.284 192.45C348.5 191.716 348.709 190.966 348.909 190.2C349.125 189.433 349.325 188.683 349.509 187.95C349.709 187.2 349.892 186.483 350.059 185.8C350.242 185.1 350.4 184.45 350.534 183.85H353.234C353.367 184.45 353.517 185.1 353.684 185.8C353.85 186.483 354.025 187.2 354.209 187.95C354.392 188.683 354.584 189.433 354.784 190.2C354.984 190.966 355.192 191.716 355.409 192.45C355.609 191.75 355.809 191.025 356.009 190.275C356.209 189.508 356.392 188.75 356.559 188C356.742 187.25 356.909 186.525 357.059 185.825C357.225 185.108 357.375 184.45 357.509 183.85H361.384C361.017 185.15 360.634 186.441 360.234 187.725C359.85 188.991 359.467 190.2 359.084 191.35C358.717 192.483 358.35 193.533 357.984 194.5C357.634 195.466 357.309 196.3 357.009 197H354.109C353.692 195.733 353.284 194.475 352.884 193.225C352.484 191.975 352.117 190.716 351.784 189.45ZM368.169 194.4C368.536 194.4 368.886 194.391 369.219 194.375C369.552 194.358 369.819 194.333 370.019 194.3V191.475C369.869 191.441 369.644 191.408 369.344 191.375C369.044 191.341 368.769 191.325 368.519 191.325C368.169 191.325 367.836 191.35 367.519 191.4C367.219 191.433 366.952 191.508 366.719 191.625C366.486 191.741 366.302 191.9 366.169 192.1C366.036 192.3 365.969 192.55 365.969 192.85C365.969 193.433 366.161 193.841 366.544 194.075C366.944 194.291 367.486 194.4 368.169 194.4ZM367.869 183.5C368.969 183.5 369.886 183.625 370.619 183.875C371.352 184.125 371.936 184.483 372.369 184.95C372.819 185.416 373.136 185.983 373.319 186.65C373.502 187.316 373.594 188.058 373.594 188.875V196.625C373.061 196.741 372.319 196.875 371.369 197.025C370.419 197.191 369.269 197.275 367.919 197.275C367.069 197.275 366.294 197.2 365.594 197.05C364.911 196.9 364.319 196.658 363.819 196.325C363.319 195.975 362.936 195.525 362.669 194.975C362.402 194.425 362.269 193.75 362.269 192.95C362.269 192.183 362.419 191.533 362.719 191C363.036 190.466 363.452 190.041 363.969 189.725C364.486 189.408 365.077 189.183 365.744 189.05C366.411 188.9 367.102 188.825 367.819 188.825C368.302 188.825 368.727 188.85 369.094 188.9C369.477 188.933 369.786 188.983 370.019 189.05V188.7C370.019 188.066 369.827 187.558 369.444 187.175C369.061 186.791 368.394 186.6 367.444 186.6C366.811 186.6 366.186 186.65 365.569 186.75C364.952 186.833 364.419 186.958 363.969 187.125L363.494 184.125C363.711 184.058 363.977 183.991 364.294 183.925C364.627 183.841 364.986 183.775 365.369 183.725C365.752 183.658 366.152 183.608 366.569 183.575C367.002 183.525 367.436 183.5 367.869 183.5ZM388.32 183.85C387.57 186.383 386.787 188.758 385.97 190.975C385.153 193.191 384.262 195.341 383.295 197.425C382.945 198.175 382.595 198.808 382.245 199.325C381.895 199.858 381.512 200.291 381.095 200.625C380.678 200.975 380.203 201.225 379.67 201.375C379.153 201.541 378.545 201.625 377.845 201.625C377.262 201.625 376.72 201.566 376.22 201.45C375.737 201.35 375.337 201.233 375.02 201.1L375.67 198.125C376.053 198.258 376.395 198.35 376.695 198.4C376.995 198.45 377.312 198.475 377.645 198.475C378.312 198.475 378.82 198.291 379.17 197.925C379.537 197.575 379.845 197.083 380.095 196.45C379.245 194.783 378.395 192.916 377.545 190.85C376.695 188.766 375.895 186.433 375.145 183.85H379.095C379.262 184.5 379.453 185.208 379.67 185.975C379.903 186.725 380.145 187.491 380.395 188.275C380.645 189.041 380.895 189.791 381.145 190.525C381.412 191.258 381.662 191.925 381.895 192.525C382.112 191.925 382.337 191.258 382.57 190.525C382.803 189.791 383.028 189.041 383.245 188.275C383.478 187.491 383.695 186.725 383.895 185.975C384.112 185.208 384.303 184.5 384.47 183.85H388.32Z" fill="#4A4A4A"/>
</g>
</g>
<path d="M528.938 193.625C527.896 203.208 524.458 210.542 518.625 215.625C512.833 220.708 505.104 223.25 495.438 223.25C488.688 223.25 482.708 221.562 477.5 218.188C472.333 214.812 468.333 210.042 465.5 203.875C462.667 197.667 461.229 190.583 461.188 182.625V170.812C461.188 162.729 462.604 155.562 465.438 149.312C468.271 143.062 472.333 138.25 477.625 134.875C482.958 131.458 489.083 129.75 496 129.75C505.75 129.75 513.438 132.396 519.062 137.688C524.729 142.938 528.021 150.208 528.938 159.5H521.188C519.271 144.042 510.875 136.312 496 136.312C487.75 136.312 481.167 139.396 476.25 145.562C471.375 151.729 468.938 160.25 468.938 171.125V182.25C468.938 192.75 471.312 201.125 476.062 207.375C480.854 213.625 487.312 216.75 495.438 216.75C503.479 216.75 509.542 214.833 513.625 211C517.708 207.125 520.229 201.333 521.188 193.625H528.938ZM588.562 222C587.812 219.875 587.333 216.729 587.125 212.562C584.5 215.979 581.146 218.625 577.062 220.5C573.021 222.333 568.729 223.25 564.188 223.25C557.688 223.25 552.417 221.438 548.375 217.812C544.375 214.188 542.375 209.604 542.375 204.062C542.375 197.479 545.104 192.271 550.562 188.438C556.062 184.604 563.708 182.688 573.5 182.688H587.062V175C587.062 170.167 585.562 166.375 582.562 163.625C579.604 160.833 575.271 159.438 569.562 159.438C564.354 159.438 560.042 160.771 556.625 163.438C553.208 166.104 551.5 169.312 551.5 173.062L544 173C544 167.625 546.5 162.979 551.5 159.062C556.5 155.104 562.646 153.125 569.938 153.125C577.479 153.125 583.417 155.021 587.75 158.812C592.125 162.562 594.375 167.812 594.5 174.562V206.562C594.5 213.104 595.188 218 596.562 221.25V222H588.562ZM565.062 216.625C570.062 216.625 574.521 215.417 578.438 213C582.396 210.583 585.271 207.354 587.062 203.312V188.438H573.688C566.229 188.521 560.396 189.896 556.188 192.562C551.979 195.188 549.875 198.812 549.875 203.438C549.875 207.229 551.271 210.375 554.062 212.875C556.896 215.375 560.562 216.625 565.062 216.625ZM655 204.812C655 201.104 653.5 198.125 650.5 195.875C647.542 193.625 643.062 191.875 637.062 190.625C631.062 189.333 626.396 187.875 623.062 186.25C619.771 184.583 617.312 182.562 615.688 180.188C614.104 177.812 613.312 174.938 613.312 171.562C613.312 166.229 615.542 161.833 620 158.375C624.458 154.875 630.167 153.125 637.125 153.125C644.667 153.125 650.708 155 655.25 158.75C659.833 162.458 662.125 167.312 662.125 173.312H654.625C654.625 169.354 652.958 166.062 649.625 163.438C646.333 160.812 642.167 159.5 637.125 159.5C632.208 159.5 628.25 160.604 625.25 162.812C622.292 164.979 620.812 167.812 620.812 171.312C620.812 174.688 622.042 177.312 624.5 179.188C627 181.021 631.521 182.708 638.062 184.25C644.646 185.792 649.562 187.438 652.812 189.188C656.104 190.938 658.542 193.042 660.125 195.5C661.708 197.958 662.5 200.938 662.5 204.438C662.5 210.146 660.188 214.708 655.562 218.125C650.979 221.542 644.979 223.25 637.562 223.25C629.688 223.25 623.292 221.354 618.375 217.562C613.5 213.729 611.062 208.896 611.062 203.062H618.562C618.854 207.438 620.688 210.854 624.062 213.312C627.479 215.729 631.979 216.938 637.562 216.938C642.771 216.938 646.979 215.792 650.188 213.5C653.396 211.208 655 208.312 655 204.812ZM691 137.062V154.375H705V160.5H691V205.562C691 209.312 691.667 212.104 693 213.938C694.375 215.771 696.646 216.688 699.812 216.688C701.062 216.688 703.083 216.479 705.875 216.062L706.188 222.188C704.229 222.896 701.562 223.25 698.188 223.25C693.062 223.25 689.333 221.771 687 218.812C684.667 215.812 683.5 211.417 683.5 205.625V160.5H671.062V154.375H683.5V137.062H691ZM763.188 222C762.438 219.875 761.958 216.729 761.75 212.562C759.125 215.979 755.771 218.625 751.688 220.5C747.646 222.333 743.354 223.25 738.812 223.25C732.312 223.25 727.042 221.438 723 217.812C719 214.188 717 209.604 717 204.062C717 197.479 719.729 192.271 725.188 188.438C730.688 184.604 738.333 182.688 748.125 182.688H761.688V175C761.688 170.167 760.188 166.375 757.188 163.625C754.229 160.833 749.896 159.438 744.188 159.438C738.979 159.438 734.667 160.771 731.25 163.438C727.833 166.104 726.125 169.312 726.125 173.062L718.625 173C718.625 167.625 721.125 162.979 726.125 159.062C731.125 155.104 737.271 153.125 744.562 153.125C752.104 153.125 758.042 155.021 762.375 158.812C766.75 162.562 769 167.812 769.125 174.562V206.562C769.125 213.104 769.812 218 771.188 221.25V222H763.188ZM739.688 216.625C744.688 216.625 749.146 215.417 753.062 213C757.021 210.583 759.896 207.354 761.688 203.312V188.438H748.312C740.854 188.521 735.021 189.896 730.812 192.562C726.604 195.188 724.5 198.812 724.5 203.438C724.5 207.229 725.896 210.375 728.688 212.875C731.521 215.375 735.188 216.625 739.688 216.625ZM805.312 206.438L806.438 212.25L807.938 206.125L824.188 154.375H830.562L846.625 205.688L848.375 212.812L849.812 206.25L863.688 154.375H871.438L851.75 222H845.375L828 168.375L827.188 164.688L826.375 168.438L809.312 222H802.938L783.312 154.375H791L805.312 206.438ZM928.312 222C927.562 219.875 927.083 216.729 926.875 212.562C924.25 215.979 920.896 218.625 916.812 220.5C912.771 222.333 908.479 223.25 903.938 223.25C897.438 223.25 892.167 221.438 888.125 217.812C884.125 214.188 882.125 209.604 882.125 204.062C882.125 197.479 884.854 192.271 890.312 188.438C895.812 184.604 903.458 182.688 913.25 182.688H926.812V175C926.812 170.167 925.312 166.375 922.312 163.625C919.354 160.833 915.021 159.438 909.312 159.438C904.104 159.438 899.792 160.771 896.375 163.438C892.958 166.104 891.25 169.312 891.25 173.062L883.75 173C883.75 167.625 886.25 162.979 891.25 159.062C896.25 155.104 902.396 153.125 909.688 153.125C917.229 153.125 923.167 155.021 927.5 158.812C931.875 162.562 934.125 167.812 934.25 174.562V206.562C934.25 213.104 934.938 218 936.312 221.25V222H928.312ZM904.812 216.625C909.812 216.625 914.271 215.417 918.188 213C922.146 210.583 925.021 207.354 926.812 203.312V188.438H913.438C905.979 188.521 900.146 189.896 895.938 192.562C891.729 195.188 889.625 198.812 889.625 203.438C889.625 207.229 891.021 210.375 893.812 212.875C896.646 215.375 900.312 216.625 904.812 216.625ZM974.688 211.25L994.438 154.375H1002.5L973.625 233.5L972.125 237C968.417 245.208 962.688 249.312 954.938 249.312C953.146 249.312 951.229 249.021 949.188 248.438L949.125 242.25L953 242.625C956.667 242.625 959.625 241.708 961.875 239.875C964.167 238.083 966.104 234.979 967.688 230.562L971 221.438L945.5 154.375H953.688L974.688 211.25Z" fill="white"/>
<path d="M442.917 316.26C442.917 314.29 442.225 312.736 440.842 311.597C439.458 310.441 436.927 309.351 433.249 308.325C429.571 307.284 426.885 306.152 425.192 304.932C422.784 303.206 421.579 300.944 421.579 298.145C421.579 295.426 422.694 293.221 424.924 291.528C427.17 289.819 430.035 288.965 433.518 288.965C435.878 288.965 437.985 289.421 439.841 290.332C441.713 291.243 443.161 292.513 444.187 294.141C445.212 295.768 445.725 297.583 445.725 299.585H442.697C442.697 297.16 441.867 295.215 440.207 293.75C438.547 292.269 436.317 291.528 433.518 291.528C430.799 291.528 428.635 292.139 427.023 293.359C425.412 294.564 424.606 296.143 424.606 298.096C424.606 299.902 425.331 301.375 426.779 302.515C428.228 303.654 430.547 304.663 433.737 305.542C436.927 306.405 439.344 307.308 440.988 308.252C442.632 309.18 443.869 310.295 444.699 311.597C445.529 312.899 445.944 314.437 445.944 316.211C445.944 319.01 444.821 321.257 442.575 322.949C440.345 324.642 437.399 325.488 433.737 325.488C431.231 325.488 428.928 325.041 426.828 324.146C424.745 323.25 423.158 321.997 422.067 320.386C420.993 318.774 420.456 316.927 420.456 314.844H423.459C423.459 317.35 424.395 319.328 426.267 320.776C428.138 322.225 430.629 322.949 433.737 322.949C436.504 322.949 438.726 322.339 440.402 321.118C442.079 319.897 442.917 318.278 442.917 316.26ZM456.296 291.821V298.584H461.765V300.977H456.296V318.579C456.296 320.044 456.556 321.134 457.077 321.851C457.614 322.567 458.501 322.925 459.738 322.925C460.227 322.925 461.016 322.843 462.106 322.681L462.229 325.073C461.464 325.35 460.422 325.488 459.104 325.488C457.102 325.488 455.645 324.91 454.733 323.755C453.822 322.583 453.366 320.866 453.366 318.604V300.977H448.508V298.584H453.366V291.821H456.296ZM480.026 301.074C479.408 300.96 478.749 300.903 478.049 300.903C476.226 300.903 474.68 301.416 473.41 302.441C472.157 303.451 471.262 304.924 470.725 306.86V325H467.819V298.584H470.676L470.725 302.783C472.271 299.658 474.753 298.096 478.171 298.096C478.985 298.096 479.628 298.201 480.1 298.413L480.026 301.074ZM500.363 325C500.07 324.17 499.883 322.941 499.802 321.313C498.776 322.648 497.466 323.682 495.871 324.414C494.292 325.13 492.616 325.488 490.842 325.488C488.303 325.488 486.244 324.78 484.665 323.364C483.103 321.948 482.321 320.158 482.321 317.993C482.321 315.422 483.387 313.387 485.52 311.89C487.668 310.392 490.655 309.644 494.479 309.644H499.777V306.641C499.777 304.753 499.191 303.271 498.02 302.197C496.864 301.107 495.171 300.562 492.941 300.562C490.907 300.562 489.222 301.082 487.888 302.124C486.553 303.166 485.886 304.419 485.886 305.884L482.956 305.859C482.956 303.76 483.933 301.945 485.886 300.415C487.839 298.869 490.24 298.096 493.088 298.096C496.034 298.096 498.353 298.836 500.046 300.317C501.755 301.782 502.634 303.833 502.683 306.47V318.97C502.683 321.525 502.951 323.438 503.488 324.707V325H500.363ZM491.184 322.9C493.137 322.9 494.878 322.428 496.408 321.484C497.954 320.54 499.077 319.279 499.777 317.7V311.89H494.553C491.639 311.922 489.361 312.459 487.717 313.501C486.073 314.526 485.251 315.942 485.251 317.749C485.251 319.23 485.796 320.459 486.887 321.436C487.993 322.412 489.426 322.9 491.184 322.9ZM513.278 298.584L513.376 303.101C514.369 301.473 515.606 300.236 517.087 299.39C518.568 298.527 520.204 298.096 521.994 298.096C524.826 298.096 526.934 298.893 528.317 300.488C529.701 302.083 530.401 304.476 530.417 307.666V325H527.512V307.642C527.495 305.282 526.991 303.524 525.998 302.368C525.021 301.213 523.451 300.635 521.286 300.635C519.479 300.635 517.876 301.204 516.477 302.344C515.093 303.467 514.068 304.989 513.4 306.909V325H510.495V298.584H513.278ZM536.813 311.548C536.813 307.446 537.725 304.183 539.548 301.758C541.387 299.316 543.877 298.096 547.019 298.096C550.583 298.096 553.301 299.504 555.173 302.319V287.5H558.078V325H555.344L555.222 321.484C553.35 324.154 550.599 325.488 546.97 325.488C543.926 325.488 541.468 324.268 539.597 321.826C537.741 319.368 536.813 316.056 536.813 311.89V311.548ZM539.768 312.061C539.768 315.43 540.443 318.091 541.794 320.044C543.145 321.981 545.049 322.949 547.507 322.949C551.104 322.949 553.659 321.362 555.173 318.188V305.786C553.659 302.352 551.12 300.635 547.556 300.635C545.098 300.635 543.186 301.603 541.818 303.54C540.451 305.461 539.768 308.301 539.768 312.061ZM575.998 325.488C573.752 325.488 571.717 324.935 569.895 323.828C568.088 322.721 566.68 321.183 565.671 319.214C564.662 317.228 564.157 315.007 564.157 312.549V311.499C564.157 308.96 564.646 306.673 565.622 304.639C566.615 302.604 567.99 301.009 569.748 299.854C571.506 298.682 573.41 298.096 575.461 298.096C578.667 298.096 581.206 299.194 583.078 301.392C584.966 303.573 585.91 306.559 585.91 310.352V311.987H567.062V312.549C567.062 315.544 567.917 318.042 569.626 320.044C571.351 322.03 573.516 323.022 576.12 323.022C577.683 323.022 579.058 322.738 580.246 322.168C581.451 321.598 582.541 320.687 583.518 319.434L585.349 320.825C583.2 323.934 580.083 325.488 575.998 325.488ZM575.461 300.586C573.264 300.586 571.408 301.392 569.895 303.003C568.397 304.614 567.486 306.779 567.16 309.497H583.005V309.18C582.924 306.641 582.199 304.574 580.832 302.979C579.465 301.383 577.674 300.586 575.461 300.586ZM590.427 311.548C590.427 307.446 591.338 304.183 593.161 301.758C595 299.316 597.491 298.096 600.632 298.096C604.196 298.096 606.914 299.504 608.786 302.319V287.5H611.691V325H608.957L608.835 321.484C606.963 324.154 604.213 325.488 600.583 325.488C597.539 325.488 595.082 324.268 593.21 321.826C591.354 319.368 590.427 316.056 590.427 311.89V311.548ZM593.381 312.061C593.381 315.43 594.056 318.091 595.407 320.044C596.758 321.981 598.662 322.949 601.12 322.949C604.717 322.949 607.272 321.362 608.786 318.188V305.786C607.272 302.352 604.733 300.635 601.169 300.635C598.711 300.635 596.799 301.603 595.432 303.54C594.064 305.461 593.381 308.301 593.381 312.061ZM629.929 311.401C629.929 308.862 630.417 306.576 631.394 304.541C632.386 302.507 633.778 300.928 635.568 299.805C637.375 298.665 639.418 298.096 641.696 298.096C645.212 298.096 648.06 299.333 650.241 301.807C652.422 304.264 653.513 307.528 653.513 311.597V312.207C653.513 314.762 653.016 317.065 652.023 319.116C651.047 321.151 649.663 322.721 647.873 323.828C646.083 324.935 644.04 325.488 641.745 325.488C638.246 325.488 635.397 324.259 633.2 321.802C631.019 319.328 629.929 316.056 629.929 311.987V311.401ZM632.858 312.207C632.858 315.365 633.672 317.961 635.3 319.995C636.944 322.013 639.092 323.022 641.745 323.022C644.382 323.022 646.514 322.013 648.142 319.995C649.785 317.961 650.607 315.283 650.607 311.963V311.401C650.607 309.383 650.233 307.536 649.484 305.859C648.736 304.183 647.686 302.889 646.335 301.978C644.984 301.05 643.438 300.586 641.696 300.586C639.092 300.586 636.968 301.611 635.324 303.662C633.68 305.697 632.858 308.366 632.858 311.67V312.207ZM662.351 298.584L662.448 303.101C663.441 301.473 664.678 300.236 666.159 299.39C667.64 298.527 669.276 298.096 671.066 298.096C673.898 298.096 676.006 298.893 677.39 300.488C678.773 302.083 679.473 304.476 679.489 307.666V325H676.584V307.642C676.568 305.282 676.063 303.524 675.07 302.368C674.094 301.213 672.523 300.635 670.358 300.635C668.552 300.635 666.949 301.204 665.549 302.344C664.165 303.467 663.14 304.989 662.473 306.909V325H659.567V298.584H662.351ZM699.899 325V289.453H709.836C712.749 289.453 715.362 290.12 717.673 291.455C719.984 292.773 721.783 294.67 723.068 297.144C724.37 299.618 725.021 302.433 725.021 305.591V308.862C725.021 312.036 724.379 314.852 723.093 317.31C721.807 319.767 719.992 321.663 717.648 322.998C715.321 324.333 712.644 325 709.616 325H699.899ZM702.902 292.017V322.461H709.641C713.384 322.461 716.387 321.224 718.649 318.75C720.912 316.26 722.043 312.899 722.043 308.667V305.542C722.043 301.457 720.928 298.185 718.698 295.728C716.468 293.27 713.531 292.033 709.885 292.017H702.902ZM735.251 325H732.321V298.584H735.251V325ZM731.809 290.942C731.809 290.389 731.988 289.925 732.346 289.551C732.704 289.16 733.192 288.965 733.811 288.965C734.429 288.965 734.917 289.16 735.275 289.551C735.65 289.925 735.837 290.389 735.837 290.942C735.837 291.496 735.65 291.96 735.275 292.334C734.917 292.708 734.429 292.896 733.811 292.896C733.192 292.896 732.704 292.708 732.346 292.334C731.988 291.96 731.809 291.496 731.809 290.942ZM759.03 318.286C759.03 316.838 758.444 315.674 757.272 314.795C756.117 313.916 754.367 313.232 752.023 312.744C749.68 312.24 747.857 311.67 746.555 311.035C745.269 310.384 744.309 309.595 743.674 308.667C743.055 307.739 742.746 306.616 742.746 305.298C742.746 303.215 743.617 301.497 745.358 300.146C747.1 298.779 749.33 298.096 752.048 298.096C754.994 298.096 757.354 298.828 759.128 300.293C760.918 301.742 761.813 303.638 761.813 305.981H758.884C758.884 304.435 758.233 303.149 756.931 302.124C755.645 301.099 754.017 300.586 752.048 300.586C750.127 300.586 748.581 301.017 747.409 301.88C746.254 302.726 745.676 303.833 745.676 305.2C745.676 306.519 746.156 307.544 747.116 308.276C748.093 308.993 749.859 309.652 752.414 310.254C754.986 310.856 756.906 311.499 758.176 312.183C759.462 312.866 760.414 313.688 761.032 314.648C761.651 315.609 761.96 316.772 761.96 318.14C761.96 320.369 761.057 322.152 759.25 323.486C757.46 324.821 755.116 325.488 752.219 325.488C749.143 325.488 746.644 324.748 744.724 323.267C742.819 321.769 741.867 319.881 741.867 317.603H744.797C744.911 319.312 745.627 320.646 746.945 321.606C748.28 322.55 750.038 323.022 752.219 323.022C754.253 323.022 755.897 322.575 757.15 321.68C758.404 320.785 759.03 319.653 759.03 318.286ZM778.317 323.022C780.352 323.022 782.053 322.453 783.42 321.313C784.803 320.158 785.552 318.669 785.666 316.846H788.474C788.392 318.457 787.888 319.93 786.96 321.265C786.032 322.583 784.795 323.617 783.249 324.365C781.719 325.114 780.075 325.488 778.317 325.488C774.851 325.488 772.1 324.284 770.065 321.875C768.047 319.466 767.038 316.227 767.038 312.158V311.279C767.038 308.675 767.494 306.372 768.405 304.37C769.317 302.368 770.619 300.822 772.312 299.731C774.021 298.641 776.014 298.096 778.293 298.096C781.19 298.096 783.575 298.958 785.446 300.684C787.334 302.409 788.343 304.679 788.474 307.495H785.666C785.536 305.428 784.787 303.76 783.42 302.49C782.069 301.221 780.36 300.586 778.293 300.586C775.656 300.586 773.605 301.538 772.141 303.442C770.692 305.347 769.968 308.016 769.968 311.45V312.305C769.968 315.674 770.692 318.302 772.141 320.19C773.605 322.078 775.664 323.022 778.317 323.022ZM792.722 311.401C792.722 308.862 793.21 306.576 794.187 304.541C795.179 302.507 796.571 300.928 798.361 299.805C800.168 298.665 802.211 298.096 804.489 298.096C808.005 298.096 810.853 299.333 813.034 301.807C815.215 304.264 816.306 307.528 816.306 311.597V312.207C816.306 314.762 815.809 317.065 814.816 319.116C813.84 321.151 812.456 322.721 810.666 323.828C808.876 324.935 806.833 325.488 804.538 325.488C801.039 325.488 798.19 324.259 795.993 321.802C793.812 319.328 792.722 316.056 792.722 311.987V311.401ZM795.651 312.207C795.651 315.365 796.465 317.961 798.093 319.995C799.737 322.013 801.885 323.022 804.538 323.022C807.175 323.022 809.307 322.013 810.935 319.995C812.578 317.961 813.4 315.283 813.4 311.963V311.401C813.4 309.383 813.026 307.536 812.277 305.859C811.529 304.183 810.479 302.889 809.128 301.978C807.777 301.05 806.231 300.586 804.489 300.586C801.885 300.586 799.761 301.611 798.117 303.662C796.473 305.697 795.651 308.366 795.651 311.67V312.207ZM834.567 301.074C833.949 300.96 833.29 300.903 832.59 300.903C830.767 300.903 829.221 301.416 827.951 302.441C826.698 303.451 825.803 304.924 825.266 306.86V325H822.36V298.584H825.217L825.266 302.783C826.812 299.658 829.294 298.096 832.712 298.096C833.526 298.096 834.169 298.201 834.641 298.413L834.567 301.074ZM837.546 311.548C837.546 307.446 838.457 304.183 840.28 301.758C842.119 299.316 844.61 298.096 847.751 298.096C851.315 298.096 854.034 299.504 855.905 302.319V287.5H858.811V325H856.076L855.954 321.484C854.082 324.154 851.332 325.488 847.702 325.488C844.659 325.488 842.201 324.268 840.329 321.826C838.474 319.368 837.546 316.056 837.546 311.89V311.548ZM840.5 312.061C840.5 315.43 841.175 318.091 842.526 320.044C843.877 321.981 845.782 322.949 848.239 322.949C851.836 322.949 854.392 321.362 855.905 318.188V305.786C854.392 302.352 851.853 300.635 848.288 300.635C845.83 300.635 843.918 301.603 842.551 303.54C841.184 305.461 840.5 308.301 840.5 312.061Z" fill="white"/>
<path d="M873 529V506.25H879.719C882.156 506.25 884.005 506.755 885.266 507.766C886.526 508.766 887.156 510.245 887.156 512.203C887.156 513.38 886.833 514.406 886.188 515.281C885.552 516.146 884.677 516.766 883.562 517.141C884.885 517.432 885.948 518.083 886.75 519.094C887.562 520.104 887.969 521.271 887.969 522.594C887.969 524.604 887.318 526.177 886.016 527.312C884.724 528.438 882.922 529 880.609 529H873ZM874.922 518.062V527.375H880.688C882.333 527.375 883.635 526.958 884.594 526.125C885.562 525.281 886.047 524.115 886.047 522.625C886.047 521.219 885.583 520.109 884.656 519.297C883.74 518.474 882.469 518.062 880.844 518.062H874.922ZM874.922 516.453H880.172C881.776 516.422 883.016 516.047 883.891 515.328C884.776 514.599 885.219 513.542 885.219 512.156C885.219 510.698 884.76 509.625 883.844 508.938C882.938 508.24 881.562 507.891 879.719 507.891H874.922V516.453ZM897.547 526.312L902.484 512.094H904.5L897.281 531.875L896.906 532.75C895.979 534.802 894.547 535.828 892.609 535.828C892.161 535.828 891.682 535.755 891.172 535.609L891.156 534.062L892.125 534.156C893.042 534.156 893.781 533.927 894.344 533.469C894.917 533.021 895.401 532.245 895.797 531.141L896.625 528.859L890.25 512.094H892.297L897.547 526.312ZM931.734 521.906C931.474 524.302 930.615 526.135 929.156 527.406C927.708 528.677 925.776 529.312 923.359 529.312C921.672 529.312 920.177 528.891 918.875 528.047C917.583 527.203 916.583 526.01 915.875 524.469C915.167 522.917 914.807 521.146 914.797 519.156V516.203C914.797 514.182 915.151 512.391 915.859 510.828C916.568 509.266 917.583 508.062 918.906 507.219C920.24 506.365 921.771 505.938 923.5 505.938C925.938 505.938 927.859 506.599 929.266 507.922C930.682 509.234 931.505 511.052 931.734 513.375H929.797C929.318 509.51 927.219 507.578 923.5 507.578C921.438 507.578 919.792 508.349 918.562 509.891C917.344 511.432 916.734 513.562 916.734 516.281V519.062C916.734 521.688 917.328 523.781 918.516 525.344C919.714 526.906 921.328 527.688 923.359 527.688C925.37 527.688 926.885 527.208 927.906 526.25C928.927 525.281 929.557 523.833 929.797 521.906H931.734ZM938.062 529H936.188V505H938.062V529ZM945.25 529H943.375V512.094H945.25V529ZM943.047 507.203C943.047 506.849 943.161 506.552 943.391 506.312C943.62 506.062 943.932 505.938 944.328 505.938C944.724 505.938 945.036 506.062 945.266 506.312C945.505 506.552 945.625 506.849 945.625 507.203C945.625 507.557 945.505 507.854 945.266 508.094C945.036 508.333 944.724 508.453 944.328 508.453C943.932 508.453 943.62 508.333 943.391 508.094C943.161 507.854 943.047 507.557 943.047 507.203ZM956.594 527.734C957.896 527.734 958.984 527.37 959.859 526.641C960.745 525.901 961.224 524.948 961.297 523.781H963.094C963.042 524.812 962.719 525.755 962.125 526.609C961.531 527.453 960.74 528.115 959.75 528.594C958.771 529.073 957.719 529.312 956.594 529.312C954.375 529.312 952.615 528.542 951.312 527C950.021 525.458 949.375 523.385 949.375 520.781V520.219C949.375 518.552 949.667 517.078 950.25 515.797C950.833 514.516 951.667 513.526 952.75 512.828C953.844 512.13 955.12 511.781 956.578 511.781C958.432 511.781 959.958 512.333 961.156 513.438C962.365 514.542 963.01 515.995 963.094 517.797H961.297C961.214 516.474 960.734 515.406 959.859 514.594C958.995 513.781 957.901 513.375 956.578 513.375C954.891 513.375 953.578 513.984 952.641 515.203C951.714 516.422 951.25 518.13 951.25 520.328V520.875C951.25 523.031 951.714 524.714 952.641 525.922C953.578 527.13 954.896 527.734 956.594 527.734ZM970.859 520.484L968.719 522.547V529H966.844V505H968.719V520.359L970.484 518.453L976.953 512.094H979.312L972.141 519.219L979.938 529H977.703L970.859 520.484ZM992.656 524.703C992.656 523.776 992.281 523.031 991.531 522.469C990.792 521.906 989.672 521.469 988.172 521.156C986.672 520.833 985.505 520.469 984.672 520.062C983.849 519.646 983.234 519.141 982.828 518.547C982.432 517.953 982.234 517.234 982.234 516.391C982.234 515.057 982.792 513.958 983.906 513.094C985.021 512.219 986.448 511.781 988.188 511.781C990.073 511.781 991.583 512.25 992.719 513.188C993.865 514.115 994.438 515.328 994.438 516.828H992.562C992.562 515.839 992.146 515.016 991.312 514.359C990.49 513.703 989.448 513.375 988.188 513.375C986.958 513.375 985.969 513.651 985.219 514.203C984.479 514.745 984.109 515.453 984.109 516.328C984.109 517.172 984.417 517.828 985.031 518.297C985.656 518.755 986.786 519.177 988.422 519.562C990.068 519.948 991.297 520.359 992.109 520.797C992.932 521.234 993.542 521.76 993.938 522.375C994.333 522.99 994.531 523.734 994.531 524.609C994.531 526.036 993.953 527.177 992.797 528.031C991.651 528.885 990.151 529.312 988.297 529.312C986.328 529.312 984.729 528.839 983.5 527.891C982.281 526.932 981.672 525.724 981.672 524.266H983.547C983.62 525.359 984.078 526.214 984.922 526.828C985.776 527.432 986.901 527.734 988.297 527.734C989.599 527.734 990.651 527.448 991.453 526.875C992.255 526.302 992.656 525.578 992.656 524.703ZM1001.73 506.25L1010.12 526.328L1018.55 506.25H1021.11V529H1019.19V519.094L1019.34 508.938L1010.88 529H1009.39L1000.95 509.016L1001.11 519.031V529H999.188V506.25H1001.73ZM1028.53 529H1026.66V512.094H1028.53V529ZM1026.33 507.203C1026.33 506.849 1026.44 506.552 1026.67 506.312C1026.9 506.062 1027.21 505.938 1027.61 505.938C1028.01 505.938 1028.32 506.062 1028.55 506.312C1028.79 506.552 1028.91 506.849 1028.91 507.203C1028.91 507.557 1028.79 507.854 1028.55 508.094C1028.32 508.333 1028.01 508.453 1027.61 508.453C1027.21 508.453 1026.9 508.333 1026.67 508.094C1026.44 507.854 1026.33 507.557 1026.33 507.203ZM1035.41 512.094L1035.47 514.984C1036.1 513.943 1036.9 513.151 1037.84 512.609C1038.79 512.057 1039.84 511.781 1040.98 511.781C1042.8 511.781 1044.15 512.292 1045.03 513.312C1045.92 514.333 1046.36 515.865 1046.38 517.906V529H1044.52V517.891C1044.51 516.38 1044.18 515.255 1043.55 514.516C1042.92 513.776 1041.92 513.406 1040.53 513.406C1039.38 513.406 1038.35 513.771 1037.45 514.5C1036.57 515.219 1035.91 516.193 1035.48 517.422V529H1033.62V512.094H1035.41ZM1062.09 526.859C1060.97 528.495 1059.17 529.312 1056.7 529.312C1054.9 529.312 1053.53 528.792 1052.59 527.75C1051.66 526.698 1051.18 525.146 1051.16 523.094V512.094H1053.02V522.859C1053.02 526.078 1054.32 527.688 1056.92 527.688C1059.63 527.688 1061.34 526.568 1062.06 524.328V512.094H1063.94V529H1062.12L1062.09 526.859ZM1071.72 507.766V512.094H1075.22V513.625H1071.72V524.891C1071.72 525.828 1071.89 526.526 1072.22 526.984C1072.56 527.443 1073.13 527.672 1073.92 527.672C1074.23 527.672 1074.74 527.62 1075.44 527.516L1075.52 529.047C1075.03 529.224 1074.36 529.312 1073.52 529.312C1072.23 529.312 1071.3 528.943 1070.72 528.203C1070.14 527.453 1069.84 526.354 1069.84 524.906V513.625H1066.73V512.094H1069.84V507.766H1071.72ZM1085.64 529.312C1084.2 529.312 1082.9 528.958 1081.73 528.25C1080.58 527.542 1079.68 526.557 1079.03 525.297C1078.39 524.026 1078.06 522.604 1078.06 521.031V520.359C1078.06 518.734 1078.38 517.271 1079 515.969C1079.64 514.667 1080.52 513.646 1081.64 512.906C1082.77 512.156 1083.98 511.781 1085.3 511.781C1087.35 511.781 1088.97 512.484 1090.17 513.891C1091.38 515.286 1091.98 517.198 1091.98 519.625V520.672H1079.92V521.031C1079.92 522.948 1080.47 524.547 1081.56 525.828C1082.67 527.099 1084.05 527.734 1085.72 527.734C1086.72 527.734 1087.6 527.552 1088.36 527.188C1089.13 526.823 1089.83 526.24 1090.45 525.438L1091.62 526.328C1090.25 528.318 1088.26 529.312 1085.64 529.312ZM1085.3 513.375C1083.89 513.375 1082.7 513.891 1081.73 514.922C1080.78 515.953 1080.19 517.339 1079.98 519.078H1090.12V518.875C1090.07 517.25 1089.61 515.927 1088.73 514.906C1087.86 513.885 1086.71 513.375 1085.3 513.375ZM1097.98 519.734V529H1096.06V506.25H1103.81C1106.18 506.25 1108.04 506.854 1109.41 508.062C1110.78 509.271 1111.47 510.932 1111.47 513.047C1111.47 515.182 1110.81 516.833 1109.48 518C1108.17 519.156 1106.27 519.734 1103.77 519.734H1097.98ZM1097.98 518.109H1103.81C1105.68 518.109 1107.1 517.667 1108.08 516.781C1109.06 515.896 1109.55 514.661 1109.55 513.078C1109.55 511.505 1109.06 510.255 1108.08 509.328C1107.11 508.391 1105.73 507.911 1103.94 507.891H1097.98V518.109ZM1121.67 529.312C1120.23 529.312 1118.93 528.958 1117.77 528.25C1116.61 527.542 1115.71 526.557 1115.06 525.297C1114.42 524.026 1114.09 522.604 1114.09 521.031V520.359C1114.09 518.734 1114.41 517.271 1115.03 515.969C1115.67 514.667 1116.55 513.646 1117.67 512.906C1118.8 512.156 1120.02 511.781 1121.33 511.781C1123.38 511.781 1125.01 512.484 1126.2 513.891C1127.41 515.286 1128.02 517.198 1128.02 519.625V520.672H1115.95V521.031C1115.95 522.948 1116.5 524.547 1117.59 525.828C1118.7 527.099 1120.08 527.734 1121.75 527.734C1122.75 527.734 1123.63 527.552 1124.39 527.188C1125.16 526.823 1125.86 526.24 1126.48 525.438L1127.66 526.328C1126.28 528.318 1124.29 529.312 1121.67 529.312ZM1121.33 513.375C1119.92 513.375 1118.73 513.891 1117.77 514.922C1116.81 515.953 1116.22 517.339 1116.02 519.078H1126.16V518.875C1126.1 517.25 1125.64 515.927 1124.77 514.906C1123.89 513.885 1122.74 513.375 1121.33 513.375ZM1139.47 513.688C1139.07 513.615 1138.65 513.578 1138.2 513.578C1137.04 513.578 1136.05 513.906 1135.23 514.562C1134.43 515.208 1133.86 516.151 1133.52 517.391V529H1131.66V512.094H1133.48L1133.52 514.781C1134.51 512.781 1136.09 511.781 1138.28 511.781C1138.8 511.781 1139.21 511.849 1139.52 511.984L1139.47 513.688Z" fill="white"/>
<path d="M144.797 519.734V529H142.875V506.25H150.625C152.99 506.25 154.854 506.854 156.219 508.062C157.594 509.271 158.281 510.932 158.281 513.047C158.281 515.182 157.62 516.833 156.297 518C154.984 519.156 153.078 519.734 150.578 519.734H144.797ZM144.797 518.109H150.625C152.49 518.109 153.911 517.667 154.891 516.781C155.87 515.896 156.359 514.661 156.359 513.078C156.359 511.505 155.87 510.255 154.891 509.328C153.922 508.391 152.542 507.911 150.75 507.891H144.797V518.109ZM169.969 513.688C169.573 513.615 169.151 513.578 168.703 513.578C167.536 513.578 166.547 513.906 165.734 514.562C164.932 515.208 164.359 516.151 164.016 517.391V529H162.156V512.094H163.984L164.016 514.781C165.005 512.781 166.594 511.781 168.781 511.781C169.302 511.781 169.714 511.849 170.016 511.984L169.969 513.688ZM171.594 520.297C171.594 518.672 171.906 517.208 172.531 515.906C173.167 514.604 174.057 513.594 175.203 512.875C176.359 512.146 177.667 511.781 179.125 511.781C181.375 511.781 183.198 512.573 184.594 514.156C185.99 515.729 186.688 517.818 186.688 520.422V520.812C186.688 522.448 186.37 523.922 185.734 525.234C185.109 526.536 184.224 527.542 183.078 528.25C181.932 528.958 180.625 529.312 179.156 529.312C176.917 529.312 175.094 528.526 173.688 526.953C172.292 525.37 171.594 523.276 171.594 520.672V520.297ZM173.469 520.812C173.469 522.833 173.99 524.495 175.031 525.797C176.083 527.089 177.458 527.734 179.156 527.734C180.844 527.734 182.208 527.089 183.25 525.797C184.302 524.495 184.828 522.781 184.828 520.656V520.297C184.828 519.005 184.589 517.823 184.109 516.75C183.63 515.677 182.958 514.849 182.094 514.266C181.229 513.672 180.24 513.375 179.125 513.375C177.458 513.375 176.099 514.031 175.047 515.344C173.995 516.646 173.469 518.354 173.469 520.469V520.812ZM189.812 520.391C189.812 517.745 190.396 515.651 191.562 514.109C192.74 512.557 194.333 511.781 196.344 511.781C198.646 511.781 200.396 512.698 201.594 514.531L201.688 512.094H203.438V528.656C203.438 530.833 202.828 532.557 201.609 533.828C200.391 535.099 198.74 535.734 196.656 535.734C195.479 535.734 194.354 535.469 193.281 534.938C192.219 534.417 191.38 533.719 190.766 532.844L191.812 531.719C193.135 533.344 194.708 534.156 196.531 534.156C198.094 534.156 199.312 533.693 200.188 532.766C201.062 531.849 201.516 530.573 201.547 528.938V526.812C200.349 528.479 198.604 529.312 196.312 529.312C194.354 529.312 192.781 528.531 191.594 526.969C190.406 525.406 189.812 523.297 189.812 520.641V520.391ZM191.703 520.719C191.703 522.875 192.135 524.578 193 525.828C193.865 527.068 195.083 527.688 196.656 527.688C198.958 527.688 200.589 526.656 201.547 524.594V516.734C201.109 515.651 200.479 514.828 199.656 514.266C198.833 513.693 197.844 513.406 196.688 513.406C195.115 513.406 193.891 514.026 193.016 515.266C192.141 516.495 191.703 518.312 191.703 520.719ZM216.125 513.688C215.729 513.615 215.307 513.578 214.859 513.578C213.693 513.578 212.703 513.906 211.891 514.562C211.089 515.208 210.516 516.151 210.172 517.391V529H208.312V512.094H210.141L210.172 514.781C211.161 512.781 212.75 511.781 214.938 511.781C215.458 511.781 215.87 511.849 216.172 511.984L216.125 513.688ZM229.141 529C228.953 528.469 228.833 527.682 228.781 526.641C228.125 527.495 227.286 528.156 226.266 528.625C225.255 529.083 224.182 529.312 223.047 529.312C221.422 529.312 220.104 528.859 219.094 527.953C218.094 527.047 217.594 525.901 217.594 524.516C217.594 522.87 218.276 521.568 219.641 520.609C221.016 519.651 222.927 519.172 225.375 519.172H228.766V517.25C228.766 516.042 228.391 515.094 227.641 514.406C226.901 513.708 225.818 513.359 224.391 513.359C223.089 513.359 222.01 513.693 221.156 514.359C220.302 515.026 219.875 515.828 219.875 516.766L218 516.75C218 515.406 218.625 514.245 219.875 513.266C221.125 512.276 222.661 511.781 224.484 511.781C226.37 511.781 227.854 512.255 228.938 513.203C230.031 514.141 230.594 515.453 230.625 517.141V525.141C230.625 526.776 230.797 528 231.141 528.812V529H229.141ZM223.266 527.656C224.516 527.656 225.63 527.354 226.609 526.75C227.599 526.146 228.318 525.339 228.766 524.328V520.609H225.422C223.557 520.63 222.099 520.974 221.047 521.641C219.995 522.297 219.469 523.203 219.469 524.359C219.469 525.307 219.818 526.094 220.516 526.719C221.224 527.344 222.141 527.656 223.266 527.656ZM237.328 512.094L237.391 514.844C238.016 513.823 238.797 513.057 239.734 512.547C240.672 512.036 241.714 511.781 242.859 511.781C245.526 511.781 247.219 512.875 247.938 515.062C248.542 514.01 249.349 513.203 250.359 512.641C251.37 512.068 252.484 511.781 253.703 511.781C257.328 511.781 259.177 513.76 259.25 517.719V529H257.375V517.859C257.365 516.349 257.036 515.229 256.391 514.5C255.755 513.771 254.714 513.406 253.266 513.406C251.922 513.427 250.786 513.865 249.859 514.719C248.932 515.562 248.417 516.594 248.312 517.812V529H246.438V517.719C246.427 516.271 246.083 515.193 245.406 514.484C244.74 513.766 243.708 513.406 242.312 513.406C241.135 513.406 240.125 513.745 239.281 514.422C238.438 515.089 237.812 516.083 237.406 517.406V529H235.531V512.094H237.328ZM265.703 512.094L265.766 514.844C266.391 513.823 267.172 513.057 268.109 512.547C269.047 512.036 270.089 511.781 271.234 511.781C273.901 511.781 275.594 512.875 276.312 515.062C276.917 514.01 277.724 513.203 278.734 512.641C279.745 512.068 280.859 511.781 282.078 511.781C285.703 511.781 287.552 513.76 287.625 517.719V529H285.75V517.859C285.74 516.349 285.411 515.229 284.766 514.5C284.13 513.771 283.089 513.406 281.641 513.406C280.297 513.427 279.161 513.865 278.234 514.719C277.307 515.562 276.792 516.594 276.688 517.812V529H274.812V517.719C274.802 516.271 274.458 515.193 273.781 514.484C273.115 513.766 272.083 513.406 270.688 513.406C269.51 513.406 268.5 513.745 267.656 514.422C266.812 515.089 266.188 516.083 265.781 517.406V529H263.906V512.094H265.703ZM298.922 529.312C297.484 529.312 296.182 528.958 295.016 528.25C293.859 527.542 292.958 526.557 292.312 525.297C291.667 524.026 291.344 522.604 291.344 521.031V520.359C291.344 518.734 291.656 517.271 292.281 515.969C292.917 514.667 293.797 513.646 294.922 512.906C296.047 512.156 297.266 511.781 298.578 511.781C300.63 511.781 302.255 512.484 303.453 513.891C304.661 515.286 305.266 517.198 305.266 519.625V520.672H293.203V521.031C293.203 522.948 293.75 524.547 294.844 525.828C295.948 527.099 297.333 527.734 299 527.734C300 527.734 300.88 527.552 301.641 527.188C302.411 526.823 303.109 526.24 303.734 525.438L304.906 526.328C303.531 528.318 301.536 529.312 298.922 529.312ZM298.578 513.375C297.172 513.375 295.984 513.891 295.016 514.922C294.057 515.953 293.474 517.339 293.266 519.078H303.406V518.875C303.354 517.25 302.891 515.927 302.016 514.906C301.141 513.885 299.995 513.375 298.578 513.375ZM308.156 520.391C308.156 517.766 308.74 515.677 309.906 514.125C311.083 512.562 312.677 511.781 314.688 511.781C316.969 511.781 318.708 512.682 319.906 514.484V505H321.766V529H320.016L319.938 526.75C318.74 528.458 316.979 529.312 314.656 529.312C312.708 529.312 311.135 528.531 309.938 526.969C308.75 525.396 308.156 523.276 308.156 520.609V520.391ZM310.047 520.719C310.047 522.875 310.479 524.578 311.344 525.828C312.208 527.068 313.427 527.688 315 527.688C317.302 527.688 318.938 526.672 319.906 524.641V516.703C318.938 514.505 317.312 513.406 315.031 513.406C313.458 513.406 312.234 514.026 311.359 515.266C310.484 516.495 310.047 518.312 310.047 520.719ZM348.078 520.719C348.078 523.354 347.495 525.448 346.328 527C345.161 528.542 343.594 529.312 341.625 529.312C339.271 529.312 337.49 528.438 336.281 526.688L336.203 529H334.453V505H336.312V514.547C337.5 512.703 339.26 511.781 341.594 511.781C343.594 511.781 345.172 512.547 346.328 514.078C347.495 515.599 348.078 517.719 348.078 520.438V520.719ZM346.203 520.391C346.203 518.161 345.771 516.443 344.906 515.234C344.042 514.016 342.823 513.406 341.25 513.406C340.052 513.406 339.036 513.703 338.203 514.297C337.37 514.88 336.74 515.74 336.312 516.875V524.5C337.25 526.625 338.906 527.688 341.281 527.688C342.823 527.688 344.026 527.078 344.891 525.859C345.766 524.641 346.203 522.818 346.203 520.391ZM357.391 526.312L362.328 512.094H364.344L357.125 531.875L356.75 532.75C355.823 534.802 354.391 535.828 352.453 535.828C352.005 535.828 351.526 535.755 351.016 535.609L351 534.062L351.969 534.156C352.885 534.156 353.625 533.927 354.188 533.469C354.76 533.021 355.245 532.245 355.641 531.141L356.469 528.859L350.094 512.094H352.141L357.391 526.312ZM366.797 527.875C366.797 527.51 366.911 527.203 367.141 526.953C367.38 526.693 367.708 526.562 368.125 526.562C368.542 526.562 368.87 526.693 369.109 526.953C369.349 527.203 369.469 527.51 369.469 527.875C369.469 528.24 369.349 528.542 369.109 528.781C368.87 529.01 368.542 529.125 368.125 529.125C367.708 529.125 367.38 529.01 367.141 528.781C366.911 528.542 366.797 528.24 366.797 527.875ZM366.828 513.453C366.828 513.089 366.943 512.781 367.172 512.531C367.411 512.271 367.74 512.141 368.156 512.141C368.573 512.141 368.901 512.271 369.141 512.531C369.38 512.781 369.5 513.089 369.5 513.453C369.5 513.818 369.38 514.12 369.141 514.359C368.901 514.589 368.573 514.703 368.156 514.703C367.74 514.703 367.411 514.589 367.172 514.359C366.943 514.12 366.828 513.818 366.828 513.453ZM384.109 519.734V529H382.188V506.25H389.938C392.302 506.25 394.167 506.854 395.531 508.062C396.906 509.271 397.594 510.932 397.594 513.047C397.594 515.182 396.932 516.833 395.609 518C394.297 519.156 392.391 519.734 389.891 519.734H384.109ZM384.109 518.109H389.938C391.802 518.109 393.224 517.667 394.203 516.781C395.182 515.896 395.672 514.661 395.672 513.078C395.672 511.505 395.182 510.255 394.203 509.328C393.234 508.391 391.854 507.911 390.062 507.891H384.109V518.109ZM403.562 529H401.688V512.094H403.562V529ZM401.359 507.203C401.359 506.849 401.474 506.552 401.703 506.312C401.932 506.062 402.245 505.938 402.641 505.938C403.036 505.938 403.349 506.062 403.578 506.312C403.818 506.552 403.938 506.849 403.938 507.203C403.938 507.557 403.818 507.854 403.578 508.094C403.349 508.333 403.036 508.453 402.641 508.453C402.245 508.453 401.932 508.333 401.703 508.094C401.474 507.854 401.359 507.557 401.359 507.203ZM410.438 512.094L410.5 514.984C411.135 513.943 411.927 513.151 412.875 512.609C413.823 512.057 414.87 511.781 416.016 511.781C417.828 511.781 419.177 512.292 420.062 513.312C420.948 514.333 421.396 515.865 421.406 517.906V529H419.547V517.891C419.536 516.38 419.214 515.255 418.578 514.516C417.953 513.776 416.948 513.406 415.562 513.406C414.406 513.406 413.38 513.771 412.484 514.5C411.599 515.219 410.943 516.193 410.516 517.422V529H408.656V512.094H410.438ZM432.797 529.312C431.359 529.312 430.057 528.958 428.891 528.25C427.734 527.542 426.833 526.557 426.188 525.297C425.542 524.026 425.219 522.604 425.219 521.031V520.359C425.219 518.734 425.531 517.271 426.156 515.969C426.792 514.667 427.672 513.646 428.797 512.906C429.922 512.156 431.141 511.781 432.453 511.781C434.505 511.781 436.13 512.484 437.328 513.891C438.536 515.286 439.141 517.198 439.141 519.625V520.672H427.078V521.031C427.078 522.948 427.625 524.547 428.719 525.828C429.823 527.099 431.208 527.734 432.875 527.734C433.875 527.734 434.755 527.552 435.516 527.188C436.286 526.823 436.984 526.24 437.609 525.438L438.781 526.328C437.406 528.318 435.411 529.312 432.797 529.312ZM432.453 513.375C431.047 513.375 429.859 513.891 428.891 514.922C427.932 515.953 427.349 517.339 427.141 519.078H437.281V518.875C437.229 517.25 436.766 515.927 435.891 514.906C435.016 513.885 433.87 513.375 432.453 513.375ZM453.453 529C453.266 528.469 453.146 527.682 453.094 526.641C452.438 527.495 451.599 528.156 450.578 528.625C449.568 529.083 448.495 529.312 447.359 529.312C445.734 529.312 444.417 528.859 443.406 527.953C442.406 527.047 441.906 525.901 441.906 524.516C441.906 522.87 442.589 521.568 443.953 520.609C445.328 519.651 447.24 519.172 449.688 519.172H453.078V517.25C453.078 516.042 452.703 515.094 451.953 514.406C451.214 513.708 450.13 513.359 448.703 513.359C447.401 513.359 446.323 513.693 445.469 514.359C444.615 515.026 444.188 515.828 444.188 516.766L442.312 516.75C442.312 515.406 442.938 514.245 444.188 513.266C445.438 512.276 446.974 511.781 448.797 511.781C450.682 511.781 452.167 512.255 453.25 513.203C454.344 514.141 454.906 515.453 454.938 517.141V525.141C454.938 526.776 455.109 528 455.453 528.812V529H453.453ZM447.578 527.656C448.828 527.656 449.943 527.354 450.922 526.75C451.911 526.146 452.63 525.339 453.078 524.328V520.609H449.734C447.87 520.63 446.411 520.974 445.359 521.641C444.307 522.297 443.781 523.203 443.781 524.359C443.781 525.307 444.13 526.094 444.828 526.719C445.536 527.344 446.453 527.656 447.578 527.656ZM472.906 518.375H462.297V529H460.375V506.25H474.469V507.891H462.297V516.734H472.906V518.375ZM488.078 529C487.891 528.469 487.771 527.682 487.719 526.641C487.062 527.495 486.224 528.156 485.203 528.625C484.193 529.083 483.12 529.312 481.984 529.312C480.359 529.312 479.042 528.859 478.031 527.953C477.031 527.047 476.531 525.901 476.531 524.516C476.531 522.87 477.214 521.568 478.578 520.609C479.953 519.651 481.865 519.172 484.312 519.172H487.703V517.25C487.703 516.042 487.328 515.094 486.578 514.406C485.839 513.708 484.755 513.359 483.328 513.359C482.026 513.359 480.948 513.693 480.094 514.359C479.24 515.026 478.812 515.828 478.812 516.766L476.938 516.75C476.938 515.406 477.562 514.245 478.812 513.266C480.062 512.276 481.599 511.781 483.422 511.781C485.307 511.781 486.792 512.255 487.875 513.203C488.969 514.141 489.531 515.453 489.562 517.141V525.141C489.562 526.776 489.734 528 490.078 528.812V529H488.078ZM482.203 527.656C483.453 527.656 484.568 527.354 485.547 526.75C486.536 526.146 487.255 525.339 487.703 524.328V520.609H484.359C482.495 520.63 481.036 520.974 479.984 521.641C478.932 522.297 478.406 523.203 478.406 524.359C478.406 525.307 478.755 526.094 479.453 526.719C480.161 527.344 481.078 527.656 482.203 527.656ZM496.344 512.094L496.406 514.984C497.042 513.943 497.833 513.151 498.781 512.609C499.729 512.057 500.776 511.781 501.922 511.781C503.734 511.781 505.083 512.292 505.969 513.312C506.854 514.333 507.302 515.865 507.312 517.906V529H505.453V517.891C505.443 516.38 505.12 515.255 504.484 514.516C503.859 513.776 502.854 513.406 501.469 513.406C500.312 513.406 499.286 513.771 498.391 514.5C497.505 515.219 496.849 516.193 496.422 517.422V529H494.562V512.094H496.344Z" fill="white"/>
<defs>
<filter id="filter0_bd_3103:7495" x="48" y="48" width="1184" height="544" filterUnits="userSpaceOnUse" color-interpolation-filters="sRGB">
<feFlood flood-opacity="0" result="BackgroundImageFix"/>
<feGaussianBlur in="BackgroundImage" stdDeviation="14"/>
<feComposite in2="SourceAlpha" operator="in" result="effect1_backgroundBlur_3103:7495"/>
<feColorMatrix in="SourceAlpha" type="matrix" values="0 0 0 0 0 0 0 0 0 0 0 0 0 0 0 0 0 0 127 0" result="hardAlpha"/>
<feMorphology radius="5" operator="dilate" in="SourceAlpha" result="effect2_dropShadow_3103:7495"/>
<feOffset/>
<feGaussianBlur stdDeviation="12.5"/>
<feComposite in2="hardAlpha" operator="out"/>
<feColorMatrix type="matrix" values="0 0 0 0 0.258333 0 0 0 0 0.258333 0 0 0 0 0.258333 0 0 0 0.6 0"/>
<feBlend mode="normal" in2="effect1_backgroundBlur_3103:7495" result="effect2_dropShadow_3103:7495"/>
<feBlend mode="normal" in="SourceGraphic" in2="effect2_dropShadow_3103:7495" result="shape"/>
</filter>
<filter id="filter1_d_3103:7495" x="300.312" y="153.625" width="19.875" height="76.1875" filterUnits="userSpaceOnUse" color-interpolation-filters="sRGB">
<feFlood flood-opacity="0" result="BackgroundImageFix"/>
<feColorMatrix in="SourceAlpha" type="matrix" values="0 0 0 0 0 0 0 0 0 0 0 0 0 0 0 0 0 0 127 0" result="hardAlpha"/>
<feOffset dx="0.125" dy="0.125"/>
<feGaussianBlur stdDeviation="0.125"/>
<feColorMatrix type="matrix" values="0 0 0 0 0 0 0 0 0 0 0 0 0 0 0 0 0 0 0.1 0"/>
<feBlend mode="normal" in2="BackgroundImageFix" result="effect1_dropShadow_3103:7495"/>
<feBlend mode="normal" in="SourceGraphic" in2="effect1_dropShadow_3103:7495" result="shape"/>
</filter>
<filter id="filter2_d_3103:7495" x="283.488" y="115.165" width="68.082" height="62.6494" filterUnits="userSpaceOnUse" color-interpolation-filters="sRGB">
<feFlood flood-opacity="0" result="BackgroundImageFix"/>
<feColorMatrix in="SourceAlpha" type="matrix" values="0 0 0 0 0 0 0 0 0 0 0 0 0 0 0 0 0 0 127 0" result="hardAlpha"/>
<feOffset dx="0.3125" dy="0.3125"/>
<feGaussianBlur stdDeviation="0.3125"/>
<feColorMatrix type="matrix" values="0 0 0 0 0 0 0 0 0 0 0 0 0 0 0 0 0 0 0.25 0"/>
<feBlend mode="normal" in2="BackgroundImageFix" result="effect1_dropShadow_3103:7495"/>
<feBlend mode="normal" in="SourceGraphic" in2="effect1_dropShadow_3103:7495" result="shape"/>
</filter>
<filter id="filter3_d_3103:7495" x="373.125" y="153.062" width="8.65625" height="6.21875" filterUnits="userSpaceOnUse" color-interpolation-filters="sRGB">
<feFlood flood-opacity="0" result="BackgroundImageFix"/>
<feColorMatrix in="SourceAlpha" type="matrix" values="0 0 0 0 0 0 0 0 0 0 0 0 0 0 0 0 0 0 127 0" result="hardAlpha"/>
<feOffset dx="0.3125" dy="0.3125"/>
<feGaussianBlur stdDeviation="0.078125"/>
<feColorMatrix type="matrix" values="0 0 0 0 0 0 0 0 0 0 0 0 0 0 0 0 0 0 0.25 0"/>
<feBlend mode="normal" in2="BackgroundImageFix" result="effect1_dropShadow_3103:7495"/>
<feBlend mode="normal" in="SourceGraphic" in2="effect1_dropShadow_3103:7495" result="shape"/>
</filter>
<filter id="filter4_d_3103:7495" x="370.812" y="144.438" width="8.65625" height="6.21875" filterUnits="userSpaceOnUse" color-interpolation-filters="sRGB">
<feFlood flood-opacity="0" result="BackgroundImageFix"/>
<feColorMatrix in="SourceAlpha" type="matrix" values="0 0 0 0 0 0 0 0 0 0 0 0 0 0 0 0 0 0 127 0" result="hardAlpha"/>
<feOffset dx="0.3125" dy="0.3125"/>
<feGaussianBlur stdDeviation="0.078125"/>
<feColorMatrix type="matrix" values="0 0 0 0 0 0 0 0 0 0 0 0 0 0 0 0 0 0 0.25 0"/>
<feBlend mode="normal" in2="BackgroundImageFix" result="effect1_dropShadow_3103:7495"/>
<feBlend mode="normal" in="SourceGraphic" in2="effect1_dropShadow_3103:7495" result="shape"/>
</filter>
<filter id="filter5_d_3103:7495" x="350.438" y="150.188" width="8.65625" height="6.21875" filterUnits="userSpaceOnUse" color-interpolation-filters="sRGB">
<feFlood flood-opacity="0" result="BackgroundImageFix"/>
<feColorMatrix in="SourceAlpha" type="matrix" values="0 0 0 0 0 0 0 0 0 0 0 0 0 0 0 0 0 0 127 0" result="hardAlpha"/>
<feOffset dx="0.3125" dy="0.3125"/>
<feGaussianBlur stdDeviation="0.078125"/>
<feColorMatrix type="matrix" values="0 0 0 0 0 0 0 0 0 0 0 0 0 0 0 0 0 0 0.25 0"/>
<feBlend mode="normal" in2="BackgroundImageFix" result="effect1_dropShadow_3103:7495"/>
<feBlend mode="normal" in="SourceGraphic" in2="effect1_dropShadow_3103:7495" result="shape"/>
</filter>
<filter id="filter6_d_3103:7495" x="360.375" y="148.938" width="8.65625" height="6.21875" filterUnits="userSpaceOnUse" color-interpolation-filters="sRGB">
<feFlood flood-opacity="0" result="BackgroundImageFix"/>
<feColorMatrix in="SourceAlpha" type="matrix" values="0 0 0 0 0 0 0 0 0 0 0 0 0 0 0 0 0 0 127 0" result="hardAlpha"/>
<feOffset dx="0.3125" dy="0.3125"/>
<feGaussianBlur stdDeviation="0.078125"/>
<feColorMatrix type="matrix" values="0 0 0 0 0 0 0 0 0 0 0 0 0 0 0 0 0 0 0.25 0"/>
<feBlend mode="normal" in2="BackgroundImageFix" result="effect1_dropShadow_3103:7495"/>
<feBlend mode="normal" in="SourceGraphic" in2="effect1_dropShadow_3103:7495" result="shape"/>
</filter>
<filter id="filter7_d_3103:7495" x="362.312" y="135.25" width="8.65625" height="6.21875" filterUnits="userSpaceOnUse" color-interpolation-filters="sRGB">
<feFlood flood-opacity="0" result="BackgroundImageFix"/>
<feColorMatrix in="SourceAlpha" type="matrix" values="0 0 0 0 0 0 0 0 0 0 0 0 0 0 0 0 0 0 127 0" result="hardAlpha"/>
<feOffset dx="0.3125" dy="0.3125"/>
<feGaussianBlur stdDeviation="0.078125"/>
<feColorMatrix type="matrix" values="0 0 0 0 0 0 0 0 0 0 0 0 0 0 0 0 0 0 0.25 0"/>
<feBlend mode="normal" in2="BackgroundImageFix" result="effect1_dropShadow_3103:7495"/>
<feBlend mode="normal" in="SourceGraphic" in2="effect1_dropShadow_3103:7495" result="shape"/>
</filter>
<filter id="filter8_d_3103:7495" x="324.323" y="162.896" width="65.8606" height="40.5369" filterUnits="userSpaceOnUse" color-interpolation-filters="sRGB">
<feFlood flood-opacity="0" result="BackgroundImageFix"/>
<feColorMatrix in="SourceAlpha" type="matrix" values="0 0 0 0 0 0 0 0 0 0 0 0 0 0 0 0 0 0 127 0" result="hardAlpha"/>
<feOffset dx="0.602846" dy="0.602846"/>
<feGaussianBlur stdDeviation="0.602846"/>
<feColorMatrix type="matrix" values="0 0 0 0 0 0 0 0 0 0 0 0 0 0 0 0 0 0 0.25 0"/>
<feBlend mode="normal" in2="BackgroundImageFix" result="effect1_dropShadow_3103:7495"/>
<feBlend mode="normal" in="SourceGraphic" in2="effect1_dropShadow_3103:7495" result="shape"/>
</filter>
<linearGradient id="paint0_linear_3103:7495" x1="-1.14441e-05" y1="320" x2="819.2" y2="-294.4" gradientUnits="userSpaceOnUse">
<stop stop-color="#71AFE5"/>
<stop offset="1" stop-color="#78ECF2"/>
</linearGradient>
<linearGradient id="paint1_linear_3103:7495" x1="1280" y1="640" x2="-3.62356e-05" y2="640" gradientUnits="userSpaceOnUse">
<stop stop-color="#F2D478"/>
<stop offset="1" stop-color="#EDC575"/>
</linearGradient>
<linearGradient id="paint2_linear_3103:7495" x1="78" y1="78" x2="1202" y2="562" gradientUnits="userSpaceOnUse">
<stop stop-opacity="0.9"/>
<stop offset="1" stop-opacity="0.7"/>
</linearGradient>
<linearGradient id="paint3_linear_3103:7495" x1="403" y1="114" x2="275" y2="242" gradientUnits="userSpaceOnUse">
<stop stop-color="#78ECF2"/>
<stop offset="1" stop-color="#71AFE5"/>
</linearGradient>
<linearGradient id="paint4_linear_3103:7495" x1="273.252" y1="211.024" x2="395.354" y2="252.287" gradientUnits="userSpaceOnUse">
<stop stop-color="#F2D478"/>
<stop offset="0.927083" stop-color="#EDC575"/>
</linearGradient>
<linearGradient id="paint5_linear_3103:7495" x1="310.125" y1="153.75" x2="318.906" y2="223.625" gradientUnits="userSpaceOnUse">
<stop stop-color="#E6AB71"/>
<stop offset="0.958971" stop-color="#E6AB71"/>
<stop offset="1" stop-color="#E6AB71" stop-opacity="0"/>
</linearGradient>
<linearGradient id="paint6_linear_3103:7495" x1="291.422" y1="108.647" x2="340.615" y2="177.699" gradientUnits="userSpaceOnUse">
<stop stop-color="#60B358"/>
<stop offset="1" stop-color="#65CC76"/>
</linearGradient>
<linearGradient id="paint7_linear_3103:7495" x1="291.422" y1="108.647" x2="340.615" y2="177.699" gradientUnits="userSpaceOnUse">
<stop stop-color="#60B358"/>
<stop offset="1" stop-color="#65CC76"/>
</linearGradient>
<linearGradient id="paint8_linear_3103:7495" x1="373" y1="153.062" x2="381.442" y2="158.866" gradientUnits="userSpaceOnUse">
<stop stop-color="#8D8D8D"/>
<stop offset="1" stop-color="#424242"/>
</linearGradient>
<linearGradient id="paint9_linear_3103:7495" x1="370.688" y1="144.437" x2="379.129" y2="150.241" gradientUnits="userSpaceOnUse">
<stop stop-color="#8D8D8D"/>
<stop offset="1" stop-color="#424242"/>
</linearGradient>
<linearGradient id="paint10_linear_3103:7495" x1="350.313" y1="150.188" x2="358.754" y2="155.992" gradientUnits="userSpaceOnUse">
<stop stop-color="#8D8D8D"/>
<stop offset="1" stop-color="#424242"/>
</linearGradient>
<linearGradient id="paint11_linear_3103:7495" x1="360.25" y1="148.937" x2="368.692" y2="154.741" gradientUnits="userSpaceOnUse">
<stop stop-color="#8D8D8D"/>
<stop offset="1" stop-color="#424242"/>
</linearGradient>
<linearGradient id="paint12_linear_3103:7495" x1="362.188" y1="135.25" x2="370.629" y2="141.054" gradientUnits="userSpaceOnUse">
<stop stop-color="#8D8D8D"/>
<stop offset="1" stop-color="#424242"/>
</linearGradient>
<clipPath id="clip0_3103:7495">
<rect x="275" y="114" width="128" height="128" rx="64" fill="white"/>
</clipPath>
</defs>
</svg>
