<svg width="1280" height="640" fill="none" xmlns="http://www.w3.org/2000/svg"><rect width="1280" height="640" rx="40" fill="#fff"/><rect width="1280" height="640" rx="40" fill="url(#a)"/><path fill-rule="evenodd" clip-rule="evenodd" d="m0 307 53 32c54 32 160 96 267 83s213-102 320-115 213 51 320 45c107-7 213-83 267-122l53-38v448H0V307Z" fill="url(#b)"/><path fill="#000" fill-opacity=".25" d="M0 0h1280v640H0z"/><g filter="url(#c)"><rect x="78" y="78" width="1124" height="484" rx="40" fill="url(#d)" fill-opacity=".65" shape-rendering="crispEdges"/></g><g clip-path="url(#e)"><rect x="275" y="114" width="128" height="128" rx="64" fill="url(#f)"/><path d="M383.762 204.512c-50.607 2.982-92.491 18.7-104.528 37.488h123.768v-37.974c-6.261-.057-12.691.1-19.24.486Z" fill="url(#g)"/><g filter="url(#h)"><path d="M300.438 191.617c0 19.411 10.156 37.821 10.156 37.821l7.906-3.313s-8.919-20.634-7.906-34.508c1.114-15.263 9.219-37.867 9.219-37.867h-10.157s-9.219 22.552-9.218 37.867Z" fill="url(#i)"/></g><g filter="url(#j)"><path d="M339.817 176.877c-10.027-12.829-9.646-15.935-20.874-20.039l-8.944-2.911a1.31 1.31 0 0 1-.834-.857c-2.232-7.009-9.676-13.378-25.363-20.474 6.297-.239 21.183 7.088 26.3 9.713.822.421 1.799-.148 1.816-1.071.089-4.779.112-17.145-1.732-25.761 5.45 7.202 8.191 12.586 9.415 27.071.102 1.214.194 2.492.276 3.84.024.397.235.758.564.98a37.566 37.566 0 0 1 5.089 4.071c5.967 5.716 9.694 13.322 14.287 25.438Z" fill="url(#k)"/><path d="M319.601 142.548c.102 1.214.194 2.492.276 3.84.024.397.235.758.564.98a37.566 37.566 0 0 1 5.089 4.071c7.485-9.162 12.565-5.214 25.103-4.28-13.367-3.88-18.026-8.017-31.032-4.611Z" fill="url(#l)"/></g><g filter="url(#m)"><path d="M381.313 158.813c-1.669-1.043-1.754-1.412-3.198-1.414l-.541.019c-.422.014-.81-.205-1.151-.453-.631-.459-1.665-.743-3.298-.867.341-.139.984-.16 1.635-.135.923.036 1.65-.839 1.277-1.684a9.885 9.885 0 0 0-.624-1.217c.9.583 1.43 1.074 2.148 2.604.169.36.492.619.864.759 1.016.384 1.787 1.109 2.888 2.388Z" fill="url(#n)"/></g><g filter="url(#o)"><path d="M379 150.188c-1.668-1.043-1.753-1.412-3.197-1.414l-.542.019c-.421.014-.809-.205-1.151-.453-.631-.459-1.665-.743-3.298-.867.342-.139.985-.16 1.635-.135.923.036 1.65-.839 1.278-1.684a9.939 9.939 0 0 0-.625-1.216c.9.582 1.431 1.073 2.149 2.603.168.36.491.619.863.759 1.016.384 1.787 1.109 2.888 2.388Z" fill="url(#p)"/></g><g filter="url(#q)"><path d="M358.625 155.938c-1.668-1.043-1.753-1.411-3.197-1.413l-.542.018c-.421.015-.809-.204-1.151-.452-.631-.459-1.665-.743-3.297-.867.341-.139.984-.16 1.634-.135.923.035 1.65-.84 1.278-1.685a9.939 9.939 0 0 0-.625-1.216c.9.583 1.431 1.074 2.149 2.604.168.359.491.619.863.759 1.016.384 1.787 1.109 2.888 2.387Z" fill="url(#r)"/></g><g filter="url(#s)"><path d="M368.563 154.688c-1.669-1.043-1.754-1.412-3.198-1.414l-.541.019c-.422.014-.81-.205-1.151-.453-.631-.459-1.665-.743-3.298-.867.341-.139.984-.16 1.635-.135.923.036 1.65-.839 1.277-1.684a9.799 9.799 0 0 0-.624-1.216c.9.582 1.43 1.073 2.148 2.603.169.36.492.619.864.759 1.016.384 1.787 1.109 2.888 2.388Z" fill="url(#t)"/></g><g filter="url(#u)"><path d="M370.5 141c-1.668-1.043-1.753-1.411-3.197-1.413l-.542.018c-.421.015-.809-.204-1.151-.452-.631-.459-1.665-.743-3.298-.867.342-.139.985-.16 1.635-.135.923.035 1.65-.84 1.278-1.685a9.939 9.939 0 0 0-.625-1.216c.9.583 1.431 1.074 2.149 2.604.168.359.491.619.863.759 1.016.384 1.787 1.109 2.888 2.387Z" fill="url(#v)"/></g><g filter="url(#w)" fill="#4A4A4A"><path d="M350.596 179.433c-2.483 0-4.378-.69-5.686-2.072-1.293-1.381-1.939-3.342-1.939-5.884 0-1.263.198-2.387.595-3.372.397-.999.94-1.836 1.631-2.512a6.74 6.74 0 0 1 2.468-1.565c.955-.353 1.991-.529 3.108-.529a9.34 9.34 0 0 1 1.763.154c.529.089.991.199 1.388.331.397.118.727.242.992.375.264.132.455.235.573.308l-.992 2.777a8.217 8.217 0 0 0-1.653-.639c-.617-.176-1.322-.265-2.116-.265-.528 0-1.05.089-1.564.265a3.57 3.57 0 0 0-1.345.859c-.382.382-.69.882-.925 1.499-.235.617-.353 1.366-.353 2.248 0 .705.074 1.366.221 1.983a4.41 4.41 0 0 0 .749 1.565c.352.441.808.794 1.366 1.058.559.25 1.234.375 2.028.375.499 0 .947-.03 1.344-.088.397-.059.749-.125 1.058-.199a6.42 6.42 0 0 0 .815-.286c.235-.103.449-.199.64-.287l.947 2.755c-.485.294-1.168.558-2.049.793-.882.236-1.903.353-3.064.353Zm11.751-2.601c.324 0 .632-.007.926-.022.294-.014.529-.036.705-.066v-2.49a6.034 6.034 0 0 0-.595-.088 6.47 6.47 0 0 0-.727-.044 5.66 5.66 0 0 0-.882.066 2.07 2.07 0 0 0-.705.198 1.235 1.235 0 0 0-.485.419 1.17 1.17 0 0 0-.176.661c0 .514.169.874.507 1.08.352.191.83.286 1.432.286Zm-.264-9.608c.97 0 1.778.11 2.424.33.647.221 1.161.537 1.543.948.396.411.676.911.837 1.499.162.587.243 1.241.243 1.961v6.832c-.47.103-1.124.22-1.962.353-.837.146-1.851.22-3.041.22a9.822 9.822 0 0 1-2.05-.198c-.602-.133-1.124-.346-1.564-.64a3.05 3.05 0 0 1-1.014-1.19c-.235-.484-.353-1.08-.353-1.785 0-.676.132-1.249.397-1.719.279-.47.646-.845 1.102-1.124a4.758 4.758 0 0 1 1.565-.595 8.315 8.315 0 0 1 1.829-.198c.426 0 .8.022 1.124.066.338.029.609.073.815.132v-.308c0-.559-.169-1.007-.507-1.345-.338-.338-.925-.507-1.763-.507-.558 0-1.109.045-1.653.133a6.614 6.614 0 0 0-1.41.33l-.419-2.644a8.16 8.16 0 0 1 .705-.177 8.48 8.48 0 0 1 .948-.176c.338-.059.691-.103 1.058-.132.382-.044.764-.066 1.146-.066Zm11.344 9.542c.602 0 1.028-.058 1.278-.176.25-.117.375-.345.375-.683 0-.265-.162-.492-.485-.683-.323-.206-.816-.434-1.477-.684a16.24 16.24 0 0 1-1.41-.595 4.317 4.317 0 0 1-1.058-.727 3.091 3.091 0 0 1-.683-1.036c-.162-.396-.243-.874-.243-1.432 0-1.087.404-1.947 1.212-2.579.809-.631 1.918-.947 3.328-.947.706 0 1.381.066 2.028.198.646.118 1.161.25 1.543.397l-.573 2.556c-.382-.132-.801-.25-1.257-.352a6.6 6.6 0 0 0-1.498-.155c-1.029 0-1.543.287-1.543.86 0 .132.022.25.066.352a.821.821 0 0 0 .265.309c.132.088.308.191.529.308.235.103.528.221.881.353.72.265 1.315.529 1.785.794.47.249.838.528 1.102.837.279.294.47.624.573.992.118.367.176.793.176 1.278 0 1.146-.433 2.013-1.3 2.601-.852.587-2.064.881-3.636.881-1.029 0-1.888-.088-2.579-.264-.676-.177-1.146-.324-1.41-.441l.551-2.667c.558.221 1.131.397 1.719.529a8.82 8.82 0 0 0 1.741.176Zm7.258-12.121 3.284-.529v3.416h3.945v2.733h-3.945v4.077c0 .691.118 1.242.353 1.653.249.411.742.617 1.476.617.353 0 .713-.029 1.08-.088a6.225 6.225 0 0 0 1.036-.287l.463 2.557a9.369 9.369 0 0 1-1.323.419c-.484.117-1.079.176-1.785.176-.896 0-1.638-.118-2.226-.353-.587-.249-1.057-.587-1.41-1.013-.353-.441-.602-.97-.749-1.587a9.746 9.746 0 0 1-.199-2.05v-9.741ZM338.275 197c-.183-.6-.391-1.217-.625-1.85l-.65-1.9h-6.75a81.51 81.51 0 0 1-.675 1.9c-.216.633-.416 1.25-.6 1.85h-4.05c.65-1.867 1.267-3.592 1.85-5.175a227.43 227.43 0 0 1 1.7-4.475c.567-1.4 1.117-2.725 1.65-3.975.55-1.267 1.117-2.5 1.7-3.7h3.725c.567 1.2 1.125 2.433 1.675 3.7.55 1.25 1.1 2.575 1.65 3.975.567 1.4 1.142 2.891 1.725 4.475.584 1.583 1.2 3.308 1.85 5.175h-4.175Zm-4.675-13.4c-.083.25-.208.591-.375 1.025l-.575 1.5a268.17 268.17 0 0 1-.725 1.875c-.25.683-.508 1.4-.775 2.15h4.925c-.266-.75-.525-1.467-.775-2.15a48.663 48.663 0 0 0-.725-1.875c-.216-.567-.408-1.067-.575-1.5a73.3 73.3 0 0 0-.4-1.025Zm18.184 5.85a99.71 99.71 0 0 1-1.075 3.775c-.367 1.25-.759 2.508-1.175 3.775h-2.9c-.3-.7-.625-1.534-.975-2.5-.35-.967-.717-2.017-1.1-3.15-.367-1.15-.75-2.359-1.15-3.625a249.556 249.556 0 0 1-1.125-3.875h3.925c.133.6.275 1.258.425 1.975.166.7.333 1.425.5 2.175.183.75.366 1.508.55 2.275.2.75.4 1.475.6 2.175.216-.734.425-1.484.625-2.25a81.56 81.56 0 0 0 .6-2.25c.2-.75.383-1.467.55-2.15.183-.7.341-1.35.475-1.95h2.7c.133.6.283 1.25.45 1.95l.525 2.15c.183.733.375 1.483.575 2.25.2.766.408 1.516.625 2.25.2-.7.4-1.425.6-2.175.2-.767.383-1.525.55-2.275.183-.75.35-1.475.5-2.175.166-.717.316-1.375.45-1.975h3.875c-.367 1.3-.75 2.591-1.15 3.875a141.219 141.219 0 0 1-1.15 3.625 68.92 68.92 0 0 1-1.1 3.15c-.35.966-.675 1.8-.975 2.5h-2.9a480.681 480.681 0 0 1-1.225-3.775c-.4-1.25-.767-2.509-1.1-3.775Zm16.385 4.95c.367 0 .717-.009 1.05-.025.333-.017.6-.042.8-.075v-2.825a6.582 6.582 0 0 0-.675-.1c-.3-.034-.575-.05-.825-.05-.35 0-.683.025-1 .075a2.34 2.34 0 0 0-.8.225 1.389 1.389 0 0 0-.55.475c-.133.2-.2.45-.2.75 0 .583.192.991.575 1.225.4.216.942.325 1.625.325Zm-.3-10.9c1.1 0 2.017.125 2.75.375.733.25 1.317.608 1.75 1.075.45.466.767 1.033.95 1.7.183.666.275 1.408.275 2.225v7.75c-.533.116-1.275.25-2.225.4-.95.166-2.1.25-3.45.25-.85 0-1.625-.075-2.325-.225-.683-.15-1.275-.392-1.775-.725-.5-.35-.883-.8-1.15-1.35-.267-.55-.4-1.225-.4-2.025 0-.767.15-1.417.45-1.95a3.652 3.652 0 0 1 1.25-1.275 5.373 5.373 0 0 1 1.775-.675 9.425 9.425 0 0 1 2.075-.225c.483 0 .908.025 1.275.075.383.033.692.083.925.15v-.35c0-.634-.192-1.142-.575-1.525-.383-.384-1.05-.575-2-.575a11.7 11.7 0 0 0-1.875.15 7.499 7.499 0 0 0-1.6.375l-.475-3c.217-.067.483-.134.8-.2.333-.084.692-.15 1.075-.2.383-.067.783-.117 1.2-.15.433-.05.867-.075 1.3-.075Zm20.451.35a115.327 115.327 0 0 1-2.35 7.125 85.968 85.968 0 0 1-2.675 6.45c-.35.75-.7 1.383-1.05 1.9a5.54 5.54 0 0 1-1.15 1.3c-.417.35-.892.6-1.425.75-.517.166-1.125.25-1.825.25a7.184 7.184 0 0 1-1.625-.175 6.625 6.625 0 0 1-1.2-.35l.65-2.975c.383.133.725.225 1.025.275.3.05.617.075.95.075.667 0 1.175-.184 1.525-.55.367-.35.675-.842.925-1.475a76.209 76.209 0 0 1-2.55-5.6c-.85-2.084-1.65-4.417-2.4-7h3.95c.167.65.358 1.358.575 2.125.233.75.475 1.516.725 2.3.25.766.5 1.516.75 2.25.267.733.517 1.4.75 2 .217-.6.442-1.267.675-2 .233-.734.458-1.484.675-2.25.233-.784.45-1.55.65-2.3.217-.767.408-1.475.575-2.125h3.85Z"/></g></g><path d="M528.938 193.625c-1.042 9.583-4.48 16.917-10.313 22-5.792 5.083-13.521 7.625-23.187 7.625-6.75 0-12.73-1.688-17.938-5.062-5.167-3.376-9.167-8.146-12-14.313-2.833-6.208-4.271-13.292-4.312-21.25v-11.813c0-8.083 1.416-15.25 4.25-21.5 2.833-6.25 6.895-11.062 12.187-14.437 5.333-3.417 11.458-5.125 18.375-5.125 9.75 0 17.438 2.646 23.062 7.938 5.667 5.25 8.959 12.52 9.876 21.812h-7.75c-1.917-15.458-10.313-23.188-25.188-23.188-8.25 0-14.833 3.084-19.75 9.25-4.875 6.167-7.312 14.688-7.312 25.563v11.125c0 10.5 2.374 18.875 7.124 25.125 4.792 6.25 11.25 9.375 19.376 9.375 8.041 0 14.104-1.917 18.187-5.75 4.083-3.875 6.604-9.667 7.563-17.375h7.75ZM588.562 222c-.75-2.125-1.229-5.271-1.437-9.438-2.625 3.417-5.979 6.063-10.063 7.938-4.041 1.833-8.333 2.75-12.874 2.75-6.5 0-11.771-1.812-15.813-5.438-4-3.624-6-8.208-6-13.75 0-6.583 2.729-11.791 8.187-15.624 5.5-3.834 13.146-5.75 22.938-5.75h13.562V175c0-4.833-1.5-8.625-4.5-11.375-2.958-2.792-7.291-4.187-13-4.187-5.208 0-9.52 1.333-12.937 4-3.417 2.666-5.125 5.874-5.125 9.624L544 173c0-5.375 2.5-10.021 7.5-13.938 5-3.958 11.146-5.937 18.438-5.937 7.541 0 13.479 1.896 17.812 5.687 4.375 3.75 6.625 9 6.75 15.75v32c0 6.542.688 11.438 2.062 14.688v.75h-8Zm-23.5-5.375c5 0 9.459-1.208 13.376-3.625 3.958-2.417 6.833-5.646 8.624-9.688v-14.874h-13.374c-7.459.083-13.292 1.458-17.5 4.124-4.209 2.626-6.313 6.25-6.313 10.876 0 3.791 1.396 6.937 4.187 9.437 2.834 2.5 6.5 3.75 11 3.75ZM655 204.812c0-3.708-1.5-6.687-4.5-8.937-2.958-2.25-7.438-4-13.438-5.25-6-1.292-10.666-2.75-14-4.375-3.291-1.667-5.75-3.688-7.374-6.062-1.584-2.376-2.376-5.25-2.376-8.626 0-5.333 2.23-9.729 6.688-13.187 4.458-3.5 10.167-5.25 17.125-5.25 7.542 0 13.583 1.875 18.125 5.625 4.583 3.708 6.875 8.562 6.875 14.562h-7.5c0-3.958-1.667-7.25-5-9.874-3.292-2.626-7.458-3.938-12.5-3.938-4.917 0-8.875 1.104-11.875 3.312-2.958 2.167-4.438 5-4.438 8.5 0 3.376 1.23 6 3.688 7.876 2.5 1.833 7.021 3.52 13.562 5.062 6.584 1.542 11.5 3.188 14.75 4.938 3.292 1.75 5.73 3.854 7.313 6.312 1.583 2.458 2.375 5.438 2.375 8.938 0 5.708-2.312 10.27-6.938 13.687-4.583 3.417-10.583 5.125-18 5.125-7.874 0-14.27-1.896-19.187-5.688-4.875-3.833-7.313-8.666-7.313-14.5h7.5c.292 4.376 2.126 7.792 5.5 10.25 3.417 2.417 7.917 3.626 13.5 3.626 5.209 0 9.417-1.146 12.626-3.438 3.208-2.292 4.812-5.188 4.812-8.688Zm36-67.75v17.313h14v6.125h-14v45.062c0 3.75.667 6.542 2 8.376 1.375 1.833 3.646 2.75 6.812 2.75 1.25 0 3.271-.209 6.063-.626l.313 6.126c-1.959.708-4.626 1.062-8 1.062-5.126 0-8.855-1.479-11.188-4.438-2.333-3-3.5-7.395-3.5-13.187V160.5h-12.438v-6.125H683.5v-17.313h7.5ZM763.188 222c-.75-2.125-1.23-5.271-1.438-9.438-2.625 3.417-5.979 6.063-10.062 7.938-4.042 1.833-8.334 2.75-12.876 2.75-6.5 0-11.77-1.812-15.812-5.438-4-3.624-6-8.208-6-13.75 0-6.583 2.729-11.791 8.188-15.624 5.5-3.834 13.145-5.75 22.937-5.75h13.563V175c0-4.833-1.5-8.625-4.5-11.375-2.959-2.792-7.292-4.187-13-4.187-5.209 0-9.521 1.333-12.938 4-3.417 2.666-5.125 5.874-5.125 9.624l-7.5-.062c0-5.375 2.5-10.021 7.5-13.938 5-3.958 11.146-5.937 18.437-5.937 7.542 0 13.48 1.896 17.813 5.687 4.375 3.75 6.625 9 6.75 15.75v32c0 6.542.687 11.438 2.063 14.688v.75h-8Zm-23.5-5.375c5 0 9.458-1.208 13.374-3.625 3.959-2.417 6.834-5.646 8.626-9.688v-14.874h-13.376c-7.458.083-13.291 1.458-17.5 4.124-4.208 2.626-6.312 6.25-6.312 10.876 0 3.791 1.396 6.937 4.188 9.437 2.833 2.5 6.5 3.75 11 3.75Zm65.624-10.187 1.126 5.812 1.5-6.125 16.25-51.75h6.374l16.063 51.313 1.75 7.124 1.437-6.562 13.876-51.875h7.75L851.75 222h-6.375L828 168.375l-.812-3.687-.813 3.75L809.312 222h-6.374l-19.626-67.625H791l14.312 52.063Zm123 15.562c-.75-2.125-1.229-5.271-1.437-9.438-2.625 3.417-5.979 6.063-10.063 7.938-4.041 1.833-8.333 2.75-12.874 2.75-6.5 0-11.771-1.812-15.813-5.438-4-3.624-6-8.208-6-13.75 0-6.583 2.729-11.791 8.187-15.624 5.5-3.834 13.146-5.75 22.938-5.75h13.562V175c0-4.833-1.5-8.625-4.5-11.375-2.958-2.792-7.291-4.187-13-4.187-5.208 0-9.52 1.333-12.937 4-3.417 2.666-5.125 5.874-5.125 9.624l-7.5-.062c0-5.375 2.5-10.021 7.5-13.938 5-3.958 11.146-5.937 18.438-5.937 7.541 0 13.479 1.896 17.812 5.687 4.375 3.75 6.625 9 6.75 15.75v32c0 6.542.688 11.438 2.062 14.688v.75h-8Zm-23.5-5.375c5 0 9.459-1.208 13.376-3.625 3.958-2.417 6.833-5.646 8.624-9.688v-14.874h-13.374c-7.459.083-13.292 1.458-17.5 4.124-4.209 2.626-6.313 6.25-6.313 10.876 0 3.791 1.396 6.937 4.187 9.437 2.834 2.5 6.5 3.75 11 3.75Zm69.876-5.375 19.75-56.875h8.062L973.625 233.5l-1.5 3.5c-3.708 8.208-9.437 12.312-17.187 12.312-1.792 0-3.709-.291-5.75-.874l-.063-6.188 3.875.375c3.667 0 6.625-.917 8.875-2.75 2.292-1.792 4.229-4.896 5.813-9.313l3.312-9.124-25.5-67.063h8.188l21 56.875ZM442.917 316.26c0-1.97-.692-3.524-2.075-4.663-1.384-1.156-3.915-2.246-7.593-3.272-3.678-1.041-6.364-2.173-8.057-3.393-2.408-1.726-3.613-3.988-3.613-6.787 0-2.719 1.115-4.924 3.345-6.617 2.246-1.709 5.111-2.563 8.594-2.563 2.36 0 4.467.456 6.323 1.367 1.872.911 3.32 2.181 4.346 3.809 1.025 1.627 1.538 3.442 1.538 5.444h-3.028c0-2.425-.83-4.37-2.49-5.835-1.66-1.481-3.89-2.222-6.689-2.222-2.719 0-4.883.611-6.495 1.831-1.611 1.205-2.417 2.784-2.417 4.737 0 1.806.725 3.279 2.173 4.419 1.449 1.139 3.768 2.148 6.958 3.027 3.19.863 5.607 1.766 7.251 2.71 1.644.928 2.881 2.043 3.711 3.345.83 1.302 1.245 2.84 1.245 4.614 0 2.799-1.123 5.046-3.369 6.738-2.23 1.693-5.176 2.539-8.838 2.539-2.506 0-4.809-.447-6.909-1.342-2.083-.896-3.67-2.149-4.761-3.76-1.074-1.612-1.611-3.459-1.611-5.542h3.003c0 2.506.936 4.484 2.808 5.932 1.871 1.449 4.362 2.173 7.47 2.173 2.767 0 4.989-.61 6.665-1.831 1.677-1.221 2.515-2.84 2.515-4.858Zm13.379-24.439v6.763h5.469v2.393h-5.469v17.602c0 1.465.26 2.555.781 3.272.537.716 1.424 1.074 2.661 1.074.489 0 1.278-.082 2.368-.244l.123 2.392c-.765.277-1.807.415-3.125.415-2.002 0-3.459-.578-4.371-1.733-.911-1.172-1.367-2.889-1.367-5.151v-17.627h-4.858v-2.393h4.858v-6.763h2.93Zm23.73 9.253a10.895 10.895 0 0 0-1.977-.171c-1.823 0-3.369.513-4.639 1.538-1.253 1.01-2.148 2.483-2.685 4.419V325h-2.906v-26.416h2.857l.049 4.199c1.546-3.125 4.028-4.687 7.446-4.687.814 0 1.457.105 1.929.317l-.074 2.661ZM500.363 325c-.293-.83-.48-2.059-.561-3.687-1.026 1.335-2.336 2.369-3.931 3.101a12.035 12.035 0 0 1-5.029 1.074c-2.539 0-4.598-.708-6.177-2.124-1.562-1.416-2.344-3.206-2.344-5.371 0-2.571 1.066-4.606 3.199-6.103 2.148-1.498 5.135-2.246 8.959-2.246h5.298v-3.003c0-1.888-.586-3.37-1.757-4.444-1.156-1.09-2.849-1.635-5.079-1.635-2.034 0-3.719.52-5.053 1.562-1.335 1.042-2.002 2.295-2.002 3.76l-2.93-.025c0-2.099.977-3.914 2.93-5.444 1.953-1.546 4.354-2.319 7.202-2.319 2.946 0 5.265.74 6.958 2.221 1.709 1.465 2.588 3.516 2.637 6.153v12.5c0 2.555.268 4.468.805 5.737V325h-3.125Zm-9.179-2.1c1.953 0 3.694-.472 5.224-1.416 1.546-.944 2.669-2.205 3.369-3.784v-5.81h-5.224c-2.914.032-5.192.569-6.836 1.611-1.644 1.025-2.466 2.441-2.466 4.248 0 1.481.545 2.71 1.636 3.687 1.106.976 2.539 1.464 4.297 1.464Zm22.094-24.316.098 4.517c.993-1.628 2.23-2.865 3.711-3.711 1.481-.863 3.117-1.294 4.907-1.294 2.832 0 4.94.797 6.323 2.392 1.384 1.595 2.084 3.988 2.1 7.178V325h-2.905v-17.358c-.017-2.36-.521-4.118-1.514-5.274-.977-1.155-2.547-1.733-4.712-1.733-1.807 0-3.41.569-4.809 1.709-1.384 1.123-2.409 2.645-3.077 4.565V325h-2.905v-26.416h2.783Zm23.535 12.964c0-4.102.912-7.365 2.735-9.79 1.839-2.442 4.329-3.662 7.471-3.662 3.564 0 6.282 1.408 8.154 4.223V287.5h2.905V325h-2.734l-.122-3.516c-1.872 2.67-4.623 4.004-8.252 4.004-3.044 0-5.502-1.22-7.373-3.662-1.856-2.458-2.784-5.77-2.784-9.936v-.342Zm2.955.513c0 3.369.675 6.03 2.026 7.983 1.351 1.937 3.255 2.905 5.713 2.905 3.597 0 6.152-1.587 7.666-4.761v-12.402c-1.514-3.434-4.053-5.151-7.617-5.151-2.458 0-4.37.968-5.738 2.905-1.367 1.921-2.05 4.761-2.05 8.521Zm36.23 13.427c-2.246 0-4.281-.553-6.103-1.66-1.807-1.107-3.215-2.645-4.224-4.614-1.009-1.986-1.514-4.207-1.514-6.665v-1.05c0-2.539.489-4.826 1.465-6.86.993-2.035 2.368-3.63 4.126-4.785 1.758-1.172 3.662-1.758 5.713-1.758 3.206 0 5.745 1.098 7.617 3.296 1.888 2.181 2.832 5.167 2.832 8.96v1.635h-18.848v.562c0 2.995.855 5.493 2.564 7.495 1.725 1.986 3.89 2.978 6.494 2.978 1.563 0 2.938-.284 4.126-.854 1.205-.57 2.295-1.481 3.272-2.734l1.831 1.391c-2.149 3.109-5.266 4.663-9.351 4.663Zm-.537-24.902c-2.197 0-4.053.806-5.566 2.417-1.498 1.611-2.409 3.776-2.735 6.494h15.845v-.317c-.081-2.539-.806-4.606-2.173-6.201-1.367-1.596-3.158-2.393-5.371-2.393Zm14.966 10.962c0-4.102.911-7.365 2.734-9.79 1.839-2.442 4.33-3.662 7.471-3.662 3.564 0 6.282 1.408 8.154 4.223V287.5h2.905V325h-2.734l-.122-3.516c-1.872 2.67-4.622 4.004-8.252 4.004-3.044 0-5.501-1.22-7.373-3.662-1.856-2.458-2.783-5.77-2.783-9.936v-.342Zm2.954.513c0 3.369.675 6.03 2.026 7.983 1.351 1.937 3.255 2.905 5.713 2.905 3.597 0 6.152-1.587 7.666-4.761v-12.402c-1.514-3.434-4.053-5.151-7.617-5.151-2.458 0-4.37.968-5.737 2.905-1.368 1.921-2.051 4.761-2.051 8.521Zm36.548-.66c0-2.539.488-4.825 1.465-6.86.992-2.034 2.384-3.613 4.174-4.736 1.807-1.14 3.85-1.709 6.128-1.709 3.516 0 6.364 1.237 8.545 3.711 2.181 2.457 3.272 5.721 3.272 9.79v.61c0 2.555-.497 4.858-1.49 6.909-.976 2.035-2.36 3.605-4.15 4.712-1.79 1.107-3.833 1.66-6.128 1.66-3.499 0-6.348-1.229-8.545-3.686-2.181-2.474-3.271-5.746-3.271-9.815v-.586Zm2.929.806c0 3.158.814 5.754 2.442 7.788 1.644 2.018 3.792 3.027 6.445 3.027 2.637 0 4.769-1.009 6.397-3.027 1.643-2.034 2.465-4.712 2.465-8.032v-.562c0-2.018-.374-3.865-1.123-5.542-.748-1.676-1.798-2.97-3.149-3.881-1.351-.928-2.897-1.392-4.639-1.392-2.604 0-4.728 1.025-6.372 3.076-1.644 2.035-2.466 4.704-2.466 8.008v.537Zm29.493-13.623.097 4.517c.993-1.628 2.23-2.865 3.711-3.711 1.481-.863 3.117-1.294 4.907-1.294 2.832 0 4.94.797 6.324 2.392 1.383 1.595 2.083 3.988 2.099 7.178V325h-2.905v-17.358c-.016-2.36-.521-4.118-1.514-5.274-.976-1.155-2.547-1.733-4.712-1.733-1.806 0-3.409.569-4.809 1.709-1.384 1.123-2.409 2.645-3.076 4.565V325h-2.906v-26.416h2.784ZM699.899 325v-35.547h9.937c2.913 0 5.526.667 7.837 2.002 2.311 1.318 4.11 3.215 5.395 5.689 1.302 2.474 1.953 5.289 1.953 8.447v3.271c0 3.174-.642 5.99-1.928 8.448-1.286 2.457-3.101 4.353-5.445 5.688-2.327 1.335-5.004 2.002-8.032 2.002h-9.717Zm3.003-32.983v30.444h6.739c3.743 0 6.746-1.237 9.008-3.711 2.263-2.49 3.394-5.851 3.394-10.083v-3.125c0-4.085-1.115-7.357-3.345-9.814-2.23-2.458-5.167-3.695-8.813-3.711h-6.983ZM735.251 325h-2.93v-26.416h2.93V325Zm-3.442-34.058c0-.553.179-1.017.537-1.391.358-.391.846-.586 1.465-.586.618 0 1.106.195 1.464.586.375.374.562.838.562 1.391 0 .554-.187 1.018-.562 1.392-.358.374-.846.562-1.464.562-.619 0-1.107-.188-1.465-.562-.358-.374-.537-.838-.537-1.392Zm27.221 27.344c0-1.448-.586-2.612-1.758-3.491-1.155-.879-2.905-1.563-5.249-2.051-2.343-.504-4.166-1.074-5.468-1.709-1.286-.651-2.246-1.44-2.881-2.368-.619-.928-.928-2.051-.928-3.369 0-2.083.871-3.801 2.612-5.152 1.742-1.367 3.972-2.05 6.69-2.05 2.946 0 5.306.732 7.08 2.197 1.79 1.449 2.685 3.345 2.685 5.688h-2.929c0-1.546-.651-2.832-1.953-3.857-1.286-1.025-2.914-1.538-4.883-1.538-1.921 0-3.467.431-4.639 1.294-1.155.846-1.733 1.953-1.733 3.32 0 1.319.48 2.344 1.44 3.076.977.717 2.743 1.376 5.298 1.978 2.572.602 4.492 1.245 5.762 1.929 1.286.683 2.238 1.505 2.856 2.465.619.961.928 2.124.928 3.492 0 2.229-.903 4.012-2.71 5.346-1.79 1.335-4.134 2.002-7.031 2.002-3.076 0-5.575-.74-7.495-2.221-1.905-1.498-2.857-3.386-2.857-5.664h2.93c.114 1.709.83 3.043 2.148 4.003 1.335.944 3.093 1.416 5.274 1.416 2.034 0 3.678-.447 4.931-1.342 1.254-.895 1.88-2.027 1.88-3.394Zm19.287 4.736c2.035 0 3.736-.569 5.103-1.709 1.383-1.155 2.132-2.644 2.246-4.467h2.808a8.341 8.341 0 0 1-1.514 4.419c-.928 1.318-2.165 2.352-3.711 3.1-1.53.749-3.174 1.123-4.932 1.123-3.466 0-6.217-1.204-8.252-3.613-2.018-2.409-3.027-5.648-3.027-9.717v-.879c0-2.604.456-4.907 1.367-6.909.912-2.002 2.214-3.548 3.907-4.639 1.709-1.09 3.702-1.635 5.981-1.635 2.897 0 5.282.862 7.153 2.588 1.888 1.725 2.897 3.995 3.028 6.811h-2.808c-.13-2.067-.879-3.735-2.246-5.005-1.351-1.269-3.06-1.904-5.127-1.904-2.637 0-4.688.952-6.152 2.856-1.449 1.905-2.173 4.574-2.173 8.008v.855c0 3.369.724 5.997 2.173 7.885 1.464 1.888 3.523 2.832 6.176 2.832Zm14.405-11.621c0-2.539.488-4.825 1.465-6.86.992-2.034 2.384-3.613 4.174-4.736 1.807-1.14 3.85-1.709 6.128-1.709 3.516 0 6.364 1.237 8.545 3.711 2.181 2.457 3.272 5.721 3.272 9.79v.61c0 2.555-.497 4.858-1.49 6.909-.976 2.035-2.36 3.605-4.15 4.712-1.79 1.107-3.833 1.66-6.128 1.66-3.499 0-6.348-1.229-8.545-3.686-2.181-2.474-3.271-5.746-3.271-9.815v-.586Zm2.929.806c0 3.158.814 5.754 2.442 7.788 1.644 2.018 3.792 3.027 6.445 3.027 2.637 0 4.769-1.009 6.397-3.027 1.643-2.034 2.465-4.712 2.465-8.032v-.562c0-2.018-.374-3.865-1.123-5.542-.748-1.676-1.798-2.97-3.149-3.881-1.351-.928-2.897-1.392-4.639-1.392-2.604 0-4.728 1.025-6.372 3.076-1.644 2.035-2.466 4.704-2.466 8.008v.537Zm38.916-11.133a10.895 10.895 0 0 0-1.977-.171c-1.823 0-3.369.513-4.639 1.538-1.253 1.01-2.148 2.483-2.685 4.419V325h-2.906v-26.416h2.857l.049 4.199c1.546-3.125 4.028-4.687 7.446-4.687.814 0 1.457.105 1.929.317l-.074 2.661Zm2.979 10.474c0-4.102.911-7.365 2.734-9.79 1.839-2.442 4.33-3.662 7.471-3.662 3.564 0 6.283 1.408 8.154 4.223V287.5h2.906V325h-2.735l-.122-3.516c-1.872 2.67-4.622 4.004-8.252 4.004-3.043 0-5.501-1.22-7.373-3.662-1.855-2.458-2.783-5.77-2.783-9.936v-.342Zm2.954.513c0 3.369.675 6.03 2.026 7.983 1.351 1.937 3.256 2.905 5.713 2.905 3.597 0 6.153-1.587 7.666-4.761v-12.402c-1.513-3.434-4.052-5.151-7.617-5.151-2.458 0-4.37.968-5.737 2.905-1.367 1.921-2.051 4.761-2.051 8.521ZM873 529v-22.75h6.719c2.437 0 4.286.505 5.547 1.516 1.26 1 1.89 2.479 1.89 4.437 0 1.177-.323 2.203-.968 3.078-.636.865-1.511 1.485-2.626 1.86 1.323.291 2.386.942 3.188 1.953.812 1.01 1.219 2.177 1.219 3.5 0 2.01-.651 3.583-1.953 4.718-1.292 1.126-3.094 1.688-5.407 1.688H873Zm1.922-10.938v9.313h5.766c1.645 0 2.947-.417 3.906-1.25.968-.844 1.453-2.01 1.453-3.5 0-1.406-.464-2.516-1.391-3.328-.916-.823-2.187-1.235-3.812-1.235h-5.922Zm0-1.609h5.25c1.604-.031 2.844-.406 3.719-1.125.885-.729 1.328-1.786 1.328-3.172 0-1.458-.459-2.531-1.375-3.218-.906-.698-2.282-1.047-4.125-1.047h-4.797v8.562Zm22.625 9.859 4.937-14.218h2.016l-7.219 19.781-.375.875c-.927 2.052-2.359 3.078-4.297 3.078-.448 0-.927-.073-1.437-.219l-.016-1.547.969.094c.917 0 1.656-.229 2.219-.687.573-.448 1.057-1.224 1.453-2.328l.828-2.282-6.375-16.765h2.047l5.25 14.218Zm34.187-4.406c-.26 2.396-1.119 4.229-2.578 5.5-1.448 1.271-3.38 1.906-5.797 1.906-1.687 0-3.182-.421-4.484-1.265-1.292-.844-2.292-2.037-3-3.578-.708-1.552-1.068-3.323-1.078-5.313v-2.953c0-2.021.354-3.812 1.062-5.375.709-1.562 1.724-2.766 3.047-3.609 1.334-.854 2.865-1.281 4.594-1.281 2.438 0 4.359.661 5.766 1.984 1.416 1.312 2.239 3.13 2.468 5.453h-1.937c-.479-3.865-2.578-5.797-6.297-5.797-2.062 0-3.708.771-4.938 2.313-1.218 1.541-1.828 3.671-1.828 6.39v2.781c0 2.626.594 4.719 1.782 6.282 1.198 1.562 2.812 2.344 4.843 2.344 2.011 0 3.526-.48 4.547-1.438 1.021-.969 1.651-2.417 1.891-4.344h1.937Zm6.328 7.094h-1.874v-24h1.874v24Zm7.188 0h-1.875v-16.906h1.875V529Zm-2.203-21.797c0-.354.114-.651.344-.891.229-.25.541-.374.937-.374s.708.124.938.374c.239.24.359.537.359.891s-.12.651-.359.891c-.23.239-.542.359-.938.359-.396 0-.708-.12-.937-.359a1.237 1.237 0 0 1-.344-.891Zm13.547 20.531c1.302 0 2.39-.364 3.265-1.093.886-.74 1.365-1.693 1.438-2.86h1.797a5.332 5.332 0 0 1-.969 2.828c-.594.844-1.385 1.506-2.375 1.985a7.085 7.085 0 0 1-3.156.718c-2.219 0-3.979-.77-5.282-2.312-1.291-1.542-1.937-3.615-1.937-6.219v-.562c0-1.667.292-3.141.875-4.422.583-1.281 1.417-2.271 2.5-2.969 1.094-.698 2.37-1.047 3.828-1.047 1.854 0 3.38.552 4.578 1.657 1.209 1.104 1.854 2.557 1.938 4.359h-1.797c-.083-1.323-.563-2.391-1.438-3.203-.864-.813-1.958-1.219-3.281-1.219-1.687 0-3 .609-3.937 1.828-.927 1.219-1.391 2.927-1.391 5.125v.547c0 2.156.464 3.839 1.391 5.047.937 1.208 2.255 1.812 3.953 1.812Zm14.265-7.25-2.14 2.063V529h-1.875v-24h1.875v15.359l1.765-1.906 6.469-6.359h2.359l-7.171 7.125 7.797 9.781h-2.235l-6.844-8.516Zm21.797 4.219c0-.927-.375-1.672-1.125-2.234-.739-.563-1.859-1-3.359-1.313-1.5-.323-2.667-.687-3.5-1.094-.823-.416-1.438-.921-1.844-1.515-.396-.594-.594-1.313-.594-2.156 0-1.334.558-2.433 1.672-3.297 1.115-.875 2.542-1.313 4.282-1.313 1.885 0 3.395.469 4.531 1.407 1.146.927 1.719 2.14 1.719 3.64h-1.876c0-.989-.416-1.812-1.25-2.469-.822-.656-1.864-.984-3.124-.984-1.23 0-2.219.276-2.969.828-.74.542-1.11 1.25-1.11 2.125 0 .844.308 1.5.922 1.969.625.458 1.755.88 3.391 1.265 1.646.386 2.875.797 3.687 1.235.823.437 1.433.963 1.829 1.578.395.615.593 1.359.593 2.234 0 1.427-.578 2.568-1.734 3.422-1.146.854-2.646 1.281-4.5 1.281-1.969 0-3.568-.473-4.797-1.421-1.219-.959-1.828-2.167-1.828-3.625h1.875c.073 1.093.531 1.948 1.375 2.562.854.604 1.979.906 3.375.906 1.302 0 2.354-.286 3.156-.859s1.203-1.297 1.203-2.172Zm9.074-18.453 8.39 20.078 8.43-20.078h2.56V529h-1.92v-9.906l.15-10.156-8.46 20.062h-1.49l-8.44-19.984.16 10.015V529h-1.922v-22.75h2.542Zm26.8 22.75h-1.87v-16.906h1.87V529Zm-2.2-21.797c0-.354.11-.651.34-.891.23-.25.54-.374.94-.374.4 0 .71.124.94.374.24.24.36.537.36.891s-.12.651-.36.891c-.23.239-.54.359-.94.359-.4 0-.71-.12-.94-.359-.23-.24-.34-.537-.34-.891Zm9.08 4.891.06 2.89c.63-1.041 1.43-1.833 2.37-2.375.95-.552 2-.828 3.14-.828 1.82 0 3.17.511 4.05 1.531.89 1.021 1.33 2.553 1.35 4.594V529h-1.86v-11.109c-.01-1.511-.34-2.636-.97-3.375-.63-.74-1.63-1.11-3.02-1.11-1.15 0-2.18.365-3.08 1.094-.88.719-1.54 1.693-1.97 2.922V529h-1.86v-16.906h1.79Zm26.68 14.765c-1.12 1.636-2.92 2.453-5.39 2.453-1.8 0-3.17-.52-4.11-1.562-.93-1.052-1.41-2.604-1.43-4.656v-11h1.86v10.765c0 3.219 1.3 4.829 3.9 4.829 2.71 0 4.42-1.12 5.14-3.36v-12.234h1.88V529h-1.82l-.03-2.141Zm9.63-19.093v4.328h3.5v1.531h-3.5v11.266c0 .937.17 1.635.5 2.093.34.459.91.688 1.7.688.31 0 .82-.052 1.52-.156l.08 1.531c-.49.177-1.16.265-2 .265-1.29 0-2.22-.369-2.8-1.109-.58-.75-.88-1.849-.88-3.297v-11.281h-3.11v-1.531h3.11v-4.328h1.88Zm13.92 21.546c-1.44 0-2.74-.354-3.91-1.062-1.15-.708-2.05-1.693-2.7-2.953-.64-1.271-.97-2.693-.97-4.266v-.672c0-1.625.32-3.088.94-4.39.64-1.302 1.52-2.323 2.64-3.063 1.13-.75 2.34-1.125 3.66-1.125 2.05 0 3.67.703 4.87 2.11 1.21 1.395 1.81 3.307 1.81 5.734v1.047h-12.06v.359c0 1.917.55 3.516 1.64 4.797 1.11 1.271 2.49 1.906 4.16 1.906 1 0 1.88-.182 2.64-.546.77-.365 1.47-.948 2.09-1.75l1.17.89c-1.37 1.99-3.36 2.984-5.98 2.984Zm-.34-15.937c-1.41 0-2.6.516-3.57 1.547-.95 1.031-1.54 2.417-1.75 4.156h10.14v-.203c-.05-1.625-.51-2.948-1.39-3.969-.87-1.021-2.02-1.531-3.43-1.531Zm12.68 6.359V529h-1.92v-22.75h7.75c2.37 0 4.23.604 5.6 1.812 1.37 1.209 2.06 2.87 2.06 4.985 0 2.135-.66 3.786-1.99 4.953-1.31 1.156-3.21 1.734-5.71 1.734h-5.79Zm0-1.625h5.83c1.87 0 3.29-.442 4.27-1.328.98-.885 1.47-2.12 1.47-3.703 0-1.573-.49-2.823-1.47-3.75-.97-.937-2.35-1.417-4.14-1.437h-5.96v10.218Zm23.69 11.203c-1.44 0-2.74-.354-3.9-1.062-1.16-.708-2.06-1.693-2.71-2.953-.64-1.271-.97-2.693-.97-4.266v-.672c0-1.625.32-3.088.94-4.39.64-1.302 1.52-2.323 2.64-3.063 1.13-.75 2.35-1.125 3.66-1.125 2.05 0 3.68.703 4.87 2.11 1.21 1.395 1.82 3.307 1.82 5.734v1.047h-12.07v.359c0 1.917.55 3.516 1.64 4.797 1.11 1.271 2.49 1.906 4.16 1.906 1 0 1.88-.182 2.64-.546.77-.365 1.47-.948 2.09-1.75l1.18.89c-1.38 1.99-3.37 2.984-5.99 2.984Zm-.34-15.937c-1.41 0-2.6.516-3.56 1.547s-1.55 2.417-1.75 4.156h10.14v-.203c-.06-1.625-.52-2.948-1.39-3.969-.88-1.021-2.03-1.531-3.44-1.531Zm18.14.313a7.04 7.04 0 0 0-1.27-.11c-1.16 0-2.15.328-2.97.984-.8.646-1.37 1.589-1.71 2.829V529h-1.86v-16.906h1.82l.04 2.687c.99-2 2.57-3 4.76-3 .52 0 .93.068 1.24.203l-.05 1.704Zm-994.673 6.046V529h-1.922v-22.75h7.75c2.365 0 4.229.604 5.594 1.812 1.375 1.209 2.062 2.87 2.062 4.985 0 2.135-.661 3.786-1.984 4.953-1.313 1.156-3.219 1.734-5.719 1.734h-5.781Zm0-1.625h5.828c1.865 0 3.286-.442 4.266-1.328.979-.885 1.468-2.12 1.468-3.703 0-1.573-.489-2.823-1.468-3.75-.969-.937-2.349-1.417-4.141-1.437h-5.953v10.218Zm25.172-4.421a6.98 6.98 0 0 0-1.266-.11c-1.167 0-2.156.328-2.969.984-.802.646-1.375 1.589-1.718 2.829V529h-1.86v-16.906h1.828l.032 2.687c.989-2 2.578-3 4.765-3 .521 0 .933.068 1.235.203l-.047 1.704Zm1.625 6.609c0-1.625.312-3.089.937-4.391.636-1.302 1.526-2.312 2.672-3.031 1.156-.729 2.464-1.094 3.922-1.094 2.25 0 4.073.792 5.469 2.375 1.396 1.573 2.094 3.662 2.094 6.266v.39c0 1.636-.318 3.11-.954 4.422-.625 1.302-1.51 2.308-2.656 3.016-1.146.708-2.453 1.062-3.922 1.062-2.239 0-4.062-.786-5.468-2.359-1.396-1.583-2.094-3.677-2.094-6.281v-.375Zm1.875.515c0 2.021.521 3.683 1.562 4.985 1.052 1.292 2.427 1.937 4.125 1.937 1.688 0 3.052-.645 4.094-1.937 1.052-1.302 1.578-3.016 1.578-5.141v-.359c0-1.292-.239-2.474-.719-3.547-.479-1.073-1.151-1.901-2.015-2.484-.865-.594-1.854-.891-2.969-.891-1.667 0-3.026.656-4.078 1.969-1.052 1.302-1.578 3.01-1.578 5.125v.343Zm16.343-.421c0-2.646.584-4.74 1.75-6.282 1.178-1.552 2.771-2.328 4.782-2.328 2.302 0 4.052.917 5.25 2.75l.094-2.437h1.75v16.562c0 2.177-.61 3.901-1.829 5.172-1.218 1.271-2.869 1.906-4.953 1.906a7.514 7.514 0 0 1-3.375-.796c-1.062-.521-1.901-1.219-2.515-2.094l1.046-1.125c1.323 1.625 2.896 2.437 4.719 2.437 1.563 0 2.781-.463 3.657-1.39.874-.917 1.328-2.193 1.359-3.828v-2.126c-1.198 1.667-2.943 2.5-5.235 2.5-1.958 0-3.531-.781-4.718-2.343-1.188-1.563-1.782-3.672-1.782-6.328v-.25Zm1.891.328c0 2.156.432 3.859 1.297 5.109.865 1.24 2.083 1.86 3.656 1.86 2.302 0 3.933-1.032 4.891-3.094v-7.86c-.438-1.083-1.068-1.906-1.891-2.468-.823-.573-1.812-.86-2.968-.86-1.573 0-2.797.62-3.672 1.86-.875 1.229-1.313 3.046-1.313 5.453Zm24.422-7.031a6.98 6.98 0 0 0-1.266-.11c-1.166 0-2.156.328-2.968.984-.802.646-1.375 1.589-1.719 2.829V529h-1.86v-16.906h1.829l.031 2.687c.989-2 2.578-3 4.766-3 .52 0 .932.068 1.234.203l-.047 1.704ZM229.141 529c-.188-.531-.308-1.318-.36-2.359a6.58 6.58 0 0 1-2.515 1.984 7.71 7.71 0 0 1-3.219.687c-1.625 0-2.943-.453-3.953-1.359-1-.906-1.5-2.052-1.5-3.437 0-1.646.682-2.948 2.047-3.907 1.375-.958 3.286-1.437 5.734-1.437h3.391v-1.922c0-1.208-.375-2.156-1.125-2.844-.74-.698-1.823-1.047-3.25-1.047-1.302 0-2.381.334-3.235 1-.854.667-1.281 1.469-1.281 2.407L218 516.75c0-1.344.625-2.505 1.875-3.484 1.25-.99 2.786-1.485 4.609-1.485 1.886 0 3.37.474 4.454 1.422 1.093.938 1.656 2.25 1.687 3.938v8c0 1.635.172 2.859.516 3.671V529h-2Zm-5.875-1.344c1.25 0 2.364-.302 3.343-.906.99-.604 1.709-1.411 2.157-2.422v-3.719h-3.344c-1.865.021-3.323.365-4.375 1.032-1.052.656-1.578 1.562-1.578 2.718 0 .948.349 1.735 1.047 2.36.708.625 1.625.937 2.75.937Zm14.062-15.562.063 2.75c.625-1.021 1.406-1.787 2.343-2.297.938-.511 1.98-.766 3.125-.766 2.667 0 4.36 1.094 5.079 3.281.604-1.052 1.411-1.859 2.421-2.421 1.011-.573 2.125-.86 3.344-.86 3.625 0 5.474 1.979 5.547 5.938V529h-1.875v-11.141c-.01-1.51-.339-2.63-.984-3.359-.636-.729-1.677-1.094-3.125-1.094-1.344.021-2.48.459-3.407 1.313-.927.843-1.442 1.875-1.547 3.093V529h-1.874v-11.281c-.011-1.448-.355-2.526-1.032-3.235-.666-.718-1.698-1.078-3.094-1.078-1.177 0-2.187.339-3.031 1.016-.843.667-1.469 1.661-1.875 2.984V529h-1.875v-16.906h1.797Zm28.375 0 .063 2.75c.625-1.021 1.406-1.787 2.343-2.297.938-.511 1.98-.766 3.125-.766 2.667 0 4.36 1.094 5.078 3.281.605-1.052 1.412-1.859 2.422-2.421 1.011-.573 2.125-.86 3.344-.86 3.625 0 5.474 1.979 5.547 5.938V529h-1.875v-11.141c-.01-1.51-.339-2.63-.984-3.359-.636-.729-1.677-1.094-3.125-1.094-1.344.021-2.48.459-3.407 1.313-.927.843-1.442 1.875-1.546 3.093V529h-1.876v-11.281c-.01-1.448-.354-2.526-1.031-3.235-.666-.718-1.698-1.078-3.093-1.078-1.178 0-2.188.339-3.032 1.016-.844.667-1.468 1.661-1.875 2.984V529h-1.875v-16.906h1.797Zm33.219 17.218c-1.438 0-2.74-.354-3.906-1.062-1.157-.708-2.058-1.693-2.704-2.953-.645-1.271-.968-2.693-.968-4.266v-.672c0-1.625.312-3.088.937-4.39.636-1.302 1.516-2.323 2.641-3.063 1.125-.75 2.344-1.125 3.656-1.125 2.052 0 3.677.703 4.875 2.11 1.208 1.395 1.813 3.307 1.813 5.734v1.047h-12.063v.359c0 1.917.547 3.516 1.641 4.797 1.104 1.271 2.489 1.906 4.156 1.906 1 0 1.88-.182 2.641-.546.77-.365 1.468-.948 2.093-1.75l1.172.89c-1.375 1.99-3.37 2.984-5.984 2.984Zm-.344-15.937c-1.406 0-2.594.516-3.562 1.547-.959 1.031-1.542 2.417-1.75 4.156h10.14v-.203c-.052-1.625-.515-2.948-1.39-3.969-.875-1.021-2.021-1.531-3.438-1.531Zm9.578 7.016c0-2.625.584-4.714 1.75-6.266 1.177-1.563 2.771-2.344 4.782-2.344 2.281 0 4.02.901 5.218 2.703V505h1.86v24h-1.75l-.078-2.25c-1.198 1.708-2.959 2.562-5.282 2.562-1.948 0-3.521-.781-4.718-2.343-1.188-1.573-1.782-3.693-1.782-6.36v-.218Zm1.891.328c0 2.156.432 3.859 1.297 5.109.864 1.24 2.083 1.86 3.656 1.86 2.302 0 3.938-1.016 4.906-3.047v-7.938c-.968-2.198-2.594-3.297-4.875-3.297-1.573 0-2.797.62-3.672 1.86-.875 1.229-1.312 3.046-1.312 5.453Zm38.031 0c0 2.635-.583 4.729-1.75 6.281-1.167 1.542-2.734 2.312-4.703 2.312-2.354 0-4.135-.874-5.344-2.624l-.078 2.312h-1.75v-24h1.859v9.547c1.188-1.844 2.948-2.766 5.282-2.766 2 0 3.578.766 4.734 2.297 1.167 1.521 1.75 3.641 1.75 6.36v.281Zm-1.875-.328c0-2.23-.432-3.948-1.297-5.157-.864-1.218-2.083-1.828-3.656-1.828-1.198 0-2.214.297-3.047.891-.833.583-1.463 1.443-1.891 2.578v7.625c.938 2.125 2.594 3.188 4.969 3.188 1.542 0 2.745-.61 3.61-1.829.875-1.218 1.312-3.041 1.312-5.468Zm11.188 5.921 4.937-14.218h2.016l-7.219 19.781-.375.875c-.927 2.052-2.359 3.078-4.297 3.078-.448 0-.927-.073-1.437-.219l-.016-1.547.969.094c.916 0 1.656-.229 2.219-.687.572-.448 1.057-1.224 1.453-2.328l.828-2.282-6.375-16.765h2.047l5.25 14.218Zm9.406 1.563c0-.365.114-.672.344-.922.239-.26.567-.391.984-.391.417 0 .745.131.984.391.24.25.36.557.36.922s-.12.667-.36.906c-.239.229-.567.344-.984.344-.417 0-.745-.115-.984-.344-.23-.239-.344-.541-.344-.906Zm.031-14.422c0-.364.115-.672.344-.922.239-.26.568-.39.984-.39.417 0 .745.13.985.39.239.25.359.558.359.922 0 .365-.12.667-.359.906-.24.23-.568.344-.985.344-.416 0-.745-.114-.984-.344-.229-.239-.344-.541-.344-.906Zm17.281 6.281V529h-1.921v-22.75h7.75c2.364 0 4.229.604 5.593 1.812 1.375 1.209 2.063 2.87 2.063 4.985 0 2.135-.662 3.786-1.985 4.953-1.312 1.156-3.218 1.734-5.718 1.734h-5.782Zm0-1.625h5.829c1.864 0 3.286-.442 4.265-1.328.979-.885 1.469-2.12 1.469-3.703 0-1.573-.49-2.823-1.469-3.75-.969-.937-2.349-1.417-4.141-1.437h-5.953v10.218ZM403.562 529h-1.874v-16.906h1.874V529Zm-2.203-21.797c0-.354.115-.651.344-.891.229-.25.542-.374.938-.374.395 0 .708.124.937.374.24.24.36.537.36.891s-.12.651-.36.891c-.229.239-.542.359-.937.359-.396 0-.709-.12-.938-.359a1.241 1.241 0 0 1-.344-.891Zm9.079 4.891.062 2.89c.635-1.041 1.427-1.833 2.375-2.375.948-.552 1.995-.828 3.141-.828 1.812 0 3.161.511 4.046 1.531.886 1.021 1.334 2.553 1.344 4.594V529h-1.859v-11.109c-.011-1.511-.333-2.636-.969-3.375-.625-.74-1.63-1.11-3.016-1.11a4.74 4.74 0 0 0-3.078 1.094c-.885.719-1.541 1.693-1.968 2.922V529h-1.86v-16.906h1.782Zm22.359 17.218c-1.438 0-2.74-.354-3.906-1.062-1.157-.708-2.058-1.693-2.703-2.953-.646-1.271-.969-2.693-.969-4.266v-.672c0-1.625.312-3.088.937-4.39.636-1.302 1.516-2.323 2.641-3.063 1.125-.75 2.344-1.125 3.656-1.125 2.052 0 3.677.703 4.875 2.11 1.208 1.395 1.813 3.307 1.813 5.734v1.047h-12.063v.359c0 1.917.547 3.516 1.641 4.797 1.104 1.271 2.489 1.906 4.156 1.906 1 0 1.88-.182 2.641-.546.77-.365 1.468-.948 2.093-1.75l1.172.89c-1.375 1.99-3.37 2.984-5.984 2.984Zm-.344-15.937c-1.406 0-2.594.516-3.562 1.547-.959 1.031-1.542 2.417-1.75 4.156h10.14v-.203c-.052-1.625-.515-2.948-1.39-3.969-.875-1.021-2.021-1.531-3.438-1.531Zm21 15.625c-.187-.531-.307-1.318-.359-2.359a6.576 6.576 0 0 1-2.516 1.984 7.704 7.704 0 0 1-3.219.687c-1.625 0-2.942-.453-3.953-1.359-1-.906-1.5-2.052-1.5-3.437 0-1.646.683-2.948 2.047-3.907 1.375-.958 3.287-1.437 5.735-1.437h3.39v-1.922c0-1.208-.375-2.156-1.125-2.844-.739-.698-1.823-1.047-3.25-1.047-1.302 0-2.38.334-3.234 1-.854.667-1.281 1.469-1.281 2.407l-1.876-.016c0-1.344.626-2.505 1.876-3.484 1.25-.99 2.786-1.485 4.609-1.485 1.885 0 3.37.474 4.453 1.422 1.094.938 1.656 2.25 1.688 3.938v8c0 1.635.171 2.859.515 3.671V529h-2Zm-5.875-1.344c1.25 0 2.365-.302 3.344-.906.989-.604 1.708-1.411 2.156-2.422v-3.719h-3.344c-1.864.021-3.323.365-4.375 1.032-1.052.656-1.578 1.562-1.578 2.718 0 .948.349 1.735 1.047 2.36.708.625 1.625.937 2.75.937Zm25.328-9.281h-10.609V529h-1.922v-22.75h14.094v1.641h-12.172v8.843h10.609v1.641ZM488.078 529c-.187-.531-.307-1.318-.359-2.359a6.583 6.583 0 0 1-2.516 1.984 7.704 7.704 0 0 1-3.219.687c-1.625 0-2.942-.453-3.953-1.359-1-.906-1.5-2.052-1.5-3.437 0-1.646.683-2.948 2.047-3.907 1.375-.958 3.287-1.437 5.734-1.437h3.391v-1.922c0-1.208-.375-2.156-1.125-2.844-.739-.698-1.823-1.047-3.25-1.047-1.302 0-2.38.334-3.234 1-.854.667-1.282 1.469-1.282 2.407l-1.874-.016c0-1.344.624-2.505 1.874-3.484 1.25-.99 2.787-1.485 4.61-1.485 1.885 0 3.37.474 4.453 1.422 1.094.938 1.656 2.25 1.687 3.938v8c0 1.635.172 2.859.516 3.671V529h-2Zm-5.875-1.344c1.25 0 2.365-.302 3.344-.906.989-.604 1.708-1.411 2.156-2.422v-3.719h-3.344c-1.864.021-3.323.365-4.375 1.032-1.052.656-1.578 1.562-1.578 2.718 0 .948.349 1.735 1.047 2.36.708.625 1.625.937 2.75.937Zm14.141-15.562.062 2.89c.636-1.041 1.427-1.833 2.375-2.375.948-.552 1.995-.828 3.141-.828 1.812 0 3.161.511 4.047 1.531.885 1.021 1.333 2.553 1.343 4.594V529h-1.859v-11.109c-.01-1.511-.333-2.636-.969-3.375-.625-.74-1.63-1.11-3.015-1.11a4.737 4.737 0 0 0-3.078 1.094c-.886.719-1.542 1.693-1.969 2.922V529h-1.86v-16.906h1.782Z" fill="#fff"/><defs><linearGradient id="a" x1="0" y1="320" x2="819.2" y2="-294.4" gradientUnits="userSpaceOnUse"><stop stop-color="#71AFE5"/><stop offset="1" stop-color="#78ECF2"/></linearGradient><linearGradient id="b" x1="1280" y1="640" x2="0" y2="640" gradientUnits="userSpaceOnUse"><stop stop-color="#F2D478"/><stop offset="1" stop-color="#EDC575"/></linearGradient><linearGradient id="d" x1="78" y1="78" x2="1202" y2="562" gradientUnits="userSpaceOnUse"><stop stop-opacity=".9"/><stop offset="1" stop-opacity=".7"/></linearGradient><linearGradient id="f" x1="403" y1="114" x2="275" y2="242" gradientUnits="userSpaceOnUse"><stop stop-color="#78ECF2"/><stop offset="1" stop-color="#71AFE5"/></linearGradient><linearGradient id="g" x1="273.252" y1="211.024" x2="395.354" y2="252.287" gradientUnits="userSpaceOnUse"><stop stop-color="#F2D478"/><stop offset=".927" stop-color="#EDC575"/></linearGradient><linearGradient id="i" x1="310.125" y1="153.75" x2="318.906" y2="223.625" gradientUnits="userSpaceOnUse"><stop stop-color="#E6AB71"/><stop offset=".959" stop-color="#E6AB71"/><stop offset="1" stop-color="#E6AB71" stop-opacity="0"/></linearGradient><linearGradient id="k" x1="291.422" y1="108.647" x2="340.615" y2="177.699" gradientUnits="userSpaceOnUse"><stop stop-color="#60B358"/><stop offset="1" stop-color="#65CC76"/></linearGradient><linearGradient id="l" x1="291.422" y1="108.647" x2="340.615" y2="177.699" gradientUnits="userSpaceOnUse"><stop stop-color="#60B358"/><stop offset="1" stop-color="#65CC76"/></linearGradient><linearGradient id="n" x1="373" y1="153.062" x2="381.442" y2="158.866" gradientUnits="userSpaceOnUse"><stop stop-color="#8D8D8D"/><stop offset="1" stop-color="#424242"/></linearGradient><linearGradient id="p" x1="370.688" y1="144.437" x2="379.129" y2="150.241" gradientUnits="userSpaceOnUse"><stop stop-color="#8D8D8D"/><stop offset="1" stop-color="#424242"/></linearGradient><linearGradient id="r" x1="350.313" y1="150.188" x2="358.754" y2="155.992" gradientUnits="userSpaceOnUse"><stop stop-color="#8D8D8D"/><stop offset="1" stop-color="#424242"/></linearGradient><linearGradient id="t" x1="360.25" y1="148.937" x2="368.692" y2="154.741" gradientUnits="userSpaceOnUse"><stop stop-color="#8D8D8D"/><stop offset="1" stop-color="#424242"/></linearGradient><linearGradient id="v" x1="362.188" y1="135.25" x2="370.629" y2="141.054" gradientUnits="userSpaceOnUse"><stop stop-color="#8D8D8D"/><stop offset="1" stop-color="#424242"/></linearGradient><filter id="c" x="48" y="48" width="1184" height="544" filterUnits="userSpaceOnUse" color-interpolation-filters="sRGB"><feFlood flood-opacity="0" result="BackgroundImageFix"/><feGaussianBlur in="BackgroundImage" stdDeviation="14"/><feComposite in2="SourceAlpha" operator="in" result="effect1_backgroundBlur_31037495"/><feColorMatrix in="SourceAlpha" values="0 0 0 0 0 0 0 0 0 0 0 0 0 0 0 0 0 0 127 0" result="hardAlpha"/><feMorphology radius="5" operator="dilate" in="SourceAlpha" result="effect2_dropShadow_31037495"/><feOffset/><feGaussianBlur stdDeviation="12.5"/><feComposite in2="hardAlpha" operator="out"/><feColorMatrix values="0 0 0 0 0.258333 0 0 0 0 0.258333 0 0 0 0 0.258333 0 0 0 0.6 0"/><feBlend in2="effect1_backgroundBlur_31037495" result="effect2_dropShadow_31037495"/><feBlend in="SourceGraphic" in2="effect2_dropShadow_31037495" result="shape"/></filter><filter id="h" x="300.312" y="153.625" width="19.875" height="76.188" filterUnits="userSpaceOnUse" color-interpolation-filters="sRGB"><feFlood flood-opacity="0" result="BackgroundImageFix"/><feColorMatrix in="SourceAlpha" values="0 0 0 0 0 0 0 0 0 0 0 0 0 0 0 0 0 0 127 0" result="hardAlpha"/><feOffset dx=".125" dy=".125"/><feGaussianBlur stdDeviation=".125"/><feColorMatrix values="0 0 0 0 0 0 0 0 0 0 0 0 0 0 0 0 0 0 0.1 0"/><feBlend in2="BackgroundImageFix" result="effect1_dropShadow_31037495"/><feBlend in="SourceGraphic" in2="effect1_dropShadow_31037495" result="shape"/></filter><filter id="j" x="283.488" y="115.165" width="68.082" height="62.649" filterUnits="userSpaceOnUse" color-interpolation-filters="sRGB"><feFlood flood-opacity="0" result="BackgroundImageFix"/><feColorMatrix in="SourceAlpha" values="0 0 0 0 0 0 0 0 0 0 0 0 0 0 0 0 0 0 127 0" result="hardAlpha"/><feOffset dx=".313" dy=".313"/><feGaussianBlur stdDeviation=".313"/><feColorMatrix values="0 0 0 0 0 0 0 0 0 0 0 0 0 0 0 0 0 0 0.25 0"/><feBlend in2="BackgroundImageFix" result="effect1_dropShadow_31037495"/><feBlend in="SourceGraphic" in2="effect1_dropShadow_31037495" result="shape"/></filter><filter id="m" x="373.125" y="153.062" width="8.656" height="6.219" filterUnits="userSpaceOnUse" color-interpolation-filters="sRGB"><feFlood flood-opacity="0" result="BackgroundImageFix"/><feColorMatrix in="SourceAlpha" values="0 0 0 0 0 0 0 0 0 0 0 0 0 0 0 0 0 0 127 0" result="hardAlpha"/><feOffset dx=".313" dy=".313"/><feGaussianBlur stdDeviation=".078"/><feColorMatrix values="0 0 0 0 0 0 0 0 0 0 0 0 0 0 0 0 0 0 0.25 0"/><feBlend in2="BackgroundImageFix" result="effect1_dropShadow_31037495"/><feBlend in="SourceGraphic" in2="effect1_dropShadow_31037495" result="shape"/></filter><filter id="o" x="370.812" y="144.438" width="8.656" height="6.219" filterUnits="userSpaceOnUse" color-interpolation-filters="sRGB"><feFlood flood-opacity="0" result="BackgroundImageFix"/><feColorMatrix in="SourceAlpha" values="0 0 0 0 0 0 0 0 0 0 0 0 0 0 0 0 0 0 127 0" result="hardAlpha"/><feOffset dx=".313" dy=".313"/><feGaussianBlur stdDeviation=".078"/><feColorMatrix values="0 0 0 0 0 0 0 0 0 0 0 0 0 0 0 0 0 0 0.25 0"/><feBlend in2="BackgroundImageFix" result="effect1_dropShadow_31037495"/><feBlend in="SourceGraphic" in2="effect1_dropShadow_31037495" result="shape"/></filter><filter id="q" x="350.438" y="150.188" width="8.656" height="6.219" filterUnits="userSpaceOnUse" color-interpolation-filters="sRGB"><feFlood flood-opacity="0" result="BackgroundImageFix"/><feColorMatrix in="SourceAlpha" values="0 0 0 0 0 0 0 0 0 0 0 0 0 0 0 0 0 0 127 0" result="hardAlpha"/><feOffset dx=".313" dy=".313"/><feGaussianBlur stdDeviation=".078"/><feColorMatrix values="0 0 0 0 0 0 0 0 0 0 0 0 0 0 0 0 0 0 0.25 0"/><feBlend in2="BackgroundImageFix" result="effect1_dropShadow_31037495"/><feBlend in="SourceGraphic" in2="effect1_dropShadow_31037495" result="shape"/></filter><filter id="s" x="360.375" y="148.938" width="8.656" height="6.219" filterUnits="userSpaceOnUse" color-interpolation-filters="sRGB"><feFlood flood-opacity="0" result="BackgroundImageFix"/><feColorMatrix in="SourceAlpha" values="0 0 0 0 0 0 0 0 0 0 0 0 0 0 0 0 0 0 127 0" result="hardAlpha"/><feOffset dx=".313" dy=".313"/><feGaussianBlur stdDeviation=".078"/><feColorMatrix values="0 0 0 0 0 0 0 0 0 0 0 0 0 0 0 0 0 0 0.25 0"/><feBlend in2="BackgroundImageFix" result="effect1_dropShadow_31037495"/><feBlend in="SourceGraphic" in2="effect1_dropShadow_31037495" result="shape"/></filter><filter id="u" x="362.312" y="135.25" width="8.656" height="6.219" filterUnits="userSpaceOnUse" color-interpolation-filters="sRGB"><feFlood flood-opacity="0" result="BackgroundImageFix"/><feColorMatrix in="SourceAlpha" values="0 0 0 0 0 0 0 0 0 0 0 0 0 0 0 0 0 0 127 0" result="hardAlpha"/><feOffset dx=".313" dy=".313"/><feGaussianBlur stdDeviation=".078"/><feColorMatrix values="0 0 0 0 0 0 0 0 0 0 0 0 0 0 0 0 0 0 0.25 0"/><feBlend in2="BackgroundImageFix" result="effect1_dropShadow_31037495"/><feBlend in="SourceGraphic" in2="effect1_dropShadow_31037495" result="shape"/></filter><filter id="w" x="324.323" y="162.896" width="65.861" height="40.537" filterUnits="userSpaceOnUse" color-interpolation-filters="sRGB"><feFlood flood-opacity="0" result="BackgroundImageFix"/><feColorMatrix in="SourceAlpha" values="0 0 0 0 0 0 0 0 0 0 0 0 0 0 0 0 0 0 127 0" result="hardAlpha"/><feOffset dx=".603" dy=".603"/><feGaussianBlur stdDeviation=".603"/><feColorMatrix values="0 0 0 0 0 0 0 0 0 0 0 0 0 0 0 0 0 0 0.25 0"/><feBlend in2="BackgroundImageFix" result="effect1_dropShadow_31037495"/><feBlend in="SourceGraphic" in2="effect1_dropShadow_31037495" result="shape"/></filter><clipPath id="e"><rect x="275" y="114" width="128" height="128" rx="64" fill="#fff"/></clipPath></defs></svg>