<svg width="1280" height="640" viewBox="0 0 1280 640" fill="none" xmlns="http://www.w3.org/2000/svg">
<g clip-path="url(#clip0_31037395)">
<rect width="1280" height="640" rx="40" fill="url(#paint0_linear_31037395)"/>
<path fill-rule="evenodd" clip-rule="evenodd" d="M-0.00390625 284.211L53.3294 304.685C106.663 325.158 213.329 366.106 319.996 386.579C426.663 407.053 533.329 407.053 639.996 359.281C746.663 311.509 853.329 215.966 959.996 195.492C1066.66 175.019 1173.33 229.615 1226.66 256.913L1280 284.211L1280 677.5H1226.67C1173.33 677.5 1066.67 677.5 960 677.5C853.333 677.5 746.667 677.5 640 677.5C533.333 677.5 426.667 677.5 320 677.5C213.333 677.5 106.667 677.5 53.3333 677.5H0L-0.00390625 284.211Z" fill="url(#paint1_linear_31037395)"/>
<rect width="1280" height="640" fill="black" fill-opacity="0.25"/>
<g filter="url(#filter0_bd_31037395)">
<rect x="78" y="78" width="1124" height="484" rx="40" fill="url(#paint2_linear_31037395)" fill-opacity="0.65" shape-rendering="crispEdges"/>
</g>
<path d="M261.5 167C261.5 131.654 290.154 103 325.5 103V103C360.846 103 389.5 131.654 389.5 167V167C389.5 202.346 360.846 231 325.5 231V231C290.154 231 261.5 202.346 261.5 167V167Z" fill="url(#paint3_linear_31037395)"/>
<rect x="295.688" y="137.188" width="59.625" height="59.625" rx="9.55529" stroke="white" stroke-width="7.60523"/>
<path d="M308.301 167L317.064 175.764C318.557 177.256 320.977 177.256 322.47 175.764L342.7 155.534" stroke="white" stroke-width="7.60523" stroke-linecap="round" stroke-linejoin="round"/>
<path d="M502.386 179.502C501.523 187.438 498.676 193.511 493.846 197.721C489.049 201.93 482.649 204.035 474.644 204.035C469.054 204.035 464.102 202.638 459.789 199.843C455.51 197.048 452.198 193.097 449.852 187.99C447.505 182.849 446.315 176.983 446.28 170.393V160.61C446.28 153.916 447.453 147.981 449.8 142.806C452.146 137.63 455.51 133.645 459.893 130.85C464.309 128.02 469.382 126.605 475.109 126.605C483.184 126.605 489.55 128.797 494.208 133.179C498.901 137.526 501.627 143.548 502.386 151.242H495.968C494.381 138.441 487.428 132.04 475.109 132.04C468.277 132.04 462.826 134.593 458.754 139.7C454.717 144.807 452.698 151.863 452.698 160.869V170.082C452.698 178.777 454.665 185.713 458.599 190.889C462.567 196.064 467.915 198.652 474.644 198.652C481.303 198.652 486.324 197.065 489.705 193.891C493.087 190.682 495.174 185.885 495.968 179.502H502.386ZM523.348 203H517.137V123.5H523.348V203ZM547.156 203H540.945V146.998H547.156V203ZM539.858 130.798C539.858 129.625 540.238 128.641 540.997 127.848C541.756 127.02 542.791 126.605 544.103 126.605C545.414 126.605 546.449 127.02 547.208 127.848C548.002 128.641 548.398 129.625 548.398 130.798C548.398 131.971 548.002 132.954 547.208 133.748C546.449 134.542 545.414 134.938 544.103 134.938C542.791 134.938 541.756 134.542 540.997 133.748C540.238 132.954 539.858 131.971 539.858 130.798ZM584.732 198.808C589.046 198.808 592.651 197.6 595.55 195.185C598.483 192.735 600.07 189.577 600.312 185.713H606.264C606.091 189.129 605.021 192.252 603.055 195.081C601.088 197.876 598.465 200.067 595.188 201.654C591.944 203.242 588.459 204.035 584.732 204.035C577.383 204.035 571.551 201.482 567.238 196.375C562.96 191.268 560.82 184.402 560.82 175.775V173.912C560.82 168.391 561.786 163.509 563.719 159.265C565.651 155.021 568.411 151.743 572 149.431C575.623 147.119 579.85 145.963 584.681 145.963C590.823 145.963 595.878 147.792 599.846 151.449C603.848 155.107 605.988 159.92 606.264 165.89H600.312C600.035 161.507 598.448 157.971 595.55 155.279C592.686 152.588 589.063 151.242 584.681 151.242C579.091 151.242 574.743 153.261 571.638 157.298C568.567 161.335 567.031 166.994 567.031 174.274V176.086C567.031 183.229 568.567 188.801 571.638 192.804C574.743 196.806 579.108 198.808 584.732 198.808ZM631.987 174.792L624.896 181.624V203H618.686V123.5H624.896V174.378L630.745 168.063L652.173 146.998H659.988L636.231 170.6L662.059 203H654.657L631.987 174.792ZM704.189 188.767C704.189 185.696 702.947 183.229 700.463 181.365C698.013 179.502 694.304 178.053 689.335 177.018C684.366 175.948 680.502 174.74 677.741 173.395C675.015 172.014 672.979 170.341 671.634 168.374C670.323 166.407 669.667 164.026 669.667 161.231C669.667 156.815 671.513 153.174 675.205 150.311C678.897 147.412 683.624 145.963 689.387 145.963C695.632 145.963 700.635 147.516 704.396 150.621C708.192 153.692 710.09 157.712 710.09 162.681H703.879C703.879 159.403 702.499 156.677 699.738 154.503C697.012 152.329 693.562 151.242 689.387 151.242C685.315 151.242 682.037 152.157 679.553 153.985C677.103 155.78 675.878 158.126 675.878 161.024C675.878 163.819 676.896 165.993 678.932 167.546C681.002 169.064 684.746 170.462 690.163 171.738C695.615 173.015 699.687 174.378 702.378 175.827C705.104 177.276 707.122 179.019 708.434 181.055C709.745 183.09 710.4 185.558 710.4 188.456C710.4 193.183 708.485 196.962 704.655 199.791C700.86 202.62 695.891 204.035 689.749 204.035C683.228 204.035 677.931 202.465 673.859 199.325C669.822 196.151 667.804 192.148 667.804 187.317H674.015C674.256 190.94 675.774 193.77 678.569 195.806C681.399 197.807 685.125 198.808 689.749 198.808C694.062 198.808 697.547 197.859 700.204 195.961C702.861 194.063 704.189 191.665 704.189 188.767ZM767.334 167.805H732.19V203H725.824V127.641H772.51V133.075H732.19V162.37H767.334V167.805ZM779.445 174.171C779.445 168.788 780.48 163.94 782.551 159.627C784.656 155.314 787.606 151.967 791.401 149.586C795.231 147.171 799.562 145.963 804.393 145.963C811.846 145.963 817.884 148.585 822.508 153.83C827.132 159.04 829.443 165.959 829.443 174.585V175.879C829.443 181.296 828.391 186.179 826.286 190.526C824.216 194.84 821.283 198.169 817.487 200.516C813.692 202.862 809.361 204.035 804.496 204.035C797.077 204.035 791.039 201.43 786.381 196.22C781.757 190.975 779.445 184.039 779.445 175.413V174.171ZM785.656 175.879C785.656 182.573 787.382 188.076 790.832 192.39C794.317 196.668 798.872 198.808 804.496 198.808C810.086 198.808 814.606 196.668 818.057 192.39C821.542 188.076 823.284 182.4 823.284 175.361V174.171C823.284 169.892 822.491 165.976 820.903 162.422C819.316 158.868 817.09 156.125 814.227 154.192C811.363 152.226 808.085 151.242 804.393 151.242C798.872 151.242 794.369 153.416 790.884 157.764C787.399 162.077 785.656 167.736 785.656 174.74V175.879ZM868.158 152.277C866.847 152.036 865.45 151.915 863.966 151.915C860.101 151.915 856.823 153.002 854.132 155.176C851.475 157.315 849.577 160.438 848.438 164.544V203H842.279V146.998H848.335L848.438 155.9C851.716 149.275 856.979 145.963 864.225 145.963C865.95 145.963 867.313 146.187 868.313 146.636L868.158 152.277ZM883.634 146.998L883.841 156.107C885.911 152.726 888.499 150.19 891.604 148.499C894.71 146.808 898.16 145.963 901.956 145.963C910.789 145.963 916.396 149.586 918.777 156.832C920.779 153.347 923.453 150.673 926.8 148.81C930.147 146.912 933.839 145.963 937.876 145.963C949.884 145.963 956.008 152.519 956.25 165.631V203H950.039V166.097C950.005 161.093 948.918 157.384 946.778 154.969C944.674 152.553 941.223 151.346 936.427 151.346C931.976 151.415 928.215 152.864 925.144 155.693C922.073 158.488 920.365 161.904 920.02 165.941V203H913.809V165.631C913.774 160.835 912.635 157.263 910.393 154.917C908.184 152.536 904.768 151.346 900.145 151.346C896.245 151.346 892.898 152.467 890.104 154.71C887.309 156.918 885.238 160.214 883.893 164.596V203H877.682V146.998H883.634ZM1005.52 188.767C1005.52 185.696 1004.28 183.229 1001.8 181.365C999.347 179.502 995.638 178.053 990.669 177.018C985.7 175.948 981.836 174.74 979.075 173.395C976.349 172.014 974.313 170.341 972.968 168.374C971.657 166.407 971.001 164.026 971.001 161.231C971.001 156.815 972.847 153.174 976.539 150.311C980.231 147.412 984.958 145.963 990.721 145.963C996.966 145.963 1001.97 147.516 1005.73 150.621C1009.53 153.692 1011.42 157.712 1011.42 162.681H1005.21C1005.21 159.403 1003.83 156.677 1001.07 154.503C998.346 152.329 994.896 151.242 990.721 151.242C986.649 151.242 983.371 152.157 980.887 153.985C978.437 155.78 977.212 158.126 977.212 161.024C977.212 163.819 978.23 165.993 980.266 167.546C982.336 169.064 986.08 170.462 991.497 171.738C996.949 173.015 1001.02 174.378 1003.71 175.827C1006.44 177.276 1008.46 179.019 1009.77 181.055C1011.08 183.09 1011.73 185.558 1011.73 188.456C1011.73 193.183 1009.82 196.962 1005.99 199.791C1002.19 202.62 997.225 204.035 991.083 204.035C984.562 204.035 979.265 202.465 975.193 199.325C971.156 196.151 969.138 192.148 969.138 187.317H975.349C975.59 190.94 977.108 193.77 979.903 195.806C982.733 197.807 986.459 198.808 991.083 198.808C995.396 198.808 998.881 197.859 1001.54 195.961C1004.19 194.063 1005.52 191.665 1005.52 188.767Z" fill="white"/>
<path d="M313.938 313.916C313.531 317.66 312.188 320.524 309.909 322.51C307.647 324.495 304.628 325.488 300.852 325.488C298.215 325.488 295.879 324.829 293.845 323.511C291.826 322.192 290.264 320.329 289.157 317.92C288.05 315.495 287.489 312.728 287.473 309.619V305.005C287.473 301.847 288.026 299.048 289.133 296.606C290.24 294.165 291.826 292.285 293.894 290.967C295.977 289.632 298.369 288.965 301.071 288.965C304.88 288.965 307.883 289.998 310.08 292.065C312.294 294.116 313.579 296.956 313.938 300.586H310.91C310.161 294.548 306.882 291.528 301.071 291.528C297.849 291.528 295.277 292.733 293.356 295.142C291.452 297.55 290.5 300.879 290.5 305.127V309.473C290.5 313.574 291.428 316.846 293.283 319.287C295.155 321.729 297.678 322.949 300.852 322.949C303.993 322.949 306.361 322.201 307.956 320.703C309.551 319.189 310.536 316.927 310.91 313.916H313.938ZM332.761 301.074C332.142 300.96 331.483 300.903 330.783 300.903C328.96 300.903 327.414 301.416 326.145 302.441C324.891 303.451 323.996 304.924 323.459 306.86V325H320.554V298.584H323.41L323.459 302.783C325.005 299.658 327.487 298.096 330.905 298.096C331.719 298.096 332.362 298.201 332.834 298.413L332.761 301.074ZM347.141 325.488C344.895 325.488 342.86 324.935 341.037 323.828C339.23 322.721 337.823 321.183 336.813 319.214C335.804 317.228 335.3 315.007 335.3 312.549V311.499C335.3 308.96 335.788 306.673 336.765 304.639C337.757 302.604 339.133 301.009 340.891 299.854C342.648 298.682 344.553 298.096 346.604 298.096C349.81 298.096 352.349 299.194 354.221 301.392C356.109 303.573 357.053 306.559 357.053 310.352V311.987H338.205V312.549C338.205 315.544 339.06 318.042 340.769 320.044C342.494 322.03 344.659 323.022 347.263 323.022C348.825 323.022 350.201 322.738 351.389 322.168C352.593 321.598 353.684 320.687 354.66 319.434L356.491 320.825C354.343 323.934 351.226 325.488 347.141 325.488ZM346.604 300.586C344.406 300.586 342.551 301.392 341.037 303.003C339.54 304.614 338.628 306.779 338.303 309.497H354.147V309.18C354.066 306.641 353.342 304.574 351.975 302.979C350.607 301.383 348.817 300.586 346.604 300.586ZM379.416 325C379.123 324.17 378.936 322.941 378.854 321.313C377.829 322.648 376.519 323.682 374.924 324.414C373.345 325.13 371.669 325.488 369.895 325.488C367.355 325.488 365.297 324.78 363.718 323.364C362.155 321.948 361.374 320.158 361.374 317.993C361.374 315.422 362.44 313.387 364.572 311.89C366.721 310.392 369.707 309.644 373.532 309.644H378.83V306.641C378.83 304.753 378.244 303.271 377.072 302.197C375.917 301.107 374.224 300.562 371.994 300.562C369.96 300.562 368.275 301.082 366.94 302.124C365.606 303.166 364.938 304.419 364.938 305.884L362.009 305.859C362.009 303.76 362.985 301.945 364.938 300.415C366.892 298.869 369.292 298.096 372.141 298.096C375.087 298.096 377.406 298.836 379.099 300.317C380.808 301.782 381.687 303.833 381.735 306.47V318.97C381.735 321.525 382.004 323.438 382.541 324.707V325H379.416ZM370.236 322.9C372.189 322.9 373.931 322.428 375.461 321.484C377.007 320.54 378.13 319.279 378.83 317.7V311.89H373.605C370.692 311.922 368.413 312.459 366.77 313.501C365.126 314.526 364.304 315.942 364.304 317.749C364.304 319.23 364.849 320.459 365.939 321.436C367.046 322.412 368.479 322.9 370.236 322.9ZM394.089 291.821V298.584H399.558V300.977H394.089V318.579C394.089 320.044 394.349 321.134 394.87 321.851C395.407 322.567 396.294 322.925 397.531 322.925C398.02 322.925 398.809 322.843 399.899 322.681L400.021 325.073C399.257 325.35 398.215 325.488 396.896 325.488C394.895 325.488 393.438 324.91 392.526 323.755C391.615 322.583 391.159 320.866 391.159 318.604V300.977H386.301V298.584H391.159V291.821H394.089ZM415.842 325.488C413.596 325.488 411.561 324.935 409.738 323.828C407.932 322.721 406.524 321.183 405.515 319.214C404.506 317.228 404.001 315.007 404.001 312.549V311.499C404.001 308.96 404.489 306.673 405.466 304.639C406.459 302.604 407.834 301.009 409.592 299.854C411.35 298.682 413.254 298.096 415.305 298.096C418.511 298.096 421.05 299.194 422.922 301.392C424.81 303.573 425.754 306.559 425.754 310.352V311.987H406.906V312.549C406.906 315.544 407.761 318.042 409.47 320.044C411.195 322.03 413.36 323.022 415.964 323.022C417.526 323.022 418.902 322.738 420.09 322.168C421.294 321.598 422.385 320.687 423.361 319.434L425.192 320.825C423.044 323.934 419.927 325.488 415.842 325.488ZM415.305 300.586C413.107 300.586 411.252 301.392 409.738 303.003C408.241 304.614 407.329 306.779 407.004 309.497H422.849V309.18C422.767 306.641 422.043 304.574 420.676 302.979C419.309 301.383 417.518 300.586 415.305 300.586ZM453.366 323.022C455.401 323.022 457.102 322.453 458.469 321.313C459.852 320.158 460.601 318.669 460.715 316.846H463.522C463.441 318.457 462.937 319.93 462.009 321.265C461.081 322.583 459.844 323.617 458.298 324.365C456.768 325.114 455.124 325.488 453.366 325.488C449.899 325.488 447.149 324.284 445.114 321.875C443.096 319.466 442.087 316.227 442.087 312.158V311.279C442.087 308.675 442.543 306.372 443.454 304.37C444.366 302.368 445.668 300.822 447.36 299.731C449.069 298.641 451.063 298.096 453.342 298.096C456.239 298.096 458.623 298.958 460.495 300.684C462.383 302.409 463.392 304.679 463.522 307.495H460.715C460.585 305.428 459.836 303.76 458.469 302.49C457.118 301.221 455.409 300.586 453.342 300.586C450.705 300.586 448.654 301.538 447.189 303.442C445.741 305.347 445.017 308.016 445.017 311.45V312.305C445.017 315.674 445.741 318.302 447.189 320.19C448.654 322.078 450.713 323.022 453.366 323.022ZM486.374 321.655C484.616 324.211 481.809 325.488 477.951 325.488C475.135 325.488 472.995 324.674 471.53 323.047C470.065 321.403 469.317 318.978 469.284 315.771V298.584H472.189V315.405C472.189 320.435 474.224 322.949 478.293 322.949C482.525 322.949 485.202 321.2 486.325 317.7V298.584H489.255V325H486.423L486.374 321.655ZM512.692 318.286C512.692 316.838 512.106 315.674 510.935 314.795C509.779 313.916 508.029 313.232 505.686 312.744C503.342 312.24 501.519 311.67 500.217 311.035C498.931 310.384 497.971 309.595 497.336 308.667C496.717 307.739 496.408 306.616 496.408 305.298C496.408 303.215 497.279 301.497 499.021 300.146C500.762 298.779 502.992 298.096 505.71 298.096C508.656 298.096 511.016 298.828 512.79 300.293C514.58 301.742 515.476 303.638 515.476 305.981H512.546C512.546 304.435 511.895 303.149 510.593 302.124C509.307 301.099 507.679 300.586 505.71 300.586C503.789 300.586 502.243 301.017 501.071 301.88C499.916 302.726 499.338 303.833 499.338 305.2C499.338 306.519 499.818 307.544 500.778 308.276C501.755 308.993 503.521 309.652 506.076 310.254C508.648 310.856 510.568 311.499 511.838 312.183C513.124 312.866 514.076 313.688 514.694 314.648C515.313 315.609 515.622 316.772 515.622 318.14C515.622 320.369 514.719 322.152 512.912 323.486C511.122 324.821 508.778 325.488 505.881 325.488C502.805 325.488 500.306 324.748 498.386 323.267C496.481 321.769 495.529 319.881 495.529 317.603H498.459C498.573 319.312 499.289 320.646 500.607 321.606C501.942 322.55 503.7 323.022 505.881 323.022C507.915 323.022 509.559 322.575 510.812 321.68C512.066 320.785 512.692 319.653 512.692 318.286ZM526.755 291.821V298.584H532.224V300.977H526.755V318.579C526.755 320.044 527.015 321.134 527.536 321.851C528.073 322.567 528.96 322.925 530.197 322.925C530.686 322.925 531.475 322.843 532.565 322.681L532.688 325.073C531.923 325.35 530.881 325.488 529.562 325.488C527.561 325.488 526.104 324.91 525.192 323.755C524.281 322.583 523.825 320.866 523.825 318.604V300.977H518.967V298.584H523.825V291.821H526.755ZM536.179 311.401C536.179 308.862 536.667 306.576 537.644 304.541C538.636 302.507 540.028 300.928 541.818 299.805C543.625 298.665 545.668 298.096 547.946 298.096C551.462 298.096 554.31 299.333 556.491 301.807C558.672 304.264 559.763 307.528 559.763 311.597V312.207C559.763 314.762 559.266 317.065 558.273 319.116C557.297 321.151 555.913 322.721 554.123 323.828C552.333 324.935 550.29 325.488 547.995 325.488C544.496 325.488 541.647 324.259 539.45 321.802C537.269 319.328 536.179 316.056 536.179 311.987V311.401ZM539.108 312.207C539.108 315.365 539.922 317.961 541.55 319.995C543.194 322.013 545.342 323.022 547.995 323.022C550.632 323.022 552.764 322.013 554.392 319.995C556.035 317.961 556.857 315.283 556.857 311.963V311.401C556.857 309.383 556.483 307.536 555.734 305.859C554.986 304.183 553.936 302.889 552.585 301.978C551.234 301.05 549.688 300.586 547.946 300.586C545.342 300.586 543.218 301.611 541.574 303.662C539.93 305.697 539.108 308.366 539.108 311.67V312.207ZM568.479 298.584L568.576 302.881C569.553 301.286 570.773 300.09 572.238 299.292C573.703 298.494 575.331 298.096 577.121 298.096C581.288 298.096 583.933 299.805 585.056 303.223C586 301.579 587.261 300.317 588.84 299.438C590.419 298.543 592.16 298.096 594.064 298.096C599.729 298.096 602.618 301.188 602.731 307.373V325H599.802V307.593C599.785 305.233 599.273 303.483 598.264 302.344C597.271 301.204 595.643 300.635 593.381 300.635C591.281 300.667 589.507 301.351 588.059 302.686C586.61 304.004 585.804 305.615 585.642 307.52V325H582.712V307.373C582.696 305.111 582.159 303.426 581.101 302.319C580.059 301.196 578.448 300.635 576.267 300.635C574.427 300.635 572.849 301.164 571.53 302.222C570.212 303.263 569.235 304.818 568.601 306.885V325H565.671V298.584H568.479ZM624.411 325V300.977H620.041V298.584H624.411V295.386C624.411 292.684 625.095 290.609 626.462 289.16C627.845 287.712 629.766 286.987 632.224 286.987C633.33 286.987 634.364 287.126 635.324 287.402L635.104 289.844C634.291 289.648 633.404 289.551 632.443 289.551C630.832 289.551 629.579 290.055 628.684 291.064C627.788 292.057 627.341 293.473 627.341 295.312V298.584H633.64V300.977H627.341V325H624.411ZM637.253 311.401C637.253 308.862 637.741 306.576 638.718 304.541C639.711 302.507 641.102 300.928 642.893 299.805C644.699 298.665 646.742 298.096 649.021 298.096C652.536 298.096 655.384 299.333 657.565 301.807C659.746 304.264 660.837 307.528 660.837 311.597V312.207C660.837 314.762 660.34 317.065 659.348 319.116C658.371 321.151 656.988 322.721 655.197 323.828C653.407 324.935 651.364 325.488 649.069 325.488C645.57 325.488 642.722 324.259 640.524 321.802C638.343 319.328 637.253 316.056 637.253 311.987V311.401ZM640.183 312.207C640.183 315.365 640.996 317.961 642.624 319.995C644.268 322.013 646.416 323.022 649.069 323.022C651.706 323.022 653.838 322.013 655.466 319.995C657.11 317.961 657.932 315.283 657.932 311.963V311.401C657.932 309.383 657.557 307.536 656.809 305.859C656.06 304.183 655.01 302.889 653.659 301.978C652.308 301.05 650.762 300.586 649.021 300.586C646.416 300.586 644.292 301.611 642.648 303.662C641.005 305.697 640.183 308.366 640.183 311.67V312.207ZM679.099 301.074C678.48 300.96 677.821 300.903 677.121 300.903C675.298 300.903 673.752 301.416 672.482 302.441C671.229 303.451 670.334 304.924 669.797 306.86V325H666.892V298.584H669.748L669.797 302.783C671.343 299.658 673.825 298.096 677.243 298.096C678.057 298.096 678.7 298.201 679.172 298.413L679.099 301.074ZM686.398 298.584L686.496 302.881C687.473 301.286 688.693 300.09 690.158 299.292C691.623 298.494 693.251 298.096 695.041 298.096C699.208 298.096 701.853 299.805 702.976 303.223C703.92 301.579 705.181 300.317 706.76 299.438C708.339 298.543 710.08 298.096 711.984 298.096C717.648 298.096 720.537 301.188 720.651 307.373V325H717.722V307.593C717.705 305.233 717.193 303.483 716.184 302.344C715.191 301.204 713.563 300.635 711.301 300.635C709.201 300.667 707.427 301.351 705.979 302.686C704.53 304.004 703.724 305.615 703.562 307.52V325H700.632V307.373C700.616 305.111 700.078 303.426 699.021 302.319C697.979 301.196 696.368 300.635 694.187 300.635C692.347 300.635 690.769 301.164 689.45 302.222C688.132 303.263 687.155 304.818 686.521 306.885V325H683.591V298.584H686.398ZM743.894 318.286C743.894 316.838 743.308 315.674 742.136 314.795C740.98 313.916 739.23 313.232 736.887 312.744C734.543 312.24 732.72 311.67 731.418 311.035C730.132 310.384 729.172 309.595 728.537 308.667C727.919 307.739 727.609 306.616 727.609 305.298C727.609 303.215 728.48 301.497 730.222 300.146C731.963 298.779 734.193 298.096 736.911 298.096C739.857 298.096 742.217 298.828 743.991 300.293C745.782 301.742 746.677 303.638 746.677 305.981H743.747C743.747 304.435 743.096 303.149 741.794 302.124C740.508 301.099 738.881 300.586 736.911 300.586C734.991 300.586 733.444 301.017 732.272 301.88C731.117 302.726 730.539 303.833 730.539 305.2C730.539 306.519 731.019 307.544 731.979 308.276C732.956 308.993 734.722 309.652 737.277 310.254C739.849 310.856 741.77 311.499 743.039 312.183C744.325 312.866 745.277 313.688 745.896 314.648C746.514 315.609 746.823 316.772 746.823 318.14C746.823 320.369 745.92 322.152 744.113 323.486C742.323 324.821 739.979 325.488 737.082 325.488C734.006 325.488 731.507 324.748 729.587 323.267C727.683 321.769 726.73 319.881 726.73 317.603H729.66C729.774 319.312 730.49 320.646 731.809 321.606C733.143 322.55 734.901 323.022 737.082 323.022C739.117 323.022 740.76 322.575 742.014 321.68C743.267 320.785 743.894 319.653 743.894 318.286ZM763.962 311.401C763.962 308.862 764.45 306.576 765.427 304.541C766.42 302.507 767.811 300.928 769.602 299.805C771.408 298.665 773.451 298.096 775.729 298.096C779.245 298.096 782.093 299.333 784.274 301.807C786.455 304.264 787.546 307.528 787.546 311.597V312.207C787.546 314.762 787.049 317.065 786.057 319.116C785.08 321.151 783.697 322.721 781.906 323.828C780.116 324.935 778.073 325.488 775.778 325.488C772.279 325.488 769.431 324.259 767.233 321.802C765.052 319.328 763.962 316.056 763.962 311.987V311.401ZM766.892 312.207C766.892 315.365 767.705 317.961 769.333 319.995C770.977 322.013 773.125 323.022 775.778 323.022C778.415 323.022 780.547 322.013 782.175 319.995C783.819 317.961 784.641 315.283 784.641 311.963V311.401C784.641 309.383 784.266 307.536 783.518 305.859C782.769 304.183 781.719 302.889 780.368 301.978C779.017 301.05 777.471 300.586 775.729 300.586C773.125 300.586 771.001 301.611 769.357 303.662C767.714 305.697 766.892 308.366 766.892 311.67V312.207ZM796.384 298.584L796.481 303.101C797.474 301.473 798.711 300.236 800.192 299.39C801.674 298.527 803.309 298.096 805.1 298.096C807.932 298.096 810.039 298.893 811.423 300.488C812.806 302.083 813.506 304.476 813.522 307.666V325H810.617V307.642C810.601 305.282 810.096 303.524 809.104 302.368C808.127 301.213 806.556 300.635 804.392 300.635C802.585 300.635 800.982 301.204 799.582 302.344C798.199 303.467 797.173 304.989 796.506 306.909V325H793.601V298.584H796.384ZM833.933 325V289.453H843.869C846.783 289.453 849.395 290.12 851.706 291.455C854.017 292.773 855.816 294.67 857.102 297.144C858.404 299.618 859.055 302.433 859.055 305.591V308.862C859.055 312.036 858.412 314.852 857.126 317.31C855.84 319.767 854.025 321.663 851.682 322.998C849.354 324.333 846.677 325 843.649 325H833.933ZM836.936 292.017V322.461H843.674C847.417 322.461 850.42 321.224 852.683 318.75C854.945 316.26 856.076 312.899 856.076 308.667V305.542C856.076 301.457 854.961 298.185 852.731 295.728C850.502 293.27 847.564 292.033 843.918 292.017H836.936ZM869.284 325H866.354V298.584H869.284V325ZM865.842 290.942C865.842 290.389 866.021 289.925 866.379 289.551C866.737 289.16 867.225 288.965 867.844 288.965C868.462 288.965 868.951 289.16 869.309 289.551C869.683 289.925 869.87 290.389 869.87 290.942C869.87 291.496 869.683 291.96 869.309 292.334C868.951 292.708 868.462 292.896 867.844 292.896C867.225 292.896 866.737 292.708 866.379 292.334C866.021 291.96 865.842 291.496 865.842 290.942ZM893.063 318.286C893.063 316.838 892.478 315.674 891.306 314.795C890.15 313.916 888.4 313.232 886.057 312.744C883.713 312.24 881.89 311.67 880.588 311.035C879.302 310.384 878.342 309.595 877.707 308.667C877.089 307.739 876.779 306.616 876.779 305.298C876.779 303.215 877.65 301.497 879.392 300.146C881.133 298.779 883.363 298.096 886.081 298.096C889.027 298.096 891.387 298.828 893.161 300.293C894.951 301.742 895.847 303.638 895.847 305.981H892.917C892.917 304.435 892.266 303.149 890.964 302.124C889.678 301.099 888.05 300.586 886.081 300.586C884.16 300.586 882.614 301.017 881.442 301.88C880.287 302.726 879.709 303.833 879.709 305.2C879.709 306.519 880.189 307.544 881.149 308.276C882.126 308.993 883.892 309.652 886.447 310.254C889.019 310.856 890.939 311.499 892.209 312.183C893.495 312.866 894.447 313.688 895.065 314.648C895.684 315.609 895.993 316.772 895.993 318.14C895.993 320.369 895.09 322.152 893.283 323.486C891.493 324.821 889.149 325.488 886.252 325.488C883.176 325.488 880.677 324.748 878.757 323.267C876.853 321.769 875.9 319.881 875.9 317.603H878.83C878.944 319.312 879.66 320.646 880.979 321.606C882.313 322.55 884.071 323.022 886.252 323.022C888.286 323.022 889.93 322.575 891.184 321.68C892.437 320.785 893.063 319.653 893.063 318.286ZM912.351 323.022C914.385 323.022 916.086 322.453 917.453 321.313C918.837 320.158 919.585 318.669 919.699 316.846H922.507C922.425 318.457 921.921 319.93 920.993 321.265C920.065 322.583 918.828 323.617 917.282 324.365C915.752 325.114 914.108 325.488 912.351 325.488C908.884 325.488 906.133 324.284 904.099 321.875C902.08 319.466 901.071 316.227 901.071 312.158V311.279C901.071 308.675 901.527 306.372 902.438 304.37C903.35 302.368 904.652 300.822 906.345 299.731C908.054 298.641 910.048 298.096 912.326 298.096C915.223 298.096 917.608 298.958 919.479 300.684C921.368 302.409 922.377 304.679 922.507 307.495H919.699C919.569 305.428 918.82 303.76 917.453 302.49C916.102 301.221 914.393 300.586 912.326 300.586C909.689 300.586 907.639 301.538 906.174 303.442C904.725 305.347 904.001 308.016 904.001 311.45V312.305C904.001 315.674 904.725 318.302 906.174 320.19C907.639 322.078 909.698 323.022 912.351 323.022ZM926.755 311.401C926.755 308.862 927.243 306.576 928.22 304.541C929.213 302.507 930.604 300.928 932.395 299.805C934.201 298.665 936.244 298.096 938.522 298.096C942.038 298.096 944.886 299.333 947.067 301.807C949.248 304.264 950.339 307.528 950.339 311.597V312.207C950.339 314.762 949.842 317.065 948.85 319.116C947.873 321.151 946.49 322.721 944.699 323.828C942.909 324.935 940.866 325.488 938.571 325.488C935.072 325.488 932.224 324.259 930.026 321.802C927.845 319.328 926.755 316.056 926.755 311.987V311.401ZM929.685 312.207C929.685 315.365 930.498 317.961 932.126 319.995C933.77 322.013 935.918 323.022 938.571 323.022C941.208 323.022 943.34 322.013 944.968 319.995C946.612 317.961 947.434 315.283 947.434 311.963V311.401C947.434 309.383 947.059 307.536 946.311 305.859C945.562 304.183 944.512 302.889 943.161 301.978C941.81 301.05 940.264 300.586 938.522 300.586C935.918 300.586 933.794 301.611 932.15 303.662C930.507 305.697 929.685 308.366 929.685 311.67V312.207ZM968.601 301.074C967.982 300.96 967.323 300.903 966.623 300.903C964.8 300.903 963.254 301.416 961.984 302.441C960.731 303.451 959.836 304.924 959.299 306.86V325H956.394V298.584H959.25L959.299 302.783C960.845 299.658 963.327 298.096 966.745 298.096C967.559 298.096 968.202 298.201 968.674 298.413L968.601 301.074ZM971.579 311.548C971.579 307.446 972.491 304.183 974.313 301.758C976.153 299.316 978.643 298.096 981.784 298.096C985.349 298.096 988.067 299.504 989.938 302.319V287.5H992.844V325H990.109L989.987 321.484C988.116 324.154 985.365 325.488 981.735 325.488C978.692 325.488 976.234 324.268 974.362 321.826C972.507 319.368 971.579 316.056 971.579 311.89V311.548ZM974.533 312.061C974.533 315.43 975.209 318.091 976.56 320.044C977.91 321.981 979.815 322.949 982.272 322.949C985.869 322.949 988.425 321.362 989.938 318.188V305.786C988.425 302.352 985.886 300.635 982.321 300.635C979.864 300.635 977.951 301.603 976.584 303.54C975.217 305.461 974.533 308.301 974.533 312.061Z" fill="white"/>
<path d="M873 529V506.25H879.719C882.156 506.25 884.005 506.755 885.266 507.766C886.526 508.766 887.156 510.245 887.156 512.203C887.156 513.38 886.833 514.406 886.188 515.281C885.552 516.146 884.677 516.766 883.562 517.141C884.885 517.432 885.948 518.083 886.75 519.094C887.562 520.104 887.969 521.271 887.969 522.594C887.969 524.604 887.318 526.177 886.016 527.312C884.724 528.438 882.922 529 880.609 529H873ZM874.922 518.062V527.375H880.688C882.333 527.375 883.635 526.958 884.594 526.125C885.562 525.281 886.047 524.115 886.047 522.625C886.047 521.219 885.583 520.109 884.656 519.297C883.74 518.474 882.469 518.062 880.844 518.062H874.922ZM874.922 516.453H880.172C881.776 516.422 883.016 516.047 883.891 515.328C884.776 514.599 885.219 513.542 885.219 512.156C885.219 510.698 884.76 509.625 883.844 508.938C882.938 508.24 881.562 507.891 879.719 507.891H874.922V516.453ZM897.547 526.312L902.484 512.094H904.5L897.281 531.875L896.906 532.75C895.979 534.802 894.547 535.828 892.609 535.828C892.161 535.828 891.682 535.755 891.172 535.609L891.156 534.062L892.125 534.156C893.042 534.156 893.781 533.927 894.344 533.469C894.917 533.021 895.401 532.245 895.797 531.141L896.625 528.859L890.25 512.094H892.297L897.547 526.312ZM931.734 521.906C931.474 524.302 930.615 526.135 929.156 527.406C927.708 528.677 925.776 529.312 923.359 529.312C921.672 529.312 920.177 528.891 918.875 528.047C917.583 527.203 916.583 526.01 915.875 524.469C915.167 522.917 914.807 521.146 914.797 519.156V516.203C914.797 514.182 915.151 512.391 915.859 510.828C916.568 509.266 917.583 508.062 918.906 507.219C920.24 506.365 921.771 505.938 923.5 505.938C925.938 505.938 927.859 506.599 929.266 507.922C930.682 509.234 931.505 511.052 931.734 513.375H929.797C929.318 509.51 927.219 507.578 923.5 507.578C921.438 507.578 919.792 508.349 918.562 509.891C917.344 511.432 916.734 513.562 916.734 516.281V519.062C916.734 521.688 917.328 523.781 918.516 525.344C919.714 526.906 921.328 527.688 923.359 527.688C925.37 527.688 926.885 527.208 927.906 526.25C928.927 525.281 929.557 523.833 929.797 521.906H931.734ZM938.062 529H936.188V505H938.062V529ZM945.25 529H943.375V512.094H945.25V529ZM943.047 507.203C943.047 506.849 943.161 506.552 943.391 506.312C943.62 506.062 943.932 505.938 944.328 505.938C944.724 505.938 945.036 506.062 945.266 506.312C945.505 506.552 945.625 506.849 945.625 507.203C945.625 507.557 945.505 507.854 945.266 508.094C945.036 508.333 944.724 508.453 944.328 508.453C943.932 508.453 943.62 508.333 943.391 508.094C943.161 507.854 943.047 507.557 943.047 507.203ZM956.594 527.734C957.896 527.734 958.984 527.37 959.859 526.641C960.745 525.901 961.224 524.948 961.297 523.781H963.094C963.042 524.812 962.719 525.755 962.125 526.609C961.531 527.453 960.74 528.115 959.75 528.594C958.771 529.073 957.719 529.312 956.594 529.312C954.375 529.312 952.615 528.542 951.312 527C950.021 525.458 949.375 523.385 949.375 520.781V520.219C949.375 518.552 949.667 517.078 950.25 515.797C950.833 514.516 951.667 513.526 952.75 512.828C953.844 512.13 955.12 511.781 956.578 511.781C958.432 511.781 959.958 512.333 961.156 513.438C962.365 514.542 963.01 515.995 963.094 517.797H961.297C961.214 516.474 960.734 515.406 959.859 514.594C958.995 513.781 957.901 513.375 956.578 513.375C954.891 513.375 953.578 513.984 952.641 515.203C951.714 516.422 951.25 518.13 951.25 520.328V520.875C951.25 523.031 951.714 524.714 952.641 525.922C953.578 527.13 954.896 527.734 956.594 527.734ZM970.859 520.484L968.719 522.547V529H966.844V505H968.719V520.359L970.484 518.453L976.953 512.094H979.312L972.141 519.219L979.938 529H977.703L970.859 520.484ZM992.656 524.703C992.656 523.776 992.281 523.031 991.531 522.469C990.792 521.906 989.672 521.469 988.172 521.156C986.672 520.833 985.505 520.469 984.672 520.062C983.849 519.646 983.234 519.141 982.828 518.547C982.432 517.953 982.234 517.234 982.234 516.391C982.234 515.057 982.792 513.958 983.906 513.094C985.021 512.219 986.448 511.781 988.188 511.781C990.073 511.781 991.583 512.25 992.719 513.188C993.865 514.115 994.438 515.328 994.438 516.828H992.562C992.562 515.839 992.146 515.016 991.312 514.359C990.49 513.703 989.448 513.375 988.188 513.375C986.958 513.375 985.969 513.651 985.219 514.203C984.479 514.745 984.109 515.453 984.109 516.328C984.109 517.172 984.417 517.828 985.031 518.297C985.656 518.755 986.786 519.177 988.422 519.562C990.068 519.948 991.297 520.359 992.109 520.797C992.932 521.234 993.542 521.76 993.938 522.375C994.333 522.99 994.531 523.734 994.531 524.609C994.531 526.036 993.953 527.177 992.797 528.031C991.651 528.885 990.151 529.312 988.297 529.312C986.328 529.312 984.729 528.839 983.5 527.891C982.281 526.932 981.672 525.724 981.672 524.266H983.547C983.62 525.359 984.078 526.214 984.922 526.828C985.776 527.432 986.901 527.734 988.297 527.734C989.599 527.734 990.651 527.448 991.453 526.875C992.255 526.302 992.656 525.578 992.656 524.703ZM1001.73 506.25L1010.12 526.328L1018.55 506.25H1021.11V529H1019.19V519.094L1019.34 508.938L1010.88 529H1009.39L1000.95 509.016L1001.11 519.031V529H999.188V506.25H1001.73ZM1028.53 529H1026.66V512.094H1028.53V529ZM1026.33 507.203C1026.33 506.849 1026.44 506.552 1026.67 506.312C1026.9 506.062 1027.21 505.938 1027.61 505.938C1028.01 505.938 1028.32 506.062 1028.55 506.312C1028.79 506.552 1028.91 506.849 1028.91 507.203C1028.91 507.557 1028.79 507.854 1028.55 508.094C1028.32 508.333 1028.01 508.453 1027.61 508.453C1027.21 508.453 1026.9 508.333 1026.67 508.094C1026.44 507.854 1026.33 507.557 1026.33 507.203ZM1035.41 512.094L1035.47 514.984C1036.1 513.943 1036.9 513.151 1037.84 512.609C1038.79 512.057 1039.84 511.781 1040.98 511.781C1042.8 511.781 1044.15 512.292 1045.03 513.312C1045.92 514.333 1046.36 515.865 1046.38 517.906V529H1044.52V517.891C1044.51 516.38 1044.18 515.255 1043.55 514.516C1042.92 513.776 1041.92 513.406 1040.53 513.406C1039.38 513.406 1038.35 513.771 1037.45 514.5C1036.57 515.219 1035.91 516.193 1035.48 517.422V529H1033.62V512.094H1035.41ZM1062.09 526.859C1060.97 528.495 1059.17 529.312 1056.7 529.312C1054.9 529.312 1053.53 528.792 1052.59 527.75C1051.66 526.698 1051.18 525.146 1051.16 523.094V512.094H1053.02V522.859C1053.02 526.078 1054.32 527.688 1056.92 527.688C1059.63 527.688 1061.34 526.568 1062.06 524.328V512.094H1063.94V529H1062.12L1062.09 526.859ZM1071.72 507.766V512.094H1075.22V513.625H1071.72V524.891C1071.72 525.828 1071.89 526.526 1072.22 526.984C1072.56 527.443 1073.13 527.672 1073.92 527.672C1074.23 527.672 1074.74 527.62 1075.44 527.516L1075.52 529.047C1075.03 529.224 1074.36 529.312 1073.52 529.312C1072.23 529.312 1071.3 528.943 1070.72 528.203C1070.14 527.453 1069.84 526.354 1069.84 524.906V513.625H1066.73V512.094H1069.84V507.766H1071.72ZM1085.64 529.312C1084.2 529.312 1082.9 528.958 1081.73 528.25C1080.58 527.542 1079.68 526.557 1079.03 525.297C1078.39 524.026 1078.06 522.604 1078.06 521.031V520.359C1078.06 518.734 1078.38 517.271 1079 515.969C1079.64 514.667 1080.52 513.646 1081.64 512.906C1082.77 512.156 1083.98 511.781 1085.3 511.781C1087.35 511.781 1088.97 512.484 1090.17 513.891C1091.38 515.286 1091.98 517.198 1091.98 519.625V520.672H1079.92V521.031C1079.92 522.948 1080.47 524.547 1081.56 525.828C1082.67 527.099 1084.05 527.734 1085.72 527.734C1086.72 527.734 1087.6 527.552 1088.36 527.188C1089.13 526.823 1089.83 526.24 1090.45 525.438L1091.62 526.328C1090.25 528.318 1088.26 529.312 1085.64 529.312ZM1085.3 513.375C1083.89 513.375 1082.7 513.891 1081.73 514.922C1080.78 515.953 1080.19 517.339 1079.98 519.078H1090.12V518.875C1090.07 517.25 1089.61 515.927 1088.73 514.906C1087.86 513.885 1086.71 513.375 1085.3 513.375ZM1097.98 519.734V529H1096.06V506.25H1103.81C1106.18 506.25 1108.04 506.854 1109.41 508.062C1110.78 509.271 1111.47 510.932 1111.47 513.047C1111.47 515.182 1110.81 516.833 1109.48 518C1108.17 519.156 1106.27 519.734 1103.77 519.734H1097.98ZM1097.98 518.109H1103.81C1105.68 518.109 1107.1 517.667 1108.08 516.781C1109.06 515.896 1109.55 514.661 1109.55 513.078C1109.55 511.505 1109.06 510.255 1108.08 509.328C1107.11 508.391 1105.73 507.911 1103.94 507.891H1097.98V518.109ZM1121.67 529.312C1120.23 529.312 1118.93 528.958 1117.77 528.25C1116.61 527.542 1115.71 526.557 1115.06 525.297C1114.42 524.026 1114.09 522.604 1114.09 521.031V520.359C1114.09 518.734 1114.41 517.271 1115.03 515.969C1115.67 514.667 1116.55 513.646 1117.67 512.906C1118.8 512.156 1120.02 511.781 1121.33 511.781C1123.38 511.781 1125.01 512.484 1126.2 513.891C1127.41 515.286 1128.02 517.198 1128.02 519.625V520.672H1115.95V521.031C1115.95 522.948 1116.5 524.547 1117.59 525.828C1118.7 527.099 1120.08 527.734 1121.75 527.734C1122.75 527.734 1123.63 527.552 1124.39 527.188C1125.16 526.823 1125.86 526.24 1126.48 525.438L1127.66 526.328C1126.28 528.318 1124.29 529.312 1121.67 529.312ZM1121.33 513.375C1119.92 513.375 1118.73 513.891 1117.77 514.922C1116.81 515.953 1116.22 517.339 1116.02 519.078H1126.16V518.875C1126.1 517.25 1125.64 515.927 1124.77 514.906C1123.89 513.885 1122.74 513.375 1121.33 513.375ZM1139.47 513.688C1139.07 513.615 1138.65 513.578 1138.2 513.578C1137.04 513.578 1136.05 513.906 1135.23 514.562C1134.43 515.208 1133.86 516.151 1133.52 517.391V529H1131.66V512.094H1133.48L1133.52 514.781C1134.51 512.781 1136.09 511.781 1138.28 511.781C1138.8 511.781 1139.21 511.849 1139.52 511.984L1139.47 513.688Z" fill="white"/>
<path d="M144.797 519.734V529H142.875V506.25H150.625C152.99 506.25 154.854 506.854 156.219 508.062C157.594 509.271 158.281 510.932 158.281 513.047C158.281 515.182 157.62 516.833 156.297 518C154.984 519.156 153.078 519.734 150.578 519.734H144.797ZM144.797 518.109H150.625C152.49 518.109 153.911 517.667 154.891 516.781C155.87 515.896 156.359 514.661 156.359 513.078C156.359 511.505 155.87 510.255 154.891 509.328C153.922 508.391 152.542 507.911 150.75 507.891H144.797V518.109ZM169.969 513.688C169.573 513.615 169.151 513.578 168.703 513.578C167.536 513.578 166.547 513.906 165.734 514.562C164.932 515.208 164.359 516.151 164.016 517.391V529H162.156V512.094H163.984L164.016 514.781C165.005 512.781 166.594 511.781 168.781 511.781C169.302 511.781 169.714 511.849 170.016 511.984L169.969 513.688ZM171.594 520.297C171.594 518.672 171.906 517.208 172.531 515.906C173.167 514.604 174.057 513.594 175.203 512.875C176.359 512.146 177.667 511.781 179.125 511.781C181.375 511.781 183.198 512.573 184.594 514.156C185.99 515.729 186.688 517.818 186.688 520.422V520.812C186.688 522.448 186.37 523.922 185.734 525.234C185.109 526.536 184.224 527.542 183.078 528.25C181.932 528.958 180.625 529.312 179.156 529.312C176.917 529.312 175.094 528.526 173.688 526.953C172.292 525.37 171.594 523.276 171.594 520.672V520.297ZM173.469 520.812C173.469 522.833 173.99 524.495 175.031 525.797C176.083 527.089 177.458 527.734 179.156 527.734C180.844 527.734 182.208 527.089 183.25 525.797C184.302 524.495 184.828 522.781 184.828 520.656V520.297C184.828 519.005 184.589 517.823 184.109 516.75C183.63 515.677 182.958 514.849 182.094 514.266C181.229 513.672 180.24 513.375 179.125 513.375C177.458 513.375 176.099 514.031 175.047 515.344C173.995 516.646 173.469 518.354 173.469 520.469V520.812ZM189.812 520.391C189.812 517.745 190.396 515.651 191.562 514.109C192.74 512.557 194.333 511.781 196.344 511.781C198.646 511.781 200.396 512.698 201.594 514.531L201.688 512.094H203.438V528.656C203.438 530.833 202.828 532.557 201.609 533.828C200.391 535.099 198.74 535.734 196.656 535.734C195.479 535.734 194.354 535.469 193.281 534.938C192.219 534.417 191.38 533.719 190.766 532.844L191.812 531.719C193.135 533.344 194.708 534.156 196.531 534.156C198.094 534.156 199.312 533.693 200.188 532.766C201.062 531.849 201.516 530.573 201.547 528.938V526.812C200.349 528.479 198.604 529.312 196.312 529.312C194.354 529.312 192.781 528.531 191.594 526.969C190.406 525.406 189.812 523.297 189.812 520.641V520.391ZM191.703 520.719C191.703 522.875 192.135 524.578 193 525.828C193.865 527.068 195.083 527.688 196.656 527.688C198.958 527.688 200.589 526.656 201.547 524.594V516.734C201.109 515.651 200.479 514.828 199.656 514.266C198.833 513.693 197.844 513.406 196.688 513.406C195.115 513.406 193.891 514.026 193.016 515.266C192.141 516.495 191.703 518.312 191.703 520.719ZM216.125 513.688C215.729 513.615 215.307 513.578 214.859 513.578C213.693 513.578 212.703 513.906 211.891 514.562C211.089 515.208 210.516 516.151 210.172 517.391V529H208.312V512.094H210.141L210.172 514.781C211.161 512.781 212.75 511.781 214.938 511.781C215.458 511.781 215.87 511.849 216.172 511.984L216.125 513.688ZM229.141 529C228.953 528.469 228.833 527.682 228.781 526.641C228.125 527.495 227.286 528.156 226.266 528.625C225.255 529.083 224.182 529.312 223.047 529.312C221.422 529.312 220.104 528.859 219.094 527.953C218.094 527.047 217.594 525.901 217.594 524.516C217.594 522.87 218.276 521.568 219.641 520.609C221.016 519.651 222.927 519.172 225.375 519.172H228.766V517.25C228.766 516.042 228.391 515.094 227.641 514.406C226.901 513.708 225.818 513.359 224.391 513.359C223.089 513.359 222.01 513.693 221.156 514.359C220.302 515.026 219.875 515.828 219.875 516.766L218 516.75C218 515.406 218.625 514.245 219.875 513.266C221.125 512.276 222.661 511.781 224.484 511.781C226.37 511.781 227.854 512.255 228.938 513.203C230.031 514.141 230.594 515.453 230.625 517.141V525.141C230.625 526.776 230.797 528 231.141 528.812V529H229.141ZM223.266 527.656C224.516 527.656 225.63 527.354 226.609 526.75C227.599 526.146 228.318 525.339 228.766 524.328V520.609H225.422C223.557 520.63 222.099 520.974 221.047 521.641C219.995 522.297 219.469 523.203 219.469 524.359C219.469 525.307 219.818 526.094 220.516 526.719C221.224 527.344 222.141 527.656 223.266 527.656ZM237.328 512.094L237.391 514.844C238.016 513.823 238.797 513.057 239.734 512.547C240.672 512.036 241.714 511.781 242.859 511.781C245.526 511.781 247.219 512.875 247.938 515.062C248.542 514.01 249.349 513.203 250.359 512.641C251.37 512.068 252.484 511.781 253.703 511.781C257.328 511.781 259.177 513.76 259.25 517.719V529H257.375V517.859C257.365 516.349 257.036 515.229 256.391 514.5C255.755 513.771 254.714 513.406 253.266 513.406C251.922 513.427 250.786 513.865 249.859 514.719C248.932 515.562 248.417 516.594 248.312 517.812V529H246.438V517.719C246.427 516.271 246.083 515.193 245.406 514.484C244.74 513.766 243.708 513.406 242.312 513.406C241.135 513.406 240.125 513.745 239.281 514.422C238.438 515.089 237.812 516.083 237.406 517.406V529H235.531V512.094H237.328ZM265.703 512.094L265.766 514.844C266.391 513.823 267.172 513.057 268.109 512.547C269.047 512.036 270.089 511.781 271.234 511.781C273.901 511.781 275.594 512.875 276.312 515.062C276.917 514.01 277.724 513.203 278.734 512.641C279.745 512.068 280.859 511.781 282.078 511.781C285.703 511.781 287.552 513.76 287.625 517.719V529H285.75V517.859C285.74 516.349 285.411 515.229 284.766 514.5C284.13 513.771 283.089 513.406 281.641 513.406C280.297 513.427 279.161 513.865 278.234 514.719C277.307 515.562 276.792 516.594 276.688 517.812V529H274.812V517.719C274.802 516.271 274.458 515.193 273.781 514.484C273.115 513.766 272.083 513.406 270.688 513.406C269.51 513.406 268.5 513.745 267.656 514.422C266.812 515.089 266.188 516.083 265.781 517.406V529H263.906V512.094H265.703ZM298.922 529.312C297.484 529.312 296.182 528.958 295.016 528.25C293.859 527.542 292.958 526.557 292.312 525.297C291.667 524.026 291.344 522.604 291.344 521.031V520.359C291.344 518.734 291.656 517.271 292.281 515.969C292.917 514.667 293.797 513.646 294.922 512.906C296.047 512.156 297.266 511.781 298.578 511.781C300.63 511.781 302.255 512.484 303.453 513.891C304.661 515.286 305.266 517.198 305.266 519.625V520.672H293.203V521.031C293.203 522.948 293.75 524.547 294.844 525.828C295.948 527.099 297.333 527.734 299 527.734C300 527.734 300.88 527.552 301.641 527.188C302.411 526.823 303.109 526.24 303.734 525.438L304.906 526.328C303.531 528.318 301.536 529.312 298.922 529.312ZM298.578 513.375C297.172 513.375 295.984 513.891 295.016 514.922C294.057 515.953 293.474 517.339 293.266 519.078H303.406V518.875C303.354 517.25 302.891 515.927 302.016 514.906C301.141 513.885 299.995 513.375 298.578 513.375ZM308.156 520.391C308.156 517.766 308.74 515.677 309.906 514.125C311.083 512.562 312.677 511.781 314.688 511.781C316.969 511.781 318.708 512.682 319.906 514.484V505H321.766V529H320.016L319.938 526.75C318.74 528.458 316.979 529.312 314.656 529.312C312.708 529.312 311.135 528.531 309.938 526.969C308.75 525.396 308.156 523.276 308.156 520.609V520.391ZM310.047 520.719C310.047 522.875 310.479 524.578 311.344 525.828C312.208 527.068 313.427 527.688 315 527.688C317.302 527.688 318.938 526.672 319.906 524.641V516.703C318.938 514.505 317.312 513.406 315.031 513.406C313.458 513.406 312.234 514.026 311.359 515.266C310.484 516.495 310.047 518.312 310.047 520.719ZM348.078 520.719C348.078 523.354 347.495 525.448 346.328 527C345.161 528.542 343.594 529.312 341.625 529.312C339.271 529.312 337.49 528.438 336.281 526.688L336.203 529H334.453V505H336.312V514.547C337.5 512.703 339.26 511.781 341.594 511.781C343.594 511.781 345.172 512.547 346.328 514.078C347.495 515.599 348.078 517.719 348.078 520.438V520.719ZM346.203 520.391C346.203 518.161 345.771 516.443 344.906 515.234C344.042 514.016 342.823 513.406 341.25 513.406C340.052 513.406 339.036 513.703 338.203 514.297C337.37 514.88 336.74 515.74 336.312 516.875V524.5C337.25 526.625 338.906 527.688 341.281 527.688C342.823 527.688 344.026 527.078 344.891 525.859C345.766 524.641 346.203 522.818 346.203 520.391ZM357.391 526.312L362.328 512.094H364.344L357.125 531.875L356.75 532.75C355.823 534.802 354.391 535.828 352.453 535.828C352.005 535.828 351.526 535.755 351.016 535.609L351 534.062L351.969 534.156C352.885 534.156 353.625 533.927 354.188 533.469C354.76 533.021 355.245 532.245 355.641 531.141L356.469 528.859L350.094 512.094H352.141L357.391 526.312ZM366.797 527.875C366.797 527.51 366.911 527.203 367.141 526.953C367.38 526.693 367.708 526.562 368.125 526.562C368.542 526.562 368.87 526.693 369.109 526.953C369.349 527.203 369.469 527.51 369.469 527.875C369.469 528.24 369.349 528.542 369.109 528.781C368.87 529.01 368.542 529.125 368.125 529.125C367.708 529.125 367.38 529.01 367.141 528.781C366.911 528.542 366.797 528.24 366.797 527.875ZM366.828 513.453C366.828 513.089 366.943 512.781 367.172 512.531C367.411 512.271 367.74 512.141 368.156 512.141C368.573 512.141 368.901 512.271 369.141 512.531C369.38 512.781 369.5 513.089 369.5 513.453C369.5 513.818 369.38 514.12 369.141 514.359C368.901 514.589 368.573 514.703 368.156 514.703C367.74 514.703 367.411 514.589 367.172 514.359C366.943 514.12 366.828 513.818 366.828 513.453ZM384.109 519.734V529H382.188V506.25H389.938C392.302 506.25 394.167 506.854 395.531 508.062C396.906 509.271 397.594 510.932 397.594 513.047C397.594 515.182 396.932 516.833 395.609 518C394.297 519.156 392.391 519.734 389.891 519.734H384.109ZM384.109 518.109H389.938C391.802 518.109 393.224 517.667 394.203 516.781C395.182 515.896 395.672 514.661 395.672 513.078C395.672 511.505 395.182 510.255 394.203 509.328C393.234 508.391 391.854 507.911 390.062 507.891H384.109V518.109ZM403.562 529H401.688V512.094H403.562V529ZM401.359 507.203C401.359 506.849 401.474 506.552 401.703 506.312C401.932 506.062 402.245 505.938 402.641 505.938C403.036 505.938 403.349 506.062 403.578 506.312C403.818 506.552 403.938 506.849 403.938 507.203C403.938 507.557 403.818 507.854 403.578 508.094C403.349 508.333 403.036 508.453 402.641 508.453C402.245 508.453 401.932 508.333 401.703 508.094C401.474 507.854 401.359 507.557 401.359 507.203ZM410.438 512.094L410.5 514.984C411.135 513.943 411.927 513.151 412.875 512.609C413.823 512.057 414.87 511.781 416.016 511.781C417.828 511.781 419.177 512.292 420.062 513.312C420.948 514.333 421.396 515.865 421.406 517.906V529H419.547V517.891C419.536 516.38 419.214 515.255 418.578 514.516C417.953 513.776 416.948 513.406 415.562 513.406C414.406 513.406 413.38 513.771 412.484 514.5C411.599 515.219 410.943 516.193 410.516 517.422V529H408.656V512.094H410.438ZM432.797 529.312C431.359 529.312 430.057 528.958 428.891 528.25C427.734 527.542 426.833 526.557 426.188 525.297C425.542 524.026 425.219 522.604 425.219 521.031V520.359C425.219 518.734 425.531 517.271 426.156 515.969C426.792 514.667 427.672 513.646 428.797 512.906C429.922 512.156 431.141 511.781 432.453 511.781C434.505 511.781 436.13 512.484 437.328 513.891C438.536 515.286 439.141 517.198 439.141 519.625V520.672H427.078V521.031C427.078 522.948 427.625 524.547 428.719 525.828C429.823 527.099 431.208 527.734 432.875 527.734C433.875 527.734 434.755 527.552 435.516 527.188C436.286 526.823 436.984 526.24 437.609 525.438L438.781 526.328C437.406 528.318 435.411 529.312 432.797 529.312ZM432.453 513.375C431.047 513.375 429.859 513.891 428.891 514.922C427.932 515.953 427.349 517.339 427.141 519.078H437.281V518.875C437.229 517.25 436.766 515.927 435.891 514.906C435.016 513.885 433.87 513.375 432.453 513.375ZM453.453 529C453.266 528.469 453.146 527.682 453.094 526.641C452.438 527.495 451.599 528.156 450.578 528.625C449.568 529.083 448.495 529.312 447.359 529.312C445.734 529.312 444.417 528.859 443.406 527.953C442.406 527.047 441.906 525.901 441.906 524.516C441.906 522.87 442.589 521.568 443.953 520.609C445.328 519.651 447.24 519.172 449.688 519.172H453.078V517.25C453.078 516.042 452.703 515.094 451.953 514.406C451.214 513.708 450.13 513.359 448.703 513.359C447.401 513.359 446.323 513.693 445.469 514.359C444.615 515.026 444.188 515.828 444.188 516.766L442.312 516.75C442.312 515.406 442.938 514.245 444.188 513.266C445.438 512.276 446.974 511.781 448.797 511.781C450.682 511.781 452.167 512.255 453.25 513.203C454.344 514.141 454.906 515.453 454.938 517.141V525.141C454.938 526.776 455.109 528 455.453 528.812V529H453.453ZM447.578 527.656C448.828 527.656 449.943 527.354 450.922 526.75C451.911 526.146 452.63 525.339 453.078 524.328V520.609H449.734C447.87 520.63 446.411 520.974 445.359 521.641C444.307 522.297 443.781 523.203 443.781 524.359C443.781 525.307 444.13 526.094 444.828 526.719C445.536 527.344 446.453 527.656 447.578 527.656ZM472.906 518.375H462.297V529H460.375V506.25H474.469V507.891H462.297V516.734H472.906V518.375ZM488.078 529C487.891 528.469 487.771 527.682 487.719 526.641C487.062 527.495 486.224 528.156 485.203 528.625C484.193 529.083 483.12 529.312 481.984 529.312C480.359 529.312 479.042 528.859 478.031 527.953C477.031 527.047 476.531 525.901 476.531 524.516C476.531 522.87 477.214 521.568 478.578 520.609C479.953 519.651 481.865 519.172 484.312 519.172H487.703V517.25C487.703 516.042 487.328 515.094 486.578 514.406C485.839 513.708 484.755 513.359 483.328 513.359C482.026 513.359 480.948 513.693 480.094 514.359C479.24 515.026 478.812 515.828 478.812 516.766L476.938 516.75C476.938 515.406 477.562 514.245 478.812 513.266C480.062 512.276 481.599 511.781 483.422 511.781C485.307 511.781 486.792 512.255 487.875 513.203C488.969 514.141 489.531 515.453 489.562 517.141V525.141C489.562 526.776 489.734 528 490.078 528.812V529H488.078ZM482.203 527.656C483.453 527.656 484.568 527.354 485.547 526.75C486.536 526.146 487.255 525.339 487.703 524.328V520.609H484.359C482.495 520.63 481.036 520.974 479.984 521.641C478.932 522.297 478.406 523.203 478.406 524.359C478.406 525.307 478.755 526.094 479.453 526.719C480.161 527.344 481.078 527.656 482.203 527.656ZM496.344 512.094L496.406 514.984C497.042 513.943 497.833 513.151 498.781 512.609C499.729 512.057 500.776 511.781 501.922 511.781C503.734 511.781 505.083 512.292 505.969 513.312C506.854 514.333 507.302 515.865 507.312 517.906V529H505.453V517.891C505.443 516.38 505.12 515.255 504.484 514.516C503.859 513.776 502.854 513.406 501.469 513.406C500.312 513.406 499.286 513.771 498.391 514.5C497.505 515.219 496.849 516.193 496.422 517.422V529H494.562V512.094H496.344Z" fill="white"/>
</g>
<defs>
<filter id="filter0_bd_31037395" x="48" y="48" width="1184" height="544" filterUnits="userSpaceOnUse" color-interpolation-filters="sRGB">
<feFlood flood-opacity="0" result="BackgroundImageFix"/>
<feGaussianBlur in="BackgroundImage" stdDeviation="14"/>
<feComposite in2="SourceAlpha" operator="in" result="effect1_backgroundBlur_31037395"/>
<feColorMatrix in="SourceAlpha" type="matrix" values="0 0 0 0 0 0 0 0 0 0 0 0 0 0 0 0 0 0 127 0" result="hardAlpha"/>
<feMorphology radius="5" operator="dilate" in="SourceAlpha" result="effect2_dropShadow_31037395"/>
<feOffset/>
<feGaussianBlur stdDeviation="12.5"/>
<feComposite in2="hardAlpha" operator="out"/>
<feColorMatrix type="matrix" values="0 0 0 0 0.258333 0 0 0 0 0.258333 0 0 0 0 0.258333 0 0 0 0.6 0"/>
<feBlend mode="normal" in2="effect1_backgroundBlur_31037395" result="effect2_dropShadow_31037395"/>
<feBlend mode="normal" in="SourceGraphic" in2="effect2_dropShadow_31037395" result="shape"/>
</filter>
<linearGradient id="paint0_linear_31037395" x1="-1.14441e-05" y1="320" x2="819.2" y2="-294.4" gradientUnits="userSpaceOnUse">
<stop stop-color="#71AFE5"/>
<stop offset="1" stop-color="#6576CC"/>
</linearGradient>
<linearGradient id="paint1_linear_31037395" x1="3.40106e-05" y1="0.499974" x2="1280" y2="678" gradientUnits="userSpaceOnUse">
<stop stop-color="#6576CC"/>
<stop offset="1" stop-color="#775EBF"/>
</linearGradient>
<linearGradient id="paint2_linear_31037395" x1="78" y1="78" x2="1202" y2="562" gradientUnits="userSpaceOnUse">
<stop stop-opacity="0.9"/>
<stop offset="1" stop-opacity="0.7"/>
</linearGradient>
<linearGradient id="paint3_linear_31037395" x1="389.5" y1="103" x2="261.5" y2="231" gradientUnits="userSpaceOnUse">
<stop stop-color="#6576CC"/>
<stop offset="1" stop-color="#775EBF"/>
</linearGradient>
<clipPath id="clip0_31037395">
<rect width="1280" height="640" rx="40" fill="white"/>
</clipPath>
</defs>
</svg>
