<svg width="1280" height="640" fill="none" xmlns="http://www.w3.org/2000/svg"><g clip-path="url(#a)"><rect width="1280" height="640" rx="40" fill="url(#b)"/><path fill-rule="evenodd" clip-rule="evenodd" d="m-.004 284.211 53.333 20.474c53.334 20.473 160 61.421 266.667 81.894 106.667 20.474 213.333 20.474 320-27.298s213.333-143.315 320-163.789c106.664-20.473 213.334 34.123 266.664 61.421l53.34 27.298V677.5H0l-.004-393.289Z" fill="url(#c)"/><path fill="#000" fill-opacity=".25" d="M0 0h1280v640H0z"/><g filter="url(#d)"><rect x="78" y="78" width="1124" height="484" rx="40" fill="url(#e)" fill-opacity=".65" shape-rendering="crispEdges"/></g><path d="M261.5 167c0-35.346 28.654-64 64-64 35.346 0 64 28.654 64 64 0 35.346-28.654 64-64 64-35.346 0-64-28.654-64-64Z" fill="url(#f)"/><rect x="295.688" y="137.188" width="59.625" height="59.625" rx="9.555" stroke="#fff" stroke-width="7.605"/><path d="m308.301 167 8.763 8.764a3.824 3.824 0 0 0 5.406 0l20.23-20.23" stroke="#fff" stroke-width="7.605" stroke-linecap="round" stroke-linejoin="round"/><path d="M502.386 179.502c-.863 7.936-3.71 14.009-8.54 18.219-4.797 4.209-11.197 6.314-19.202 6.314-5.59 0-10.542-1.397-14.855-4.192-4.279-2.795-7.591-6.746-9.937-11.853-2.347-5.141-3.537-11.007-3.572-17.597v-9.783c0-6.694 1.173-12.629 3.52-17.804 2.346-5.176 5.71-9.161 10.093-11.956 4.416-2.83 9.489-4.245 15.216-4.245 8.075 0 14.441 2.192 19.099 6.574 4.693 4.347 7.419 10.369 8.178 18.063h-6.418c-1.587-12.801-8.54-19.202-20.859-19.202-6.832 0-12.283 2.553-16.355 7.66-4.037 5.107-6.056 12.163-6.056 21.169v9.213c0 8.695 1.967 15.631 5.901 20.807 3.968 5.175 9.316 7.763 16.045 7.763 6.659 0 11.68-1.587 15.061-4.761 3.382-3.209 5.469-8.006 6.263-14.389h6.418ZM523.348 203h-6.211v-79.5h6.211V203Zm23.808 0h-6.211v-56.002h6.211V203Zm-7.298-72.202c0-1.173.38-2.157 1.139-2.95.759-.828 1.794-1.243 3.106-1.243 1.311 0 2.346.415 3.105 1.243.794.793 1.19 1.777 1.19 2.95 0 1.173-.396 2.156-1.19 2.95-.759.794-1.794 1.19-3.105 1.19-1.312 0-2.347-.396-3.106-1.19-.759-.794-1.139-1.777-1.139-2.95Zm44.874 68.01c4.314 0 7.919-1.208 10.818-3.623 2.933-2.45 4.52-5.608 4.762-9.472h5.952c-.173 3.416-1.243 6.539-3.209 9.368-1.967 2.795-4.59 4.986-7.867 6.573-3.244 1.588-6.729 2.381-10.456 2.381-7.349 0-13.181-2.553-17.494-7.66-4.278-5.107-6.418-11.973-6.418-20.6v-1.863c0-5.521.966-10.403 2.899-14.647 1.932-4.244 4.692-7.522 8.281-9.834 3.623-2.312 7.85-3.468 12.681-3.468 6.142 0 11.197 1.829 15.165 5.486 4.002 3.658 6.142 8.471 6.418 14.441h-5.952c-.277-4.383-1.864-7.919-4.762-10.611-2.864-2.691-6.487-4.037-10.869-4.037-5.59 0-9.938 2.019-13.043 6.056-3.071 4.037-4.607 9.696-4.607 16.976v1.812c0 7.143 1.536 12.715 4.607 16.718 3.105 4.002 7.47 6.004 13.094 6.004Zm47.255-24.016-7.091 6.832V203h-6.21v-79.5h6.21v50.878l5.849-6.315 21.428-21.065h7.815L636.231 170.6l25.828 32.4h-7.402l-22.67-28.208Zm72.202 13.975c0-3.071-1.242-5.538-3.726-7.402-2.45-1.863-6.159-3.312-11.128-4.347-4.969-1.07-8.833-2.278-11.594-3.623-2.726-1.381-4.762-3.054-6.107-5.021-1.311-1.967-1.967-4.348-1.967-7.143 0-4.416 1.846-8.057 5.538-10.92 3.692-2.899 8.419-4.348 14.182-4.348 6.245 0 11.248 1.553 15.009 4.658 3.796 3.071 5.694 7.091 5.694 12.06h-6.211c0-3.278-1.38-6.004-4.141-8.178-2.726-2.174-6.176-3.261-10.351-3.261-4.072 0-7.35.915-9.834 2.743-2.45 1.795-3.675 4.141-3.675 7.039 0 2.795 1.018 4.969 3.054 6.522 2.07 1.518 5.814 2.916 11.231 4.192 5.452 1.277 9.524 2.64 12.215 4.089 2.726 1.449 4.744 3.192 6.056 5.228 1.311 2.035 1.966 4.503 1.966 7.401 0 4.727-1.915 8.506-5.745 11.335-3.795 2.829-8.764 4.244-14.906 4.244-6.521 0-11.818-1.57-15.89-4.71-4.037-3.174-6.055-7.177-6.055-12.008h6.211c.241 3.623 1.759 6.453 4.554 8.489 2.83 2.001 6.556 3.002 11.18 3.002 4.313 0 7.798-.949 10.455-2.847 2.657-1.898 3.985-4.296 3.985-7.194Zm63.145-20.962H732.19V203h-6.366v-75.359h46.686v5.434h-40.32v29.295h35.144v5.435Zm12.111 6.366c0-5.383 1.035-10.231 3.106-14.544 2.105-4.313 5.055-7.66 8.85-10.041 3.83-2.415 8.161-3.623 12.992-3.623 7.453 0 13.491 2.622 18.115 7.867 4.624 5.21 6.935 12.129 6.935 20.755v1.294c0 5.417-1.052 10.3-3.157 14.647-2.07 4.314-5.003 7.643-8.799 9.99-3.795 2.346-8.126 3.519-12.991 3.519-7.419 0-13.457-2.605-18.115-7.815-4.624-5.245-6.936-12.181-6.936-20.807v-1.242Zm6.211 1.708c0 6.694 1.726 12.197 5.176 16.511 3.485 4.278 8.04 6.418 13.664 6.418 5.59 0 10.11-2.14 13.561-6.418 3.485-4.314 5.227-9.99 5.227-17.029v-1.19c0-4.279-.793-8.195-2.381-11.749-1.587-3.554-3.813-6.297-6.676-8.23-2.864-1.966-6.142-2.95-9.834-2.95-5.521 0-10.024 2.174-13.509 6.522-3.485 4.313-5.228 9.972-5.228 16.976v1.139Zm82.502-23.602a23.174 23.174 0 0 0-4.192-.362c-3.865 0-7.143 1.087-9.834 3.261-2.657 2.139-4.555 5.262-5.694 9.368V203h-6.159v-56.002h6.056l.103 8.902c3.278-6.625 8.541-9.937 15.787-9.937 1.725 0 3.088.224 4.088.673l-.155 5.641Zm15.476-5.279.207 9.109c2.07-3.381 4.658-5.917 7.763-7.608 3.106-1.691 6.556-2.536 10.352-2.536 8.833 0 14.44 3.623 16.821 10.869 2.002-3.485 4.676-6.159 8.023-8.022 3.347-1.898 7.039-2.847 11.076-2.847 12.008 0 18.132 6.556 18.374 19.668V203h-6.211v-36.903c-.034-5.004-1.121-8.713-3.261-11.128-2.104-2.416-5.555-3.623-10.351-3.623-4.451.069-8.212 1.518-11.283 4.347-3.071 2.795-4.779 6.211-5.124 10.248V203h-6.211v-37.369c-.035-4.796-1.174-8.368-3.416-10.714-2.209-2.381-5.625-3.571-10.248-3.571-3.9 0-7.247 1.121-10.041 3.364-2.795 2.208-4.866 5.504-6.211 9.886V203h-6.211v-56.002h5.952Zm121.886 41.769c0-3.071-1.24-5.538-3.72-7.402-2.453-1.863-6.162-3.312-11.131-4.347-4.969-1.07-8.833-2.278-11.594-3.623-2.726-1.381-4.762-3.054-6.107-5.021-1.311-1.967-1.967-4.348-1.967-7.143 0-4.416 1.846-8.057 5.538-10.92 3.692-2.899 8.419-4.348 14.182-4.348 6.245 0 11.249 1.553 15.009 4.658 3.8 3.071 5.69 7.091 5.69 12.06h-6.21c0-3.278-1.38-6.004-4.14-8.178-2.724-2.174-6.174-3.261-10.349-3.261-4.072 0-7.35.915-9.834 2.743-2.45 1.795-3.675 4.141-3.675 7.039 0 2.795 1.018 4.969 3.054 6.522 2.07 1.518 5.814 2.916 11.231 4.192 5.452 1.277 9.523 2.64 12.213 4.089 2.73 1.449 4.75 3.192 6.06 5.228 1.31 2.035 1.96 4.503 1.96 7.401 0 4.727-1.91 8.506-5.74 11.335-3.8 2.829-8.765 4.244-14.907 4.244-6.521 0-11.818-1.57-15.89-4.71-4.037-3.174-6.055-7.177-6.055-12.008h6.211c.241 3.623 1.759 6.453 4.554 8.489 2.83 2.001 6.556 3.002 11.18 3.002 4.313 0 7.798-.949 10.457-2.847 2.65-1.898 3.98-4.296 3.98-7.194ZM313.938 313.916c-.407 3.744-1.75 6.608-4.029 8.594-2.262 1.985-5.281 2.978-9.057 2.978-2.637 0-4.973-.659-7.007-1.977-2.019-1.319-3.581-3.182-4.688-5.591-1.107-2.425-1.668-5.192-1.684-8.301v-4.614c0-3.158.553-5.957 1.66-8.399 1.107-2.441 2.693-4.321 4.761-5.639 2.083-1.335 4.475-2.002 7.177-2.002 3.809 0 6.812 1.033 9.009 3.1 2.214 2.051 3.499 4.891 3.858 8.521h-3.028c-.749-6.038-4.028-9.058-9.839-9.058-3.222 0-5.794 1.205-7.715 3.614-1.904 2.408-2.856 5.737-2.856 9.985v4.346c0 4.101.928 7.373 2.783 9.814 1.872 2.442 4.395 3.662 7.569 3.662 3.141 0 5.509-.748 7.104-2.246 1.595-1.514 2.58-3.776 2.954-6.787h3.028Zm18.823-12.842a10.914 10.914 0 0 0-1.978-.171c-1.823 0-3.369.513-4.638 1.538-1.254 1.01-2.149 2.483-2.686 4.419V325h-2.905v-26.416h2.856l.049 4.199c1.546-3.125 4.028-4.687 7.446-4.687.814 0 1.457.105 1.929.317l-.073 2.661Zm14.38 24.414c-2.246 0-4.281-.553-6.104-1.66-1.807-1.107-3.214-2.645-4.224-4.614-1.009-1.986-1.513-4.207-1.513-6.665v-1.05c0-2.539.488-4.826 1.465-6.86.992-2.035 2.368-3.63 4.126-4.785 1.757-1.172 3.662-1.758 5.713-1.758 3.206 0 5.745 1.098 7.617 3.296 1.888 2.181 2.832 5.167 2.832 8.96v1.635h-18.848v.562c0 2.995.855 5.493 2.564 7.495 1.725 1.986 3.89 2.978 6.494 2.978 1.562 0 2.938-.284 4.126-.854 1.204-.57 2.295-1.481 3.271-2.734l1.831 1.391c-2.148 3.109-5.265 4.663-9.35 4.663Zm-.537-24.902c-2.198 0-4.053.806-5.567 2.417-1.497 1.611-2.409 3.776-2.734 6.494h15.844v-.317c-.081-2.539-.805-4.606-2.172-6.201-1.368-1.596-3.158-2.393-5.371-2.393ZM379.416 325c-.293-.83-.48-2.059-.562-3.687-1.025 1.335-2.335 2.369-3.93 3.101a12.035 12.035 0 0 1-5.029 1.074c-2.54 0-4.598-.708-6.177-2.124-1.563-1.416-2.344-3.206-2.344-5.371 0-2.571 1.066-4.606 3.198-6.103 2.149-1.498 5.135-2.246 8.96-2.246h5.298v-3.003c0-1.888-.586-3.37-1.758-4.444-1.155-1.09-2.848-1.635-5.078-1.635-2.034 0-3.719.52-5.054 1.562-1.334 1.042-2.002 2.295-2.002 3.76l-2.929-.025c0-2.099.976-3.914 2.929-5.444 1.954-1.546 4.354-2.319 7.203-2.319 2.946 0 5.265.74 6.958 2.221 1.709 1.465 2.588 3.516 2.636 6.153v12.5c0 2.555.269 4.468.806 5.737V325h-3.125Zm-9.18-2.1c1.953 0 3.695-.472 5.225-1.416 1.546-.944 2.669-2.205 3.369-3.784v-5.81h-5.225c-2.913.032-5.192.569-6.835 1.611-1.644 1.025-2.466 2.441-2.466 4.248 0 1.481.545 2.71 1.635 3.687 1.107.976 2.54 1.464 4.297 1.464Zm23.853-31.079v6.763h5.469v2.393h-5.469v17.602c0 1.465.26 2.555.781 3.272.537.716 1.424 1.074 2.661 1.074.489 0 1.278-.082 2.368-.244l.122 2.392c-.764.277-1.806.415-3.125.415-2.001 0-3.458-.578-4.37-1.733-.911-1.172-1.367-2.889-1.367-5.151v-17.627h-4.858v-2.393h4.858v-6.763h2.93Zm21.753 33.667c-2.246 0-4.281-.553-6.104-1.66-1.806-1.107-3.214-2.645-4.223-4.614-1.009-1.986-1.514-4.207-1.514-6.665v-1.05c0-2.539.488-4.826 1.465-6.86.993-2.035 2.368-3.63 4.126-4.785 1.758-1.172 3.662-1.758 5.713-1.758 3.206 0 5.745 1.098 7.617 3.296 1.888 2.181 2.832 5.167 2.832 8.96v1.635h-18.848v.562c0 2.995.855 5.493 2.564 7.495 1.725 1.986 3.89 2.978 6.494 2.978 1.562 0 2.938-.284 4.126-.854 1.204-.57 2.295-1.481 3.271-2.734l1.831 1.391c-2.148 3.109-5.265 4.663-9.35 4.663Zm-.537-24.902c-2.198 0-4.053.806-5.567 2.417-1.497 1.611-2.409 3.776-2.734 6.494h15.845v-.317c-.082-2.539-.806-4.606-2.173-6.201-1.367-1.596-3.158-2.393-5.371-2.393Zm38.061 22.436c2.035 0 3.736-.569 5.103-1.709 1.383-1.155 2.132-2.644 2.246-4.467h2.807a8.331 8.331 0 0 1-1.513 4.419c-.928 1.318-2.165 2.352-3.711 3.1-1.53.749-3.174 1.123-4.932 1.123-3.467 0-6.217-1.204-8.252-3.613-2.018-2.409-3.027-5.648-3.027-9.717v-.879c0-2.604.456-4.907 1.367-6.909.912-2.002 2.214-3.548 3.906-4.639 1.709-1.09 3.703-1.635 5.982-1.635 2.897 0 5.281.862 7.153 2.588 1.888 1.725 2.897 3.995 3.027 6.811h-2.807c-.13-2.067-.879-3.735-2.246-5.005-1.351-1.269-3.06-1.904-5.127-1.904-2.637 0-4.688.952-6.153 2.856-1.448 1.905-2.172 4.574-2.172 8.008v.855c0 3.369.724 5.997 2.172 7.885 1.465 1.888 3.524 2.832 6.177 2.832Zm33.008-1.367c-1.758 2.556-4.565 3.833-8.423 3.833-2.816 0-4.956-.814-6.421-2.441-1.465-1.644-2.213-4.069-2.246-7.276v-17.187h2.905v16.821c0 5.03 2.035 7.544 6.104 7.544 4.232 0 6.909-1.749 8.032-5.249v-19.116h2.93V325h-2.832l-.049-3.345Zm26.318-3.369c0-1.448-.586-2.612-1.757-3.491-1.156-.879-2.906-1.563-5.249-2.051-2.344-.504-4.167-1.074-5.469-1.709-1.286-.651-2.246-1.44-2.881-2.368-.619-.928-.928-2.051-.928-3.369 0-2.083.871-3.801 2.613-5.152 1.741-1.367 3.971-2.05 6.689-2.05 2.946 0 5.306.732 7.08 2.197 1.79 1.449 2.686 3.345 2.686 5.688h-2.93c0-1.546-.651-2.832-1.953-3.857-1.286-1.025-2.914-1.538-4.883-1.538-1.921 0-3.467.431-4.639 1.294-1.155.846-1.733 1.953-1.733 3.32 0 1.319.48 2.344 1.44 3.076.977.717 2.743 1.376 5.298 1.978 2.572.602 4.492 1.245 5.762 1.929 1.286.683 2.238 1.505 2.856 2.465.619.961.928 2.124.928 3.492 0 2.229-.903 4.012-2.71 5.346-1.79 1.335-4.134 2.002-7.031 2.002-3.076 0-5.575-.74-7.495-2.221-1.905-1.498-2.857-3.386-2.857-5.664h2.93c.114 1.709.83 3.043 2.148 4.003 1.335.944 3.093 1.416 5.274 1.416 2.034 0 3.678-.447 4.931-1.342 1.254-.895 1.88-2.027 1.88-3.394Zm14.063-26.465v6.763h5.469v2.393h-5.469v17.602c0 1.465.26 2.555.781 3.272.537.716 1.424 1.074 2.661 1.074.489 0 1.278-.082 2.368-.244l.123 2.392c-.765.277-1.807.415-3.126.415-2.001 0-3.458-.578-4.37-1.733-.911-1.172-1.367-2.889-1.367-5.151v-17.627h-4.858v-2.393h4.858v-6.763h2.93Zm9.424 19.58c0-2.539.488-4.825 1.465-6.86.992-2.034 2.384-3.613 4.174-4.736 1.807-1.14 3.85-1.709 6.128-1.709 3.516 0 6.364 1.237 8.545 3.711 2.181 2.457 3.272 5.721 3.272 9.79v.61c0 2.555-.497 4.858-1.49 6.909-.976 2.035-2.36 3.605-4.15 4.712-1.79 1.107-3.833 1.66-6.128 1.66-3.499 0-6.348-1.229-8.545-3.686-2.181-2.474-3.271-5.746-3.271-9.815v-.586Zm2.929.806c0 3.158.814 5.754 2.442 7.788 1.644 2.018 3.792 3.027 6.445 3.027 2.637 0 4.769-1.009 6.397-3.027 1.643-2.034 2.465-4.712 2.465-8.032v-.562c0-2.018-.374-3.865-1.123-5.542-.748-1.676-1.798-2.97-3.149-3.881-1.351-.928-2.897-1.392-4.639-1.392-2.604 0-4.728 1.025-6.372 3.076-1.644 2.035-2.466 4.704-2.466 8.008v.537Zm29.371-13.623.097 4.297c.977-1.595 2.197-2.791 3.662-3.589 1.465-.798 3.093-1.196 4.883-1.196 4.167 0 6.812 1.709 7.935 5.127.944-1.644 2.205-2.906 3.784-3.785 1.579-.895 3.32-1.342 5.224-1.342 5.665 0 8.554 3.092 8.667 9.277V325h-2.929v-17.407c-.017-2.36-.529-4.11-1.538-5.249-.993-1.14-2.621-1.709-4.883-1.709-2.1.032-3.874.716-5.322 2.051-1.449 1.318-2.255 2.929-2.417 4.834V325h-2.93v-17.627c-.016-2.262-.553-3.947-1.611-5.054-1.042-1.123-2.653-1.684-4.834-1.684-1.84 0-3.418.529-4.737 1.587-1.318 1.041-2.295 2.596-2.929 4.663V325h-2.93v-26.416h2.808ZM624.411 325v-24.023h-4.37v-2.393h4.37v-3.198c0-2.702.684-4.777 2.051-6.226 1.383-1.448 3.304-2.173 5.762-2.173 1.106 0 2.14.139 3.1.415l-.22 2.442c-.813-.196-1.7-.293-2.661-.293-1.611 0-2.864.504-3.759 1.513-.896.993-1.343 2.409-1.343 4.248v3.272h6.299v2.393h-6.299V325h-2.93Zm12.842-13.599c0-2.539.488-4.825 1.465-6.86.993-2.034 2.384-3.613 4.175-4.736 1.806-1.14 3.849-1.709 6.128-1.709 3.515 0 6.363 1.237 8.544 3.711 2.181 2.457 3.272 5.721 3.272 9.79v.61c0 2.555-.497 4.858-1.489 6.909-.977 2.035-2.36 3.605-4.151 4.712-1.79 1.107-3.833 1.66-6.128 1.66-3.499 0-6.347-1.229-8.545-3.686-2.181-2.474-3.271-5.746-3.271-9.815v-.586Zm2.93.806c0 3.158.813 5.754 2.441 7.788 1.644 2.018 3.792 3.027 6.445 3.027 2.637 0 4.769-1.009 6.397-3.027 1.644-2.034 2.466-4.712 2.466-8.032v-.562c0-2.018-.375-3.865-1.123-5.542-.749-1.676-1.799-2.97-3.15-3.881-1.351-.928-2.897-1.392-4.638-1.392-2.605 0-4.729 1.025-6.373 3.076-1.643 2.035-2.465 4.704-2.465 8.008v.537Zm38.916-11.133a10.914 10.914 0 0 0-1.978-.171c-1.823 0-3.369.513-4.639 1.538-1.253 1.01-2.148 2.483-2.685 4.419V325h-2.905v-26.416h2.856l.049 4.199c1.546-3.125 4.028-4.687 7.446-4.687.814 0 1.457.105 1.929.317l-.073 2.661Zm7.299-2.49.098 4.297c.977-1.595 2.197-2.791 3.662-3.589 1.465-.798 3.093-1.196 4.883-1.196 4.167 0 6.812 1.709 7.935 5.127.944-1.644 2.205-2.906 3.784-3.785 1.579-.895 3.32-1.342 5.224-1.342 5.664 0 8.553 3.092 8.667 9.277V325h-2.929v-17.407c-.017-2.36-.529-4.11-1.538-5.249-.993-1.14-2.621-1.709-4.883-1.709-2.1.032-3.874.716-5.322 2.051-1.449 1.318-2.255 2.929-2.417 4.834V325h-2.93v-17.627c-.016-2.262-.554-3.947-1.611-5.054-1.042-1.123-2.653-1.684-4.834-1.684-1.84 0-3.418.529-4.737 1.587-1.318 1.041-2.295 2.596-2.929 4.663V325h-2.93v-26.416h2.807Zm57.496 19.702c0-1.448-.586-2.612-1.758-3.491-1.156-.879-2.906-1.563-5.249-2.051-2.344-.504-4.167-1.074-5.469-1.709-1.286-.651-2.246-1.44-2.881-2.368-.618-.928-.928-2.051-.928-3.369 0-2.083.871-3.801 2.613-5.152 1.741-1.367 3.971-2.05 6.689-2.05 2.946 0 5.306.732 7.08 2.197 1.791 1.449 2.686 3.345 2.686 5.688h-2.93c0-1.546-.651-2.832-1.953-3.857-1.286-1.025-2.913-1.538-4.883-1.538-1.92 0-3.467.431-4.639 1.294-1.155.846-1.733 1.953-1.733 3.32 0 1.319.48 2.344 1.44 3.076.977.717 2.743 1.376 5.298 1.978 2.572.602 4.493 1.245 5.762 1.929 1.286.683 2.238 1.505 2.857 2.465.618.961.927 2.124.927 3.492 0 2.229-.903 4.012-2.71 5.346-1.79 1.335-4.134 2.002-7.031 2.002-3.076 0-5.575-.74-7.495-2.221-1.904-1.498-2.857-3.386-2.857-5.664h2.93c.114 1.709.83 3.043 2.149 4.003 1.334.944 3.092 1.416 5.273 1.416 2.035 0 3.678-.447 4.932-1.342 1.253-.895 1.88-2.027 1.88-3.394Zm20.068-6.885c0-2.539.488-4.825 1.465-6.86.993-2.034 2.384-3.613 4.175-4.736 1.806-1.14 3.849-1.709 6.127-1.709 3.516 0 6.364 1.237 8.545 3.711 2.181 2.457 3.272 5.721 3.272 9.79v.61c0 2.555-.497 4.858-1.489 6.909-.977 2.035-2.36 3.605-4.151 4.712-1.79 1.107-3.833 1.66-6.128 1.66-3.499 0-6.347-1.229-8.545-3.686-2.181-2.474-3.271-5.746-3.271-9.815v-.586Zm2.93.806c0 3.158.813 5.754 2.441 7.788 1.644 2.018 3.792 3.027 6.445 3.027 2.637 0 4.769-1.009 6.397-3.027 1.644-2.034 2.466-4.712 2.466-8.032v-.562c0-2.018-.375-3.865-1.123-5.542-.749-1.676-1.799-2.97-3.15-3.881-1.351-.928-2.897-1.392-4.639-1.392-2.604 0-4.728 1.025-6.372 3.076-1.643 2.035-2.465 4.704-2.465 8.008v.537Zm29.492-13.623.097 4.517c.993-1.628 2.23-2.865 3.711-3.711 1.482-.863 3.117-1.294 4.908-1.294 2.832 0 4.939.797 6.323 2.392 1.383 1.595 2.083 3.988 2.099 7.178V325h-2.905v-17.358c-.016-2.36-.521-4.118-1.513-5.274-.977-1.155-2.548-1.733-4.712-1.733-1.807 0-3.41.569-4.81 1.709-1.383 1.123-2.409 2.645-3.076 4.565V325h-2.905v-26.416h2.783ZM833.933 325v-35.547h9.936c2.914 0 5.526.667 7.837 2.002 2.311 1.318 4.11 3.215 5.396 5.689 1.302 2.474 1.953 5.289 1.953 8.447v3.271c0 3.174-.643 5.99-1.929 8.448-1.286 2.457-3.101 4.353-5.444 5.688-2.328 1.335-5.005 2.002-8.033 2.002h-9.716Zm3.003-32.983v30.444h6.738c3.743 0 6.746-1.237 9.009-3.711 2.262-2.49 3.393-5.851 3.393-10.083v-3.125c0-4.085-1.115-7.357-3.345-9.814-2.229-2.458-5.167-3.695-8.813-3.711h-6.982ZM869.284 325h-2.93v-26.416h2.93V325Zm-3.442-34.058c0-.553.179-1.017.537-1.391.358-.391.846-.586 1.465-.586.618 0 1.107.195 1.465.586.374.374.561.838.561 1.391 0 .554-.187 1.018-.561 1.392-.358.374-.847.562-1.465.562-.619 0-1.107-.188-1.465-.562-.358-.374-.537-.838-.537-1.392Zm27.221 27.344c0-1.448-.585-2.612-1.757-3.491-1.156-.879-2.906-1.563-5.249-2.051-2.344-.504-4.167-1.074-5.469-1.709-1.286-.651-2.246-1.44-2.881-2.368-.618-.928-.928-2.051-.928-3.369 0-2.083.871-3.801 2.613-5.152 1.741-1.367 3.971-2.05 6.689-2.05 2.946 0 5.306.732 7.08 2.197 1.79 1.449 2.686 3.345 2.686 5.688h-2.93c0-1.546-.651-2.832-1.953-3.857-1.286-1.025-2.914-1.538-4.883-1.538-1.921 0-3.467.431-4.639 1.294-1.155.846-1.733 1.953-1.733 3.32 0 1.319.48 2.344 1.44 3.076.977.717 2.743 1.376 5.298 1.978 2.572.602 4.492 1.245 5.762 1.929 1.286.683 2.238 1.505 2.856 2.465.619.961.928 2.124.928 3.492 0 2.229-.903 4.012-2.71 5.346-1.79 1.335-4.134 2.002-7.031 2.002-3.076 0-5.575-.74-7.495-2.221-1.904-1.498-2.857-3.386-2.857-5.664h2.93c.114 1.709.83 3.043 2.149 4.003 1.334.944 3.092 1.416 5.273 1.416 2.034 0 3.678-.447 4.932-1.342 1.253-.895 1.879-2.027 1.879-3.394Zm19.288 4.736c2.034 0 3.735-.569 5.102-1.709 1.384-1.155 2.132-2.644 2.246-4.467h2.808a8.341 8.341 0 0 1-1.514 4.419c-.928 1.318-2.165 2.352-3.711 3.1-1.53.749-3.174 1.123-4.931 1.123-3.467 0-6.218-1.204-8.252-3.613-2.019-2.409-3.028-5.648-3.028-9.717v-.879c0-2.604.456-4.907 1.367-6.909.912-2.002 2.214-3.548 3.907-4.639 1.709-1.09 3.703-1.635 5.981-1.635 2.897 0 5.282.862 7.153 2.588 1.889 1.725 2.898 3.995 3.028 6.811h-2.808c-.13-2.067-.879-3.735-2.246-5.005-1.351-1.269-3.06-1.904-5.127-1.904-2.637 0-4.687.952-6.152 2.856-1.449 1.905-2.173 4.574-2.173 8.008v.855c0 3.369.724 5.997 2.173 7.885 1.465 1.888 3.524 2.832 6.177 2.832Zm14.404-11.621c0-2.539.488-4.825 1.465-6.86.993-2.034 2.384-3.613 4.175-4.736 1.806-1.14 3.849-1.709 6.127-1.709 3.516 0 6.364 1.237 8.545 3.711 2.181 2.457 3.272 5.721 3.272 9.79v.61c0 2.555-.497 4.858-1.489 6.909-.977 2.035-2.36 3.605-4.151 4.712-1.79 1.107-3.833 1.66-6.128 1.66-3.499 0-6.347-1.229-8.545-3.686-2.181-2.474-3.271-5.746-3.271-9.815v-.586Zm2.93.806c0 3.158.813 5.754 2.441 7.788 1.644 2.018 3.792 3.027 6.445 3.027 2.637 0 4.769-1.009 6.397-3.027 1.644-2.034 2.466-4.712 2.466-8.032v-.562c0-2.018-.375-3.865-1.123-5.542-.749-1.676-1.799-2.97-3.15-3.881-1.351-.928-2.897-1.392-4.639-1.392-2.604 0-4.728 1.025-6.372 3.076-1.643 2.035-2.465 4.704-2.465 8.008v.537Zm38.916-11.133a10.914 10.914 0 0 0-1.978-.171c-1.823 0-3.369.513-4.639 1.538-1.253 1.01-2.148 2.483-2.685 4.419V325h-2.905v-26.416h2.856l.049 4.199c1.546-3.125 4.028-4.687 7.446-4.687.814 0 1.457.105 1.929.317l-.073 2.661Zm2.978 10.474c0-4.102.912-7.365 2.734-9.79 1.84-2.442 4.33-3.662 7.471-3.662 3.565 0 6.283 1.408 8.154 4.223V287.5h2.906V325h-2.735l-.122-3.516c-1.871 2.67-4.622 4.004-8.252 4.004-3.043 0-5.501-1.22-7.373-3.662-1.855-2.458-2.783-5.77-2.783-9.936v-.342Zm2.954.513c0 3.369.676 6.03 2.027 7.983 1.35 1.937 3.255 2.905 5.712 2.905 3.597 0 6.153-1.587 7.666-4.761v-12.402c-1.513-3.434-4.052-5.151-7.617-5.151-2.457 0-4.37.968-5.737 2.905-1.367 1.921-2.051 4.761-2.051 8.521ZM873 529v-22.75h6.719c2.437 0 4.286.505 5.547 1.516 1.26 1 1.89 2.479 1.89 4.437 0 1.177-.323 2.203-.968 3.078-.636.865-1.511 1.485-2.626 1.86 1.323.291 2.386.942 3.188 1.953.812 1.01 1.219 2.177 1.219 3.5 0 2.01-.651 3.583-1.953 4.718-1.292 1.126-3.094 1.688-5.407 1.688H873Zm1.922-10.938v9.313h5.766c1.645 0 2.947-.417 3.906-1.25.968-.844 1.453-2.01 1.453-3.5 0-1.406-.464-2.516-1.391-3.328-.916-.823-2.187-1.235-3.812-1.235h-5.922Zm0-1.609h5.25c1.604-.031 2.844-.406 3.719-1.125.885-.729 1.328-1.786 1.328-3.172 0-1.458-.459-2.531-1.375-3.218-.906-.698-2.282-1.047-4.125-1.047h-4.797v8.562Zm22.625 9.859 4.937-14.218h2.016l-7.219 19.781-.375.875c-.927 2.052-2.359 3.078-4.297 3.078-.448 0-.927-.073-1.437-.219l-.016-1.547.969.094c.917 0 1.656-.229 2.219-.687.573-.448 1.057-1.224 1.453-2.328l.828-2.282-6.375-16.765h2.047l5.25 14.218Zm34.187-4.406c-.26 2.396-1.119 4.229-2.578 5.5-1.448 1.271-3.38 1.906-5.797 1.906-1.687 0-3.182-.421-4.484-1.265-1.292-.844-2.292-2.037-3-3.578-.708-1.552-1.068-3.323-1.078-5.313v-2.953c0-2.021.354-3.812 1.062-5.375.709-1.562 1.724-2.766 3.047-3.609 1.334-.854 2.865-1.281 4.594-1.281 2.438 0 4.359.661 5.766 1.984 1.416 1.312 2.239 3.13 2.468 5.453h-1.937c-.479-3.865-2.578-5.797-6.297-5.797-2.062 0-3.708.771-4.938 2.313-1.218 1.541-1.828 3.671-1.828 6.39v2.781c0 2.626.594 4.719 1.782 6.282 1.198 1.562 2.812 2.344 4.843 2.344 2.011 0 3.526-.48 4.547-1.438 1.021-.969 1.651-2.417 1.891-4.344h1.937Zm6.328 7.094h-1.874v-24h1.874v24Zm7.188 0h-1.875v-16.906h1.875V529Zm-2.203-21.797c0-.354.114-.651.344-.891.229-.25.541-.374.937-.374s.708.124.938.374c.239.24.359.537.359.891s-.12.651-.359.891c-.23.239-.542.359-.938.359-.396 0-.708-.12-.937-.359a1.237 1.237 0 0 1-.344-.891Zm13.547 20.531c1.302 0 2.39-.364 3.265-1.093.886-.74 1.365-1.693 1.438-2.86h1.797a5.332 5.332 0 0 1-.969 2.828c-.594.844-1.385 1.506-2.375 1.985a7.085 7.085 0 0 1-3.156.718c-2.219 0-3.979-.77-5.282-2.312-1.291-1.542-1.937-3.615-1.937-6.219v-.562c0-1.667.292-3.141.875-4.422.583-1.281 1.417-2.271 2.5-2.969 1.094-.698 2.37-1.047 3.828-1.047 1.854 0 3.38.552 4.578 1.657 1.209 1.104 1.854 2.557 1.938 4.359h-1.797c-.083-1.323-.563-2.391-1.438-3.203-.864-.813-1.958-1.219-3.281-1.219-1.687 0-3 .609-3.937 1.828-.927 1.219-1.391 2.927-1.391 5.125v.547c0 2.156.464 3.839 1.391 5.047.937 1.208 2.255 1.812 3.953 1.812Zm14.265-7.25-2.14 2.063V529h-1.875v-24h1.875v15.359l1.765-1.906 6.469-6.359h2.359l-7.171 7.125 7.797 9.781h-2.235l-6.844-8.516Zm21.797 4.219c0-.927-.375-1.672-1.125-2.234-.739-.563-1.859-1-3.359-1.313-1.5-.323-2.667-.687-3.5-1.094-.823-.416-1.438-.921-1.844-1.515-.396-.594-.594-1.313-.594-2.156 0-1.334.558-2.433 1.672-3.297 1.115-.875 2.542-1.313 4.282-1.313 1.885 0 3.395.469 4.531 1.407 1.146.927 1.719 2.14 1.719 3.64h-1.876c0-.989-.416-1.812-1.25-2.469-.822-.656-1.864-.984-3.124-.984-1.23 0-2.219.276-2.969.828-.74.542-1.11 1.25-1.11 2.125 0 .844.308 1.5.922 1.969.625.458 1.755.88 3.391 1.265 1.646.386 2.875.797 3.687 1.235.823.437 1.433.963 1.829 1.578.395.615.593 1.359.593 2.234 0 1.427-.578 2.568-1.734 3.422-1.146.854-2.646 1.281-4.5 1.281-1.969 0-3.568-.473-4.797-1.421-1.219-.959-1.828-2.167-1.828-3.625h1.875c.073 1.093.531 1.948 1.375 2.562.854.604 1.979.906 3.375.906 1.302 0 2.354-.286 3.156-.859s1.203-1.297 1.203-2.172Zm9.074-18.453 8.39 20.078 8.43-20.078h2.56V529h-1.92v-9.906l.15-10.156-8.46 20.062h-1.49l-8.44-19.984.16 10.015V529h-1.922v-22.75h2.542Zm26.8 22.75h-1.87v-16.906h1.87V529Zm-2.2-21.797c0-.354.11-.651.34-.891.23-.25.54-.374.94-.374.4 0 .71.124.94.374.24.24.36.537.36.891s-.12.651-.36.891c-.23.239-.54.359-.94.359-.4 0-.71-.12-.94-.359-.23-.24-.34-.537-.34-.891Zm9.08 4.891.06 2.89c.63-1.041 1.43-1.833 2.37-2.375.95-.552 2-.828 3.14-.828 1.82 0 3.17.511 4.05 1.531.89 1.021 1.33 2.553 1.35 4.594V529h-1.86v-11.109c-.01-1.511-.34-2.636-.97-3.375-.63-.74-1.63-1.11-3.02-1.11-1.15 0-2.18.365-3.08 1.094-.88.719-1.54 1.693-1.97 2.922V529h-1.86v-16.906h1.79Zm26.68 14.765c-1.12 1.636-2.92 2.453-5.39 2.453-1.8 0-3.17-.52-4.11-1.562-.93-1.052-1.41-2.604-1.43-4.656v-11h1.86v10.765c0 3.219 1.3 4.829 3.9 4.829 2.71 0 4.42-1.12 5.14-3.36v-12.234h1.88V529h-1.82l-.03-2.141Zm9.63-19.093v4.328h3.5v1.531h-3.5v11.266c0 .937.17 1.635.5 2.093.34.459.91.688 1.7.688.31 0 .82-.052 1.52-.156l.08 1.531c-.49.177-1.16.265-2 .265-1.29 0-2.22-.369-2.8-1.109-.58-.75-.88-1.849-.88-3.297v-11.281h-3.11v-1.531h3.11v-4.328h1.88Zm13.92 21.546c-1.44 0-2.74-.354-3.91-1.062-1.15-.708-2.05-1.693-2.7-2.953-.64-1.271-.97-2.693-.97-4.266v-.672c0-1.625.32-3.088.94-4.39.64-1.302 1.52-2.323 2.64-3.063 1.13-.75 2.34-1.125 3.66-1.125 2.05 0 3.67.703 4.87 2.11 1.21 1.395 1.81 3.307 1.81 5.734v1.047h-12.06v.359c0 1.917.55 3.516 1.64 4.797 1.11 1.271 2.49 1.906 4.16 1.906 1 0 1.88-.182 2.64-.546.77-.365 1.47-.948 2.09-1.75l1.17.89c-1.37 1.99-3.36 2.984-5.98 2.984Zm-.34-15.937c-1.41 0-2.6.516-3.57 1.547-.95 1.031-1.54 2.417-1.75 4.156h10.14v-.203c-.05-1.625-.51-2.948-1.39-3.969-.87-1.021-2.02-1.531-3.43-1.531Zm12.68 6.359V529h-1.92v-22.75h7.75c2.37 0 4.23.604 5.6 1.812 1.37 1.209 2.06 2.87 2.06 4.985 0 2.135-.66 3.786-1.99 4.953-1.31 1.156-3.21 1.734-5.71 1.734h-5.79Zm0-1.625h5.83c1.87 0 3.29-.442 4.27-1.328.98-.885 1.47-2.12 1.47-3.703 0-1.573-.49-2.823-1.47-3.75-.97-.937-2.35-1.417-4.14-1.437h-5.96v10.218Zm23.69 11.203c-1.44 0-2.74-.354-3.9-1.062-1.16-.708-2.06-1.693-2.71-2.953-.64-1.271-.97-2.693-.97-4.266v-.672c0-1.625.32-3.088.94-4.39.64-1.302 1.52-2.323 2.64-3.063 1.13-.75 2.35-1.125 3.66-1.125 2.05 0 3.68.703 4.87 2.11 1.21 1.395 1.82 3.307 1.82 5.734v1.047h-12.07v.359c0 1.917.55 3.516 1.64 4.797 1.11 1.271 2.49 1.906 4.16 1.906 1 0 1.88-.182 2.64-.546.77-.365 1.47-.948 2.09-1.75l1.18.89c-1.38 1.99-3.37 2.984-5.99 2.984Zm-.34-15.937c-1.41 0-2.6.516-3.56 1.547s-1.55 2.417-1.75 4.156h10.14v-.203c-.06-1.625-.52-2.948-1.39-3.969-.88-1.021-2.03-1.531-3.44-1.531Zm18.14.313a7.04 7.04 0 0 0-1.27-.11c-1.16 0-2.15.328-2.97.984-.8.646-1.37 1.589-1.71 2.829V529h-1.86v-16.906h1.82l.04 2.687c.99-2 2.57-3 4.76-3 .52 0 .93.068 1.24.203l-.05 1.704Zm-994.673 6.046V529h-1.922v-22.75h7.75c2.365 0 4.229.604 5.594 1.812 1.375 1.209 2.062 2.87 2.062 4.985 0 2.135-.661 3.786-1.984 4.953-1.313 1.156-3.219 1.734-5.719 1.734h-5.781Zm0-1.625h5.828c1.865 0 3.286-.442 4.266-1.328.979-.885 1.468-2.12 1.468-3.703 0-1.573-.489-2.823-1.468-3.75-.969-.937-2.349-1.417-4.141-1.437h-5.953v10.218Zm25.172-4.421a6.98 6.98 0 0 0-1.266-.11c-1.167 0-2.156.328-2.969.984-.802.646-1.375 1.589-1.718 2.829V529h-1.86v-16.906h1.828l.032 2.687c.989-2 2.578-3 4.765-3 .521 0 .933.068 1.235.203l-.047 1.704Zm1.625 6.609c0-1.625.312-3.089.937-4.391.636-1.302 1.526-2.312 2.672-3.031 1.156-.729 2.464-1.094 3.922-1.094 2.25 0 4.073.792 5.469 2.375 1.396 1.573 2.094 3.662 2.094 6.266v.39c0 1.636-.318 3.11-.954 4.422-.625 1.302-1.51 2.308-2.656 3.016-1.146.708-2.453 1.062-3.922 1.062-2.239 0-4.062-.786-5.468-2.359-1.396-1.583-2.094-3.677-2.094-6.281v-.375Zm1.875.515c0 2.021.521 3.683 1.562 4.985 1.052 1.292 2.427 1.937 4.125 1.937 1.688 0 3.052-.645 4.094-1.937 1.052-1.302 1.578-3.016 1.578-5.141v-.359c0-1.292-.239-2.474-.719-3.547-.479-1.073-1.151-1.901-2.015-2.484-.865-.594-1.854-.891-2.969-.891-1.667 0-3.026.656-4.078 1.969-1.052 1.302-1.578 3.01-1.578 5.125v.343Zm16.343-.421c0-2.646.584-4.74 1.75-6.282 1.178-1.552 2.771-2.328 4.782-2.328 2.302 0 4.052.917 5.25 2.75l.094-2.437h1.75v16.562c0 2.177-.61 3.901-1.829 5.172-1.218 1.271-2.869 1.906-4.953 1.906a7.514 7.514 0 0 1-3.375-.796c-1.062-.521-1.901-1.219-2.515-2.094l1.046-1.125c1.323 1.625 2.896 2.437 4.719 2.437 1.563 0 2.781-.463 3.657-1.39.874-.917 1.328-2.193 1.359-3.828v-2.126c-1.198 1.667-2.943 2.5-5.235 2.5-1.958 0-3.531-.781-4.718-2.343-1.188-1.563-1.782-3.672-1.782-6.328v-.25Zm1.891.328c0 2.156.432 3.859 1.297 5.109.865 1.24 2.083 1.86 3.656 1.86 2.302 0 3.933-1.032 4.891-3.094v-7.86c-.438-1.083-1.068-1.906-1.891-2.468-.823-.573-1.812-.86-2.968-.86-1.573 0-2.797.62-3.672 1.86-.875 1.229-1.313 3.046-1.313 5.453Zm24.422-7.031a6.98 6.98 0 0 0-1.266-.11c-1.166 0-2.156.328-2.968.984-.802.646-1.375 1.589-1.719 2.829V529h-1.86v-16.906h1.829l.031 2.687c.989-2 2.578-3 4.766-3 .52 0 .932.068 1.234.203l-.047 1.704ZM229.141 529c-.188-.531-.308-1.318-.36-2.359a6.58 6.58 0 0 1-2.515 1.984 7.71 7.71 0 0 1-3.219.687c-1.625 0-2.943-.453-3.953-1.359-1-.906-1.5-2.052-1.5-3.437 0-1.646.682-2.948 2.047-3.907 1.375-.958 3.286-1.437 5.734-1.437h3.391v-1.922c0-1.208-.375-2.156-1.125-2.844-.74-.698-1.823-1.047-3.25-1.047-1.302 0-2.381.334-3.235 1-.854.667-1.281 1.469-1.281 2.407L218 516.75c0-1.344.625-2.505 1.875-3.484 1.25-.99 2.786-1.485 4.609-1.485 1.886 0 3.37.474 4.454 1.422 1.093.938 1.656 2.25 1.687 3.938v8c0 1.635.172 2.859.516 3.671V529h-2Zm-5.875-1.344c1.25 0 2.364-.302 3.343-.906.99-.604 1.709-1.411 2.157-2.422v-3.719h-3.344c-1.865.021-3.323.365-4.375 1.032-1.052.656-1.578 1.562-1.578 2.718 0 .948.349 1.735 1.047 2.36.708.625 1.625.937 2.75.937Zm14.062-15.562.063 2.75c.625-1.021 1.406-1.787 2.343-2.297.938-.511 1.98-.766 3.125-.766 2.667 0 4.36 1.094 5.079 3.281.604-1.052 1.411-1.859 2.421-2.421 1.011-.573 2.125-.86 3.344-.86 3.625 0 5.474 1.979 5.547 5.938V529h-1.875v-11.141c-.01-1.51-.339-2.63-.984-3.359-.636-.729-1.677-1.094-3.125-1.094-1.344.021-2.48.459-3.407 1.313-.927.843-1.442 1.875-1.547 3.093V529h-1.874v-11.281c-.011-1.448-.355-2.526-1.032-3.235-.666-.718-1.698-1.078-3.094-1.078-1.177 0-2.187.339-3.031 1.016-.843.667-1.469 1.661-1.875 2.984V529h-1.875v-16.906h1.797Zm28.375 0 .063 2.75c.625-1.021 1.406-1.787 2.343-2.297.938-.511 1.98-.766 3.125-.766 2.667 0 4.36 1.094 5.078 3.281.605-1.052 1.412-1.859 2.422-2.421 1.011-.573 2.125-.86 3.344-.86 3.625 0 5.474 1.979 5.547 5.938V529h-1.875v-11.141c-.01-1.51-.339-2.63-.984-3.359-.636-.729-1.677-1.094-3.125-1.094-1.344.021-2.48.459-3.407 1.313-.927.843-1.442 1.875-1.546 3.093V529h-1.876v-11.281c-.01-1.448-.354-2.526-1.031-3.235-.666-.718-1.698-1.078-3.093-1.078-1.178 0-2.188.339-3.032 1.016-.844.667-1.468 1.661-1.875 2.984V529h-1.875v-16.906h1.797Zm33.219 17.218c-1.438 0-2.74-.354-3.906-1.062-1.157-.708-2.058-1.693-2.704-2.953-.645-1.271-.968-2.693-.968-4.266v-.672c0-1.625.312-3.088.937-4.39.636-1.302 1.516-2.323 2.641-3.063 1.125-.75 2.344-1.125 3.656-1.125 2.052 0 3.677.703 4.875 2.11 1.208 1.395 1.813 3.307 1.813 5.734v1.047h-12.063v.359c0 1.917.547 3.516 1.641 4.797 1.104 1.271 2.489 1.906 4.156 1.906 1 0 1.88-.182 2.641-.546.77-.365 1.468-.948 2.093-1.75l1.172.89c-1.375 1.99-3.37 2.984-5.984 2.984Zm-.344-15.937c-1.406 0-2.594.516-3.562 1.547-.959 1.031-1.542 2.417-1.75 4.156h10.14v-.203c-.052-1.625-.515-2.948-1.39-3.969-.875-1.021-2.021-1.531-3.438-1.531Zm9.578 7.016c0-2.625.584-4.714 1.75-6.266 1.177-1.563 2.771-2.344 4.782-2.344 2.281 0 4.02.901 5.218 2.703V505h1.86v24h-1.75l-.078-2.25c-1.198 1.708-2.959 2.562-5.282 2.562-1.948 0-3.521-.781-4.718-2.343-1.188-1.573-1.782-3.693-1.782-6.36v-.218Zm1.891.328c0 2.156.432 3.859 1.297 5.109.864 1.24 2.083 1.86 3.656 1.86 2.302 0 3.938-1.016 4.906-3.047v-7.938c-.968-2.198-2.594-3.297-4.875-3.297-1.573 0-2.797.62-3.672 1.86-.875 1.229-1.312 3.046-1.312 5.453Zm38.031 0c0 2.635-.583 4.729-1.75 6.281-1.167 1.542-2.734 2.312-4.703 2.312-2.354 0-4.135-.874-5.344-2.624l-.078 2.312h-1.75v-24h1.859v9.547c1.188-1.844 2.948-2.766 5.282-2.766 2 0 3.578.766 4.734 2.297 1.167 1.521 1.75 3.641 1.75 6.36v.281Zm-1.875-.328c0-2.23-.432-3.948-1.297-5.157-.864-1.218-2.083-1.828-3.656-1.828-1.198 0-2.214.297-3.047.891-.833.583-1.463 1.443-1.891 2.578v7.625c.938 2.125 2.594 3.188 4.969 3.188 1.542 0 2.745-.61 3.61-1.829.875-1.218 1.312-3.041 1.312-5.468Zm11.188 5.921 4.937-14.218h2.016l-7.219 19.781-.375.875c-.927 2.052-2.359 3.078-4.297 3.078-.448 0-.927-.073-1.437-.219l-.016-1.547.969.094c.916 0 1.656-.229 2.219-.687.572-.448 1.057-1.224 1.453-2.328l.828-2.282-6.375-16.765h2.047l5.25 14.218Zm9.406 1.563c0-.365.114-.672.344-.922.239-.26.567-.391.984-.391.417 0 .745.131.984.391.24.25.36.557.36.922s-.12.667-.36.906c-.239.229-.567.344-.984.344-.417 0-.745-.115-.984-.344-.23-.239-.344-.541-.344-.906Zm.031-14.422c0-.364.115-.672.344-.922.239-.26.568-.39.984-.39.417 0 .745.13.985.39.239.25.359.558.359.922 0 .365-.12.667-.359.906-.24.23-.568.344-.985.344-.416 0-.745-.114-.984-.344-.229-.239-.344-.541-.344-.906Zm17.281 6.281V529h-1.921v-22.75h7.75c2.364 0 4.229.604 5.593 1.812 1.375 1.209 2.063 2.87 2.063 4.985 0 2.135-.662 3.786-1.985 4.953-1.312 1.156-3.218 1.734-5.718 1.734h-5.782Zm0-1.625h5.829c1.864 0 3.286-.442 4.265-1.328.979-.885 1.469-2.12 1.469-3.703 0-1.573-.49-2.823-1.469-3.75-.969-.937-2.349-1.417-4.141-1.437h-5.953v10.218ZM403.562 529h-1.874v-16.906h1.874V529Zm-2.203-21.797c0-.354.115-.651.344-.891.229-.25.542-.374.938-.374.395 0 .708.124.937.374.24.24.36.537.36.891s-.12.651-.36.891c-.229.239-.542.359-.937.359-.396 0-.709-.12-.938-.359a1.241 1.241 0 0 1-.344-.891Zm9.079 4.891.062 2.89c.635-1.041 1.427-1.833 2.375-2.375.948-.552 1.995-.828 3.141-.828 1.812 0 3.161.511 4.046 1.531.886 1.021 1.334 2.553 1.344 4.594V529h-1.859v-11.109c-.011-1.511-.333-2.636-.969-3.375-.625-.74-1.63-1.11-3.016-1.11a4.74 4.74 0 0 0-3.078 1.094c-.885.719-1.541 1.693-1.968 2.922V529h-1.86v-16.906h1.782Zm22.359 17.218c-1.438 0-2.74-.354-3.906-1.062-1.157-.708-2.058-1.693-2.703-2.953-.646-1.271-.969-2.693-.969-4.266v-.672c0-1.625.312-3.088.937-4.39.636-1.302 1.516-2.323 2.641-3.063 1.125-.75 2.344-1.125 3.656-1.125 2.052 0 3.677.703 4.875 2.11 1.208 1.395 1.813 3.307 1.813 5.734v1.047h-12.063v.359c0 1.917.547 3.516 1.641 4.797 1.104 1.271 2.489 1.906 4.156 1.906 1 0 1.88-.182 2.641-.546.77-.365 1.468-.948 2.093-1.75l1.172.89c-1.375 1.99-3.37 2.984-5.984 2.984Zm-.344-15.937c-1.406 0-2.594.516-3.562 1.547-.959 1.031-1.542 2.417-1.75 4.156h10.14v-.203c-.052-1.625-.515-2.948-1.39-3.969-.875-1.021-2.021-1.531-3.438-1.531Zm21 15.625c-.187-.531-.307-1.318-.359-2.359a6.576 6.576 0 0 1-2.516 1.984 7.704 7.704 0 0 1-3.219.687c-1.625 0-2.942-.453-3.953-1.359-1-.906-1.5-2.052-1.5-3.437 0-1.646.683-2.948 2.047-3.907 1.375-.958 3.287-1.437 5.735-1.437h3.39v-1.922c0-1.208-.375-2.156-1.125-2.844-.739-.698-1.823-1.047-3.25-1.047-1.302 0-2.38.334-3.234 1-.854.667-1.281 1.469-1.281 2.407l-1.876-.016c0-1.344.626-2.505 1.876-3.484 1.25-.99 2.786-1.485 4.609-1.485 1.885 0 3.37.474 4.453 1.422 1.094.938 1.656 2.25 1.688 3.938v8c0 1.635.171 2.859.515 3.671V529h-2Zm-5.875-1.344c1.25 0 2.365-.302 3.344-.906.989-.604 1.708-1.411 2.156-2.422v-3.719h-3.344c-1.864.021-3.323.365-4.375 1.032-1.052.656-1.578 1.562-1.578 2.718 0 .948.349 1.735 1.047 2.36.708.625 1.625.937 2.75.937Zm25.328-9.281h-10.609V529h-1.922v-22.75h14.094v1.641h-12.172v8.843h10.609v1.641ZM488.078 529c-.187-.531-.307-1.318-.359-2.359a6.583 6.583 0 0 1-2.516 1.984 7.704 7.704 0 0 1-3.219.687c-1.625 0-2.942-.453-3.953-1.359-1-.906-1.5-2.052-1.5-3.437 0-1.646.683-2.948 2.047-3.907 1.375-.958 3.287-1.437 5.734-1.437h3.391v-1.922c0-1.208-.375-2.156-1.125-2.844-.739-.698-1.823-1.047-3.25-1.047-1.302 0-2.38.334-3.234 1-.854.667-1.282 1.469-1.282 2.407l-1.874-.016c0-1.344.624-2.505 1.874-3.484 1.25-.99 2.787-1.485 4.61-1.485 1.885 0 3.37.474 4.453 1.422 1.094.938 1.656 2.25 1.687 3.938v8c0 1.635.172 2.859.516 3.671V529h-2Zm-5.875-1.344c1.25 0 2.365-.302 3.344-.906.989-.604 1.708-1.411 2.156-2.422v-3.719h-3.344c-1.864.021-3.323.365-4.375 1.032-1.052.656-1.578 1.562-1.578 2.718 0 .948.349 1.735 1.047 2.36.708.625 1.625.937 2.75.937Zm14.141-15.562.062 2.89c.636-1.041 1.427-1.833 2.375-2.375.948-.552 1.995-.828 3.141-.828 1.812 0 3.161.511 4.047 1.531.885 1.021 1.333 2.553 1.343 4.594V529h-1.859v-11.109c-.01-1.511-.333-2.636-.969-3.375-.625-.74-1.63-1.11-3.015-1.11a4.737 4.737 0 0 0-3.078 1.094c-.886.719-1.542 1.693-1.969 2.922V529h-1.86v-16.906h1.782Z" fill="#fff"/></g><defs><linearGradient id="b" x1="0" y1="320" x2="819.2" y2="-294.4" gradientUnits="userSpaceOnUse"><stop stop-color="#71AFE5"/><stop offset="1" stop-color="#6576CC"/></linearGradient><linearGradient id="c" x1="0" y1=".5" x2="1280" y2="678" gradientUnits="userSpaceOnUse"><stop stop-color="#6576CC"/><stop offset="1" stop-color="#775EBF"/></linearGradient><linearGradient id="e" x1="78" y1="78" x2="1202" y2="562" gradientUnits="userSpaceOnUse"><stop stop-opacity=".9"/><stop offset="1" stop-opacity=".7"/></linearGradient><linearGradient id="f" x1="389.5" y1="103" x2="261.5" y2="231" gradientUnits="userSpaceOnUse"><stop stop-color="#6576CC"/><stop offset="1" stop-color="#775EBF"/></linearGradient><clipPath id="a"><rect width="1280" height="640" rx="40" fill="#fff"/></clipPath><filter id="d" x="48" y="48" width="1184" height="544" filterUnits="userSpaceOnUse" color-interpolation-filters="sRGB"><feFlood flood-opacity="0" result="BackgroundImageFix"/><feGaussianBlur in="BackgroundImage" stdDeviation="14"/><feComposite in2="SourceAlpha" operator="in" result="effect1_backgroundBlur_3103:7395"/><feColorMatrix in="SourceAlpha" values="0 0 0 0 0 0 0 0 0 0 0 0 0 0 0 0 0 0 127 0" result="hardAlpha"/><feMorphology radius="5" operator="dilate" in="SourceAlpha" result="effect2_dropShadow_3103:7395"/><feOffset/><feGaussianBlur stdDeviation="12.5"/><feComposite in2="hardAlpha" operator="out"/><feColorMatrix values="0 0 0 0 0.258333 0 0 0 0 0.258333 0 0 0 0 0.258333 0 0 0 0.6 0"/><feBlend in2="effect1_backgroundBlur_3103:7395" result="effect2_dropShadow_3103:7395"/><feBlend in="SourceGraphic" in2="effect2_dropShadow_3103:7395" result="shape"/></filter></defs></svg>