<svg width="1280" height="640" viewBox="0 0 1280 640" fill="none" xmlns="http://www.w3.org/2000/svg">
<rect width="1280" height="640" rx="40" fill="white"/>
<rect width="1280" height="640" rx="40" fill="url(#paint0_linear_3103:7405)"/>
<path fill-rule="evenodd" clip-rule="evenodd" d="M0 447L53 408C107 370 213 293 320 306C427 319 533 421 640 466C747 511 853 498 960 440C1067 383 1173 280 1227 229L1280 178V640H1227C1173 640 1067 640 960 640C853 640 747 640 640 640C533 640 427 640 320 640C213 640 107 640 53 640H0V447Z" fill="url(#paint1_linear_3103:7405)"/>
<g filter="url(#filter0_bd_3103:7405)">
<rect x="78" y="78" width="1124" height="484" rx="40" fill="url(#paint2_linear_3103:7405)" fill-opacity="0.65" shape-rendering="crispEdges"/>
</g>
<rect x="429.5" y="114" width="128" height="128" rx="64" fill="url(#paint3_linear_3103:7405)"/>
<g filter="url(#filter1_d_3103:7405)">
<rect x="463.727" y="134.058" width="55.5447" height="83.4499" rx="0.9375" fill="#424242"/>
</g>
<g filter="url(#filter2_d_3103:7405)">
<rect x="467.727" y="138.492" width="55.5447" height="83.4499" rx="0.9375" fill="#C4C4C4"/>
</g>
<path d="M480.061 170.944C478.698 170.944 477.711 171.325 477.098 172.087C476.498 172.837 476.198 173.869 476.198 175.181C476.198 175.819 476.273 176.4 476.423 176.925C476.573 177.437 476.798 177.881 477.098 178.256C477.398 178.631 477.773 178.925 478.223 179.137C478.673 179.337 479.198 179.437 479.798 179.437C480.123 179.437 480.398 179.431 480.623 179.419C480.861 179.406 481.067 179.381 481.242 179.344V174.825H484.167V181.256C483.817 181.394 483.255 181.537 482.48 181.688C481.705 181.85 480.748 181.931 479.611 181.931C478.636 181.931 477.748 181.781 476.948 181.481C476.161 181.181 475.486 180.744 474.923 180.169C474.361 179.594 473.923 178.887 473.611 178.05C473.311 177.212 473.161 176.256 473.161 175.181C473.161 174.094 473.33 173.131 473.667 172.294C474.005 171.456 474.467 170.75 475.055 170.175C475.642 169.587 476.33 169.144 477.117 168.844C477.917 168.544 478.767 168.394 479.667 168.394C480.28 168.394 480.83 168.437 481.317 168.525C481.817 168.6 482.242 168.694 482.592 168.806C482.955 168.906 483.248 169.012 483.473 169.125C483.711 169.237 483.88 169.325 483.98 169.387L483.136 171.731C482.736 171.519 482.273 171.337 481.748 171.187C481.236 171.025 480.673 170.944 480.061 170.944ZM495.926 176.738C495.926 177.512 495.814 178.225 495.589 178.875C495.364 179.512 495.039 180.062 494.614 180.525C494.189 180.975 493.676 181.325 493.076 181.575C492.489 181.825 491.826 181.95 491.089 181.95C490.364 181.95 489.701 181.825 489.101 181.575C488.514 181.325 488.007 180.975 487.582 180.525C487.157 180.062 486.826 179.512 486.589 178.875C486.351 178.225 486.232 177.512 486.232 176.738C486.232 175.962 486.351 175.256 486.589 174.619C486.839 173.981 487.176 173.437 487.601 172.987C488.039 172.537 488.551 172.187 489.139 171.937C489.739 171.687 490.389 171.562 491.089 171.562C491.801 171.562 492.451 171.687 493.039 171.937C493.639 172.187 494.151 172.537 494.576 172.987C495.001 173.437 495.332 173.981 495.57 174.619C495.807 175.256 495.926 175.962 495.926 176.738ZM493.076 176.738C493.076 175.875 492.901 175.2 492.551 174.712C492.214 174.212 491.726 173.962 491.089 173.962C490.451 173.962 489.957 174.212 489.607 174.712C489.257 175.2 489.082 175.875 489.082 176.738C489.082 177.6 489.257 178.287 489.607 178.8C489.957 179.3 490.451 179.55 491.089 179.55C491.726 179.55 492.214 179.3 492.551 178.8C492.901 178.287 493.076 177.6 493.076 176.738ZM498.09 172.162C498.565 172.025 499.178 171.9 499.928 171.788C500.678 171.662 501.465 171.6 502.29 171.6C503.128 171.6 503.822 171.712 504.372 171.937C504.934 172.15 505.378 172.456 505.703 172.856C506.028 173.256 506.259 173.731 506.397 174.281C506.534 174.831 506.603 175.444 506.603 176.119V181.688H503.809V176.456C503.809 175.556 503.69 174.919 503.453 174.544C503.215 174.169 502.772 173.981 502.122 173.981C501.922 173.981 501.709 173.994 501.484 174.019C501.259 174.031 501.059 174.05 500.884 174.075V181.688H498.09V172.162ZM508.663 176.831C508.663 175.956 508.794 175.194 509.057 174.544C509.332 173.881 509.688 173.331 510.125 172.894C510.563 172.456 511.063 172.125 511.625 171.9C512.2 171.675 512.788 171.562 513.388 171.562C514.788 171.562 515.894 171.994 516.707 172.856C517.519 173.706 517.925 174.962 517.925 176.625C517.925 176.787 517.919 176.969 517.907 177.169C517.894 177.356 517.882 177.525 517.869 177.675H511.532C511.594 178.25 511.863 178.706 512.338 179.044C512.813 179.381 513.45 179.55 514.25 179.55C514.763 179.55 515.263 179.506 515.75 179.419C516.25 179.319 516.657 179.2 516.969 179.062L517.344 181.331C517.194 181.406 516.994 181.481 516.744 181.556C516.494 181.631 516.213 181.694 515.9 181.744C515.6 181.806 515.275 181.856 514.925 181.894C514.575 181.931 514.225 181.95 513.875 181.95C512.988 181.95 512.213 181.819 511.55 181.556C510.9 181.294 510.357 180.937 509.919 180.487C509.494 180.025 509.175 179.481 508.963 178.856C508.763 178.231 508.663 177.556 508.663 176.831ZM515.225 175.762C515.213 175.525 515.169 175.294 515.094 175.069C515.032 174.844 514.925 174.644 514.775 174.469C514.638 174.294 514.457 174.15 514.232 174.037C514.019 173.925 513.75 173.869 513.425 173.869C513.113 173.869 512.844 173.925 512.619 174.037C512.394 174.137 512.207 174.275 512.057 174.45C511.907 174.625 511.788 174.831 511.7 175.069C511.625 175.294 511.569 175.525 511.532 175.762H515.225Z" fill="#4A4A4A"/>
<path d="M476.892 213.512C477.167 213.512 477.392 213.492 477.567 213.45C477.75 213.4 477.896 213.337 478.005 213.262C478.113 213.179 478.188 213.083 478.23 212.975C478.271 212.867 478.292 212.746 478.292 212.612C478.292 212.329 478.159 212.096 477.892 211.912C477.625 211.721 477.167 211.517 476.517 211.3C476.234 211.2 475.95 211.087 475.667 210.962C475.384 210.829 475.13 210.667 474.905 210.475C474.68 210.275 474.496 210.037 474.355 209.762C474.213 209.479 474.142 209.137 474.142 208.737C474.142 208.337 474.217 207.979 474.367 207.662C474.517 207.337 474.73 207.062 475.005 206.837C475.28 206.612 475.613 206.442 476.005 206.325C476.396 206.2 476.838 206.137 477.33 206.137C477.913 206.137 478.417 206.2 478.842 206.325C479.267 206.45 479.617 206.587 479.892 206.737L479.33 208.275C479.088 208.15 478.817 208.042 478.517 207.95C478.225 207.85 477.871 207.8 477.455 207.8C476.988 207.8 476.65 207.867 476.442 208C476.242 208.125 476.142 208.321 476.142 208.587C476.142 208.746 476.18 208.879 476.255 208.987C476.33 209.096 476.434 209.196 476.567 209.287C476.709 209.371 476.867 209.45 477.042 209.525C477.225 209.592 477.425 209.662 477.642 209.737C478.092 209.904 478.484 210.071 478.817 210.237C479.15 210.396 479.425 210.583 479.642 210.8C479.867 211.017 480.034 211.271 480.142 211.562C480.25 211.854 480.305 212.208 480.305 212.625C480.305 213.433 480.021 214.062 479.455 214.512C478.888 214.954 478.034 215.175 476.892 215.175C476.509 215.175 476.163 215.15 475.855 215.1C475.546 215.058 475.271 215.004 475.03 214.937C474.796 214.871 474.592 214.8 474.417 214.725C474.25 214.65 474.109 214.579 473.992 214.512L474.542 212.962C474.8 213.104 475.117 213.233 475.492 213.35C475.875 213.458 476.342 213.512 476.892 213.512ZM481.68 215V205.6L483.542 205.3V208.45C483.667 208.408 483.826 208.371 484.017 208.337C484.217 208.296 484.409 208.275 484.592 208.275C485.126 208.275 485.567 208.35 485.917 208.5C486.276 208.642 486.559 208.846 486.767 209.112C486.984 209.379 487.134 209.696 487.217 210.062C487.309 210.429 487.355 210.837 487.355 211.287V215H485.492V211.512C485.492 210.912 485.413 210.487 485.255 210.237C485.105 209.987 484.822 209.862 484.405 209.862C484.238 209.862 484.08 209.879 483.93 209.912C483.788 209.937 483.659 209.967 483.542 210V215H481.68ZM491.553 213.7C491.737 213.7 491.912 213.696 492.078 213.687C492.245 213.679 492.378 213.667 492.478 213.65V212.237C492.403 212.221 492.291 212.204 492.141 212.187C491.991 212.171 491.853 212.162 491.728 212.162C491.553 212.162 491.387 212.175 491.228 212.2C491.078 212.217 490.945 212.254 490.828 212.312C490.712 212.371 490.62 212.45 490.553 212.55C490.487 212.65 490.453 212.775 490.453 212.925C490.453 213.217 490.549 213.421 490.741 213.537C490.941 213.646 491.212 213.7 491.553 213.7ZM491.403 208.25C491.953 208.25 492.412 208.312 492.778 208.437C493.145 208.562 493.437 208.742 493.653 208.975C493.878 209.208 494.037 209.492 494.128 209.825C494.22 210.158 494.266 210.529 494.266 210.937V214.812C493.999 214.871 493.628 214.937 493.153 215.013C492.678 215.096 492.103 215.138 491.428 215.138C491.003 215.138 490.616 215.1 490.266 215.025C489.924 214.95 489.628 214.829 489.378 214.662C489.128 214.487 488.937 214.262 488.803 213.987C488.67 213.712 488.603 213.375 488.603 212.975C488.603 212.592 488.678 212.267 488.828 212C488.987 211.733 489.195 211.521 489.453 211.362C489.712 211.204 490.007 211.092 490.341 211.025C490.674 210.95 491.02 210.912 491.378 210.912C491.62 210.912 491.832 210.925 492.016 210.95C492.207 210.967 492.362 210.992 492.478 211.025V210.85C492.478 210.533 492.382 210.279 492.191 210.087C491.999 209.896 491.666 209.8 491.191 209.8C490.874 209.8 490.562 209.825 490.253 209.875C489.945 209.917 489.678 209.979 489.453 210.062L489.216 208.562C489.324 208.529 489.457 208.496 489.616 208.462C489.782 208.421 489.962 208.387 490.153 208.362C490.345 208.329 490.545 208.304 490.753 208.287C490.97 208.262 491.187 208.25 491.403 208.25ZM500.162 211.762C500.162 211.187 500.033 210.729 499.775 210.387C499.517 210.037 499.133 209.862 498.625 209.862C498.458 209.862 498.304 209.871 498.162 209.887C498.021 209.896 497.904 209.908 497.812 209.925V213.287C497.929 213.362 498.079 213.425 498.262 213.475C498.454 213.525 498.646 213.55 498.837 213.55C499.721 213.55 500.162 212.954 500.162 211.762ZM502.062 211.712C502.062 212.221 502 212.683 501.875 213.1C501.75 213.517 501.567 213.875 501.325 214.175C501.083 214.475 500.783 214.708 500.425 214.875C500.067 215.042 499.654 215.125 499.187 215.125C498.929 215.125 498.687 215.1 498.462 215.05C498.237 215 498.021 214.929 497.812 214.837V217.313H495.95V208.65C496.117 208.6 496.308 208.554 496.525 208.512C496.742 208.462 496.967 208.421 497.2 208.387C497.442 208.354 497.683 208.329 497.925 208.312C498.175 208.287 498.412 208.275 498.637 208.275C499.179 208.275 499.662 208.358 500.087 208.525C500.512 208.683 500.871 208.912 501.162 209.212C501.454 209.504 501.675 209.862 501.825 210.287C501.983 210.712 502.062 211.187 502.062 211.712ZM503.181 211.762C503.181 211.179 503.269 210.671 503.444 210.237C503.627 209.796 503.865 209.429 504.156 209.137C504.448 208.846 504.781 208.625 505.156 208.475C505.54 208.325 505.931 208.25 506.331 208.25C507.265 208.25 508.002 208.537 508.544 209.112C509.086 209.679 509.356 210.517 509.356 211.625C509.356 211.733 509.352 211.854 509.344 211.987C509.336 212.112 509.327 212.225 509.319 212.325H505.094C505.136 212.708 505.315 213.012 505.631 213.237C505.948 213.462 506.373 213.575 506.906 213.575C507.248 213.575 507.581 213.546 507.906 213.487C508.24 213.421 508.511 213.342 508.719 213.25L508.969 214.762C508.869 214.812 508.736 214.862 508.569 214.912C508.402 214.962 508.215 215.004 508.006 215.038C507.806 215.079 507.59 215.113 507.356 215.138C507.123 215.163 506.89 215.175 506.656 215.175C506.065 215.175 505.548 215.088 505.106 214.912C504.673 214.737 504.311 214.5 504.019 214.2C503.736 213.892 503.523 213.529 503.381 213.112C503.248 212.696 503.181 212.246 503.181 211.762ZM507.556 211.05C507.548 210.892 507.519 210.737 507.469 210.587C507.427 210.437 507.356 210.304 507.256 210.187C507.165 210.071 507.044 209.975 506.894 209.9C506.752 209.825 506.573 209.787 506.356 209.787C506.148 209.787 505.969 209.825 505.819 209.9C505.669 209.967 505.544 210.058 505.444 210.175C505.344 210.292 505.265 210.429 505.206 210.587C505.156 210.737 505.119 210.892 505.094 211.05H507.556ZM512.381 211.662C512.381 212.237 512.51 212.7 512.769 213.05C513.027 213.4 513.41 213.575 513.919 213.575C514.085 213.575 514.24 213.571 514.381 213.562C514.523 213.546 514.64 213.529 514.731 213.512V210.125C514.615 210.05 514.46 209.987 514.269 209.937C514.085 209.887 513.898 209.862 513.706 209.862C512.823 209.862 512.381 210.462 512.381 211.662ZM516.594 214.787C516.427 214.837 516.235 214.887 516.019 214.937C515.802 214.979 515.573 215.017 515.331 215.05C515.098 215.083 514.856 215.108 514.606 215.125C514.365 215.15 514.131 215.163 513.906 215.163C513.365 215.163 512.881 215.083 512.456 214.925C512.031 214.767 511.673 214.542 511.381 214.25C511.09 213.95 510.865 213.592 510.706 213.175C510.556 212.75 510.481 212.275 510.481 211.75C510.481 211.217 510.548 210.737 510.681 210.312C510.815 209.879 511.006 209.512 511.256 209.212C511.506 208.912 511.81 208.683 512.169 208.525C512.535 208.367 512.952 208.287 513.419 208.287C513.677 208.287 513.906 208.312 514.106 208.362C514.315 208.412 514.523 208.483 514.731 208.575V205.6L516.594 205.3V214.787Z" fill="#4A4A4A"/>
<path d="M479.129 186.162C481.712 186.162 483.695 186.621 485.079 187.537C486.462 188.437 487.154 189.921 487.154 191.987C487.154 194.071 486.454 195.579 485.054 196.512C483.654 197.429 481.654 197.887 479.054 197.887H477.829V203.688H473.929V186.612C474.779 186.446 475.679 186.329 476.629 186.262C477.579 186.196 478.412 186.162 479.129 186.162ZM479.379 189.487C479.095 189.487 478.812 189.496 478.529 189.512C478.262 189.529 478.029 189.546 477.829 189.562V194.562H479.054C480.404 194.562 481.42 194.379 482.104 194.012C482.787 193.646 483.129 192.962 483.129 191.962C483.129 191.479 483.037 191.079 482.854 190.762C482.687 190.446 482.437 190.196 482.104 190.012C481.787 189.812 481.395 189.679 480.929 189.612C480.462 189.529 479.945 189.487 479.379 189.487ZM494.304 201.087C494.671 201.087 495.021 201.079 495.354 201.062C495.688 201.046 495.954 201.021 496.154 200.987V198.162C496.004 198.129 495.779 198.096 495.479 198.062C495.179 198.029 494.904 198.012 494.654 198.012C494.304 198.012 493.971 198.037 493.654 198.087C493.354 198.121 493.088 198.196 492.854 198.312C492.621 198.429 492.438 198.587 492.304 198.787C492.171 198.987 492.104 199.237 492.104 199.537C492.104 200.121 492.296 200.529 492.679 200.762C493.079 200.979 493.621 201.087 494.304 201.087ZM494.004 190.187C495.104 190.187 496.021 190.312 496.754 190.562C497.488 190.812 498.071 191.171 498.504 191.637C498.954 192.104 499.271 192.671 499.454 193.337C499.638 194.004 499.729 194.746 499.729 195.562V203.312C499.196 203.429 498.454 203.562 497.504 203.713C496.554 203.879 495.404 203.963 494.054 203.963C493.204 203.963 492.429 203.888 491.729 203.738C491.046 203.587 490.454 203.346 489.954 203.012C489.454 202.662 489.071 202.212 488.804 201.662C488.538 201.112 488.404 200.437 488.404 199.637C488.404 198.871 488.554 198.221 488.854 197.687C489.171 197.154 489.588 196.729 490.104 196.412C490.621 196.096 491.213 195.871 491.879 195.737C492.546 195.587 493.238 195.512 493.954 195.512C494.438 195.512 494.863 195.537 495.229 195.587C495.613 195.621 495.921 195.671 496.154 195.737V195.387C496.154 194.754 495.963 194.246 495.579 193.862C495.196 193.479 494.529 193.287 493.579 193.287C492.946 193.287 492.321 193.337 491.704 193.437C491.088 193.521 490.554 193.646 490.104 193.812L489.629 190.812C489.846 190.746 490.113 190.679 490.429 190.612C490.763 190.529 491.121 190.462 491.504 190.412C491.888 190.346 492.288 190.296 492.704 190.262C493.138 190.212 493.571 190.187 494.004 190.187ZM506.823 203.688H503.098V190.537H506.823V203.688ZM507.173 186.737C507.173 187.421 506.948 187.962 506.498 188.362C506.064 188.746 505.548 188.937 504.948 188.937C504.348 188.937 503.823 188.746 503.373 188.362C502.939 187.962 502.723 187.421 502.723 186.737C502.723 186.054 502.939 185.521 503.373 185.137C503.823 184.737 504.348 184.537 504.948 184.537C505.548 184.537 506.064 184.737 506.498 185.137C506.948 185.521 507.173 186.054 507.173 186.737ZM518.249 193.837C517.916 193.754 517.524 193.671 517.074 193.587C516.624 193.487 516.141 193.437 515.624 193.437C515.391 193.437 515.108 193.462 514.774 193.512C514.458 193.546 514.216 193.587 514.049 193.637V203.688H510.324V191.237C510.991 191.004 511.774 190.787 512.674 190.587C513.591 190.371 514.608 190.262 515.724 190.262C515.924 190.262 516.166 190.279 516.449 190.312C516.733 190.329 517.016 190.362 517.299 190.412C517.583 190.446 517.866 190.496 518.149 190.562C518.433 190.612 518.674 190.679 518.874 190.762L518.249 193.837Z" fill="#4A4A4A"/>
<path d="M684.688 211.188C682.021 214.979 677.833 217.938 672.125 220.062C666.458 222.188 660.104 223.25 653.062 223.25C645.938 223.25 639.604 221.542 634.062 218.125C628.521 214.708 624.229 209.875 621.188 203.625C618.146 197.375 616.604 190.208 616.562 182.125V170.625C616.562 158 619.75 148.042 626.125 140.75C632.5 133.417 641.062 129.75 651.812 129.75C661.188 129.75 668.729 132.146 674.438 136.938C680.146 141.688 683.542 148.25 684.625 156.625H676.938C675.812 149.958 673.083 144.917 668.75 141.5C664.458 138.042 658.833 136.312 651.875 136.312C643.375 136.312 636.646 139.333 631.688 145.375C626.729 151.417 624.25 159.938 624.25 170.938V181.688C624.25 188.604 625.417 194.729 627.75 200.062C630.125 205.354 633.5 209.458 637.875 212.375C642.292 215.292 647.354 216.75 653.062 216.75C659.688 216.75 665.375 215.708 670.125 213.625C673.208 212.25 675.5 210.646 677 208.812V185.312H652.562V178.812H684.688V211.188ZM714.188 184.938V222H706.5V131H737.5C746.958 131 754.417 133.417 759.875 138.25C765.375 143.083 768.125 149.729 768.125 158.188C768.125 166.729 765.479 173.333 760.188 178C754.938 182.625 747.312 184.938 737.312 184.938H714.188ZM714.188 178.438H737.5C744.958 178.438 750.646 176.667 754.562 173.125C758.479 169.583 760.438 164.646 760.438 158.312C760.438 152.021 758.479 147.021 754.562 143.312C750.688 139.562 745.167 137.646 738 137.562H714.188V178.438ZM836.875 199.625C836.875 194.583 835.104 190.604 831.562 187.688C828.021 184.729 821.542 181.938 812.125 179.312C802.708 176.646 795.833 173.75 791.5 170.625C785.333 166.208 782.25 160.417 782.25 153.25C782.25 146.292 785.104 140.646 790.812 136.312C796.562 131.938 803.896 129.75 812.812 129.75C818.854 129.75 824.25 130.917 829 133.25C833.792 135.583 837.5 138.833 840.125 143C842.75 147.167 844.062 151.812 844.062 156.938H836.312C836.312 150.729 834.188 145.75 829.938 142C825.688 138.208 819.979 136.312 812.812 136.312C805.854 136.312 800.312 137.875 796.188 141C792.062 144.083 790 148.125 790 153.125C790 157.75 791.854 161.521 795.562 164.438C799.271 167.354 805.208 169.938 813.375 172.188C821.542 174.396 827.729 176.708 831.938 179.125C836.146 181.5 839.312 184.354 841.438 187.688C843.562 191.021 844.625 194.958 844.625 199.5C844.625 206.667 841.75 212.417 836 216.75C830.292 221.083 822.75 223.25 813.375 223.25C806.958 223.25 801.062 222.104 795.688 219.812C790.354 217.521 786.292 214.312 783.5 210.188C780.75 206.062 779.375 201.333 779.375 196H787.062C787.062 202.417 789.458 207.479 794.25 211.188C799.042 214.896 805.417 216.75 813.375 216.75C820.458 216.75 826.146 215.188 830.438 212.062C834.729 208.938 836.875 204.792 836.875 199.625Z" fill="#424242"/>
<path d="M280.808 313.916C280.401 317.66 279.058 320.524 276.779 322.51C274.517 324.495 271.498 325.488 267.722 325.488C265.085 325.488 262.749 324.829 260.715 323.511C258.697 322.192 257.134 320.329 256.027 317.92C254.921 315.495 254.359 312.728 254.343 309.619V305.005C254.343 301.847 254.896 299.048 256.003 296.606C257.11 294.165 258.697 292.285 260.764 290.967C262.847 289.632 265.24 288.965 267.941 288.965C271.75 288.965 274.753 289.998 276.95 292.065C279.164 294.116 280.45 296.956 280.808 300.586H277.78C277.032 294.548 273.752 291.528 267.941 291.528C264.719 291.528 262.147 292.733 260.227 295.142C258.322 297.55 257.37 300.879 257.37 305.127V309.473C257.37 313.574 258.298 316.846 260.153 319.287C262.025 321.729 264.548 322.949 267.722 322.949C270.863 322.949 273.231 322.201 274.826 320.703C276.421 319.189 277.406 316.927 277.78 313.916H280.808ZM304.099 325C303.806 324.17 303.618 322.941 303.537 321.313C302.512 322.648 301.201 323.682 299.606 324.414C298.028 325.13 296.351 325.488 294.577 325.488C292.038 325.488 289.979 324.78 288.4 323.364C286.838 321.948 286.057 320.158 286.057 317.993C286.057 315.422 287.123 313.387 289.255 311.89C291.403 310.392 294.39 309.644 298.215 309.644H303.513V306.641C303.513 304.753 302.927 303.271 301.755 302.197C300.599 301.107 298.907 300.562 296.677 300.562C294.642 300.562 292.958 301.082 291.623 302.124C290.288 303.166 289.621 304.419 289.621 305.884L286.691 305.859C286.691 303.76 287.668 301.945 289.621 300.415C291.574 298.869 293.975 298.096 296.823 298.096C299.769 298.096 302.089 298.836 303.781 300.317C305.49 301.782 306.369 303.833 306.418 306.47V318.97C306.418 321.525 306.687 323.438 307.224 324.707V325H304.099ZM294.919 322.9C296.872 322.9 298.614 322.428 300.144 321.484C301.69 320.54 302.813 319.279 303.513 317.7V311.89H298.288C295.375 311.922 293.096 312.459 291.452 313.501C289.808 314.526 288.986 315.942 288.986 317.749C288.986 319.23 289.532 320.459 290.622 321.436C291.729 322.412 293.161 322.9 294.919 322.9ZM326.438 301.074C325.819 300.96 325.16 300.903 324.46 300.903C322.637 300.903 321.091 301.416 319.821 302.441C318.568 303.451 317.673 304.924 317.136 306.86V325H314.23V298.584H317.087L317.136 302.783C318.682 299.658 321.164 298.096 324.582 298.096C325.396 298.096 326.039 298.201 326.511 298.413L326.438 301.074ZM329.416 311.548C329.416 307.446 330.327 304.183 332.15 301.758C333.99 299.316 336.48 298.096 339.621 298.096C343.186 298.096 345.904 299.504 347.775 302.319V287.5H350.681V325H347.946L347.824 321.484C345.952 324.154 343.202 325.488 339.572 325.488C336.529 325.488 334.071 324.268 332.199 321.826C330.344 319.368 329.416 316.056 329.416 311.89V311.548ZM332.37 312.061C332.37 315.43 333.046 318.091 334.396 320.044C335.747 321.981 337.652 322.949 340.109 322.949C343.706 322.949 346.262 321.362 347.775 318.188V305.786C346.262 302.352 343.723 300.635 340.158 300.635C337.701 300.635 335.788 301.603 334.421 303.54C333.054 305.461 332.37 308.301 332.37 312.061ZM374.191 318.286C374.191 316.838 373.605 315.674 372.434 314.795C371.278 313.916 369.528 313.232 367.185 312.744C364.841 312.24 363.018 311.67 361.716 311.035C360.43 310.384 359.47 309.595 358.835 308.667C358.216 307.739 357.907 306.616 357.907 305.298C357.907 303.215 358.778 301.497 360.52 300.146C362.261 298.779 364.491 298.096 367.209 298.096C370.155 298.096 372.515 298.828 374.289 300.293C376.079 301.742 376.975 303.638 376.975 305.981H374.045C374.045 304.435 373.394 303.149 372.092 302.124C370.806 301.099 369.178 300.586 367.209 300.586C365.288 300.586 363.742 301.017 362.57 301.88C361.415 302.726 360.837 303.833 360.837 305.2C360.837 306.519 361.317 307.544 362.277 308.276C363.254 308.993 365.02 309.652 367.575 310.254C370.147 310.856 372.067 311.499 373.337 312.183C374.623 312.866 375.575 313.688 376.193 314.648C376.812 315.609 377.121 316.772 377.121 318.14C377.121 320.369 376.218 322.152 374.411 323.486C372.621 324.821 370.277 325.488 367.38 325.488C364.304 325.488 361.805 324.748 359.885 323.267C357.98 321.769 357.028 319.881 357.028 317.603H359.958C360.072 319.312 360.788 320.646 362.106 321.606C363.441 322.55 365.199 323.022 367.38 323.022C369.414 323.022 371.058 322.575 372.312 321.68C373.565 320.785 374.191 319.653 374.191 318.286ZM415.744 315.039H399.606L395.944 325H392.795L406.247 289.453H409.104L422.556 325H419.431L415.744 315.039ZM400.534 312.476H414.792L407.663 293.115L400.534 312.476ZM425.949 311.548C425.949 307.414 426.861 304.142 428.684 301.733C430.523 299.308 433.013 298.096 436.154 298.096C439.751 298.096 442.486 299.528 444.357 302.393L444.504 298.584H447.238V324.463C447.238 327.865 446.286 330.558 444.382 332.544C442.478 334.53 439.898 335.522 436.643 335.522C434.803 335.522 433.046 335.107 431.369 334.277C429.709 333.464 428.399 332.373 427.438 331.006L429.074 329.248C431.141 331.787 433.599 333.057 436.447 333.057C438.889 333.057 440.793 332.332 442.16 330.884C443.527 329.451 444.235 327.458 444.284 324.902V321.582C442.412 324.186 439.686 325.488 436.105 325.488C433.046 325.488 430.588 324.268 428.732 321.826C426.877 319.385 425.949 316.089 425.949 311.938V311.548ZM428.903 312.061C428.903 315.43 429.579 318.091 430.93 320.044C432.281 321.981 434.185 322.949 436.643 322.949C440.24 322.949 442.787 321.338 444.284 318.115V305.835C443.601 304.142 442.616 302.856 441.33 301.978C440.044 301.082 438.498 300.635 436.691 300.635C434.234 300.635 432.321 301.603 430.954 303.54C429.587 305.461 428.903 308.301 428.903 312.061ZM471.53 325C471.237 324.17 471.05 322.941 470.969 321.313C469.943 322.648 468.633 323.682 467.038 324.414C465.459 325.13 463.783 325.488 462.009 325.488C459.47 325.488 457.411 324.78 455.832 323.364C454.27 321.948 453.488 320.158 453.488 317.993C453.488 315.422 454.554 313.387 456.687 311.89C458.835 310.392 461.822 309.644 465.646 309.644H470.944V306.641C470.944 304.753 470.358 303.271 469.187 302.197C468.031 301.107 466.338 300.562 464.108 300.562C462.074 300.562 460.389 301.082 459.055 302.124C457.72 303.166 457.053 304.419 457.053 305.884L454.123 305.859C454.123 303.76 455.1 301.945 457.053 300.415C459.006 298.869 461.407 298.096 464.255 298.096C467.201 298.096 469.52 298.836 471.213 300.317C472.922 301.782 473.801 303.833 473.85 306.47V318.97C473.85 321.525 474.118 323.438 474.655 324.707V325H471.53ZM462.351 322.9C464.304 322.9 466.045 322.428 467.575 321.484C469.121 320.54 470.244 319.279 470.944 317.7V311.89H465.72C462.806 311.922 460.528 312.459 458.884 313.501C457.24 314.526 456.418 315.942 456.418 317.749C456.418 319.23 456.963 320.459 458.054 321.436C459.16 322.412 460.593 322.9 462.351 322.9ZM484.934 325H482.004V298.584H484.934V325ZM481.491 290.942C481.491 290.389 481.67 289.925 482.028 289.551C482.386 289.16 482.875 288.965 483.493 288.965C484.112 288.965 484.6 289.16 484.958 289.551C485.332 289.925 485.52 290.389 485.52 290.942C485.52 291.496 485.332 291.96 484.958 292.334C484.6 292.708 484.112 292.896 483.493 292.896C482.875 292.896 482.386 292.708 482.028 292.334C481.67 291.96 481.491 291.496 481.491 290.942ZM495.676 298.584L495.773 303.101C496.766 301.473 498.003 300.236 499.484 299.39C500.965 298.527 502.601 298.096 504.392 298.096C507.224 298.096 509.331 298.893 510.715 300.488C512.098 302.083 512.798 304.476 512.814 307.666V325H509.909V307.642C509.893 305.282 509.388 303.524 508.396 302.368C507.419 301.213 505.848 300.635 503.684 300.635C501.877 300.635 500.274 301.204 498.874 302.344C497.491 303.467 496.465 304.989 495.798 306.909V325H492.893V298.584H495.676ZM536.203 318.286C536.203 316.838 535.617 315.674 534.445 314.795C533.29 313.916 531.54 313.232 529.196 312.744C526.853 312.24 525.03 311.67 523.728 311.035C522.442 310.384 521.481 309.595 520.847 308.667C520.228 307.739 519.919 306.616 519.919 305.298C519.919 303.215 520.79 301.497 522.531 300.146C524.273 298.779 526.503 298.096 529.221 298.096C532.167 298.096 534.527 298.828 536.301 300.293C538.091 301.742 538.986 303.638 538.986 305.981H536.057C536.057 304.435 535.406 303.149 534.104 302.124C532.818 301.099 531.19 300.586 529.221 300.586C527.3 300.586 525.754 301.017 524.582 301.88C523.426 302.726 522.849 303.833 522.849 305.2C522.849 306.519 523.329 307.544 524.289 308.276C525.266 308.993 527.032 309.652 529.587 310.254C532.159 310.856 534.079 311.499 535.349 312.183C536.634 312.866 537.587 313.688 538.205 314.648C538.824 315.609 539.133 316.772 539.133 318.14C539.133 320.369 538.229 322.152 536.423 323.486C534.632 324.821 532.289 325.488 529.392 325.488C526.315 325.488 523.817 324.748 521.896 323.267C519.992 321.769 519.04 319.881 519.04 317.603H521.97C522.084 319.312 522.8 320.646 524.118 321.606C525.453 322.55 527.211 323.022 529.392 323.022C531.426 323.022 533.07 322.575 534.323 321.68C535.576 320.785 536.203 319.653 536.203 318.286ZM550.266 291.821V298.584H555.734V300.977H550.266V318.579C550.266 320.044 550.526 321.134 551.047 321.851C551.584 322.567 552.471 322.925 553.708 322.925C554.196 322.925 554.986 322.843 556.076 322.681L556.198 325.073C555.433 325.35 554.392 325.488 553.073 325.488C551.071 325.488 549.615 324.91 548.703 323.755C547.792 322.583 547.336 320.866 547.336 318.604V300.977H542.478V298.584H547.336V291.821H550.266ZM600.974 325H597.946V307.959H577.634V325H574.631V289.453H577.634V305.42H597.946V289.453H600.974V325ZM626.34 321.655C624.582 324.211 621.774 325.488 617.917 325.488C615.101 325.488 612.961 324.674 611.496 323.047C610.031 321.403 609.283 318.978 609.25 315.771V298.584H612.155V315.405C612.155 320.435 614.19 322.949 618.259 322.949C622.491 322.949 625.168 321.2 626.291 317.7V298.584H629.221V325H626.389L626.34 321.655ZM639.499 298.584L639.597 302.881C640.573 301.286 641.794 300.09 643.259 299.292C644.724 298.494 646.351 298.096 648.142 298.096C652.308 298.096 654.953 299.805 656.076 303.223C657.02 301.579 658.282 300.317 659.86 299.438C661.439 298.543 663.181 298.096 665.085 298.096C670.749 298.096 673.638 301.188 673.752 307.373V325H670.822V307.593C670.806 305.233 670.293 303.483 669.284 302.344C668.291 301.204 666.664 300.635 664.401 300.635C662.302 300.667 660.528 301.351 659.079 302.686C657.631 304.004 656.825 305.615 656.662 307.52V325H653.732V307.373C653.716 305.111 653.179 303.426 652.121 302.319C651.079 301.196 649.468 300.635 647.287 300.635C645.448 300.635 643.869 301.164 642.551 302.222C641.232 303.263 640.256 304.818 639.621 306.885V325H636.691V298.584H639.499ZM697.849 325C697.556 324.17 697.368 322.941 697.287 321.313C696.262 322.648 694.951 323.682 693.356 324.414C691.778 325.13 690.101 325.488 688.327 325.488C685.788 325.488 683.729 324.78 682.15 323.364C680.588 321.948 679.807 320.158 679.807 317.993C679.807 315.422 680.873 313.387 683.005 311.89C685.153 310.392 688.14 309.644 691.965 309.644H697.263V306.641C697.263 304.753 696.677 303.271 695.505 302.197C694.349 301.107 692.657 300.562 690.427 300.562C688.392 300.562 686.708 301.082 685.373 302.124C684.038 303.166 683.371 304.419 683.371 305.884L680.441 305.859C680.441 303.76 681.418 301.945 683.371 300.415C685.324 298.869 687.725 298.096 690.573 298.096C693.519 298.096 695.839 298.836 697.531 300.317C699.24 301.782 700.119 303.833 700.168 306.47V318.97C700.168 321.525 700.437 323.438 700.974 324.707V325H697.849ZM688.669 322.9C690.622 322.9 692.364 322.428 693.894 321.484C695.44 320.54 696.563 319.279 697.263 317.7V311.89H692.038C689.125 311.922 686.846 312.459 685.202 313.501C683.558 314.526 682.736 315.942 682.736 317.749C682.736 319.23 683.282 320.459 684.372 321.436C685.479 322.412 686.911 322.9 688.669 322.9ZM710.764 298.584L710.861 303.101C711.854 301.473 713.091 300.236 714.572 299.39C716.053 298.527 717.689 298.096 719.479 298.096C722.312 298.096 724.419 298.893 725.803 300.488C727.186 302.083 727.886 304.476 727.902 307.666V325H724.997V307.642C724.981 305.282 724.476 303.524 723.483 302.368C722.507 301.213 720.936 300.635 718.771 300.635C716.965 300.635 715.362 301.204 713.962 302.344C712.578 303.467 711.553 304.989 710.886 306.909V325H707.98V298.584H710.764ZM738.742 325H735.812V298.584H738.742V325ZM735.3 290.942C735.3 290.389 735.479 289.925 735.837 289.551C736.195 289.16 736.683 288.965 737.302 288.965C737.92 288.965 738.409 289.16 738.767 289.551C739.141 289.925 739.328 290.389 739.328 290.942C739.328 291.496 739.141 291.96 738.767 292.334C738.409 292.708 737.92 292.896 737.302 292.896C736.683 292.896 736.195 292.708 735.837 292.334C735.479 291.96 735.3 291.496 735.3 290.942ZM751.242 291.821V298.584H756.711V300.977H751.242V318.579C751.242 320.044 751.503 321.134 752.023 321.851C752.561 322.567 753.448 322.925 754.685 322.925C755.173 322.925 755.962 322.843 757.053 322.681L757.175 325.073C756.41 325.35 755.368 325.488 754.05 325.488C752.048 325.488 750.591 324.91 749.68 323.755C748.768 322.583 748.312 320.866 748.312 318.604V300.977H743.454V298.584H748.312V291.821H751.242ZM771.14 320.801L778.854 298.584H782.004L770.725 329.492L770.139 330.859C768.69 334.066 766.452 335.669 763.425 335.669C762.725 335.669 761.976 335.555 761.179 335.327L761.154 332.91L762.668 333.057C764.1 333.057 765.256 332.699 766.135 331.982C767.03 331.283 767.787 330.07 768.405 328.345L769.699 324.78L759.738 298.584H762.937L771.14 320.801ZM797.092 311.401C797.092 308.862 797.58 306.576 798.557 304.541C799.549 302.507 800.941 300.928 802.731 299.805C804.538 298.665 806.581 298.096 808.859 298.096C812.375 298.096 815.223 299.333 817.404 301.807C819.585 304.264 820.676 307.528 820.676 311.597V312.207C820.676 314.762 820.179 317.065 819.187 319.116C818.21 321.151 816.826 322.721 815.036 323.828C813.246 324.935 811.203 325.488 808.908 325.488C805.409 325.488 802.561 324.259 800.363 321.802C798.182 319.328 797.092 316.056 797.092 311.987V311.401ZM800.021 312.207C800.021 315.365 800.835 317.961 802.463 319.995C804.107 322.013 806.255 323.022 808.908 323.022C811.545 323.022 813.677 322.013 815.305 319.995C816.949 317.961 817.771 315.283 817.771 311.963V311.401C817.771 309.383 817.396 307.536 816.647 305.859C815.899 304.183 814.849 302.889 813.498 301.978C812.147 301.05 810.601 300.586 808.859 300.586C806.255 300.586 804.131 301.611 802.487 303.662C800.843 305.697 800.021 308.366 800.021 311.67V312.207ZM829.514 298.584L829.611 303.101C830.604 301.473 831.841 300.236 833.322 299.39C834.803 298.527 836.439 298.096 838.229 298.096C841.062 298.096 843.169 298.893 844.553 300.488C845.936 302.083 846.636 304.476 846.652 307.666V325H843.747V307.642C843.731 305.282 843.226 303.524 842.233 302.368C841.257 301.213 839.686 300.635 837.521 300.635C835.715 300.635 834.112 301.204 832.712 302.344C831.328 303.467 830.303 304.989 829.636 306.909V325H826.73V298.584H829.514ZM867.062 325V289.453H876.999C879.912 289.453 882.525 290.12 884.836 291.455C887.147 292.773 888.946 294.67 890.231 297.144C891.534 299.618 892.185 302.433 892.185 305.591V308.862C892.185 312.036 891.542 314.852 890.256 317.31C888.97 319.767 887.155 321.663 884.812 322.998C882.484 324.333 879.807 325 876.779 325H867.062ZM870.065 292.017V322.461H876.804C880.547 322.461 883.55 321.224 885.812 318.75C888.075 316.26 889.206 312.899 889.206 308.667V305.542C889.206 301.457 888.091 298.185 885.861 295.728C883.632 293.27 880.694 292.033 877.048 292.017H870.065ZM902.414 325H899.484V298.584H902.414V325ZM898.972 290.942C898.972 290.389 899.151 289.925 899.509 289.551C899.867 289.16 900.355 288.965 900.974 288.965C901.592 288.965 902.08 289.16 902.438 289.551C902.813 289.925 903 290.389 903 290.942C903 291.496 902.813 291.96 902.438 292.334C902.08 292.708 901.592 292.896 900.974 292.896C900.355 292.896 899.867 292.708 899.509 292.334C899.151 291.96 898.972 291.496 898.972 290.942ZM926.193 318.286C926.193 316.838 925.607 315.674 924.436 314.795C923.28 313.916 921.53 313.232 919.187 312.744C916.843 312.24 915.02 311.67 913.718 311.035C912.432 310.384 911.472 309.595 910.837 308.667C910.218 307.739 909.909 306.616 909.909 305.298C909.909 303.215 910.78 301.497 912.521 300.146C914.263 298.779 916.493 298.096 919.211 298.096C922.157 298.096 924.517 298.828 926.291 300.293C928.081 301.742 928.977 303.638 928.977 305.981H926.047C926.047 304.435 925.396 303.149 924.094 302.124C922.808 301.099 921.18 300.586 919.211 300.586C917.29 300.586 915.744 301.017 914.572 301.88C913.417 302.726 912.839 303.833 912.839 305.2C912.839 306.519 913.319 307.544 914.279 308.276C915.256 308.993 917.022 309.652 919.577 310.254C922.149 310.856 924.069 311.499 925.339 312.183C926.625 312.866 927.577 313.688 928.195 314.648C928.814 315.609 929.123 316.772 929.123 318.14C929.123 320.369 928.22 322.152 926.413 323.486C924.623 324.821 922.279 325.488 919.382 325.488C916.306 325.488 913.807 324.748 911.887 323.267C909.982 321.769 909.03 319.881 909.03 317.603H911.96C912.074 319.312 912.79 320.646 914.108 321.606C915.443 322.55 917.201 323.022 919.382 323.022C921.416 323.022 923.06 322.575 924.313 321.68C925.567 320.785 926.193 319.653 926.193 318.286ZM945.48 323.022C947.515 323.022 949.216 322.453 950.583 321.313C951.966 320.158 952.715 318.669 952.829 316.846H955.637C955.555 318.457 955.051 319.93 954.123 321.265C953.195 322.583 951.958 323.617 950.412 324.365C948.882 325.114 947.238 325.488 945.48 325.488C942.014 325.488 939.263 324.284 937.229 321.875C935.21 319.466 934.201 316.227 934.201 312.158V311.279C934.201 308.675 934.657 306.372 935.568 304.37C936.48 302.368 937.782 300.822 939.475 299.731C941.184 298.641 943.177 298.096 945.456 298.096C948.353 298.096 950.738 298.958 952.609 300.684C954.497 302.409 955.507 304.679 955.637 307.495H952.829C952.699 305.428 951.95 303.76 950.583 302.49C949.232 301.221 947.523 300.586 945.456 300.586C942.819 300.586 940.769 301.538 939.304 303.442C937.855 305.347 937.131 308.016 937.131 311.45V312.305C937.131 315.674 937.855 318.302 939.304 320.19C940.769 322.078 942.827 323.022 945.48 323.022ZM959.885 311.401C959.885 308.862 960.373 306.576 961.35 304.541C962.342 302.507 963.734 300.928 965.524 299.805C967.331 298.665 969.374 298.096 971.652 298.096C975.168 298.096 978.016 299.333 980.197 301.807C982.378 304.264 983.469 307.528 983.469 311.597V312.207C983.469 314.762 982.972 317.065 981.979 319.116C981.003 321.151 979.619 322.721 977.829 323.828C976.039 324.935 973.996 325.488 971.701 325.488C968.202 325.488 965.354 324.259 963.156 321.802C960.975 319.328 959.885 316.056 959.885 311.987V311.401ZM962.814 312.207C962.814 315.365 963.628 317.961 965.256 319.995C966.9 322.013 969.048 323.022 971.701 323.022C974.338 323.022 976.47 322.013 978.098 319.995C979.742 317.961 980.563 315.283 980.563 311.963V311.401C980.563 309.383 980.189 307.536 979.44 305.859C978.692 304.183 977.642 302.889 976.291 301.978C974.94 301.05 973.394 300.586 971.652 300.586C969.048 300.586 966.924 301.611 965.28 303.662C963.636 305.697 962.814 308.366 962.814 311.67V312.207ZM1001.73 301.074C1001.11 300.96 1000.45 300.903 999.753 300.903C997.93 300.903 996.384 301.416 995.114 302.441C993.861 303.451 992.966 304.924 992.429 306.86V325H989.523V298.584H992.38L992.429 302.783C993.975 299.658 996.457 298.096 999.875 298.096C1000.69 298.096 1001.33 298.201 1001.8 298.413L1001.73 301.074ZM1004.71 311.548C1004.71 307.446 1005.62 304.183 1007.44 301.758C1009.28 299.316 1011.77 298.096 1014.91 298.096C1018.48 298.096 1021.2 299.504 1023.07 302.319V287.5H1025.97V325H1023.24L1023.12 321.484C1021.25 324.154 1018.49 325.488 1014.87 325.488C1011.82 325.488 1009.36 324.268 1007.49 321.826C1005.64 319.368 1004.71 316.056 1004.71 311.89V311.548ZM1007.66 312.061C1007.66 315.43 1008.34 318.091 1009.69 320.044C1011.04 321.981 1012.94 322.949 1015.4 322.949C1019 322.949 1021.55 321.362 1023.07 318.188V305.786C1021.55 302.352 1019.02 300.635 1015.45 300.635C1012.99 300.635 1011.08 301.603 1009.71 303.54C1008.35 305.461 1007.66 308.301 1007.66 312.061Z" fill="#424242"/>
<path d="M873 529V506.25H879.719C882.156 506.25 884.005 506.755 885.266 507.766C886.526 508.766 887.156 510.245 887.156 512.203C887.156 513.38 886.833 514.406 886.188 515.281C885.552 516.146 884.677 516.766 883.562 517.141C884.885 517.432 885.948 518.083 886.75 519.094C887.562 520.104 887.969 521.271 887.969 522.594C887.969 524.604 887.318 526.177 886.016 527.312C884.724 528.438 882.922 529 880.609 529H873ZM874.922 518.062V527.375H880.688C882.333 527.375 883.635 526.958 884.594 526.125C885.562 525.281 886.047 524.115 886.047 522.625C886.047 521.219 885.583 520.109 884.656 519.297C883.74 518.474 882.469 518.062 880.844 518.062H874.922ZM874.922 516.453H880.172C881.776 516.422 883.016 516.047 883.891 515.328C884.776 514.599 885.219 513.542 885.219 512.156C885.219 510.698 884.76 509.625 883.844 508.938C882.938 508.24 881.562 507.891 879.719 507.891H874.922V516.453ZM897.547 526.312L902.484 512.094H904.5L897.281 531.875L896.906 532.75C895.979 534.802 894.547 535.828 892.609 535.828C892.161 535.828 891.682 535.755 891.172 535.609L891.156 534.062L892.125 534.156C893.042 534.156 893.781 533.927 894.344 533.469C894.917 533.021 895.401 532.245 895.797 531.141L896.625 528.859L890.25 512.094H892.297L897.547 526.312ZM931.734 521.906C931.474 524.302 930.615 526.135 929.156 527.406C927.708 528.677 925.776 529.312 923.359 529.312C921.672 529.312 920.177 528.891 918.875 528.047C917.583 527.203 916.583 526.01 915.875 524.469C915.167 522.917 914.807 521.146 914.797 519.156V516.203C914.797 514.182 915.151 512.391 915.859 510.828C916.568 509.266 917.583 508.062 918.906 507.219C920.24 506.365 921.771 505.938 923.5 505.938C925.938 505.938 927.859 506.599 929.266 507.922C930.682 509.234 931.505 511.052 931.734 513.375H929.797C929.318 509.51 927.219 507.578 923.5 507.578C921.438 507.578 919.792 508.349 918.562 509.891C917.344 511.432 916.734 513.562 916.734 516.281V519.062C916.734 521.688 917.328 523.781 918.516 525.344C919.714 526.906 921.328 527.688 923.359 527.688C925.37 527.688 926.885 527.208 927.906 526.25C928.927 525.281 929.557 523.833 929.797 521.906H931.734ZM938.062 529H936.188V505H938.062V529ZM945.25 529H943.375V512.094H945.25V529ZM943.047 507.203C943.047 506.849 943.161 506.552 943.391 506.312C943.62 506.062 943.932 505.938 944.328 505.938C944.724 505.938 945.036 506.062 945.266 506.312C945.505 506.552 945.625 506.849 945.625 507.203C945.625 507.557 945.505 507.854 945.266 508.094C945.036 508.333 944.724 508.453 944.328 508.453C943.932 508.453 943.62 508.333 943.391 508.094C943.161 507.854 943.047 507.557 943.047 507.203ZM956.594 527.734C957.896 527.734 958.984 527.37 959.859 526.641C960.745 525.901 961.224 524.948 961.297 523.781H963.094C963.042 524.812 962.719 525.755 962.125 526.609C961.531 527.453 960.74 528.115 959.75 528.594C958.771 529.073 957.719 529.312 956.594 529.312C954.375 529.312 952.615 528.542 951.312 527C950.021 525.458 949.375 523.385 949.375 520.781V520.219C949.375 518.552 949.667 517.078 950.25 515.797C950.833 514.516 951.667 513.526 952.75 512.828C953.844 512.13 955.12 511.781 956.578 511.781C958.432 511.781 959.958 512.333 961.156 513.438C962.365 514.542 963.01 515.995 963.094 517.797H961.297C961.214 516.474 960.734 515.406 959.859 514.594C958.995 513.781 957.901 513.375 956.578 513.375C954.891 513.375 953.578 513.984 952.641 515.203C951.714 516.422 951.25 518.13 951.25 520.328V520.875C951.25 523.031 951.714 524.714 952.641 525.922C953.578 527.13 954.896 527.734 956.594 527.734ZM970.859 520.484L968.719 522.547V529H966.844V505H968.719V520.359L970.484 518.453L976.953 512.094H979.312L972.141 519.219L979.938 529H977.703L970.859 520.484ZM992.656 524.703C992.656 523.776 992.281 523.031 991.531 522.469C990.792 521.906 989.672 521.469 988.172 521.156C986.672 520.833 985.505 520.469 984.672 520.062C983.849 519.646 983.234 519.141 982.828 518.547C982.432 517.953 982.234 517.234 982.234 516.391C982.234 515.057 982.792 513.958 983.906 513.094C985.021 512.219 986.448 511.781 988.188 511.781C990.073 511.781 991.583 512.25 992.719 513.188C993.865 514.115 994.438 515.328 994.438 516.828H992.562C992.562 515.839 992.146 515.016 991.312 514.359C990.49 513.703 989.448 513.375 988.188 513.375C986.958 513.375 985.969 513.651 985.219 514.203C984.479 514.745 984.109 515.453 984.109 516.328C984.109 517.172 984.417 517.828 985.031 518.297C985.656 518.755 986.786 519.177 988.422 519.562C990.068 519.948 991.297 520.359 992.109 520.797C992.932 521.234 993.542 521.76 993.938 522.375C994.333 522.99 994.531 523.734 994.531 524.609C994.531 526.036 993.953 527.177 992.797 528.031C991.651 528.885 990.151 529.312 988.297 529.312C986.328 529.312 984.729 528.839 983.5 527.891C982.281 526.932 981.672 525.724 981.672 524.266H983.547C983.62 525.359 984.078 526.214 984.922 526.828C985.776 527.432 986.901 527.734 988.297 527.734C989.599 527.734 990.651 527.448 991.453 526.875C992.255 526.302 992.656 525.578 992.656 524.703ZM1001.73 506.25L1010.12 526.328L1018.55 506.25H1021.11V529H1019.19V519.094L1019.34 508.938L1010.88 529H1009.39L1000.95 509.016L1001.11 519.031V529H999.188V506.25H1001.73ZM1028.53 529H1026.66V512.094H1028.53V529ZM1026.33 507.203C1026.33 506.849 1026.44 506.552 1026.67 506.312C1026.9 506.062 1027.21 505.938 1027.61 505.938C1028.01 505.938 1028.32 506.062 1028.55 506.312C1028.79 506.552 1028.91 506.849 1028.91 507.203C1028.91 507.557 1028.79 507.854 1028.55 508.094C1028.32 508.333 1028.01 508.453 1027.61 508.453C1027.21 508.453 1026.9 508.333 1026.67 508.094C1026.44 507.854 1026.33 507.557 1026.33 507.203ZM1035.41 512.094L1035.47 514.984C1036.1 513.943 1036.9 513.151 1037.84 512.609C1038.79 512.057 1039.84 511.781 1040.98 511.781C1042.8 511.781 1044.15 512.292 1045.03 513.312C1045.92 514.333 1046.36 515.865 1046.38 517.906V529H1044.52V517.891C1044.51 516.38 1044.18 515.255 1043.55 514.516C1042.92 513.776 1041.92 513.406 1040.53 513.406C1039.38 513.406 1038.35 513.771 1037.45 514.5C1036.57 515.219 1035.91 516.193 1035.48 517.422V529H1033.62V512.094H1035.41ZM1062.09 526.859C1060.97 528.495 1059.17 529.312 1056.7 529.312C1054.9 529.312 1053.53 528.792 1052.59 527.75C1051.66 526.698 1051.18 525.146 1051.16 523.094V512.094H1053.02V522.859C1053.02 526.078 1054.32 527.688 1056.92 527.688C1059.63 527.688 1061.34 526.568 1062.06 524.328V512.094H1063.94V529H1062.12L1062.09 526.859ZM1071.72 507.766V512.094H1075.22V513.625H1071.72V524.891C1071.72 525.828 1071.89 526.526 1072.22 526.984C1072.56 527.443 1073.13 527.672 1073.92 527.672C1074.23 527.672 1074.74 527.62 1075.44 527.516L1075.52 529.047C1075.03 529.224 1074.36 529.312 1073.52 529.312C1072.23 529.312 1071.3 528.943 1070.72 528.203C1070.14 527.453 1069.84 526.354 1069.84 524.906V513.625H1066.73V512.094H1069.84V507.766H1071.72ZM1085.64 529.312C1084.2 529.312 1082.9 528.958 1081.73 528.25C1080.58 527.542 1079.68 526.557 1079.03 525.297C1078.39 524.026 1078.06 522.604 1078.06 521.031V520.359C1078.06 518.734 1078.38 517.271 1079 515.969C1079.64 514.667 1080.52 513.646 1081.64 512.906C1082.77 512.156 1083.98 511.781 1085.3 511.781C1087.35 511.781 1088.97 512.484 1090.17 513.891C1091.38 515.286 1091.98 517.198 1091.98 519.625V520.672H1079.92V521.031C1079.92 522.948 1080.47 524.547 1081.56 525.828C1082.67 527.099 1084.05 527.734 1085.72 527.734C1086.72 527.734 1087.6 527.552 1088.36 527.188C1089.13 526.823 1089.83 526.24 1090.45 525.438L1091.62 526.328C1090.25 528.318 1088.26 529.312 1085.64 529.312ZM1085.3 513.375C1083.89 513.375 1082.7 513.891 1081.73 514.922C1080.78 515.953 1080.19 517.339 1079.98 519.078H1090.12V518.875C1090.07 517.25 1089.61 515.927 1088.73 514.906C1087.86 513.885 1086.71 513.375 1085.3 513.375ZM1097.98 519.734V529H1096.06V506.25H1103.81C1106.18 506.25 1108.04 506.854 1109.41 508.062C1110.78 509.271 1111.47 510.932 1111.47 513.047C1111.47 515.182 1110.81 516.833 1109.48 518C1108.17 519.156 1106.27 519.734 1103.77 519.734H1097.98ZM1097.98 518.109H1103.81C1105.68 518.109 1107.1 517.667 1108.08 516.781C1109.06 515.896 1109.55 514.661 1109.55 513.078C1109.55 511.505 1109.06 510.255 1108.08 509.328C1107.11 508.391 1105.73 507.911 1103.94 507.891H1097.98V518.109ZM1121.67 529.312C1120.23 529.312 1118.93 528.958 1117.77 528.25C1116.61 527.542 1115.71 526.557 1115.06 525.297C1114.42 524.026 1114.09 522.604 1114.09 521.031V520.359C1114.09 518.734 1114.41 517.271 1115.03 515.969C1115.67 514.667 1116.55 513.646 1117.67 512.906C1118.8 512.156 1120.02 511.781 1121.33 511.781C1123.38 511.781 1125.01 512.484 1126.2 513.891C1127.41 515.286 1128.02 517.198 1128.02 519.625V520.672H1115.95V521.031C1115.95 522.948 1116.5 524.547 1117.59 525.828C1118.7 527.099 1120.08 527.734 1121.75 527.734C1122.75 527.734 1123.63 527.552 1124.39 527.188C1125.16 526.823 1125.86 526.24 1126.48 525.438L1127.66 526.328C1126.28 528.318 1124.29 529.312 1121.67 529.312ZM1121.33 513.375C1119.92 513.375 1118.73 513.891 1117.77 514.922C1116.81 515.953 1116.22 517.339 1116.02 519.078H1126.16V518.875C1126.1 517.25 1125.64 515.927 1124.77 514.906C1123.89 513.885 1122.74 513.375 1121.33 513.375ZM1139.47 513.688C1139.07 513.615 1138.65 513.578 1138.2 513.578C1137.04 513.578 1136.05 513.906 1135.23 514.562C1134.43 515.208 1133.86 516.151 1133.52 517.391V529H1131.66V512.094H1133.48L1133.52 514.781C1134.51 512.781 1136.09 511.781 1138.28 511.781C1138.8 511.781 1139.21 511.849 1139.52 511.984L1139.47 513.688Z" fill="#424242"/>
<path d="M144.797 519.734V529H142.875V506.25H150.625C152.99 506.25 154.854 506.854 156.219 508.062C157.594 509.271 158.281 510.932 158.281 513.047C158.281 515.182 157.62 516.833 156.297 518C154.984 519.156 153.078 519.734 150.578 519.734H144.797ZM144.797 518.109H150.625C152.49 518.109 153.911 517.667 154.891 516.781C155.87 515.896 156.359 514.661 156.359 513.078C156.359 511.505 155.87 510.255 154.891 509.328C153.922 508.391 152.542 507.911 150.75 507.891H144.797V518.109ZM169.969 513.688C169.573 513.615 169.151 513.578 168.703 513.578C167.536 513.578 166.547 513.906 165.734 514.562C164.932 515.208 164.359 516.151 164.016 517.391V529H162.156V512.094H163.984L164.016 514.781C165.005 512.781 166.594 511.781 168.781 511.781C169.302 511.781 169.714 511.849 170.016 511.984L169.969 513.688ZM171.594 520.297C171.594 518.672 171.906 517.208 172.531 515.906C173.167 514.604 174.057 513.594 175.203 512.875C176.359 512.146 177.667 511.781 179.125 511.781C181.375 511.781 183.198 512.573 184.594 514.156C185.99 515.729 186.688 517.818 186.688 520.422V520.812C186.688 522.448 186.37 523.922 185.734 525.234C185.109 526.536 184.224 527.542 183.078 528.25C181.932 528.958 180.625 529.312 179.156 529.312C176.917 529.312 175.094 528.526 173.688 526.953C172.292 525.37 171.594 523.276 171.594 520.672V520.297ZM173.469 520.812C173.469 522.833 173.99 524.495 175.031 525.797C176.083 527.089 177.458 527.734 179.156 527.734C180.844 527.734 182.208 527.089 183.25 525.797C184.302 524.495 184.828 522.781 184.828 520.656V520.297C184.828 519.005 184.589 517.823 184.109 516.75C183.63 515.677 182.958 514.849 182.094 514.266C181.229 513.672 180.24 513.375 179.125 513.375C177.458 513.375 176.099 514.031 175.047 515.344C173.995 516.646 173.469 518.354 173.469 520.469V520.812ZM189.812 520.391C189.812 517.745 190.396 515.651 191.562 514.109C192.74 512.557 194.333 511.781 196.344 511.781C198.646 511.781 200.396 512.698 201.594 514.531L201.688 512.094H203.438V528.656C203.438 530.833 202.828 532.557 201.609 533.828C200.391 535.099 198.74 535.734 196.656 535.734C195.479 535.734 194.354 535.469 193.281 534.938C192.219 534.417 191.38 533.719 190.766 532.844L191.812 531.719C193.135 533.344 194.708 534.156 196.531 534.156C198.094 534.156 199.312 533.693 200.188 532.766C201.062 531.849 201.516 530.573 201.547 528.938V526.812C200.349 528.479 198.604 529.312 196.312 529.312C194.354 529.312 192.781 528.531 191.594 526.969C190.406 525.406 189.812 523.297 189.812 520.641V520.391ZM191.703 520.719C191.703 522.875 192.135 524.578 193 525.828C193.865 527.068 195.083 527.688 196.656 527.688C198.958 527.688 200.589 526.656 201.547 524.594V516.734C201.109 515.651 200.479 514.828 199.656 514.266C198.833 513.693 197.844 513.406 196.688 513.406C195.115 513.406 193.891 514.026 193.016 515.266C192.141 516.495 191.703 518.312 191.703 520.719ZM216.125 513.688C215.729 513.615 215.307 513.578 214.859 513.578C213.693 513.578 212.703 513.906 211.891 514.562C211.089 515.208 210.516 516.151 210.172 517.391V529H208.312V512.094H210.141L210.172 514.781C211.161 512.781 212.75 511.781 214.938 511.781C215.458 511.781 215.87 511.849 216.172 511.984L216.125 513.688ZM229.141 529C228.953 528.469 228.833 527.682 228.781 526.641C228.125 527.495 227.286 528.156 226.266 528.625C225.255 529.083 224.182 529.312 223.047 529.312C221.422 529.312 220.104 528.859 219.094 527.953C218.094 527.047 217.594 525.901 217.594 524.516C217.594 522.87 218.276 521.568 219.641 520.609C221.016 519.651 222.927 519.172 225.375 519.172H228.766V517.25C228.766 516.042 228.391 515.094 227.641 514.406C226.901 513.708 225.818 513.359 224.391 513.359C223.089 513.359 222.01 513.693 221.156 514.359C220.302 515.026 219.875 515.828 219.875 516.766L218 516.75C218 515.406 218.625 514.245 219.875 513.266C221.125 512.276 222.661 511.781 224.484 511.781C226.37 511.781 227.854 512.255 228.938 513.203C230.031 514.141 230.594 515.453 230.625 517.141V525.141C230.625 526.776 230.797 528 231.141 528.812V529H229.141ZM223.266 527.656C224.516 527.656 225.63 527.354 226.609 526.75C227.599 526.146 228.318 525.339 228.766 524.328V520.609H225.422C223.557 520.63 222.099 520.974 221.047 521.641C219.995 522.297 219.469 523.203 219.469 524.359C219.469 525.307 219.818 526.094 220.516 526.719C221.224 527.344 222.141 527.656 223.266 527.656ZM237.328 512.094L237.391 514.844C238.016 513.823 238.797 513.057 239.734 512.547C240.672 512.036 241.714 511.781 242.859 511.781C245.526 511.781 247.219 512.875 247.938 515.062C248.542 514.01 249.349 513.203 250.359 512.641C251.37 512.068 252.484 511.781 253.703 511.781C257.328 511.781 259.177 513.76 259.25 517.719V529H257.375V517.859C257.365 516.349 257.036 515.229 256.391 514.5C255.755 513.771 254.714 513.406 253.266 513.406C251.922 513.427 250.786 513.865 249.859 514.719C248.932 515.562 248.417 516.594 248.312 517.812V529H246.438V517.719C246.427 516.271 246.083 515.193 245.406 514.484C244.74 513.766 243.708 513.406 242.312 513.406C241.135 513.406 240.125 513.745 239.281 514.422C238.438 515.089 237.812 516.083 237.406 517.406V529H235.531V512.094H237.328ZM265.703 512.094L265.766 514.844C266.391 513.823 267.172 513.057 268.109 512.547C269.047 512.036 270.089 511.781 271.234 511.781C273.901 511.781 275.594 512.875 276.312 515.062C276.917 514.01 277.724 513.203 278.734 512.641C279.745 512.068 280.859 511.781 282.078 511.781C285.703 511.781 287.552 513.76 287.625 517.719V529H285.75V517.859C285.74 516.349 285.411 515.229 284.766 514.5C284.13 513.771 283.089 513.406 281.641 513.406C280.297 513.427 279.161 513.865 278.234 514.719C277.307 515.562 276.792 516.594 276.688 517.812V529H274.812V517.719C274.802 516.271 274.458 515.193 273.781 514.484C273.115 513.766 272.083 513.406 270.688 513.406C269.51 513.406 268.5 513.745 267.656 514.422C266.812 515.089 266.188 516.083 265.781 517.406V529H263.906V512.094H265.703ZM298.922 529.312C297.484 529.312 296.182 528.958 295.016 528.25C293.859 527.542 292.958 526.557 292.312 525.297C291.667 524.026 291.344 522.604 291.344 521.031V520.359C291.344 518.734 291.656 517.271 292.281 515.969C292.917 514.667 293.797 513.646 294.922 512.906C296.047 512.156 297.266 511.781 298.578 511.781C300.63 511.781 302.255 512.484 303.453 513.891C304.661 515.286 305.266 517.198 305.266 519.625V520.672H293.203V521.031C293.203 522.948 293.75 524.547 294.844 525.828C295.948 527.099 297.333 527.734 299 527.734C300 527.734 300.88 527.552 301.641 527.188C302.411 526.823 303.109 526.24 303.734 525.438L304.906 526.328C303.531 528.318 301.536 529.312 298.922 529.312ZM298.578 513.375C297.172 513.375 295.984 513.891 295.016 514.922C294.057 515.953 293.474 517.339 293.266 519.078H303.406V518.875C303.354 517.25 302.891 515.927 302.016 514.906C301.141 513.885 299.995 513.375 298.578 513.375ZM308.156 520.391C308.156 517.766 308.74 515.677 309.906 514.125C311.083 512.562 312.677 511.781 314.688 511.781C316.969 511.781 318.708 512.682 319.906 514.484V505H321.766V529H320.016L319.938 526.75C318.74 528.458 316.979 529.312 314.656 529.312C312.708 529.312 311.135 528.531 309.938 526.969C308.75 525.396 308.156 523.276 308.156 520.609V520.391ZM310.047 520.719C310.047 522.875 310.479 524.578 311.344 525.828C312.208 527.068 313.427 527.688 315 527.688C317.302 527.688 318.938 526.672 319.906 524.641V516.703C318.938 514.505 317.312 513.406 315.031 513.406C313.458 513.406 312.234 514.026 311.359 515.266C310.484 516.495 310.047 518.312 310.047 520.719ZM348.078 520.719C348.078 523.354 347.495 525.448 346.328 527C345.161 528.542 343.594 529.312 341.625 529.312C339.271 529.312 337.49 528.438 336.281 526.688L336.203 529H334.453V505H336.312V514.547C337.5 512.703 339.26 511.781 341.594 511.781C343.594 511.781 345.172 512.547 346.328 514.078C347.495 515.599 348.078 517.719 348.078 520.438V520.719ZM346.203 520.391C346.203 518.161 345.771 516.443 344.906 515.234C344.042 514.016 342.823 513.406 341.25 513.406C340.052 513.406 339.036 513.703 338.203 514.297C337.37 514.88 336.74 515.74 336.312 516.875V524.5C337.25 526.625 338.906 527.688 341.281 527.688C342.823 527.688 344.026 527.078 344.891 525.859C345.766 524.641 346.203 522.818 346.203 520.391ZM357.391 526.312L362.328 512.094H364.344L357.125 531.875L356.75 532.75C355.823 534.802 354.391 535.828 352.453 535.828C352.005 535.828 351.526 535.755 351.016 535.609L351 534.062L351.969 534.156C352.885 534.156 353.625 533.927 354.188 533.469C354.76 533.021 355.245 532.245 355.641 531.141L356.469 528.859L350.094 512.094H352.141L357.391 526.312ZM366.797 527.875C366.797 527.51 366.911 527.203 367.141 526.953C367.38 526.693 367.708 526.562 368.125 526.562C368.542 526.562 368.87 526.693 369.109 526.953C369.349 527.203 369.469 527.51 369.469 527.875C369.469 528.24 369.349 528.542 369.109 528.781C368.87 529.01 368.542 529.125 368.125 529.125C367.708 529.125 367.38 529.01 367.141 528.781C366.911 528.542 366.797 528.24 366.797 527.875ZM366.828 513.453C366.828 513.089 366.943 512.781 367.172 512.531C367.411 512.271 367.74 512.141 368.156 512.141C368.573 512.141 368.901 512.271 369.141 512.531C369.38 512.781 369.5 513.089 369.5 513.453C369.5 513.818 369.38 514.12 369.141 514.359C368.901 514.589 368.573 514.703 368.156 514.703C367.74 514.703 367.411 514.589 367.172 514.359C366.943 514.12 366.828 513.818 366.828 513.453ZM384.734 506.25L393.125 526.328L401.547 506.25H404.109V529H402.188V519.094L402.344 508.938L393.875 529H392.391L383.953 509.016L384.109 519.031V529H382.188V506.25H384.734ZM411.531 529H409.656V512.094H411.531V529ZM409.328 507.203C409.328 506.849 409.443 506.552 409.672 506.312C409.901 506.062 410.214 505.938 410.609 505.938C411.005 505.938 411.318 506.062 411.547 506.312C411.786 506.552 411.906 506.849 411.906 507.203C411.906 507.557 411.786 507.854 411.547 508.094C411.318 508.333 411.005 508.453 410.609 508.453C410.214 508.453 409.901 508.333 409.672 508.094C409.443 507.854 409.328 507.557 409.328 507.203ZM418.406 512.094L418.469 514.984C419.104 513.943 419.896 513.151 420.844 512.609C421.792 512.057 422.839 511.781 423.984 511.781C425.797 511.781 427.146 512.292 428.031 513.312C428.917 514.333 429.365 515.865 429.375 517.906V529H427.516V517.891C427.505 516.38 427.182 515.255 426.547 514.516C425.922 513.776 424.917 513.406 423.531 513.406C422.375 513.406 421.349 513.771 420.453 514.5C419.568 515.219 418.911 516.193 418.484 517.422V529H416.625V512.094H418.406ZM436.312 529H434.438V512.094H436.312V529ZM434.109 507.203C434.109 506.849 434.224 506.552 434.453 506.312C434.682 506.062 434.995 505.938 435.391 505.938C435.786 505.938 436.099 506.062 436.328 506.312C436.568 506.552 436.688 506.849 436.688 507.203C436.688 507.557 436.568 507.854 436.328 508.094C436.099 508.333 435.786 508.453 435.391 508.453C434.995 508.453 434.682 508.333 434.453 508.094C434.224 507.854 434.109 507.557 434.109 507.203ZM440.375 520.297C440.375 518.672 440.688 517.208 441.312 515.906C441.948 514.604 442.839 513.594 443.984 512.875C445.141 512.146 446.448 511.781 447.906 511.781C450.156 511.781 451.979 512.573 453.375 514.156C454.771 515.729 455.469 517.818 455.469 520.422V520.812C455.469 522.448 455.151 523.922 454.516 525.234C453.891 526.536 453.005 527.542 451.859 528.25C450.714 528.958 449.406 529.312 447.938 529.312C445.698 529.312 443.875 528.526 442.469 526.953C441.073 525.37 440.375 523.276 440.375 520.672V520.297ZM442.25 520.812C442.25 522.833 442.771 524.495 443.812 525.797C444.865 527.089 446.24 527.734 447.938 527.734C449.625 527.734 450.99 527.089 452.031 525.797C453.083 524.495 453.609 522.781 453.609 520.656V520.297C453.609 519.005 453.37 517.823 452.891 516.75C452.411 515.677 451.74 514.849 450.875 514.266C450.01 513.672 449.021 513.375 447.906 513.375C446.24 513.375 444.88 514.031 443.828 515.344C442.776 516.646 442.25 518.354 442.25 520.469V520.812ZM461.125 512.094L461.188 514.984C461.823 513.943 462.615 513.151 463.562 512.609C464.51 512.057 465.557 511.781 466.703 511.781C468.516 511.781 469.865 512.292 470.75 513.312C471.635 514.333 472.083 515.865 472.094 517.906V529H470.234V517.891C470.224 516.38 469.901 515.255 469.266 514.516C468.641 513.776 467.635 513.406 466.25 513.406C465.094 513.406 464.068 513.771 463.172 514.5C462.286 515.219 461.63 516.193 461.203 517.422V529H459.344V512.094H461.125ZM480.797 516.609H482.734C483.807 516.609 484.745 516.422 485.547 516.047C486.349 515.661 486.958 515.141 487.375 514.484C487.802 513.818 488.016 513.052 488.016 512.188C488.016 510.729 487.604 509.589 486.781 508.766C485.958 507.943 484.776 507.531 483.234 507.531C481.776 507.531 480.578 507.964 479.641 508.828C478.714 509.682 478.25 510.812 478.25 512.219H476.375C476.375 511.042 476.672 509.969 477.266 509C477.859 508.021 478.682 507.266 479.734 506.734C480.786 506.203 481.953 505.938 483.234 505.938C485.297 505.938 486.922 506.5 488.109 507.625C489.297 508.75 489.891 510.292 489.891 512.25C489.891 513.344 489.542 514.354 488.844 515.281C488.156 516.198 487.208 516.885 486 517.344C487.417 517.74 488.49 518.422 489.219 519.391C489.948 520.349 490.312 521.495 490.312 522.828C490.312 524.776 489.677 526.344 488.406 527.531C487.135 528.719 485.438 529.312 483.312 529.312C481.958 529.312 480.714 529.042 479.578 528.5C478.453 527.958 477.578 527.203 476.953 526.234C476.339 525.255 476.031 524.12 476.031 522.828H477.906C477.906 524.276 478.411 525.458 479.422 526.375C480.432 527.281 481.729 527.734 483.312 527.734C484.927 527.734 486.182 527.323 487.078 526.5C487.984 525.667 488.438 524.464 488.438 522.891C488.438 521.37 487.948 520.208 486.969 519.406C486 518.604 484.568 518.203 482.672 518.203H480.797V516.609ZM505.422 506.078V507.719H505.203C502.484 507.719 500.344 508.521 498.781 510.125C497.219 511.719 496.354 513.938 496.188 516.781C496.812 515.917 497.609 515.25 498.578 514.781C499.547 514.302 500.63 514.062 501.828 514.062C503.828 514.062 505.417 514.755 506.594 516.141C507.781 517.516 508.375 519.318 508.375 521.547C508.375 523.026 508.099 524.359 507.547 525.547C506.995 526.734 506.203 527.661 505.172 528.328C504.141 528.984 502.964 529.312 501.641 529.312C499.464 529.312 497.693 528.526 496.328 526.953C494.964 525.37 494.281 523.328 494.281 520.828V518.953C494.281 514.88 495.208 511.729 497.062 509.5C498.917 507.26 501.547 506.12 504.953 506.078H505.422ZM501.531 515.672C500.344 515.672 499.234 516.026 498.203 516.734C497.182 517.432 496.5 518.323 496.156 519.406V521C496.156 522.979 496.661 524.594 497.672 525.844C498.693 527.094 500.016 527.719 501.641 527.719C503.099 527.719 504.276 527.141 505.172 525.984C506.078 524.828 506.531 523.37 506.531 521.609C506.531 519.818 506.078 518.38 505.172 517.297C504.276 516.214 503.062 515.672 501.531 515.672ZM523.172 506.078V507.719H522.953C520.234 507.719 518.094 508.521 516.531 510.125C514.969 511.719 514.104 513.938 513.938 516.781C514.562 515.917 515.359 515.25 516.328 514.781C517.297 514.302 518.38 514.062 519.578 514.062C521.578 514.062 523.167 514.755 524.344 516.141C525.531 517.516 526.125 519.318 526.125 521.547C526.125 523.026 525.849 524.359 525.297 525.547C524.745 526.734 523.953 527.661 522.922 528.328C521.891 528.984 520.714 529.312 519.391 529.312C517.214 529.312 515.443 528.526 514.078 526.953C512.714 525.37 512.031 523.328 512.031 520.828V518.953C512.031 514.88 512.958 511.729 514.812 509.5C516.667 507.26 519.297 506.12 522.703 506.078H523.172ZM519.281 515.672C518.094 515.672 516.984 516.026 515.953 516.734C514.932 517.432 514.25 518.323 513.906 519.406V521C513.906 522.979 514.411 524.594 515.422 525.844C516.443 527.094 517.766 527.719 519.391 527.719C520.849 527.719 522.026 527.141 522.922 525.984C523.828 524.828 524.281 523.37 524.281 521.609C524.281 519.818 523.828 518.38 522.922 517.297C522.026 516.214 520.812 515.672 519.281 515.672ZM531.156 517.344L532.266 506.25H543.641V507.984H533.875L533.078 515.672C534.297 514.839 535.724 514.422 537.359 514.422C539.411 514.422 541.047 515.089 542.266 516.422C543.484 517.755 544.094 519.531 544.094 521.75C544.094 524.146 543.5 526.005 542.312 527.328C541.125 528.651 539.453 529.312 537.297 529.312C535.318 529.312 533.714 528.76 532.484 527.656C531.255 526.552 530.552 525.005 530.375 523.016H532.172C532.349 524.568 532.875 525.745 533.75 526.547C534.625 527.339 535.807 527.734 537.297 527.734C538.922 527.734 540.146 527.219 540.969 526.188C541.802 525.156 542.219 523.688 542.219 521.781C542.219 520.115 541.755 518.755 540.828 517.703C539.901 516.651 538.635 516.125 537.031 516.125C536.146 516.125 535.375 516.24 534.719 516.469C534.062 516.688 533.37 517.12 532.641 517.766L531.156 517.344Z" fill="#424242"/>
<defs>
<filter id="filter0_bd_3103:7405" x="48" y="48" width="1184" height="544" filterUnits="userSpaceOnUse" color-interpolation-filters="sRGB">
<feFlood flood-opacity="0" result="BackgroundImageFix"/>
<feGaussianBlur in="BackgroundImage" stdDeviation="14"/>
<feComposite in2="SourceAlpha" operator="in" result="effect1_backgroundBlur_3103:7405"/>
<feColorMatrix in="SourceAlpha" type="matrix" values="0 0 0 0 0 0 0 0 0 0 0 0 0 0 0 0 0 0 127 0" result="hardAlpha"/>
<feMorphology radius="5" operator="dilate" in="SourceAlpha" result="effect2_dropShadow_3103:7405"/>
<feOffset/>
<feGaussianBlur stdDeviation="12.5"/>
<feComposite in2="hardAlpha" operator="out"/>
<feColorMatrix type="matrix" values="0 0 0 0 0 0 0 0 0 0 0 0 0 0 0 0 0 0 0.5 0"/>
<feBlend mode="normal" in2="effect1_backgroundBlur_3103:7405" result="effect2_dropShadow_3103:7405"/>
<feBlend mode="normal" in="SourceGraphic" in2="effect2_dropShadow_3103:7405" result="shape"/>
</filter>
<filter id="filter1_d_3103:7405" x="462.789" y="133.433" width="58.043" height="85.9497" filterUnits="userSpaceOnUse" color-interpolation-filters="sRGB">
<feFlood flood-opacity="0" result="BackgroundImageFix"/>
<feColorMatrix in="SourceAlpha" type="matrix" values="0 0 0 0 0 0 0 0 0 0 0 0 0 0 0 0 0 0 127 0" result="hardAlpha"/>
<feOffset dx="0.3125" dy="0.625"/>
<feGaussianBlur stdDeviation="0.625"/>
<feColorMatrix type="matrix" values="0 0 0 0 0.258824 0 0 0 0 0.258824 0 0 0 0 0.258824 0 0 0 1 0"/>
<feBlend mode="normal" in2="BackgroundImageFix" result="effect1_dropShadow_3103:7405"/>
<feBlend mode="normal" in="SourceGraphic" in2="effect1_dropShadow_3103:7405" result="shape"/>
</filter>
<filter id="filter2_d_3103:7405" x="466.789" y="137.867" width="58.043" height="85.9497" filterUnits="userSpaceOnUse" color-interpolation-filters="sRGB">
<feFlood flood-opacity="0" result="BackgroundImageFix"/>
<feColorMatrix in="SourceAlpha" type="matrix" values="0 0 0 0 0 0 0 0 0 0 0 0 0 0 0 0 0 0 127 0" result="hardAlpha"/>
<feOffset dx="0.3125" dy="0.625"/>
<feGaussianBlur stdDeviation="0.625"/>
<feColorMatrix type="matrix" values="0 0 0 0 0.258824 0 0 0 0 0.258824 0 0 0 0 0.258824 0 0 0 1 0"/>
<feBlend mode="normal" in2="BackgroundImageFix" result="effect1_dropShadow_3103:7405"/>
<feBlend mode="normal" in="SourceGraphic" in2="effect1_dropShadow_3103:7405" result="shape"/>
</filter>
<linearGradient id="paint0_linear_3103:7405" x1="-1.14441e-05" y1="320" x2="819.2" y2="-294.4" gradientUnits="userSpaceOnUse">
<stop stop-color="#78ECF2"/>
<stop offset="1" stop-color="#71AFE5"/>
</linearGradient>
<linearGradient id="paint1_linear_3103:7405" x1="0" y1="640" x2="1280" y2="640" gradientUnits="userSpaceOnUse">
<stop stop-color="#71AFE5"/>
<stop offset="1" stop-color="#6576CC"/>
</linearGradient>
<linearGradient id="paint2_linear_3103:7405" x1="78" y1="78" x2="1202" y2="562" gradientUnits="userSpaceOnUse">
<stop stop-color="white" stop-opacity="0.9"/>
<stop offset="1" stop-color="white" stop-opacity="0.7"/>
</linearGradient>
<linearGradient id="paint3_linear_3103:7405" x1="429.5" y1="114" x2="493.5" y2="242" gradientUnits="userSpaceOnUse">
<stop stop-color="#78ECF2"/>
<stop offset="1" stop-color="#71AFE5"/>
</linearGradient>
</defs>
</svg>
