<svg width="1280" height="640" fill="none" xmlns="http://www.w3.org/2000/svg"><rect width="1280" height="640" rx="40" fill="#fff"/><rect width="1280" height="640" rx="40" fill="url(#a)"/><path fill-rule="evenodd" clip-rule="evenodd" d="m0 447 53-39c54-38 160-115 267-102s213 115 320 160 213 32 320-26c107-57 213-160 267-211l53-51v462H0V447Z" fill="url(#b)"/><g filter="url(#c)"><rect x="78" y="78" width="1124" height="484" rx="40" fill="url(#d)" fill-opacity=".65" shape-rendering="crispEdges"/></g><rect x="429.5" y="114" width="128" height="128" rx="64" fill="url(#e)"/><g filter="url(#f)"><rect x="463.727" y="134.058" width="55.545" height="83.45" rx=".938" fill="#424242"/></g><g filter="url(#g)"><rect x="467.727" y="138.492" width="55.545" height="83.45" rx=".938" fill="#C4C4C4"/></g><path d="M480.061 170.944c-1.363 0-2.35.381-2.963 1.143-.6.75-.9 1.782-.9 3.094 0 .638.075 1.219.225 1.744.15.512.375.956.675 1.331.3.375.675.669 1.125.881.45.2.975.3 1.575.3.325 0 .6-.006.825-.018.238-.013.444-.038.619-.075v-4.519h2.925v6.431c-.35.138-.912.281-1.687.432-.775.162-1.732.243-2.869.243-.975 0-1.863-.15-2.663-.45a5.57 5.57 0 0 1-2.025-1.312c-.562-.575-1-1.282-1.312-2.119-.3-.838-.45-1.794-.45-2.869 0-1.087.169-2.05.506-2.887.338-.838.8-1.544 1.388-2.119a5.795 5.795 0 0 1 2.062-1.331c.8-.3 1.65-.45 2.55-.45.613 0 1.163.043 1.65.131.5.075.925.169 1.275.281.363.1.656.206.881.319.238.112.407.2.507.262l-.844 2.344a7.172 7.172 0 0 0-1.388-.544 5.573 5.573 0 0 0-1.687-.243Zm15.865 5.794c0 .774-.112 1.487-.337 2.137a4.744 4.744 0 0 1-.975 1.65c-.425.45-.938.8-1.538 1.05-.587.25-1.25.375-1.987.375a5.121 5.121 0 0 1-1.988-.375 4.477 4.477 0 0 1-1.519-1.05 4.974 4.974 0 0 1-.993-1.65 6.175 6.175 0 0 1-.357-2.137c0-.776.119-1.482.357-2.119a5.003 5.003 0 0 1 1.012-1.632c.438-.45.95-.8 1.538-1.05a5.02 5.02 0 0 1 1.95-.375c.712 0 1.362.125 1.95.375.6.25 1.112.6 1.537 1.05.425.45.756.994.994 1.632.237.637.356 1.343.356 2.119Zm-2.85 0c0-.863-.175-1.538-.525-2.026-.337-.5-.825-.75-1.462-.75-.638 0-1.132.25-1.482.75-.35.488-.525 1.163-.525 2.026 0 .862.175 1.549.525 2.062.35.5.844.75 1.482.75.637 0 1.125-.25 1.462-.75.35-.513.525-1.2.525-2.062Zm5.014-4.576a14.632 14.632 0 0 1 1.838-.374c.75-.126 1.537-.188 2.362-.188.838 0 1.532.112 2.082.337.562.213 1.006.519 1.331.919.325.4.556.875.694 1.425.137.55.206 1.163.206 1.838v5.569h-2.794v-5.232c0-.9-.119-1.537-.356-1.912-.238-.375-.681-.563-1.331-.563a5.8 5.8 0 0 0-.638.038 6.86 6.86 0 0 0-.6.056v7.613h-2.794v-9.526Zm10.573 4.669c0-.875.131-1.637.394-2.287.275-.663.631-1.213 1.068-1.65a4.433 4.433 0 0 1 1.5-.994 4.802 4.802 0 0 1 1.763-.338c1.4 0 2.506.432 3.319 1.294.812.85 1.218 2.106 1.218 3.769 0 .162-.006.344-.018.544-.013.187-.025.356-.038.506h-6.337c.062.575.331 1.031.806 1.369.475.337 1.112.506 1.912.506.513 0 1.013-.044 1.5-.131.5-.1.907-.219 1.219-.357l.375 2.269c-.15.075-.35.15-.6.225-.25.075-.531.138-.844.188a10.349 10.349 0 0 1-2.025.206c-.887 0-1.662-.131-2.325-.394a4.683 4.683 0 0 1-1.631-1.069 4.525 4.525 0 0 1-.956-1.631c-.2-.625-.3-1.3-.3-2.025Zm6.562-1.069a2.597 2.597 0 0 0-.131-.693 1.54 1.54 0 0 0-.319-.6 1.571 1.571 0 0 0-.543-.432c-.213-.112-.482-.168-.807-.168-.312 0-.581.056-.806.168-.225.1-.412.238-.562.413-.15.175-.269.381-.357.619a4.27 4.27 0 0 0-.168.693h3.693ZM476.892 213.512c.275 0 .5-.02.675-.062a1.45 1.45 0 0 0 .438-.188.67.67 0 0 0 .225-.287c.041-.108.062-.229.062-.363 0-.283-.133-.516-.4-.7-.267-.191-.725-.395-1.375-.612a12.01 12.01 0 0 1-.85-.338 3.382 3.382 0 0 1-.762-.487 2.427 2.427 0 0 1-.55-.713c-.142-.283-.213-.625-.213-1.025 0-.4.075-.758.225-1.075.15-.325.363-.6.638-.825a2.84 2.84 0 0 1 1-.512 4.344 4.344 0 0 1 1.325-.188c.583 0 1.087.063 1.512.188.425.125.775.262 1.05.412l-.562 1.538a4.901 4.901 0 0 0-.813-.325c-.292-.1-.646-.15-1.062-.15-.467 0-.805.067-1.013.2-.2.125-.3.321-.3.587 0 .159.038.292.113.4.075.109.179.209.312.3.142.084.3.163.475.238.183.067.383.137.6.212.45.167.842.334 1.175.5.333.159.608.346.825.563.225.217.392.471.5.762.108.292.163.646.163 1.063 0 .808-.284 1.437-.85 1.887-.567.442-1.421.663-2.563.663-.383 0-.729-.025-1.037-.075a6.24 6.24 0 0 1-.825-.163 5.033 5.033 0 0 1-.613-.212 4.914 4.914 0 0 1-.425-.213l.55-1.55c.258.142.575.271.95.388.383.108.85.162 1.4.162ZM481.68 215v-9.4l1.862-.3v3.15a3.42 3.42 0 0 1 .475-.113c.2-.041.392-.062.575-.062.534 0 .975.075 1.325.225.359.142.642.346.85.612.217.267.367.584.45.95.092.367.138.775.138 1.225V215h-1.863v-3.488c0-.6-.079-1.025-.237-1.275-.15-.25-.433-.375-.85-.375-.167 0-.325.017-.475.05a3.953 3.953 0 0 0-.388.088v5h-1.862Zm9.873-1.3c.184 0 .359-.004.525-.013.167-.008.3-.02.4-.037v-1.413a3.76 3.76 0 0 0-.337-.05 3.94 3.94 0 0 0-.413-.025 3.21 3.21 0 0 0-.5.038c-.15.017-.283.054-.4.112a.71.71 0 0 0-.275.238c-.066.1-.1.225-.1.375 0 .292.096.496.288.612.2.109.471.163.812.163Zm-.15-5.45c.55 0 1.009.062 1.375.187.367.125.659.305.875.538.225.233.384.517.475.85.092.333.138.704.138 1.112v3.875c-.267.059-.638.125-1.113.201a10.2 10.2 0 0 1-1.725.125c-.425 0-.812-.038-1.162-.113a2.576 2.576 0 0 1-.888-.363 1.74 1.74 0 0 1-.575-.675c-.133-.275-.2-.612-.2-1.012 0-.383.075-.708.225-.975.159-.267.367-.479.625-.638a2.71 2.71 0 0 1 .888-.337 4.708 4.708 0 0 1 1.037-.113c.242 0 .454.013.638.038.191.017.346.042.462.075v-.175c0-.317-.096-.571-.287-.763-.192-.191-.525-.287-1-.287-.317 0-.629.025-.938.075a3.82 3.82 0 0 0-.8.187l-.237-1.5c.108-.033.241-.066.4-.1.166-.041.346-.075.537-.1.192-.033.392-.058.6-.075.217-.025.434-.037.65-.037Zm8.759 3.512c0-.575-.129-1.033-.387-1.375-.258-.35-.642-.525-1.15-.525-.167 0-.321.009-.463.025a3.09 3.09 0 0 0-.35.038v3.362c.117.075.267.138.45.188.192.05.384.075.575.075.884 0 1.325-.596 1.325-1.788Zm1.9-.05c0 .509-.062.971-.187 1.388a3.113 3.113 0 0 1-.55 1.075c-.242.3-.542.533-.9.7a2.9 2.9 0 0 1-1.238.25 3.34 3.34 0 0 1-1.375-.288v2.476h-1.862v-8.663c.167-.05.358-.096.575-.138.217-.05.442-.091.675-.125.242-.033.483-.058.725-.075.25-.025.487-.037.712-.037a3.94 3.94 0 0 1 1.45.25c.425.158.784.387 1.075.687.292.292.513.65.663 1.075.158.425.237.9.237 1.425Zm1.119.05c0-.583.088-1.091.263-1.525.183-.441.421-.808.712-1.1a2.965 2.965 0 0 1 1-.662c.384-.15.775-.225 1.175-.225.934 0 1.671.287 2.213.862.542.567.812 1.405.812 2.513 0 .108-.004.229-.012.362a20.7 20.7 0 0 1-.025.338h-4.225c.042.383.221.687.537.912.317.225.742.338 1.275.338.342 0 .675-.029 1-.088a3.94 3.94 0 0 0 .813-.237l.25 1.512c-.1.05-.233.1-.4.15a4.47 4.47 0 0 1-.563.126 6.866 6.866 0 0 1-1.35.137c-.591 0-1.108-.087-1.55-.263a3.127 3.127 0 0 1-1.087-.712 3.032 3.032 0 0 1-.638-1.088 4.41 4.41 0 0 1-.2-1.35Zm4.375-.712a1.738 1.738 0 0 0-.087-.463 1.039 1.039 0 0 0-.213-.4 1.046 1.046 0 0 0-.362-.287 1.144 1.144 0 0 0-.538-.113c-.208 0-.387.038-.537.113-.15.067-.275.158-.375.275-.1.117-.179.254-.238.412-.05.15-.087.305-.112.463h2.462Zm4.825.612c0 .575.129 1.038.388 1.388.258.35.641.525 1.15.525.166 0 .321-.004.462-.013.142-.016.259-.033.35-.05v-3.387a1.61 1.61 0 0 0-.462-.188 2.134 2.134 0 0 0-.563-.075c-.883 0-1.325.6-1.325 1.8Zm4.213 3.125c-.167.05-.359.1-.575.15a12.524 12.524 0 0 1-1.413.188 6.8 6.8 0 0 1-.7.038c-.541 0-1.025-.08-1.45-.238a2.948 2.948 0 0 1-1.075-.675 3.118 3.118 0 0 1-.675-1.075 4.26 4.26 0 0 1-.225-1.425c0-.533.067-1.013.2-1.438.134-.433.325-.8.575-1.1.25-.3.554-.529.913-.687a3.128 3.128 0 0 1 1.25-.238c.258 0 .487.025.687.075.209.05.417.121.625.213V205.6l1.863-.3v9.487ZM479.129 186.162c2.583 0 4.566.459 5.95 1.375 1.383.9 2.075 2.384 2.075 4.45 0 2.084-.7 3.592-2.1 4.525-1.4.917-3.4 1.375-6 1.375h-1.225v5.801h-3.9v-17.076c.85-.166 1.75-.283 2.7-.35.95-.066 1.783-.1 2.5-.1Zm.25 3.325c-.284 0-.567.009-.85.025-.267.017-.5.034-.7.05v5h1.225c1.35 0 2.366-.183 3.05-.55.683-.366 1.025-1.05 1.025-2.05 0-.483-.092-.883-.275-1.2a1.819 1.819 0 0 0-.75-.75c-.317-.2-.709-.333-1.175-.4a8.888 8.888 0 0 0-1.55-.125Zm14.925 11.6c.367 0 .717-.008 1.05-.025.334-.016.6-.041.8-.075v-2.825a7.2 7.2 0 0 0-.675-.1 7.6 7.6 0 0 0-.825-.05c-.35 0-.683.025-1 .075-.3.034-.566.109-.8.225a1.404 1.404 0 0 0-.55.475c-.133.2-.2.45-.2.75 0 .584.192.992.575 1.225.4.217.942.325 1.625.325Zm-.3-10.9c1.1 0 2.017.125 2.75.375.734.25 1.317.609 1.75 1.075a3.89 3.89 0 0 1 .95 1.7c.184.667.275 1.409.275 2.225v7.75c-.533.117-1.275.25-2.225.401-.95.166-2.1.25-3.45.25-.85 0-1.625-.075-2.325-.225-.683-.151-1.275-.392-1.775-.726-.5-.35-.883-.8-1.15-1.35-.266-.55-.4-1.225-.4-2.025 0-.766.15-1.416.45-1.95a3.678 3.678 0 0 1 1.25-1.275 5.426 5.426 0 0 1 1.775-.675 9.432 9.432 0 0 1 2.075-.225c.484 0 .909.025 1.275.075.384.034.692.084.925.15v-.35c0-.633-.191-1.141-.575-1.525-.383-.383-1.05-.575-2-.575a11.7 11.7 0 0 0-1.875.15 7.637 7.637 0 0 0-1.6.375l-.475-3c.217-.066.484-.133.8-.2.334-.083.692-.15 1.075-.2a13.65 13.65 0 0 1 1.2-.15c.434-.05.867-.075 1.3-.075Zm12.819 13.501h-3.725v-13.151h3.725v13.151Zm.35-16.951c0 .684-.225 1.225-.675 1.625-.434.384-.95.575-1.55.575a2.35 2.35 0 0 1-1.575-.575c-.434-.4-.65-.941-.65-1.625 0-.683.216-1.216.65-1.6.45-.4.975-.6 1.575-.6s1.116.2 1.55.6c.45.384.675.917.675 1.6Zm11.076 7.1a20.482 20.482 0 0 0-1.175-.25c-.45-.1-.933-.15-1.45-.15-.233 0-.516.025-.85.075a4.305 4.305 0 0 0-.725.125v10.051h-3.725v-12.451c.667-.233 1.45-.45 2.35-.65.917-.216 1.934-.325 3.05-.325.2 0 .442.017.725.05.284.017.567.05.85.1.284.034.567.084.85.15.284.05.525.117.725.2l-.625 3.075Z" fill="#4A4A4A"/><path d="M684.688 211.188c-2.667 3.791-6.855 6.75-12.563 8.874-5.667 2.126-12.021 3.188-19.063 3.188-7.124 0-13.458-1.708-19-5.125-5.541-3.417-9.833-8.25-12.874-14.5-3.042-6.25-4.584-13.417-4.626-21.5v-11.5c0-12.625 3.188-22.583 9.563-29.875 6.375-7.333 14.937-11 25.687-11 9.376 0 16.917 2.396 22.626 7.188 5.708 4.75 9.104 11.312 10.187 19.687h-7.687c-1.126-6.667-3.855-11.708-8.188-15.125-4.292-3.458-9.917-5.188-16.875-5.188-8.5 0-15.229 3.021-20.187 9.063-4.959 6.042-7.438 14.563-7.438 25.563v10.75c0 6.916 1.167 13.041 3.5 18.374 2.375 5.292 5.75 9.396 10.125 12.313 4.417 2.917 9.479 4.375 15.187 4.375 6.626 0 12.313-1.042 17.063-3.125 3.083-1.375 5.375-2.979 6.875-4.813v-23.5h-24.438v-6.5h32.126v32.376Zm29.5-26.25V222H706.5v-91h31c9.458 0 16.917 2.417 22.375 7.25 5.5 4.833 8.25 11.479 8.25 19.938 0 8.541-2.646 15.145-7.937 19.812-5.25 4.625-12.876 6.938-22.876 6.938h-23.124Zm0-6.5H737.5c7.458 0 13.146-1.771 17.062-5.313 3.917-3.542 5.876-8.479 5.876-14.813 0-6.291-1.959-11.291-5.876-15-3.874-3.75-9.395-5.666-16.562-5.75h-23.812v40.876Zm122.687 21.187c0-5.042-1.771-9.021-5.313-11.937-3.541-2.959-10.02-5.75-19.437-8.376-9.417-2.666-16.292-5.562-20.625-8.687-6.167-4.417-9.25-10.208-9.25-17.375 0-6.958 2.854-12.604 8.562-16.938 5.75-4.374 13.084-6.562 22-6.562 6.042 0 11.438 1.167 16.188 3.5 4.792 2.333 8.5 5.583 11.125 9.75s3.937 8.812 3.937 13.938h-7.75c0-6.209-2.124-11.188-6.374-14.938-4.25-3.792-9.959-5.688-17.126-5.688-6.958 0-12.5 1.563-16.624 4.688-4.126 3.083-6.188 7.125-6.188 12.125 0 4.625 1.854 8.396 5.562 11.313 3.709 2.916 9.646 5.5 17.813 7.75 8.167 2.208 14.354 4.52 18.563 6.937 4.208 2.375 7.374 5.229 9.5 8.563 2.124 3.333 3.187 7.27 3.187 11.812 0 7.167-2.875 12.917-8.625 17.25-5.708 4.333-13.25 6.5-22.625 6.5-6.417 0-12.313-1.146-17.687-3.438-5.334-2.291-9.396-5.5-12.188-9.624-2.75-4.126-4.125-8.855-4.125-14.188h7.687c0 6.417 2.396 11.479 7.188 15.188 4.792 3.708 11.167 5.562 19.125 5.562 7.083 0 12.771-1.562 17.063-4.688 4.291-3.124 6.437-7.27 6.437-12.437ZM280.808 313.916c-.407 3.744-1.75 6.608-4.029 8.594-2.262 1.985-5.281 2.978-9.057 2.978-2.637 0-4.973-.659-7.007-1.977-2.018-1.319-3.581-3.182-4.688-5.591-1.106-2.425-1.668-5.192-1.684-8.301v-4.614c0-3.158.553-5.957 1.66-8.399 1.107-2.441 2.694-4.321 4.761-5.639 2.083-1.335 4.476-2.002 7.177-2.002 3.809 0 6.812 1.033 9.009 3.1 2.214 2.051 3.5 4.891 3.858 8.521h-3.028c-.748-6.038-4.028-9.058-9.839-9.058-3.222 0-5.794 1.205-7.714 3.614-1.905 2.408-2.857 5.737-2.857 9.985v4.346c0 4.101.928 7.373 2.783 9.814 1.872 2.442 4.395 3.662 7.569 3.662 3.141 0 5.509-.748 7.104-2.246 1.595-1.514 2.58-3.776 2.954-6.787h3.028ZM304.099 325c-.293-.83-.481-2.059-.562-3.687-1.025 1.335-2.336 2.369-3.931 3.101a12.032 12.032 0 0 1-5.029 1.074c-2.539 0-4.598-.708-6.177-2.124-1.562-1.416-2.343-3.206-2.343-5.371 0-2.571 1.066-4.606 3.198-6.103 2.148-1.498 5.135-2.246 8.96-2.246h5.298v-3.003c0-1.888-.586-3.37-1.758-4.444-1.156-1.09-2.848-1.635-5.078-1.635-2.035 0-3.719.52-5.054 1.562-1.335 1.042-2.002 2.295-2.002 3.76l-2.93-.025c0-2.099.977-3.914 2.93-5.444 1.953-1.546 4.354-2.319 7.202-2.319 2.946 0 5.266.74 6.958 2.221 1.709 1.465 2.588 3.516 2.637 6.153v12.5c0 2.555.269 4.468.806 5.737V325h-3.125Zm-9.18-2.1c1.953 0 3.695-.472 5.225-1.416 1.546-.944 2.669-2.205 3.369-3.784v-5.81h-5.225c-2.913.032-5.192.569-6.836 1.611-1.644 1.025-2.466 2.441-2.466 4.248 0 1.481.546 2.71 1.636 3.687 1.107.976 2.539 1.464 4.297 1.464Zm31.519-21.826a10.914 10.914 0 0 0-1.978-.171c-1.823 0-3.369.513-4.639 1.538-1.253 1.01-2.148 2.483-2.685 4.419V325h-2.906v-26.416h2.857l.049 4.199c1.546-3.125 4.028-4.687 7.446-4.687.814 0 1.457.105 1.929.317l-.073 2.661Zm2.978 10.474c0-4.102.911-7.365 2.734-9.79 1.84-2.442 4.33-3.662 7.471-3.662 3.565 0 6.283 1.408 8.154 4.223V287.5h2.906V325h-2.735l-.122-3.516c-1.872 2.67-4.622 4.004-8.252 4.004-3.043 0-5.501-1.22-7.373-3.662-1.855-2.458-2.783-5.77-2.783-9.936v-.342Zm2.954.513c0 3.369.676 6.03 2.026 7.983 1.351 1.937 3.256 2.905 5.713 2.905 3.597 0 6.153-1.587 7.666-4.761v-12.402c-1.513-3.434-4.052-5.151-7.617-5.151-2.457 0-4.37.968-5.737 2.905-1.367 1.921-2.051 4.761-2.051 8.521Zm41.821 6.225c0-1.448-.586-2.612-1.757-3.491-1.156-.879-2.906-1.563-5.249-2.051-2.344-.504-4.167-1.074-5.469-1.709-1.286-.651-2.246-1.44-2.881-2.368-.619-.928-.928-2.051-.928-3.369 0-2.083.871-3.801 2.613-5.152 1.741-1.367 3.971-2.05 6.689-2.05 2.946 0 5.306.732 7.08 2.197 1.79 1.449 2.686 3.345 2.686 5.688h-2.93c0-1.546-.651-2.832-1.953-3.857-1.286-1.025-2.914-1.538-4.883-1.538-1.921 0-3.467.431-4.639 1.294-1.155.846-1.733 1.953-1.733 3.32 0 1.319.48 2.344 1.44 3.076.977.717 2.743 1.376 5.298 1.978 2.572.602 4.492 1.245 5.762 1.929 1.286.683 2.238 1.505 2.856 2.465.619.961.928 2.124.928 3.492 0 2.229-.903 4.012-2.71 5.346-1.79 1.335-4.134 2.002-7.031 2.002-3.076 0-5.575-.74-7.495-2.221-1.905-1.498-2.857-3.386-2.857-5.664h2.93c.114 1.709.83 3.043 2.148 4.003 1.335.944 3.093 1.416 5.274 1.416 2.034 0 3.678-.447 4.932-1.342 1.253-.895 1.879-2.027 1.879-3.394Zm41.553-3.247h-16.138L395.944 325h-3.149l13.452-35.547h2.857L422.556 325h-3.125l-3.687-9.961Zm-15.21-2.563h14.258l-7.129-19.361-7.129 19.361Zm25.415-.928c0-4.134.912-7.406 2.735-9.815 1.839-2.425 4.329-3.637 7.47-3.637 3.597 0 6.332 1.432 8.203 4.297l.147-3.809h2.734v25.879c0 3.402-.952 6.095-2.856 8.081-1.904 1.986-4.484 2.978-7.739 2.978-1.84 0-3.597-.415-5.274-1.245-1.66-.813-2.97-1.904-3.931-3.271l1.636-1.758c2.067 2.539 4.525 3.809 7.373 3.809 2.442 0 4.346-.725 5.713-2.173 1.367-1.433 2.075-3.426 2.124-5.982v-3.32c-1.872 2.604-4.598 3.906-8.179 3.906-3.059 0-5.517-1.22-7.373-3.662-1.855-2.441-2.783-5.737-2.783-9.888v-.39Zm2.954.513c0 3.369.676 6.03 2.027 7.983 1.351 1.937 3.255 2.905 5.713 2.905 3.597 0 6.144-1.611 7.641-4.834v-12.28c-.683-1.693-1.668-2.979-2.954-3.857-1.286-.896-2.832-1.343-4.639-1.343-2.457 0-4.37.968-5.737 2.905-1.367 1.921-2.051 4.761-2.051 8.521ZM471.53 325c-.293-.83-.48-2.059-.561-3.687-1.026 1.335-2.336 2.369-3.931 3.101a12.035 12.035 0 0 1-5.029 1.074c-2.539 0-4.598-.708-6.177-2.124-1.562-1.416-2.344-3.206-2.344-5.371 0-2.571 1.066-4.606 3.199-6.103 2.148-1.498 5.135-2.246 8.959-2.246h5.298v-3.003c0-1.888-.586-3.37-1.757-4.444-1.156-1.09-2.849-1.635-5.079-1.635-2.034 0-3.719.52-5.053 1.562-1.335 1.042-2.002 2.295-2.002 3.76l-2.93-.025c0-2.099.977-3.914 2.93-5.444 1.953-1.546 4.354-2.319 7.202-2.319 2.946 0 5.265.74 6.958 2.221 1.709 1.465 2.588 3.516 2.637 6.153v12.5c0 2.555.268 4.468.805 5.737V325h-3.125Zm-9.179-2.1c1.953 0 3.694-.472 5.224-1.416 1.546-.944 2.669-2.205 3.369-3.784v-5.81h-5.224c-2.914.032-5.192.569-6.836 1.611-1.644 1.025-2.466 2.441-2.466 4.248 0 1.481.545 2.71 1.636 3.687 1.106.976 2.539 1.464 4.297 1.464Zm22.583 2.1h-2.93v-26.416h2.93V325Zm-3.443-34.058c0-.553.179-1.017.537-1.391.358-.391.847-.586 1.465-.586.619 0 1.107.195 1.465.586.374.374.562.838.562 1.391 0 .554-.188 1.018-.562 1.392-.358.374-.846.562-1.465.562-.618 0-1.107-.188-1.465-.562-.358-.374-.537-.838-.537-1.392Zm14.185 7.642.097 4.517c.993-1.628 2.23-2.865 3.711-3.711 1.481-.863 3.117-1.294 4.908-1.294 2.832 0 4.939.797 6.323 2.392 1.383 1.595 2.083 3.988 2.099 7.178V325h-2.905v-17.358c-.016-2.36-.521-4.118-1.513-5.274-.977-1.155-2.548-1.733-4.712-1.733-1.807 0-3.41.569-4.81 1.709-1.383 1.123-2.409 2.645-3.076 4.565V325h-2.905v-26.416h2.783Zm40.527 19.702c0-1.448-.586-2.612-1.758-3.491-1.155-.879-2.905-1.563-5.249-2.051-2.343-.504-4.166-1.074-5.468-1.709-1.286-.651-2.247-1.44-2.881-2.368-.619-.928-.928-2.051-.928-3.369 0-2.083.871-3.801 2.612-5.152 1.742-1.367 3.972-2.05 6.69-2.05 2.946 0 5.306.732 7.08 2.197 1.79 1.449 2.685 3.345 2.685 5.688h-2.929c0-1.546-.651-2.832-1.953-3.857-1.286-1.025-2.914-1.538-4.883-1.538-1.921 0-3.467.431-4.639 1.294-1.156.846-1.733 1.953-1.733 3.32 0 1.319.48 2.344 1.44 3.076.977.717 2.743 1.376 5.298 1.978 2.572.602 4.492 1.245 5.762 1.929 1.285.683 2.238 1.505 2.856 2.465.619.961.928 2.124.928 3.492 0 2.229-.904 4.012-2.71 5.346-1.791 1.335-4.134 2.002-7.031 2.002-3.077 0-5.575-.74-7.496-2.221-1.904-1.498-2.856-3.386-2.856-5.664h2.93c.114 1.709.83 3.043 2.148 4.003 1.335.944 3.093 1.416 5.274 1.416 2.034 0 3.678-.447 4.931-1.342 1.253-.895 1.88-2.027 1.88-3.394Zm14.063-26.465v6.763h5.468v2.393h-5.468v17.602c0 1.465.26 2.555.781 3.272.537.716 1.424 1.074 2.661 1.074.488 0 1.278-.082 2.368-.244l.122 2.392c-.765.277-1.806.415-3.125.415-2.002 0-3.458-.578-4.37-1.733-.911-1.172-1.367-2.889-1.367-5.151v-17.627h-4.858v-2.393h4.858v-6.763h2.93ZM600.974 325h-3.028v-17.041h-20.312V325h-3.003v-35.547h3.003v15.967h20.312v-15.967h3.028V325Zm25.366-3.345c-1.758 2.556-4.566 3.833-8.423 3.833-2.816 0-4.956-.814-6.421-2.441-1.465-1.644-2.213-4.069-2.246-7.276v-17.187h2.905v16.821c0 5.03 2.035 7.544 6.104 7.544 4.232 0 6.909-1.749 8.032-5.249v-19.116h2.93V325h-2.832l-.049-3.345Zm13.159-23.071.098 4.297c.976-1.595 2.197-2.791 3.662-3.589 1.465-.798 3.092-1.196 4.883-1.196 4.166 0 6.811 1.709 7.934 5.127.944-1.644 2.206-2.906 3.784-3.785 1.579-.895 3.321-1.342 5.225-1.342 5.664 0 8.553 3.092 8.667 9.277V325h-2.93v-17.407c-.016-2.36-.529-4.11-1.538-5.249-.993-1.14-2.62-1.709-4.883-1.709-2.099.032-3.873.716-5.322 2.051-1.448 1.318-2.254 2.929-2.417 4.834V325h-2.93v-17.627c-.016-2.262-.553-3.947-1.611-5.054-1.042-1.123-2.653-1.684-4.834-1.684-1.839 0-3.418.529-4.736 1.587-1.319 1.041-2.295 2.596-2.93 4.663V325h-2.93v-26.416h2.808ZM697.849 325c-.293-.83-.481-2.059-.562-3.687-1.025 1.335-2.336 2.369-3.931 3.101a12.032 12.032 0 0 1-5.029 1.074c-2.539 0-4.598-.708-6.177-2.124-1.562-1.416-2.343-3.206-2.343-5.371 0-2.571 1.066-4.606 3.198-6.103 2.148-1.498 5.135-2.246 8.96-2.246h5.298v-3.003c0-1.888-.586-3.37-1.758-4.444-1.156-1.09-2.848-1.635-5.078-1.635-2.035 0-3.719.52-5.054 1.562-1.335 1.042-2.002 2.295-2.002 3.76l-2.93-.025c0-2.099.977-3.914 2.93-5.444 1.953-1.546 4.354-2.319 7.202-2.319 2.946 0 5.266.74 6.958 2.221 1.709 1.465 2.588 3.516 2.637 6.153v12.5c0 2.555.269 4.468.806 5.737V325h-3.125Zm-9.18-2.1c1.953 0 3.695-.472 5.225-1.416 1.546-.944 2.669-2.205 3.369-3.784v-5.81h-5.225c-2.913.032-5.192.569-6.836 1.611-1.644 1.025-2.466 2.441-2.466 4.248 0 1.481.546 2.71 1.636 3.687 1.107.976 2.539 1.464 4.297 1.464Zm22.095-24.316.097 4.517c.993-1.628 2.23-2.865 3.711-3.711 1.481-.863 3.117-1.294 4.907-1.294 2.833 0 4.94.797 6.324 2.392 1.383 1.595 2.083 3.988 2.099 7.178V325h-2.905v-17.358c-.016-2.36-.521-4.118-1.514-5.274-.976-1.155-2.547-1.733-4.712-1.733-1.806 0-3.409.569-4.809 1.709-1.384 1.123-2.409 2.645-3.076 4.565V325h-2.906v-26.416h2.784ZM738.742 325h-2.93v-26.416h2.93V325Zm-3.442-34.058c0-.553.179-1.017.537-1.391.358-.391.846-.586 1.465-.586.618 0 1.107.195 1.465.586.374.374.561.838.561 1.391 0 .554-.187 1.018-.561 1.392-.358.374-.847.562-1.465.562-.619 0-1.107-.188-1.465-.562-.358-.374-.537-.838-.537-1.392Zm15.942.879v6.763h5.469v2.393h-5.469v17.602c0 1.465.261 2.555.781 3.272.538.716 1.425 1.074 2.662 1.074.488 0 1.277-.082 2.368-.244l.122 2.392c-.765.277-1.807.415-3.125.415-2.002 0-3.459-.578-4.37-1.733-.912-1.172-1.368-2.889-1.368-5.151v-17.627h-4.858v-2.393h4.858v-6.763h2.93Zm19.898 28.98 7.714-22.217h3.15l-11.279 30.908-.586 1.367c-1.449 3.207-3.687 4.81-6.714 4.81-.7 0-1.449-.114-2.246-.342l-.025-2.417 1.514.147c1.432 0 2.588-.358 3.467-1.075.895-.699 1.652-1.912 2.27-3.637l1.294-3.565-9.961-26.196h3.199l8.203 22.217Zm25.952-9.4c0-2.539.488-4.825 1.465-6.86.992-2.034 2.384-3.613 4.174-4.736 1.807-1.14 3.85-1.709 6.128-1.709 3.516 0 6.364 1.237 8.545 3.711 2.181 2.457 3.272 5.721 3.272 9.79v.61c0 2.555-.497 4.858-1.489 6.909-.977 2.035-2.361 3.605-4.151 4.712-1.79 1.107-3.833 1.66-6.128 1.66-3.499 0-6.347-1.229-8.545-3.686-2.181-2.474-3.271-5.746-3.271-9.815v-.586Zm2.929.806c0 3.158.814 5.754 2.442 7.788 1.644 2.018 3.792 3.027 6.445 3.027 2.637 0 4.769-1.009 6.397-3.027 1.644-2.034 2.466-4.712 2.466-8.032v-.562c0-2.018-.375-3.865-1.124-5.542-.748-1.676-1.798-2.97-3.149-3.881-1.351-.928-2.897-1.392-4.639-1.392-2.604 0-4.728 1.025-6.372 3.076-1.644 2.035-2.466 4.704-2.466 8.008v.537Zm29.493-13.623.097 4.517c.993-1.628 2.23-2.865 3.711-3.711 1.481-.863 3.117-1.294 4.907-1.294 2.833 0 4.94.797 6.324 2.392 1.383 1.595 2.083 3.988 2.099 7.178V325h-2.905v-17.358c-.016-2.36-.521-4.118-1.514-5.274-.976-1.155-2.547-1.733-4.712-1.733-1.806 0-3.409.569-4.809 1.709-1.384 1.123-2.409 2.645-3.076 4.565V325h-2.906v-26.416h2.784ZM867.062 325v-35.547h9.937c2.913 0 5.526.667 7.837 2.002 2.311 1.318 4.11 3.215 5.395 5.689 1.303 2.474 1.954 5.289 1.954 8.447v3.271c0 3.174-.643 5.99-1.929 8.448-1.286 2.457-3.101 4.353-5.444 5.688-2.328 1.335-5.005 2.002-8.033 2.002h-9.717Zm3.003-32.983v30.444h6.739c3.743 0 6.746-1.237 9.008-3.711 2.263-2.49 3.394-5.851 3.394-10.083v-3.125c0-4.085-1.115-7.357-3.345-9.814-2.229-2.458-5.167-3.695-8.813-3.711h-6.983ZM902.414 325h-2.93v-26.416h2.93V325Zm-3.442-34.058c0-.553.179-1.017.537-1.391.358-.391.846-.586 1.465-.586.618 0 1.106.195 1.464.586.375.374.562.838.562 1.391 0 .554-.187 1.018-.562 1.392-.358.374-.846.562-1.464.562-.619 0-1.107-.188-1.465-.562-.358-.374-.537-.838-.537-1.392Zm27.221 27.344c0-1.448-.586-2.612-1.757-3.491-1.156-.879-2.906-1.563-5.249-2.051-2.344-.504-4.167-1.074-5.469-1.709-1.286-.651-2.246-1.44-2.881-2.368-.619-.928-.928-2.051-.928-3.369 0-2.083.871-3.801 2.612-5.152 1.742-1.367 3.972-2.05 6.69-2.05 2.946 0 5.306.732 7.08 2.197 1.79 1.449 2.686 3.345 2.686 5.688h-2.93c0-1.546-.651-2.832-1.953-3.857-1.286-1.025-2.914-1.538-4.883-1.538-1.921 0-3.467.431-4.639 1.294-1.155.846-1.733 1.953-1.733 3.32 0 1.319.48 2.344 1.44 3.076.977.717 2.743 1.376 5.298 1.978 2.572.602 4.492 1.245 5.762 1.929 1.286.683 2.238 1.505 2.856 2.465.619.961.928 2.124.928 3.492 0 2.229-.903 4.012-2.71 5.346-1.79 1.335-4.134 2.002-7.031 2.002-3.076 0-5.575-.74-7.495-2.221-1.905-1.498-2.857-3.386-2.857-5.664h2.93c.114 1.709.83 3.043 2.148 4.003 1.335.944 3.093 1.416 5.274 1.416 2.034 0 3.678-.447 4.931-1.342 1.254-.895 1.88-2.027 1.88-3.394Zm19.287 4.736c2.035 0 3.736-.569 5.103-1.709 1.383-1.155 2.132-2.644 2.246-4.467h2.808a8.341 8.341 0 0 1-1.514 4.419c-.928 1.318-2.165 2.352-3.711 3.1-1.53.749-3.174 1.123-4.932 1.123-3.466 0-6.217-1.204-8.251-3.613-2.019-2.409-3.028-5.648-3.028-9.717v-.879c0-2.604.456-4.907 1.367-6.909.912-2.002 2.214-3.548 3.907-4.639 1.709-1.09 3.702-1.635 5.981-1.635 2.897 0 5.282.862 7.153 2.588 1.888 1.725 2.898 3.995 3.028 6.811h-2.808c-.13-2.067-.879-3.735-2.246-5.005-1.351-1.269-3.06-1.904-5.127-1.904-2.637 0-4.687.952-6.152 2.856-1.449 1.905-2.173 4.574-2.173 8.008v.855c0 3.369.724 5.997 2.173 7.885 1.465 1.888 3.523 2.832 6.176 2.832Zm14.405-11.621c0-2.539.488-4.825 1.465-6.86.992-2.034 2.384-3.613 4.174-4.736 1.807-1.14 3.85-1.709 6.128-1.709 3.516 0 6.364 1.237 8.545 3.711 2.181 2.457 3.272 5.721 3.272 9.79v.61c0 2.555-.497 4.858-1.49 6.909-.976 2.035-2.36 3.605-4.15 4.712-1.79 1.107-3.833 1.66-6.128 1.66-3.499 0-6.347-1.229-8.545-3.686-2.181-2.474-3.271-5.746-3.271-9.815v-.586Zm2.929.806c0 3.158.814 5.754 2.442 7.788 1.644 2.018 3.792 3.027 6.445 3.027 2.637 0 4.769-1.009 6.397-3.027 1.644-2.034 2.465-4.712 2.465-8.032v-.562c0-2.018-.374-3.865-1.123-5.542-.748-1.676-1.798-2.97-3.149-3.881-1.351-.928-2.897-1.392-4.639-1.392-2.604 0-4.728 1.025-6.372 3.076-1.644 2.035-2.466 4.704-2.466 8.008v.537Zm38.916-11.133c-.62-.114-1.28-.171-1.977-.171-1.823 0-3.369.513-4.639 1.538-1.253 1.01-2.148 2.483-2.685 4.419V325h-2.906v-26.416h2.857l.049 4.199c1.546-3.125 4.028-4.687 7.446-4.687.815 0 1.455.105 1.925.317l-.07 2.661Zm2.98 10.474c0-4.102.91-7.365 2.73-9.79 1.84-2.442 4.33-3.662 7.47-3.662 3.57 0 6.29 1.408 8.16 4.223V287.5h2.9V325h-2.73l-.12-3.516c-1.87 2.67-4.63 4.004-8.25 4.004-3.05 0-5.51-1.22-7.38-3.662-1.85-2.458-2.78-5.77-2.78-9.936v-.342Zm2.95.513c0 3.369.68 6.03 2.03 7.983 1.35 1.937 3.25 2.905 5.71 2.905 3.6 0 6.15-1.587 7.67-4.761v-12.402c-1.52-3.434-4.05-5.151-7.62-5.151-2.46 0-4.37.968-5.74 2.905-1.36 1.921-2.05 4.761-2.05 8.521ZM873 529v-22.75h6.719c2.437 0 4.286.505 5.547 1.516 1.26 1 1.89 2.479 1.89 4.437 0 1.177-.323 2.203-.968 3.078-.636.865-1.511 1.485-2.626 1.86 1.323.291 2.386.942 3.188 1.953.812 1.01 1.219 2.177 1.219 3.5 0 2.01-.651 3.583-1.953 4.718-1.292 1.126-3.094 1.688-5.407 1.688H873Zm1.922-10.938v9.313h5.766c1.645 0 2.947-.417 3.906-1.25.968-.844 1.453-2.01 1.453-3.5 0-1.406-.464-2.516-1.391-3.328-.916-.823-2.187-1.235-3.812-1.235h-5.922Zm0-1.609h5.25c1.604-.031 2.844-.406 3.719-1.125.885-.729 1.328-1.786 1.328-3.172 0-1.458-.459-2.531-1.375-3.218-.906-.698-2.282-1.047-4.125-1.047h-4.797v8.562Zm22.625 9.859 4.937-14.218h2.016l-7.219 19.781-.375.875c-.927 2.052-2.359 3.078-4.297 3.078-.448 0-.927-.073-1.437-.219l-.016-1.547.969.094c.917 0 1.656-.229 2.219-.687.573-.448 1.057-1.224 1.453-2.328l.828-2.282-6.375-16.765h2.047l5.25 14.218Zm34.187-4.406c-.26 2.396-1.119 4.229-2.578 5.5-1.448 1.271-3.38 1.906-5.797 1.906-1.687 0-3.182-.421-4.484-1.265-1.292-.844-2.292-2.037-3-3.578-.708-1.552-1.068-3.323-1.078-5.313v-2.953c0-2.021.354-3.812 1.062-5.375.709-1.562 1.724-2.766 3.047-3.609 1.334-.854 2.865-1.281 4.594-1.281 2.438 0 4.359.661 5.766 1.984 1.416 1.312 2.239 3.13 2.468 5.453h-1.937c-.479-3.865-2.578-5.797-6.297-5.797-2.062 0-3.708.771-4.938 2.313-1.218 1.541-1.828 3.671-1.828 6.39v2.781c0 2.626.594 4.719 1.782 6.282 1.198 1.562 2.812 2.344 4.843 2.344 2.011 0 3.526-.48 4.547-1.438 1.021-.969 1.651-2.417 1.891-4.344h1.937Zm6.328 7.094h-1.874v-24h1.874v24Zm7.188 0h-1.875v-16.906h1.875V529Zm-2.203-21.797c0-.354.114-.651.344-.891.229-.25.541-.374.937-.374s.708.124.938.374c.239.24.359.537.359.891s-.12.651-.359.891c-.23.239-.542.359-.938.359-.396 0-.708-.12-.937-.359a1.237 1.237 0 0 1-.344-.891Zm13.547 20.531c1.302 0 2.39-.364 3.265-1.093.886-.74 1.365-1.693 1.438-2.86h1.797a5.332 5.332 0 0 1-.969 2.828c-.594.844-1.385 1.506-2.375 1.985a7.085 7.085 0 0 1-3.156.718c-2.219 0-3.979-.77-5.282-2.312-1.291-1.542-1.937-3.615-1.937-6.219v-.562c0-1.667.292-3.141.875-4.422.583-1.281 1.417-2.271 2.5-2.969 1.094-.698 2.37-1.047 3.828-1.047 1.854 0 3.38.552 4.578 1.657 1.209 1.104 1.854 2.557 1.938 4.359h-1.797c-.083-1.323-.563-2.391-1.438-3.203-.864-.813-1.958-1.219-3.281-1.219-1.687 0-3 .609-3.937 1.828-.927 1.219-1.391 2.927-1.391 5.125v.547c0 2.156.464 3.839 1.391 5.047.937 1.208 2.255 1.812 3.953 1.812Zm14.265-7.25-2.14 2.063V529h-1.875v-24h1.875v15.359l1.765-1.906 6.469-6.359h2.359l-7.171 7.125 7.797 9.781h-2.235l-6.844-8.516Zm21.797 4.219c0-.927-.375-1.672-1.125-2.234-.739-.563-1.859-1-3.359-1.313-1.5-.323-2.667-.687-3.5-1.094-.823-.416-1.438-.921-1.844-1.515-.396-.594-.594-1.313-.594-2.156 0-1.334.558-2.433 1.672-3.297 1.115-.875 2.542-1.313 4.282-1.313 1.885 0 3.395.469 4.531 1.407 1.146.927 1.719 2.14 1.719 3.64h-1.876c0-.989-.416-1.812-1.25-2.469-.822-.656-1.864-.984-3.124-.984-1.23 0-2.219.276-2.969.828-.74.542-1.11 1.25-1.11 2.125 0 .844.308 1.5.922 1.969.625.458 1.755.88 3.391 1.265 1.646.386 2.875.797 3.687 1.235.823.437 1.433.963 1.829 1.578.395.615.593 1.359.593 2.234 0 1.427-.578 2.568-1.734 3.422-1.146.854-2.646 1.281-4.5 1.281-1.969 0-3.568-.473-4.797-1.421-1.219-.959-1.828-2.167-1.828-3.625h1.875c.073 1.093.531 1.948 1.375 2.562.854.604 1.979.906 3.375.906 1.302 0 2.354-.286 3.156-.859s1.203-1.297 1.203-2.172Zm9.074-18.453 8.39 20.078 8.43-20.078h2.56V529h-1.92v-9.906l.15-10.156-8.46 20.062h-1.49l-8.44-19.984.16 10.015V529h-1.922v-22.75h2.542Zm26.8 22.75h-1.87v-16.906h1.87V529Zm-2.2-21.797c0-.354.11-.651.34-.891.23-.25.54-.374.94-.374.4 0 .71.124.94.374.24.24.36.537.36.891s-.12.651-.36.891c-.23.239-.54.359-.94.359-.4 0-.71-.12-.94-.359-.23-.24-.34-.537-.34-.891Zm9.08 4.891.06 2.89c.63-1.041 1.43-1.833 2.37-2.375.95-.552 2-.828 3.14-.828 1.82 0 3.17.511 4.05 1.531.89 1.021 1.33 2.553 1.35 4.594V529h-1.86v-11.109c-.01-1.511-.34-2.636-.97-3.375-.63-.74-1.63-1.11-3.02-1.11-1.15 0-2.18.365-3.08 1.094-.88.719-1.54 1.693-1.97 2.922V529h-1.86v-16.906h1.79Zm26.68 14.765c-1.12 1.636-2.92 2.453-5.39 2.453-1.8 0-3.17-.52-4.11-1.562-.93-1.052-1.41-2.604-1.43-4.656v-11h1.86v10.765c0 3.219 1.3 4.829 3.9 4.829 2.71 0 4.42-1.12 5.14-3.36v-12.234h1.88V529h-1.82l-.03-2.141Zm9.63-19.093v4.328h3.5v1.531h-3.5v11.266c0 .937.17 1.635.5 2.093.34.459.91.688 1.7.688.31 0 .82-.052 1.52-.156l.08 1.531c-.49.177-1.16.265-2 .265-1.29 0-2.22-.369-2.8-1.109-.58-.75-.88-1.849-.88-3.297v-11.281h-3.11v-1.531h3.11v-4.328h1.88Zm13.92 21.546c-1.44 0-2.74-.354-3.91-1.062-1.15-.708-2.05-1.693-2.7-2.953-.64-1.271-.97-2.693-.97-4.266v-.672c0-1.625.32-3.088.94-4.39.64-1.302 1.52-2.323 2.64-3.063 1.13-.75 2.34-1.125 3.66-1.125 2.05 0 3.67.703 4.87 2.11 1.21 1.395 1.81 3.307 1.81 5.734v1.047h-12.06v.359c0 1.917.55 3.516 1.64 4.797 1.11 1.271 2.49 1.906 4.16 1.906 1 0 1.88-.182 2.64-.546.77-.365 1.47-.948 2.09-1.75l1.17.89c-1.37 1.99-3.36 2.984-5.98 2.984Zm-.34-15.937c-1.41 0-2.6.516-3.57 1.547-.95 1.031-1.54 2.417-1.75 4.156h10.14v-.203c-.05-1.625-.51-2.948-1.39-3.969-.87-1.021-2.02-1.531-3.43-1.531Zm12.68 6.359V529h-1.92v-22.75h7.75c2.37 0 4.23.604 5.6 1.812 1.37 1.209 2.06 2.87 2.06 4.985 0 2.135-.66 3.786-1.99 4.953-1.31 1.156-3.21 1.734-5.71 1.734h-5.79Zm0-1.625h5.83c1.87 0 3.29-.442 4.27-1.328.98-.885 1.47-2.12 1.47-3.703 0-1.573-.49-2.823-1.47-3.75-.97-.937-2.35-1.417-4.14-1.437h-5.96v10.218Zm23.69 11.203c-1.44 0-2.74-.354-3.9-1.062-1.16-.708-2.06-1.693-2.71-2.953-.64-1.271-.97-2.693-.97-4.266v-.672c0-1.625.32-3.088.94-4.39.64-1.302 1.52-2.323 2.64-3.063 1.13-.75 2.35-1.125 3.66-1.125 2.05 0 3.68.703 4.87 2.11 1.21 1.395 1.82 3.307 1.82 5.734v1.047h-12.07v.359c0 1.917.55 3.516 1.64 4.797 1.11 1.271 2.49 1.906 4.16 1.906 1 0 1.88-.182 2.64-.546.77-.365 1.47-.948 2.09-1.75l1.18.89c-1.38 1.99-3.37 2.984-5.99 2.984Zm-.34-15.937c-1.41 0-2.6.516-3.56 1.547s-1.55 2.417-1.75 4.156h10.14v-.203c-.06-1.625-.52-2.948-1.39-3.969-.88-1.021-2.03-1.531-3.44-1.531Zm18.14.313a7.04 7.04 0 0 0-1.27-.11c-1.16 0-2.15.328-2.97.984-.8.646-1.37 1.589-1.71 2.829V529h-1.86v-16.906h1.82l.04 2.687c.99-2 2.57-3 4.76-3 .52 0 .93.068 1.24.203l-.05 1.704ZM144.797 519.734V529h-1.922v-22.75h7.75c2.365 0 4.229.604 5.594 1.812 1.375 1.209 2.062 2.87 2.062 4.985 0 2.135-.661 3.786-1.984 4.953-1.313 1.156-3.219 1.734-5.719 1.734h-5.781Zm0-1.625h5.828c1.865 0 3.286-.442 4.266-1.328.979-.885 1.468-2.12 1.468-3.703 0-1.573-.489-2.823-1.468-3.75-.969-.937-2.349-1.417-4.141-1.437h-5.953v10.218Zm25.172-4.421a6.98 6.98 0 0 0-1.266-.11c-1.167 0-2.156.328-2.969.984-.802.646-1.375 1.589-1.718 2.829V529h-1.86v-16.906h1.828l.032 2.687c.989-2 2.578-3 4.765-3 .521 0 .933.068 1.235.203l-.047 1.704Zm1.625 6.609c0-1.625.312-3.089.937-4.391.636-1.302 1.526-2.312 2.672-3.031 1.156-.729 2.464-1.094 3.922-1.094 2.25 0 4.073.792 5.469 2.375 1.396 1.573 2.094 3.662 2.094 6.266v.39c0 1.636-.318 3.11-.954 4.422-.625 1.302-1.51 2.308-2.656 3.016-1.146.708-2.453 1.062-3.922 1.062-2.239 0-4.062-.786-5.468-2.359-1.396-1.583-2.094-3.677-2.094-6.281v-.375Zm1.875.515c0 2.021.521 3.683 1.562 4.985 1.052 1.292 2.427 1.937 4.125 1.937 1.688 0 3.052-.645 4.094-1.937 1.052-1.302 1.578-3.016 1.578-5.141v-.359c0-1.292-.239-2.474-.719-3.547-.479-1.073-1.151-1.901-2.015-2.484-.865-.594-1.854-.891-2.969-.891-1.667 0-3.026.656-4.078 1.969-1.052 1.302-1.578 3.01-1.578 5.125v.343Zm16.343-.421c0-2.646.584-4.74 1.75-6.282 1.178-1.552 2.771-2.328 4.782-2.328 2.302 0 4.052.917 5.25 2.75l.094-2.437h1.75v16.562c0 2.177-.61 3.901-1.829 5.172-1.218 1.271-2.869 1.906-4.953 1.906a7.514 7.514 0 0 1-3.375-.796c-1.062-.521-1.901-1.219-2.515-2.094l1.046-1.125c1.323 1.625 2.896 2.437 4.719 2.437 1.563 0 2.781-.463 3.657-1.39.874-.917 1.328-2.193 1.359-3.828v-2.126c-1.198 1.667-2.943 2.5-5.235 2.5-1.958 0-3.531-.781-4.718-2.343-1.188-1.563-1.782-3.672-1.782-6.328v-.25Zm1.891.328c0 2.156.432 3.859 1.297 5.109.865 1.24 2.083 1.86 3.656 1.86 2.302 0 3.933-1.032 4.891-3.094v-7.86c-.438-1.083-1.068-1.906-1.891-2.468-.823-.573-1.812-.86-2.968-.86-1.573 0-2.797.62-3.672 1.86-.875 1.229-1.313 3.046-1.313 5.453Zm24.422-7.031a6.98 6.98 0 0 0-1.266-.11c-1.166 0-2.156.328-2.968.984-.802.646-1.375 1.589-1.719 2.829V529h-1.86v-16.906h1.829l.031 2.687c.989-2 2.578-3 4.766-3 .52 0 .932.068 1.234.203l-.047 1.704ZM229.141 529c-.188-.531-.308-1.318-.36-2.359a6.58 6.58 0 0 1-2.515 1.984 7.71 7.71 0 0 1-3.219.687c-1.625 0-2.943-.453-3.953-1.359-1-.906-1.5-2.052-1.5-3.437 0-1.646.682-2.948 2.047-3.907 1.375-.958 3.286-1.437 5.734-1.437h3.391v-1.922c0-1.208-.375-2.156-1.125-2.844-.74-.698-1.823-1.047-3.25-1.047-1.302 0-2.381.334-3.235 1-.854.667-1.281 1.469-1.281 2.407L218 516.75c0-1.344.625-2.505 1.875-3.484 1.25-.99 2.786-1.485 4.609-1.485 1.886 0 3.37.474 4.454 1.422 1.093.938 1.656 2.25 1.687 3.938v8c0 1.635.172 2.859.516 3.671V529h-2Zm-5.875-1.344c1.25 0 2.364-.302 3.343-.906.99-.604 1.709-1.411 2.157-2.422v-3.719h-3.344c-1.865.021-3.323.365-4.375 1.032-1.052.656-1.578 1.562-1.578 2.718 0 .948.349 1.735 1.047 2.36.708.625 1.625.937 2.75.937Zm14.062-15.562.063 2.75c.625-1.021 1.406-1.787 2.343-2.297.938-.511 1.98-.766 3.125-.766 2.667 0 4.36 1.094 5.079 3.281.604-1.052 1.411-1.859 2.421-2.421 1.011-.573 2.125-.86 3.344-.86 3.625 0 5.474 1.979 5.547 5.938V529h-1.875v-11.141c-.01-1.51-.339-2.63-.984-3.359-.636-.729-1.677-1.094-3.125-1.094-1.344.021-2.48.459-3.407 1.313-.927.843-1.442 1.875-1.547 3.093V529h-1.874v-11.281c-.011-1.448-.355-2.526-1.032-3.235-.666-.718-1.698-1.078-3.094-1.078-1.177 0-2.187.339-3.031 1.016-.843.667-1.469 1.661-1.875 2.984V529h-1.875v-16.906h1.797Zm28.375 0 .063 2.75c.625-1.021 1.406-1.787 2.343-2.297.938-.511 1.98-.766 3.125-.766 2.667 0 4.36 1.094 5.078 3.281.605-1.052 1.412-1.859 2.422-2.421 1.011-.573 2.125-.86 3.344-.86 3.625 0 5.474 1.979 5.547 5.938V529h-1.875v-11.141c-.01-1.51-.339-2.63-.984-3.359-.636-.729-1.677-1.094-3.125-1.094-1.344.021-2.48.459-3.407 1.313-.927.843-1.442 1.875-1.546 3.093V529h-1.876v-11.281c-.01-1.448-.354-2.526-1.031-3.235-.666-.718-1.698-1.078-3.093-1.078-1.178 0-2.188.339-3.032 1.016-.844.667-1.468 1.661-1.875 2.984V529h-1.875v-16.906h1.797Zm33.219 17.218c-1.438 0-2.74-.354-3.906-1.062-1.157-.708-2.058-1.693-2.704-2.953-.645-1.271-.968-2.693-.968-4.266v-.672c0-1.625.312-3.088.937-4.39.636-1.302 1.516-2.323 2.641-3.063 1.125-.75 2.344-1.125 3.656-1.125 2.052 0 3.677.703 4.875 2.11 1.208 1.395 1.813 3.307 1.813 5.734v1.047h-12.063v.359c0 1.917.547 3.516 1.641 4.797 1.104 1.271 2.489 1.906 4.156 1.906 1 0 1.88-.182 2.641-.546.77-.365 1.468-.948 2.093-1.75l1.172.89c-1.375 1.99-3.37 2.984-5.984 2.984Zm-.344-15.937c-1.406 0-2.594.516-3.562 1.547-.959 1.031-1.542 2.417-1.75 4.156h10.14v-.203c-.052-1.625-.515-2.948-1.39-3.969-.875-1.021-2.021-1.531-3.438-1.531Zm9.578 7.016c0-2.625.584-4.714 1.75-6.266 1.177-1.563 2.771-2.344 4.782-2.344 2.281 0 4.02.901 5.218 2.703V505h1.86v24h-1.75l-.078-2.25c-1.198 1.708-2.959 2.562-5.282 2.562-1.948 0-3.521-.781-4.718-2.343-1.188-1.573-1.782-3.693-1.782-6.36v-.218Zm1.891.328c0 2.156.432 3.859 1.297 5.109.864 1.24 2.083 1.86 3.656 1.86 2.302 0 3.938-1.016 4.906-3.047v-7.938c-.968-2.198-2.594-3.297-4.875-3.297-1.573 0-2.797.62-3.672 1.86-.875 1.229-1.312 3.046-1.312 5.453Zm38.031 0c0 2.635-.583 4.729-1.75 6.281-1.167 1.542-2.734 2.312-4.703 2.312-2.354 0-4.135-.874-5.344-2.624l-.078 2.312h-1.75v-24h1.859v9.547c1.188-1.844 2.948-2.766 5.282-2.766 2 0 3.578.766 4.734 2.297 1.167 1.521 1.75 3.641 1.75 6.36v.281Zm-1.875-.328c0-2.23-.432-3.948-1.297-5.157-.864-1.218-2.083-1.828-3.656-1.828-1.198 0-2.214.297-3.047.891-.833.583-1.463 1.443-1.891 2.578v7.625c.938 2.125 2.594 3.188 4.969 3.188 1.542 0 2.745-.61 3.61-1.829.875-1.218 1.312-3.041 1.312-5.468Zm11.188 5.921 4.937-14.218h2.016l-7.219 19.781-.375.875c-.927 2.052-2.359 3.078-4.297 3.078-.448 0-.927-.073-1.437-.219l-.016-1.547.969.094c.916 0 1.656-.229 2.219-.687.572-.448 1.057-1.224 1.453-2.328l.828-2.282-6.375-16.765h2.047l5.25 14.218Zm9.406 1.563c0-.365.114-.672.344-.922.239-.26.567-.391.984-.391.417 0 .745.131.984.391.24.25.36.557.36.922s-.12.667-.36.906c-.239.229-.567.344-.984.344-.417 0-.745-.115-.984-.344-.23-.239-.344-.541-.344-.906Zm.031-14.422c0-.364.115-.672.344-.922.239-.26.568-.39.984-.39.417 0 .745.13.985.39.239.25.359.558.359.922 0 .365-.12.667-.359.906-.24.23-.568.344-.985.344-.416 0-.745-.114-.984-.344-.229-.239-.344-.541-.344-.906Zm17.906-7.203 8.391 20.078 8.422-20.078h2.562V529h-1.921v-9.906l.156-10.156L393.875 529h-1.484l-8.438-19.984.156 10.015V529h-1.921v-22.75h2.546ZM411.531 529h-1.875v-16.906h1.875V529Zm-2.203-21.797c0-.354.115-.651.344-.891.229-.25.542-.374.937-.374.396 0 .709.124.938.374.239.24.359.537.359.891s-.12.651-.359.891c-.229.239-.542.359-.938.359-.395 0-.708-.12-.937-.359a1.241 1.241 0 0 1-.344-.891Zm9.078 4.891.063 2.89c.635-1.041 1.427-1.833 2.375-2.375.948-.552 1.995-.828 3.14-.828 1.813 0 3.162.511 4.047 1.531.886 1.021 1.334 2.553 1.344 4.594V529h-1.859v-11.109c-.011-1.511-.334-2.636-.969-3.375-.625-.74-1.63-1.11-3.016-1.11a4.74 4.74 0 0 0-3.078 1.094c-.885.719-1.542 1.693-1.969 2.922V529h-1.859v-16.906h1.781ZM436.312 529h-1.874v-16.906h1.874V529Zm-2.203-21.797c0-.354.115-.651.344-.891.229-.25.542-.374.938-.374.395 0 .708.124.937.374.24.24.36.537.36.891s-.12.651-.36.891c-.229.239-.542.359-.937.359-.396 0-.709-.12-.938-.359a1.241 1.241 0 0 1-.344-.891Zm6.266 13.094c0-1.625.313-3.089.937-4.391.636-1.302 1.527-2.312 2.672-3.031 1.157-.729 2.464-1.094 3.922-1.094 2.25 0 4.073.792 5.469 2.375 1.396 1.573 2.094 3.662 2.094 6.266v.39c0 1.636-.318 3.11-.953 4.422-.625 1.302-1.511 2.308-2.657 3.016-1.145.708-2.453 1.062-3.921 1.062-2.24 0-4.063-.786-5.469-2.359-1.396-1.583-2.094-3.677-2.094-6.281v-.375Zm1.875.515c0 2.021.521 3.683 1.562 4.985 1.053 1.292 2.428 1.937 4.126 1.937 1.687 0 3.052-.645 4.093-1.937 1.052-1.302 1.578-3.016 1.578-5.141v-.359c0-1.292-.239-2.474-.718-3.547-.48-1.073-1.151-1.901-2.016-2.484-.865-.594-1.854-.891-2.969-.891-1.666 0-3.026.656-4.078 1.969-1.052 1.302-1.578 3.01-1.578 5.125v.343Zm18.875-8.718.063 2.89c.635-1.041 1.427-1.833 2.374-2.375.948-.552 1.995-.828 3.141-.828 1.813 0 3.162.511 4.047 1.531.885 1.021 1.333 2.553 1.344 4.594V529h-1.86v-11.109c-.01-1.511-.333-2.636-.968-3.375-.625-.74-1.631-1.11-3.016-1.11a4.74 4.74 0 0 0-3.078 1.094c-.886.719-1.542 1.693-1.969 2.922V529h-1.859v-16.906h1.781Zm19.672 4.515h1.937c1.073 0 2.011-.187 2.813-.562.802-.386 1.411-.906 1.828-1.563.427-.666.641-1.432.641-2.296 0-1.459-.412-2.599-1.235-3.422-.823-.823-2.005-1.235-3.547-1.235-1.458 0-2.656.433-3.593 1.297-.927.854-1.391 1.984-1.391 3.391h-1.875c0-1.177.297-2.25.891-3.219a5.97 5.97 0 0 1 2.468-2.266c1.052-.531 2.219-.796 3.5-.796 2.063 0 3.688.562 4.875 1.687 1.188 1.125 1.782 2.667 1.782 4.625 0 1.094-.349 2.104-1.047 3.031-.688.917-1.636 1.604-2.844 2.063 1.417.396 2.49 1.078 3.219 2.047.729.958 1.093 2.104 1.093 3.437 0 1.948-.635 3.516-1.906 4.703-1.271 1.188-2.968 1.781-5.094 1.781-1.354 0-2.598-.27-3.734-.812-1.125-.542-2-1.297-2.625-2.266-.614-.979-.922-2.114-.922-3.406h1.875c0 1.448.505 2.63 1.516 3.547 1.01.906 2.307 1.359 3.89 1.359 1.615 0 2.87-.411 3.766-1.234.906-.833 1.36-2.036 1.36-3.609 0-1.521-.49-2.683-1.469-3.485-.969-.802-2.401-1.203-4.297-1.203h-1.875v-1.594Zm24.625-10.531v1.641h-.219c-2.719 0-4.859.802-6.422 2.406-1.562 1.594-2.427 3.813-2.593 6.656a6.273 6.273 0 0 1 2.39-2c.969-.479 2.052-.719 3.25-.719 2 0 3.589.693 4.766 2.079 1.187 1.375 1.781 3.177 1.781 5.406 0 1.479-.276 2.812-.828 4-.552 1.187-1.344 2.114-2.375 2.781-1.031.656-2.208.984-3.531.984-2.177 0-3.948-.786-5.313-2.359-1.364-1.583-2.047-3.625-2.047-6.125v-1.875c0-4.073.927-7.224 2.781-9.453 1.855-2.24 4.485-3.38 7.891-3.422h.469Zm-3.891 9.594c-1.187 0-2.297.354-3.328 1.062-1.021.698-1.703 1.589-2.047 2.672V521c0 1.979.505 3.594 1.516 4.844 1.021 1.25 2.344 1.875 3.969 1.875 1.458 0 2.635-.578 3.531-1.735.906-1.156 1.359-2.614 1.359-4.375 0-1.791-.453-3.229-1.359-4.312-.896-1.083-2.11-1.625-3.641-1.625Zm21.641-9.594v1.641h-.219c-2.719 0-4.859.802-6.422 2.406-1.562 1.594-2.427 3.813-2.593 6.656a6.273 6.273 0 0 1 2.39-2c.969-.479 2.052-.719 3.25-.719 2 0 3.589.693 4.766 2.079 1.187 1.375 1.781 3.177 1.781 5.406 0 1.479-.276 2.812-.828 4-.552 1.187-1.344 2.114-2.375 2.781-1.031.656-2.208.984-3.531.984-2.177 0-3.948-.786-5.313-2.359-1.364-1.583-2.047-3.625-2.047-6.125v-1.875c0-4.073.927-7.224 2.781-9.453 1.855-2.24 4.485-3.38 7.891-3.422h.469Zm-3.891 9.594c-1.187 0-2.297.354-3.328 1.062-1.021.698-1.703 1.589-2.047 2.672V521c0 1.979.505 3.594 1.516 4.844 1.021 1.25 2.344 1.875 3.969 1.875 1.458 0 2.635-.578 3.531-1.735.906-1.156 1.359-2.614 1.359-4.375 0-1.791-.453-3.229-1.359-4.312-.896-1.083-2.11-1.625-3.641-1.625Zm11.875 1.672 1.11-11.094h11.375v1.734h-9.766l-.797 7.688c1.219-.833 2.646-1.25 4.281-1.25 2.052 0 3.688.667 4.907 2 1.218 1.333 1.828 3.109 1.828 5.328 0 2.396-.594 4.255-1.782 5.578-1.187 1.323-2.859 1.984-5.015 1.984-1.979 0-3.583-.552-4.813-1.656-1.229-1.104-1.932-2.651-2.109-4.64h1.797c.177 1.552.703 2.729 1.578 3.531.875.792 2.057 1.187 3.547 1.187 1.625 0 2.849-.515 3.672-1.546.833-1.032 1.25-2.5 1.25-4.407 0-1.666-.464-3.026-1.391-4.078-.927-1.052-2.193-1.578-3.797-1.578-.885 0-1.656.115-2.312.344-.657.219-1.349.651-2.078 1.297l-1.485-.422Z" fill="#424242"/><defs><linearGradient id="a" x1="0" y1="320" x2="819.2" y2="-294.4" gradientUnits="userSpaceOnUse"><stop stop-color="#78ECF2"/><stop offset="1" stop-color="#71AFE5"/></linearGradient><linearGradient id="b" x1="0" y1="640" x2="1280" y2="640" gradientUnits="userSpaceOnUse"><stop stop-color="#71AFE5"/><stop offset="1" stop-color="#6576CC"/></linearGradient><linearGradient id="d" x1="78" y1="78" x2="1202" y2="562" gradientUnits="userSpaceOnUse"><stop stop-color="#fff" stop-opacity=".9"/><stop offset="1" stop-color="#fff" stop-opacity=".7"/></linearGradient><linearGradient id="e" x1="429.5" y1="114" x2="493.5" y2="242" gradientUnits="userSpaceOnUse"><stop stop-color="#78ECF2"/><stop offset="1" stop-color="#71AFE5"/></linearGradient><filter id="c" x="48" y="48" width="1184" height="544" filterUnits="userSpaceOnUse" color-interpolation-filters="sRGB"><feFlood flood-opacity="0" result="BackgroundImageFix"/><feGaussianBlur in="BackgroundImage" stdDeviation="14"/><feComposite in2="SourceAlpha" operator="in" result="effect1_backgroundBlur_31037405"/><feColorMatrix in="SourceAlpha" values="0 0 0 0 0 0 0 0 0 0 0 0 0 0 0 0 0 0 127 0" result="hardAlpha"/><feMorphology radius="5" operator="dilate" in="SourceAlpha" result="effect2_dropShadow_31037405"/><feOffset/><feGaussianBlur stdDeviation="12.5"/><feComposite in2="hardAlpha" operator="out"/><feColorMatrix values="0 0 0 0 0 0 0 0 0 0 0 0 0 0 0 0 0 0 0.5 0"/><feBlend in2="effect1_backgroundBlur_31037405" result="effect2_dropShadow_31037405"/><feBlend in="SourceGraphic" in2="effect2_dropShadow_31037405" result="shape"/></filter><filter id="f" x="462.789" y="133.433" width="58.043" height="85.95" filterUnits="userSpaceOnUse" color-interpolation-filters="sRGB"><feFlood flood-opacity="0" result="BackgroundImageFix"/><feColorMatrix in="SourceAlpha" values="0 0 0 0 0 0 0 0 0 0 0 0 0 0 0 0 0 0 127 0" result="hardAlpha"/><feOffset dx=".313" dy=".625"/><feGaussianBlur stdDeviation=".625"/><feColorMatrix values="0 0 0 0 0.258824 0 0 0 0 0.258824 0 0 0 0 0.258824 0 0 0 1 0"/><feBlend in2="BackgroundImageFix" result="effect1_dropShadow_31037405"/><feBlend in="SourceGraphic" in2="effect1_dropShadow_31037405" result="shape"/></filter><filter id="g" x="466.789" y="137.867" width="58.043" height="85.95" filterUnits="userSpaceOnUse" color-interpolation-filters="sRGB"><feFlood flood-opacity="0" result="BackgroundImageFix"/><feColorMatrix in="SourceAlpha" values="0 0 0 0 0 0 0 0 0 0 0 0 0 0 0 0 0 0 127 0" result="hardAlpha"/><feOffset dx=".313" dy=".625"/><feGaussianBlur stdDeviation=".625"/><feColorMatrix values="0 0 0 0 0.258824 0 0 0 0 0.258824 0 0 0 0 0.258824 0 0 0 1 0"/><feBlend in2="BackgroundImageFix" result="effect1_dropShadow_31037405"/><feBlend in="SourceGraphic" in2="effect1_dropShadow_31037405" result="shape"/></filter></defs></svg>