<svg width="1280" height="640" viewBox="0 0 1280 640" fill="none" xmlns="http://www.w3.org/2000/svg">
<rect width="1280" height="640" rx="40" fill="white"/>
<rect width="1280" height="640" rx="40" fill="url(#paint0_linear_31037526)"/>
<path fill-rule="evenodd" clip-rule="evenodd" d="M0 208L53 221C107 234 213 260 320 304C427 349 533 413 640 413C747 413 853 349 960 343C1067 336 1173 388 1227 413L1280 439V640H1227C1173 640 1067 640 960 640C853 640 747 640 640 640C533 640 427 640 320 640C213 640 107 640 53 640H0V208Z" fill="url(#paint1_linear_31037526)"/>
<rect width="1280" height="640" fill="black" fill-opacity="0.25"/>
<g filter="url(#filter0_bd_31037526)">
<rect x="78" y="78" width="1124" height="484" rx="40" fill="url(#paint2_linear_31037526)" fill-opacity="0.65" shape-rendering="crispEdges"/>
</g>
<g clip-path="url(#clip0_31037526)">
<rect x="372" y="114" width="128" height="128" rx="64" fill="url(#paint3_linear_31037526)"/>
<path d="M466.106 193.516C466.878 190.811 465.311 187.992 462.606 187.22C459.901 186.447 457.082 188.014 456.31 190.719L466.106 193.516ZM436.25 145.688L431.156 145.688L436.25 145.688ZM456.31 190.719C455.26 194.394 453.21 197.704 450.387 200.28L457.253 207.806C461.473 203.956 464.538 199.008 466.106 193.516L456.31 190.719ZM450.387 200.28C447.564 202.856 444.08 204.596 440.325 205.305L442.215 215.315C447.827 214.256 453.034 211.656 457.253 207.806L450.387 200.28ZM440.325 205.305C436.569 206.014 432.691 205.664 429.123 204.295L425.473 213.806C430.805 215.852 436.602 216.375 442.215 215.315L440.325 205.305ZM429.123 204.295C425.556 202.925 422.439 200.59 420.122 197.551L412.02 203.727C415.483 208.269 420.141 211.759 425.473 213.806L429.123 204.295ZM420.122 197.551C417.806 194.512 416.38 190.888 416.006 187.085L405.867 188.084C406.427 193.768 408.558 199.184 412.02 203.727L420.122 197.551ZM416.006 187.085C415.631 183.282 416.321 179.45 418 176.016L408.848 171.541C406.339 176.672 405.307 182.4 405.867 188.084L416.006 187.085ZM418 176.016C419.558 172.831 422.56 169.862 426.062 167.652L420.625 159.036C416.065 161.914 411.478 166.163 408.848 171.541L418 176.016ZM431.156 114L431.156 145.688L441.344 145.688L441.344 114L431.156 114ZM426.062 167.652C429.53 165.463 433.246 162.604 436.141 159.069C439.051 155.517 441.344 151.01 441.344 145.688L431.156 145.688C431.156 147.947 430.201 150.245 428.26 152.614C426.306 155 423.568 157.179 420.625 159.036L426.062 167.652Z" fill="black"/>
</g>
<path d="M628.938 222H621.188V178.375H569.188V222H561.5V131H569.188V171.875H621.188V131H628.938V222ZM646.25 187.188C646.25 180.688 647.5 174.833 650 169.625C652.542 164.417 656.104 160.375 660.688 157.5C665.312 154.583 670.542 153.125 676.375 153.125C685.375 153.125 692.667 156.292 698.25 162.625C703.833 168.917 706.625 177.271 706.625 187.688V189.25C706.625 195.792 705.354 201.688 702.812 206.938C700.312 212.146 696.771 216.167 692.188 219C687.604 221.833 682.375 223.25 676.5 223.25C667.542 223.25 660.25 220.104 654.625 213.812C649.042 207.479 646.25 199.104 646.25 188.688V187.188ZM653.75 189.25C653.75 197.333 655.833 203.979 660 209.188C664.208 214.354 669.708 216.938 676.5 216.938C683.25 216.938 688.708 214.354 692.875 209.188C697.083 203.979 699.188 197.125 699.188 188.625V187.188C699.188 182.021 698.229 177.292 696.312 173C694.396 168.708 691.708 165.396 688.25 163.062C684.792 160.688 680.833 159.5 676.375 159.5C669.708 159.5 664.271 162.125 660.062 167.375C655.854 172.583 653.75 179.417 653.75 187.875V189.25ZM718 187.188C718 180.688 719.25 174.833 721.75 169.625C724.292 164.417 727.854 160.375 732.438 157.5C737.062 154.583 742.292 153.125 748.125 153.125C757.125 153.125 764.417 156.292 770 162.625C775.583 168.917 778.375 177.271 778.375 187.688V189.25C778.375 195.792 777.104 201.688 774.562 206.938C772.062 212.146 768.521 216.167 763.938 219C759.354 221.833 754.125 223.25 748.25 223.25C739.292 223.25 732 220.104 726.375 213.812C720.792 207.479 718 199.104 718 188.688V187.188ZM725.5 189.25C725.5 197.333 727.583 203.979 731.75 209.188C735.958 214.354 741.458 216.938 748.25 216.938C755 216.938 760.458 214.354 764.625 209.188C768.833 203.979 770.938 197.125 770.938 188.625V187.188C770.938 182.021 769.979 177.292 768.062 173C766.146 168.708 763.458 165.396 760 163.062C756.542 160.688 752.583 159.5 748.125 159.5C741.458 159.5 736.021 162.125 731.812 167.375C727.604 172.583 725.5 179.417 725.5 187.875V189.25ZM809.938 187.938L801.375 196.188V222H793.875V126H801.375V187.438L808.438 179.812L834.312 154.375H843.75L815.062 182.875L846.25 222H837.312L809.938 187.938ZM878.062 211.25L897.812 154.375H905.875L877 233.5L875.5 237C871.792 245.208 866.062 249.312 858.312 249.312C856.521 249.312 854.604 249.021 852.562 248.438L852.5 242.25L856.375 242.625C860.042 242.625 863 241.708 865.25 239.875C867.542 238.083 869.479 234.979 871.062 230.562L874.375 221.438L848.875 154.375H857.062L878.062 211.25Z" fill="white"/>
<path d="M304.355 315.405L305.454 320.923L306.797 315.649L314.512 289.453H317.222L324.839 315.649L326.157 320.972L327.329 315.405L333.75 289.453H336.826L327.72 325H324.839L316.782 297.192L315.879 293.677L315 297.192L306.748 325H303.867L294.785 289.453H297.861L304.355 315.405ZM351.377 325.488C349.131 325.488 347.096 324.935 345.273 323.828C343.467 322.721 342.059 321.183 341.05 319.214C340.041 317.228 339.536 315.007 339.536 312.549V311.499C339.536 308.96 340.024 306.673 341.001 304.639C341.994 302.604 343.369 301.009 345.127 299.854C346.885 298.682 348.789 298.096 350.84 298.096C354.046 298.096 356.585 299.194 358.457 301.392C360.345 303.573 361.289 306.559 361.289 310.352V311.987H342.441V312.549C342.441 315.544 343.296 318.042 345.005 320.044C346.73 322.03 348.895 323.022 351.499 323.022C353.062 323.022 354.437 322.738 355.625 322.168C356.829 321.598 357.92 320.687 358.896 319.434L360.728 320.825C358.579 323.934 355.462 325.488 351.377 325.488ZM350.84 300.586C348.643 300.586 346.787 301.392 345.273 303.003C343.776 304.614 342.865 306.779 342.539 309.497H358.384V309.18C358.302 306.641 357.578 304.574 356.211 302.979C354.844 301.383 353.053 300.586 350.84 300.586ZM388.242 312.061C388.242 316.178 387.331 319.45 385.508 321.875C383.685 324.284 381.235 325.488 378.159 325.488C374.481 325.488 371.698 324.121 369.81 321.387L369.688 325H366.953V287.5H369.858V302.417C371.714 299.536 374.465 298.096 378.11 298.096C381.235 298.096 383.701 299.292 385.508 301.685C387.331 304.061 388.242 307.373 388.242 311.621V312.061ZM385.312 311.548C385.312 308.065 384.637 305.379 383.286 303.491C381.935 301.587 380.031 300.635 377.573 300.635C375.701 300.635 374.115 301.099 372.812 302.026C371.51 302.938 370.526 304.281 369.858 306.055V317.969C371.323 321.289 373.911 322.949 377.622 322.949C380.031 322.949 381.911 321.997 383.262 320.093C384.629 318.188 385.312 315.34 385.312 311.548ZM397.617 303.052C398.577 301.473 399.806 300.252 401.304 299.39C402.801 298.527 404.437 298.096 406.211 298.096C409.043 298.096 411.151 298.893 412.534 300.488C413.918 302.083 414.618 304.476 414.634 307.666V325H411.729V307.642C411.712 305.282 411.208 303.524 410.215 302.368C409.238 301.213 407.668 300.635 405.503 300.635C403.696 300.635 402.093 301.204 400.693 302.344C399.31 303.467 398.285 304.989 397.617 306.909V325H394.712V287.5H397.617V303.052ZM420.542 311.401C420.542 308.862 421.03 306.576 422.007 304.541C423 302.507 424.391 300.928 426.182 299.805C427.988 298.665 430.031 298.096 432.31 298.096C435.825 298.096 438.674 299.333 440.854 301.807C443.035 304.264 444.126 307.528 444.126 311.597V312.207C444.126 314.762 443.63 317.065 442.637 319.116C441.66 321.151 440.277 322.721 438.486 323.828C436.696 324.935 434.653 325.488 432.358 325.488C428.859 325.488 426.011 324.259 423.813 321.802C421.632 319.328 420.542 316.056 420.542 311.987V311.401ZM423.472 312.207C423.472 315.365 424.285 317.961 425.913 319.995C427.557 322.013 429.705 323.022 432.358 323.022C434.995 323.022 437.127 322.013 438.755 319.995C440.399 317.961 441.221 315.283 441.221 311.963V311.401C441.221 309.383 440.846 307.536 440.098 305.859C439.349 304.183 438.299 302.889 436.948 301.978C435.597 301.05 434.051 300.586 432.31 300.586C429.705 300.586 427.581 301.611 425.938 303.662C424.294 305.697 423.472 308.366 423.472 311.67V312.207ZM448.569 311.401C448.569 308.862 449.058 306.576 450.034 304.541C451.027 302.507 452.419 300.928 454.209 299.805C456.016 298.665 458.058 298.096 460.337 298.096C463.853 298.096 466.701 299.333 468.882 301.807C471.063 304.264 472.153 307.528 472.153 311.597V312.207C472.153 314.762 471.657 317.065 470.664 319.116C469.688 321.151 468.304 322.721 466.514 323.828C464.723 324.935 462.681 325.488 460.386 325.488C456.886 325.488 454.038 324.259 451.841 321.802C449.66 319.328 448.569 316.056 448.569 311.987V311.401ZM451.499 312.207C451.499 315.365 452.313 317.961 453.94 319.995C455.584 322.013 457.733 323.022 460.386 323.022C463.022 323.022 465.155 322.013 466.782 319.995C468.426 317.961 469.248 315.283 469.248 311.963V311.401C469.248 309.383 468.874 307.536 468.125 305.859C467.376 304.183 466.326 302.889 464.976 301.978C463.625 301.05 462.078 300.586 460.337 300.586C457.733 300.586 455.609 301.611 453.965 303.662C452.321 305.697 451.499 308.366 451.499 311.67V312.207ZM484.482 311.694L481.138 314.917V325H478.208V287.5H481.138V311.499L483.896 308.521L494.004 298.584H497.69L486.484 309.717L498.667 325H495.176L484.482 311.694ZM536.118 312.061C536.118 316.178 535.207 319.45 533.384 321.875C531.561 324.284 529.119 325.488 526.06 325.488C522.446 325.488 519.679 324.219 517.759 321.68V335.156H514.854V298.584H517.563L517.71 302.319C519.614 299.504 522.373 298.096 525.986 298.096C529.144 298.096 531.618 299.292 533.408 301.685C535.215 304.077 536.118 307.397 536.118 311.646V312.061ZM533.188 311.548C533.188 308.179 532.497 305.518 531.113 303.564C529.73 301.611 527.801 300.635 525.327 300.635C523.537 300.635 521.999 301.066 520.713 301.929C519.427 302.791 518.442 304.045 517.759 305.688V318.359C518.459 319.873 519.46 321.029 520.762 321.826C522.064 322.624 523.602 323.022 525.376 323.022C527.834 323.022 529.746 322.046 531.113 320.093C532.497 318.123 533.188 315.275 533.188 311.548ZM554.819 301.074C554.201 300.96 553.542 300.903 552.842 300.903C551.019 300.903 549.473 301.416 548.203 302.441C546.95 303.451 546.055 304.924 545.518 306.86V325H542.612V298.584H545.469L545.518 302.783C547.064 299.658 549.546 298.096 552.964 298.096C553.778 298.096 554.421 298.201 554.893 298.413L554.819 301.074ZM557.358 311.401C557.358 308.862 557.847 306.576 558.823 304.541C559.816 302.507 561.208 300.928 562.998 299.805C564.805 298.665 566.847 298.096 569.126 298.096C572.642 298.096 575.49 299.333 577.671 301.807C579.852 304.264 580.942 307.528 580.942 311.597V312.207C580.942 314.762 580.446 317.065 579.453 319.116C578.477 321.151 577.093 322.721 575.303 323.828C573.512 324.935 571.47 325.488 569.175 325.488C565.675 325.488 562.827 324.259 560.63 321.802C558.449 319.328 557.358 316.056 557.358 311.987V311.401ZM560.288 312.207C560.288 315.365 561.102 317.961 562.729 319.995C564.373 322.013 566.522 323.022 569.175 323.022C571.812 323.022 573.944 322.013 575.571 319.995C577.215 317.961 578.037 315.283 578.037 311.963V311.401C578.037 309.383 577.663 307.536 576.914 305.859C576.165 304.183 575.116 302.889 573.765 301.978C572.414 301.05 570.868 300.586 569.126 300.586C566.522 300.586 564.398 301.611 562.754 303.662C561.11 305.697 560.288 308.366 560.288 311.67V312.207ZM591.538 291.821V298.584H597.007V300.977H591.538V318.579C591.538 320.044 591.799 321.134 592.319 321.851C592.856 322.567 593.743 322.925 594.98 322.925C595.469 322.925 596.258 322.843 597.349 322.681L597.471 325.073C596.706 325.35 595.664 325.488 594.346 325.488C592.344 325.488 590.887 324.91 589.976 323.755C589.064 322.583 588.608 320.866 588.608 318.604V300.977H583.75V298.584H588.608V291.821H591.538ZM613.291 325.488C611.045 325.488 609.01 324.935 607.188 323.828C605.381 322.721 603.973 321.183 602.964 319.214C601.955 317.228 601.45 315.007 601.45 312.549V311.499C601.45 308.96 601.938 306.673 602.915 304.639C603.908 302.604 605.283 301.009 607.041 299.854C608.799 298.682 610.703 298.096 612.754 298.096C615.96 298.096 618.499 299.194 620.371 301.392C622.259 303.573 623.203 306.559 623.203 310.352V311.987H604.355V312.549C604.355 315.544 605.21 318.042 606.919 320.044C608.644 322.03 610.809 323.022 613.413 323.022C614.976 323.022 616.351 322.738 617.539 322.168C618.743 321.598 619.834 320.687 620.811 319.434L622.642 320.825C620.493 323.934 617.376 325.488 613.291 325.488ZM612.754 300.586C610.557 300.586 608.701 301.392 607.188 303.003C605.69 304.614 604.779 306.779 604.453 309.497H620.298V309.18C620.216 306.641 619.492 304.574 618.125 302.979C616.758 301.383 614.967 300.586 612.754 300.586ZM638.657 323.022C640.692 323.022 642.393 322.453 643.76 321.313C645.143 320.158 645.892 318.669 646.006 316.846H648.813C648.732 318.457 648.228 319.93 647.3 321.265C646.372 322.583 645.135 323.617 643.589 324.365C642.059 325.114 640.415 325.488 638.657 325.488C635.19 325.488 632.44 324.284 630.405 321.875C628.387 319.466 627.378 316.227 627.378 312.158V311.279C627.378 308.675 627.834 306.372 628.745 304.37C629.657 302.368 630.959 300.822 632.651 299.731C634.36 298.641 636.354 298.096 638.633 298.096C641.53 298.096 643.914 298.958 645.786 300.684C647.674 302.409 648.683 304.679 648.813 307.495H646.006C645.876 305.428 645.127 303.76 643.76 302.49C642.409 301.221 640.7 300.586 638.633 300.586C635.996 300.586 633.945 301.538 632.48 303.442C631.032 305.347 630.308 308.016 630.308 311.45V312.305C630.308 315.674 631.032 318.302 632.48 320.19C633.945 322.078 636.004 323.022 638.657 323.022ZM659.214 291.821V298.584H664.683V300.977H659.214V318.579C659.214 320.044 659.474 321.134 659.995 321.851C660.532 322.567 661.419 322.925 662.656 322.925C663.145 322.925 663.934 322.843 665.024 322.681L665.146 325.073C664.382 325.35 663.34 325.488 662.021 325.488C660.02 325.488 658.563 324.91 657.651 323.755C656.74 322.583 656.284 320.866 656.284 318.604V300.977H651.426V298.584H656.284V291.821H659.214ZM674.009 325H671.079V298.584H674.009V325ZM670.566 290.942C670.566 290.389 670.745 289.925 671.104 289.551C671.462 289.16 671.95 288.965 672.568 288.965C673.187 288.965 673.675 289.16 674.033 289.551C674.408 289.925 674.595 290.389 674.595 290.942C674.595 291.496 674.408 291.96 674.033 292.334C673.675 292.708 673.187 292.896 672.568 292.896C671.95 292.896 671.462 292.708 671.104 292.334C670.745 291.96 670.566 291.496 670.566 290.942ZM680.356 311.401C680.356 308.862 680.845 306.576 681.821 304.541C682.814 302.507 684.206 300.928 685.996 299.805C687.803 298.665 689.845 298.096 692.124 298.096C695.64 298.096 698.488 299.333 700.669 301.807C702.85 304.264 703.94 307.528 703.94 311.597V312.207C703.94 314.762 703.444 317.065 702.451 319.116C701.475 321.151 700.091 322.721 698.301 323.828C696.51 324.935 694.468 325.488 692.173 325.488C688.674 325.488 685.825 324.259 683.628 321.802C681.447 319.328 680.356 316.056 680.356 311.987V311.401ZM683.286 312.207C683.286 315.365 684.1 317.961 685.728 319.995C687.371 322.013 689.52 323.022 692.173 323.022C694.81 323.022 696.942 322.013 698.569 319.995C700.213 317.961 701.035 315.283 701.035 311.963V311.401C701.035 309.383 700.661 307.536 699.912 305.859C699.163 304.183 698.114 302.889 696.763 301.978C695.412 301.05 693.866 300.586 692.124 300.586C689.52 300.586 687.396 301.611 685.752 303.662C684.108 305.697 683.286 308.366 683.286 311.67V312.207ZM712.778 298.584L712.876 303.101C713.869 301.473 715.106 300.236 716.587 299.39C718.068 298.527 719.704 298.096 721.494 298.096C724.326 298.096 726.434 298.893 727.817 300.488C729.201 302.083 729.901 304.476 729.917 307.666V325H727.012V307.642C726.995 305.282 726.491 303.524 725.498 302.368C724.521 301.213 722.951 300.635 720.786 300.635C718.979 300.635 717.376 301.204 715.977 302.344C714.593 303.467 713.568 304.989 712.9 306.909V325H709.995V298.584H712.778ZM751.743 325V300.977H747.373V298.584H751.743V295.386C751.743 292.684 752.427 290.609 753.794 289.16C755.177 287.712 757.098 286.987 759.556 286.987C760.662 286.987 761.696 287.126 762.656 287.402L762.437 289.844C761.623 289.648 760.736 289.551 759.775 289.551C758.164 289.551 756.911 290.055 756.016 291.064C755.12 292.057 754.673 293.473 754.673 295.312V298.584H760.972V300.977H754.673V325H751.743ZM764.585 311.401C764.585 308.862 765.073 306.576 766.05 304.541C767.043 302.507 768.434 300.928 770.225 299.805C772.031 298.665 774.074 298.096 776.353 298.096C779.868 298.096 782.716 299.333 784.897 301.807C787.078 304.264 788.169 307.528 788.169 311.597V312.207C788.169 314.762 787.673 317.065 786.68 319.116C785.703 321.151 784.32 322.721 782.529 323.828C780.739 324.935 778.696 325.488 776.401 325.488C772.902 325.488 770.054 324.259 767.856 321.802C765.675 319.328 764.585 316.056 764.585 311.987V311.401ZM767.515 312.207C767.515 315.365 768.328 317.961 769.956 319.995C771.6 322.013 773.748 323.022 776.401 323.022C779.038 323.022 781.17 322.013 782.798 319.995C784.442 317.961 785.264 315.283 785.264 311.963V311.401C785.264 309.383 784.889 307.536 784.141 305.859C783.392 304.183 782.342 302.889 780.991 301.978C779.64 301.05 778.094 300.586 776.353 300.586C773.748 300.586 771.624 301.611 769.98 303.662C768.337 305.697 767.515 308.366 767.515 311.67V312.207ZM806.431 301.074C805.812 300.96 805.153 300.903 804.453 300.903C802.63 300.903 801.084 301.416 799.814 302.441C798.561 303.451 797.666 304.924 797.129 306.86V325H794.224V298.584H797.08L797.129 302.783C798.675 299.658 801.157 298.096 804.575 298.096C805.389 298.096 806.032 298.201 806.504 298.413L806.431 301.074ZM823.911 325V289.453H833.848C836.761 289.453 839.373 290.12 841.685 291.455C843.996 292.773 845.794 294.67 847.08 297.144C848.382 299.618 849.033 302.433 849.033 305.591V308.862C849.033 312.036 848.39 314.852 847.104 317.31C845.819 319.767 844.004 321.663 841.66 322.998C839.333 324.333 836.655 325 833.628 325H823.911ZM826.914 292.017V322.461H833.652C837.396 322.461 840.399 321.224 842.661 318.75C844.924 316.26 846.055 312.899 846.055 308.667V305.542C846.055 301.457 844.94 298.185 842.71 295.728C840.48 293.27 837.542 292.033 833.896 292.017H826.914ZM859.263 325H856.333V298.584H859.263V325ZM855.82 290.942C855.82 290.389 855.999 289.925 856.357 289.551C856.715 289.16 857.204 288.965 857.822 288.965C858.441 288.965 858.929 289.16 859.287 289.551C859.661 289.925 859.849 290.389 859.849 290.942C859.849 291.496 859.661 291.96 859.287 292.334C858.929 292.708 858.441 292.896 857.822 292.896C857.204 292.896 856.715 292.708 856.357 292.334C855.999 291.96 855.82 291.496 855.82 290.942ZM883.042 318.286C883.042 316.838 882.456 315.674 881.284 314.795C880.129 313.916 878.379 313.232 876.035 312.744C873.691 312.24 871.868 311.67 870.566 311.035C869.281 310.384 868.32 309.595 867.686 308.667C867.067 307.739 866.758 306.616 866.758 305.298C866.758 303.215 867.629 301.497 869.37 300.146C871.112 298.779 873.341 298.096 876.06 298.096C879.006 298.096 881.366 298.828 883.14 300.293C884.93 301.742 885.825 303.638 885.825 305.981H882.896C882.896 304.435 882.244 303.149 880.942 302.124C879.657 301.099 878.029 300.586 876.06 300.586C874.139 300.586 872.593 301.017 871.421 301.88C870.265 302.726 869.688 303.833 869.688 305.2C869.688 306.519 870.168 307.544 871.128 308.276C872.104 308.993 873.87 309.652 876.426 310.254C878.997 310.856 880.918 311.499 882.188 312.183C883.473 312.866 884.425 313.688 885.044 314.648C885.662 315.609 885.972 316.772 885.972 318.14C885.972 320.369 885.068 322.152 883.262 323.486C881.471 324.821 879.128 325.488 876.23 325.488C873.154 325.488 870.656 324.748 868.735 323.267C866.831 321.769 865.879 319.881 865.879 317.603H868.809C868.923 319.312 869.639 320.646 870.957 321.606C872.292 322.55 874.049 323.022 876.23 323.022C878.265 323.022 879.909 322.575 881.162 321.68C882.415 320.785 883.042 319.653 883.042 318.286ZM902.329 323.022C904.364 323.022 906.064 322.453 907.432 321.313C908.815 320.158 909.564 318.669 909.678 316.846H912.485C912.404 318.457 911.899 319.93 910.972 321.265C910.044 322.583 908.807 323.617 907.261 324.365C905.731 325.114 904.087 325.488 902.329 325.488C898.862 325.488 896.112 324.284 894.077 321.875C892.059 319.466 891.05 316.227 891.05 312.158V311.279C891.05 308.675 891.506 306.372 892.417 304.37C893.328 302.368 894.631 300.822 896.323 299.731C898.032 298.641 900.026 298.096 902.305 298.096C905.202 298.096 907.586 298.958 909.458 300.684C911.346 302.409 912.355 304.679 912.485 307.495H909.678C909.548 305.428 908.799 303.76 907.432 302.49C906.081 301.221 904.372 300.586 902.305 300.586C899.668 300.586 897.617 301.538 896.152 303.442C894.704 305.347 893.979 308.016 893.979 311.45V312.305C893.979 315.674 894.704 318.302 896.152 320.19C897.617 322.078 899.676 323.022 902.329 323.022ZM916.733 311.401C916.733 308.862 917.222 306.576 918.198 304.541C919.191 302.507 920.583 300.928 922.373 299.805C924.18 298.665 926.222 298.096 928.501 298.096C932.017 298.096 934.865 299.333 937.046 301.807C939.227 304.264 940.317 307.528 940.317 311.597V312.207C940.317 314.762 939.821 317.065 938.828 319.116C937.852 321.151 936.468 322.721 934.678 323.828C932.887 324.935 930.845 325.488 928.55 325.488C925.05 325.488 922.202 324.259 920.005 321.802C917.824 319.328 916.733 316.056 916.733 311.987V311.401ZM919.663 312.207C919.663 315.365 920.477 317.961 922.104 319.995C923.748 322.013 925.897 323.022 928.55 323.022C931.187 323.022 933.319 322.013 934.946 319.995C936.59 317.961 937.412 315.283 937.412 311.963V311.401C937.412 309.383 937.038 307.536 936.289 305.859C935.54 304.183 934.491 302.889 933.14 301.978C931.789 301.05 930.243 300.586 928.501 300.586C925.897 300.586 923.773 301.611 922.129 303.662C920.485 305.697 919.663 308.366 919.663 311.67V312.207ZM958.579 301.074C957.961 300.96 957.301 300.903 956.602 300.903C954.779 300.903 953.232 301.416 951.963 302.441C950.71 303.451 949.814 304.924 949.277 306.86V325H946.372V298.584H949.229L949.277 302.783C950.824 299.658 953.306 298.096 956.724 298.096C957.537 298.096 958.18 298.201 958.652 298.413L958.579 301.074ZM961.558 311.548C961.558 307.446 962.469 304.183 964.292 301.758C966.131 299.316 968.621 298.096 971.763 298.096C975.327 298.096 978.045 299.504 979.917 302.319V287.5H982.822V325H980.088L979.966 321.484C978.094 324.154 975.343 325.488 971.714 325.488C968.67 325.488 966.213 324.268 964.341 321.826C962.485 319.368 961.558 316.056 961.558 311.89V311.548ZM964.512 312.061C964.512 315.43 965.187 318.091 966.538 320.044C967.889 321.981 969.793 322.949 972.251 322.949C975.848 322.949 978.403 321.362 979.917 318.188V305.786C978.403 302.352 975.864 300.635 972.3 300.635C969.842 300.635 967.93 301.603 966.562 303.54C965.195 305.461 964.512 308.301 964.512 312.061Z" fill="white"/>
<path d="M873 529V506.25H879.719C882.156 506.25 884.005 506.755 885.266 507.766C886.526 508.766 887.156 510.245 887.156 512.203C887.156 513.38 886.833 514.406 886.188 515.281C885.552 516.146 884.677 516.766 883.562 517.141C884.885 517.432 885.948 518.083 886.75 519.094C887.562 520.104 887.969 521.271 887.969 522.594C887.969 524.604 887.318 526.177 886.016 527.312C884.724 528.438 882.922 529 880.609 529H873ZM874.922 518.062V527.375H880.688C882.333 527.375 883.635 526.958 884.594 526.125C885.562 525.281 886.047 524.115 886.047 522.625C886.047 521.219 885.583 520.109 884.656 519.297C883.74 518.474 882.469 518.062 880.844 518.062H874.922ZM874.922 516.453H880.172C881.776 516.422 883.016 516.047 883.891 515.328C884.776 514.599 885.219 513.542 885.219 512.156C885.219 510.698 884.76 509.625 883.844 508.938C882.938 508.24 881.562 507.891 879.719 507.891H874.922V516.453ZM897.547 526.312L902.484 512.094H904.5L897.281 531.875L896.906 532.75C895.979 534.802 894.547 535.828 892.609 535.828C892.161 535.828 891.682 535.755 891.172 535.609L891.156 534.062L892.125 534.156C893.042 534.156 893.781 533.927 894.344 533.469C894.917 533.021 895.401 532.245 895.797 531.141L896.625 528.859L890.25 512.094H892.297L897.547 526.312ZM931.734 521.906C931.474 524.302 930.615 526.135 929.156 527.406C927.708 528.677 925.776 529.312 923.359 529.312C921.672 529.312 920.177 528.891 918.875 528.047C917.583 527.203 916.583 526.01 915.875 524.469C915.167 522.917 914.807 521.146 914.797 519.156V516.203C914.797 514.182 915.151 512.391 915.859 510.828C916.568 509.266 917.583 508.062 918.906 507.219C920.24 506.365 921.771 505.938 923.5 505.938C925.938 505.938 927.859 506.599 929.266 507.922C930.682 509.234 931.505 511.052 931.734 513.375H929.797C929.318 509.51 927.219 507.578 923.5 507.578C921.438 507.578 919.792 508.349 918.562 509.891C917.344 511.432 916.734 513.562 916.734 516.281V519.062C916.734 521.688 917.328 523.781 918.516 525.344C919.714 526.906 921.328 527.688 923.359 527.688C925.37 527.688 926.885 527.208 927.906 526.25C928.927 525.281 929.557 523.833 929.797 521.906H931.734ZM938.062 529H936.188V505H938.062V529ZM945.25 529H943.375V512.094H945.25V529ZM943.047 507.203C943.047 506.849 943.161 506.552 943.391 506.312C943.62 506.062 943.932 505.938 944.328 505.938C944.724 505.938 945.036 506.062 945.266 506.312C945.505 506.552 945.625 506.849 945.625 507.203C945.625 507.557 945.505 507.854 945.266 508.094C945.036 508.333 944.724 508.453 944.328 508.453C943.932 508.453 943.62 508.333 943.391 508.094C943.161 507.854 943.047 507.557 943.047 507.203ZM956.594 527.734C957.896 527.734 958.984 527.37 959.859 526.641C960.745 525.901 961.224 524.948 961.297 523.781H963.094C963.042 524.812 962.719 525.755 962.125 526.609C961.531 527.453 960.74 528.115 959.75 528.594C958.771 529.073 957.719 529.312 956.594 529.312C954.375 529.312 952.615 528.542 951.312 527C950.021 525.458 949.375 523.385 949.375 520.781V520.219C949.375 518.552 949.667 517.078 950.25 515.797C950.833 514.516 951.667 513.526 952.75 512.828C953.844 512.13 955.12 511.781 956.578 511.781C958.432 511.781 959.958 512.333 961.156 513.438C962.365 514.542 963.01 515.995 963.094 517.797H961.297C961.214 516.474 960.734 515.406 959.859 514.594C958.995 513.781 957.901 513.375 956.578 513.375C954.891 513.375 953.578 513.984 952.641 515.203C951.714 516.422 951.25 518.13 951.25 520.328V520.875C951.25 523.031 951.714 524.714 952.641 525.922C953.578 527.13 954.896 527.734 956.594 527.734ZM970.859 520.484L968.719 522.547V529H966.844V505H968.719V520.359L970.484 518.453L976.953 512.094H979.312L972.141 519.219L979.938 529H977.703L970.859 520.484ZM992.656 524.703C992.656 523.776 992.281 523.031 991.531 522.469C990.792 521.906 989.672 521.469 988.172 521.156C986.672 520.833 985.505 520.469 984.672 520.062C983.849 519.646 983.234 519.141 982.828 518.547C982.432 517.953 982.234 517.234 982.234 516.391C982.234 515.057 982.792 513.958 983.906 513.094C985.021 512.219 986.448 511.781 988.188 511.781C990.073 511.781 991.583 512.25 992.719 513.188C993.865 514.115 994.438 515.328 994.438 516.828H992.562C992.562 515.839 992.146 515.016 991.312 514.359C990.49 513.703 989.448 513.375 988.188 513.375C986.958 513.375 985.969 513.651 985.219 514.203C984.479 514.745 984.109 515.453 984.109 516.328C984.109 517.172 984.417 517.828 985.031 518.297C985.656 518.755 986.786 519.177 988.422 519.562C990.068 519.948 991.297 520.359 992.109 520.797C992.932 521.234 993.542 521.76 993.938 522.375C994.333 522.99 994.531 523.734 994.531 524.609C994.531 526.036 993.953 527.177 992.797 528.031C991.651 528.885 990.151 529.312 988.297 529.312C986.328 529.312 984.729 528.839 983.5 527.891C982.281 526.932 981.672 525.724 981.672 524.266H983.547C983.62 525.359 984.078 526.214 984.922 526.828C985.776 527.432 986.901 527.734 988.297 527.734C989.599 527.734 990.651 527.448 991.453 526.875C992.255 526.302 992.656 525.578 992.656 524.703ZM1001.73 506.25L1010.12 526.328L1018.55 506.25H1021.11V529H1019.19V519.094L1019.34 508.938L1010.88 529H1009.39L1000.95 509.016L1001.11 519.031V529H999.188V506.25H1001.73ZM1028.53 529H1026.66V512.094H1028.53V529ZM1026.33 507.203C1026.33 506.849 1026.44 506.552 1026.67 506.312C1026.9 506.062 1027.21 505.938 1027.61 505.938C1028.01 505.938 1028.32 506.062 1028.55 506.312C1028.79 506.552 1028.91 506.849 1028.91 507.203C1028.91 507.557 1028.79 507.854 1028.55 508.094C1028.32 508.333 1028.01 508.453 1027.61 508.453C1027.21 508.453 1026.9 508.333 1026.67 508.094C1026.44 507.854 1026.33 507.557 1026.33 507.203ZM1035.41 512.094L1035.47 514.984C1036.1 513.943 1036.9 513.151 1037.84 512.609C1038.79 512.057 1039.84 511.781 1040.98 511.781C1042.8 511.781 1044.15 512.292 1045.03 513.312C1045.92 514.333 1046.36 515.865 1046.38 517.906V529H1044.52V517.891C1044.51 516.38 1044.18 515.255 1043.55 514.516C1042.92 513.776 1041.92 513.406 1040.53 513.406C1039.38 513.406 1038.35 513.771 1037.45 514.5C1036.57 515.219 1035.91 516.193 1035.48 517.422V529H1033.62V512.094H1035.41ZM1062.09 526.859C1060.97 528.495 1059.17 529.312 1056.7 529.312C1054.9 529.312 1053.53 528.792 1052.59 527.75C1051.66 526.698 1051.18 525.146 1051.16 523.094V512.094H1053.02V522.859C1053.02 526.078 1054.32 527.688 1056.92 527.688C1059.63 527.688 1061.34 526.568 1062.06 524.328V512.094H1063.94V529H1062.12L1062.09 526.859ZM1071.72 507.766V512.094H1075.22V513.625H1071.72V524.891C1071.72 525.828 1071.89 526.526 1072.22 526.984C1072.56 527.443 1073.13 527.672 1073.92 527.672C1074.23 527.672 1074.74 527.62 1075.44 527.516L1075.52 529.047C1075.03 529.224 1074.36 529.312 1073.52 529.312C1072.23 529.312 1071.3 528.943 1070.72 528.203C1070.14 527.453 1069.84 526.354 1069.84 524.906V513.625H1066.73V512.094H1069.84V507.766H1071.72ZM1085.64 529.312C1084.2 529.312 1082.9 528.958 1081.73 528.25C1080.58 527.542 1079.68 526.557 1079.03 525.297C1078.39 524.026 1078.06 522.604 1078.06 521.031V520.359C1078.06 518.734 1078.38 517.271 1079 515.969C1079.64 514.667 1080.52 513.646 1081.64 512.906C1082.77 512.156 1083.98 511.781 1085.3 511.781C1087.35 511.781 1088.97 512.484 1090.17 513.891C1091.38 515.286 1091.98 517.198 1091.98 519.625V520.672H1079.92V521.031C1079.92 522.948 1080.47 524.547 1081.56 525.828C1082.67 527.099 1084.05 527.734 1085.72 527.734C1086.72 527.734 1087.6 527.552 1088.36 527.188C1089.13 526.823 1089.83 526.24 1090.45 525.438L1091.62 526.328C1090.25 528.318 1088.26 529.312 1085.64 529.312ZM1085.3 513.375C1083.89 513.375 1082.7 513.891 1081.73 514.922C1080.78 515.953 1080.19 517.339 1079.98 519.078H1090.12V518.875C1090.07 517.25 1089.61 515.927 1088.73 514.906C1087.86 513.885 1086.71 513.375 1085.3 513.375ZM1097.98 519.734V529H1096.06V506.25H1103.81C1106.18 506.25 1108.04 506.854 1109.41 508.062C1110.78 509.271 1111.47 510.932 1111.47 513.047C1111.47 515.182 1110.81 516.833 1109.48 518C1108.17 519.156 1106.27 519.734 1103.77 519.734H1097.98ZM1097.98 518.109H1103.81C1105.68 518.109 1107.1 517.667 1108.08 516.781C1109.06 515.896 1109.55 514.661 1109.55 513.078C1109.55 511.505 1109.06 510.255 1108.08 509.328C1107.11 508.391 1105.73 507.911 1103.94 507.891H1097.98V518.109ZM1121.67 529.312C1120.23 529.312 1118.93 528.958 1117.77 528.25C1116.61 527.542 1115.71 526.557 1115.06 525.297C1114.42 524.026 1114.09 522.604 1114.09 521.031V520.359C1114.09 518.734 1114.41 517.271 1115.03 515.969C1115.67 514.667 1116.55 513.646 1117.67 512.906C1118.8 512.156 1120.02 511.781 1121.33 511.781C1123.38 511.781 1125.01 512.484 1126.2 513.891C1127.41 515.286 1128.02 517.198 1128.02 519.625V520.672H1115.95V521.031C1115.95 522.948 1116.5 524.547 1117.59 525.828C1118.7 527.099 1120.08 527.734 1121.75 527.734C1122.75 527.734 1123.63 527.552 1124.39 527.188C1125.16 526.823 1125.86 526.24 1126.48 525.438L1127.66 526.328C1126.28 528.318 1124.29 529.312 1121.67 529.312ZM1121.33 513.375C1119.92 513.375 1118.73 513.891 1117.77 514.922C1116.81 515.953 1116.22 517.339 1116.02 519.078H1126.16V518.875C1126.1 517.25 1125.64 515.927 1124.77 514.906C1123.89 513.885 1122.74 513.375 1121.33 513.375ZM1139.47 513.688C1139.07 513.615 1138.65 513.578 1138.2 513.578C1137.04 513.578 1136.05 513.906 1135.23 514.562C1134.43 515.208 1133.86 516.151 1133.52 517.391V529H1131.66V512.094H1133.48L1133.52 514.781C1134.51 512.781 1136.09 511.781 1138.28 511.781C1138.8 511.781 1139.21 511.849 1139.52 511.984L1139.47 513.688Z" fill="white"/>
<path d="M144.797 519.734V529H142.875V506.25H150.625C152.99 506.25 154.854 506.854 156.219 508.062C157.594 509.271 158.281 510.932 158.281 513.047C158.281 515.182 157.62 516.833 156.297 518C154.984 519.156 153.078 519.734 150.578 519.734H144.797ZM144.797 518.109H150.625C152.49 518.109 153.911 517.667 154.891 516.781C155.87 515.896 156.359 514.661 156.359 513.078C156.359 511.505 155.87 510.255 154.891 509.328C153.922 508.391 152.542 507.911 150.75 507.891H144.797V518.109ZM169.969 513.688C169.573 513.615 169.151 513.578 168.703 513.578C167.536 513.578 166.547 513.906 165.734 514.562C164.932 515.208 164.359 516.151 164.016 517.391V529H162.156V512.094H163.984L164.016 514.781C165.005 512.781 166.594 511.781 168.781 511.781C169.302 511.781 169.714 511.849 170.016 511.984L169.969 513.688ZM171.594 520.297C171.594 518.672 171.906 517.208 172.531 515.906C173.167 514.604 174.057 513.594 175.203 512.875C176.359 512.146 177.667 511.781 179.125 511.781C181.375 511.781 183.198 512.573 184.594 514.156C185.99 515.729 186.688 517.818 186.688 520.422V520.812C186.688 522.448 186.37 523.922 185.734 525.234C185.109 526.536 184.224 527.542 183.078 528.25C181.932 528.958 180.625 529.312 179.156 529.312C176.917 529.312 175.094 528.526 173.688 526.953C172.292 525.37 171.594 523.276 171.594 520.672V520.297ZM173.469 520.812C173.469 522.833 173.99 524.495 175.031 525.797C176.083 527.089 177.458 527.734 179.156 527.734C180.844 527.734 182.208 527.089 183.25 525.797C184.302 524.495 184.828 522.781 184.828 520.656V520.297C184.828 519.005 184.589 517.823 184.109 516.75C183.63 515.677 182.958 514.849 182.094 514.266C181.229 513.672 180.24 513.375 179.125 513.375C177.458 513.375 176.099 514.031 175.047 515.344C173.995 516.646 173.469 518.354 173.469 520.469V520.812ZM189.812 520.391C189.812 517.745 190.396 515.651 191.562 514.109C192.74 512.557 194.333 511.781 196.344 511.781C198.646 511.781 200.396 512.698 201.594 514.531L201.688 512.094H203.438V528.656C203.438 530.833 202.828 532.557 201.609 533.828C200.391 535.099 198.74 535.734 196.656 535.734C195.479 535.734 194.354 535.469 193.281 534.938C192.219 534.417 191.38 533.719 190.766 532.844L191.812 531.719C193.135 533.344 194.708 534.156 196.531 534.156C198.094 534.156 199.312 533.693 200.188 532.766C201.062 531.849 201.516 530.573 201.547 528.938V526.812C200.349 528.479 198.604 529.312 196.312 529.312C194.354 529.312 192.781 528.531 191.594 526.969C190.406 525.406 189.812 523.297 189.812 520.641V520.391ZM191.703 520.719C191.703 522.875 192.135 524.578 193 525.828C193.865 527.068 195.083 527.688 196.656 527.688C198.958 527.688 200.589 526.656 201.547 524.594V516.734C201.109 515.651 200.479 514.828 199.656 514.266C198.833 513.693 197.844 513.406 196.688 513.406C195.115 513.406 193.891 514.026 193.016 515.266C192.141 516.495 191.703 518.312 191.703 520.719ZM216.125 513.688C215.729 513.615 215.307 513.578 214.859 513.578C213.693 513.578 212.703 513.906 211.891 514.562C211.089 515.208 210.516 516.151 210.172 517.391V529H208.312V512.094H210.141L210.172 514.781C211.161 512.781 212.75 511.781 214.938 511.781C215.458 511.781 215.87 511.849 216.172 511.984L216.125 513.688ZM229.141 529C228.953 528.469 228.833 527.682 228.781 526.641C228.125 527.495 227.286 528.156 226.266 528.625C225.255 529.083 224.182 529.312 223.047 529.312C221.422 529.312 220.104 528.859 219.094 527.953C218.094 527.047 217.594 525.901 217.594 524.516C217.594 522.87 218.276 521.568 219.641 520.609C221.016 519.651 222.927 519.172 225.375 519.172H228.766V517.25C228.766 516.042 228.391 515.094 227.641 514.406C226.901 513.708 225.818 513.359 224.391 513.359C223.089 513.359 222.01 513.693 221.156 514.359C220.302 515.026 219.875 515.828 219.875 516.766L218 516.75C218 515.406 218.625 514.245 219.875 513.266C221.125 512.276 222.661 511.781 224.484 511.781C226.37 511.781 227.854 512.255 228.938 513.203C230.031 514.141 230.594 515.453 230.625 517.141V525.141C230.625 526.776 230.797 528 231.141 528.812V529H229.141ZM223.266 527.656C224.516 527.656 225.63 527.354 226.609 526.75C227.599 526.146 228.318 525.339 228.766 524.328V520.609H225.422C223.557 520.63 222.099 520.974 221.047 521.641C219.995 522.297 219.469 523.203 219.469 524.359C219.469 525.307 219.818 526.094 220.516 526.719C221.224 527.344 222.141 527.656 223.266 527.656ZM237.328 512.094L237.391 514.844C238.016 513.823 238.797 513.057 239.734 512.547C240.672 512.036 241.714 511.781 242.859 511.781C245.526 511.781 247.219 512.875 247.938 515.062C248.542 514.01 249.349 513.203 250.359 512.641C251.37 512.068 252.484 511.781 253.703 511.781C257.328 511.781 259.177 513.76 259.25 517.719V529H257.375V517.859C257.365 516.349 257.036 515.229 256.391 514.5C255.755 513.771 254.714 513.406 253.266 513.406C251.922 513.427 250.786 513.865 249.859 514.719C248.932 515.562 248.417 516.594 248.312 517.812V529H246.438V517.719C246.427 516.271 246.083 515.193 245.406 514.484C244.74 513.766 243.708 513.406 242.312 513.406C241.135 513.406 240.125 513.745 239.281 514.422C238.438 515.089 237.812 516.083 237.406 517.406V529H235.531V512.094H237.328ZM265.703 512.094L265.766 514.844C266.391 513.823 267.172 513.057 268.109 512.547C269.047 512.036 270.089 511.781 271.234 511.781C273.901 511.781 275.594 512.875 276.312 515.062C276.917 514.01 277.724 513.203 278.734 512.641C279.745 512.068 280.859 511.781 282.078 511.781C285.703 511.781 287.552 513.76 287.625 517.719V529H285.75V517.859C285.74 516.349 285.411 515.229 284.766 514.5C284.13 513.771 283.089 513.406 281.641 513.406C280.297 513.427 279.161 513.865 278.234 514.719C277.307 515.562 276.792 516.594 276.688 517.812V529H274.812V517.719C274.802 516.271 274.458 515.193 273.781 514.484C273.115 513.766 272.083 513.406 270.688 513.406C269.51 513.406 268.5 513.745 267.656 514.422C266.812 515.089 266.188 516.083 265.781 517.406V529H263.906V512.094H265.703ZM298.922 529.312C297.484 529.312 296.182 528.958 295.016 528.25C293.859 527.542 292.958 526.557 292.312 525.297C291.667 524.026 291.344 522.604 291.344 521.031V520.359C291.344 518.734 291.656 517.271 292.281 515.969C292.917 514.667 293.797 513.646 294.922 512.906C296.047 512.156 297.266 511.781 298.578 511.781C300.63 511.781 302.255 512.484 303.453 513.891C304.661 515.286 305.266 517.198 305.266 519.625V520.672H293.203V521.031C293.203 522.948 293.75 524.547 294.844 525.828C295.948 527.099 297.333 527.734 299 527.734C300 527.734 300.88 527.552 301.641 527.188C302.411 526.823 303.109 526.24 303.734 525.438L304.906 526.328C303.531 528.318 301.536 529.312 298.922 529.312ZM298.578 513.375C297.172 513.375 295.984 513.891 295.016 514.922C294.057 515.953 293.474 517.339 293.266 519.078H303.406V518.875C303.354 517.25 302.891 515.927 302.016 514.906C301.141 513.885 299.995 513.375 298.578 513.375ZM308.156 520.391C308.156 517.766 308.74 515.677 309.906 514.125C311.083 512.562 312.677 511.781 314.688 511.781C316.969 511.781 318.708 512.682 319.906 514.484V505H321.766V529H320.016L319.938 526.75C318.74 528.458 316.979 529.312 314.656 529.312C312.708 529.312 311.135 528.531 309.938 526.969C308.75 525.396 308.156 523.276 308.156 520.609V520.391ZM310.047 520.719C310.047 522.875 310.479 524.578 311.344 525.828C312.208 527.068 313.427 527.688 315 527.688C317.302 527.688 318.938 526.672 319.906 524.641V516.703C318.938 514.505 317.312 513.406 315.031 513.406C313.458 513.406 312.234 514.026 311.359 515.266C310.484 516.495 310.047 518.312 310.047 520.719ZM348.078 520.719C348.078 523.354 347.495 525.448 346.328 527C345.161 528.542 343.594 529.312 341.625 529.312C339.271 529.312 337.49 528.438 336.281 526.688L336.203 529H334.453V505H336.312V514.547C337.5 512.703 339.26 511.781 341.594 511.781C343.594 511.781 345.172 512.547 346.328 514.078C347.495 515.599 348.078 517.719 348.078 520.438V520.719ZM346.203 520.391C346.203 518.161 345.771 516.443 344.906 515.234C344.042 514.016 342.823 513.406 341.25 513.406C340.052 513.406 339.036 513.703 338.203 514.297C337.37 514.88 336.74 515.74 336.312 516.875V524.5C337.25 526.625 338.906 527.688 341.281 527.688C342.823 527.688 344.026 527.078 344.891 525.859C345.766 524.641 346.203 522.818 346.203 520.391ZM357.391 526.312L362.328 512.094H364.344L357.125 531.875L356.75 532.75C355.823 534.802 354.391 535.828 352.453 535.828C352.005 535.828 351.526 535.755 351.016 535.609L351 534.062L351.969 534.156C352.885 534.156 353.625 533.927 354.188 533.469C354.76 533.021 355.245 532.245 355.641 531.141L356.469 528.859L350.094 512.094H352.141L357.391 526.312ZM366.797 527.875C366.797 527.51 366.911 527.203 367.141 526.953C367.38 526.693 367.708 526.562 368.125 526.562C368.542 526.562 368.87 526.693 369.109 526.953C369.349 527.203 369.469 527.51 369.469 527.875C369.469 528.24 369.349 528.542 369.109 528.781C368.87 529.01 368.542 529.125 368.125 529.125C367.708 529.125 367.38 529.01 367.141 528.781C366.911 528.542 366.797 528.24 366.797 527.875ZM366.828 513.453C366.828 513.089 366.943 512.781 367.172 512.531C367.411 512.271 367.74 512.141 368.156 512.141C368.573 512.141 368.901 512.271 369.141 512.531C369.38 512.781 369.5 513.089 369.5 513.453C369.5 513.818 369.38 514.12 369.141 514.359C368.901 514.589 368.573 514.703 368.156 514.703C367.74 514.703 367.411 514.589 367.172 514.359C366.943 514.12 366.828 513.818 366.828 513.453ZM384.734 506.25L393.125 526.328L401.547 506.25H404.109V529H402.188V519.094L402.344 508.938L393.875 529H392.391L383.953 509.016L384.109 519.031V529H382.188V506.25H384.734ZM411.531 529H409.656V512.094H411.531V529ZM409.328 507.203C409.328 506.849 409.443 506.552 409.672 506.312C409.901 506.062 410.214 505.938 410.609 505.938C411.005 505.938 411.318 506.062 411.547 506.312C411.786 506.552 411.906 506.849 411.906 507.203C411.906 507.557 411.786 507.854 411.547 508.094C411.318 508.333 411.005 508.453 410.609 508.453C410.214 508.453 409.901 508.333 409.672 508.094C409.443 507.854 409.328 507.557 409.328 507.203ZM418.406 512.094L418.469 514.984C419.104 513.943 419.896 513.151 420.844 512.609C421.792 512.057 422.839 511.781 423.984 511.781C425.797 511.781 427.146 512.292 428.031 513.312C428.917 514.333 429.365 515.865 429.375 517.906V529H427.516V517.891C427.505 516.38 427.182 515.255 426.547 514.516C425.922 513.776 424.917 513.406 423.531 513.406C422.375 513.406 421.349 513.771 420.453 514.5C419.568 515.219 418.911 516.193 418.484 517.422V529H416.625V512.094H418.406ZM436.312 529H434.438V512.094H436.312V529ZM434.109 507.203C434.109 506.849 434.224 506.552 434.453 506.312C434.682 506.062 434.995 505.938 435.391 505.938C435.786 505.938 436.099 506.062 436.328 506.312C436.568 506.552 436.688 506.849 436.688 507.203C436.688 507.557 436.568 507.854 436.328 508.094C436.099 508.333 435.786 508.453 435.391 508.453C434.995 508.453 434.682 508.333 434.453 508.094C434.224 507.854 434.109 507.557 434.109 507.203ZM440.375 520.297C440.375 518.672 440.688 517.208 441.312 515.906C441.948 514.604 442.839 513.594 443.984 512.875C445.141 512.146 446.448 511.781 447.906 511.781C450.156 511.781 451.979 512.573 453.375 514.156C454.771 515.729 455.469 517.818 455.469 520.422V520.812C455.469 522.448 455.151 523.922 454.516 525.234C453.891 526.536 453.005 527.542 451.859 528.25C450.714 528.958 449.406 529.312 447.938 529.312C445.698 529.312 443.875 528.526 442.469 526.953C441.073 525.37 440.375 523.276 440.375 520.672V520.297ZM442.25 520.812C442.25 522.833 442.771 524.495 443.812 525.797C444.865 527.089 446.24 527.734 447.938 527.734C449.625 527.734 450.99 527.089 452.031 525.797C453.083 524.495 453.609 522.781 453.609 520.656V520.297C453.609 519.005 453.37 517.823 452.891 516.75C452.411 515.677 451.74 514.849 450.875 514.266C450.01 513.672 449.021 513.375 447.906 513.375C446.24 513.375 444.88 514.031 443.828 515.344C442.776 516.646 442.25 518.354 442.25 520.469V520.812ZM461.125 512.094L461.188 514.984C461.823 513.943 462.615 513.151 463.562 512.609C464.51 512.057 465.557 511.781 466.703 511.781C468.516 511.781 469.865 512.292 470.75 513.312C471.635 514.333 472.083 515.865 472.094 517.906V529H470.234V517.891C470.224 516.38 469.901 515.255 469.266 514.516C468.641 513.776 467.635 513.406 466.25 513.406C465.094 513.406 464.068 513.771 463.172 514.5C462.286 515.219 461.63 516.193 461.203 517.422V529H459.344V512.094H461.125ZM480.797 516.609H482.734C483.807 516.609 484.745 516.422 485.547 516.047C486.349 515.661 486.958 515.141 487.375 514.484C487.802 513.818 488.016 513.052 488.016 512.188C488.016 510.729 487.604 509.589 486.781 508.766C485.958 507.943 484.776 507.531 483.234 507.531C481.776 507.531 480.578 507.964 479.641 508.828C478.714 509.682 478.25 510.812 478.25 512.219H476.375C476.375 511.042 476.672 509.969 477.266 509C477.859 508.021 478.682 507.266 479.734 506.734C480.786 506.203 481.953 505.938 483.234 505.938C485.297 505.938 486.922 506.5 488.109 507.625C489.297 508.75 489.891 510.292 489.891 512.25C489.891 513.344 489.542 514.354 488.844 515.281C488.156 516.198 487.208 516.885 486 517.344C487.417 517.74 488.49 518.422 489.219 519.391C489.948 520.349 490.312 521.495 490.312 522.828C490.312 524.776 489.677 526.344 488.406 527.531C487.135 528.719 485.438 529.312 483.312 529.312C481.958 529.312 480.714 529.042 479.578 528.5C478.453 527.958 477.578 527.203 476.953 526.234C476.339 525.255 476.031 524.12 476.031 522.828H477.906C477.906 524.276 478.411 525.458 479.422 526.375C480.432 527.281 481.729 527.734 483.312 527.734C484.927 527.734 486.182 527.323 487.078 526.5C487.984 525.667 488.438 524.464 488.438 522.891C488.438 521.37 487.948 520.208 486.969 519.406C486 518.604 484.568 518.203 482.672 518.203H480.797V516.609ZM505.422 506.078V507.719H505.203C502.484 507.719 500.344 508.521 498.781 510.125C497.219 511.719 496.354 513.938 496.188 516.781C496.812 515.917 497.609 515.25 498.578 514.781C499.547 514.302 500.63 514.062 501.828 514.062C503.828 514.062 505.417 514.755 506.594 516.141C507.781 517.516 508.375 519.318 508.375 521.547C508.375 523.026 508.099 524.359 507.547 525.547C506.995 526.734 506.203 527.661 505.172 528.328C504.141 528.984 502.964 529.312 501.641 529.312C499.464 529.312 497.693 528.526 496.328 526.953C494.964 525.37 494.281 523.328 494.281 520.828V518.953C494.281 514.88 495.208 511.729 497.062 509.5C498.917 507.26 501.547 506.12 504.953 506.078H505.422ZM501.531 515.672C500.344 515.672 499.234 516.026 498.203 516.734C497.182 517.432 496.5 518.323 496.156 519.406V521C496.156 522.979 496.661 524.594 497.672 525.844C498.693 527.094 500.016 527.719 501.641 527.719C503.099 527.719 504.276 527.141 505.172 525.984C506.078 524.828 506.531 523.37 506.531 521.609C506.531 519.818 506.078 518.38 505.172 517.297C504.276 516.214 503.062 515.672 501.531 515.672ZM523.172 506.078V507.719H522.953C520.234 507.719 518.094 508.521 516.531 510.125C514.969 511.719 514.104 513.938 513.938 516.781C514.562 515.917 515.359 515.25 516.328 514.781C517.297 514.302 518.38 514.062 519.578 514.062C521.578 514.062 523.167 514.755 524.344 516.141C525.531 517.516 526.125 519.318 526.125 521.547C526.125 523.026 525.849 524.359 525.297 525.547C524.745 526.734 523.953 527.661 522.922 528.328C521.891 528.984 520.714 529.312 519.391 529.312C517.214 529.312 515.443 528.526 514.078 526.953C512.714 525.37 512.031 523.328 512.031 520.828V518.953C512.031 514.88 512.958 511.729 514.812 509.5C516.667 507.26 519.297 506.12 522.703 506.078H523.172ZM519.281 515.672C518.094 515.672 516.984 516.026 515.953 516.734C514.932 517.432 514.25 518.323 513.906 519.406V521C513.906 522.979 514.411 524.594 515.422 525.844C516.443 527.094 517.766 527.719 519.391 527.719C520.849 527.719 522.026 527.141 522.922 525.984C523.828 524.828 524.281 523.37 524.281 521.609C524.281 519.818 523.828 518.38 522.922 517.297C522.026 516.214 520.812 515.672 519.281 515.672ZM531.156 517.344L532.266 506.25H543.641V507.984H533.875L533.078 515.672C534.297 514.839 535.724 514.422 537.359 514.422C539.411 514.422 541.047 515.089 542.266 516.422C543.484 517.755 544.094 519.531 544.094 521.75C544.094 524.146 543.5 526.005 542.312 527.328C541.125 528.651 539.453 529.312 537.297 529.312C535.318 529.312 533.714 528.76 532.484 527.656C531.255 526.552 530.552 525.005 530.375 523.016H532.172C532.349 524.568 532.875 525.745 533.75 526.547C534.625 527.339 535.807 527.734 537.297 527.734C538.922 527.734 540.146 527.219 540.969 526.188C541.802 525.156 542.219 523.688 542.219 521.781C542.219 520.115 541.755 518.755 540.828 517.703C539.901 516.651 538.635 516.125 537.031 516.125C536.146 516.125 535.375 516.24 534.719 516.469C534.062 516.688 533.37 517.12 532.641 517.766L531.156 517.344Z" fill="white"/>
<defs>
<filter id="filter0_bd_31037526" x="48" y="48" width="1184" height="544" filterUnits="userSpaceOnUse" color-interpolation-filters="sRGB">
<feFlood flood-opacity="0" result="BackgroundImageFix"/>
<feGaussianBlur in="BackgroundImage" stdDeviation="14"/>
<feComposite in2="SourceAlpha" operator="in" result="effect1_backgroundBlur_31037526"/>
<feColorMatrix in="SourceAlpha" type="matrix" values="0 0 0 0 0 0 0 0 0 0 0 0 0 0 0 0 0 0 127 0" result="hardAlpha"/>
<feMorphology radius="5" operator="dilate" in="SourceAlpha" result="effect2_dropShadow_31037526"/>
<feOffset/>
<feGaussianBlur stdDeviation="12.5"/>
<feComposite in2="hardAlpha" operator="out"/>
<feColorMatrix type="matrix" values="0 0 0 0 0.258333 0 0 0 0 0.258333 0 0 0 0 0.258333 0 0 0 0.6 0"/>
<feBlend mode="normal" in2="effect1_backgroundBlur_31037526" result="effect2_dropShadow_31037526"/>
<feBlend mode="normal" in="SourceGraphic" in2="effect2_dropShadow_31037526" result="shape"/>
</filter>
<linearGradient id="paint0_linear_31037526" x1="-1.14441e-05" y1="320" x2="819.2" y2="-294.4" gradientUnits="userSpaceOnUse">
<stop stop-color="#424242"/>
<stop offset="1" stop-color="#8D8D8D"/>
</linearGradient>
<linearGradient id="paint1_linear_31037526" x1="0" y1="640" x2="1280" y2="640" gradientUnits="userSpaceOnUse">
<stop stop-color="#EDC575"/>
<stop offset="1" stop-color="#E6AB71"/>
</linearGradient>
<linearGradient id="paint2_linear_31037526" x1="78" y1="78" x2="1202" y2="562" gradientUnits="userSpaceOnUse">
<stop stop-opacity="0.9"/>
<stop offset="1" stop-opacity="0.7"/>
</linearGradient>
<linearGradient id="paint3_linear_31037526" x1="500" y1="114" x2="372" y2="242" gradientUnits="userSpaceOnUse">
<stop stop-color="#F2D478"/>
<stop offset="1" stop-color="#EDC575"/>
</linearGradient>
<clipPath id="clip0_31037526">
<rect x="372" y="114" width="128" height="128" rx="64" fill="white"/>
</clipPath>
</defs>
</svg>
