<svg width="1280" height="640" fill="none" xmlns="http://www.w3.org/2000/svg"><rect width="1280" height="640" rx="40" fill="#fff"/><rect width="1280" height="640" rx="40" fill="url(#a)"/><path fill-rule="evenodd" clip-rule="evenodd" d="m0 208 53 13c54 13 160 39 267 83 107 45 213 109 320 109s213-64 320-70c107-7 213 45 267 70l53 26v201H0V208Z" fill="url(#b)"/><path fill="#000" fill-opacity=".25" d="M0 0h1280v640H0z"/><g filter="url(#c)"><rect x="78" y="78" width="1124" height="484" rx="40" fill="url(#d)" fill-opacity=".65" shape-rendering="crispEdges"/></g><g clip-path="url(#e)"><rect x="372" y="114" width="128" height="128" rx="64" fill="url(#f)"/><path d="M466.106 193.516a5.094 5.094 0 0 0-9.796-2.797l9.796 2.797Zm-29.856-47.828h-5.094 5.094Zm20.06 45.031a20.605 20.605 0 0 1-5.923 9.561l6.866 7.526a30.783 30.783 0 0 0 8.853-14.29l-9.796-2.797Zm-5.923 9.561a20.598 20.598 0 0 1-10.062 5.025l1.89 10.01a30.776 30.776 0 0 0 15.038-7.509l-6.866-7.526Zm-10.062 5.025a20.601 20.601 0 0 1-11.202-1.01l-3.65 9.511a30.787 30.787 0 0 0 16.742 1.509l-1.89-10.01Zm-11.202-1.01a20.613 20.613 0 0 1-9.001-6.744l-8.102 6.176a30.799 30.799 0 0 0 13.453 10.079l3.65-9.511Zm-9.001-6.744a20.593 20.593 0 0 1-4.116-10.466l-10.139.999a30.79 30.79 0 0 0 6.153 15.643l8.102-6.176Zm-4.116-10.466A20.597 20.597 0 0 1 418 176.016l-9.152-4.475a30.788 30.788 0 0 0-2.981 16.543l10.139-.999ZM418 176.016c1.558-3.185 4.56-6.154 8.062-8.364l-5.437-8.616c-4.56 2.878-9.147 7.127-11.777 12.505l9.152 4.475ZM431.156 114v31.688h10.188V114h-10.188Zm-5.094 53.652c3.468-2.189 7.184-5.048 10.079-8.583 2.91-3.552 5.203-8.059 5.203-13.381h-10.188c0 2.259-.955 4.557-2.896 6.926-1.954 2.386-4.692 4.565-7.635 6.422l5.437 8.616Z" fill="#000"/></g><path d="M628.938 222h-7.75v-43.625h-52V222H561.5v-91h7.688v40.875h52V131h7.75v91Zm17.312-34.812c0-6.5 1.25-12.355 3.75-17.563 2.542-5.208 6.104-9.25 10.688-12.125 4.624-2.917 9.854-4.375 15.687-4.375 9 0 16.292 3.167 21.875 9.5 5.583 6.292 8.375 14.646 8.375 25.063v1.562c0 6.542-1.271 12.438-3.813 17.688-2.5 5.208-6.041 9.229-10.624 12.062-4.584 2.833-9.813 4.25-15.688 4.25-8.958 0-16.25-3.146-21.875-9.438-5.583-6.333-8.375-14.708-8.375-25.124v-1.5Zm7.5 2.062c0 8.083 2.083 14.729 6.25 19.938 4.208 5.166 9.708 7.75 16.5 7.75 6.75 0 12.208-2.584 16.375-7.75 4.208-5.209 6.313-12.063 6.313-20.563v-1.437c0-5.167-.959-9.896-2.876-14.188-1.916-4.292-4.604-7.604-8.062-9.938-3.458-2.374-7.417-3.562-11.875-3.562-6.667 0-12.104 2.625-16.313 7.875-4.208 5.208-6.312 12.042-6.312 20.5v1.375Zm64.25-2.062c0-6.5 1.25-12.355 3.75-17.563 2.542-5.208 6.104-9.25 10.688-12.125 4.624-2.917 9.854-4.375 15.687-4.375 9 0 16.292 3.167 21.875 9.5 5.583 6.292 8.375 14.646 8.375 25.063v1.562c0 6.542-1.271 12.438-3.813 17.688-2.5 5.208-6.041 9.229-10.624 12.062-4.584 2.833-9.813 4.25-15.688 4.25-8.958 0-16.25-3.146-21.875-9.438-5.583-6.333-8.375-14.708-8.375-25.124v-1.5Zm7.5 2.062c0 8.083 2.083 14.729 6.25 19.938 4.208 5.166 9.708 7.75 16.5 7.75 6.75 0 12.208-2.584 16.375-7.75 4.208-5.209 6.313-12.063 6.313-20.563v-1.437c0-5.167-.959-9.896-2.876-14.188-1.916-4.292-4.604-7.604-8.062-9.938-3.458-2.374-7.417-3.562-11.875-3.562-6.667 0-12.104 2.625-16.313 7.875-4.208 5.208-6.312 12.042-6.312 20.5v1.375Zm84.438-1.312-8.563 8.25V222h-7.5v-96h7.5v61.438l7.063-7.626 25.874-25.437h9.438l-28.688 28.5L846.25 222h-8.938l-27.374-34.062Zm68.124 23.312 19.75-56.875h8.063L877 233.5l-1.5 3.5c-3.708 8.208-9.438 12.312-17.188 12.312-1.791 0-3.708-.291-5.75-.874l-.062-6.188 3.875.375c3.667 0 6.625-.917 8.875-2.75 2.292-1.792 4.229-4.896 5.812-9.313l3.313-9.124-25.5-67.063h8.187l21 56.875ZM304.355 315.405l1.099 5.518 1.343-5.274 7.715-26.196h2.71l7.617 26.196 1.318 5.323 1.172-5.567 6.421-25.952h3.076L327.72 325h-2.881l-8.057-27.808-.903-3.515-.879 3.515L306.748 325h-2.881l-9.082-35.547h3.076l6.494 25.952Zm47.022 10.083c-2.246 0-4.281-.553-6.104-1.66-1.806-1.107-3.214-2.645-4.223-4.614-1.009-1.986-1.514-4.207-1.514-6.665v-1.05c0-2.539.488-4.826 1.465-6.86.993-2.035 2.368-3.63 4.126-4.785 1.758-1.172 3.662-1.758 5.713-1.758 3.206 0 5.745 1.098 7.617 3.296 1.888 2.181 2.832 5.167 2.832 8.96v1.635h-18.848v.562c0 2.995.855 5.493 2.564 7.495 1.725 1.986 3.89 2.978 6.494 2.978 1.563 0 2.938-.284 4.126-.854 1.204-.57 2.295-1.481 3.271-2.734l1.832 1.391c-2.149 3.109-5.266 4.663-9.351 4.663Zm-.537-24.902c-2.197 0-4.053.806-5.567 2.417-1.497 1.611-2.408 3.776-2.734 6.494h15.845v-.317c-.082-2.539-.806-4.606-2.173-6.201-1.367-1.596-3.158-2.393-5.371-2.393Zm37.402 11.475c0 4.117-.911 7.389-2.734 9.814-1.823 2.409-4.273 3.613-7.349 3.613-3.678 0-6.461-1.367-8.349-4.101l-.122 3.613h-2.735v-37.5h2.905v14.917c1.856-2.881 4.607-4.321 8.252-4.321 3.125 0 5.591 1.196 7.398 3.589 1.823 2.376 2.734 5.688 2.734 9.936v.44Zm-2.93-.513c0-3.483-.675-6.169-2.026-8.057-1.351-1.904-3.255-2.856-5.713-2.856-1.872 0-3.458.464-4.761 1.391-1.302.912-2.286 2.255-2.954 4.029v11.914c1.465 3.32 4.053 4.98 7.764 4.98 2.409 0 4.289-.952 5.64-2.856 1.367-1.905 2.05-4.753 2.05-8.545Zm12.305-8.496c.96-1.579 2.189-2.8 3.687-3.662 1.497-.863 3.133-1.294 4.907-1.294 2.832 0 4.94.797 6.323 2.392 1.384 1.595 2.084 3.988 2.1 7.178V325h-2.905v-17.358c-.017-2.36-.521-4.118-1.514-5.274-.977-1.155-2.547-1.733-4.712-1.733-1.807 0-3.41.569-4.81 1.709-1.383 1.123-2.408 2.645-3.076 4.565V325h-2.905v-37.5h2.905v15.552Zm22.925 8.349c0-2.539.488-4.825 1.465-6.86.993-2.034 2.384-3.613 4.175-4.736 1.806-1.14 3.849-1.709 6.128-1.709 3.515 0 6.364 1.237 8.544 3.711 2.181 2.457 3.272 5.721 3.272 9.79v.61c0 2.555-.496 4.858-1.489 6.909-.977 2.035-2.36 3.605-4.151 4.712-1.79 1.107-3.833 1.66-6.128 1.66-3.499 0-6.347-1.229-8.545-3.686-2.181-2.474-3.271-5.746-3.271-9.815v-.586Zm2.93.806c0 3.158.813 5.754 2.441 7.788 1.644 2.018 3.792 3.027 6.445 3.027 2.637 0 4.769-1.009 6.397-3.027 1.644-2.034 2.466-4.712 2.466-8.032v-.562c0-2.018-.375-3.865-1.123-5.542-.749-1.676-1.799-2.97-3.15-3.881-1.351-.928-2.897-1.392-4.638-1.392-2.605 0-4.729 1.025-6.372 3.076-1.644 2.035-2.466 4.704-2.466 8.008v.537Zm25.097-.806c0-2.539.489-4.825 1.465-6.86.993-2.034 2.385-3.613 4.175-4.736 1.807-1.14 3.849-1.709 6.128-1.709 3.516 0 6.364 1.237 8.545 3.711 2.181 2.457 3.271 5.721 3.271 9.79v.61c0 2.555-.496 4.858-1.489 6.909-.976 2.035-2.36 3.605-4.15 4.712-1.791 1.107-3.833 1.66-6.128 1.66-3.5 0-6.348-1.229-8.545-3.686-2.181-2.474-3.272-5.746-3.272-9.815v-.586Zm2.93.806c0 3.158.814 5.754 2.441 7.788 1.644 2.018 3.793 3.027 6.446 3.027 2.636 0 4.769-1.009 6.396-3.027 1.644-2.034 2.466-4.712 2.466-8.032v-.562c0-2.018-.374-3.865-1.123-5.542-.749-1.676-1.799-2.97-3.149-3.881-1.351-.928-2.898-1.392-4.639-1.392-2.604 0-4.728 1.025-6.372 3.076-1.644 2.035-2.466 4.704-2.466 8.008v.537Zm32.983-.513-3.344 3.223V325h-2.93v-37.5h2.93v23.999l2.758-2.978 10.108-9.937h3.686l-11.206 11.133L498.667 325h-3.491l-10.694-13.306Zm51.636.367c0 4.117-.911 7.389-2.734 9.814-1.823 2.409-4.265 3.613-7.324 3.613-3.614 0-6.381-1.269-8.301-3.808v13.476h-2.905v-36.572h2.709l.147 3.735c1.904-2.815 4.663-4.223 8.276-4.223 3.158 0 5.632 1.196 7.422 3.589 1.807 2.392 2.71 5.712 2.71 9.961v.415Zm-2.93-.513c0-3.369-.691-6.03-2.075-7.984-1.383-1.953-3.312-2.929-5.786-2.929-1.79 0-3.328.431-4.614 1.294-1.286.862-2.271 2.116-2.954 3.759v12.671c.7 1.514 1.701 2.67 3.003 3.467 1.302.798 2.84 1.196 4.614 1.196 2.458 0 4.37-.976 5.737-2.929 1.384-1.97 2.075-4.818 2.075-8.545Zm21.631-10.474a10.895 10.895 0 0 0-1.977-.171c-1.823 0-3.369.513-4.639 1.538-1.253 1.01-2.148 2.483-2.685 4.419V325h-2.906v-26.416h2.857l.049 4.199c1.546-3.125 4.028-4.687 7.446-4.687.814 0 1.457.105 1.929.317l-.074 2.661Zm2.539 10.327c0-2.539.489-4.825 1.465-6.86.993-2.034 2.385-3.613 4.175-4.736 1.807-1.14 3.849-1.709 6.128-1.709 3.516 0 6.364 1.237 8.545 3.711 2.181 2.457 3.271 5.721 3.271 9.79v.61c0 2.555-.496 4.858-1.489 6.909-.976 2.035-2.36 3.605-4.15 4.712-1.791 1.107-3.833 1.66-6.128 1.66-3.5 0-6.348-1.229-8.545-3.686-2.181-2.474-3.272-5.746-3.272-9.815v-.586Zm2.93.806c0 3.158.814 5.754 2.441 7.788 1.644 2.018 3.793 3.027 6.446 3.027 2.637 0 4.769-1.009 6.396-3.027 1.644-2.034 2.466-4.712 2.466-8.032v-.562c0-2.018-.374-3.865-1.123-5.542-.749-1.676-1.798-2.97-3.149-3.881-1.351-.928-2.897-1.392-4.639-1.392-2.604 0-4.728 1.025-6.372 3.076-1.644 2.035-2.466 4.704-2.466 8.008v.537Zm31.25-20.386v6.763h5.469v2.393h-5.469v17.602c0 1.465.261 2.555.781 3.272.537.716 1.424 1.074 2.661 1.074.489 0 1.278-.082 2.369-.244l.122 2.392c-.765.277-1.807.415-3.125.415-2.002 0-3.459-.578-4.37-1.733-.912-1.172-1.368-2.889-1.368-5.151v-17.627h-4.858v-2.393h4.858v-6.763h2.93Zm21.753 33.667c-2.246 0-4.281-.553-6.103-1.66-1.807-1.107-3.215-2.645-4.224-4.614-1.009-1.986-1.514-4.207-1.514-6.665v-1.05c0-2.539.488-4.826 1.465-6.86.993-2.035 2.368-3.63 4.126-4.785 1.758-1.172 3.662-1.758 5.713-1.758 3.206 0 5.745 1.098 7.617 3.296 1.888 2.181 2.832 5.167 2.832 8.96v1.635h-18.848v.562c0 2.995.855 5.493 2.564 7.495 1.725 1.986 3.89 2.978 6.494 2.978 1.563 0 2.938-.284 4.126-.854 1.204-.57 2.295-1.481 3.272-2.734l1.831 1.391c-2.149 3.109-5.266 4.663-9.351 4.663Zm-.537-24.902c-2.197 0-4.053.806-5.566 2.417-1.498 1.611-2.409 3.776-2.735 6.494h15.845v-.317c-.082-2.539-.806-4.606-2.173-6.201-1.367-1.596-3.158-2.393-5.371-2.393Zm25.903 22.436c2.035 0 3.736-.569 5.103-1.709 1.383-1.155 2.132-2.644 2.246-4.467h2.807a8.331 8.331 0 0 1-1.513 4.419c-.928 1.318-2.165 2.352-3.711 3.1-1.53.749-3.174 1.123-4.932 1.123-3.467 0-6.217-1.204-8.252-3.613-2.018-2.409-3.027-5.648-3.027-9.717v-.879c0-2.604.456-4.907 1.367-6.909.912-2.002 2.214-3.548 3.906-4.639 1.709-1.09 3.703-1.635 5.982-1.635 2.897 0 5.281.862 7.153 2.588 1.888 1.725 2.897 3.995 3.027 6.811h-2.807c-.13-2.067-.879-3.735-2.246-5.005-1.351-1.269-3.06-1.904-5.127-1.904-2.637 0-4.688.952-6.153 2.856-1.448 1.905-2.172 4.574-2.172 8.008v.855c0 3.369.724 5.997 2.172 7.885 1.465 1.888 3.524 2.832 6.177 2.832Zm20.557-31.201v6.763h5.469v2.393h-5.469v17.602c0 1.465.26 2.555.781 3.272.537.716 1.424 1.074 2.661 1.074.489 0 1.278-.082 2.368-.244l.122 2.392c-.764.277-1.806.415-3.125.415-2.001 0-3.458-.578-4.37-1.733-.911-1.172-1.367-2.889-1.367-5.151v-17.627h-4.858v-2.393h4.858v-6.763h2.93ZM674.009 325h-2.93v-26.416h2.93V325Zm-3.443-34.058c0-.553.179-1.017.538-1.391.358-.391.846-.586 1.464-.586.619 0 1.107.195 1.465.586.375.374.562.838.562 1.391 0 .554-.187 1.018-.562 1.392-.358.374-.846.562-1.465.562-.618 0-1.106-.188-1.464-.562-.359-.374-.538-.838-.538-1.392Zm9.79 20.459c0-2.539.489-4.825 1.465-6.86.993-2.034 2.385-3.613 4.175-4.736 1.807-1.14 3.849-1.709 6.128-1.709 3.516 0 6.364 1.237 8.545 3.711 2.181 2.457 3.271 5.721 3.271 9.79v.61c0 2.555-.496 4.858-1.489 6.909-.976 2.035-2.36 3.605-4.15 4.712-1.791 1.107-3.833 1.66-6.128 1.66-3.499 0-6.348-1.229-8.545-3.686-2.181-2.474-3.272-5.746-3.272-9.815v-.586Zm2.93.806c0 3.158.814 5.754 2.442 7.788 1.643 2.018 3.792 3.027 6.445 3.027 2.637 0 4.769-1.009 6.396-3.027 1.644-2.034 2.466-4.712 2.466-8.032v-.562c0-2.018-.374-3.865-1.123-5.542-.749-1.676-1.798-2.97-3.149-3.881-1.351-.928-2.897-1.392-4.639-1.392-2.604 0-4.728 1.025-6.372 3.076-1.644 2.035-2.466 4.704-2.466 8.008v.537Zm29.492-13.623.098 4.517c.993-1.628 2.23-2.865 3.711-3.711 1.481-.863 3.117-1.294 4.907-1.294 2.832 0 4.94.797 6.323 2.392 1.384 1.595 2.084 3.988 2.1 7.178V325h-2.905v-17.358c-.017-2.36-.521-4.118-1.514-5.274-.977-1.155-2.547-1.733-4.712-1.733-1.807 0-3.41.569-4.809 1.709-1.384 1.123-2.409 2.645-3.077 4.565V325h-2.905v-26.416h2.783ZM751.743 325v-24.023h-4.37v-2.393h4.37v-3.198c0-2.702.684-4.777 2.051-6.226 1.383-1.448 3.304-2.173 5.762-2.173 1.106 0 2.14.139 3.1.415l-.219 2.442a11.361 11.361 0 0 0-2.662-.293c-1.611 0-2.864.504-3.759 1.513-.896.993-1.343 2.409-1.343 4.248v3.272h6.299v2.393h-6.299V325h-2.93Zm12.842-13.599c0-2.539.488-4.825 1.465-6.86.993-2.034 2.384-3.613 4.175-4.736 1.806-1.14 3.849-1.709 6.128-1.709 3.515 0 6.363 1.237 8.544 3.711 2.181 2.457 3.272 5.721 3.272 9.79v.61c0 2.555-.496 4.858-1.489 6.909-.977 2.035-2.36 3.605-4.151 4.712-1.79 1.107-3.833 1.66-6.128 1.66-3.499 0-6.347-1.229-8.545-3.686-2.181-2.474-3.271-5.746-3.271-9.815v-.586Zm2.93.806c0 3.158.813 5.754 2.441 7.788 1.644 2.018 3.792 3.027 6.445 3.027 2.637 0 4.769-1.009 6.397-3.027 1.644-2.034 2.466-4.712 2.466-8.032v-.562c0-2.018-.375-3.865-1.123-5.542-.749-1.676-1.799-2.97-3.15-3.881-1.351-.928-2.897-1.392-4.638-1.392-2.605 0-4.729 1.025-6.373 3.076-1.643 2.035-2.465 4.704-2.465 8.008v.537Zm38.916-11.133a10.914 10.914 0 0 0-1.978-.171c-1.823 0-3.369.513-4.639 1.538-1.253 1.01-2.148 2.483-2.685 4.419V325h-2.905v-26.416h2.856l.049 4.199c1.546-3.125 4.028-4.687 7.446-4.687.814 0 1.457.105 1.929.317l-.073 2.661ZM823.911 325v-35.547h9.937c2.913 0 5.525.667 7.837 2.002 2.311 1.318 4.109 3.215 5.395 5.689 1.302 2.474 1.953 5.289 1.953 8.447v3.271c0 3.174-.643 5.99-1.929 8.448-1.285 2.457-3.1 4.353-5.444 5.688-2.327 1.335-5.005 2.002-8.032 2.002h-9.717Zm3.003-32.983v30.444h6.738c3.744 0 6.747-1.237 9.009-3.711 2.263-2.49 3.394-5.851 3.394-10.083v-3.125c0-4.085-1.115-7.357-3.345-9.814-2.23-2.458-5.168-3.695-8.814-3.711h-6.982ZM859.263 325h-2.93v-26.416h2.93V325Zm-3.443-34.058c0-.553.179-1.017.537-1.391.358-.391.847-.586 1.465-.586.619 0 1.107.195 1.465.586.374.374.562.838.562 1.391 0 .554-.188 1.018-.562 1.392-.358.374-.846.562-1.465.562-.618 0-1.107-.188-1.465-.562-.358-.374-.537-.838-.537-1.392Zm27.222 27.344c0-1.448-.586-2.612-1.758-3.491-1.155-.879-2.905-1.563-5.249-2.051-2.344-.504-4.167-1.074-5.469-1.709-1.285-.651-2.246-1.44-2.88-2.368-.619-.928-.928-2.051-.928-3.369 0-2.083.871-3.801 2.612-5.152 1.742-1.367 3.971-2.05 6.69-2.05 2.946 0 5.306.732 7.08 2.197 1.79 1.449 2.685 3.345 2.685 5.688h-2.929c0-1.546-.652-2.832-1.954-3.857-1.285-1.025-2.913-1.538-4.882-1.538-1.921 0-3.467.431-4.639 1.294-1.156.846-1.733 1.953-1.733 3.32 0 1.319.48 2.344 1.44 3.076.976.717 2.742 1.376 5.298 1.978 2.571.602 4.492 1.245 5.762 1.929 1.285.683 2.237 1.505 2.856 2.465.618.961.928 2.124.928 3.492 0 2.229-.904 4.012-2.71 5.346-1.791 1.335-4.134 2.002-7.032 2.002-3.076 0-5.574-.74-7.495-2.221-1.904-1.498-2.856-3.386-2.856-5.664h2.93c.114 1.709.83 3.043 2.148 4.003 1.335.944 3.092 1.416 5.273 1.416 2.035 0 3.679-.447 4.932-1.342 1.253-.895 1.88-2.027 1.88-3.394Zm19.287 4.736c2.035 0 3.735-.569 5.103-1.709 1.383-1.155 2.132-2.644 2.246-4.467h2.807a8.34 8.34 0 0 1-1.513 4.419c-.928 1.318-2.165 2.352-3.711 3.1-1.53.749-3.174 1.123-4.932 1.123-3.467 0-6.217-1.204-8.252-3.613-2.018-2.409-3.027-5.648-3.027-9.717v-.879c0-2.604.456-4.907 1.367-6.909s2.214-3.548 3.906-4.639c1.709-1.09 3.703-1.635 5.982-1.635 2.897 0 5.281.862 7.153 2.588 1.888 1.725 2.897 3.995 3.027 6.811h-2.807c-.13-2.067-.879-3.735-2.246-5.005-1.351-1.269-3.06-1.904-5.127-1.904-2.637 0-4.688.952-6.153 2.856-1.448 1.905-2.173 4.574-2.173 8.008v.855c0 3.369.725 5.997 2.173 7.885 1.465 1.888 3.524 2.832 6.177 2.832Zm14.404-11.621c0-2.539.489-4.825 1.465-6.86.993-2.034 2.385-3.613 4.175-4.736 1.807-1.14 3.849-1.709 6.128-1.709 3.516 0 6.364 1.237 8.545 3.711 2.181 2.457 3.271 5.721 3.271 9.79v.61c0 2.555-.496 4.858-1.489 6.909-.976 2.035-2.36 3.605-4.15 4.712-1.791 1.107-3.833 1.66-6.128 1.66-3.5 0-6.348-1.229-8.545-3.686-2.181-2.474-3.272-5.746-3.272-9.815v-.586Zm2.93.806c0 3.158.814 5.754 2.441 7.788 1.644 2.018 3.793 3.027 6.446 3.027 2.637 0 4.769-1.009 6.396-3.027 1.644-2.034 2.466-4.712 2.466-8.032v-.562c0-2.018-.374-3.865-1.123-5.542-.749-1.676-1.798-2.97-3.149-3.881-1.351-.928-2.897-1.392-4.639-1.392-2.604 0-4.728 1.025-6.372 3.076-1.644 2.035-2.466 4.704-2.466 8.008v.537Zm38.916-11.133a10.903 10.903 0 0 0-1.977-.171c-1.823 0-3.37.513-4.639 1.538-1.253 1.01-2.149 2.483-2.686 4.419V325h-2.905v-26.416h2.857l.048 4.199c1.547-3.125 4.029-4.687 7.447-4.687.813 0 1.456.105 1.928.317l-.073 2.661Zm2.979 10.474c0-4.102.911-7.365 2.734-9.79 1.839-2.442 4.329-3.662 7.471-3.662 3.564 0 6.282 1.408 8.154 4.223V287.5h2.905V325h-2.734l-.122-3.516c-1.872 2.67-4.623 4.004-8.252 4.004-3.044 0-5.501-1.22-7.373-3.662-1.856-2.458-2.783-5.77-2.783-9.936v-.342Zm2.954.513c0 3.369.675 6.03 2.026 7.983 1.351 1.937 3.255 2.905 5.713 2.905 3.597 0 6.152-1.587 7.666-4.761v-12.402c-1.514-3.434-4.053-5.151-7.617-5.151-2.458 0-4.37.968-5.738 2.905-1.367 1.921-2.05 4.761-2.05 8.521ZM873 529v-22.75h6.719c2.437 0 4.286.505 5.547 1.516 1.26 1 1.89 2.479 1.89 4.437 0 1.177-.323 2.203-.968 3.078-.636.865-1.511 1.485-2.626 1.86 1.323.291 2.386.942 3.188 1.953.812 1.01 1.219 2.177 1.219 3.5 0 2.01-.651 3.583-1.953 4.718-1.292 1.126-3.094 1.688-5.407 1.688H873Zm1.922-10.938v9.313h5.766c1.645 0 2.947-.417 3.906-1.25.968-.844 1.453-2.01 1.453-3.5 0-1.406-.464-2.516-1.391-3.328-.916-.823-2.187-1.235-3.812-1.235h-5.922Zm0-1.609h5.25c1.604-.031 2.844-.406 3.719-1.125.885-.729 1.328-1.786 1.328-3.172 0-1.458-.459-2.531-1.375-3.218-.906-.698-2.282-1.047-4.125-1.047h-4.797v8.562Zm22.625 9.859 4.937-14.218h2.016l-7.219 19.781-.375.875c-.927 2.052-2.359 3.078-4.297 3.078-.448 0-.927-.073-1.437-.219l-.016-1.547.969.094c.917 0 1.656-.229 2.219-.687.573-.448 1.057-1.224 1.453-2.328l.828-2.282-6.375-16.765h2.047l5.25 14.218Zm34.187-4.406c-.26 2.396-1.119 4.229-2.578 5.5-1.448 1.271-3.38 1.906-5.797 1.906-1.687 0-3.182-.421-4.484-1.265-1.292-.844-2.292-2.037-3-3.578-.708-1.552-1.068-3.323-1.078-5.313v-2.953c0-2.021.354-3.812 1.062-5.375.709-1.562 1.724-2.766 3.047-3.609 1.334-.854 2.865-1.281 4.594-1.281 2.438 0 4.359.661 5.766 1.984 1.416 1.312 2.239 3.13 2.468 5.453h-1.937c-.479-3.865-2.578-5.797-6.297-5.797-2.062 0-3.708.771-4.938 2.313-1.218 1.541-1.828 3.671-1.828 6.39v2.781c0 2.626.594 4.719 1.782 6.282 1.198 1.562 2.812 2.344 4.843 2.344 2.011 0 3.526-.48 4.547-1.438 1.021-.969 1.651-2.417 1.891-4.344h1.937Zm6.328 7.094h-1.874v-24h1.874v24Zm7.188 0h-1.875v-16.906h1.875V529Zm-2.203-21.797c0-.354.114-.651.344-.891.229-.25.541-.374.937-.374s.708.124.938.374c.239.24.359.537.359.891s-.12.651-.359.891c-.23.239-.542.359-.938.359-.396 0-.708-.12-.937-.359a1.237 1.237 0 0 1-.344-.891Zm13.547 20.531c1.302 0 2.39-.364 3.265-1.093.886-.74 1.365-1.693 1.438-2.86h1.797a5.332 5.332 0 0 1-.969 2.828c-.594.844-1.385 1.506-2.375 1.985a7.085 7.085 0 0 1-3.156.718c-2.219 0-3.979-.77-5.282-2.312-1.291-1.542-1.937-3.615-1.937-6.219v-.562c0-1.667.292-3.141.875-4.422.583-1.281 1.417-2.271 2.5-2.969 1.094-.698 2.37-1.047 3.828-1.047 1.854 0 3.38.552 4.578 1.657 1.209 1.104 1.854 2.557 1.938 4.359h-1.797c-.083-1.323-.563-2.391-1.438-3.203-.864-.813-1.958-1.219-3.281-1.219-1.687 0-3 .609-3.937 1.828-.927 1.219-1.391 2.927-1.391 5.125v.547c0 2.156.464 3.839 1.391 5.047.937 1.208 2.255 1.812 3.953 1.812Zm14.265-7.25-2.14 2.063V529h-1.875v-24h1.875v15.359l1.765-1.906 6.469-6.359h2.359l-7.171 7.125 7.797 9.781h-2.235l-6.844-8.516Zm21.797 4.219c0-.927-.375-1.672-1.125-2.234-.739-.563-1.859-1-3.359-1.313-1.5-.323-2.667-.687-3.5-1.094-.823-.416-1.438-.921-1.844-1.515-.396-.594-.594-1.313-.594-2.156 0-1.334.558-2.433 1.672-3.297 1.115-.875 2.542-1.313 4.282-1.313 1.885 0 3.395.469 4.531 1.407 1.146.927 1.719 2.14 1.719 3.64h-1.876c0-.989-.416-1.812-1.25-2.469-.822-.656-1.864-.984-3.124-.984-1.23 0-2.219.276-2.969.828-.74.542-1.11 1.25-1.11 2.125 0 .844.308 1.5.922 1.969.625.458 1.755.88 3.391 1.265 1.646.386 2.875.797 3.687 1.235.823.437 1.433.963 1.829 1.578.395.615.593 1.359.593 2.234 0 1.427-.578 2.568-1.734 3.422-1.146.854-2.646 1.281-4.5 1.281-1.969 0-3.568-.473-4.797-1.421-1.219-.959-1.828-2.167-1.828-3.625h1.875c.073 1.093.531 1.948 1.375 2.562.854.604 1.979.906 3.375.906 1.302 0 2.354-.286 3.156-.859s1.203-1.297 1.203-2.172Zm9.074-18.453 8.39 20.078 8.43-20.078h2.56V529h-1.92v-9.906l.15-10.156-8.46 20.062h-1.49l-8.44-19.984.16 10.015V529h-1.922v-22.75h2.542Zm26.8 22.75h-1.87v-16.906h1.87V529Zm-2.2-21.797c0-.354.11-.651.34-.891.23-.25.54-.374.94-.374.4 0 .71.124.94.374.24.24.36.537.36.891s-.12.651-.36.891c-.23.239-.54.359-.94.359-.4 0-.71-.12-.94-.359-.23-.24-.34-.537-.34-.891Zm9.08 4.891.06 2.89c.63-1.041 1.43-1.833 2.37-2.375.95-.552 2-.828 3.14-.828 1.82 0 3.17.511 4.05 1.531.89 1.021 1.33 2.553 1.35 4.594V529h-1.86v-11.109c-.01-1.511-.34-2.636-.97-3.375-.63-.74-1.63-1.11-3.02-1.11-1.15 0-2.18.365-3.08 1.094-.88.719-1.54 1.693-1.97 2.922V529h-1.86v-16.906h1.79Zm26.68 14.765c-1.12 1.636-2.92 2.453-5.39 2.453-1.8 0-3.17-.52-4.11-1.562-.93-1.052-1.41-2.604-1.43-4.656v-11h1.86v10.765c0 3.219 1.3 4.829 3.9 4.829 2.71 0 4.42-1.12 5.14-3.36v-12.234h1.88V529h-1.82l-.03-2.141Zm9.63-19.093v4.328h3.5v1.531h-3.5v11.266c0 .937.17 1.635.5 2.093.34.459.91.688 1.7.688.31 0 .82-.052 1.52-.156l.08 1.531c-.49.177-1.16.265-2 .265-1.29 0-2.22-.369-2.8-1.109-.58-.75-.88-1.849-.88-3.297v-11.281h-3.11v-1.531h3.11v-4.328h1.88Zm13.92 21.546c-1.44 0-2.74-.354-3.91-1.062-1.15-.708-2.05-1.693-2.7-2.953-.64-1.271-.97-2.693-.97-4.266v-.672c0-1.625.32-3.088.94-4.39.64-1.302 1.52-2.323 2.64-3.063 1.13-.75 2.34-1.125 3.66-1.125 2.05 0 3.67.703 4.87 2.11 1.21 1.395 1.81 3.307 1.81 5.734v1.047h-12.06v.359c0 1.917.55 3.516 1.64 4.797 1.11 1.271 2.49 1.906 4.16 1.906 1 0 1.88-.182 2.64-.546.77-.365 1.47-.948 2.09-1.75l1.17.89c-1.37 1.99-3.36 2.984-5.98 2.984Zm-.34-15.937c-1.41 0-2.6.516-3.57 1.547-.95 1.031-1.54 2.417-1.75 4.156h10.14v-.203c-.05-1.625-.51-2.948-1.39-3.969-.87-1.021-2.02-1.531-3.43-1.531Zm12.68 6.359V529h-1.92v-22.75h7.75c2.37 0 4.23.604 5.6 1.812 1.37 1.209 2.06 2.87 2.06 4.985 0 2.135-.66 3.786-1.99 4.953-1.31 1.156-3.21 1.734-5.71 1.734h-5.79Zm0-1.625h5.83c1.87 0 3.29-.442 4.27-1.328.98-.885 1.47-2.12 1.47-3.703 0-1.573-.49-2.823-1.47-3.75-.97-.937-2.35-1.417-4.14-1.437h-5.96v10.218Zm23.69 11.203c-1.44 0-2.74-.354-3.9-1.062-1.16-.708-2.06-1.693-2.71-2.953-.64-1.271-.97-2.693-.97-4.266v-.672c0-1.625.32-3.088.94-4.39.64-1.302 1.52-2.323 2.64-3.063 1.13-.75 2.35-1.125 3.66-1.125 2.05 0 3.68.703 4.87 2.11 1.21 1.395 1.82 3.307 1.82 5.734v1.047h-12.07v.359c0 1.917.55 3.516 1.64 4.797 1.11 1.271 2.49 1.906 4.16 1.906 1 0 1.88-.182 2.64-.546.77-.365 1.47-.948 2.09-1.75l1.18.89c-1.38 1.99-3.37 2.984-5.99 2.984Zm-.34-15.937c-1.41 0-2.6.516-3.56 1.547s-1.55 2.417-1.75 4.156h10.14v-.203c-.06-1.625-.52-2.948-1.39-3.969-.88-1.021-2.03-1.531-3.44-1.531Zm18.14.313a7.04 7.04 0 0 0-1.27-.11c-1.16 0-2.15.328-2.97.984-.8.646-1.37 1.589-1.71 2.829V529h-1.86v-16.906h1.82l.04 2.687c.99-2 2.57-3 4.76-3 .52 0 .93.068 1.24.203l-.05 1.704ZM144.797 519.734V529h-1.922v-22.75h7.75c2.365 0 4.229.604 5.594 1.812 1.375 1.209 2.062 2.87 2.062 4.985 0 2.135-.661 3.786-1.984 4.953-1.313 1.156-3.219 1.734-5.719 1.734h-5.781Zm0-1.625h5.828c1.865 0 3.286-.442 4.266-1.328.979-.885 1.468-2.12 1.468-3.703 0-1.573-.489-2.823-1.468-3.75-.969-.937-2.349-1.417-4.141-1.437h-5.953v10.218Zm25.172-4.421a6.98 6.98 0 0 0-1.266-.11c-1.167 0-2.156.328-2.969.984-.802.646-1.375 1.589-1.718 2.829V529h-1.86v-16.906h1.828l.032 2.687c.989-2 2.578-3 4.765-3 .521 0 .933.068 1.235.203l-.047 1.704Zm1.625 6.609c0-1.625.312-3.089.937-4.391.636-1.302 1.526-2.312 2.672-3.031 1.156-.729 2.464-1.094 3.922-1.094 2.25 0 4.073.792 5.469 2.375 1.396 1.573 2.094 3.662 2.094 6.266v.39c0 1.636-.318 3.11-.954 4.422-.625 1.302-1.51 2.308-2.656 3.016-1.146.708-2.453 1.062-3.922 1.062-2.239 0-4.062-.786-5.468-2.359-1.396-1.583-2.094-3.677-2.094-6.281v-.375Zm1.875.515c0 2.021.521 3.683 1.562 4.985 1.052 1.292 2.427 1.937 4.125 1.937 1.688 0 3.052-.645 4.094-1.937 1.052-1.302 1.578-3.016 1.578-5.141v-.359c0-1.292-.239-2.474-.719-3.547-.479-1.073-1.151-1.901-2.015-2.484-.865-.594-1.854-.891-2.969-.891-1.667 0-3.026.656-4.078 1.969-1.052 1.302-1.578 3.01-1.578 5.125v.343Zm16.343-.421c0-2.646.584-4.74 1.75-6.282 1.178-1.552 2.771-2.328 4.782-2.328 2.302 0 4.052.917 5.25 2.75l.094-2.437h1.75v16.562c0 2.177-.61 3.901-1.829 5.172-1.218 1.271-2.869 1.906-4.953 1.906a7.514 7.514 0 0 1-3.375-.796c-1.062-.521-1.901-1.219-2.515-2.094l1.046-1.125c1.323 1.625 2.896 2.437 4.719 2.437 1.563 0 2.781-.463 3.657-1.39.874-.917 1.328-2.193 1.359-3.828v-2.126c-1.198 1.667-2.943 2.5-5.235 2.5-1.958 0-3.531-.781-4.718-2.343-1.188-1.563-1.782-3.672-1.782-6.328v-.25Zm1.891.328c0 2.156.432 3.859 1.297 5.109.865 1.24 2.083 1.86 3.656 1.86 2.302 0 3.933-1.032 4.891-3.094v-7.86c-.438-1.083-1.068-1.906-1.891-2.468-.823-.573-1.812-.86-2.968-.86-1.573 0-2.797.62-3.672 1.86-.875 1.229-1.313 3.046-1.313 5.453Zm24.422-7.031a6.98 6.98 0 0 0-1.266-.11c-1.166 0-2.156.328-2.968.984-.802.646-1.375 1.589-1.719 2.829V529h-1.86v-16.906h1.829l.031 2.687c.989-2 2.578-3 4.766-3 .52 0 .932.068 1.234.203l-.047 1.704ZM229.141 529c-.188-.531-.308-1.318-.36-2.359a6.58 6.58 0 0 1-2.515 1.984 7.71 7.71 0 0 1-3.219.687c-1.625 0-2.943-.453-3.953-1.359-1-.906-1.5-2.052-1.5-3.437 0-1.646.682-2.948 2.047-3.907 1.375-.958 3.286-1.437 5.734-1.437h3.391v-1.922c0-1.208-.375-2.156-1.125-2.844-.74-.698-1.823-1.047-3.25-1.047-1.302 0-2.381.334-3.235 1-.854.667-1.281 1.469-1.281 2.407L218 516.75c0-1.344.625-2.505 1.875-3.484 1.25-.99 2.786-1.485 4.609-1.485 1.886 0 3.37.474 4.454 1.422 1.093.938 1.656 2.25 1.687 3.938v8c0 1.635.172 2.859.516 3.671V529h-2Zm-5.875-1.344c1.25 0 2.364-.302 3.343-.906.99-.604 1.709-1.411 2.157-2.422v-3.719h-3.344c-1.865.021-3.323.365-4.375 1.032-1.052.656-1.578 1.562-1.578 2.718 0 .948.349 1.735 1.047 2.36.708.625 1.625.937 2.75.937Zm14.062-15.562.063 2.75c.625-1.021 1.406-1.787 2.343-2.297.938-.511 1.98-.766 3.125-.766 2.667 0 4.36 1.094 5.079 3.281.604-1.052 1.411-1.859 2.421-2.421 1.011-.573 2.125-.86 3.344-.86 3.625 0 5.474 1.979 5.547 5.938V529h-1.875v-11.141c-.01-1.51-.339-2.63-.984-3.359-.636-.729-1.677-1.094-3.125-1.094-1.344.021-2.48.459-3.407 1.313-.927.843-1.442 1.875-1.547 3.093V529h-1.874v-11.281c-.011-1.448-.355-2.526-1.032-3.235-.666-.718-1.698-1.078-3.094-1.078-1.177 0-2.187.339-3.031 1.016-.843.667-1.469 1.661-1.875 2.984V529h-1.875v-16.906h1.797Zm28.375 0 .063 2.75c.625-1.021 1.406-1.787 2.343-2.297.938-.511 1.98-.766 3.125-.766 2.667 0 4.36 1.094 5.078 3.281.605-1.052 1.412-1.859 2.422-2.421 1.011-.573 2.125-.86 3.344-.86 3.625 0 5.474 1.979 5.547 5.938V529h-1.875v-11.141c-.01-1.51-.339-2.63-.984-3.359-.636-.729-1.677-1.094-3.125-1.094-1.344.021-2.48.459-3.407 1.313-.927.843-1.442 1.875-1.546 3.093V529h-1.876v-11.281c-.01-1.448-.354-2.526-1.031-3.235-.666-.718-1.698-1.078-3.093-1.078-1.178 0-2.188.339-3.032 1.016-.844.667-1.468 1.661-1.875 2.984V529h-1.875v-16.906h1.797Zm33.219 17.218c-1.438 0-2.74-.354-3.906-1.062-1.157-.708-2.058-1.693-2.704-2.953-.645-1.271-.968-2.693-.968-4.266v-.672c0-1.625.312-3.088.937-4.39.636-1.302 1.516-2.323 2.641-3.063 1.125-.75 2.344-1.125 3.656-1.125 2.052 0 3.677.703 4.875 2.11 1.208 1.395 1.813 3.307 1.813 5.734v1.047h-12.063v.359c0 1.917.547 3.516 1.641 4.797 1.104 1.271 2.489 1.906 4.156 1.906 1 0 1.88-.182 2.641-.546.77-.365 1.468-.948 2.093-1.75l1.172.89c-1.375 1.99-3.37 2.984-5.984 2.984Zm-.344-15.937c-1.406 0-2.594.516-3.562 1.547-.959 1.031-1.542 2.417-1.75 4.156h10.14v-.203c-.052-1.625-.515-2.948-1.39-3.969-.875-1.021-2.021-1.531-3.438-1.531Zm9.578 7.016c0-2.625.584-4.714 1.75-6.266 1.177-1.563 2.771-2.344 4.782-2.344 2.281 0 4.02.901 5.218 2.703V505h1.86v24h-1.75l-.078-2.25c-1.198 1.708-2.959 2.562-5.282 2.562-1.948 0-3.521-.781-4.718-2.343-1.188-1.573-1.782-3.693-1.782-6.36v-.218Zm1.891.328c0 2.156.432 3.859 1.297 5.109.864 1.24 2.083 1.86 3.656 1.86 2.302 0 3.938-1.016 4.906-3.047v-7.938c-.968-2.198-2.594-3.297-4.875-3.297-1.573 0-2.797.62-3.672 1.86-.875 1.229-1.312 3.046-1.312 5.453Zm38.031 0c0 2.635-.583 4.729-1.75 6.281-1.167 1.542-2.734 2.312-4.703 2.312-2.354 0-4.135-.874-5.344-2.624l-.078 2.312h-1.75v-24h1.859v9.547c1.188-1.844 2.948-2.766 5.282-2.766 2 0 3.578.766 4.734 2.297 1.167 1.521 1.75 3.641 1.75 6.36v.281Zm-1.875-.328c0-2.23-.432-3.948-1.297-5.157-.864-1.218-2.083-1.828-3.656-1.828-1.198 0-2.214.297-3.047.891-.833.583-1.463 1.443-1.891 2.578v7.625c.938 2.125 2.594 3.188 4.969 3.188 1.542 0 2.745-.61 3.61-1.829.875-1.218 1.312-3.041 1.312-5.468Zm11.188 5.921 4.937-14.218h2.016l-7.219 19.781-.375.875c-.927 2.052-2.359 3.078-4.297 3.078-.448 0-.927-.073-1.437-.219l-.016-1.547.969.094c.916 0 1.656-.229 2.219-.687.572-.448 1.057-1.224 1.453-2.328l.828-2.282-6.375-16.765h2.047l5.25 14.218Zm9.406 1.563c0-.365.114-.672.344-.922.239-.26.567-.391.984-.391.417 0 .745.131.984.391.24.25.36.557.36.922s-.12.667-.36.906c-.239.229-.567.344-.984.344-.417 0-.745-.115-.984-.344-.23-.239-.344-.541-.344-.906Zm.031-14.422c0-.364.115-.672.344-.922.239-.26.568-.39.984-.39.417 0 .745.13.985.39.239.25.359.558.359.922 0 .365-.12.667-.359.906-.24.23-.568.344-.985.344-.416 0-.745-.114-.984-.344-.229-.239-.344-.541-.344-.906Zm17.906-7.203 8.391 20.078 8.422-20.078h2.562V529h-1.921v-9.906l.156-10.156L393.875 529h-1.484l-8.438-19.984.156 10.015V529h-1.921v-22.75h2.546ZM411.531 529h-1.875v-16.906h1.875V529Zm-2.203-21.797c0-.354.115-.651.344-.891.229-.25.542-.374.937-.374.396 0 .709.124.938.374.239.24.359.537.359.891s-.12.651-.359.891c-.229.239-.542.359-.938.359-.395 0-.708-.12-.937-.359a1.241 1.241 0 0 1-.344-.891Zm9.078 4.891.063 2.89c.635-1.041 1.427-1.833 2.375-2.375.948-.552 1.995-.828 3.14-.828 1.813 0 3.162.511 4.047 1.531.886 1.021 1.334 2.553 1.344 4.594V529h-1.859v-11.109c-.011-1.511-.334-2.636-.969-3.375-.625-.74-1.63-1.11-3.016-1.11a4.74 4.74 0 0 0-3.078 1.094c-.885.719-1.542 1.693-1.969 2.922V529h-1.859v-16.906h1.781ZM436.312 529h-1.874v-16.906h1.874V529Zm-2.203-21.797c0-.354.115-.651.344-.891.229-.25.542-.374.938-.374.395 0 .708.124.937.374.24.24.36.537.36.891s-.12.651-.36.891c-.229.239-.542.359-.937.359-.396 0-.709-.12-.938-.359a1.241 1.241 0 0 1-.344-.891Zm6.266 13.094c0-1.625.313-3.089.937-4.391.636-1.302 1.527-2.312 2.672-3.031 1.157-.729 2.464-1.094 3.922-1.094 2.25 0 4.073.792 5.469 2.375 1.396 1.573 2.094 3.662 2.094 6.266v.39c0 1.636-.318 3.11-.953 4.422-.625 1.302-1.511 2.308-2.657 3.016-1.145.708-2.453 1.062-3.921 1.062-2.24 0-4.063-.786-5.469-2.359-1.396-1.583-2.094-3.677-2.094-6.281v-.375Zm1.875.515c0 2.021.521 3.683 1.562 4.985 1.053 1.292 2.428 1.937 4.126 1.937 1.687 0 3.052-.645 4.093-1.937 1.052-1.302 1.578-3.016 1.578-5.141v-.359c0-1.292-.239-2.474-.718-3.547-.48-1.073-1.151-1.901-2.016-2.484-.865-.594-1.854-.891-2.969-.891-1.666 0-3.026.656-4.078 1.969-1.052 1.302-1.578 3.01-1.578 5.125v.343Zm18.875-8.718.063 2.89c.635-1.041 1.427-1.833 2.374-2.375.948-.552 1.995-.828 3.141-.828 1.813 0 3.162.511 4.047 1.531.885 1.021 1.333 2.553 1.344 4.594V529h-1.86v-11.109c-.01-1.511-.333-2.636-.968-3.375-.625-.74-1.631-1.11-3.016-1.11a4.74 4.74 0 0 0-3.078 1.094c-.886.719-1.542 1.693-1.969 2.922V529h-1.859v-16.906h1.781Zm19.672 4.515h1.937c1.073 0 2.011-.187 2.813-.562.802-.386 1.411-.906 1.828-1.563.427-.666.641-1.432.641-2.296 0-1.459-.412-2.599-1.235-3.422-.823-.823-2.005-1.235-3.547-1.235-1.458 0-2.656.433-3.593 1.297-.927.854-1.391 1.984-1.391 3.391h-1.875c0-1.177.297-2.25.891-3.219a5.97 5.97 0 0 1 2.468-2.266c1.052-.531 2.219-.796 3.5-.796 2.063 0 3.688.562 4.875 1.687 1.188 1.125 1.782 2.667 1.782 4.625 0 1.094-.349 2.104-1.047 3.031-.688.917-1.636 1.604-2.844 2.063 1.417.396 2.49 1.078 3.219 2.047.729.958 1.093 2.104 1.093 3.437 0 1.948-.635 3.516-1.906 4.703-1.271 1.188-2.968 1.781-5.094 1.781-1.354 0-2.598-.27-3.734-.812-1.125-.542-2-1.297-2.625-2.266-.614-.979-.922-2.114-.922-3.406h1.875c0 1.448.505 2.63 1.516 3.547 1.01.906 2.307 1.359 3.89 1.359 1.615 0 2.87-.411 3.766-1.234.906-.833 1.36-2.036 1.36-3.609 0-1.521-.49-2.683-1.469-3.485-.969-.802-2.401-1.203-4.297-1.203h-1.875v-1.594Zm24.625-10.531v1.641h-.219c-2.719 0-4.859.802-6.422 2.406-1.562 1.594-2.427 3.813-2.593 6.656a6.273 6.273 0 0 1 2.39-2c.969-.479 2.052-.719 3.25-.719 2 0 3.589.693 4.766 2.079 1.187 1.375 1.781 3.177 1.781 5.406 0 1.479-.276 2.812-.828 4-.552 1.187-1.344 2.114-2.375 2.781-1.031.656-2.208.984-3.531.984-2.177 0-3.948-.786-5.313-2.359-1.364-1.583-2.047-3.625-2.047-6.125v-1.875c0-4.073.927-7.224 2.781-9.453 1.855-2.24 4.485-3.38 7.891-3.422h.469Zm-3.891 9.594c-1.187 0-2.297.354-3.328 1.062-1.021.698-1.703 1.589-2.047 2.672V521c0 1.979.505 3.594 1.516 4.844 1.021 1.25 2.344 1.875 3.969 1.875 1.458 0 2.635-.578 3.531-1.735.906-1.156 1.359-2.614 1.359-4.375 0-1.791-.453-3.229-1.359-4.312-.896-1.083-2.11-1.625-3.641-1.625Zm21.641-9.594v1.641h-.219c-2.719 0-4.859.802-6.422 2.406-1.562 1.594-2.427 3.813-2.593 6.656a6.273 6.273 0 0 1 2.39-2c.969-.479 2.052-.719 3.25-.719 2 0 3.589.693 4.766 2.079 1.187 1.375 1.781 3.177 1.781 5.406 0 1.479-.276 2.812-.828 4-.552 1.187-1.344 2.114-2.375 2.781-1.031.656-2.208.984-3.531.984-2.177 0-3.948-.786-5.313-2.359-1.364-1.583-2.047-3.625-2.047-6.125v-1.875c0-4.073.927-7.224 2.781-9.453 1.855-2.24 4.485-3.38 7.891-3.422h.469Zm-3.891 9.594c-1.187 0-2.297.354-3.328 1.062-1.021.698-1.703 1.589-2.047 2.672V521c0 1.979.505 3.594 1.516 4.844 1.021 1.25 2.344 1.875 3.969 1.875 1.458 0 2.635-.578 3.531-1.735.906-1.156 1.359-2.614 1.359-4.375 0-1.791-.453-3.229-1.359-4.312-.896-1.083-2.11-1.625-3.641-1.625Zm11.875 1.672 1.11-11.094h11.375v1.734h-9.766l-.797 7.688c1.219-.833 2.646-1.25 4.281-1.25 2.052 0 3.688.667 4.907 2 1.218 1.333 1.828 3.109 1.828 5.328 0 2.396-.594 4.255-1.782 5.578-1.187 1.323-2.859 1.984-5.015 1.984-1.979 0-3.583-.552-4.813-1.656-1.229-1.104-1.932-2.651-2.109-4.64h1.797c.177 1.552.703 2.729 1.578 3.531.875.792 2.057 1.187 3.547 1.187 1.625 0 2.849-.515 3.672-1.546.833-1.032 1.25-2.5 1.25-4.407 0-1.666-.464-3.026-1.391-4.078-.927-1.052-2.193-1.578-3.797-1.578-.885 0-1.656.115-2.312.344-.657.219-1.349.651-2.078 1.297l-1.485-.422Z" fill="#fff"/><defs><linearGradient id="a" x1="0" y1="320" x2="819.2" y2="-294.4" gradientUnits="userSpaceOnUse"><stop stop-color="#424242"/><stop offset="1" stop-color="#8D8D8D"/></linearGradient><linearGradient id="b" x1="0" y1="640" x2="1280" y2="640" gradientUnits="userSpaceOnUse"><stop stop-color="#EDC575"/><stop offset="1" stop-color="#E6AB71"/></linearGradient><linearGradient id="d" x1="78" y1="78" x2="1202" y2="562" gradientUnits="userSpaceOnUse"><stop stop-opacity=".9"/><stop offset="1" stop-opacity=".7"/></linearGradient><linearGradient id="f" x1="500" y1="114" x2="372" y2="242" gradientUnits="userSpaceOnUse"><stop stop-color="#F2D478"/><stop offset="1" stop-color="#EDC575"/></linearGradient><clipPath id="e"><rect x="372" y="114" width="128" height="128" rx="64" fill="#fff"/></clipPath><filter id="c" x="48" y="48" width="1184" height="544" filterUnits="userSpaceOnUse" color-interpolation-filters="sRGB"><feFlood flood-opacity="0" result="BackgroundImageFix"/><feGaussianBlur in="BackgroundImage" stdDeviation="14"/><feComposite in2="SourceAlpha" operator="in" result="effect1_backgroundBlur_3103:7526"/><feColorMatrix in="SourceAlpha" values="0 0 0 0 0 0 0 0 0 0 0 0 0 0 0 0 0 0 127 0" result="hardAlpha"/><feMorphology radius="5" operator="dilate" in="SourceAlpha" result="effect2_dropShadow_3103:7526"/><feOffset/><feGaussianBlur stdDeviation="12.5"/><feComposite in2="hardAlpha" operator="out"/><feColorMatrix values="0 0 0 0 0.258333 0 0 0 0 0.258333 0 0 0 0 0.258333 0 0 0 0.6 0"/><feBlend in2="effect1_backgroundBlur_3103:7526" result="effect2_dropShadow_3103:7526"/><feBlend in="SourceGraphic" in2="effect2_dropShadow_3103:7526" result="shape"/></filter></defs></svg>