<svg width="1280" height="640" fill="none" xmlns="http://www.w3.org/2000/svg"><rect width="1280" height="640" rx="40" fill="#fff"/><rect width="1280" height="640" rx="40" fill="url(#a)"/><path fill-rule="evenodd" clip-rule="evenodd" d="m0 279.713 53 32c54 32 160 96 267 83 107-12 213-102 320-115s213 51 320 90c107 38 213 51 267 57l53 7V640H0V279.713Z" fill="url(#b)"/><path fill="#000" fill-opacity=".25" d="M0 0h1280v640H0z"/><g filter="url(#c)"><rect x="78" y="78" width="1124" height="484" rx="40" fill="url(#d)" fill-opacity=".65" shape-rendering="crispEdges"/></g><rect x="417" y="114" width="128" height="128" rx="64" fill="url(#e)"/><path fill-rule="evenodd" clip-rule="evenodd" d="M439.125 143.875a4.063 4.063 0 0 0-4.063 4.062v11.313a4.063 4.063 0 0 0 4.063 4.063h83.687a4.063 4.063 0 0 0 4.063-4.063v-11.312a4.063 4.063 0 0 0-4.063-4.063h-83.687Zm78.005 17.687a7.936 7.936 0 0 0 7.937-7.937 7.937 7.937 0 1 0-15.875 0 7.937 7.937 0 0 0 7.938 7.937Z" fill="#424242"/><g filter="url(#f)"><path fill-rule="evenodd" clip-rule="evenodd" d="M439.125 168.25a4.063 4.063 0 0 0-4.063 4.062v11.313a4.063 4.063 0 0 0 4.063 4.063h83.687a4.063 4.063 0 0 0 4.063-4.063v-11.312a4.063 4.063 0 0 0-4.063-4.063h-83.687Zm78.005 17.687a7.937 7.937 0 0 0 7.937-7.937 7.937 7.937 0 1 0-15.875 0 7.938 7.938 0 0 0 7.938 7.937Z" fill="#424242"/></g><path fill-rule="evenodd" clip-rule="evenodd" d="M439.125 192.625a4.063 4.063 0 0 0-4.063 4.062V208a4.063 4.063 0 0 0 4.063 4.063h83.687a4.063 4.063 0 0 0 4.063-4.063v-11.312a4.063 4.063 0 0 0-4.063-4.063h-83.687Zm78.005 17.688a7.937 7.937 0 0 0 7.937-7.938 7.936 7.936 0 0 0-7.937-7.937 7.937 7.937 0 1 0 0 15.875Z" fill="#424242"/><path d="M640.5 184.125h-26.438V222h-7.75v-91h29.563c9.708 0 17.292 2.354 22.75 7.062 5.458 4.709 8.187 11.292 8.187 19.75 0 5.834-1.708 10.98-5.124 15.438-3.417 4.458-8 7.542-13.75 9.25l22.75 38.688V222H662.5l-22-37.875Zm-26.438-6.563h23.563c6.458 0 11.646-1.833 15.563-5.5 3.916-3.666 5.874-8.416 5.874-14.25 0-6.416-2.041-11.395-6.124-14.937-4.084-3.542-9.813-5.313-17.188-5.313h-21.688v40Zm125.188 22.063c0-5.042-1.771-9.021-5.312-11.937-3.542-2.959-10.021-5.75-19.438-8.376-9.417-2.666-16.292-5.562-20.625-8.687-6.167-4.417-9.25-10.208-9.25-17.375 0-6.958 2.854-12.604 8.563-16.938 5.75-4.374 13.083-6.562 22-6.562 6.041 0 11.437 1.167 16.187 3.5 4.792 2.333 8.5 5.583 11.125 9.75s3.938 8.812 3.938 13.938h-7.75c0-6.209-2.126-11.188-6.376-14.938-4.25-3.792-9.958-5.688-17.124-5.688-6.959 0-12.5 1.563-16.626 4.688-4.124 3.083-6.187 7.125-6.187 12.125 0 4.625 1.854 8.396 5.563 11.313 3.708 2.916 9.645 5.5 17.812 7.75 8.167 2.208 14.354 4.52 18.562 6.937 4.209 2.375 7.376 5.229 9.5 8.563 2.126 3.333 3.188 7.27 3.188 11.812 0 7.167-2.875 12.917-8.625 17.25-5.708 4.333-13.25 6.5-22.625 6.5-6.417 0-12.312-1.146-17.688-3.438-5.333-2.291-9.395-5.5-12.187-9.624-2.75-4.126-4.125-8.855-4.125-14.188h7.688c0 6.417 2.395 11.479 7.187 15.188 4.792 3.708 11.167 5.562 19.125 5.562 7.083 0 12.771-1.562 17.062-4.688 4.292-3.124 6.438-7.27 6.438-12.437ZM773.812 131l33.563 80.312L841.062 131h10.25v91h-7.687v-39.625l.625-40.625L810.375 222h-5.937l-33.75-79.938.624 40.063V222h-7.687v-91h10.187ZM407.627 289.453l13.11 31.372 13.159-31.372h4.004V325h-3.003v-15.479l.245-15.869L421.909 325h-2.319l-13.184-31.226.244 15.65V325h-3.003v-35.547h3.98Zm36.987 21.948c0-2.539.489-4.825 1.465-6.86.993-2.034 2.385-3.613 4.175-4.736 1.807-1.14 3.849-1.709 6.128-1.709 3.515 0 6.364 1.237 8.545 3.711 2.181 2.457 3.271 5.721 3.271 9.79v.61c0 2.555-.496 4.858-1.489 6.909-.977 2.035-2.36 3.605-4.15 4.712-1.791 1.107-3.833 1.66-6.128 1.66-3.5 0-6.348-1.229-8.545-3.686-2.181-2.474-3.272-5.746-3.272-9.815v-.586Zm2.93.806c0 3.158.814 5.754 2.441 7.788 1.644 2.018 3.793 3.027 6.446 3.027 2.636 0 4.769-1.009 6.396-3.027 1.644-2.034 2.466-4.712 2.466-8.032v-.562c0-2.018-.374-3.865-1.123-5.542-.749-1.676-1.799-2.97-3.149-3.881-1.351-.928-2.898-1.392-4.639-1.392-2.604 0-4.728 1.025-6.372 3.076-1.644 2.035-2.466 4.704-2.466 8.008v.537Zm25.537-.659c0-4.102.912-7.365 2.734-9.79 1.84-2.442 4.33-3.662 7.471-3.662 3.565 0 6.283 1.408 8.154 4.223V287.5h2.906V325h-2.735l-.122-3.516c-1.871 2.67-4.622 4.004-8.252 4.004-3.043 0-5.501-1.22-7.373-3.662-1.855-2.458-2.783-5.77-2.783-9.936v-.342Zm2.954.513c0 3.369.676 6.03 2.027 7.983 1.35 1.937 3.255 2.905 5.712 2.905 3.597 0 6.153-1.587 7.666-4.761v-12.402c-1.513-3.434-4.052-5.151-7.617-5.151-2.457 0-4.37.968-5.737 2.905-1.367 1.921-2.051 4.761-2.051 8.521Zm36.231 13.427c-2.246 0-4.281-.553-6.104-1.66-1.807-1.107-3.214-2.645-4.224-4.614-1.009-1.986-1.513-4.207-1.513-6.665v-1.05c0-2.539.488-4.826 1.465-6.86.992-2.035 2.368-3.63 4.126-4.785 1.757-1.172 3.662-1.758 5.713-1.758 3.206 0 5.745 1.098 7.617 3.296 1.888 2.181 2.832 5.167 2.832 8.96v1.635H503.33v.562c0 2.995.855 5.493 2.564 7.495 1.725 1.986 3.89 2.978 6.494 2.978 1.562 0 2.938-.284 4.126-.854 1.204-.57 2.295-1.481 3.271-2.734l1.831 1.391c-2.148 3.109-5.265 4.663-9.35 4.663Zm-.537-24.902c-2.198 0-4.053.806-5.567 2.417-1.497 1.611-2.409 3.776-2.734 6.494h15.844v-.317c-.081-2.539-.805-4.606-2.172-6.201-1.368-1.596-3.158-2.393-5.371-2.393Zm28.344.488a10.895 10.895 0 0 0-1.977-.171c-1.823 0-3.369.513-4.639 1.538-1.253 1.01-2.148 2.483-2.686 4.419V325h-2.905v-26.416h2.857l.048 4.199c1.547-3.125 4.029-4.687 7.447-4.687.814 0 1.456.105 1.928.317l-.073 2.661ZM560.41 325c-.293-.83-.48-2.059-.561-3.687-1.026 1.335-2.336 2.369-3.931 3.101a12.035 12.035 0 0 1-5.029 1.074c-2.539 0-4.598-.708-6.177-2.124-1.563-1.416-2.344-3.206-2.344-5.371 0-2.571 1.066-4.606 3.198-6.103 2.149-1.498 5.135-2.246 8.96-2.246h5.298v-3.003c0-1.888-.586-3.37-1.758-4.444-1.155-1.09-2.848-1.635-5.078-1.635-2.034 0-3.719.52-5.053 1.562-1.335 1.042-2.002 2.295-2.002 3.76l-2.93-.025c0-2.099.976-3.914 2.93-5.444 1.953-1.546 4.353-2.319 7.202-2.319 2.946 0 5.265.74 6.958 2.221 1.709 1.465 2.588 3.516 2.636 6.153v12.5c0 2.555.269 4.468.806 5.737V325h-3.125Zm-9.18-2.1c1.954 0 3.695-.472 5.225-1.416 1.546-.944 2.669-2.205 3.369-3.784v-5.81H554.6c-2.914.032-5.192.569-6.836 1.611-1.644 1.025-2.466 2.441-2.466 4.248 0 1.481.545 2.71 1.636 3.687 1.106.976 2.539 1.464 4.296 1.464Zm23.853-31.079v6.763h5.469v2.393h-5.469v17.602c0 1.465.26 2.555.781 3.272.537.716 1.424 1.074 2.661 1.074.489 0 1.278-.082 2.369-.244l.122 2.392c-.765.277-1.807.415-3.125.415-2.002 0-3.459-.578-4.37-1.733-.912-1.172-1.368-2.889-1.368-5.151v-17.627h-4.858v-2.393h4.858v-6.763h2.93ZM589.878 325h-2.93v-26.416h2.93V325Zm-3.442-34.058c0-.553.179-1.017.537-1.391.358-.391.846-.586 1.465-.586.618 0 1.106.195 1.464.586.375.374.562.838.562 1.391 0 .554-.187 1.018-.562 1.392-.358.374-.846.562-1.464.562-.619 0-1.107-.188-1.465-.562-.358-.374-.537-.838-.537-1.392Zm9.79 20.459c0-2.539.488-4.825 1.464-6.86.993-2.034 2.385-3.613 4.175-4.736 1.807-1.14 3.85-1.709 6.128-1.709 3.516 0 6.364 1.237 8.545 3.711 2.181 2.457 3.272 5.721 3.272 9.79v.61c0 2.555-.497 4.858-1.49 6.909-.976 2.035-2.36 3.605-4.15 4.712-1.79 1.107-3.833 1.66-6.128 1.66-3.499 0-6.348-1.229-8.545-3.686-2.181-2.474-3.271-5.746-3.271-9.815v-.586Zm2.929.806c0 3.158.814 5.754 2.442 7.788 1.644 2.018 3.792 3.027 6.445 3.027 2.637 0 4.769-1.009 6.396-3.027 1.644-2.034 2.466-4.712 2.466-8.032v-.562c0-2.018-.374-3.865-1.123-5.542-.748-1.676-1.798-2.97-3.149-3.881-1.351-.928-2.897-1.392-4.639-1.392-2.604 0-4.728 1.025-6.372 3.076-1.644 2.035-2.466 4.704-2.466 8.008v.537Zm29.492-13.623.098 4.517c.993-1.628 2.23-2.865 3.711-3.711 1.481-.863 3.117-1.294 4.907-1.294 2.832 0 4.94.797 6.324 2.392 1.383 1.595 2.083 3.988 2.099 7.178V325h-2.905v-17.358c-.016-2.36-.521-4.118-1.514-5.274-.976-1.155-2.547-1.733-4.712-1.733-1.806 0-3.41.569-4.809 1.709-1.384 1.123-2.409 2.645-3.076 4.565V325h-2.906v-26.416h2.783Zm50.831 11.621H669.15V325h-3.027v-35.547h11.548c3.792 0 6.754.92 8.887 2.759 2.132 1.839 3.198 4.411 3.198 7.715 0 2.278-.667 4.288-2.002 6.03-1.335 1.742-3.125 2.946-5.371 3.613l8.887 15.113V325h-3.199l-8.593-14.795Zm-10.328-2.563h9.204c2.523 0 4.55-.717 6.08-2.149 1.53-1.432 2.295-3.288 2.295-5.566 0-2.507-.798-4.452-2.393-5.835-1.595-1.384-3.833-2.075-6.714-2.075h-8.472v15.625Zm38.33 17.846c-2.246 0-4.28-.553-6.103-1.66-1.807-1.107-3.215-2.645-4.224-4.614-1.009-1.986-1.513-4.207-1.513-6.665v-1.05c0-2.539.488-4.826 1.464-6.86.993-2.035 2.369-3.63 4.126-4.785 1.758-1.172 3.663-1.758 5.713-1.758 3.207 0 5.746 1.098 7.618 3.296 1.888 2.181 2.832 5.167 2.832 8.96v1.635h-18.848v.562c0 2.995.854 5.493 2.563 7.495 1.726 1.986 3.89 2.978 6.495 2.978 1.562 0 2.937-.284 4.126-.854 1.204-.57 2.294-1.481 3.271-2.734l1.831 1.391c-2.148 3.109-5.265 4.663-9.351 4.663Zm-.537-24.902c-2.197 0-4.052.806-5.566 2.417-1.497 1.611-2.409 3.776-2.734 6.494h15.844v-.317c-.081-2.539-.805-4.606-2.173-6.201-1.367-1.596-3.157-2.393-5.371-2.393Zm14.966 10.962c0-4.102.912-7.365 2.735-9.79 1.839-2.442 4.329-3.662 7.47-3.662 3.565 0 6.283 1.408 8.155 4.223V287.5h2.905V325h-2.735l-.122-3.516c-1.871 2.67-4.622 4.004-8.252 4.004-3.043 0-5.501-1.22-7.373-3.662-1.855-2.458-2.783-5.77-2.783-9.936v-.342Zm2.954.513c0 3.369.676 6.03 2.027 7.983 1.351 1.937 3.255 2.905 5.713 2.905 3.597 0 6.152-1.587 7.666-4.761v-12.402c-1.514-3.434-4.053-5.151-7.618-5.151-2.457 0-4.37.968-5.737 2.905-1.367 1.921-2.051 4.761-2.051 8.521Zm36.231 13.427c-2.246 0-4.281-.553-6.104-1.66-1.806-1.107-3.214-2.645-4.223-4.614-1.01-1.986-1.514-4.207-1.514-6.665v-1.05c0-2.539.488-4.826 1.465-6.86.993-2.035 2.368-3.63 4.126-4.785 1.758-1.172 3.662-1.758 5.713-1.758 3.206 0 5.745 1.098 7.617 3.296 1.888 2.181 2.832 5.167 2.832 8.96v1.635h-18.848v.562c0 2.995.855 5.493 2.564 7.495 1.725 1.986 3.89 2.978 6.494 2.978 1.562 0 2.938-.284 4.126-.854 1.204-.57 2.295-1.481 3.271-2.734l1.831 1.391c-2.148 3.109-5.265 4.663-9.35 4.663Zm-.537-24.902c-2.198 0-4.053.806-5.567 2.417-1.497 1.611-2.409 3.776-2.734 6.494h15.845v-.317c-.082-2.539-.806-4.606-2.173-6.201-1.367-1.596-3.158-2.393-5.371-2.393ZM778.452 325v-24.023h-4.394v-2.393h4.394v-2.71c0-2.816.765-4.997 2.295-6.543 1.53-1.562 3.687-2.344 6.47-2.344 2.181 0 4.427.48 6.738 1.441l-.488 2.514c-1.986-.862-4.004-1.294-6.055-1.294-4.02 0-6.03 2.092-6.03 6.275v2.661h6.177v2.393h-6.177V325h-2.93Zm17.09 0h-2.93v-26.416h2.93V325Zm10.791-26.416.098 4.517c.993-1.628 2.229-2.865 3.711-3.711 1.481-.863 3.116-1.294 4.907-1.294 2.832 0 4.94.797 6.323 2.392 1.384 1.595 2.083 3.988 2.1 7.178V325h-2.906v-17.358c-.016-2.36-.52-4.118-1.513-5.274-.977-1.155-2.547-1.733-4.712-1.733-1.807 0-3.41.569-4.81 1.709-1.383 1.123-2.409 2.645-3.076 4.565V325h-2.905v-26.416h2.783Zm34.937 26.904c-2.247 0-4.281-.553-6.104-1.66-1.807-1.107-3.215-2.645-4.224-4.614-1.009-1.986-1.513-4.207-1.513-6.665v-1.05c0-2.539.488-4.826 1.465-6.86.992-2.035 2.368-3.63 4.126-4.785 1.757-1.172 3.662-1.758 5.712-1.758 3.207 0 5.746 1.098 7.618 3.296 1.888 2.181 2.832 5.167 2.832 8.96v1.635h-18.848v.562c0 2.995.854 5.493 2.563 7.495 1.726 1.986 3.89 2.978 6.495 2.978 1.562 0 2.937-.284 4.126-.854 1.204-.57 2.294-1.481 3.271-2.734l1.831 1.391c-2.148 3.109-5.265 4.663-9.35 4.663Zm-.538-24.902c-2.197 0-4.052.806-5.566 2.417-1.497 1.611-2.409 3.776-2.734 6.494h15.844v-.317c-.081-2.539-.805-4.606-2.172-6.201-1.368-1.596-3.158-2.393-5.372-2.393Zm14.966 10.962c0-4.102.912-7.365 2.735-9.79 1.839-2.442 4.329-3.662 7.47-3.662 3.565 0 6.283 1.408 8.155 4.223V287.5h2.905V325h-2.734l-.123-3.516c-1.871 2.67-4.622 4.004-8.252 4.004-3.043 0-5.501-1.22-7.373-3.662-1.855-2.458-2.783-5.77-2.783-9.936v-.342Zm2.954.513c0 3.369.676 6.03 2.027 7.983 1.351 1.937 3.255 2.905 5.713 2.905 3.597 0 6.152-1.587 7.666-4.761v-12.402c-1.514-3.434-4.053-5.151-7.618-5.151-2.457 0-4.37.968-5.737 2.905-1.367 1.921-2.051 4.761-2.051 8.521ZM873 529v-22.75h6.719c2.437 0 4.286.505 5.547 1.516 1.26 1 1.89 2.479 1.89 4.437 0 1.177-.323 2.203-.968 3.078-.636.865-1.511 1.485-2.626 1.86 1.323.291 2.386.942 3.188 1.953.812 1.01 1.219 2.177 1.219 3.5 0 2.01-.651 3.583-1.953 4.718-1.292 1.126-3.094 1.688-5.407 1.688H873Zm1.922-10.938v9.313h5.766c1.645 0 2.947-.417 3.906-1.25.968-.844 1.453-2.01 1.453-3.5 0-1.406-.464-2.516-1.391-3.328-.916-.823-2.187-1.235-3.812-1.235h-5.922Zm0-1.609h5.25c1.604-.031 2.844-.406 3.719-1.125.885-.729 1.328-1.786 1.328-3.172 0-1.458-.459-2.531-1.375-3.218-.906-.698-2.282-1.047-4.125-1.047h-4.797v8.562Zm22.625 9.859 4.937-14.218h2.016l-7.219 19.781-.375.875c-.927 2.052-2.359 3.078-4.297 3.078-.448 0-.927-.073-1.437-.219l-.016-1.547.969.094c.917 0 1.656-.229 2.219-.687.573-.448 1.057-1.224 1.453-2.328l.828-2.282-6.375-16.765h2.047l5.25 14.218Zm34.187-4.406c-.26 2.396-1.119 4.229-2.578 5.5-1.448 1.271-3.38 1.906-5.797 1.906-1.687 0-3.182-.421-4.484-1.265-1.292-.844-2.292-2.037-3-3.578-.708-1.552-1.068-3.323-1.078-5.313v-2.953c0-2.021.354-3.812 1.062-5.375.709-1.562 1.724-2.766 3.047-3.609 1.334-.854 2.865-1.281 4.594-1.281 2.438 0 4.359.661 5.766 1.984 1.416 1.312 2.239 3.13 2.468 5.453h-1.937c-.479-3.865-2.578-5.797-6.297-5.797-2.062 0-3.708.771-4.938 2.313-1.218 1.541-1.828 3.671-1.828 6.39v2.781c0 2.626.594 4.719 1.782 6.282 1.198 1.562 2.812 2.344 4.843 2.344 2.011 0 3.526-.48 4.547-1.438 1.021-.969 1.651-2.417 1.891-4.344h1.937Zm6.328 7.094h-1.874v-24h1.874v24Zm7.188 0h-1.875v-16.906h1.875V529Zm-2.203-21.797c0-.354.114-.651.344-.891.229-.25.541-.374.937-.374s.708.124.938.374c.239.24.359.537.359.891s-.12.651-.359.891c-.23.239-.542.359-.938.359-.396 0-.708-.12-.937-.359a1.237 1.237 0 0 1-.344-.891Zm13.547 20.531c1.302 0 2.39-.364 3.265-1.093.886-.74 1.365-1.693 1.438-2.86h1.797a5.332 5.332 0 0 1-.969 2.828c-.594.844-1.385 1.506-2.375 1.985a7.085 7.085 0 0 1-3.156.718c-2.219 0-3.979-.77-5.282-2.312-1.291-1.542-1.937-3.615-1.937-6.219v-.562c0-1.667.292-3.141.875-4.422.583-1.281 1.417-2.271 2.5-2.969 1.094-.698 2.37-1.047 3.828-1.047 1.854 0 3.38.552 4.578 1.657 1.209 1.104 1.854 2.557 1.938 4.359h-1.797c-.083-1.323-.563-2.391-1.438-3.203-.864-.813-1.958-1.219-3.281-1.219-1.687 0-3 .609-3.937 1.828-.927 1.219-1.391 2.927-1.391 5.125v.547c0 2.156.464 3.839 1.391 5.047.937 1.208 2.255 1.812 3.953 1.812Zm14.265-7.25-2.14 2.063V529h-1.875v-24h1.875v15.359l1.765-1.906 6.469-6.359h2.359l-7.171 7.125 7.797 9.781h-2.235l-6.844-8.516Zm21.797 4.219c0-.927-.375-1.672-1.125-2.234-.739-.563-1.859-1-3.359-1.313-1.5-.323-2.667-.687-3.5-1.094-.823-.416-1.438-.921-1.844-1.515-.396-.594-.594-1.313-.594-2.156 0-1.334.558-2.433 1.672-3.297 1.115-.875 2.542-1.313 4.282-1.313 1.885 0 3.395.469 4.531 1.407 1.146.927 1.719 2.14 1.719 3.64h-1.876c0-.989-.416-1.812-1.25-2.469-.822-.656-1.864-.984-3.124-.984-1.23 0-2.219.276-2.969.828-.74.542-1.11 1.25-1.11 2.125 0 .844.308 1.5.922 1.969.625.458 1.755.88 3.391 1.265 1.646.386 2.875.797 3.687 1.235.823.437 1.433.963 1.829 1.578.395.615.593 1.359.593 2.234 0 1.427-.578 2.568-1.734 3.422-1.146.854-2.646 1.281-4.5 1.281-1.969 0-3.568-.473-4.797-1.421-1.219-.959-1.828-2.167-1.828-3.625h1.875c.073 1.093.531 1.948 1.375 2.562.854.604 1.979.906 3.375.906 1.302 0 2.354-.286 3.156-.859s1.203-1.297 1.203-2.172Zm9.074-18.453 8.39 20.078 8.43-20.078h2.56V529h-1.92v-9.906l.15-10.156-8.46 20.062h-1.49l-8.44-19.984.16 10.015V529h-1.922v-22.75h2.542Zm26.8 22.75h-1.87v-16.906h1.87V529Zm-2.2-21.797c0-.354.11-.651.34-.891.23-.25.54-.374.94-.374.4 0 .71.124.94.374.24.24.36.537.36.891s-.12.651-.36.891c-.23.239-.54.359-.94.359-.4 0-.71-.12-.94-.359-.23-.24-.34-.537-.34-.891Zm9.08 4.891.06 2.89c.63-1.041 1.43-1.833 2.37-2.375.95-.552 2-.828 3.14-.828 1.82 0 3.17.511 4.05 1.531.89 1.021 1.33 2.553 1.35 4.594V529h-1.86v-11.109c-.01-1.511-.34-2.636-.97-3.375-.63-.74-1.63-1.11-3.02-1.11-1.15 0-2.18.365-3.08 1.094-.88.719-1.54 1.693-1.97 2.922V529h-1.86v-16.906h1.79Zm26.68 14.765c-1.12 1.636-2.92 2.453-5.39 2.453-1.8 0-3.17-.52-4.11-1.562-.93-1.052-1.41-2.604-1.43-4.656v-11h1.86v10.765c0 3.219 1.3 4.829 3.9 4.829 2.71 0 4.42-1.12 5.14-3.36v-12.234h1.88V529h-1.82l-.03-2.141Zm9.63-19.093v4.328h3.5v1.531h-3.5v11.266c0 .937.17 1.635.5 2.093.34.459.91.688 1.7.688.31 0 .82-.052 1.52-.156l.08 1.531c-.49.177-1.16.265-2 .265-1.29 0-2.22-.369-2.8-1.109-.58-.75-.88-1.849-.88-3.297v-11.281h-3.11v-1.531h3.11v-4.328h1.88Zm13.92 21.546c-1.44 0-2.74-.354-3.91-1.062-1.15-.708-2.05-1.693-2.7-2.953-.64-1.271-.97-2.693-.97-4.266v-.672c0-1.625.32-3.088.94-4.39.64-1.302 1.52-2.323 2.64-3.063 1.13-.75 2.34-1.125 3.66-1.125 2.05 0 3.67.703 4.87 2.11 1.21 1.395 1.81 3.307 1.81 5.734v1.047h-12.06v.359c0 1.917.55 3.516 1.64 4.797 1.11 1.271 2.49 1.906 4.16 1.906 1 0 1.88-.182 2.64-.546.77-.365 1.47-.948 2.09-1.75l1.17.89c-1.37 1.99-3.36 2.984-5.98 2.984Zm-.34-15.937c-1.41 0-2.6.516-3.57 1.547-.95 1.031-1.54 2.417-1.75 4.156h10.14v-.203c-.05-1.625-.51-2.948-1.39-3.969-.87-1.021-2.02-1.531-3.43-1.531Zm12.68 6.359V529h-1.92v-22.75h7.75c2.37 0 4.23.604 5.6 1.812 1.37 1.209 2.06 2.87 2.06 4.985 0 2.135-.66 3.786-1.99 4.953-1.31 1.156-3.21 1.734-5.71 1.734h-5.79Zm0-1.625h5.83c1.87 0 3.29-.442 4.27-1.328.98-.885 1.47-2.12 1.47-3.703 0-1.573-.49-2.823-1.47-3.75-.97-.937-2.35-1.417-4.14-1.437h-5.96v10.218Zm23.69 11.203c-1.44 0-2.74-.354-3.9-1.062-1.16-.708-2.06-1.693-2.71-2.953-.64-1.271-.97-2.693-.97-4.266v-.672c0-1.625.32-3.088.94-4.39.64-1.302 1.52-2.323 2.64-3.063 1.13-.75 2.35-1.125 3.66-1.125 2.05 0 3.68.703 4.87 2.11 1.21 1.395 1.82 3.307 1.82 5.734v1.047h-12.07v.359c0 1.917.55 3.516 1.64 4.797 1.11 1.271 2.49 1.906 4.16 1.906 1 0 1.88-.182 2.64-.546.77-.365 1.47-.948 2.09-1.75l1.18.89c-1.38 1.99-3.37 2.984-5.99 2.984Zm-.34-15.937c-1.41 0-2.6.516-3.56 1.547s-1.55 2.417-1.75 4.156h10.14v-.203c-.06-1.625-.52-2.948-1.39-3.969-.88-1.021-2.03-1.531-3.44-1.531Zm18.14.313a7.04 7.04 0 0 0-1.27-.11c-1.16 0-2.15.328-2.97.984-.8.646-1.37 1.589-1.71 2.829V529h-1.86v-16.906h1.82l.04 2.687c.99-2 2.57-3 4.76-3 .52 0 .93.068 1.24.203l-.05 1.704ZM144.797 519.734V529h-1.922v-22.75h7.75c2.365 0 4.229.604 5.594 1.812 1.375 1.209 2.062 2.87 2.062 4.985 0 2.135-.661 3.786-1.984 4.953-1.313 1.156-3.219 1.734-5.719 1.734h-5.781Zm0-1.625h5.828c1.865 0 3.286-.442 4.266-1.328.979-.885 1.468-2.12 1.468-3.703 0-1.573-.489-2.823-1.468-3.75-.969-.937-2.349-1.417-4.141-1.437h-5.953v10.218Zm25.172-4.421a6.98 6.98 0 0 0-1.266-.11c-1.167 0-2.156.328-2.969.984-.802.646-1.375 1.589-1.718 2.829V529h-1.86v-16.906h1.828l.032 2.687c.989-2 2.578-3 4.765-3 .521 0 .933.068 1.235.203l-.047 1.704Zm1.625 6.609c0-1.625.312-3.089.937-4.391.636-1.302 1.526-2.312 2.672-3.031 1.156-.729 2.464-1.094 3.922-1.094 2.25 0 4.073.792 5.469 2.375 1.396 1.573 2.094 3.662 2.094 6.266v.39c0 1.636-.318 3.11-.954 4.422-.625 1.302-1.51 2.308-2.656 3.016-1.146.708-2.453 1.062-3.922 1.062-2.239 0-4.062-.786-5.468-2.359-1.396-1.583-2.094-3.677-2.094-6.281v-.375Zm1.875.515c0 2.021.521 3.683 1.562 4.985 1.052 1.292 2.427 1.937 4.125 1.937 1.688 0 3.052-.645 4.094-1.937 1.052-1.302 1.578-3.016 1.578-5.141v-.359c0-1.292-.239-2.474-.719-3.547-.479-1.073-1.151-1.901-2.015-2.484-.865-.594-1.854-.891-2.969-.891-1.667 0-3.026.656-4.078 1.969-1.052 1.302-1.578 3.01-1.578 5.125v.343Zm16.343-.421c0-2.646.584-4.74 1.75-6.282 1.178-1.552 2.771-2.328 4.782-2.328 2.302 0 4.052.917 5.25 2.75l.094-2.437h1.75v16.562c0 2.177-.61 3.901-1.829 5.172-1.218 1.271-2.869 1.906-4.953 1.906a7.514 7.514 0 0 1-3.375-.796c-1.062-.521-1.901-1.219-2.515-2.094l1.046-1.125c1.323 1.625 2.896 2.437 4.719 2.437 1.563 0 2.781-.463 3.657-1.39.874-.917 1.328-2.193 1.359-3.828v-2.126c-1.198 1.667-2.943 2.5-5.235 2.5-1.958 0-3.531-.781-4.718-2.343-1.188-1.563-1.782-3.672-1.782-6.328v-.25Zm1.891.328c0 2.156.432 3.859 1.297 5.109.865 1.24 2.083 1.86 3.656 1.86 2.302 0 3.933-1.032 4.891-3.094v-7.86c-.438-1.083-1.068-1.906-1.891-2.468-.823-.573-1.812-.86-2.968-.86-1.573 0-2.797.62-3.672 1.86-.875 1.229-1.313 3.046-1.313 5.453Zm24.422-7.031a6.98 6.98 0 0 0-1.266-.11c-1.166 0-2.156.328-2.968.984-.802.646-1.375 1.589-1.719 2.829V529h-1.86v-16.906h1.829l.031 2.687c.989-2 2.578-3 4.766-3 .52 0 .932.068 1.234.203l-.047 1.704ZM229.141 529c-.188-.531-.308-1.318-.36-2.359a6.58 6.58 0 0 1-2.515 1.984 7.71 7.71 0 0 1-3.219.687c-1.625 0-2.943-.453-3.953-1.359-1-.906-1.5-2.052-1.5-3.437 0-1.646.682-2.948 2.047-3.907 1.375-.958 3.286-1.437 5.734-1.437h3.391v-1.922c0-1.208-.375-2.156-1.125-2.844-.74-.698-1.823-1.047-3.25-1.047-1.302 0-2.381.334-3.235 1-.854.667-1.281 1.469-1.281 2.407L218 516.75c0-1.344.625-2.505 1.875-3.484 1.25-.99 2.786-1.485 4.609-1.485 1.886 0 3.37.474 4.454 1.422 1.093.938 1.656 2.25 1.687 3.938v8c0 1.635.172 2.859.516 3.671V529h-2Zm-5.875-1.344c1.25 0 2.364-.302 3.343-.906.99-.604 1.709-1.411 2.157-2.422v-3.719h-3.344c-1.865.021-3.323.365-4.375 1.032-1.052.656-1.578 1.562-1.578 2.718 0 .948.349 1.735 1.047 2.36.708.625 1.625.937 2.75.937Zm14.062-15.562.063 2.75c.625-1.021 1.406-1.787 2.343-2.297.938-.511 1.98-.766 3.125-.766 2.667 0 4.36 1.094 5.079 3.281.604-1.052 1.411-1.859 2.421-2.421 1.011-.573 2.125-.86 3.344-.86 3.625 0 5.474 1.979 5.547 5.938V529h-1.875v-11.141c-.01-1.51-.339-2.63-.984-3.359-.636-.729-1.677-1.094-3.125-1.094-1.344.021-2.48.459-3.407 1.313-.927.843-1.442 1.875-1.547 3.093V529h-1.874v-11.281c-.011-1.448-.355-2.526-1.032-3.235-.666-.718-1.698-1.078-3.094-1.078-1.177 0-2.187.339-3.031 1.016-.843.667-1.469 1.661-1.875 2.984V529h-1.875v-16.906h1.797Zm28.375 0 .063 2.75c.625-1.021 1.406-1.787 2.343-2.297.938-.511 1.98-.766 3.125-.766 2.667 0 4.36 1.094 5.078 3.281.605-1.052 1.412-1.859 2.422-2.421 1.011-.573 2.125-.86 3.344-.86 3.625 0 5.474 1.979 5.547 5.938V529h-1.875v-11.141c-.01-1.51-.339-2.63-.984-3.359-.636-.729-1.677-1.094-3.125-1.094-1.344.021-2.48.459-3.407 1.313-.927.843-1.442 1.875-1.546 3.093V529h-1.876v-11.281c-.01-1.448-.354-2.526-1.031-3.235-.666-.718-1.698-1.078-3.093-1.078-1.178 0-2.188.339-3.032 1.016-.844.667-1.468 1.661-1.875 2.984V529h-1.875v-16.906h1.797Zm33.219 17.218c-1.438 0-2.74-.354-3.906-1.062-1.157-.708-2.058-1.693-2.704-2.953-.645-1.271-.968-2.693-.968-4.266v-.672c0-1.625.312-3.088.937-4.39.636-1.302 1.516-2.323 2.641-3.063 1.125-.75 2.344-1.125 3.656-1.125 2.052 0 3.677.703 4.875 2.11 1.208 1.395 1.813 3.307 1.813 5.734v1.047h-12.063v.359c0 1.917.547 3.516 1.641 4.797 1.104 1.271 2.489 1.906 4.156 1.906 1 0 1.88-.182 2.641-.546.77-.365 1.468-.948 2.093-1.75l1.172.89c-1.375 1.99-3.37 2.984-5.984 2.984Zm-.344-15.937c-1.406 0-2.594.516-3.562 1.547-.959 1.031-1.542 2.417-1.75 4.156h10.14v-.203c-.052-1.625-.515-2.948-1.39-3.969-.875-1.021-2.021-1.531-3.438-1.531Zm9.578 7.016c0-2.625.584-4.714 1.75-6.266 1.177-1.563 2.771-2.344 4.782-2.344 2.281 0 4.02.901 5.218 2.703V505h1.86v24h-1.75l-.078-2.25c-1.198 1.708-2.959 2.562-5.282 2.562-1.948 0-3.521-.781-4.718-2.343-1.188-1.573-1.782-3.693-1.782-6.36v-.218Zm1.891.328c0 2.156.432 3.859 1.297 5.109.864 1.24 2.083 1.86 3.656 1.86 2.302 0 3.938-1.016 4.906-3.047v-7.938c-.968-2.198-2.594-3.297-4.875-3.297-1.573 0-2.797.62-3.672 1.86-.875 1.229-1.312 3.046-1.312 5.453Zm38.031 0c0 2.635-.583 4.729-1.75 6.281-1.167 1.542-2.734 2.312-4.703 2.312-2.354 0-4.135-.874-5.344-2.624l-.078 2.312h-1.75v-24h1.859v9.547c1.188-1.844 2.948-2.766 5.282-2.766 2 0 3.578.766 4.734 2.297 1.167 1.521 1.75 3.641 1.75 6.36v.281Zm-1.875-.328c0-2.23-.432-3.948-1.297-5.157-.864-1.218-2.083-1.828-3.656-1.828-1.198 0-2.214.297-3.047.891-.833.583-1.463 1.443-1.891 2.578v7.625c.938 2.125 2.594 3.188 4.969 3.188 1.542 0 2.745-.61 3.61-1.829.875-1.218 1.312-3.041 1.312-5.468Zm11.188 5.921 4.937-14.218h2.016l-7.219 19.781-.375.875c-.927 2.052-2.359 3.078-4.297 3.078-.448 0-.927-.073-1.437-.219l-.016-1.547.969.094c.916 0 1.656-.229 2.219-.687.572-.448 1.057-1.224 1.453-2.328l.828-2.282-6.375-16.765h2.047l5.25 14.218Zm9.406 1.563c0-.365.114-.672.344-.922.239-.26.567-.391.984-.391.417 0 .745.131.984.391.24.25.36.557.36.922s-.12.667-.36.906c-.239.229-.567.344-.984.344-.417 0-.745-.115-.984-.344-.23-.239-.344-.541-.344-.906Zm.031-14.422c0-.364.115-.672.344-.922.239-.26.568-.39.984-.39.417 0 .745.13.985.39.239.25.359.558.359.922 0 .365-.12.667-.359.906-.24.23-.568.344-.985.344-.416 0-.745-.114-.984-.344-.229-.239-.344-.541-.344-.906Zm17.281 6.281V529h-1.921v-22.75h7.75c2.364 0 4.229.604 5.593 1.812 1.375 1.209 2.063 2.87 2.063 4.985 0 2.135-.662 3.786-1.985 4.953-1.312 1.156-3.218 1.734-5.718 1.734h-5.782Zm0-1.625h5.829c1.864 0 3.286-.442 4.265-1.328.979-.885 1.469-2.12 1.469-3.703 0-1.573-.49-2.823-1.469-3.75-.969-.937-2.349-1.417-4.141-1.437h-5.953v10.218ZM403.562 529h-1.874v-16.906h1.874V529Zm-2.203-21.797c0-.354.115-.651.344-.891.229-.25.542-.374.938-.374.395 0 .708.124.937.374.24.24.36.537.36.891s-.12.651-.36.891c-.229.239-.542.359-.937.359-.396 0-.709-.12-.938-.359a1.241 1.241 0 0 1-.344-.891Zm9.079 4.891.062 2.89c.635-1.041 1.427-1.833 2.375-2.375.948-.552 1.995-.828 3.141-.828 1.812 0 3.161.511 4.046 1.531.886 1.021 1.334 2.553 1.344 4.594V529h-1.859v-11.109c-.011-1.511-.333-2.636-.969-3.375-.625-.74-1.63-1.11-3.016-1.11a4.74 4.74 0 0 0-3.078 1.094c-.885.719-1.541 1.693-1.968 2.922V529h-1.86v-16.906h1.782Zm22.359 17.218c-1.438 0-2.74-.354-3.906-1.062-1.157-.708-2.058-1.693-2.703-2.953-.646-1.271-.969-2.693-.969-4.266v-.672c0-1.625.312-3.088.937-4.39.636-1.302 1.516-2.323 2.641-3.063 1.125-.75 2.344-1.125 3.656-1.125 2.052 0 3.677.703 4.875 2.11 1.208 1.395 1.813 3.307 1.813 5.734v1.047h-12.063v.359c0 1.917.547 3.516 1.641 4.797 1.104 1.271 2.489 1.906 4.156 1.906 1 0 1.88-.182 2.641-.546.77-.365 1.468-.948 2.093-1.75l1.172.89c-1.375 1.99-3.37 2.984-5.984 2.984Zm-.344-15.937c-1.406 0-2.594.516-3.562 1.547-.959 1.031-1.542 2.417-1.75 4.156h10.14v-.203c-.052-1.625-.515-2.948-1.39-3.969-.875-1.021-2.021-1.531-3.438-1.531Zm21 15.625c-.187-.531-.307-1.318-.359-2.359a6.576 6.576 0 0 1-2.516 1.984 7.704 7.704 0 0 1-3.219.687c-1.625 0-2.942-.453-3.953-1.359-1-.906-1.5-2.052-1.5-3.437 0-1.646.683-2.948 2.047-3.907 1.375-.958 3.287-1.437 5.735-1.437h3.39v-1.922c0-1.208-.375-2.156-1.125-2.844-.739-.698-1.823-1.047-3.25-1.047-1.302 0-2.38.334-3.234 1-.854.667-1.281 1.469-1.281 2.407l-1.876-.016c0-1.344.626-2.505 1.876-3.484 1.25-.99 2.786-1.485 4.609-1.485 1.885 0 3.37.474 4.453 1.422 1.094.938 1.656 2.25 1.688 3.938v8c0 1.635.171 2.859.515 3.671V529h-2Zm-5.875-1.344c1.25 0 2.365-.302 3.344-.906.989-.604 1.708-1.411 2.156-2.422v-3.719h-3.344c-1.864.021-3.323.365-4.375 1.032-1.052.656-1.578 1.562-1.578 2.718 0 .948.349 1.735 1.047 2.36.708.625 1.625.937 2.75.937Zm25.328-9.281h-10.609V529h-1.922v-22.75h14.094v1.641h-12.172v8.843h10.609v1.641ZM488.078 529c-.187-.531-.307-1.318-.359-2.359a6.583 6.583 0 0 1-2.516 1.984 7.704 7.704 0 0 1-3.219.687c-1.625 0-2.942-.453-3.953-1.359-1-.906-1.5-2.052-1.5-3.437 0-1.646.683-2.948 2.047-3.907 1.375-.958 3.287-1.437 5.734-1.437h3.391v-1.922c0-1.208-.375-2.156-1.125-2.844-.739-.698-1.823-1.047-3.25-1.047-1.302 0-2.38.334-3.234 1-.854.667-1.282 1.469-1.282 2.407l-1.874-.016c0-1.344.624-2.505 1.874-3.484 1.25-.99 2.787-1.485 4.61-1.485 1.885 0 3.37.474 4.453 1.422 1.094.938 1.656 2.25 1.687 3.938v8c0 1.635.172 2.859.516 3.671V529h-2Zm-5.875-1.344c1.25 0 2.365-.302 3.344-.906.989-.604 1.708-1.411 2.156-2.422v-3.719h-3.344c-1.864.021-3.323.365-4.375 1.032-1.052.656-1.578 1.562-1.578 2.718 0 .948.349 1.735 1.047 2.36.708.625 1.625.937 2.75.937Zm14.141-15.562.062 2.89c.636-1.041 1.427-1.833 2.375-2.375.948-.552 1.995-.828 3.141-.828 1.812 0 3.161.511 4.047 1.531.885 1.021 1.333 2.553 1.343 4.594V529h-1.859v-11.109c-.01-1.511-.333-2.636-.969-3.375-.625-.74-1.63-1.11-3.015-1.11a4.737 4.737 0 0 0-3.078 1.094c-.886.719-1.542 1.693-1.969 2.922V529h-1.86v-16.906h1.782Z" fill="#fff"/><defs><linearGradient id="a" x1="0" y1="320" x2="819.2" y2="-294.4" gradientUnits="userSpaceOnUse"><stop stop-color="#F27878"/><stop offset="1" stop-color="#D96B6B"/></linearGradient><linearGradient id="b" x1="0" y1="640" x2="1280" y2="640" gradientUnits="userSpaceOnUse"><stop stop-color="#8D8D8D"/><stop offset="1" stop-color="#424242"/></linearGradient><linearGradient id="d" x1="78" y1="78" x2="1202" y2="562" gradientUnits="userSpaceOnUse"><stop stop-opacity=".9"/><stop offset="1" stop-opacity=".7"/></linearGradient><linearGradient id="e" x1="545" y1="114" x2="417" y2="242" gradientUnits="userSpaceOnUse"><stop stop-color="#F27878"/><stop offset="1" stop-color="#D96B6B"/></linearGradient><filter id="c" x="48" y="48" width="1184" height="544" filterUnits="userSpaceOnUse" color-interpolation-filters="sRGB"><feFlood flood-opacity="0" result="BackgroundImageFix"/><feGaussianBlur in="BackgroundImage" stdDeviation="14"/><feComposite in2="SourceAlpha" operator="in" result="effect1_backgroundBlur_31037603"/><feColorMatrix in="SourceAlpha" values="0 0 0 0 0 0 0 0 0 0 0 0 0 0 0 0 0 0 127 0" result="hardAlpha"/><feMorphology radius="5" operator="dilate" in="SourceAlpha" result="effect2_dropShadow_31037603"/><feOffset/><feGaussianBlur stdDeviation="12.5"/><feComposite in2="hardAlpha" operator="out"/><feColorMatrix values="0 0 0 0 0.258333 0 0 0 0 0.258333 0 0 0 0 0.258333 0 0 0 0.6 0"/><feBlend in2="effect1_backgroundBlur_31037603" result="effect2_dropShadow_31037603"/><feBlend in="SourceGraphic" in2="effect2_dropShadow_31037603" result="shape"/></filter><filter id="f" x="434.812" y="168.25" width="92.313" height="19.938" filterUnits="userSpaceOnUse" color-interpolation-filters="sRGB"><feFlood flood-opacity="0" result="BackgroundImageFix"/><feColorMatrix in="SourceAlpha" values="0 0 0 0 0 0 0 0 0 0 0 0 0 0 0 0 0 0 127 0" result="hardAlpha"/><feOffset dy=".25"/><feGaussianBlur stdDeviation=".125"/><feColorMatrix values="0 0 0 0 0 0 0 0 0 0 0 0 0 0 0 0 0 0 0.25 0"/><feBlend in2="BackgroundImageFix" result="effect1_dropShadow_31037603"/><feBlend in="SourceGraphic" in2="effect1_dropShadow_31037603" result="shape"/></filter></defs></svg>