<svg width="1280" height="640" viewBox="0 0 1280 640" fill="none" xmlns="http://www.w3.org/2000/svg">
<rect width="1280" height="640" rx="40" fill="white"/>
<rect width="1280" height="640" rx="40" fill="url(#paint0_linear_3103:7438)"/>
<path fill-rule="evenodd" clip-rule="evenodd" d="M0 279.713L53 311.713C107 343.713 213 407.713 320 394.713C427 382.713 533 292.713 640 279.713C747 266.713 853 330.713 960 369.713C1067 407.713 1173 420.713 1227 426.713L1280 433.713V640H1227C1173 640 1067 640 960 640C853 640 747 640 640 640C533 640 427 640 320 640C213 640 107 640 53 640H0V279.713Z" fill="url(#paint1_linear_3103:7438)"/>
<g filter="url(#filter0_bd_3103:7438)">
<rect x="78" y="78" width="1124" height="484" rx="40" fill="url(#paint2_linear_3103:7438)" fill-opacity="0.65" shape-rendering="crispEdges"/>
</g>
<rect x="417" y="114" width="128" height="128" rx="64" fill="url(#paint3_linear_3103:7438)"/>
<path fill-rule="evenodd" clip-rule="evenodd" d="M439.125 143.875C436.881 143.875 435.062 145.694 435.062 147.937V159.25C435.062 161.494 436.881 163.313 439.125 163.313H522.812C525.056 163.313 526.875 161.494 526.875 159.25V147.938C526.875 145.694 525.056 143.875 522.812 143.875H439.125ZM517.13 161.562C521.514 161.562 525.067 158.009 525.067 153.625C525.067 149.241 521.514 145.687 517.13 145.687C512.746 145.687 509.192 149.241 509.192 153.625C509.192 158.009 512.746 161.562 517.13 161.562Z" fill="#424242"/>
<g filter="url(#filter1_d_3103:7438)">
<path fill-rule="evenodd" clip-rule="evenodd" d="M439.125 168.25C436.881 168.25 435.062 170.069 435.062 172.312V183.625C435.062 185.869 436.881 187.688 439.125 187.688H522.812C525.056 187.688 526.875 185.869 526.875 183.625V172.313C526.875 170.069 525.056 168.25 522.812 168.25H439.125ZM517.13 185.937C521.514 185.937 525.067 182.383 525.067 178C525.067 173.616 521.514 170.062 517.13 170.062C512.746 170.062 509.192 173.616 509.192 178C509.192 182.383 512.746 185.937 517.13 185.937Z" fill="#424242"/>
</g>
<path fill-rule="evenodd" clip-rule="evenodd" d="M439.125 192.625C436.881 192.625 435.062 194.444 435.062 196.687V208C435.062 210.244 436.881 212.063 439.125 212.063H522.812C525.056 212.063 526.875 210.244 526.875 208V196.688C526.875 194.444 525.056 192.625 522.812 192.625H439.125ZM517.13 210.313C521.514 210.313 525.067 206.759 525.067 202.375C525.067 197.991 521.514 194.438 517.13 194.438C512.746 194.438 509.192 197.991 509.192 202.375C509.192 206.759 512.746 210.313 517.13 210.313Z" fill="#424242"/>
<path d="M640.5 184.125H614.062V222H606.312V131H635.875C645.583 131 653.167 133.354 658.625 138.062C664.083 142.771 666.812 149.354 666.812 157.812C666.812 163.646 665.104 168.792 661.688 173.25C658.271 177.708 653.688 180.792 647.938 182.5L670.688 221.188V222H662.5L640.5 184.125ZM614.062 177.562H637.625C644.083 177.562 649.271 175.729 653.188 172.062C657.104 168.396 659.062 163.646 659.062 157.812C659.062 151.396 657.021 146.417 652.938 142.875C648.854 139.333 643.125 137.562 635.75 137.562H614.062V177.562ZM739.25 199.625C739.25 194.583 737.479 190.604 733.938 187.688C730.396 184.729 723.917 181.938 714.5 179.312C705.083 176.646 698.208 173.75 693.875 170.625C687.708 166.208 684.625 160.417 684.625 153.25C684.625 146.292 687.479 140.646 693.188 136.312C698.938 131.938 706.271 129.75 715.188 129.75C721.229 129.75 726.625 130.917 731.375 133.25C736.167 135.583 739.875 138.833 742.5 143C745.125 147.167 746.438 151.812 746.438 156.938H738.688C738.688 150.729 736.562 145.75 732.312 142C728.062 138.208 722.354 136.312 715.188 136.312C708.229 136.312 702.688 137.875 698.562 141C694.438 144.083 692.375 148.125 692.375 153.125C692.375 157.75 694.229 161.521 697.938 164.438C701.646 167.354 707.583 169.938 715.75 172.188C723.917 174.396 730.104 176.708 734.312 179.125C738.521 181.5 741.688 184.354 743.812 187.688C745.938 191.021 747 194.958 747 199.5C747 206.667 744.125 212.417 738.375 216.75C732.667 221.083 725.125 223.25 715.75 223.25C709.333 223.25 703.438 222.104 698.062 219.812C692.729 217.521 688.667 214.312 685.875 210.188C683.125 206.062 681.75 201.333 681.75 196H689.438C689.438 202.417 691.833 207.479 696.625 211.188C701.417 214.896 707.792 216.75 715.75 216.75C722.833 216.75 728.521 215.188 732.812 212.062C737.104 208.938 739.25 204.792 739.25 199.625ZM773.812 131L807.375 211.312L841.062 131H851.312V222H843.625V182.375L844.25 141.75L810.375 222H804.438L770.688 142.062L771.312 182.125V222H763.625V131H773.812Z" fill="#424242"/>
<path d="M407.627 289.453L420.737 320.825L433.896 289.453H437.9V325H434.897V309.521L435.142 293.652L421.909 325H419.59L406.406 293.774L406.65 309.424V325H403.647V289.453H407.627ZM444.614 311.401C444.614 308.862 445.103 306.576 446.079 304.541C447.072 302.507 448.464 300.928 450.254 299.805C452.061 298.665 454.103 298.096 456.382 298.096C459.897 298.096 462.746 299.333 464.927 301.807C467.108 304.264 468.198 307.528 468.198 311.597V312.207C468.198 314.762 467.702 317.065 466.709 319.116C465.732 321.151 464.349 322.721 462.559 323.828C460.768 324.935 458.726 325.488 456.431 325.488C452.931 325.488 450.083 324.259 447.886 321.802C445.705 319.328 444.614 316.056 444.614 311.987V311.401ZM447.544 312.207C447.544 315.365 448.358 317.961 449.985 319.995C451.629 322.013 453.778 323.022 456.431 323.022C459.067 323.022 461.2 322.013 462.827 319.995C464.471 317.961 465.293 315.283 465.293 311.963V311.401C465.293 309.383 464.919 307.536 464.17 305.859C463.421 304.183 462.371 302.889 461.021 301.978C459.67 301.05 458.123 300.586 456.382 300.586C453.778 300.586 451.654 301.611 450.01 303.662C448.366 305.697 447.544 308.366 447.544 311.67V312.207ZM473.081 311.548C473.081 307.446 473.993 304.183 475.815 301.758C477.655 299.316 480.145 298.096 483.286 298.096C486.851 298.096 489.569 299.504 491.44 302.319V287.5H494.346V325H491.611L491.489 321.484C489.618 324.154 486.867 325.488 483.237 325.488C480.194 325.488 477.736 324.268 475.864 321.826C474.009 319.368 473.081 316.056 473.081 311.89V311.548ZM476.035 312.061C476.035 315.43 476.711 318.091 478.062 320.044C479.412 321.981 481.317 322.949 483.774 322.949C487.371 322.949 489.927 321.362 491.44 318.188V305.786C489.927 302.352 487.388 300.635 483.823 300.635C481.366 300.635 479.453 301.603 478.086 303.54C476.719 305.461 476.035 308.301 476.035 312.061ZM512.266 325.488C510.02 325.488 507.985 324.935 506.162 323.828C504.355 322.721 502.948 321.183 501.938 319.214C500.929 317.228 500.425 315.007 500.425 312.549V311.499C500.425 308.96 500.913 306.673 501.89 304.639C502.882 302.604 504.258 301.009 506.016 299.854C507.773 298.682 509.678 298.096 511.729 298.096C514.935 298.096 517.474 299.194 519.346 301.392C521.234 303.573 522.178 306.559 522.178 310.352V311.987H503.33V312.549C503.33 315.544 504.185 318.042 505.894 320.044C507.619 322.03 509.784 323.022 512.388 323.022C513.95 323.022 515.326 322.738 516.514 322.168C517.718 321.598 518.809 320.687 519.785 319.434L521.616 320.825C519.468 323.934 516.351 325.488 512.266 325.488ZM511.729 300.586C509.531 300.586 507.676 301.392 506.162 303.003C504.665 304.614 503.753 306.779 503.428 309.497H519.272V309.18C519.191 306.641 518.467 304.574 517.1 302.979C515.732 301.383 513.942 300.586 511.729 300.586ZM540.073 301.074C539.455 300.96 538.796 300.903 538.096 300.903C536.273 300.903 534.727 301.416 533.457 302.441C532.204 303.451 531.309 304.924 530.771 306.86V325H527.866V298.584H530.723L530.771 302.783C532.318 299.658 534.8 298.096 538.218 298.096C539.032 298.096 539.674 298.201 540.146 298.413L540.073 301.074ZM560.41 325C560.117 324.17 559.93 322.941 559.849 321.313C558.823 322.648 557.513 323.682 555.918 324.414C554.339 325.13 552.663 325.488 550.889 325.488C548.35 325.488 546.291 324.78 544.712 323.364C543.149 321.948 542.368 320.158 542.368 317.993C542.368 315.422 543.434 313.387 545.566 311.89C547.715 310.392 550.701 309.644 554.526 309.644H559.824V306.641C559.824 304.753 559.238 303.271 558.066 302.197C556.911 301.107 555.218 300.562 552.988 300.562C550.954 300.562 549.269 301.082 547.935 302.124C546.6 303.166 545.933 304.419 545.933 305.884L543.003 305.859C543.003 303.76 543.979 301.945 545.933 300.415C547.886 298.869 550.286 298.096 553.135 298.096C556.081 298.096 558.4 298.836 560.093 300.317C561.802 301.782 562.681 303.833 562.729 306.47V318.97C562.729 321.525 562.998 323.438 563.535 324.707V325H560.41ZM551.23 322.9C553.184 322.9 554.925 322.428 556.455 321.484C558.001 320.54 559.124 319.279 559.824 317.7V311.89H554.6C551.686 311.922 549.408 312.459 547.764 313.501C546.12 314.526 545.298 315.942 545.298 317.749C545.298 319.23 545.843 320.459 546.934 321.436C548.04 322.412 549.473 322.9 551.23 322.9ZM575.083 291.821V298.584H580.552V300.977H575.083V318.579C575.083 320.044 575.343 321.134 575.864 321.851C576.401 322.567 577.288 322.925 578.525 322.925C579.014 322.925 579.803 322.843 580.894 322.681L581.016 325.073C580.251 325.35 579.209 325.488 577.891 325.488C575.889 325.488 574.432 324.91 573.521 323.755C572.609 322.583 572.153 320.866 572.153 318.604V300.977H567.295V298.584H572.153V291.821H575.083ZM589.878 325H586.948V298.584H589.878V325ZM586.436 290.942C586.436 290.389 586.615 289.925 586.973 289.551C587.331 289.16 587.819 288.965 588.438 288.965C589.056 288.965 589.544 289.16 589.902 289.551C590.277 289.925 590.464 290.389 590.464 290.942C590.464 291.496 590.277 291.96 589.902 292.334C589.544 292.708 589.056 292.896 588.438 292.896C587.819 292.896 587.331 292.708 586.973 292.334C586.615 291.96 586.436 291.496 586.436 290.942ZM596.226 311.401C596.226 308.862 596.714 306.576 597.69 304.541C598.683 302.507 600.075 300.928 601.865 299.805C603.672 298.665 605.715 298.096 607.993 298.096C611.509 298.096 614.357 299.333 616.538 301.807C618.719 304.264 619.81 307.528 619.81 311.597V312.207C619.81 314.762 619.313 317.065 618.32 319.116C617.344 321.151 615.96 322.721 614.17 323.828C612.38 324.935 610.337 325.488 608.042 325.488C604.543 325.488 601.694 324.259 599.497 321.802C597.316 319.328 596.226 316.056 596.226 311.987V311.401ZM599.155 312.207C599.155 315.365 599.969 317.961 601.597 319.995C603.241 322.013 605.389 323.022 608.042 323.022C610.679 323.022 612.811 322.013 614.438 319.995C616.082 317.961 616.904 315.283 616.904 311.963V311.401C616.904 309.383 616.53 307.536 615.781 305.859C615.033 304.183 613.983 302.889 612.632 301.978C611.281 301.05 609.735 300.586 607.993 300.586C605.389 300.586 603.265 301.611 601.621 303.662C599.977 305.697 599.155 308.366 599.155 311.67V312.207ZM628.647 298.584L628.745 303.101C629.738 301.473 630.975 300.236 632.456 299.39C633.937 298.527 635.573 298.096 637.363 298.096C640.195 298.096 642.303 298.893 643.687 300.488C645.07 302.083 645.77 304.476 645.786 307.666V325H642.881V307.642C642.865 305.282 642.36 303.524 641.367 302.368C640.391 301.213 638.82 300.635 636.655 300.635C634.849 300.635 633.245 301.204 631.846 302.344C630.462 303.467 629.437 304.989 628.77 306.909V325H625.864V298.584H628.647ZM679.478 310.205H669.15V325H666.123V289.453H677.671C681.463 289.453 684.425 290.373 686.558 292.212C688.69 294.051 689.756 296.623 689.756 299.927C689.756 302.205 689.089 304.215 687.754 305.957C686.419 307.699 684.629 308.903 682.383 309.57L691.27 324.683V325H688.071L679.478 310.205ZM669.15 307.642H678.354C680.877 307.642 682.904 306.925 684.434 305.493C685.964 304.061 686.729 302.205 686.729 299.927C686.729 297.42 685.931 295.475 684.336 294.092C682.741 292.708 680.503 292.017 677.622 292.017H669.15V307.642ZM707.48 325.488C705.234 325.488 703.2 324.935 701.377 323.828C699.57 322.721 698.162 321.183 697.153 319.214C696.144 317.228 695.64 315.007 695.64 312.549V311.499C695.64 308.96 696.128 306.673 697.104 304.639C698.097 302.604 699.473 301.009 701.23 299.854C702.988 298.682 704.893 298.096 706.943 298.096C710.15 298.096 712.689 299.194 714.561 301.392C716.449 303.573 717.393 306.559 717.393 310.352V311.987H698.545V312.549C698.545 315.544 699.399 318.042 701.108 320.044C702.834 322.03 704.998 323.022 707.603 323.022C709.165 323.022 710.54 322.738 711.729 322.168C712.933 321.598 714.023 320.687 715 319.434L716.831 320.825C714.683 323.934 711.566 325.488 707.48 325.488ZM706.943 300.586C704.746 300.586 702.891 301.392 701.377 303.003C699.88 304.614 698.968 306.779 698.643 309.497H714.487V309.18C714.406 306.641 713.682 304.574 712.314 302.979C710.947 301.383 709.157 300.586 706.943 300.586ZM721.909 311.548C721.909 307.446 722.821 304.183 724.644 301.758C726.483 299.316 728.973 298.096 732.114 298.096C735.679 298.096 738.397 299.504 740.269 302.319V287.5H743.174V325H740.439L740.317 321.484C738.446 324.154 735.695 325.488 732.065 325.488C729.022 325.488 726.564 324.268 724.692 321.826C722.837 319.368 721.909 316.056 721.909 311.89V311.548ZM724.863 312.061C724.863 315.43 725.539 318.091 726.89 320.044C728.241 321.981 730.145 322.949 732.603 322.949C736.2 322.949 738.755 321.362 740.269 318.188V305.786C738.755 302.352 736.216 300.635 732.651 300.635C730.194 300.635 728.281 301.603 726.914 303.54C725.547 305.461 724.863 308.301 724.863 312.061ZM761.094 325.488C758.848 325.488 756.813 324.935 754.99 323.828C753.184 322.721 751.776 321.183 750.767 319.214C749.757 317.228 749.253 315.007 749.253 312.549V311.499C749.253 308.96 749.741 306.673 750.718 304.639C751.711 302.604 753.086 301.009 754.844 299.854C756.602 298.682 758.506 298.096 760.557 298.096C763.763 298.096 766.302 299.194 768.174 301.392C770.062 303.573 771.006 306.559 771.006 310.352V311.987H752.158V312.549C752.158 315.544 753.013 318.042 754.722 320.044C756.447 322.03 758.612 323.022 761.216 323.022C762.778 323.022 764.154 322.738 765.342 322.168C766.546 321.598 767.637 320.687 768.613 319.434L770.444 320.825C768.296 323.934 765.179 325.488 761.094 325.488ZM760.557 300.586C758.359 300.586 756.504 301.392 754.99 303.003C753.493 304.614 752.581 306.779 752.256 309.497H768.101V309.18C768.019 306.641 767.295 304.574 765.928 302.979C764.561 301.383 762.77 300.586 760.557 300.586ZM778.452 325V300.977H774.058V298.584H778.452V295.874C778.452 293.058 779.217 290.877 780.747 289.331C782.277 287.769 784.434 286.987 787.217 286.987C789.398 286.987 791.644 287.467 793.955 288.428L793.467 290.942C791.481 290.08 789.463 289.648 787.412 289.648C783.392 289.648 781.382 291.74 781.382 295.923V298.584H787.559V300.977H781.382V325H778.452ZM795.542 325H792.612V298.584H795.542V325ZM806.333 298.584L806.431 303.101C807.424 301.473 808.66 300.236 810.142 299.39C811.623 298.527 813.258 298.096 815.049 298.096C817.881 298.096 819.989 298.893 821.372 300.488C822.756 302.083 823.455 304.476 823.472 307.666V325H820.566V307.642C820.55 305.282 820.046 303.524 819.053 302.368C818.076 301.213 816.506 300.635 814.341 300.635C812.534 300.635 810.931 301.204 809.531 302.344C808.148 303.467 807.122 304.989 806.455 306.909V325H803.55V298.584H806.333ZM841.27 325.488C839.023 325.488 836.989 324.935 835.166 323.828C833.359 322.721 831.951 321.183 830.942 319.214C829.933 317.228 829.429 315.007 829.429 312.549V311.499C829.429 308.96 829.917 306.673 830.894 304.639C831.886 302.604 833.262 301.009 835.02 299.854C836.777 298.682 838.682 298.096 840.732 298.096C843.939 298.096 846.478 299.194 848.35 301.392C850.238 303.573 851.182 306.559 851.182 310.352V311.987H832.334V312.549C832.334 315.544 833.188 318.042 834.897 320.044C836.623 322.03 838.787 323.022 841.392 323.022C842.954 323.022 844.329 322.738 845.518 322.168C846.722 321.598 847.812 320.687 848.789 319.434L850.62 320.825C848.472 323.934 845.355 325.488 841.27 325.488ZM840.732 300.586C838.535 300.586 836.68 301.392 835.166 303.003C833.669 304.614 832.757 306.779 832.432 309.497H848.276V309.18C848.195 306.641 847.471 304.574 846.104 302.979C844.736 301.383 842.946 300.586 840.732 300.586ZM855.698 311.548C855.698 307.446 856.61 304.183 858.433 301.758C860.272 299.316 862.762 298.096 865.903 298.096C869.468 298.096 872.186 299.504 874.058 302.319V287.5H876.963V325H874.229L874.106 321.484C872.235 324.154 869.484 325.488 865.854 325.488C862.811 325.488 860.353 324.268 858.481 321.826C856.626 319.368 855.698 316.056 855.698 311.89V311.548ZM858.652 312.061C858.652 315.43 859.328 318.091 860.679 320.044C862.03 321.981 863.934 322.949 866.392 322.949C869.989 322.949 872.544 321.362 874.058 318.188V305.786C872.544 302.352 870.005 300.635 866.44 300.635C863.983 300.635 862.07 301.603 860.703 303.54C859.336 305.461 858.652 308.301 858.652 312.061Z" fill="#424242"/>
<path d="M873 529V506.25H879.719C882.156 506.25 884.005 506.755 885.266 507.766C886.526 508.766 887.156 510.245 887.156 512.203C887.156 513.38 886.833 514.406 886.188 515.281C885.552 516.146 884.677 516.766 883.562 517.141C884.885 517.432 885.948 518.083 886.75 519.094C887.562 520.104 887.969 521.271 887.969 522.594C887.969 524.604 887.318 526.177 886.016 527.312C884.724 528.438 882.922 529 880.609 529H873ZM874.922 518.062V527.375H880.688C882.333 527.375 883.635 526.958 884.594 526.125C885.562 525.281 886.047 524.115 886.047 522.625C886.047 521.219 885.583 520.109 884.656 519.297C883.74 518.474 882.469 518.062 880.844 518.062H874.922ZM874.922 516.453H880.172C881.776 516.422 883.016 516.047 883.891 515.328C884.776 514.599 885.219 513.542 885.219 512.156C885.219 510.698 884.76 509.625 883.844 508.938C882.938 508.24 881.562 507.891 879.719 507.891H874.922V516.453ZM897.547 526.312L902.484 512.094H904.5L897.281 531.875L896.906 532.75C895.979 534.802 894.547 535.828 892.609 535.828C892.161 535.828 891.682 535.755 891.172 535.609L891.156 534.062L892.125 534.156C893.042 534.156 893.781 533.927 894.344 533.469C894.917 533.021 895.401 532.245 895.797 531.141L896.625 528.859L890.25 512.094H892.297L897.547 526.312ZM931.734 521.906C931.474 524.302 930.615 526.135 929.156 527.406C927.708 528.677 925.776 529.312 923.359 529.312C921.672 529.312 920.177 528.891 918.875 528.047C917.583 527.203 916.583 526.01 915.875 524.469C915.167 522.917 914.807 521.146 914.797 519.156V516.203C914.797 514.182 915.151 512.391 915.859 510.828C916.568 509.266 917.583 508.062 918.906 507.219C920.24 506.365 921.771 505.938 923.5 505.938C925.938 505.938 927.859 506.599 929.266 507.922C930.682 509.234 931.505 511.052 931.734 513.375H929.797C929.318 509.51 927.219 507.578 923.5 507.578C921.438 507.578 919.792 508.349 918.562 509.891C917.344 511.432 916.734 513.562 916.734 516.281V519.062C916.734 521.688 917.328 523.781 918.516 525.344C919.714 526.906 921.328 527.688 923.359 527.688C925.37 527.688 926.885 527.208 927.906 526.25C928.927 525.281 929.557 523.833 929.797 521.906H931.734ZM938.062 529H936.188V505H938.062V529ZM945.25 529H943.375V512.094H945.25V529ZM943.047 507.203C943.047 506.849 943.161 506.552 943.391 506.312C943.62 506.062 943.932 505.938 944.328 505.938C944.724 505.938 945.036 506.062 945.266 506.312C945.505 506.552 945.625 506.849 945.625 507.203C945.625 507.557 945.505 507.854 945.266 508.094C945.036 508.333 944.724 508.453 944.328 508.453C943.932 508.453 943.62 508.333 943.391 508.094C943.161 507.854 943.047 507.557 943.047 507.203ZM956.594 527.734C957.896 527.734 958.984 527.37 959.859 526.641C960.745 525.901 961.224 524.948 961.297 523.781H963.094C963.042 524.812 962.719 525.755 962.125 526.609C961.531 527.453 960.74 528.115 959.75 528.594C958.771 529.073 957.719 529.312 956.594 529.312C954.375 529.312 952.615 528.542 951.312 527C950.021 525.458 949.375 523.385 949.375 520.781V520.219C949.375 518.552 949.667 517.078 950.25 515.797C950.833 514.516 951.667 513.526 952.75 512.828C953.844 512.13 955.12 511.781 956.578 511.781C958.432 511.781 959.958 512.333 961.156 513.438C962.365 514.542 963.01 515.995 963.094 517.797H961.297C961.214 516.474 960.734 515.406 959.859 514.594C958.995 513.781 957.901 513.375 956.578 513.375C954.891 513.375 953.578 513.984 952.641 515.203C951.714 516.422 951.25 518.13 951.25 520.328V520.875C951.25 523.031 951.714 524.714 952.641 525.922C953.578 527.13 954.896 527.734 956.594 527.734ZM970.859 520.484L968.719 522.547V529H966.844V505H968.719V520.359L970.484 518.453L976.953 512.094H979.312L972.141 519.219L979.938 529H977.703L970.859 520.484ZM992.656 524.703C992.656 523.776 992.281 523.031 991.531 522.469C990.792 521.906 989.672 521.469 988.172 521.156C986.672 520.833 985.505 520.469 984.672 520.062C983.849 519.646 983.234 519.141 982.828 518.547C982.432 517.953 982.234 517.234 982.234 516.391C982.234 515.057 982.792 513.958 983.906 513.094C985.021 512.219 986.448 511.781 988.188 511.781C990.073 511.781 991.583 512.25 992.719 513.188C993.865 514.115 994.438 515.328 994.438 516.828H992.562C992.562 515.839 992.146 515.016 991.312 514.359C990.49 513.703 989.448 513.375 988.188 513.375C986.958 513.375 985.969 513.651 985.219 514.203C984.479 514.745 984.109 515.453 984.109 516.328C984.109 517.172 984.417 517.828 985.031 518.297C985.656 518.755 986.786 519.177 988.422 519.562C990.068 519.948 991.297 520.359 992.109 520.797C992.932 521.234 993.542 521.76 993.938 522.375C994.333 522.99 994.531 523.734 994.531 524.609C994.531 526.036 993.953 527.177 992.797 528.031C991.651 528.885 990.151 529.312 988.297 529.312C986.328 529.312 984.729 528.839 983.5 527.891C982.281 526.932 981.672 525.724 981.672 524.266H983.547C983.62 525.359 984.078 526.214 984.922 526.828C985.776 527.432 986.901 527.734 988.297 527.734C989.599 527.734 990.651 527.448 991.453 526.875C992.255 526.302 992.656 525.578 992.656 524.703ZM1001.73 506.25L1010.12 526.328L1018.55 506.25H1021.11V529H1019.19V519.094L1019.34 508.938L1010.88 529H1009.39L1000.95 509.016L1001.11 519.031V529H999.188V506.25H1001.73ZM1028.53 529H1026.66V512.094H1028.53V529ZM1026.33 507.203C1026.33 506.849 1026.44 506.552 1026.67 506.312C1026.9 506.062 1027.21 505.938 1027.61 505.938C1028.01 505.938 1028.32 506.062 1028.55 506.312C1028.79 506.552 1028.91 506.849 1028.91 507.203C1028.91 507.557 1028.79 507.854 1028.55 508.094C1028.32 508.333 1028.01 508.453 1027.61 508.453C1027.21 508.453 1026.9 508.333 1026.67 508.094C1026.44 507.854 1026.33 507.557 1026.33 507.203ZM1035.41 512.094L1035.47 514.984C1036.1 513.943 1036.9 513.151 1037.84 512.609C1038.79 512.057 1039.84 511.781 1040.98 511.781C1042.8 511.781 1044.15 512.292 1045.03 513.312C1045.92 514.333 1046.36 515.865 1046.38 517.906V529H1044.52V517.891C1044.51 516.38 1044.18 515.255 1043.55 514.516C1042.92 513.776 1041.92 513.406 1040.53 513.406C1039.38 513.406 1038.35 513.771 1037.45 514.5C1036.57 515.219 1035.91 516.193 1035.48 517.422V529H1033.62V512.094H1035.41ZM1062.09 526.859C1060.97 528.495 1059.17 529.312 1056.7 529.312C1054.9 529.312 1053.53 528.792 1052.59 527.75C1051.66 526.698 1051.18 525.146 1051.16 523.094V512.094H1053.02V522.859C1053.02 526.078 1054.32 527.688 1056.92 527.688C1059.63 527.688 1061.34 526.568 1062.06 524.328V512.094H1063.94V529H1062.12L1062.09 526.859ZM1071.72 507.766V512.094H1075.22V513.625H1071.72V524.891C1071.72 525.828 1071.89 526.526 1072.22 526.984C1072.56 527.443 1073.13 527.672 1073.92 527.672C1074.23 527.672 1074.74 527.62 1075.44 527.516L1075.52 529.047C1075.03 529.224 1074.36 529.312 1073.52 529.312C1072.23 529.312 1071.3 528.943 1070.72 528.203C1070.14 527.453 1069.84 526.354 1069.84 524.906V513.625H1066.73V512.094H1069.84V507.766H1071.72ZM1085.64 529.312C1084.2 529.312 1082.9 528.958 1081.73 528.25C1080.58 527.542 1079.68 526.557 1079.03 525.297C1078.39 524.026 1078.06 522.604 1078.06 521.031V520.359C1078.06 518.734 1078.38 517.271 1079 515.969C1079.64 514.667 1080.52 513.646 1081.64 512.906C1082.77 512.156 1083.98 511.781 1085.3 511.781C1087.35 511.781 1088.97 512.484 1090.17 513.891C1091.38 515.286 1091.98 517.198 1091.98 519.625V520.672H1079.92V521.031C1079.92 522.948 1080.47 524.547 1081.56 525.828C1082.67 527.099 1084.05 527.734 1085.72 527.734C1086.72 527.734 1087.6 527.552 1088.36 527.188C1089.13 526.823 1089.83 526.24 1090.45 525.438L1091.62 526.328C1090.25 528.318 1088.26 529.312 1085.64 529.312ZM1085.3 513.375C1083.89 513.375 1082.7 513.891 1081.73 514.922C1080.78 515.953 1080.19 517.339 1079.98 519.078H1090.12V518.875C1090.07 517.25 1089.61 515.927 1088.73 514.906C1087.86 513.885 1086.71 513.375 1085.3 513.375ZM1097.98 519.734V529H1096.06V506.25H1103.81C1106.18 506.25 1108.04 506.854 1109.41 508.062C1110.78 509.271 1111.47 510.932 1111.47 513.047C1111.47 515.182 1110.81 516.833 1109.48 518C1108.17 519.156 1106.27 519.734 1103.77 519.734H1097.98ZM1097.98 518.109H1103.81C1105.68 518.109 1107.1 517.667 1108.08 516.781C1109.06 515.896 1109.55 514.661 1109.55 513.078C1109.55 511.505 1109.06 510.255 1108.08 509.328C1107.11 508.391 1105.73 507.911 1103.94 507.891H1097.98V518.109ZM1121.67 529.312C1120.23 529.312 1118.93 528.958 1117.77 528.25C1116.61 527.542 1115.71 526.557 1115.06 525.297C1114.42 524.026 1114.09 522.604 1114.09 521.031V520.359C1114.09 518.734 1114.41 517.271 1115.03 515.969C1115.67 514.667 1116.55 513.646 1117.67 512.906C1118.8 512.156 1120.02 511.781 1121.33 511.781C1123.38 511.781 1125.01 512.484 1126.2 513.891C1127.41 515.286 1128.02 517.198 1128.02 519.625V520.672H1115.95V521.031C1115.95 522.948 1116.5 524.547 1117.59 525.828C1118.7 527.099 1120.08 527.734 1121.75 527.734C1122.75 527.734 1123.63 527.552 1124.39 527.188C1125.16 526.823 1125.86 526.24 1126.48 525.438L1127.66 526.328C1126.28 528.318 1124.29 529.312 1121.67 529.312ZM1121.33 513.375C1119.92 513.375 1118.73 513.891 1117.77 514.922C1116.81 515.953 1116.22 517.339 1116.02 519.078H1126.16V518.875C1126.1 517.25 1125.64 515.927 1124.77 514.906C1123.89 513.885 1122.74 513.375 1121.33 513.375ZM1139.47 513.688C1139.07 513.615 1138.65 513.578 1138.2 513.578C1137.04 513.578 1136.05 513.906 1135.23 514.562C1134.43 515.208 1133.86 516.151 1133.52 517.391V529H1131.66V512.094H1133.48L1133.52 514.781C1134.51 512.781 1136.09 511.781 1138.28 511.781C1138.8 511.781 1139.21 511.849 1139.52 511.984L1139.47 513.688Z" fill="#424242"/>
<path d="M144.797 519.734V529H142.875V506.25H150.625C152.99 506.25 154.854 506.854 156.219 508.062C157.594 509.271 158.281 510.932 158.281 513.047C158.281 515.182 157.62 516.833 156.297 518C154.984 519.156 153.078 519.734 150.578 519.734H144.797ZM144.797 518.109H150.625C152.49 518.109 153.911 517.667 154.891 516.781C155.87 515.896 156.359 514.661 156.359 513.078C156.359 511.505 155.87 510.255 154.891 509.328C153.922 508.391 152.542 507.911 150.75 507.891H144.797V518.109ZM169.969 513.688C169.573 513.615 169.151 513.578 168.703 513.578C167.536 513.578 166.547 513.906 165.734 514.562C164.932 515.208 164.359 516.151 164.016 517.391V529H162.156V512.094H163.984L164.016 514.781C165.005 512.781 166.594 511.781 168.781 511.781C169.302 511.781 169.714 511.849 170.016 511.984L169.969 513.688ZM171.594 520.297C171.594 518.672 171.906 517.208 172.531 515.906C173.167 514.604 174.057 513.594 175.203 512.875C176.359 512.146 177.667 511.781 179.125 511.781C181.375 511.781 183.198 512.573 184.594 514.156C185.99 515.729 186.688 517.818 186.688 520.422V520.812C186.688 522.448 186.37 523.922 185.734 525.234C185.109 526.536 184.224 527.542 183.078 528.25C181.932 528.958 180.625 529.312 179.156 529.312C176.917 529.312 175.094 528.526 173.688 526.953C172.292 525.37 171.594 523.276 171.594 520.672V520.297ZM173.469 520.812C173.469 522.833 173.99 524.495 175.031 525.797C176.083 527.089 177.458 527.734 179.156 527.734C180.844 527.734 182.208 527.089 183.25 525.797C184.302 524.495 184.828 522.781 184.828 520.656V520.297C184.828 519.005 184.589 517.823 184.109 516.75C183.63 515.677 182.958 514.849 182.094 514.266C181.229 513.672 180.24 513.375 179.125 513.375C177.458 513.375 176.099 514.031 175.047 515.344C173.995 516.646 173.469 518.354 173.469 520.469V520.812ZM189.812 520.391C189.812 517.745 190.396 515.651 191.562 514.109C192.74 512.557 194.333 511.781 196.344 511.781C198.646 511.781 200.396 512.698 201.594 514.531L201.688 512.094H203.438V528.656C203.438 530.833 202.828 532.557 201.609 533.828C200.391 535.099 198.74 535.734 196.656 535.734C195.479 535.734 194.354 535.469 193.281 534.938C192.219 534.417 191.38 533.719 190.766 532.844L191.812 531.719C193.135 533.344 194.708 534.156 196.531 534.156C198.094 534.156 199.312 533.693 200.188 532.766C201.062 531.849 201.516 530.573 201.547 528.938V526.812C200.349 528.479 198.604 529.312 196.312 529.312C194.354 529.312 192.781 528.531 191.594 526.969C190.406 525.406 189.812 523.297 189.812 520.641V520.391ZM191.703 520.719C191.703 522.875 192.135 524.578 193 525.828C193.865 527.068 195.083 527.688 196.656 527.688C198.958 527.688 200.589 526.656 201.547 524.594V516.734C201.109 515.651 200.479 514.828 199.656 514.266C198.833 513.693 197.844 513.406 196.688 513.406C195.115 513.406 193.891 514.026 193.016 515.266C192.141 516.495 191.703 518.312 191.703 520.719ZM216.125 513.688C215.729 513.615 215.307 513.578 214.859 513.578C213.693 513.578 212.703 513.906 211.891 514.562C211.089 515.208 210.516 516.151 210.172 517.391V529H208.312V512.094H210.141L210.172 514.781C211.161 512.781 212.75 511.781 214.938 511.781C215.458 511.781 215.87 511.849 216.172 511.984L216.125 513.688ZM229.141 529C228.953 528.469 228.833 527.682 228.781 526.641C228.125 527.495 227.286 528.156 226.266 528.625C225.255 529.083 224.182 529.312 223.047 529.312C221.422 529.312 220.104 528.859 219.094 527.953C218.094 527.047 217.594 525.901 217.594 524.516C217.594 522.87 218.276 521.568 219.641 520.609C221.016 519.651 222.927 519.172 225.375 519.172H228.766V517.25C228.766 516.042 228.391 515.094 227.641 514.406C226.901 513.708 225.818 513.359 224.391 513.359C223.089 513.359 222.01 513.693 221.156 514.359C220.302 515.026 219.875 515.828 219.875 516.766L218 516.75C218 515.406 218.625 514.245 219.875 513.266C221.125 512.276 222.661 511.781 224.484 511.781C226.37 511.781 227.854 512.255 228.938 513.203C230.031 514.141 230.594 515.453 230.625 517.141V525.141C230.625 526.776 230.797 528 231.141 528.812V529H229.141ZM223.266 527.656C224.516 527.656 225.63 527.354 226.609 526.75C227.599 526.146 228.318 525.339 228.766 524.328V520.609H225.422C223.557 520.63 222.099 520.974 221.047 521.641C219.995 522.297 219.469 523.203 219.469 524.359C219.469 525.307 219.818 526.094 220.516 526.719C221.224 527.344 222.141 527.656 223.266 527.656ZM237.328 512.094L237.391 514.844C238.016 513.823 238.797 513.057 239.734 512.547C240.672 512.036 241.714 511.781 242.859 511.781C245.526 511.781 247.219 512.875 247.938 515.062C248.542 514.01 249.349 513.203 250.359 512.641C251.37 512.068 252.484 511.781 253.703 511.781C257.328 511.781 259.177 513.76 259.25 517.719V529H257.375V517.859C257.365 516.349 257.036 515.229 256.391 514.5C255.755 513.771 254.714 513.406 253.266 513.406C251.922 513.427 250.786 513.865 249.859 514.719C248.932 515.562 248.417 516.594 248.312 517.812V529H246.438V517.719C246.427 516.271 246.083 515.193 245.406 514.484C244.74 513.766 243.708 513.406 242.312 513.406C241.135 513.406 240.125 513.745 239.281 514.422C238.438 515.089 237.812 516.083 237.406 517.406V529H235.531V512.094H237.328ZM265.703 512.094L265.766 514.844C266.391 513.823 267.172 513.057 268.109 512.547C269.047 512.036 270.089 511.781 271.234 511.781C273.901 511.781 275.594 512.875 276.312 515.062C276.917 514.01 277.724 513.203 278.734 512.641C279.745 512.068 280.859 511.781 282.078 511.781C285.703 511.781 287.552 513.76 287.625 517.719V529H285.75V517.859C285.74 516.349 285.411 515.229 284.766 514.5C284.13 513.771 283.089 513.406 281.641 513.406C280.297 513.427 279.161 513.865 278.234 514.719C277.307 515.562 276.792 516.594 276.688 517.812V529H274.812V517.719C274.802 516.271 274.458 515.193 273.781 514.484C273.115 513.766 272.083 513.406 270.688 513.406C269.51 513.406 268.5 513.745 267.656 514.422C266.812 515.089 266.188 516.083 265.781 517.406V529H263.906V512.094H265.703ZM298.922 529.312C297.484 529.312 296.182 528.958 295.016 528.25C293.859 527.542 292.958 526.557 292.312 525.297C291.667 524.026 291.344 522.604 291.344 521.031V520.359C291.344 518.734 291.656 517.271 292.281 515.969C292.917 514.667 293.797 513.646 294.922 512.906C296.047 512.156 297.266 511.781 298.578 511.781C300.63 511.781 302.255 512.484 303.453 513.891C304.661 515.286 305.266 517.198 305.266 519.625V520.672H293.203V521.031C293.203 522.948 293.75 524.547 294.844 525.828C295.948 527.099 297.333 527.734 299 527.734C300 527.734 300.88 527.552 301.641 527.188C302.411 526.823 303.109 526.24 303.734 525.438L304.906 526.328C303.531 528.318 301.536 529.312 298.922 529.312ZM298.578 513.375C297.172 513.375 295.984 513.891 295.016 514.922C294.057 515.953 293.474 517.339 293.266 519.078H303.406V518.875C303.354 517.25 302.891 515.927 302.016 514.906C301.141 513.885 299.995 513.375 298.578 513.375ZM308.156 520.391C308.156 517.766 308.74 515.677 309.906 514.125C311.083 512.562 312.677 511.781 314.688 511.781C316.969 511.781 318.708 512.682 319.906 514.484V505H321.766V529H320.016L319.938 526.75C318.74 528.458 316.979 529.312 314.656 529.312C312.708 529.312 311.135 528.531 309.938 526.969C308.75 525.396 308.156 523.276 308.156 520.609V520.391ZM310.047 520.719C310.047 522.875 310.479 524.578 311.344 525.828C312.208 527.068 313.427 527.688 315 527.688C317.302 527.688 318.938 526.672 319.906 524.641V516.703C318.938 514.505 317.312 513.406 315.031 513.406C313.458 513.406 312.234 514.026 311.359 515.266C310.484 516.495 310.047 518.312 310.047 520.719ZM348.078 520.719C348.078 523.354 347.495 525.448 346.328 527C345.161 528.542 343.594 529.312 341.625 529.312C339.271 529.312 337.49 528.438 336.281 526.688L336.203 529H334.453V505H336.312V514.547C337.5 512.703 339.26 511.781 341.594 511.781C343.594 511.781 345.172 512.547 346.328 514.078C347.495 515.599 348.078 517.719 348.078 520.438V520.719ZM346.203 520.391C346.203 518.161 345.771 516.443 344.906 515.234C344.042 514.016 342.823 513.406 341.25 513.406C340.052 513.406 339.036 513.703 338.203 514.297C337.37 514.88 336.74 515.74 336.312 516.875V524.5C337.25 526.625 338.906 527.688 341.281 527.688C342.823 527.688 344.026 527.078 344.891 525.859C345.766 524.641 346.203 522.818 346.203 520.391ZM357.391 526.312L362.328 512.094H364.344L357.125 531.875L356.75 532.75C355.823 534.802 354.391 535.828 352.453 535.828C352.005 535.828 351.526 535.755 351.016 535.609L351 534.062L351.969 534.156C352.885 534.156 353.625 533.927 354.188 533.469C354.76 533.021 355.245 532.245 355.641 531.141L356.469 528.859L350.094 512.094H352.141L357.391 526.312ZM366.797 527.875C366.797 527.51 366.911 527.203 367.141 526.953C367.38 526.693 367.708 526.562 368.125 526.562C368.542 526.562 368.87 526.693 369.109 526.953C369.349 527.203 369.469 527.51 369.469 527.875C369.469 528.24 369.349 528.542 369.109 528.781C368.87 529.01 368.542 529.125 368.125 529.125C367.708 529.125 367.38 529.01 367.141 528.781C366.911 528.542 366.797 528.24 366.797 527.875ZM366.828 513.453C366.828 513.089 366.943 512.781 367.172 512.531C367.411 512.271 367.74 512.141 368.156 512.141C368.573 512.141 368.901 512.271 369.141 512.531C369.38 512.781 369.5 513.089 369.5 513.453C369.5 513.818 369.38 514.12 369.141 514.359C368.901 514.589 368.573 514.703 368.156 514.703C367.74 514.703 367.411 514.589 367.172 514.359C366.943 514.12 366.828 513.818 366.828 513.453ZM384.109 519.734V529H382.188V506.25H389.938C392.302 506.25 394.167 506.854 395.531 508.062C396.906 509.271 397.594 510.932 397.594 513.047C397.594 515.182 396.932 516.833 395.609 518C394.297 519.156 392.391 519.734 389.891 519.734H384.109ZM384.109 518.109H389.938C391.802 518.109 393.224 517.667 394.203 516.781C395.182 515.896 395.672 514.661 395.672 513.078C395.672 511.505 395.182 510.255 394.203 509.328C393.234 508.391 391.854 507.911 390.062 507.891H384.109V518.109ZM403.562 529H401.688V512.094H403.562V529ZM401.359 507.203C401.359 506.849 401.474 506.552 401.703 506.312C401.932 506.062 402.245 505.938 402.641 505.938C403.036 505.938 403.349 506.062 403.578 506.312C403.818 506.552 403.938 506.849 403.938 507.203C403.938 507.557 403.818 507.854 403.578 508.094C403.349 508.333 403.036 508.453 402.641 508.453C402.245 508.453 401.932 508.333 401.703 508.094C401.474 507.854 401.359 507.557 401.359 507.203ZM410.438 512.094L410.5 514.984C411.135 513.943 411.927 513.151 412.875 512.609C413.823 512.057 414.87 511.781 416.016 511.781C417.828 511.781 419.177 512.292 420.062 513.312C420.948 514.333 421.396 515.865 421.406 517.906V529H419.547V517.891C419.536 516.38 419.214 515.255 418.578 514.516C417.953 513.776 416.948 513.406 415.562 513.406C414.406 513.406 413.38 513.771 412.484 514.5C411.599 515.219 410.943 516.193 410.516 517.422V529H408.656V512.094H410.438ZM432.797 529.312C431.359 529.312 430.057 528.958 428.891 528.25C427.734 527.542 426.833 526.557 426.188 525.297C425.542 524.026 425.219 522.604 425.219 521.031V520.359C425.219 518.734 425.531 517.271 426.156 515.969C426.792 514.667 427.672 513.646 428.797 512.906C429.922 512.156 431.141 511.781 432.453 511.781C434.505 511.781 436.13 512.484 437.328 513.891C438.536 515.286 439.141 517.198 439.141 519.625V520.672H427.078V521.031C427.078 522.948 427.625 524.547 428.719 525.828C429.823 527.099 431.208 527.734 432.875 527.734C433.875 527.734 434.755 527.552 435.516 527.188C436.286 526.823 436.984 526.24 437.609 525.438L438.781 526.328C437.406 528.318 435.411 529.312 432.797 529.312ZM432.453 513.375C431.047 513.375 429.859 513.891 428.891 514.922C427.932 515.953 427.349 517.339 427.141 519.078H437.281V518.875C437.229 517.25 436.766 515.927 435.891 514.906C435.016 513.885 433.87 513.375 432.453 513.375ZM453.453 529C453.266 528.469 453.146 527.682 453.094 526.641C452.438 527.495 451.599 528.156 450.578 528.625C449.568 529.083 448.495 529.312 447.359 529.312C445.734 529.312 444.417 528.859 443.406 527.953C442.406 527.047 441.906 525.901 441.906 524.516C441.906 522.87 442.589 521.568 443.953 520.609C445.328 519.651 447.24 519.172 449.688 519.172H453.078V517.25C453.078 516.042 452.703 515.094 451.953 514.406C451.214 513.708 450.13 513.359 448.703 513.359C447.401 513.359 446.323 513.693 445.469 514.359C444.615 515.026 444.188 515.828 444.188 516.766L442.312 516.75C442.312 515.406 442.938 514.245 444.188 513.266C445.438 512.276 446.974 511.781 448.797 511.781C450.682 511.781 452.167 512.255 453.25 513.203C454.344 514.141 454.906 515.453 454.938 517.141V525.141C454.938 526.776 455.109 528 455.453 528.812V529H453.453ZM447.578 527.656C448.828 527.656 449.943 527.354 450.922 526.75C451.911 526.146 452.63 525.339 453.078 524.328V520.609H449.734C447.87 520.63 446.411 520.974 445.359 521.641C444.307 522.297 443.781 523.203 443.781 524.359C443.781 525.307 444.13 526.094 444.828 526.719C445.536 527.344 446.453 527.656 447.578 527.656ZM472.906 518.375H462.297V529H460.375V506.25H474.469V507.891H462.297V516.734H472.906V518.375ZM488.078 529C487.891 528.469 487.771 527.682 487.719 526.641C487.062 527.495 486.224 528.156 485.203 528.625C484.193 529.083 483.12 529.312 481.984 529.312C480.359 529.312 479.042 528.859 478.031 527.953C477.031 527.047 476.531 525.901 476.531 524.516C476.531 522.87 477.214 521.568 478.578 520.609C479.953 519.651 481.865 519.172 484.312 519.172H487.703V517.25C487.703 516.042 487.328 515.094 486.578 514.406C485.839 513.708 484.755 513.359 483.328 513.359C482.026 513.359 480.948 513.693 480.094 514.359C479.24 515.026 478.812 515.828 478.812 516.766L476.938 516.75C476.938 515.406 477.562 514.245 478.812 513.266C480.062 512.276 481.599 511.781 483.422 511.781C485.307 511.781 486.792 512.255 487.875 513.203C488.969 514.141 489.531 515.453 489.562 517.141V525.141C489.562 526.776 489.734 528 490.078 528.812V529H488.078ZM482.203 527.656C483.453 527.656 484.568 527.354 485.547 526.75C486.536 526.146 487.255 525.339 487.703 524.328V520.609H484.359C482.495 520.63 481.036 520.974 479.984 521.641C478.932 522.297 478.406 523.203 478.406 524.359C478.406 525.307 478.755 526.094 479.453 526.719C480.161 527.344 481.078 527.656 482.203 527.656ZM496.344 512.094L496.406 514.984C497.042 513.943 497.833 513.151 498.781 512.609C499.729 512.057 500.776 511.781 501.922 511.781C503.734 511.781 505.083 512.292 505.969 513.312C506.854 514.333 507.302 515.865 507.312 517.906V529H505.453V517.891C505.443 516.38 505.12 515.255 504.484 514.516C503.859 513.776 502.854 513.406 501.469 513.406C500.312 513.406 499.286 513.771 498.391 514.5C497.505 515.219 496.849 516.193 496.422 517.422V529H494.562V512.094H496.344Z" fill="#424242"/>
<defs>
<filter id="filter0_bd_3103:7438" x="48" y="48" width="1184" height="544" filterUnits="userSpaceOnUse" color-interpolation-filters="sRGB">
<feFlood flood-opacity="0" result="BackgroundImageFix"/>
<feGaussianBlur in="BackgroundImage" stdDeviation="14"/>
<feComposite in2="SourceAlpha" operator="in" result="effect1_backgroundBlur_3103:7438"/>
<feColorMatrix in="SourceAlpha" type="matrix" values="0 0 0 0 0 0 0 0 0 0 0 0 0 0 0 0 0 0 127 0" result="hardAlpha"/>
<feMorphology radius="5" operator="dilate" in="SourceAlpha" result="effect2_dropShadow_3103:7438"/>
<feOffset/>
<feGaussianBlur stdDeviation="12.5"/>
<feComposite in2="hardAlpha" operator="out"/>
<feColorMatrix type="matrix" values="0 0 0 0 0 0 0 0 0 0 0 0 0 0 0 0 0 0 0.5 0"/>
<feBlend mode="normal" in2="effect1_backgroundBlur_3103:7438" result="effect2_dropShadow_3103:7438"/>
<feBlend mode="normal" in="SourceGraphic" in2="effect2_dropShadow_3103:7438" result="shape"/>
</filter>
<filter id="filter1_d_3103:7438" x="434.812" y="168.25" width="92.3125" height="19.9375" filterUnits="userSpaceOnUse" color-interpolation-filters="sRGB">
<feFlood flood-opacity="0" result="BackgroundImageFix"/>
<feColorMatrix in="SourceAlpha" type="matrix" values="0 0 0 0 0 0 0 0 0 0 0 0 0 0 0 0 0 0 127 0" result="hardAlpha"/>
<feOffset dy="0.25"/>
<feGaussianBlur stdDeviation="0.125"/>
<feColorMatrix type="matrix" values="0 0 0 0 0 0 0 0 0 0 0 0 0 0 0 0 0 0 0.25 0"/>
<feBlend mode="normal" in2="BackgroundImageFix" result="effect1_dropShadow_3103:7438"/>
<feBlend mode="normal" in="SourceGraphic" in2="effect1_dropShadow_3103:7438" result="shape"/>
</filter>
<linearGradient id="paint0_linear_3103:7438" x1="-1.14441e-05" y1="320" x2="819.2" y2="-294.4" gradientUnits="userSpaceOnUse">
<stop stop-color="#F27878"/>
<stop offset="1" stop-color="#D96B6B"/>
</linearGradient>
<linearGradient id="paint1_linear_3103:7438" x1="0" y1="640" x2="1280" y2="640" gradientUnits="userSpaceOnUse">
<stop stop-color="#8D8D8D"/>
<stop offset="1" stop-color="#424242"/>
</linearGradient>
<linearGradient id="paint2_linear_3103:7438" x1="78" y1="78" x2="1202" y2="562" gradientUnits="userSpaceOnUse">
<stop stop-color="white" stop-opacity="0.9"/>
<stop offset="1" stop-color="white" stop-opacity="0.7"/>
</linearGradient>
<linearGradient id="paint3_linear_3103:7438" x1="545" y1="114" x2="417" y2="242" gradientUnits="userSpaceOnUse">
<stop stop-color="#F27878"/>
<stop offset="1" stop-color="#D96B6B"/>
</linearGradient>
</defs>
</svg>
