<svg width="1196" height="896" fill="none" xmlns="http://www.w3.org/2000/svg"><g filter="url(#a)"><rect x="4" width="1188" height="888" rx="100" fill="#fff" fill-opacity=".65" shape-rendering="crispEdges"/></g><g opacity=".25"><g clip-path="url(#b)"><circle cx="599.285" cy="445.285" r="353.474" stroke="#F27878" stroke-width="68.969"/><path d="M704.053 349.378c0 57.192-46.745 103.956-104.904 103.956-58.16 0-104.904-46.764-104.904-103.956s46.744-103.956 104.904-103.956c58.159 0 104.904 46.764 104.904 103.956Z" stroke="#F27878" stroke-width="68.969"/><path d="M844.74 738.149c0-51.805-25.874-101.489-71.931-138.122-46.057-36.632-108.524-57.212-173.659-57.212-65.134 0-127.601 20.58-173.658 57.212-46.057 36.633-71.931 86.317-71.931 138.122h73.676c0-36.264 18.113-71.042 50.353-96.685s75.966-40.048 121.56-40.048c45.594 0 89.321 14.405 121.561 40.048 32.24 25.643 50.352 60.421 50.352 96.685h73.677Z" fill="#F27878"/></g><rect x="206.578" y="759.947" width="1000.37" height="107.626" rx="53.813" transform="rotate(-45 206.578 759.947)" fill="#F27878" stroke="#CCDCF3" stroke-width="38.623"/></g><g filter="url(#c)"><path d="M159.621 361.895h-55.078L93.019 395H67.337l53.711-142.188h22.168L197.023 395h-25.781l-11.621-33.105Zm-48.144-19.922h41.211l-20.606-58.985-20.605 58.985Zm116.796-52.637.684 12.207c7.813-9.44 18.066-14.16 30.762-14.16 22.005 0 33.203 12.597 33.593 37.793V395h-23.73v-68.457c0-6.706-1.465-11.654-4.394-14.844-2.865-3.255-7.585-4.883-14.161-4.883-9.57 0-16.699 4.33-21.386 12.989V395H205.91V289.336h22.363Zm84.864 51.855c0-10.351 2.051-19.661 6.152-27.929 4.102-8.334 9.863-14.714 17.285-19.141 7.422-4.492 15.951-6.738 25.586-6.738 14.258 0 25.814 4.59 34.668 13.769 8.919 9.18 13.737 21.355 14.453 36.524l.098 5.566c0 10.417-2.018 19.727-6.055 27.93-3.971 8.203-9.7 14.551-17.187 19.043-7.422 4.492-16.016 6.738-25.782 6.738-14.908 0-26.855-4.948-35.839-14.844-8.92-9.961-13.379-23.209-13.379-39.746v-1.172Zm23.73 2.051c0 10.873 2.246 19.401 6.738 25.586 4.493 6.12 10.743 9.18 18.75 9.18 8.008 0 14.226-3.125 18.653-9.375 4.492-6.25 6.738-15.397 6.738-27.442 0-10.677-2.311-19.14-6.934-25.39-4.557-6.25-10.774-9.375-18.652-9.375-7.747 0-13.9 3.092-18.457 9.277-4.557 6.12-6.836 15.3-6.836 27.539Zm116.602-53.906.683 12.207c7.813-9.44 18.067-14.16 30.762-14.16 22.005 0 33.203 12.597 33.594 37.793V395h-23.731v-68.457c0-6.706-1.465-11.654-4.394-14.844-2.865-3.255-7.585-4.883-14.16-4.883-9.571 0-16.7 4.33-21.387 12.989V395h-23.731V289.336h22.364Zm126.269 71.68 21.485-71.68h25.293l-41.993 121.68c-6.445 17.773-17.382 26.66-32.812 26.66-3.451 0-7.259-.586-11.426-1.758v-18.359l4.492.293c5.99 0 10.482-1.107 13.477-3.321 3.06-2.148 5.469-5.794 7.226-10.937l3.418-9.082-37.109-105.176h25.586l22.363 71.68Zm82.813-71.68.683 11.035c7.422-8.659 17.578-12.988 30.469-12.988 14.128 0 23.796 5.403 29.004 16.211 7.682-10.808 18.49-16.211 32.422-16.211 11.654 0 20.312 3.222 25.976 9.668 5.73 6.445 8.659 15.95 8.79 28.515V395h-23.731v-68.75c0-6.706-1.465-11.621-4.394-14.746-2.93-3.125-7.78-4.688-14.551-4.688-5.404 0-9.831 1.465-13.281 4.395-3.386 2.865-5.762 6.641-7.129 11.328l.097 72.461h-23.73v-69.531c-.326-12.435-6.673-18.653-19.043-18.653-9.505 0-16.244 3.874-20.215 11.622V395h-23.73V289.336h22.363Zm147.265 51.855c0-10.351 2.051-19.661 6.153-27.929 4.101-8.334 9.863-14.714 17.285-19.141 7.422-4.492 15.95-6.738 25.586-6.738 14.258 0 25.814 4.59 34.668 13.769 8.919 9.18 13.737 21.355 14.453 36.524l.098 5.566c0 10.417-2.019 19.727-6.055 27.93-3.971 8.203-9.701 14.551-17.188 19.043-7.421 4.492-16.015 6.738-25.781 6.738-14.909 0-26.855-4.948-35.84-14.844-8.919-9.961-13.379-23.209-13.379-39.746v-1.172Zm23.731 2.051c0 10.873 2.246 19.401 6.738 25.586 4.492 6.12 10.742 9.18 18.75 9.18s14.225-3.125 18.653-9.375c4.492-6.25 6.738-15.397 6.738-27.442 0-10.677-2.311-19.14-6.934-25.39-4.557-6.25-10.775-9.375-18.652-9.375-7.748 0-13.9 3.092-18.457 9.277-4.557 6.12-6.836 15.3-6.836 27.539Zm158.594 41.406c-6.967 8.204-16.862 12.305-29.688 12.305-11.458 0-20.15-3.353-26.074-10.058-5.859-6.706-8.789-16.407-8.789-29.102v-68.457h23.73V357.5c0 13.411 5.567 20.117 16.7 20.117 11.523 0 19.303-4.134 23.339-12.402v-75.879h23.731V395h-22.363l-.586-10.352Zm106.349-18.359c0-4.232-1.76-7.454-5.28-9.668-3.45-2.213-9.21-4.167-17.28-5.859-8.07-1.693-14.81-3.841-20.22-6.446-11.84-5.729-17.77-14.03-17.77-24.902 0-9.115 3.84-16.732 11.52-22.852 7.69-6.119 17.45-9.179 29.3-9.179 12.63 0 22.82 3.125 30.57 9.375 7.81 6.25 11.72 14.355 11.72 24.316h-23.73c0-4.557-1.7-8.333-5.08-11.328-3.39-3.06-7.88-4.59-13.48-4.59-5.21 0-9.47 1.205-12.79 3.614-3.26 2.408-4.88 5.631-4.88 9.668 0 3.645 1.53 6.477 4.59 8.496 3.06 2.018 9.24 4.069 18.55 6.152 9.31 2.018 16.6 4.46 21.88 7.324 5.33 2.8 9.27 6.185 11.81 10.156 2.61 3.972 3.91 8.789 3.91 14.454 0 9.505-3.94 17.22-11.82 23.144-7.88 5.859-18.19 8.789-30.96 8.789-8.65 0-16.37-1.562-23.14-4.687s-12.04-7.422-15.82-12.891c-3.78-5.469-5.66-11.361-5.66-17.676h23.04c.33 5.599 2.44 9.929 6.35 12.989 3.91 2.994 9.08 4.492 15.53 4.492 6.25 0 11-1.172 14.26-3.516 3.25-2.409 4.88-5.534 4.88-9.375ZM409.719 568.746h-57.227V629h-24.707V486.812h90.332v19.922h-65.625v42.286h57.227v19.726Zm19.14 6.445c0-10.351 2.051-19.661 6.153-27.929 4.101-8.334 9.863-14.714 17.285-19.141 7.422-4.492 15.95-6.738 25.586-6.738 14.258 0 25.814 4.59 34.668 13.769 8.919 9.18 13.737 21.355 14.453 36.524l.098 5.566c0 10.417-2.019 19.727-6.055 27.93-3.971 8.203-9.701 14.551-17.188 19.043-7.421 4.492-16.015 6.738-25.781 6.738-14.909 0-26.855-4.948-35.84-14.844-8.919-9.961-13.379-23.209-13.379-39.746v-1.172Zm23.731 2.051c0 10.873 2.246 19.401 6.738 25.586 4.492 6.12 10.742 9.18 18.75 9.18s14.225-3.125 18.652-9.375c4.493-6.25 6.739-15.397 6.739-27.442 0-10.677-2.311-19.14-6.934-25.39-4.557-6.25-10.775-9.375-18.652-9.375-7.748 0-13.9 3.092-18.457 9.277-4.558 6.12-6.836 15.3-6.836 27.539Zm149.902-32.226a58.698 58.698 0 0 0-9.668-.782c-10.872 0-18.196 4.167-21.972 12.5V629h-23.731V523.336h22.656l.586 11.816c5.729-9.179 13.672-13.769 23.828-13.769 3.386 0 6.185.456 8.399 1.367l-.098 22.266Zm37.305-21.68.683 11.035c7.422-8.659 17.579-12.988 30.469-12.988 14.128 0 23.796 5.403 29.004 16.211 7.682-10.808 18.49-16.211 32.422-16.211 11.654 0 20.313 3.222 25.977 9.668 5.729 6.445 8.658 15.95 8.789 28.515V629H743.41v-68.75c0-6.706-1.465-11.621-4.394-14.746-2.93-3.125-7.78-4.688-14.551-4.688-5.404 0-9.831 1.465-13.281 4.395-3.386 2.865-5.762 6.641-7.129 11.328l.097 72.461h-23.73v-69.531c-.326-12.435-6.673-18.653-19.043-18.653-9.505 0-16.244 3.874-20.215 11.622V629h-23.73V523.336h22.363Zm210.937 76.953c0-4.232-1.757-7.454-5.273-9.668-3.451-2.213-9.212-4.167-17.285-5.859-8.073-1.693-14.811-3.841-20.215-6.446-11.849-5.729-17.773-14.03-17.773-24.902 0-9.115 3.841-16.732 11.523-22.852 7.682-6.119 17.448-9.179 29.297-9.179 12.63 0 22.819 3.125 30.566 9.375 7.813 6.25 11.719 14.355 11.719 24.316h-23.731c0-4.557-1.692-8.333-5.078-11.328-3.385-3.06-7.877-4.59-13.476-4.59-5.209 0-9.473 1.205-12.793 3.614-3.255 2.408-4.883 5.631-4.883 9.668 0 3.645 1.53 6.477 4.59 8.496 3.06 2.018 9.245 4.069 18.555 6.152 9.309 2.018 16.601 4.46 21.875 7.324 5.338 2.8 9.277 6.185 11.816 10.156 2.604 3.972 3.906 8.789 3.906 14.454 0 9.505-3.939 17.22-11.816 23.144-7.878 5.859-18.197 8.789-30.957 8.789-8.659 0-16.374-1.562-23.145-4.687-6.771-3.125-12.044-7.422-15.82-12.891s-5.664-11.361-5.664-17.676h23.047c.325 5.599 2.441 9.929 6.347 12.989 3.907 2.994 9.082 4.492 15.528 4.492 6.25 0 11.002-1.172 14.258-3.516 3.255-2.409 4.882-5.534 4.882-9.375Z" fill="#F27878"/></g><path d="M137.27 164h-6.963v-39.194H83.588V164h-6.906V82.242h6.906v36.724h46.719V82.242h6.963V164Zm26.785 0h-6.739v-60.757h6.739V164Zm-7.918-78.332c0-1.273.412-2.34 1.236-3.201.823-.899 1.946-1.348 3.369-1.348 1.422 0 2.545.45 3.369 1.348.861.86 1.291 1.928 1.291 3.2 0 1.273-.43 2.34-1.291 3.201-.824.861-1.947 1.292-3.369 1.292-1.423 0-2.546-.43-3.369-1.292-.824-.86-1.236-1.928-1.236-3.2Zm23.528 47.392c0-9.434 2.096-16.939 6.289-22.517 4.23-5.615 9.958-8.423 17.183-8.423 8.198 0 14.45 3.238 18.755 9.714V77.75h6.682V164h-6.289l-.281-8.086c-4.305 6.139-10.632 9.209-18.98 9.209-7 0-12.653-2.808-16.958-8.423-4.267-5.652-6.401-13.27-6.401-22.854v-.786Zm6.794 1.179c0 7.749 1.554 13.87 4.661 18.362 3.107 4.455 7.487 6.682 13.14 6.682 8.273 0 14.15-3.65 17.632-10.95v-28.525c-3.482-7.899-9.322-11.848-17.52-11.848-5.653 0-10.051 2.227-13.196 6.682-3.144 4.417-4.717 10.95-4.717 19.597Zm83.331 30.884c-5.166 0-9.846-1.273-14.039-3.818-4.155-2.546-7.393-6.083-9.714-10.613-2.321-4.567-3.481-9.677-3.481-15.33v-2.414c0-5.84 1.123-11.1 3.369-15.779 2.283-4.679 5.447-8.348 9.49-11.006 4.043-2.695 8.422-4.043 13.139-4.043 7.375 0 13.215 2.527 17.52 7.581 4.342 5.016 6.513 11.885 6.513 20.608v3.762h-43.349v1.291c0 6.888 1.965 12.635 5.896 17.239 3.968 4.567 8.947 6.851 14.936 6.851 3.594 0 6.757-.655 9.49-1.966 2.77-1.31 5.278-3.406 7.524-6.289l4.212 3.201c-4.942 7.15-12.11 10.725-21.506 10.725Zm-1.236-57.275c-5.054 0-9.321 1.853-12.803 5.559-3.444 3.706-5.54 8.685-6.289 14.936h36.443v-.73c-.187-5.84-1.853-10.594-4.997-14.262-3.145-3.669-7.263-5.503-12.354-5.503Zm104.163 48.459c-4.043 5.877-10.501 8.816-19.373 8.816-6.476 0-11.399-1.872-14.768-5.615-3.369-3.781-5.091-9.359-5.166-16.734v-39.531h6.682v38.689c0 11.568 4.68 17.351 14.038 17.351 9.733 0 15.891-4.024 18.474-12.073v-43.967h6.739V164h-6.514l-.112-7.693Zm60.532-7.749c0-3.332-1.348-6.008-4.043-8.03-2.658-2.021-6.682-3.593-12.073-4.716-5.39-1.161-9.583-2.471-12.578-3.931-2.957-1.498-5.166-3.313-6.626-5.447-1.422-2.134-2.134-4.717-2.134-7.749 0-4.792 2.003-8.741 6.009-11.848 4.005-3.145 9.134-4.717 15.385-4.717 6.776 0 12.204 1.685 16.285 5.054 4.117 3.332 6.176 7.693 6.176 13.083h-6.738c0-3.556-1.497-6.513-4.492-8.872-2.957-2.358-6.701-3.537-11.231-3.537-4.417 0-7.973.992-10.668 2.976-2.658 1.946-3.987 4.492-3.987 7.636 0 3.033 1.104 5.391 3.313 7.076 2.246 1.647 6.307 3.163 12.185 4.548 5.914 1.385 10.332 2.864 13.252 4.436 2.957 1.572 5.147 3.463 6.57 5.671 1.422 2.209 2.133 4.886 2.133 8.03 0 5.129-2.077 9.228-6.233 12.298-4.117 3.069-9.508 4.604-16.171 4.604-7.076 0-12.822-1.703-17.239-5.11-4.38-3.444-6.57-7.786-6.57-13.027h6.738c.262 3.931 1.909 7 4.942 9.209 3.069 2.171 7.112 3.257 12.129 3.257 4.679 0 8.46-1.03 11.342-3.089 2.883-2.059 4.324-4.66 4.324-7.805Zm45.427 16.565c-5.166 0-9.845-1.273-14.038-3.818-4.155-2.546-7.393-6.083-9.714-10.613-2.321-4.567-3.482-9.677-3.482-15.33v-2.414c0-5.84 1.123-11.1 3.37-15.779 2.283-4.679 5.446-8.348 9.489-11.006 4.043-2.695 8.423-4.043 13.14-4.043 7.375 0 13.214 2.527 17.519 7.581 4.343 5.016 6.514 11.885 6.514 20.608v3.762h-43.349v1.291c0 6.888 1.965 12.635 5.896 17.239 3.968 4.567 8.946 6.851 14.936 6.851 3.594 0 6.757-.655 9.49-1.966 2.77-1.31 5.278-3.406 7.524-6.289l4.212 3.201c-4.942 7.15-12.111 10.725-21.507 10.725Zm-1.235-57.275c-5.054 0-9.321 1.853-12.803 5.559-3.444 3.706-5.54 8.685-6.289 14.936h36.443v-.73c-.187-5.84-1.853-10.594-4.998-14.262-3.144-3.669-7.262-5.503-12.353-5.503Zm65.193 1.123a25.11 25.11 0 0 0-4.549-.393c-4.192 0-7.749 1.179-10.668 3.537-2.883 2.321-4.942 5.709-6.177 10.164V164h-6.682v-60.757h6.569l.113 9.658c3.556-7.187 9.265-10.781 17.126-10.781 1.872 0 3.351.243 4.436.73l-.168 6.121Zm17.07-5.728.225 10.388c2.283-3.743 5.128-6.588 8.535-8.535 3.406-1.984 7.169-2.976 11.286-2.976 6.514 0 11.362 1.834 14.544 5.503 3.182 3.669 4.792 9.172 4.829 16.509V164h-6.682v-39.924c-.038-5.428-1.198-9.471-3.482-12.129-2.246-2.658-5.858-3.987-10.837-3.987-4.155 0-7.843 1.31-11.062 3.931-3.182 2.583-5.54 6.083-7.075 10.5V164h-6.682v-60.757h6.401ZM654.882 164c-.674-1.909-1.104-4.736-1.291-8.479-2.359 3.07-5.372 5.447-9.041 7.131-3.631 1.647-7.487 2.471-11.567 2.471-5.84 0-10.575-1.628-14.207-4.885-3.593-3.257-5.39-7.375-5.39-12.354 0-5.914 2.452-10.594 7.356-14.038 4.941-3.444 11.81-5.166 20.608-5.166h12.185v-6.907c0-4.342-1.348-7.749-4.043-10.219-2.658-2.508-6.551-3.762-11.68-3.762-4.679 0-8.554 1.197-11.624 3.593-3.069 2.396-4.604 5.279-4.604 8.648l-6.738-.056c0-4.83 2.246-9.004 6.738-12.522 4.492-3.557 10.014-5.335 16.565-5.335 6.776 0 12.11 1.703 16.003 5.11 3.931 3.369 5.952 8.086 6.065 14.15v28.75c0 5.878.617 10.276 1.853 13.196V164h-7.188Zm-21.113-4.829c4.492 0 8.498-1.086 12.017-3.257 3.556-2.171 6.139-5.072 7.749-8.704v-13.364h-12.017c-6.701.075-11.942 1.31-15.723 3.706-3.781 2.359-5.671 5.615-5.671 9.771 0 3.406 1.254 6.233 3.762 8.479 2.546 2.246 5.84 3.369 9.883 3.369Zm50.537-55.928.225 9.883c2.246-3.669 5.053-6.42 8.423-8.254 3.369-1.835 7.112-2.752 11.23-2.752 9.583 0 15.667 3.931 18.25 11.792 2.171-3.781 5.072-6.682 8.703-8.704 3.631-2.058 7.637-3.088 12.017-3.088 13.027 0 19.672 7.113 19.934 21.338V164h-6.738v-40.037c-.038-5.428-1.217-9.452-3.538-12.072-2.284-2.621-6.027-3.931-11.23-3.931-4.83.075-8.91 1.647-12.242 4.717-3.331 3.032-5.184 6.738-5.559 11.118V164h-6.738v-40.542c-.037-5.203-1.273-9.078-3.706-11.624-2.396-2.583-6.102-3.874-11.118-3.874-4.23 0-7.862 1.217-10.894 3.65-3.032 2.396-5.278 5.971-6.738 10.725V164h-6.738v-60.757h6.457Zm119.38 61.88c-5.166 0-9.845-1.273-14.038-3.818-4.155-2.546-7.393-6.083-9.714-10.613-2.321-4.567-3.482-9.677-3.482-15.33v-2.414c0-5.84 1.123-11.1 3.369-15.779 2.284-4.679 5.447-8.348 9.49-11.006 4.043-2.695 8.423-4.043 13.14-4.043 7.374 0 13.214 2.527 17.519 7.581 4.343 5.016 6.514 11.885 6.514 20.608v3.762h-43.35v1.291c0 6.888 1.966 12.635 5.896 17.239 3.968 4.567 8.947 6.851 14.937 6.851 3.594 0 6.757-.655 9.49-1.966 2.77-1.31 5.278-3.406 7.524-6.289l4.211 3.201c-4.941 7.15-12.11 10.725-21.506 10.725Zm-1.235-57.275c-5.054 0-9.322 1.853-12.803 5.559-3.444 3.706-5.54 8.685-6.289 14.936h36.443v-.73c-.187-5.84-1.853-10.594-4.998-14.262-3.144-3.669-7.262-5.503-12.353-5.503Zm73.503 40.71c0-3.332-1.348-6.008-4.043-8.03-2.658-2.021-6.682-3.593-12.073-4.716-5.39-1.161-9.583-2.471-12.578-3.931-2.957-1.498-5.166-3.313-6.626-5.447-1.422-2.134-2.134-4.717-2.134-7.749 0-4.792 2.003-8.741 6.009-11.848 4.005-3.145 9.134-4.717 15.386-4.717 6.775 0 12.203 1.685 16.284 5.054 4.118 3.332 6.176 7.693 6.176 13.083h-6.738c0-3.556-1.497-6.513-4.492-8.872-2.957-2.358-6.701-3.537-11.23-3.537-4.418 0-7.974.992-10.669 2.976-2.658 1.946-3.987 4.492-3.987 7.636 0 3.033 1.104 5.391 3.313 7.076 2.246 1.647 6.308 3.163 12.185 4.548 5.915 1.385 10.332 2.864 13.252 4.436 2.957 1.572 5.147 3.463 6.57 5.671 1.422 2.209 2.133 4.886 2.133 8.03 0 5.129-2.077 9.228-6.233 12.298-4.117 3.069-9.508 4.604-16.171 4.604-7.076 0-12.822-1.703-17.239-5.11-4.38-3.444-6.57-7.786-6.57-13.027h6.738c.262 3.931 1.909 7 4.942 9.209 3.069 2.171 7.112 3.257 12.129 3.257 4.679 0 8.46-1.03 11.342-3.089 2.883-2.059 4.324-4.66 4.324-7.805Zm64.407 1.46 1.011 5.222 1.347-5.503 14.6-46.494h5.727l14.432 46.101 1.572 6.402 1.291-5.896 12.466-46.607h6.963L982.082 164h-5.728l-15.61-48.179-.73-3.313-.73 3.369L943.955 164h-5.728l-17.632-60.757h6.907l12.859 46.775ZM1020.04 164h-6.74v-60.757h6.74V164Zm-7.92-78.332c0-1.273.42-2.34 1.24-3.201.82-.899 1.95-1.348 3.37-1.348 1.42 0 2.54.45 3.37 1.348.86.86 1.29 1.928 1.29 3.2 0 1.273-.43 2.34-1.29 3.201-.83.861-1.95 1.292-3.37 1.292-1.42 0-2.55-.43-3.37-1.292-.82-.86-1.24-1.928-1.24-3.2Zm36.67 2.021v15.554h12.58v5.503h-12.58v40.486c0 3.369.6 5.877 1.8 7.524 1.23 1.647 3.27 2.471 6.12 2.471 1.12 0 2.94-.187 5.45-.561l.28 5.502c-1.76.637-4.16.955-7.19.955-4.61 0-7.96-1.329-10.05-3.987-2.1-2.695-3.15-6.644-3.15-11.848v-40.542h-11.17v-5.503h11.17V87.689h6.74Zm33.19 25.83c2.21-3.631 5.03-6.439 8.48-8.423 3.44-1.984 7.2-2.976 11.28-2.976 6.52 0 11.36 1.834 14.55 5.503 3.18 3.669 4.79 9.172 4.83 16.509V164h-6.69v-39.924c-.03-5.428-1.19-9.471-3.48-12.129-2.24-2.658-5.86-3.987-10.84-3.987-4.15 0-7.84 1.31-11.06 3.931-3.18 2.583-5.54 6.083-7.07 10.5V164h-6.69V77.75h6.69v35.769ZM50.346 803v-55.254H40.295v-5.503h10.051v-7.356c0-6.214 1.573-10.987 4.717-14.319 3.182-3.331 7.6-4.997 13.252-4.997 2.546 0 4.923.318 7.131.954l-.505 5.616c-1.872-.45-3.912-.674-6.12-.674-3.707 0-6.59 1.16-8.648 3.481-2.06 2.284-3.089 5.541-3.089 9.771v7.524h14.488v5.503H57.084V803h-6.738Zm29.536-31.277c0-5.84 1.123-11.099 3.37-15.779 2.283-4.679 5.484-8.31 9.602-10.893 4.155-2.621 8.853-3.931 14.094-3.931 8.086 0 14.637 2.845 19.653 8.535 5.016 5.653 7.524 13.159 7.524 22.517v1.404c0 5.877-1.141 11.174-3.425 15.891-2.246 4.68-5.428 8.292-9.546 10.838-4.118 2.545-8.816 3.818-14.094 3.818-8.048 0-14.6-2.826-19.653-8.479-5.016-5.69-7.525-13.214-7.525-22.573v-1.348Zm6.739 1.853c0 7.263 1.871 13.233 5.615 17.913 3.78 4.642 8.722 6.963 14.824 6.963 6.065 0 10.968-2.321 14.712-6.963 3.781-4.68 5.671-10.838 5.671-18.474v-1.292c0-4.642-.861-8.891-2.583-12.746-1.722-3.856-4.136-6.832-7.243-8.929-3.107-2.133-6.664-3.2-10.669-3.2-5.99 0-10.875 2.358-14.656 7.075-3.78 4.679-5.671 10.819-5.671 18.418v1.235Zm89.506-25.605a25.091 25.091 0 0 0-4.548-.393c-4.193 0-7.749 1.179-10.669 3.537-2.882 2.321-4.941 5.709-6.177 10.164V803h-6.682v-60.757h6.57l.112 9.658c3.557-7.187 9.266-10.781 17.127-10.781 1.872 0 3.35.243 4.436.73l-.169 6.121Zm87.486 25.268c0 9.471-2.097 16.996-6.289 22.573-4.193 5.541-9.808 8.311-16.846 8.311-8.311 0-14.674-2.92-19.092-8.76v30.996h-6.682v-84.116h6.233l.337 8.591c4.38-6.476 10.725-9.714 19.036-9.714 7.262 0 12.952 2.752 17.07 8.255 4.155 5.502 6.233 13.139 6.233 22.91v.954Zm-6.738-1.179c0-7.749-1.591-13.87-4.773-18.362-3.182-4.492-7.618-6.738-13.309-6.738-4.117 0-7.655.992-10.612 2.976-2.958 1.984-5.223 4.867-6.795 8.647v29.144c1.61 3.481 3.912 6.139 6.907 7.973 2.995 1.835 6.532 2.752 10.613 2.752 5.652 0 10.051-2.246 13.196-6.739 3.182-4.529 4.773-11.08 4.773-19.653Zm49.75-24.089a25.091 25.091 0 0 0-4.548-.393c-4.193 0-7.749 1.179-10.669 3.537-2.882 2.321-4.941 5.709-6.177 10.164V803h-6.682v-60.757h6.57l.112 9.658c3.557-7.187 9.266-10.781 17.127-10.781 1.872 0 3.35.243 4.436.73l-.169 6.121ZM324.819 803h-6.738v-60.757h6.738V803Zm-7.918-78.333c0-1.272.412-2.339 1.236-3.2.823-.899 1.946-1.348 3.369-1.348 1.422 0 2.545.449 3.369 1.348.861.861 1.292 1.928 1.292 3.2 0 1.273-.431 2.34-1.292 3.201-.824.861-1.947 1.292-3.369 1.292-1.423 0-2.546-.431-3.369-1.292-.824-.861-1.236-1.928-1.236-3.201Zm45.147 69.068 18.474-51.492h6.907L364.743 803h-5.447l-22.797-60.757h6.906l18.643 51.492ZM435.944 803c-.673-1.909-1.104-4.736-1.291-8.479-2.359 3.07-5.372 5.447-9.041 7.131-3.631 1.647-7.487 2.471-11.567 2.471-5.84 0-10.575-1.628-14.207-4.885-3.593-3.257-5.39-7.375-5.39-12.354 0-5.914 2.452-10.594 7.356-14.038 4.941-3.444 11.81-5.166 20.608-5.166h12.185v-6.907c0-4.342-1.348-7.749-4.043-10.219-2.658-2.508-6.551-3.762-11.68-3.762-4.679 0-8.554 1.197-11.624 3.593-3.069 2.396-4.604 5.279-4.604 8.648l-6.738-.056c0-4.83 2.246-9.004 6.738-12.522 4.492-3.557 10.014-5.335 16.565-5.335 6.776 0 12.11 1.703 16.003 5.11 3.931 3.369 5.953 8.086 6.065 14.15v28.75c0 5.878.617 10.276 1.853 13.196V803h-7.188Zm-21.113-4.829c4.492 0 8.498-1.086 12.017-3.257 3.556-2.171 6.139-5.072 7.749-8.704v-13.364H422.58c-6.701.075-11.942 1.31-15.723 3.706-3.781 2.359-5.671 5.615-5.671 9.771 0 3.406 1.254 6.233 3.762 8.479 2.546 2.246 5.84 3.369 9.883 3.369Zm54.861-71.482v15.554h12.578v5.503h-12.578v40.486c0 3.369.599 5.877 1.797 7.524 1.235 1.647 3.275 2.471 6.12 2.471 1.123 0 2.939-.187 5.447-.561l.281 5.502c-1.76.637-4.155.955-7.188.955-4.604 0-7.955-1.329-10.051-3.987-2.096-2.695-3.144-6.644-3.144-11.848v-40.542h-11.175v-5.503h11.175v-15.554h6.738Zm50.032 77.434c-5.166 0-9.846-1.273-14.038-3.818-4.156-2.546-7.394-6.083-9.715-10.613-2.321-4.567-3.481-9.677-3.481-15.33v-2.414c0-5.84 1.123-11.1 3.369-15.779 2.283-4.679 5.447-8.348 9.49-11.006 4.043-2.695 8.422-4.043 13.139-4.043 7.375 0 13.215 2.527 17.52 7.581 4.342 5.016 6.513 11.885 6.513 20.608v3.762h-43.349v1.291c0 6.888 1.965 12.635 5.896 17.239 3.968 4.567 8.947 6.851 14.936 6.851 3.594 0 6.757-.655 9.49-1.966 2.77-1.31 5.278-3.406 7.525-6.289l4.211 3.201c-4.941 7.15-12.11 10.725-21.506 10.725Zm-1.236-57.275c-5.053 0-9.321 1.853-12.802 5.559-3.444 3.706-5.541 8.685-6.29 14.936h36.443v-.73c-.187-5.84-1.853-10.594-4.997-14.262-3.145-3.669-7.263-5.503-12.354-5.503ZM591.093 803h-6.738v-60.757h6.738V803Zm-7.917-78.333c0-1.272.412-2.339 1.235-3.2.824-.899 1.947-1.348 3.369-1.348 1.423 0 2.546.449 3.369 1.348.861.861 1.292 1.928 1.292 3.2 0 1.273-.431 2.34-1.292 3.201-.823.861-1.946 1.292-3.369 1.292-1.422 0-2.545-.431-3.369-1.292-.823-.861-1.235-1.928-1.235-3.201Zm32.624 17.576.225 10.388c2.283-3.743 5.128-6.588 8.535-8.535 3.407-1.984 7.169-2.976 11.287-2.976 6.513 0 11.361 1.834 14.543 5.503 3.182 3.669 4.792 9.172 4.829 16.509V803h-6.682v-39.924c-.037-5.428-1.198-9.471-3.481-12.129-2.246-2.658-5.859-3.987-10.838-3.987-4.155 0-7.842 1.31-11.062 3.931-3.182 2.583-5.54 6.083-7.075 10.5V803h-6.682v-60.757h6.401ZM677.456 803v-55.254h-10.052v-5.503h10.052v-7.356c0-6.214 1.572-10.987 4.716-14.319 3.182-3.331 7.6-4.997 13.252-4.997 2.546 0 4.923.318 7.132.954l-.506 5.616c-1.871-.45-3.912-.674-6.12-.674-3.706 0-6.589 1.16-8.648 3.481-2.059 2.284-3.088 5.541-3.088 9.771v7.524h14.487v5.503h-14.487V803h-6.738Zm29.536-31.277c0-5.84 1.123-11.099 3.369-15.779 2.283-4.679 5.484-8.31 9.602-10.893 4.155-2.621 8.853-3.931 14.094-3.931 8.086 0 14.637 2.845 19.653 8.535 5.017 5.653 7.525 13.159 7.525 22.517v1.404c0 5.877-1.142 11.174-3.425 15.891-2.247 4.68-5.428 8.292-9.546 10.838-4.118 2.545-8.816 3.818-14.095 3.818-8.048 0-14.599-2.826-19.653-8.479-5.016-5.69-7.524-13.214-7.524-22.573v-1.348Zm6.738 1.853c0 7.263 1.872 13.233 5.615 17.913 3.781 4.642 8.723 6.963 14.824 6.963 6.065 0 10.969-2.321 14.712-6.963 3.781-4.68 5.672-10.838 5.672-18.474v-1.292c0-4.642-.861-8.891-2.583-12.746-1.722-3.856-4.137-6.832-7.244-8.929-3.107-2.133-6.663-3.2-10.669-3.2-5.989 0-10.875 2.358-14.656 7.075-3.781 4.679-5.671 10.819-5.671 18.418v1.235Zm89.507-25.605a25.11 25.11 0 0 0-4.549-.393c-4.192 0-7.749 1.179-10.668 3.537-2.883 2.321-4.942 5.709-6.177 10.164V803h-6.682v-60.757h6.569l.113 9.658c3.556-7.187 9.265-10.781 17.126-10.781 1.872 0 3.351.243 4.436.73l-.168 6.121Zm16.789-5.728.225 9.883c2.246-3.669 5.054-6.42 8.423-8.254 3.369-1.835 7.112-2.752 11.23-2.752 9.584 0 15.667 3.931 18.25 11.792 2.171-3.781 5.072-6.682 8.703-8.704 3.632-2.058 7.637-3.088 12.017-3.088 13.027 0 19.672 7.113 19.934 21.338V803h-6.738v-40.037c-.038-5.428-1.217-9.452-3.538-12.072-2.283-2.621-6.027-3.931-11.23-3.931-4.829.075-8.91 1.647-12.241 4.717-3.332 3.032-5.185 6.738-5.56 11.118V803h-6.738v-40.542c-.037-5.203-1.273-9.078-3.706-11.624-2.396-2.583-6.102-3.874-11.118-3.874-4.23 0-7.861 1.217-10.894 3.65-3.032 2.396-5.278 5.971-6.738 10.725V803h-6.738v-60.757h6.457ZM954.23 803c-.673-1.909-1.104-4.736-1.291-8.479-2.358 3.07-5.372 5.447-9.041 7.131-3.631 1.647-7.487 2.471-11.567 2.471-5.84 0-10.575-1.628-14.206-4.885-3.594-3.257-5.391-7.375-5.391-12.354 0-5.914 2.452-10.594 7.356-14.038 4.941-3.444 11.811-5.166 20.608-5.166h12.185v-6.907c0-4.342-1.348-7.749-4.043-10.219-2.658-2.508-6.551-3.762-11.68-3.762-4.679 0-8.554 1.197-11.623 3.593-3.07 2.396-4.605 5.279-4.605 8.648l-6.738-.056c0-4.83 2.246-9.004 6.738-12.522 4.492-3.557 10.014-5.335 16.565-5.335 6.776 0 12.11 1.703 16.003 5.11 3.931 3.369 5.953 8.086 6.065 14.15v28.75c0 5.878.618 10.276 1.853 13.196V803h-7.188Zm-21.113-4.829c4.492 0 8.498-1.086 12.017-3.257 3.556-2.171 6.139-5.072 7.749-8.704v-13.364h-12.017c-6.701.075-11.942 1.31-15.722 3.706-3.781 2.359-5.672 5.615-5.672 9.771 0 3.406 1.254 6.233 3.762 8.479 2.546 2.246 5.84 3.369 9.883 3.369Zm54.861-71.482v15.554h12.582v5.503h-12.582v40.486c0 3.369.599 5.877 1.797 7.524 1.235 1.647 3.275 2.471 6.121 2.471 1.123 0 2.938-.187 5.444-.561l.28 5.502c-1.756.637-4.152.955-7.184.955-4.605 0-7.955-1.329-10.052-3.987-2.096-2.695-3.144-6.644-3.144-11.848v-40.542h-11.175v-5.503h11.175v-15.554h6.738ZM1022.01 803h-6.74v-60.757h6.74V803Zm-7.92-78.333c0-1.272.41-2.339 1.23-3.2.83-.899 1.95-1.348 3.37-1.348 1.43 0 2.55.449 3.37 1.348.86.861 1.29 1.928 1.29 3.2 0 1.273-.43 2.34-1.29 3.201-.82.861-1.94 1.292-3.37 1.292-1.42 0-2.54-.431-3.37-1.292-.82-.861-1.23-1.928-1.23-3.201Zm22.52 47.056c0-5.84 1.12-11.099 3.37-15.779 2.28-4.679 5.48-8.31 9.6-10.893 4.15-2.621 8.85-3.931 14.09-3.931 8.09 0 14.64 2.845 19.65 8.535 5.02 5.653 7.53 13.159 7.53 22.517v1.404c0 5.877-1.14 11.174-3.43 15.891-2.24 4.68-5.42 8.292-9.54 10.838-4.12 2.545-8.82 3.818-14.1 3.818-8.04 0-14.6-2.826-19.65-8.479-5.02-5.69-7.52-13.214-7.52-22.573v-1.348Zm6.73 1.853c0 7.263 1.88 13.233 5.62 17.913 3.78 4.642 8.72 6.963 14.82 6.963 6.07 0 10.97-2.321 14.72-6.963 3.78-4.68 5.67-10.838 5.67-18.474v-1.292c0-4.642-.86-8.891-2.59-12.746-1.72-3.856-4.13-6.832-7.24-8.929-3.11-2.133-6.66-3.2-10.67-3.2-5.99 0-10.87 2.358-14.65 7.075-3.79 4.679-5.68 10.819-5.68 18.418v1.235Zm67.84-31.333.22 10.388c2.28-3.743 5.13-6.588 8.54-8.535 3.4-1.984 7.16-2.976 11.28-2.976 6.52 0 11.36 1.834 14.55 5.503 3.18 3.669 4.79 9.172 4.83 16.509V803h-6.69v-39.924c-.03-5.428-1.19-9.471-3.48-12.129-2.24-2.658-5.86-3.987-10.84-3.987-4.15 0-7.84 1.31-11.06 3.931-3.18 2.583-5.54 6.083-7.07 10.5V803h-6.69v-60.757h6.41Z" fill="#000"/><defs><filter id="a" x="-46" y="-50" width="1288" height="988" filterUnits="userSpaceOnUse" color-interpolation-filters="sRGB"><feFlood flood-opacity="0" result="BackgroundImageFix"/><feGaussianBlur in="BackgroundImage" stdDeviation="25"/><feComposite in2="SourceAlpha" operator="in" result="effect1_backgroundBlur"/><feColorMatrix in="SourceAlpha" values="0 0 0 0 0 0 0 0 0 0 0 0 0 0 0 0 0 0 127 0" result="hardAlpha"/><feOffset dy="4"/><feGaussianBlur stdDeviation="2"/><feComposite in2="hardAlpha" operator="out"/><feColorMatrix values="0 0 0 0 0 0 0 0 0 0 0 0 0 0 0 0 0 0 0.25 0"/><feBlend in2="effect1_backgroundBlur" result="effect2_dropShadow"/><feBlend in="SourceGraphic" in2="effect2_dropShadow" result="shape"/></filter><filter id="c" x="37.336" y="222.812" width="1114.49" height="438.141" filterUnits="userSpaceOnUse" color-interpolation-filters="sRGB"><feFlood flood-opacity="0" result="BackgroundImageFix"/><feColorMatrix in="SourceAlpha" values="0 0 0 0 0 0 0 0 0 0 0 0 0 0 0 0 0 0 127 0" result="hardAlpha"/><feOffset/><feGaussianBlur stdDeviation="15"/><feComposite in2="hardAlpha" operator="out"/><feColorMatrix values="0 0 0 0 0.258824 0 0 0 0 0.258824 0 0 0 0 0.258824 0 0 0 0.75 0"/><feBlend in2="BackgroundImageFix" result="effect1_dropShadow"/><feBlend in="SourceGraphic" in2="effect1_dropShadow" result="shape"/></filter><clipPath id="b"><path fill="#fff" transform="translate(211.326 57.326)" d="M0 0h775.218v775.218H0z"/></clipPath></defs></svg>