<svg width="2444" height="1850" fill="none" xmlns="http://www.w3.org/2000/svg"><g filter="url(#a)"><rect x="4" width="2436" height="1842" rx="100" fill="#fff" fill-opacity=".65" shape-rendering="crispEdges"/></g><mask id="b" style="mask-type:alpha" maskUnits="userSpaceOnUse" x="4" y="0" width="2436" height="1842"><rect x="4" width="2436" height="1842" rx="100" fill="#181818"/></mask><g mask="url(#b)"><rect x="-159" y="865" width="846" height="376" rx="50" fill="#000"/><path fill-rule="evenodd" clip-rule="evenodd" d="M157 925H-99v256h256V925Zm-41.453 116.27-45.471-45.467c-6.351-6.352-16.649-6.352-23 0-6.352 6.347-6.352 16.647 0 22.997l17.97 17.97h-119c-8.836 0-16 7.17-16 16 0 8.84 7.164 16 16 16H65.048l-17.971 17.98c-6.352 6.35-6.352 16.64 0 23 6.351 6.35 16.648 6.35 23 0l45.471-45.48c6.351-6.35 6.351-16.64 0-23Z" fill="#fff"/><path d="M330.828 1077.78c0-5.91-2.075-10.57-6.225-13.99-4.151-3.47-11.744-6.74-22.779-9.81-11.035-3.13-19.092-6.52-24.17-10.19-7.226-5.17-10.84-11.96-10.84-20.36 0-8.15 3.345-14.77 10.035-19.85 6.738-5.122 15.332-7.685 25.781-7.685 7.08 0 13.403 1.367 18.97 4.101 5.615 2.734 9.961 6.544 13.037 11.424 3.076 4.88 4.614 10.33 4.614 16.33h-9.082c0-7.27-2.49-13.11-7.471-17.5-4.98-4.44-11.67-6.67-20.068-6.67-8.154 0-14.649 1.84-19.483 5.5-4.834 3.61-7.251 8.35-7.251 14.21 0 5.42 2.173 9.84 6.519 13.25 4.346 3.42 11.304 6.45 20.874 9.09 9.57 2.58 16.821 5.29 21.753 8.13 4.932 2.78 8.643 6.12 11.133 10.03 2.49 3.91 3.735 8.52 3.735 13.84 0 8.4-3.369 15.14-10.107 20.22-6.69 5.08-15.528 7.61-26.514 7.61-7.519 0-14.429-1.34-20.727-4.02-6.25-2.69-11.011-6.45-14.283-11.28-3.222-4.84-4.834-10.38-4.834-16.63h9.009c0 7.52 2.808 13.45 8.423 17.8 5.615 4.34 13.086 6.52 22.412 6.52 8.301 0 14.966-1.83 19.995-5.5 5.029-3.66 7.544-8.52 7.544-14.57Zm45.337-13.7-10.034 9.67V1104h-8.789V991.5h8.789v72l8.276-8.94 30.322-29.81h11.06l-33.618 33.4 36.548 45.85h-10.474l-32.08-39.92Zm64.526 39.92h-8.789v-79.25h8.789V1104Zm-10.327-102.17c0-1.66.537-3.055 1.612-4.178 1.074-1.172 2.539-1.757 4.394-1.757 1.856 0 3.32.585 4.395 1.757 1.123 1.123 1.684 2.518 1.684 4.178 0 1.66-.561 3.05-1.684 4.17-1.075 1.12-2.539 1.69-4.395 1.69-1.855 0-3.32-.57-4.394-1.69-1.075-1.12-1.612-2.51-1.612-4.17Zm97.925 63.35c0 12.36-2.734 22.17-8.203 29.44-5.469 7.23-12.793 10.84-21.973 10.84-10.84 0-19.14-3.8-24.902-11.42v40.43h-8.716v-109.72h8.13l.439 11.21c5.713-8.45 13.99-12.67 24.83-12.67 9.472 0 16.894 3.59 22.265 10.76 5.42 7.18 8.13 17.14 8.13 29.89v1.24Zm-8.789-1.54c0-10.1-2.075-18.09-6.226-23.95-4.15-5.86-9.936-8.79-17.358-8.79-5.371 0-9.985 1.3-13.843 3.89-3.857 2.58-6.811 6.34-8.862 11.28v38.01c2.1 4.54 5.102 8.01 9.009 10.4 3.906 2.39 8.52 3.59 13.842 3.59 7.374 0 13.111-2.93 17.212-8.79 4.151-5.91 6.226-14.45 6.226-25.64Z" fill="#fff"/><rect x="784" y="865" width="1015" height="376" rx="50" fill="#000"/><path fill-rule="evenodd" clip-rule="evenodd" d="M844 925h256v256H844V925Zm202.49 54.469c6.25 6.248 6.25 16.379 0 22.631l-51.384 51.38 51.384 51.38c6.25 6.25 6.25 16.38 0 22.63s-16.38 6.25-22.63 0l-51.382-51.38-51.382 51.38c-6.248 6.25-16.379 6.25-22.627 0-6.249-6.25-6.249-16.38 0-22.63l51.382-51.38-51.382-51.38c-6.249-6.252-6.249-16.383 0-22.631 6.248-6.249 16.379-6.249 22.627 0l51.382 51.381 51.382-51.381c6.25-6.249 16.38-6.249 22.63 0Z" fill="#fff"/><path d="M1288.99 1070.75c-1.22 11.23-5.25 19.82-12.09 25.78-6.78 5.96-15.84 8.93-27.17 8.93-7.91 0-14.92-1.97-21.02-5.93-6.05-3.95-10.74-9.54-14.06-16.77-3.32-7.28-5.01-15.58-5.06-24.9v-13.85c0-9.47 1.66-17.87 4.99-25.19 3.32-7.32 8.08-12.96 14.28-16.92 6.25-4.004 13.43-6.005 21.53-6.005 11.43 0 20.44 3.1 27.03 9.305 6.64 6.15 10.5 14.67 11.57 25.56h-9.08c-2.25-18.12-12.09-27.18-29.52-27.18-9.67 0-17.38 3.62-23.14 10.84-5.72 7.23-8.57 17.22-8.57 29.96v13.04c0 12.3 2.78 22.12 8.35 29.44 5.61 7.33 13.18 10.99 22.7 10.99 9.43 0 16.53-2.25 21.31-6.74 4.79-4.54 7.74-11.33 8.87-20.36h9.08Zm69.87 33.25c-.88-2.49-1.44-6.18-1.68-11.06-3.08 4-7.01 7.1-11.79 9.3-4.74 2.15-9.77 3.22-15.09 3.22-7.62 0-13.8-2.12-18.53-6.37-4.69-4.25-7.03-9.62-7.03-16.11 0-7.72 3.19-13.82 9.59-18.31 6.45-4.49 15.41-6.74 26.88-6.74h15.89v-9.01c0-5.66-1.75-10.11-5.27-13.33-3.47-3.27-8.54-4.91-15.23-4.91-6.11 0-11.16 1.57-15.16 4.69-4.01 3.13-6.01 6.89-6.01 11.28l-8.79-.07c0-6.3 2.93-11.75 8.79-16.33 5.86-4.64 13.06-6.96 21.61-6.96 8.83 0 15.79 2.22 20.87 6.66 5.13 4.4 7.76 10.55 7.91 18.46v37.5c0 7.67.81 13.4 2.42 17.21v.88h-9.38Zm-27.54-6.3c5.86 0 11.09-1.41 15.68-4.25 4.64-2.83 8-6.61 10.1-11.35v-17.43h-15.67c-8.74.1-15.58 1.71-20.51 4.83-4.93 3.08-7.39 7.33-7.39 12.75 0 4.44 1.63 8.13 4.9 11.06 3.32 2.93 7.62 4.39 12.89 4.39Zm66.29-72.95.29 13.55c2.98-4.88 6.69-8.59 11.13-11.13 4.45-2.59 9.35-3.88 14.72-3.88 8.5 0 14.82 2.39 18.97 7.17 4.16 4.79 6.25 11.97 6.3 21.54v52h-8.71v-52.08c-.05-7.08-1.56-12.35-4.54-15.82-2.93-3.46-7.65-5.2-14.14-5.2-5.42 0-10.23 1.71-14.43 5.13-4.15 3.37-7.22 7.94-9.23 13.7V1104h-8.71v-79.25h8.35Zm103.42 73.32c6.1 0 11.2-1.71 15.3-5.13 4.15-3.47 6.4-7.93 6.74-13.4h8.42c-.24 4.83-1.75 9.25-4.54 13.25-2.78 3.96-6.49 7.06-11.13 9.31-4.59 2.24-9.52 3.36-14.79 3.36-10.41 0-18.66-3.61-24.76-10.84-6.06-7.22-9.08-16.94-9.08-29.15v-2.63c0-7.81 1.36-14.72 4.1-20.73 2.73-6.01 6.64-10.64 11.72-13.92 5.12-3.27 11.11-4.9 17.94-4.9 8.69 0 15.85 2.59 21.46 7.76 5.67 5.18 8.69 11.99 9.08 20.44h-8.42c-.39-6.21-2.64-11.21-6.74-15.02-4.05-3.81-9.18-5.71-15.38-5.71-7.91 0-14.06 2.85-18.45 8.57-4.35 5.71-6.52 13.72-6.52 24.02v2.56c0 10.11 2.17 18 6.52 23.66 4.39 5.67 10.57 8.5 18.53 8.5Zm78.73 7.39c-6.74 0-12.84-1.66-18.31-4.98-5.42-3.32-9.64-7.93-12.67-13.84-3.03-5.96-4.54-12.62-4.54-19.99v-3.15c0-7.62 1.46-14.48 4.39-20.58 2.98-6.11 7.11-10.89 12.38-14.36 5.27-3.52 10.99-5.27 17.14-5.27 9.62 0 17.24 3.29 22.85 9.88 5.67 6.55 8.5 15.51 8.5 26.88v4.91h-56.55v1.69c0 8.98 2.57 16.48 7.69 22.48 5.18 5.96 11.67 8.94 19.49 8.94 4.68 0 8.81-.86 12.37-2.57 3.62-1.71 6.89-4.44 9.82-8.2l5.49 4.18c-6.44 9.32-15.79 13.98-28.05 13.98Zm-1.61-74.7c-6.59 0-12.16 2.41-16.7 7.25-4.49 4.83-7.23 11.33-8.2 19.48h47.53v-.95c-.24-7.62-2.42-13.82-6.52-18.6-4.1-4.79-9.47-7.18-16.11-7.18Zm58.23 73.24h-8.79V991.5h8.79V1104Z" fill="#fff"/><rect x="1896" y="865" width="816" height="376" rx="50" fill="#000"/><path fill-rule="evenodd" clip-rule="evenodd" d="M2212 925h-256v256h256V925Zm-100.53 109-8.49-8.48-83.54 83.55v8.49h8.49l83.54-83.56Zm18.25-61.326a9.248 9.248 0 0 1 6.46-2.674c2.4 0 4.7.83 6.55 2.674l21.57 21.58a9.181 9.181 0 0 1 0 13.006l-16.87 16.87-34.58-34.579 16.87-16.877ZM2001 1101.42l101.98-102.001 34.58 34.581-101.98 102H2001v-34.58Z" fill="#fff"/><path d="M2384.36 1052.88h-49.87v43.5h57.34v7.62h-66.35V997.359h65.99v7.691h-56.98v40.21h49.87v7.62Zm19.49 10.76c0-12.3 2.73-22.09 8.2-29.37 5.52-7.32 12.99-10.98 22.41-10.98 10.69 0 18.85 4.22 24.46 12.67V991.5h8.72V1104h-8.2l-.37-10.55c-5.61 8.01-13.87 12.01-24.76 12.01-9.13 0-16.5-3.66-22.11-10.98-5.57-7.37-8.35-17.31-8.35-29.81v-1.03Zm8.86 1.54c0 10.11 2.02 18.09 6.08 23.95 4.05 5.81 9.76 8.72 17.14 8.72 10.79 0 18.45-4.76 22.99-14.28v-37.21c-4.54-10.3-12.15-15.46-22.85-15.46-7.37 0-13.11 2.91-17.21 8.72-4.1 5.76-6.15 14.28-6.15 25.56Zm87.82 38.82h-8.79v-79.25h8.79V1104Zm-10.33-102.17c0-1.66.54-3.055 1.61-4.178 1.07-1.172 2.54-1.757 4.39-1.757 1.86 0 3.32.585 4.4 1.757 1.12 1.123 1.68 2.518 1.68 4.178 0 1.66-.56 3.05-1.68 4.17-1.08 1.12-2.54 1.69-4.4 1.69-1.85 0-3.32-.57-4.39-1.69-1.07-1.12-1.61-2.51-1.61-4.17Zm47.83 2.63v20.29h16.4v7.18h-16.4v52.81c0 4.39.78 7.66 2.34 9.81 1.61 2.15 4.27 3.22 7.98 3.22 1.47 0 3.84-.24 7.11-.73l.36 7.18c-2.29.83-5.42 1.24-9.37 1.24-6.01 0-10.38-1.73-13.11-5.2-2.74-3.51-4.1-8.66-4.1-15.45v-52.88h-14.58v-7.18h14.58v-20.29h8.79Z" fill="#fff"/><rect x="-1055" y="1280" width="1312" height="376" rx="50" fill="#000"/><path d="M-625.523 1519v-106.64h29.809c8.74 0 16.577 2 23.511 6.01 6.933 3.95 12.329 9.64 16.186 17.06 3.907 7.42 5.86 15.87 5.86 25.34v9.82c0 9.52-1.929 17.97-5.786 25.34-3.858 7.37-9.302 13.06-16.333 17.06-6.983 4.01-15.015 6.01-24.097 6.01h-29.15Zm9.008-98.95v91.33h20.215c11.231 0 20.239-3.71 27.027-11.13 6.787-7.47 10.18-17.55 10.18-30.25v-9.37c0-12.26-3.345-22.07-10.034-29.45-6.689-7.37-15.503-11.08-26.44-11.13h-20.948Zm117.92 100.41c-6.738 0-12.842-1.66-18.31-4.98-5.42-3.32-9.644-7.93-12.671-13.84-3.028-5.96-4.541-12.62-4.541-19.99v-3.15c0-7.62 1.465-14.48 4.394-20.58 2.979-6.11 7.105-10.89 12.378-14.36 5.274-3.52 10.987-5.27 17.139-5.27 9.619 0 17.236 3.29 22.852 9.88 5.664 6.55 8.496 15.51 8.496 26.88v4.91h-56.543v1.69c0 8.98 2.563 16.48 7.69 22.48 5.176 5.96 11.67 8.94 19.482 8.94 4.688 0 8.814-.86 12.378-2.57 3.614-1.71 6.885-4.44 9.815-8.2l5.493 4.18c-6.445 9.32-15.796 13.98-28.052 13.98Zm-1.611-74.7c-6.592 0-12.158 2.41-16.699 7.25-4.492 4.83-7.227 11.33-8.203 19.48h47.534v-.95c-.244-7.62-2.417-13.82-6.519-18.6-4.101-4.79-9.472-7.18-16.113-7.18Zm95.874 53.1c0-4.35-1.758-7.84-5.273-10.48-3.467-2.63-8.716-4.68-15.748-6.15-7.031-1.51-12.5-3.22-16.406-5.12-3.857-1.96-6.738-4.33-8.642-7.11-1.856-2.78-2.784-6.15-2.784-10.11 0-6.25 2.613-11.4 7.837-15.45 5.225-4.1 11.914-6.15 20.069-6.15 8.838 0 15.918 2.19 21.24 6.59 5.371 4.34 8.057 10.03 8.057 17.06h-8.789c0-4.63-1.954-8.49-5.86-11.57-3.857-3.07-8.74-4.61-14.648-4.61-5.762 0-10.401 1.29-13.916 3.88-3.467 2.54-5.201 5.86-5.201 9.96 0 3.96 1.441 7.03 4.322 9.23 2.929 2.15 8.227 4.13 15.893 5.93 7.715 1.81 13.477 3.74 17.285 5.79 3.858 2.05 6.714 4.51 8.57 7.4 1.855 2.88 2.783 6.37 2.783 10.47 0 6.69-2.71 12.04-8.13 16.04-5.371 4-12.402 6-21.094 6-9.228 0-16.723-2.22-22.485-6.66-5.713-4.49-8.569-10.16-8.569-16.99h8.789c.342 5.12 2.49 9.13 6.445 12.01 4.004 2.83 9.277 4.25 15.82 4.25 6.104 0 11.036-1.35 14.795-4.03 3.76-2.69 5.64-6.08 5.64-10.18Zm57.861 14.21c6.104 0 11.206-1.71 15.308-5.13 4.15-3.47 6.396-7.93 6.738-13.4h8.423c-.244 4.83-1.758 9.25-4.541 13.25-2.783 3.96-6.494 7.06-11.133 9.31-4.59 2.24-9.521 3.36-14.795 3.36-10.4 0-18.652-3.61-24.756-10.84-6.054-7.22-9.082-16.94-9.082-29.15v-2.63c0-7.81 1.368-14.72 4.102-20.73s6.641-10.64 11.719-13.92c5.127-3.27 11.108-4.9 17.944-4.9 8.691 0 15.845 2.59 21.46 7.76 5.664 5.18 8.691 11.99 9.082 20.44h-8.423c-.39-6.21-2.637-11.21-6.738-15.02-4.053-3.81-9.18-5.71-15.381-5.71-7.91 0-14.062 2.85-18.457 8.57-4.346 5.71-6.519 13.72-6.519 24.02v2.56c0 10.11 2.173 18 6.519 23.66 4.395 5.67 10.571 8.5 18.53 8.5Zm84.668-65.85c-1.855-.34-3.833-.51-5.932-.51-5.469 0-10.108 1.54-13.916 4.61-3.76 3.03-6.446 7.45-8.057 13.26V1519h-8.716v-79.25h8.57l.146 12.6c4.639-9.38 12.085-14.06 22.339-14.06 2.441 0 4.37.31 5.786.95l-.22 7.98Zm23.731 71.78h-8.789v-79.25h8.789V1519Zm-10.327-102.17c0-1.66.537-3.05 1.611-4.18 1.074-1.17 2.539-1.76 4.394-1.76 1.856 0 3.321.59 4.395 1.76 1.123 1.13 1.685 2.52 1.685 4.18 0 1.66-.562 3.05-1.685 4.17-1.074 1.12-2.539 1.69-4.395 1.69-1.855 0-3.32-.57-4.394-1.69-1.074-1.12-1.611-2.51-1.611-4.17Zm97.924 63.35c0 12.36-2.734 22.17-8.203 29.44-5.468 7.23-12.793 10.84-21.972 10.84-10.84 0-19.141-3.8-24.903-11.42v40.43h-8.716v-109.72h8.13l.44 11.21c5.713-8.45 13.989-12.67 24.829-12.67 9.473 0 16.894 3.59 22.266 10.76 5.419 7.18 8.129 17.14 8.129 29.89v1.24Zm-8.789-1.54c0-10.1-2.075-18.09-6.225-23.95-4.151-5.86-9.937-8.79-17.359-8.79-5.371 0-9.985 1.3-13.842 3.89-3.858 2.58-6.812 6.34-8.863 11.28v38.01c2.1 4.54 5.103 8.01 9.009 10.4 3.906 2.39 8.521 3.59 13.843 3.59 7.373 0 13.11-2.93 17.212-8.79 4.15-5.91 6.225-14.45 6.225-25.64Zm41.895-59.18v20.29h16.406v7.18h-16.406v52.81c0 4.39.781 7.66 2.344 9.81 1.611 2.15 4.272 3.22 7.983 3.22 1.465 0 3.833-.24 7.105-.73l.366 7.18c-2.295.83-5.42 1.24-9.375 1.24-6.006 0-10.376-1.73-13.111-5.2-2.734-3.51-4.101-8.66-4.101-15.45v-52.88h-14.575v-7.18h14.575v-20.29h8.789Zm44.385 99.54h-8.79v-79.25h8.79V1519Zm-10.328-102.17c0-1.66.538-3.05 1.612-4.18 1.074-1.17 2.539-1.76 4.394-1.76 1.856 0 3.32.59 4.395 1.76 1.123 1.13 1.684 2.52 1.684 4.18 0 1.66-.561 3.05-1.684 4.17-1.074 1.12-2.54 1.69-4.395 1.69-1.855 0-3.32-.57-4.394-1.69-1.074-1.12-1.611-2.51-1.611-4.17Zm29.37 61.37c0-7.61 1.465-14.47 4.395-20.58 2.979-6.1 7.153-10.84 12.524-14.21 5.42-3.41 11.548-5.12 18.384-5.12 10.547 0 19.092 3.71 25.635 11.13 6.543 7.37 9.815 17.16 9.815 29.37v1.83c0 7.67-1.49 14.58-4.468 20.73-2.93 6.1-7.08 10.81-12.451 14.13-5.371 3.32-11.5 4.98-18.384 4.98-10.498 0-19.043-3.68-25.635-11.05-6.543-7.43-9.814-17.24-9.814-29.45v-1.76Zm8.79 2.42c0 9.47 2.441 17.26 7.324 23.37 4.931 6.05 11.377 9.08 19.336 9.08 7.91 0 14.306-3.03 19.19-9.08 4.93-6.11 7.397-14.14 7.397-24.1v-1.69c0-6.05-1.123-11.59-3.37-16.62-2.246-5.03-5.395-8.91-9.448-11.65-4.052-2.78-8.691-4.17-13.916-4.17-7.812 0-14.184 3.07-19.116 9.23-4.931 6.1-7.397 14.11-7.397 24.02v1.61Zm88.476-40.87.293 13.55c2.979-4.88 6.69-8.59 11.133-11.13 4.443-2.59 9.35-3.88 14.722-3.88 8.496 0 14.819 2.39 18.97 7.17 4.15 4.79 6.25 11.97 6.298 21.54v52h-8.716v-52.08c-.048-7.08-1.562-12.35-4.54-15.82-2.93-3.46-7.642-5.2-14.136-5.2-5.42 0-10.23 1.71-14.43 5.13-4.15 3.37-7.226 7.94-9.228 13.7V1519h-8.715v-79.25h8.35Z" fill="#fff"/><rect x="354" y="1280" width="849" height="376" rx="50" fill="#000"/><path fill-rule="evenodd" clip-rule="evenodd" d="M414 1340h256v256H414v-256Zm77.047 93.12-42.27-14.77v-20.22l63.369 26.55v17.1l-63.369 26.63v-20.3l42.27-14.99Zm158 31.84h-110v12.34h110v-12.34Z" fill="#fff"/><path d="M855.84 1420.05h-36.548V1519h-9.009v-98.95h-36.474v-7.69h82.031v7.69Zm25.049 98.95H872.1v-79.25h8.789V1519Zm-10.327-102.17c0-1.66.537-3.05 1.611-4.18 1.074-1.17 2.539-1.76 4.394-1.76 1.856 0 3.321.59 4.395 1.76 1.123 1.13 1.684 2.52 1.684 4.18 0 1.66-.561 3.05-1.684 4.17-1.074 1.12-2.539 1.69-4.395 1.69-1.855 0-3.32-.57-4.394-1.69-1.074-1.12-1.611-2.51-1.611-4.17Zm47.827 2.63v20.29h16.406v7.18h-16.406v52.81c0 4.39.781 7.66 2.343 9.81 1.612 2.15 4.273 3.22 7.984 3.22 1.465 0 3.833-.24 7.104-.73l.367 7.18c-2.295.83-5.42 1.24-9.375 1.24-6.006 0-10.376-1.73-13.111-5.2-2.734-3.51-4.101-8.66-4.101-15.45v-52.88h-14.576v-7.18H909.6v-20.29h8.789Zm44.384 99.54h-8.789v-112.5h8.789V1519Zm54.567 1.46c-6.74 0-12.84-1.66-18.312-4.98-5.42-3.32-9.643-7.93-12.671-13.84-3.027-5.96-4.541-12.62-4.541-19.99v-3.15c0-7.62 1.465-14.48 4.395-20.58 2.978-6.11 7.104-10.89 12.378-14.36 5.271-3.52 10.991-5.27 17.141-5.27 9.62 0 17.23 3.29 22.85 9.88 5.66 6.55 8.5 15.51 8.5 26.88v4.91h-56.548v1.69c0 8.98 2.564 16.48 7.691 22.48 5.177 5.96 11.667 8.94 19.487 8.94 4.68 0 8.81-.86 12.37-2.57 3.62-1.71 6.89-4.44 9.82-8.2l5.49 4.18c-6.44 9.32-15.8 13.98-28.05 13.98Zm-1.61-74.7c-6.59 0-12.16 2.41-16.702 7.25-4.492 4.83-7.226 11.33-8.203 19.48h47.535v-.95c-.24-7.62-2.42-13.82-6.52-18.6-4.1-4.79-9.47-7.18-16.11-7.18Z" fill="#fff"/><rect x="1300" y="1280" width="999" height="376" rx="50" fill="#000"/><path fill-rule="evenodd" clip-rule="evenodd" d="M1616 1340h-256v256h256v-256Zm-30 171.5c0-26.12-10.38-51.18-28.85-69.65a98.512 98.512 0 0 0-69.65-28.85 98.512 98.512 0 0 0-69.65 28.85 98.512 98.512 0 0 0-28.85 69.65h19.7c0-20.9 8.3-40.94 23.08-55.72a78.793 78.793 0 0 1 55.72-23.08c20.9 0 40.94 8.3 55.72 23.08a78.793 78.793 0 0 1 23.08 55.72h19.7Zm-137.9 0h-19.7c0-15.67 6.23-30.71 17.31-41.79a59.116 59.116 0 0 1 41.79-17.31c15.67 0 30.71 6.23 41.79 17.31a59.116 59.116 0 0 1 17.31 41.79h-19.7a39.397 39.397 0 0 0-39.4-39.4 39.397 39.397 0 0 0-39.4 39.4Z" fill="#fff"/><path d="M1804.99 1485.75c-1.22 11.23-5.25 19.82-12.09 25.78-6.78 5.96-15.84 8.93-27.17 8.93-7.91 0-14.92-1.97-21.02-5.93-6.05-3.95-10.74-9.54-14.06-16.77-3.32-7.28-5.01-15.58-5.06-24.9v-13.85c0-9.47 1.66-17.87 4.99-25.19 3.32-7.32 8.08-12.96 14.28-16.92 6.25-4 13.43-6.01 21.53-6.01 11.43 0 20.44 3.11 27.03 9.31 6.64 6.15 10.5 14.67 11.57 25.56h-9.08c-2.25-18.12-12.09-27.18-29.52-27.18-9.67 0-17.38 3.62-23.14 10.84-5.72 7.23-8.57 17.22-8.57 29.96v13.04c0 12.3 2.78 22.12 8.35 29.44 5.61 7.33 13.18 10.99 22.7 10.99 9.43 0 16.53-2.25 21.31-6.74 4.79-4.54 7.74-11.33 8.87-20.36h9.08Zm15.01-7.55c0-7.61 1.47-14.47 4.4-20.58 2.98-6.1 7.15-10.84 12.52-14.21 5.42-3.41 11.55-5.12 18.39-5.12 10.54 0 19.09 3.71 25.63 11.13 6.54 7.37 9.82 17.16 9.82 29.37v1.83c0 7.67-1.49 14.58-4.47 20.73-2.93 6.1-7.08 10.81-12.45 14.13-5.37 3.32-11.5 4.98-18.39 4.98-10.49 0-19.04-3.68-25.63-11.05-6.54-7.43-9.82-17.24-9.82-29.45v-1.76Zm8.79 2.42c0 9.47 2.44 17.26 7.33 23.37 4.93 6.05 11.37 9.08 19.33 9.08 7.91 0 14.31-3.03 19.19-9.08 4.93-6.11 7.4-14.14 7.4-24.1v-1.69c0-6.05-1.12-11.59-3.37-16.62-2.25-5.03-5.39-8.91-9.45-11.65-4.05-2.78-8.69-4.17-13.91-4.17-7.82 0-14.19 3.07-19.12 9.23-4.93 6.1-7.4 14.11-7.4 24.02v1.61Zm89.94 38.38h-8.78v-112.5h8.78V1519Zm19.05-40.8c0-7.61 1.46-14.47 4.39-20.58 2.98-6.1 7.16-10.84 12.53-14.21 5.42-3.41 11.54-5.12 18.38-5.12 10.55 0 19.09 3.71 25.63 11.13 6.55 7.37 9.82 17.16 9.82 29.37v1.83c0 7.67-1.49 14.58-4.47 20.73-2.93 6.1-7.08 10.81-12.45 14.13-5.37 3.32-11.5 4.98-18.38 4.98-10.5 0-19.05-3.68-25.64-11.05-6.54-7.43-9.81-17.24-9.81-29.45v-1.76Zm8.79 2.42c0 9.47 2.44 17.26 7.32 23.37 4.93 6.05 11.38 9.08 19.34 9.08 7.91 0 14.3-3.03 19.19-9.08 4.93-6.11 7.39-14.14 7.39-24.1v-1.69c0-6.05-1.12-11.59-3.37-16.62-2.24-5.03-5.39-8.91-9.44-11.65-4.06-2.78-8.7-4.17-13.92-4.17-7.81 0-14.18 3.07-19.12 9.23-4.93 6.1-7.39 14.11-7.39 24.02v1.61Zm131.1 28.35c-5.27 7.66-13.7 11.49-25.27 11.49-8.45 0-14.87-2.44-19.26-7.32-4.4-4.93-6.64-12.21-6.74-21.83v-51.56h8.72v50.47c0 15.08 6.1 22.63 18.31 22.63 12.69 0 20.72-5.25 24.09-15.75v-57.35h8.79V1519h-8.49l-.15-10.03Zm68.12-61.75c-1.86-.34-3.84-.51-5.94-.51-5.47 0-10.1 1.54-13.91 4.61-3.76 3.03-6.45 7.45-8.06 13.26V1519h-8.72v-79.25h8.57l.15 12.6c4.64-9.38 12.08-14.06 22.34-14.06 2.44 0 4.37.31 5.78.95l-.21 7.98Z" fill="#fff"/><rect x="2396" y="1280" width="816" height="376" rx="50" fill="#000"/><rect x="-486" y="1698" width="1312" height="376" rx="50" fill="#000"/><path d="M-56.523 1937v-106.64h29.81c8.74 0 16.576 2 23.51 6.01 6.933 3.95 12.329 9.64 16.186 17.06 3.907 7.42 5.86 15.87 5.86 25.34v9.82c0 9.52-1.929 17.97-5.786 25.34-3.858 7.37-9.302 13.06-16.333 17.06-6.983 4.01-15.015 6.01-24.097 6.01h-29.15Zm9.008-98.95v91.33H-27.3c11.23 0 20.24-3.71 27.027-11.13 6.787-7.47 10.18-17.55 10.18-30.25v-9.37c0-12.26-3.345-22.07-10.034-29.45-6.69-7.37-15.503-11.08-26.44-11.13h-20.948Zm117.92 100.41c-6.738 0-12.842-1.66-18.31-4.98-5.42-3.32-9.644-7.93-12.671-13.84-3.027-5.96-4.541-12.62-4.541-19.99v-3.15c0-7.62 1.465-14.48 4.394-20.58 2.979-6.11 7.105-10.89 12.378-14.36 5.274-3.52 10.987-5.27 17.139-5.27 9.62 0 17.236 3.29 22.852 9.88 5.664 6.55 8.496 15.51 8.496 26.88v4.91H43.599v1.69c0 8.98 2.563 16.48 7.69 22.48 5.176 5.96 11.67 8.94 19.483 8.94 4.687 0 8.813-.86 12.377-2.57 3.614-1.71 6.885-4.44 9.815-8.2l5.493 4.18c-6.445 9.32-15.796 13.98-28.052 13.98Zm-1.611-74.7c-6.592 0-12.158 2.41-16.7 7.25-4.492 4.83-7.226 11.33-8.202 19.48h47.534v-.95c-.244-7.62-2.417-13.82-6.519-18.6-4.101-4.79-9.472-7.18-16.113-7.18Zm95.874 53.1c0-4.35-1.758-7.84-5.273-10.48-3.467-2.63-8.716-4.68-15.748-6.15-7.031-1.51-12.5-3.22-16.406-5.12-3.857-1.96-6.738-4.33-8.642-7.11-1.856-2.78-2.784-6.15-2.784-10.11 0-6.25 2.613-11.4 7.837-15.45 5.225-4.1 11.914-6.15 20.069-6.15 8.838 0 15.918 2.19 21.24 6.59 5.371 4.34 8.057 10.03 8.057 17.06h-8.789c0-4.63-1.954-8.49-5.86-11.57-3.857-3.07-8.74-4.61-14.648-4.61-5.762 0-10.401 1.29-13.916 3.88-3.467 2.54-5.201 5.86-5.201 9.96 0 3.96 1.441 7.03 4.322 9.23 2.929 2.15 8.227 4.13 15.893 5.93 7.715 1.81 13.477 3.74 17.285 5.79 3.858 2.05 6.714 4.51 8.57 7.4 1.855 2.88 2.783 6.37 2.783 10.47 0 6.69-2.71 12.04-8.13 16.04-5.371 4-12.402 6-21.094 6-9.228 0-16.723-2.22-22.485-6.66-5.713-4.49-8.569-10.16-8.569-16.99h8.789c.342 5.12 2.49 9.13 6.445 12.01 4.004 2.83 9.277 4.25 15.82 4.25 6.104 0 11.036-1.35 14.795-4.03 3.76-2.69 5.64-6.08 5.64-10.18Zm57.861 14.21c6.104 0 11.206-1.71 15.308-5.13 4.15-3.47 6.396-7.93 6.738-13.4h8.423c-.244 4.83-1.758 9.25-4.541 13.25-2.783 3.96-6.494 7.06-11.133 9.31-4.59 2.24-9.521 3.36-14.795 3.36-10.4 0-18.652-3.61-24.756-10.84-6.054-7.22-9.082-16.94-9.082-29.15v-2.63c0-7.81 1.368-14.72 4.102-20.73s6.641-10.64 11.719-13.92c5.127-3.27 11.108-4.9 17.944-4.9 8.691 0 15.845 2.59 21.46 7.76 5.664 5.18 8.691 11.99 9.082 20.44h-8.423c-.39-6.21-2.637-11.21-6.738-15.02-4.053-3.81-9.18-5.71-15.381-5.71-7.91 0-14.062 2.85-18.457 8.57-4.346 5.71-6.519 13.72-6.519 24.02v2.56c0 10.11 2.173 18 6.519 23.66 4.395 5.67 10.571 8.5 18.53 8.5Zm84.668-65.85c-1.855-.34-3.833-.51-5.932-.51-5.469 0-10.108 1.54-13.916 4.61-3.76 3.03-6.446 7.45-8.057 13.26V1937h-8.716v-79.25h8.57l.146 12.6c4.639-9.38 12.085-14.06 22.339-14.06 2.441 0 4.37.31 5.786.95l-.22 7.98Zm23.731 71.78h-8.789v-79.25h8.789V1937Zm-10.327-102.17c0-1.66.537-3.05 1.611-4.18 1.074-1.17 2.539-1.76 4.394-1.76 1.856 0 3.321.59 4.395 1.76 1.123 1.13 1.685 2.52 1.685 4.18 0 1.66-.562 3.05-1.685 4.17-1.074 1.12-2.539 1.69-4.395 1.69-1.855 0-3.32-.57-4.394-1.69-1.074-1.12-1.611-2.51-1.611-4.17Zm97.924 63.35c0 12.36-2.734 22.17-8.203 29.44-5.468 7.23-12.793 10.84-21.972 10.84-10.84 0-19.141-3.8-24.903-11.42v40.43h-8.716v-109.72h8.13l.44 11.21c5.713-8.45 13.989-12.67 24.829-12.67 9.473 0 16.894 3.59 22.266 10.76 5.419 7.18 8.129 17.14 8.129 29.89v1.24Zm-8.789-1.54c0-10.1-2.075-18.09-6.225-23.95-4.151-5.86-9.937-8.79-17.359-8.79-5.371 0-9.985 1.3-13.842 3.89-3.858 2.58-6.812 6.34-8.863 11.28v38.01c2.1 4.54 5.103 8.01 9.009 10.4 3.906 2.39 8.521 3.59 13.843 3.59 7.373 0 13.11-2.93 17.212-8.79 4.15-5.91 6.225-14.45 6.225-25.64Zm41.895-59.18v20.29h16.406v7.18h-16.406v52.81c0 4.39.781 7.66 2.344 9.81 1.611 2.15 4.272 3.22 7.983 3.22 1.465 0 3.833-.24 7.104-.73l.367 7.18c-2.295.83-5.42 1.24-9.375 1.24-6.006 0-10.376-1.73-13.111-5.2-2.734-3.51-4.101-8.66-4.101-15.45v-52.88h-14.575v-7.18h14.575v-20.29h8.789Zm44.385 99.54h-8.789v-79.25h8.789V1937Zm-10.328-102.17c0-1.66.538-3.05 1.612-4.18 1.074-1.17 2.539-1.76 4.394-1.76 1.856 0 3.321.59 4.395 1.76 1.123 1.13 1.684 2.52 1.684 4.18 0 1.66-.561 3.05-1.684 4.17-1.074 1.12-2.539 1.69-4.395 1.69-1.855 0-3.32-.57-4.394-1.69-1.074-1.12-1.612-2.51-1.612-4.17Zm29.371 61.37c0-7.61 1.464-14.47 4.394-20.58 2.979-6.1 7.153-10.84 12.525-14.21 5.419-3.41 11.547-5.12 18.383-5.12 10.547 0 19.092 3.71 25.635 11.13 6.543 7.37 9.815 17.16 9.815 29.37v1.83c0 7.67-1.49 14.58-4.468 20.73-2.93 6.1-7.08 10.81-12.451 14.13-5.371 3.32-11.499 4.98-18.384 4.98-10.498 0-19.043-3.68-25.635-11.05-6.543-7.43-9.814-17.24-9.814-29.45v-1.76Zm8.789 2.42c0 9.47 2.441 17.26 7.324 23.37 4.932 6.05 11.377 9.08 19.336 9.08 7.91 0 14.306-3.03 19.189-9.08 4.932-6.11 7.398-14.14 7.398-24.1v-1.69c0-6.05-1.123-11.59-3.369-16.62-2.247-5.03-5.396-8.91-9.449-11.65-4.052-2.78-8.691-4.17-13.916-4.17-7.812 0-14.184 3.07-19.116 9.23-4.932 6.1-7.397 14.11-7.397 24.02v1.61Zm88.476-40.87.293 13.55c2.979-4.88 6.69-8.59 11.133-11.13 4.443-2.59 9.351-3.88 14.722-3.88 8.496 0 14.819 2.39 18.969 7.17 4.151 4.79 6.25 11.97 6.299 21.54v52h-8.716v-52.08c-.048-7.08-1.562-12.35-4.541-15.82-2.929-3.46-7.641-5.2-14.135-5.2-5.42 0-10.23 1.71-14.429 5.13-4.15 3.37-7.227 7.94-9.229 13.7V1937h-8.715v-79.25h8.349Z" fill="#fff"/><rect x="923" y="1698" width="1063" height="376" rx="50" fill="#000"/><path fill-rule="evenodd" clip-rule="evenodd" d="M983 1758h256v256H983v-256Zm137.47 105.78H1103l-2.47-73.41h22.41l-2.47 73.41Zm-8.74 11.5c3.55 0 6.38 1.04 8.52 3.13 1.35 1.29 2.29 2.81 2.8 4.55h95v12.34h-98.94c-1.97 1.45-4.43 2.17-7.38 2.17-3.49 0-6.32-1.05-8.51-3.13-2.13-2.09-3.2-4.73-3.2-7.93 0-3.2 1.07-5.85 3.2-7.93 2.19-2.14 5.02-3.2 8.51-3.2Z" fill="#fff"/><path d="M1412.83 1910.78c0-5.91-2.08-10.57-6.23-13.99-4.15-3.47-11.74-6.74-22.78-9.81-11.03-3.13-19.09-6.52-24.17-10.19-7.22-5.17-10.84-11.96-10.84-20.36 0-8.15 3.35-14.77 10.04-19.85 6.74-5.12 15.33-7.69 25.78-7.69 7.08 0 13.4 1.37 18.97 4.11 5.61 2.73 9.96 6.54 13.04 11.42 3.07 4.88 4.61 10.33 4.61 16.33h-9.08c0-7.27-2.49-13.11-7.47-17.5-4.98-4.44-11.67-6.67-20.07-6.67-8.15 0-14.65 1.84-19.48 5.5-4.84 3.61-7.25 8.35-7.25 14.21 0 5.42 2.17 9.84 6.52 13.25 4.34 3.42 11.3 6.45 20.87 9.09 9.57 2.58 16.82 5.29 21.75 8.13 4.93 2.78 8.64 6.12 11.13 10.03 2.5 3.91 3.74 8.52 3.74 13.84 0 8.4-3.37 15.14-10.11 20.22-6.69 5.08-15.52 7.61-26.51 7.61-7.52 0-14.43-1.34-20.73-4.02-6.25-2.69-11.01-6.45-14.28-11.28-3.22-4.84-4.83-10.38-4.83-16.63h9c0 7.52 2.81 13.45 8.43 17.8 5.61 4.34 13.08 6.52 22.41 6.52 8.3 0 14.96-1.83 19.99-5.5 5.03-3.66 7.55-8.52 7.55-14.57Zm76.54 26.22c-.88-2.49-1.44-6.18-1.69-11.06-3.07 4-7.01 7.1-11.79 9.3-4.74 2.15-9.77 3.22-15.09 3.22-7.62 0-13.79-2.12-18.53-6.37-4.69-4.25-7.03-9.62-7.03-16.11 0-7.72 3.2-13.82 9.59-18.31 6.45-4.49 15.41-6.74 26.88-6.74h15.9v-9.01c0-5.66-1.76-10.11-5.28-13.33-3.46-3.27-8.54-4.91-15.23-4.91-6.1 0-11.16 1.57-15.16 4.69-4 3.13-6.01 6.89-6.01 11.28l-8.79-.07c0-6.3 2.93-11.75 8.79-16.33 5.86-4.64 13.07-6.96 21.61-6.96 8.84 0 15.8 2.22 20.87 6.66 5.13 4.4 7.77 10.55 7.91 18.46v37.5c0 7.67.81 13.4 2.42 17.21v.88h-9.37Zm-27.54-6.3c5.86 0 11.08-1.41 15.67-4.25 4.64-2.83 8.01-6.61 10.11-11.35v-17.43h-15.68c-8.74.1-15.57 1.71-20.5 4.83-4.93 3.08-7.4 7.33-7.4 12.75 0 4.44 1.64 8.13 4.91 11.06 3.32 2.93 7.61 4.39 12.89 4.39Zm65.92-72.95.29 12.89c2.93-4.78 6.59-8.37 10.98-10.76 4.4-2.4 9.28-3.59 14.65-3.59 12.5 0 20.44 5.12 23.81 15.38 2.83-4.93 6.61-8.72 11.35-11.35 4.74-2.69 9.96-4.03 15.67-4.03 17 0 25.66 9.27 26 27.83V1937h-8.79v-52.22c-.04-7.08-1.58-12.33-4.61-15.75-2.98-3.42-7.86-5.13-14.65-5.13-6.3.1-11.62 2.15-15.96 6.16-4.35 3.95-6.77 8.79-7.26 14.5V1937h-8.78v-52.88c-.05-6.79-1.66-11.84-4.84-15.16-3.12-3.37-7.96-5.06-14.5-5.06-5.52 0-10.25 1.59-14.21 4.77-3.95 3.12-6.88 7.78-8.79 13.98V1937h-8.79v-79.25h8.43Zm188.74 40.43c0 12.36-2.73 22.17-8.2 29.44-5.47 7.23-12.8 10.84-21.98 10.84-10.84 0-19.14-3.8-24.9-11.42v40.43h-8.71v-109.72h8.13l.44 11.21c5.71-8.45 13.98-12.67 24.82-12.67 9.48 0 16.9 3.59 22.27 10.76 5.42 7.18 8.13 17.14 8.13 29.89v1.24Zm-8.79-1.54c0-10.1-2.07-18.09-6.22-23.95-4.15-5.86-9.94-8.79-17.36-8.79-5.37 0-9.99 1.3-13.85 3.89-3.85 2.58-6.81 6.34-8.86 11.28v38.01c2.1 4.54 5.1 8.01 9.01 10.4 3.91 2.39 8.52 3.59 13.84 3.59 7.38 0 13.11-2.93 17.22-8.79 4.15-5.91 6.22-14.45 6.22-25.64Zm38.09 40.36H1737v-112.5h8.79V1937Zm54.56 1.46c-6.74 0-12.84-1.66-18.31-4.98-5.42-3.32-9.64-7.93-12.67-13.84-3.03-5.96-4.54-12.62-4.54-19.99v-3.15c0-7.62 1.46-14.48 4.39-20.58 2.98-6.11 7.11-10.89 12.38-14.36 5.28-3.52 10.99-5.27 17.14-5.27 9.62 0 17.24 3.29 22.85 9.88 5.67 6.55 8.5 15.51 8.5 26.88v4.91h-56.54v1.69c0 8.98 2.56 16.48 7.69 22.48 5.17 5.96 11.67 8.94 19.48 8.94 4.69 0 8.81-.86 12.38-2.57 3.61-1.71 6.88-4.44 9.81-8.2l5.49 4.18c-6.44 9.32-15.79 13.98-28.05 13.98Zm-1.61-74.7c-6.59 0-12.16 2.41-16.7 7.25-4.49 4.83-7.22 11.33-8.2 19.48h47.53v-.95c-.24-7.62-2.41-13.82-6.52-18.6-4.1-4.79-9.47-7.18-16.11-7.18Z" fill="#fff"/><rect x="2083" y="1698" width="999" height="376" rx="50" fill="#000"/><path fill-rule="evenodd" clip-rule="evenodd" d="M2399 1758h-256v256h256v-256Zm-72.78 115.78a78.793 78.793 0 0 1 23.08 55.72h-19.7c0-15.67-6.23-30.71-17.31-41.79a59.116 59.116 0 0 0-41.79-17.31c-15.67 0-30.71 6.23-41.79 17.31a59.116 59.116 0 0 0-17.31 41.79h-19.7c0-20.9 8.3-40.94 23.08-55.72a78.793 78.793 0 0 1 55.72-23.08c20.9 0 40.94 8.3 55.72 23.08Z" fill="#fff"/><path fill="url(#c)" d="M4 777h2436v1065H4z"/></g><path d="M508.338 232.877H458.46v43.506h57.349V284h-66.358V177.359h65.991v7.691H458.46v40.21h49.878v7.617ZM582.825 284c-.879-2.49-1.44-6.177-1.684-11.06-3.077 4.004-7.007 7.105-11.792 9.302-4.737 2.149-9.766 3.223-15.088 3.223-7.617 0-13.794-2.124-18.531-6.372-4.687-4.248-7.031-9.619-7.031-16.114 0-7.714 3.198-13.818 9.595-18.31 6.445-4.492 15.405-6.738 26.88-6.738h15.893v-9.009c0-5.664-1.757-10.108-5.273-13.33-3.467-3.272-8.545-4.907-15.234-4.907-6.104 0-11.158 1.562-15.162 4.687-4.003 3.125-6.005 6.885-6.005 11.279l-8.789-.073c0-6.299 2.929-11.743 8.789-16.333 5.859-4.639 13.061-6.958 21.606-6.958 8.838 0 15.796 2.222 20.874 6.665 5.127 4.395 7.764 10.547 7.91 18.457v37.5c0 7.666.806 13.403 2.417 17.212V284h-9.375Zm-27.539-6.299c5.86 0 11.084-1.416 15.674-4.248 4.639-2.832 8.008-6.616 10.107-11.352v-17.432h-15.673c-8.741.098-15.577 1.709-20.508 4.834-4.932 3.076-7.398 7.324-7.398 12.744 0 4.443 1.636 8.13 4.908 11.06 3.32 2.929 7.617 4.394 12.89 4.394Zm105.396-13.843c0-4.345-1.758-7.837-5.274-10.473-3.467-2.637-8.716-4.688-15.747-6.153-7.031-1.513-12.5-3.222-16.406-5.127-3.858-1.953-6.738-4.321-8.643-7.104-1.855-2.783-2.783-6.152-2.783-10.107 0-6.25 2.612-11.402 7.837-15.455 5.225-4.101 11.914-6.152 20.068-6.152 8.838 0 15.918 2.197 21.241 6.592 5.371 4.346 8.056 10.034 8.056 17.065h-8.789c0-4.638-1.953-8.496-5.859-11.572-3.858-3.076-8.74-4.614-14.649-4.614-5.761 0-10.4 1.294-13.916 3.882-3.466 2.539-5.2 5.859-5.2 9.961 0 3.955 1.441 7.031 4.321 9.228 2.93 2.149 8.228 4.126 15.894 5.933 7.715 1.806 13.477 3.735 17.285 5.786 3.858 2.051 6.714 4.516 8.57 7.397 1.855 2.881 2.783 6.372 2.783 10.474 0 6.689-2.71 12.036-8.13 16.04-5.371 4.004-12.403 6.006-21.094 6.006-9.228 0-16.724-2.222-22.485-6.665-5.713-4.492-8.57-10.156-8.57-16.992h8.789c.342 5.127 2.491 9.13 6.446 12.011 4.004 2.832 9.277 4.248 15.82 4.248 6.104 0 11.035-1.342 14.795-4.028 3.76-2.685 5.64-6.079 5.64-10.181Zm53.686 7.544 23.145-66.65h9.448l-33.838 92.725-1.758 4.101c-4.345 9.619-11.059 14.429-20.141 14.429-2.1 0-4.346-.342-6.739-1.026l-.073-7.251 4.541.44c4.297 0 7.764-1.074 10.401-3.223 2.685-2.099 4.956-5.737 6.811-10.913l3.882-10.693-29.883-78.589h9.595l24.609 66.65Zm96.314-86.938v20.288h16.406v7.178h-16.406v52.807c0 4.395.781 7.666 2.343 9.815 1.612 2.148 4.273 3.222 7.984 3.222 1.465 0 3.833-.244 7.104-.732l.366 7.178c-2.294.83-5.419 1.245-9.375 1.245-6.005 0-10.375-1.734-13.11-5.2-2.734-3.516-4.101-8.667-4.101-15.454V211.93h-14.576v-7.178h14.576v-20.288h8.789Zm28.271 58.74c0-7.617 1.465-14.477 4.395-20.581 2.978-6.103 7.153-10.84 12.524-14.209 5.42-3.418 11.548-5.127 18.384-5.127 10.547 0 19.092 3.711 25.635 11.133 6.543 7.373 9.814 17.163 9.814 29.37v1.831c0 7.666-1.489 14.575-4.468 20.728-2.929 6.103-7.08 10.815-12.451 14.135-5.371 3.321-11.499 4.981-18.384 4.981-10.498 0-19.043-3.687-25.634-11.06-6.543-7.422-9.815-17.236-9.815-29.443v-1.758Zm8.789 2.417c0 9.473 2.442 17.261 7.324 23.364 4.932 6.055 11.377 9.082 19.336 9.082 7.91 0 14.307-3.027 19.19-9.082 4.931-6.103 7.397-14.135 7.397-24.096v-1.685c0-6.055-1.123-11.597-3.369-16.626-2.246-5.029-5.395-8.911-9.448-11.645-4.053-2.784-8.692-4.175-13.916-4.175-7.813 0-14.185 3.076-19.116 9.228-4.932 6.104-7.398 14.112-7.398 24.024v1.611Zm167.578 28.345c-5.27 7.666-13.7 11.499-25.268 11.499-8.448 0-14.868-2.442-19.263-7.324-4.394-4.932-6.641-12.207-6.738-21.827v-51.562h8.716v50.464c0 15.088 6.103 22.632 18.31 22.632 12.693 0 20.723-5.249 24.093-15.747v-57.349h8.79V284h-8.49l-.15-10.034Zm78.96-10.108c0-4.345-1.76-7.837-5.28-10.473-3.46-2.637-8.71-4.688-15.75-6.153-7.03-1.513-12.5-3.222-16.4-5.127-3.86-1.953-6.74-4.321-8.64-7.104-1.86-2.783-2.79-6.152-2.79-10.107 0-6.25 2.62-11.402 7.84-15.455 5.22-4.101 11.91-6.152 20.07-6.152 8.84 0 15.92 2.197 21.24 6.592 5.37 4.346 8.05 10.034 8.05 17.065h-8.78c0-4.638-1.96-8.496-5.86-11.572-3.86-3.076-8.74-4.614-14.65-4.614-5.76 0-10.4 1.294-13.92 3.882-3.46 2.539-5.2 5.859-5.2 9.961 0 3.955 1.44 7.031 4.32 9.228 2.93 2.149 8.23 4.126 15.9 5.933 7.71 1.806 13.47 3.735 17.28 5.786 3.86 2.051 6.72 4.516 8.57 7.397 1.86 2.881 2.78 6.372 2.78 10.474 0 6.689-2.71 12.036-8.13 16.04-5.37 4.004-12.4 6.006-21.09 6.006-9.23 0-16.72-2.222-22.48-6.665-5.72-4.492-8.57-10.156-8.57-16.992h8.79c.34 5.127 2.49 9.13 6.44 12.011 4 2.832 9.28 4.248 15.82 4.248 6.1 0 11.04-1.342 14.8-4.028 3.76-2.685 5.64-6.079 5.64-10.181Zm59.25 21.607c-6.74 0-12.84-1.66-18.31-4.981-5.42-3.32-9.65-7.934-12.67-13.842-3.03-5.957-4.54-12.622-4.54-19.996v-3.149c0-7.617 1.46-14.477 4.39-20.581 2.98-6.104 7.1-10.889 12.38-14.355 5.27-3.516 10.98-5.274 17.14-5.274 9.62 0 17.23 3.296 22.85 9.888 5.66 6.543 8.49 15.503 8.49 26.88v4.907h-56.54v1.684c0 8.985 2.57 16.48 7.69 22.486 5.18 5.957 11.67 8.935 19.48 8.935 4.69 0 8.82-.854 12.38-2.563 3.62-1.709 6.89-4.443 9.82-8.203l5.49 4.175c-6.45 9.326-15.8 13.989-28.05 13.989Zm-1.61-74.707c-6.59 0-12.16 2.417-16.7 7.251-4.49 4.834-7.23 11.328-8.21 19.482h47.54v-.952c-.25-7.617-2.42-13.818-6.52-18.603-4.1-4.786-9.47-7.178-16.11-7.178ZM1243.1 284v-72.07h-13.11v-7.178h13.11v-9.595c0-8.105 2.05-14.331 6.16-18.677 4.15-4.345 9.91-6.518 17.28-6.518 3.32 0 6.42.415 9.3 1.245l-.66 7.324c-2.44-.586-5.1-.879-7.98-.879-4.83 0-8.59 1.514-11.28 4.541-2.68 2.979-4.03 7.227-4.03 12.745v9.814h18.9v7.178h-18.9V284h-8.79Zm38.53-40.796c0-7.617 1.46-14.477 4.39-20.581 2.98-6.103 7.16-10.84 12.53-14.209 5.42-3.418 11.55-5.127 18.38-5.127 10.55 0 19.09 3.711 25.64 11.133 6.54 7.373 9.81 17.163 9.81 29.37v1.831c0 7.666-1.49 14.575-4.47 20.728-2.93 6.103-7.08 10.815-12.45 14.135-5.37 3.321-11.5 4.981-18.38 4.981-10.5 0-19.04-3.687-25.64-11.06-6.54-7.422-9.81-17.236-9.81-29.443v-1.758Zm8.79 2.417c0 9.473 2.44 17.261 7.32 23.364 4.93 6.055 11.38 9.082 19.34 9.082 7.91 0 14.3-3.027 19.19-9.082 4.93-6.103 7.4-14.135 7.4-24.096v-1.685c0-6.055-1.13-11.597-3.37-16.626-2.25-5.029-5.4-8.911-9.45-11.645-4.06-2.784-8.69-4.175-13.92-4.175-7.81 0-14.18 3.076-19.11 9.228-4.94 6.104-7.4 14.112-7.4 24.024v1.611Zm116.75-33.398c-1.86-.342-3.84-.513-5.94-.513-5.47 0-10.1 1.538-13.91 4.614-3.76 3.028-6.45 7.447-8.06 13.257V284h-8.72v-79.248h8.57l.15 12.598c4.64-9.375 12.09-14.063 22.34-14.063 2.44 0 4.37.317 5.79.952l-.22 7.984Zm21.9-7.471.29 12.891c2.93-4.786 6.59-8.374 10.98-10.767 4.4-2.393 9.28-3.589 14.65-3.589 12.5 0 20.44 5.127 23.81 15.381 2.83-4.932 6.61-8.716 11.35-11.353 4.74-2.685 9.96-4.028 15.67-4.028 17 0 25.66 9.277 26 27.832V284h-8.78v-52.222c-.05-7.08-1.59-12.329-4.62-15.747-2.98-3.418-7.86-5.127-14.65-5.127-6.3.098-11.62 2.149-15.96 6.153-4.35 3.955-6.77 8.789-7.26 14.502V284h-8.78v-52.881c-.05-6.787-1.66-11.841-4.84-15.161-3.12-3.369-7.96-5.054-14.5-5.054-5.52 0-10.25 1.587-14.21 4.761-3.95 3.125-6.88 7.788-8.79 13.989V284h-8.79v-79.248h8.43Zm172.48 59.106c0-4.345-1.76-7.837-5.27-10.473-3.47-2.637-8.72-4.688-15.75-6.153-7.03-1.513-12.5-3.222-16.41-5.127-3.85-1.953-6.73-4.321-8.64-7.104-1.85-2.783-2.78-6.152-2.78-10.107 0-6.25 2.61-11.402 7.84-15.455 5.22-4.101 11.91-6.152 20.06-6.152 8.84 0 15.92 2.197 21.24 6.592 5.37 4.346 8.06 10.034 8.06 17.065h-8.79c0-4.638-1.95-8.496-5.86-11.572-3.86-3.076-8.74-4.614-14.65-4.614-5.76 0-10.4 1.294-13.91 3.882-3.47 2.539-5.2 5.859-5.2 9.961 0 3.955 1.44 7.031 4.32 9.228 2.93 2.149 8.23 4.126 15.89 5.933 7.72 1.806 13.48 3.735 17.29 5.786 3.85 2.051 6.71 4.516 8.57 7.397 1.85 2.881 2.78 6.372 2.78 10.474 0 6.689-2.71 12.036-8.13 16.04-5.37 4.004-12.4 6.006-21.09 6.006-9.23 0-16.73-2.222-22.49-6.665-5.71-4.492-8.57-10.156-8.57-16.992h8.79c.34 5.127 2.49 9.13 6.45 12.011 4 2.832 9.27 4.248 15.82 4.248 6.1 0 11.03-1.342 14.79-4.028 3.76-2.685 5.64-6.079 5.64-10.181Zm116.02 10.108c-5.28 7.666-13.7 11.499-25.27 11.499-8.45 0-14.87-2.442-19.26-7.324-4.4-4.932-6.65-12.207-6.74-21.827v-51.562h8.71v50.464c0 15.088 6.11 22.632 18.31 22.632 12.7 0 20.73-5.249 24.1-15.747v-57.349h8.79V284h-8.5l-.14-10.034Zm78.95-10.108c0-4.345-1.76-7.837-5.27-10.473-3.47-2.637-8.72-4.688-15.75-6.153-7.03-1.513-12.5-3.222-16.41-5.127-3.85-1.953-6.73-4.321-8.64-7.104-1.85-2.783-2.78-6.152-2.78-10.107 0-6.25 2.61-11.402 7.84-15.455 5.22-4.101 11.91-6.152 20.06-6.152 8.84 0 15.92 2.197 21.24 6.592 5.38 4.346 8.06 10.034 8.06 17.065h-8.79c0-4.638-1.95-8.496-5.86-11.572-3.85-3.076-8.74-4.614-14.65-4.614-5.76 0-10.4 1.294-13.91 3.882-3.47 2.539-5.2 5.859-5.2 9.961 0 3.955 1.44 7.031 4.32 9.228 2.93 2.149 8.23 4.126 15.89 5.933 7.72 1.806 13.48 3.735 17.29 5.786 3.86 2.051 6.71 4.516 8.57 7.397 1.85 2.881 2.78 6.372 2.78 10.474 0 6.689-2.71 12.036-8.13 16.04-5.37 4.004-12.4 6.006-21.09 6.006-9.23 0-16.73-2.222-22.49-6.665-5.71-4.492-8.57-10.156-8.57-16.992h8.79c.34 5.127 2.49 9.13 6.45 12.011 4 2.832 9.27 4.248 15.82 4.248 6.1 0 11.03-1.342 14.79-4.028 3.76-2.685 5.64-6.079 5.64-10.181ZM1834.9 284h-8.79v-79.248h8.79V284Zm-10.33-102.173c0-1.66.54-3.052 1.61-4.175 1.08-1.172 2.54-1.757 4.4-1.757 1.85 0 3.32.585 4.39 1.757 1.13 1.123 1.69 2.515 1.69 4.175 0 1.66-.56 3.052-1.69 4.175-1.07 1.123-2.54 1.685-4.39 1.685-1.86 0-3.32-.562-4.4-1.685-1.07-1.123-1.61-2.515-1.61-4.175Zm42.56 22.925.29 13.55c2.98-4.883 6.69-8.594 11.13-11.133 4.45-2.588 9.35-3.882 14.72-3.882 8.5 0 14.82 2.393 18.97 7.178 4.15 4.785 6.25 11.963 6.3 21.533V284h-8.71v-52.075c-.05-7.08-1.57-12.354-4.54-15.821-2.93-3.466-7.65-5.2-14.14-5.2-5.42 0-10.23 1.709-14.43 5.127-4.15 3.369-7.22 7.935-9.23 13.697V284h-8.71v-79.248h8.35Zm70.6 38.892c0-12.403 2.74-22.217 8.21-29.444 5.51-7.275 12.98-10.913 22.41-10.913 10.79 0 18.99 4.297 24.61 12.891l.44-11.426h8.2v77.637c0 10.205-2.86 18.286-8.57 24.243-5.71 5.957-13.45 8.935-23.22 8.935-5.52 0-10.79-1.245-15.82-3.735-4.98-2.441-8.91-5.713-11.79-9.814l4.91-5.274c6.2 7.617 13.57 11.426 22.12 11.426 7.32 0 13.03-2.173 17.14-6.519 4.1-4.297 6.22-10.278 6.37-17.944v-9.961c-5.62 7.813-13.8 11.719-24.54 11.719-9.18 0-16.55-3.662-22.12-10.986-5.56-7.325-8.35-17.212-8.35-29.664v-1.171Zm8.86 1.538c0 10.107 2.03 18.09 6.08 23.95 4.06 5.81 9.77 8.716 17.14 8.716 10.79 0 18.44-4.834 22.93-14.502v-36.841c-2.05-5.078-5.01-8.936-8.86-11.572-3.86-2.686-8.5-4.029-13.92-4.029-7.37 0-13.11 2.906-17.21 8.716-4.1 5.762-6.16 14.282-6.16 25.562Z" fill="#000"/><g filter="url(#d)"><path d="M345.779 588V410.266h52.491c15.706 0 29.622 3.499 41.748 10.498 12.207 6.998 21.647 16.927 28.32 29.785 6.673 12.858 10.01 27.588 10.01 44.189v8.911c0 16.846-3.378 31.657-10.132 44.434-6.673 12.777-16.236 22.624-28.687 29.541C427.16 584.541 412.959 588 396.927 588h-51.148Zm30.884-152.832v128.174h20.142c16.194 0 28.605-5.046 37.231-15.137 8.708-10.172 13.143-24.74 13.306-43.701v-9.888c0-19.287-4.191-34.017-12.573-44.189-8.383-10.173-20.549-15.259-36.499-15.259h-21.607ZM537.796 588h-29.663V455.92h29.663V588Zm-31.494-166.382c0-4.557 1.424-8.341 4.272-11.352 2.93-3.011 7.08-4.517 12.451-4.517s9.522 1.506 12.452 4.517c2.929 3.011 4.394 6.795 4.394 11.352 0 4.476-1.465 8.22-4.394 11.231-2.93 2.929-7.081 4.394-12.452 4.394-5.371 0-9.521-1.465-12.451-4.394-2.848-3.011-4.272-6.755-4.272-11.231Zm137.939 130.493c0-5.289-2.197-9.318-6.592-12.085-4.313-2.767-11.515-5.208-21.606-7.324-10.091-2.116-18.514-4.801-25.269-8.056-14.811-7.162-22.216-17.538-22.216-31.128 0-11.394 4.801-20.915 14.404-28.565 9.603-7.65 21.81-11.474 36.621-11.474 15.788 0 28.524 3.906 38.208 11.718 9.766 7.813 14.648 17.945 14.648 30.396h-29.663c0-5.697-2.116-10.417-6.347-14.16-4.232-3.825-9.847-5.738-16.846-5.738-6.51 0-11.841 1.506-15.991 4.517-4.069 3.011-6.104 7.039-6.104 12.085 0 4.557 1.913 8.097 5.738 10.62 3.824 2.523 11.556 5.086 23.193 7.69 11.637 2.523 20.752 5.575 27.344 9.156 6.673 3.499 11.596 7.731 14.77 12.695 3.255 4.964 4.883 10.986 4.883 18.066 0 11.882-4.923 21.525-14.77 28.931-9.847 7.324-22.746 10.986-38.697 10.986-10.823 0-20.467-1.953-28.93-5.859-8.464-3.906-15.056-9.277-19.776-16.113-4.72-6.836-7.08-14.201-7.08-22.095h28.809c.407 6.999 3.051 12.411 7.934 16.235 4.883 3.744 11.353 5.616 19.409 5.616 7.813 0 13.754-1.465 17.823-4.395 4.069-3.011 6.103-6.917 6.103-11.719Zm109.375 14.649c7.406 0 13.55-2.157 18.433-6.47 4.883-4.313 7.487-9.644 7.812-15.991h27.954c-.325 8.219-2.889 15.91-7.69 23.071-4.801 7.08-11.312 12.695-19.531 16.846-8.22 4.15-17.09 6.225-26.612 6.225-18.473 0-33.121-5.981-43.945-17.944-10.823-11.963-16.235-28.483-16.235-49.56v-3.052c0-20.101 5.371-36.174 16.113-48.218 10.742-12.126 25.391-18.188 43.945-18.188 15.707 0 28.483 4.597 38.33 13.793 9.929 9.115 15.137 21.119 15.625 36.011h-27.954c-.325-7.568-2.929-13.794-7.812-18.677-4.802-4.882-10.946-7.324-18.433-7.324-9.603 0-17.008 3.5-22.217 10.498-5.208 6.918-7.853 17.456-7.934 31.616v4.761c0 14.323 2.563 25.025 7.69 32.105 5.209 6.998 12.696 10.498 22.461 10.498Zm71.045-46.021c0-12.939 2.564-24.577 7.691-34.912 5.127-10.417 12.329-18.392 21.606-23.926 9.277-5.615 19.938-8.422 31.982-8.422 17.823 0 32.268 5.737 43.335 17.211 11.149 11.475 17.172 26.693 18.067 45.655l.122 6.958c0 13.021-2.523 24.658-7.568 34.912-4.965 10.254-12.126 18.188-21.485 23.804-9.277 5.615-20.019 8.422-32.226 8.422-18.636 0-33.57-6.184-44.8-18.554-11.149-12.451-16.724-29.012-16.724-49.683v-1.465Zm29.663 2.564c0 13.59 2.808 24.251 8.423 31.982 5.615 7.65 13.428 11.475 23.438 11.475 10.009 0 17.781-3.906 23.315-11.719 5.615-7.812 8.423-19.246 8.423-34.302 0-13.346-2.889-23.926-8.667-31.738-5.697-7.813-13.469-11.719-23.316-11.719-9.684 0-17.374 3.866-23.071 11.597-5.696 7.65-8.545 19.124-8.545 34.424ZM1041.7 483.02c-3.9-.652-7.93-.977-12.08-.977-13.59 0-22.75 5.208-27.47 15.625V588h-29.662V455.92h28.322l.73 14.77c7.16-11.474 17.09-17.211 29.79-17.211 4.23 0 7.73.569 10.49 1.709l-.12 27.832Zm10.74 37.963c0-20.345 4.72-36.661 14.16-48.95 9.44-12.37 22.1-18.554 37.97-18.554 14 0 25.31 4.882 33.93 14.648V400.5h29.67V588h-26.86l-1.46-13.672c-8.87 10.742-20.71 16.113-35.53 16.113-15.46 0-27.99-6.225-37.59-18.676-9.52-12.452-14.29-29.379-14.29-50.782Zm29.67 2.564c0 13.428 2.56 23.926 7.69 31.494 5.21 7.487 12.57 11.23 22.09 11.23 12.13 0 21-5.411 26.61-16.235V493.64c-5.45-10.58-14.24-15.869-26.36-15.869-9.61 0-17.01 3.824-22.22 11.474-5.21 7.568-7.81 19.002-7.81 34.302ZM1264.24 588V410.266h60.91c20.1 0 35.4 4.028 45.9 12.085 10.5 8.056 15.74 20.06 15.74 36.01 0 8.138-2.19 15.463-6.59 21.973-4.39 6.51-10.82 11.556-19.28 15.137 9.6 2.604 17 7.527 22.21 14.77 5.29 7.162 7.94 15.788 7.94 25.879 0 16.683-5.37 29.5-16.12 38.452-10.66 8.952-25.96 13.428-45.89 13.428h-64.82Zm30.88-80.2v55.542h34.3c9.69 0 17.25-2.401 22.71-7.202 5.45-4.802 8.18-11.475 8.18-20.02 0-18.473-9.44-27.913-28.32-28.32h-36.87Zm0-22.705h30.27c9.61 0 17.09-2.157 22.46-6.47 5.46-4.395 8.18-10.579 8.18-18.555 0-8.789-2.52-15.136-7.57-19.043-4.96-3.906-12.73-5.859-23.31-5.859h-30.03v49.927Zm203.98 89.966c-8.71 10.253-21.08 15.38-37.11 15.38-14.32 0-25.19-4.191-32.59-12.573-7.33-8.382-10.99-20.508-10.99-36.377V455.92h29.66v85.205c0 16.764 6.96 25.146 20.88 25.146 14.4 0 24.13-5.167 29.17-15.502V455.92h29.67V588h-27.96l-.73-12.939Zm96.07-151.246v32.105h23.31v21.973h-23.31v73.73c0 5.046.98 8.708 2.93 10.986 2.03 2.198 5.61 3.296 10.74 3.296 3.42 0 6.88-.407 10.38-1.22v22.949c-6.76 1.872-13.27 2.807-19.53 2.807-22.79 0-34.18-12.573-34.18-37.719v-74.829h-21.73V455.92h21.73v-32.105h29.66Zm83.25 0v32.105h23.32v21.973h-23.32v73.73c0 5.046.98 8.708 2.93 10.986 2.04 2.198 5.62 3.296 10.74 3.296 3.42 0 6.88-.407 10.38-1.22v22.949c-6.76 1.872-13.27 2.807-19.53 2.807-22.79 0-34.18-12.573-34.18-37.719v-74.829h-21.73V455.92h21.73v-32.105h29.66Zm36.87 96.924c0-12.939 2.56-24.577 7.69-34.912 5.12-10.417 12.33-18.392 21.6-23.926 9.28-5.615 19.94-8.422 31.99-8.422 17.82 0 32.26 5.737 43.33 17.211 11.15 11.475 17.17 26.693 18.07 45.655l.12 6.958c0 13.021-2.52 24.658-7.57 34.912-4.96 10.254-12.13 18.188-21.48 23.804-9.28 5.615-20.02 8.422-32.23 8.422-18.64 0-33.57-6.184-44.8-18.554-11.15-12.451-16.72-29.012-16.72-49.683v-1.465Zm29.66 2.564c0 13.59 2.81 24.251 8.42 31.982 5.62 7.65 13.43 11.475 23.44 11.475 10.01 0 17.78-3.906 23.31-11.719 5.62-7.812 8.43-19.246 8.43-34.302 0-13.346-2.89-23.926-8.67-31.738-5.7-7.813-13.47-11.719-23.31-11.719-9.69 0-17.38 3.866-23.08 11.597-5.69 7.65-8.54 19.124-8.54 34.424Zm145.75-67.383.86 15.259c9.76-11.8 22.58-17.7 38.45-17.7 27.5 0 41.5 15.747 41.99 47.241V588h-29.66v-85.571c0-8.382-1.83-14.567-5.5-18.555-3.58-4.069-9.48-6.103-17.7-6.103-11.96 0-20.87 5.411-26.73 16.235V588h-29.66V455.92h27.95Zm185.67 96.191c0-5.289-2.2-9.318-6.59-12.085-4.31-2.767-11.52-5.208-21.61-7.324-10.09-2.116-18.51-4.801-25.27-8.056-14.81-7.162-22.21-17.538-22.21-31.128 0-11.394 4.8-20.915 14.4-28.565 9.6-7.65 21.81-11.474 36.62-11.474 15.79 0 28.53 3.906 38.21 11.718 9.77 7.813 14.65 17.945 14.65 30.396h-29.66c0-5.697-2.12-10.417-6.35-14.16-4.23-3.825-9.85-5.738-16.85-5.738-6.51 0-11.84 1.506-15.99 4.517-4.07 3.011-6.1 7.039-6.1 12.085 0 4.557 1.91 8.097 5.73 10.62 3.83 2.523 11.56 5.086 23.2 7.69 11.64 2.523 20.75 5.575 27.34 9.156 6.67 3.499 11.6 7.731 14.77 12.695 3.26 4.964 4.88 10.986 4.88 18.066 0 11.882-4.92 21.525-14.77 28.931-9.84 7.324-22.74 10.986-38.69 10.986-10.83 0-20.47-1.953-28.93-5.859-8.47-3.906-15.06-9.277-19.78-16.113-4.72-6.836-7.08-14.201-7.08-22.095h28.81c.41 6.999 3.05 12.411 7.94 16.235 4.88 3.744 11.35 5.616 19.4 5.616 7.82 0 13.76-1.465 17.83-4.395 4.07-3.011 6.1-6.917 6.1-11.719Z" fill="#F2D478"/></g><defs><filter id="a" x="-46" y="-50" width="2536" height="1942" filterUnits="userSpaceOnUse" color-interpolation-filters="sRGB"><feFlood flood-opacity="0" result="BackgroundImageFix"/><feGaussianBlur in="BackgroundImage" stdDeviation="25"/><feComposite in2="SourceAlpha" operator="in" result="effect1_backgroundBlur"/><feColorMatrix in="SourceAlpha" values="0 0 0 0 0 0 0 0 0 0 0 0 0 0 0 0 0 0 127 0" result="hardAlpha"/><feOffset dy="4"/><feGaussianBlur stdDeviation="2"/><feComposite in2="hardAlpha" operator="out"/><feColorMatrix values="0 0 0 0 0 0 0 0 0 0 0 0 0 0 0 0 0 0 0.25 0"/><feBlend in2="effect1_backgroundBlur" result="effect2_dropShadow"/><feBlend in="SourceGraphic" in2="effect2_dropShadow" result="shape"/></filter><filter id="d" x="315.779" y="370.5" width="1819.77" height="249.941" filterUnits="userSpaceOnUse" color-interpolation-filters="sRGB"><feFlood flood-opacity="0" result="BackgroundImageFix"/><feColorMatrix in="SourceAlpha" values="0 0 0 0 0 0 0 0 0 0 0 0 0 0 0 0 0 0 127 0" result="hardAlpha"/><feOffset/><feGaussianBlur stdDeviation="15"/><feComposite in2="hardAlpha" operator="out"/><feColorMatrix values="0 0 0 0 0.258824 0 0 0 0 0.258824 0 0 0 0 0.258824 0 0 0 0.75 0"/><feBlend in2="BackgroundImageFix" result="effect1_dropShadow"/><feBlend in="SourceGraphic" in2="effect1_dropShadow" result="shape"/></filter><linearGradient id="c" x1="1222" y1="777" x2="1222" y2="1842" gradientUnits="userSpaceOnUse"><stop stop-color="#fff" stop-opacity="0"/><stop offset="1" stop-color="#fff"/></linearGradient></defs></svg>