<svg width="1843" height="912" fill="none" xmlns="http://www.w3.org/2000/svg"><g filter="url(#a)"><rect x="4" y="2" width="1835" height="894" rx="100" fill="#fff" fill-opacity=".65" shape-rendering="crispEdges"/></g><path d="M292.469 558h-6.006v-71.094h6.006V558Zm23.535-52.832.195 9.033c1.986-3.255 4.46-5.729 7.422-7.422 2.962-1.725 6.234-2.588 9.815-2.588 5.664 0 9.879 1.595 12.646 4.786 2.767 3.19 4.167 7.975 4.199 14.355V558h-5.81v-34.717c-.033-4.72-1.042-8.235-3.028-10.547-1.953-2.311-5.094-3.466-9.423-3.466-3.614 0-6.82 1.139-9.62 3.418-2.767 2.246-4.817 5.289-6.152 9.13V558h-5.81v-52.832h5.566ZM423.084 558c-.586-1.66-.96-4.118-1.123-7.373-2.051 2.669-4.671 4.736-7.861 6.201-3.158 1.432-6.511 2.149-10.059 2.149-5.078 0-9.196-1.416-12.353-4.248-3.126-2.833-4.688-6.413-4.688-10.743 0-5.143 2.132-9.212 6.396-12.207 4.297-2.994 10.271-4.492 17.92-4.492h10.596v-6.006c0-3.776-1.172-6.738-3.516-8.886-2.311-2.181-5.696-3.272-10.156-3.272-4.069 0-7.438 1.042-10.107 3.125-2.669 2.083-4.004 4.59-4.004 7.52l-5.859-.049c0-4.199 1.953-7.829 5.859-10.889 3.906-3.092 8.708-4.639 14.404-4.639 5.892 0 10.531 1.482 13.916 4.444 3.418 2.929 5.176 7.031 5.274 12.304v25c0 5.111.537 8.936 1.611 11.475V558h-6.25Zm-18.359-4.199c3.906 0 7.389-.944 10.449-2.832 3.092-1.888 5.338-4.411 6.738-7.569v-11.621h-10.449c-5.827.065-10.384 1.14-13.672 3.223-3.288 2.051-4.932 4.883-4.932 8.496 0 2.962 1.091 5.42 3.272 7.373 2.213 1.953 5.078 2.93 8.594 2.93ZM471.863 558v-48.047h-8.74v-4.785h8.74v-6.397c0-5.403 1.367-9.554 4.102-12.451 2.767-2.897 6.608-4.345 11.523-4.345 2.214 0 4.281.276 6.201.83l-.439 4.883c-1.628-.391-3.402-.586-5.322-.586-3.223 0-5.729 1.009-7.52 3.027-1.79 1.986-2.685 4.818-2.685 8.496v6.543h12.597v4.785h-12.597V558h-5.86Zm25.684-27.197c0-5.078.976-9.652 2.93-13.721 1.985-4.069 4.768-7.227 8.349-9.473 3.613-2.278 7.699-3.418 12.256-3.418 7.031 0 12.728 2.474 17.09 7.422 4.362 4.916 6.543 11.442 6.543 19.58v1.221c0 5.111-.993 9.717-2.979 13.818-1.953 4.069-4.72 7.211-8.3 9.424-3.581 2.214-7.666 3.321-12.256 3.321-6.999 0-12.696-2.458-17.09-7.373-4.362-4.948-6.543-11.491-6.543-19.629v-1.172Zm5.859 1.611c0 6.315 1.628 11.507 4.883 15.576 3.288 4.037 7.585 6.055 12.891 6.055 5.273 0 9.537-2.018 12.793-6.055 3.287-4.069 4.931-9.424 4.931-16.064v-1.123c0-4.037-.748-7.731-2.246-11.084-1.497-3.353-3.597-5.941-6.299-7.764-2.701-1.855-5.794-2.783-9.277-2.783-5.208 0-9.456 2.051-12.744 6.152-3.288 4.069-4.932 9.408-4.932 16.016v1.074Zm77.832-22.266a21.9 21.9 0 0 0-3.955-.341c-3.646 0-6.738 1.025-9.277 3.076-2.507 2.018-4.297 4.964-5.371 8.838V558h-5.811v-52.832h5.713l.098 8.398c3.092-6.25 8.056-9.375 14.892-9.375 1.628 0 2.914.212 3.858.635l-.147 5.322Zm14.6-4.98.195 8.594c1.953-3.19 4.395-5.583 7.324-7.178 2.93-1.595 6.185-2.393 9.766-2.393 8.333 0 13.623 3.418 15.869 10.254 1.888-3.287 4.411-5.81 7.569-7.568 3.157-1.79 6.64-2.686 10.449-2.686 11.328 0 17.106 6.185 17.334 18.555V558h-5.86v-34.814c-.032-4.721-1.058-8.22-3.076-10.498-1.985-2.279-5.241-3.418-9.765-3.418-4.2.065-7.748 1.432-10.645 4.101-2.897 2.637-4.508 5.859-4.834 9.668V558h-5.859v-35.254c-.033-4.525-1.107-7.894-3.223-10.107-2.083-2.246-5.306-3.369-9.668-3.369-3.678 0-6.836 1.057-9.473 3.173-2.636 2.084-4.589 5.192-5.859 9.327V558h-5.859v-52.832h5.615ZM712.537 558c-.586-1.66-.96-4.118-1.123-7.373-2.051 2.669-4.671 4.736-7.861 6.201-3.158 1.432-6.511 2.149-10.059 2.149-5.078 0-9.196-1.416-12.353-4.248-3.125-2.833-4.688-6.413-4.688-10.743 0-5.143 2.132-9.212 6.397-12.207 4.296-2.994 10.27-4.492 17.92-4.492h10.595v-6.006c0-3.776-1.172-6.738-3.515-8.886-2.312-2.181-5.697-3.272-10.157-3.272-4.069 0-7.438 1.042-10.107 3.125-2.669 2.083-4.004 4.59-4.004 7.52l-5.859-.049c0-4.199 1.953-7.829 5.859-10.889 3.906-3.092 8.708-4.639 14.404-4.639 5.892 0 10.531 1.482 13.916 4.444 3.418 2.929 5.176 7.031 5.274 12.304v25c0 5.111.537 8.936 1.611 11.475V558h-6.25Zm-18.359-4.199c3.906 0 7.389-.944 10.449-2.832 3.092-1.888 5.338-4.411 6.738-7.569v-11.621h-10.449c-5.827.065-10.384 1.14-13.672 3.223-3.288 2.051-4.932 4.883-4.932 8.496 0 2.962 1.091 5.42 3.272 7.373 2.214 1.953 5.078 2.93 8.594 2.93Zm47.705-62.158v13.525h10.937v4.785h-10.937v35.205c0 2.93.521 5.111 1.562 6.543 1.075 1.432 2.849 2.149 5.323 2.149.976 0 2.555-.163 4.736-.489l.244 4.785c-1.53.554-3.613.831-6.25.831-4.004 0-6.917-1.156-8.74-3.467-1.823-2.344-2.735-5.778-2.735-10.303v-35.254h-9.716v-4.785h9.716v-13.525h5.86Zm56.445 0v13.525h10.938v4.785h-10.938v35.205c0 2.93.521 5.111 1.563 6.543 1.074 1.432 2.848 2.149 5.322 2.149.976 0 2.555-.163 4.736-.489l.244 4.785c-1.53.554-3.613.831-6.25.831-4.004 0-6.917-1.156-8.74-3.467-1.823-2.344-2.734-5.778-2.734-10.303v-35.254h-9.717v-4.785h9.717v-13.525h5.859Zm28.858 22.461c1.92-3.158 4.378-5.599 7.373-7.325 2.994-1.725 6.266-2.588 9.814-2.588 5.664 0 9.88 1.595 12.647 4.786 2.766 3.19 4.166 7.975 4.199 14.355V558h-5.811v-34.717c-.032-4.72-1.041-8.235-3.027-10.547-1.953-2.311-5.095-3.466-9.424-3.466-3.613 0-6.82 1.139-9.619 3.418-2.767 2.246-4.818 5.289-6.152 9.13V558h-5.811v-75h5.811v31.104ZM909.607 558c-.586-1.66-.96-4.118-1.123-7.373-2.05 2.669-4.671 4.736-7.861 6.201-3.158 1.432-6.51 2.149-10.059 2.149-5.078 0-9.196-1.416-12.353-4.248-3.125-2.833-4.688-6.413-4.688-10.743 0-5.143 2.133-9.212 6.397-12.207 4.297-2.994 10.27-4.492 17.92-4.492h10.596v-6.006c0-3.776-1.172-6.738-3.516-8.886-2.311-2.181-5.697-3.272-10.156-3.272-4.069 0-7.438 1.042-10.108 3.125-2.669 2.083-4.004 4.59-4.004 7.52l-5.859-.049c0-4.199 1.953-7.829 5.859-10.889 3.907-3.092 8.708-4.639 14.405-4.639 5.892 0 10.53 1.482 13.916 4.444 3.418 2.929 5.175 7.031 5.273 12.304v25c0 5.111.537 8.936 1.611 11.475V558h-6.25Zm-18.359-4.199c3.906 0 7.389-.944 10.449-2.832 3.093-1.888 5.339-4.411 6.739-7.569v-11.621h-10.45c-5.826.065-10.384 1.14-13.672 3.223-3.287 2.051-4.931 4.883-4.931 8.496 0 2.962 1.09 5.42 3.271 7.373 2.214 1.953 5.078 2.93 8.594 2.93Zm47.705-62.158v13.525h10.938v4.785h-10.938v35.205c0 2.93.521 5.111 1.563 6.543 1.074 1.432 2.848 2.149 5.322 2.149.976 0 2.555-.163 4.736-.489l.244 4.785c-1.53.554-3.613.831-6.25.831-4.004 0-6.917-1.156-8.74-3.467-1.823-2.344-2.734-5.778-2.734-10.303v-35.254h-9.717v-4.785h9.717v-13.525h5.859Zm60.01 54.199.879 4.541 1.168-4.785 12.7-40.43h4.98l12.55 40.088 1.37 5.566 1.12-5.127 10.84-40.527h6.05L1035.24 558h-4.98l-13.57-41.895-.64-2.88-.63 2.929L1002.09 558h-4.983l-15.332-52.832h6.006l11.182 40.674Zm59.517-15.039c0-5.078.98-9.652 2.93-13.721 1.99-4.069 4.77-7.227 8.35-9.473 3.62-2.278 7.7-3.418 12.26-3.418 7.03 0 12.73 2.474 17.09 7.422 4.36 4.916 6.54 11.442 6.54 19.58v1.221c0 5.111-.99 9.717-2.98 13.818-1.95 4.069-4.72 7.211-8.3 9.424-3.58 2.214-7.66 3.321-12.25 3.321-7 0-12.7-2.458-17.09-7.373-4.36-4.948-6.55-11.491-6.55-19.629v-1.172Zm5.86 1.611c0 6.315 1.63 11.507 4.89 15.576 3.28 4.037 7.58 6.055 12.89 6.055 5.27 0 9.53-2.018 12.79-6.055 3.29-4.069 4.93-9.424 4.93-16.064v-1.123c0-4.037-.75-7.731-2.24-11.084-1.5-3.353-3.6-5.941-6.3-7.764-2.7-1.855-5.8-2.783-9.28-2.783-5.21 0-9.46 2.051-12.74 6.152-3.29 4.069-4.94 9.408-4.94 16.016v1.074Zm77.84-22.266a21.981 21.981 0 0 0-3.96-.341c-3.65 0-6.74 1.025-9.28 3.076-2.5 2.018-4.29 4.964-5.37 8.838V558h-5.81v-52.832h5.71l.1 8.398c3.09-6.25 8.06-9.375 14.89-9.375 1.63 0 2.92.212 3.86.635l-.14 5.322Zm21.82 21.241-6.69 6.445V558h-5.86v-75h5.86v47.998l5.52-5.957 20.21-19.873h7.38l-22.41 22.266L1192.37 558h-6.98L1164 531.389Zm68.12 13.183c0-2.897-1.17-5.224-3.52-6.982-2.31-1.758-5.81-3.125-10.5-4.102-4.68-1.009-8.33-2.148-10.93-3.418-2.58-1.302-4.5-2.881-5.77-4.736-1.23-1.855-1.85-4.102-1.85-6.738 0-4.167 1.74-7.601 5.22-10.303 3.49-2.734 7.95-4.102 13.38-4.102 5.89 0 10.61 1.465 14.16 4.395 3.58 2.897 5.37 6.689 5.37 11.377h-5.86c0-3.093-1.3-5.664-3.9-7.715-2.57-2.051-5.83-3.076-9.77-3.076-3.84 0-6.93.863-9.27 2.588-2.32 1.692-3.47 3.906-3.47 6.64 0 2.637.96 4.688 2.88 6.153 1.95 1.432 5.48 2.75 10.59 3.955 5.15 1.204 8.99 2.49 11.53 3.857 2.57 1.367 4.47 3.011 5.71 4.932 1.24 1.92 1.86 4.248 1.86 6.982 0 4.46-1.81 8.024-5.42 10.694-3.58 2.669-8.27 4.004-14.07 4.004-6.15 0-11.14-1.482-14.99-4.444-3.8-2.995-5.71-6.771-5.71-11.328h5.86c.23 3.418 1.66 6.087 4.3 8.008 2.67 1.888 6.18 2.832 10.54 2.832 4.07 0 7.36-.895 9.87-2.686 2.5-1.79 3.76-4.052 3.76-6.787ZM1279.68 558v-48.047h-8.74v-4.785h8.74v-6.397c0-5.403 1.36-9.554 4.1-12.451 2.76-2.897 6.61-4.345 11.52-4.345 2.21 0 4.28.276 6.2.83l-.44 4.883c-1.63-.391-3.4-.586-5.32-.586-3.22 0-5.73 1.009-7.52 3.027-1.79 1.986-2.68 4.818-2.68 8.496v6.543h12.59v4.785h-12.59V558h-5.86Zm25.68-27.197c0-5.078.98-9.652 2.93-13.721 1.98-4.069 4.77-7.227 8.35-9.473 3.61-2.278 7.7-3.418 12.25-3.418 7.04 0 12.73 2.474 17.09 7.422 4.37 4.916 6.55 11.442 6.55 19.58v1.221c0 5.111-1 9.717-2.98 13.818-1.95 4.069-4.72 7.211-8.3 9.424-3.58 2.214-7.67 3.321-12.26 3.321-7 0-12.69-2.458-17.09-7.373-4.36-4.948-6.54-11.491-6.54-19.629v-1.172Zm5.86 1.611c0 6.315 1.63 11.507 4.88 15.576 3.29 4.037 7.59 6.055 12.89 6.055 5.28 0 9.54-2.018 12.8-6.055 3.28-4.069 4.93-9.424 4.93-16.064v-1.123c0-4.037-.75-7.731-2.25-11.084-1.5-3.353-3.6-5.941-6.3-7.764-2.7-1.855-5.79-2.783-9.28-2.783-5.2 0-9.45 2.051-12.74 6.152-3.29 4.069-4.93 9.408-4.93 16.016v1.074Zm77.83-22.266a21.869 21.869 0 0 0-3.95-.341c-3.65 0-6.74 1.025-9.28 3.076-2.51 2.018-4.3 4.964-5.37 8.838V558h-5.81v-52.832h5.71l.1 8.398c3.09-6.25 8.05-9.375 14.89-9.375 1.63 0 2.91.212 3.86.635l-.15 5.322Zm50.34 39.454 15.43-44.434h6.3l-22.56 61.816-1.17 2.735c-2.9 6.413-7.37 9.619-13.43 9.619-1.4 0-2.89-.228-4.49-.684l-.05-4.834 3.03.293c2.86 0 5.17-.716 6.93-2.148 1.79-1.4 3.31-3.825 4.54-7.276l2.59-7.128-19.92-52.393h6.4l16.4 44.434Zm26.81-18.799c0-5.078.98-9.652 2.93-13.721 1.98-4.069 4.77-7.227 8.35-9.473 3.61-2.278 7.7-3.418 12.25-3.418 7.04 0 12.73 2.474 17.09 7.422 4.37 4.916 6.55 11.442 6.55 19.58v1.221c0 5.111-1 9.717-2.98 13.818-1.95 4.069-4.72 7.211-8.3 9.424-3.58 2.214-7.67 3.321-12.26 3.321-7 0-12.69-2.458-17.09-7.373-4.36-4.948-6.54-11.491-6.54-19.629v-1.172Zm5.86 1.611c0 6.315 1.63 11.507 4.88 15.576 3.29 4.037 7.59 6.055 12.89 6.055 5.28 0 9.54-2.018 12.79-6.055 3.29-4.069 4.94-9.424 4.94-16.064v-1.123c0-4.037-.75-7.731-2.25-11.084-1.5-3.353-3.6-5.941-6.3-7.764-2.7-1.855-5.79-2.783-9.28-2.783-5.2 0-9.45 2.051-12.74 6.152-3.29 4.069-4.93 9.408-4.93 16.016v1.074Zm87.4 18.897c-3.51 5.11-9.13 7.666-16.84 7.666-5.64 0-9.92-1.628-12.85-4.883-2.93-3.288-4.42-8.138-4.49-14.551v-34.375h5.81v33.643c0 10.058 4.07 15.087 12.21 15.087 8.46 0 13.82-3.499 16.06-10.498v-38.232h5.86V558h-5.66l-.1-6.689Z" fill="#000"/><g filter="url(#b)"><circle cx="467.003" cy="728.003" r="133.003" fill="#D46899" fill-opacity=".75"/><path d="M382.516 719.519c6.062 0 10.478-1.845 13.245-5.535 2.9-3.823 4.35-8.304 4.35-13.444v-29.062c0-6.194.593-11.664 1.779-16.409 1.186-4.876 3.295-8.896 6.326-12.059 3.032-3.295 7.249-5.733 12.653-7.315 5.404-1.713 12.323-2.57 20.758-2.57h1.384v18.979c-3.822 0-7.051.264-9.687.791-2.636.527-4.745 1.516-6.326 2.965-1.582 1.318-2.768 3.163-3.559 5.536-.659 2.24-.988 5.14-.988 8.699v28.27c0 7.908-1.055 14.235-3.164 18.979-1.977 4.613-5.403 8.436-10.28 11.467 4.877 3.031 8.303 6.919 10.28 11.664 2.109 4.745 3.164 11.005 3.164 18.781v28.469c0 3.559.329 6.458.988 8.699.791 2.24 1.977 4.02 3.559 5.338 1.581 1.449 3.69 2.438 6.326 2.965 2.636.527 5.865.791 9.687.791v18.979c-8.83 0-16.013-.791-21.549-2.373-5.535-1.581-9.885-4.019-13.048-7.314-3.163-3.164-5.338-7.118-6.524-11.862-1.186-4.745-1.779-10.281-1.779-16.607v-29.259c0-5.009-1.45-9.358-4.35-13.048-2.767-3.822-7.183-5.734-13.245-5.734v-18.781ZM551.558 738.3c-6.062 0-10.544 1.912-13.443 5.734-2.768 3.69-4.152 8.039-4.152 13.048v29.259c0 6.326-.593 11.862-1.779 16.607-1.186 4.744-3.361 8.698-6.524 11.862-3.163 3.295-7.513 5.733-13.048 7.314-5.536 1.582-12.719 2.373-21.549 2.373v-18.979c7.644 0 12.982-1.252 16.013-3.756 3.032-2.373 4.547-7.052 4.547-14.037v-28.469c0-7.776.989-14.036 2.966-18.781 2.109-4.745 5.601-8.633 10.478-11.664-4.877-3.031-8.369-6.854-10.478-11.467-1.977-4.744-2.966-11.071-2.966-18.979v-28.27c0-3.559-.395-6.459-1.186-8.699-.659-2.373-1.779-4.218-3.361-5.536-1.581-1.449-3.69-2.438-6.326-2.965-2.636-.527-5.865-.791-9.687-.791v-18.979h1.384c8.435 0 15.354.857 20.758 2.57 5.404 1.582 9.621 4.02 12.653 7.315 3.031 3.163 5.14 7.183 6.326 12.059 1.186 4.745 1.779 10.215 1.779 16.409v29.062c0 5.14 1.384 9.621 4.152 13.444 2.899 3.69 7.381 5.535 13.443 5.535V738.3Z" fill="#fff"/><circle cx="772.001" cy="728.003" r="133.003" fill="#D46899" fill-opacity=".75"/><path d="m712.149 700.099 17.039-26.25h19.496l-26.404 37.916a452.568 452.568 0 0 1 15.812 21.798c5.117 7.266 9.313 14.123 12.587 20.57H730.57c-.921-1.944-2.149-4.144-3.684-6.6a133.306 133.306 0 0 0-4.759-7.829 136.722 136.722 0 0 0-5.219-8.136 298.261 298.261 0 0 0-5.373-7.522c-3.582 4.605-7.113 9.722-10.592 15.351-3.377 5.526-6.192 10.438-8.443 14.736h-19.035c1.535-3.07 3.377-6.345 5.526-9.824 2.149-3.48 4.452-7.01 6.908-10.592a409.646 409.646 0 0 1 7.522-10.899 346.362 346.362 0 0 1 7.829-10.439l-26.557-38.53h20.416l17.04 26.25ZM783.729 733.717c.205 1.74.307 3.019.307 3.837v2.457c0 6.345-1.023 12.894-3.07 19.649a81.8 81.8 0 0 1-8.289 19.188l-14.584-3.991c2.457-5.936 4.094-11.769 4.913-17.5.921-5.629 1.381-10.592 1.381-14.89a85.91 85.91 0 0 0-.153-4.605c0-1.843-.051-3.224-.154-4.145h19.649ZM871.164 673.849c-8.289 30.497-17.909 58.128-28.859 82.894-2.047 4.605-4.145 8.545-6.294 11.82-2.149 3.275-4.554 5.987-7.215 8.136a24.657 24.657 0 0 1-8.904 4.605c-3.274 1.024-7.061 1.535-11.359 1.535a40.93 40.93 0 0 1-8.597-.921c-2.763-.614-4.861-1.279-6.293-1.995l3.377-14.891c3.684 1.433 7.317 2.15 10.899 2.15 4.81 0 8.545-1.177 11.206-3.531 2.763-2.252 5.168-5.782 7.215-10.592-5.834-11.257-11.462-23.538-16.886-36.842-5.322-13.304-10.081-27.427-14.276-42.368h19.802c1.024 4.298 2.252 8.954 3.684 13.969a653.725 653.725 0 0 0 4.913 15.351 456.97 456.97 0 0 0 5.526 15.35 292.53 292.53 0 0 0 5.833 14.277c3.275-9.108 6.345-18.779 9.211-29.013a1019.352 1019.352 0 0 0 7.829-29.934h19.188Z" fill="#fff"/><circle cx="1077" cy="728.003" r="133.003" fill="#D46899" fill-opacity=".75"/><path d="m965.803 722.538 66.157-27.938 5.07 15.197-51.425 20.57 51.425 20.57-5.07 15.197-66.157-27.938v-15.658ZM1059.96 802.516h-19.04l51.89-148.596h18.73l-51.58 148.596ZM1188.14 738.196l-66.16 27.938-5.07-15.197 51.43-20.57-51.43-20.57 5.07-15.197 66.16 27.938v15.658Z" fill="#fff"/><circle cx="1382" cy="728.003" r="133.003" fill="#D46899" fill-opacity=".75"/><path d="M1286.95 772.353c0 3.411-1.17 6.188-3.51 8.332-2.24 2.143-4.97 3.215-8.18 3.215-3.32 0-6.09-1.072-8.34-3.215-2.24-2.144-3.36-4.921-3.36-8.332 0-3.41 1.12-6.188 3.36-8.331 2.25-2.241 5.02-3.362 8.34-3.362 3.21 0 5.94 1.121 8.18 3.362 2.34 2.143 3.51 4.921 3.51 8.331Zm62.5-30.548c0-7.991-1.02-13.74-3.07-17.248-1.95-3.605-5.65-5.408-11.11-5.408-1.94 0-4.09.146-6.43.439-2.33.292-4.09.536-5.26.73V782h-17.68v-73.959c3.41-.975 7.84-1.901 13.3-2.777 5.55-.877 11.4-1.316 17.54-1.316 5.26 0 9.55.682 12.86 2.046 3.41 1.365 6.24 3.167 8.48 5.408 1.07-.779 2.43-1.607 4.09-2.484 1.66-.877 3.51-1.657 5.55-2.339 2.05-.78 4.19-1.413 6.43-1.9a34.37 34.37 0 0 1 7.02-.731c5.94 0 10.82.877 14.62 2.631 3.89 1.657 6.92 4.044 9.06 7.162 2.24 3.021 3.75 6.724 4.53 11.109.88 4.287 1.32 9.013 1.32 14.178V782h-17.69v-40.195c0-7.991-.97-13.74-2.92-17.248-1.95-3.605-5.7-5.408-11.26-5.408-2.82 0-5.5.487-8.04 1.462-2.53.877-4.43 1.754-5.7 2.631a38.781 38.781 0 0 1 1.61 7.747c.29 2.728.44 5.651.44 8.769V782h-17.69v-40.195Zm96.8 1.754c0 7.795 1.85 13.934 5.55 18.416 3.71 4.385 8.82 6.578 15.35 6.578 2.83 0 5.21-.098 7.16-.292 2.05-.293 3.7-.585 4.97-.877v-43.85c-1.56-1.072-3.65-2.046-6.28-2.923-2.54-.975-5.27-1.462-8.19-1.462-6.43 0-11.16 2.193-14.18 6.578-2.92 4.385-4.38 10.329-4.38 17.832Zm50.72 36.102c-3.51 1.072-7.94 2.047-13.3 2.924-5.27.877-10.82 1.315-16.67 1.315-6.04 0-11.45-.926-16.22-2.777-4.78-1.851-8.87-4.482-12.28-7.893-3.31-3.508-5.89-7.698-7.75-12.57-1.75-4.97-2.63-10.524-2.63-16.663 0-6.041.73-11.498 2.2-16.37 1.56-4.97 3.8-9.209 6.72-12.717 2.92-3.508 6.48-6.187 10.67-8.039 4.19-1.949 9.01-2.923 14.47-2.923 3.7 0 6.97.439 9.79 1.316 2.83.876 5.27 1.851 7.31 2.923v-36.688l17.69-2.923v111.085Z" fill="#fff"/></g><g filter="url(#c)"><path d="M677.679 128.654h-72.998v54.688h85.327V208H573.797V30.266h115.356v24.902h-84.472v49.072h72.998v24.414Zm82.031-9.277 25.146-43.457h32.959l-40.405 65.063L819.158 208h-32.715l-26.367-45.166L733.831 208h-32.959l41.748-67.017-40.283-65.063h32.715l24.658 43.457Zm193.97 23.926c0 20.426-4.639 36.743-13.916 48.95-9.278 12.126-21.729 18.188-37.354 18.188-14.486 0-26.082-4.76-34.79-14.282v62.622h-29.663V75.92h27.344l1.22 13.428c8.708-10.58 20.549-15.87 35.523-15.87 16.113 0 28.727 6.023 37.842 18.067 9.196 11.963 13.794 28.605 13.794 49.927v1.831Zm-29.541-2.564c0-13.183-2.645-23.641-7.935-31.372-5.208-7.731-12.695-11.597-22.461-11.597-12.125 0-20.833 5.005-26.123 15.015v58.594c5.371 10.254 14.16 15.381 26.367 15.381 9.44 0 16.805-3.784 22.095-11.353 5.371-7.65 8.057-19.206 8.057-34.668Zm49.194 0c0-12.939 2.563-24.577 7.69-34.912 5.127-10.416 12.33-18.392 21.607-23.926 9.28-5.615 19.94-8.422 31.98-8.422 17.82 0 32.27 5.737 43.34 17.211 11.15 11.475 17.17 26.693 18.06 45.655l.13 6.958c0 13.021-2.53 24.658-7.57 34.912-4.97 10.254-12.13 18.188-21.49 23.804-9.27 5.615-20.02 8.422-32.22 8.422-18.64 0-33.57-6.184-44.803-18.554-11.149-12.451-16.724-29.012-16.724-49.683v-1.465Zm29.667 2.564c0 13.59 2.8 24.251 8.42 31.982 5.61 7.65 13.43 11.475 23.44 11.475 10.01 0 17.78-3.906 23.31-11.719 5.62-7.812 8.42-19.246 8.42-34.302 0-13.346-2.88-23.926-8.66-31.738-5.7-7.813-13.47-11.719-23.32-11.719-9.68 0-17.37 3.866-23.07 11.597-5.7 7.65-8.54 19.124-8.54 34.424Zm187.37-40.283c-3.9-.652-7.93-.977-12.08-.977-13.59 0-22.75 5.208-27.47 15.625V208h-29.66V75.92h28.32l.73 14.77c7.16-11.474 17.09-17.212 29.79-17.212 4.23 0 7.73.57 10.5 1.71l-.13 27.832Zm62.02-59.205V75.92h23.31v21.973h-23.31v73.73c0 5.046.97 8.708 2.93 10.986 2.03 2.198 5.61 3.296 10.74 3.296 3.42 0 6.87-.407 10.37-1.22v22.949c-6.75 1.872-13.26 2.807-19.53 2.807-22.78 0-34.18-12.573-34.18-37.719v-74.83h-21.73V75.92h21.73V43.815h29.67ZM385.687 344.52h-34.424V413h-30.884V235.266h62.5c20.508 0 36.336 4.598 47.485 13.794 11.149 9.196 16.724 22.501 16.724 39.917 0 11.881-2.889 21.85-8.667 29.907-5.697 7.975-13.672 14.119-23.926 18.432l39.917 74.097V413h-33.081l-35.644-68.481Zm-34.424-24.781h31.738c10.417 0 18.555-2.604 24.414-7.812 5.859-5.29 8.789-12.492 8.789-21.607 0-9.521-2.726-16.886-8.179-22.094-5.371-5.209-13.427-7.894-24.17-8.057h-32.592v59.57Zm180.42 95.703c-18.799 0-34.058-5.9-45.777-17.7-11.637-11.881-17.456-27.669-17.456-47.363v-3.662c0-13.184 2.523-24.943 7.569-35.278 5.127-10.417 12.288-18.514 21.484-24.292 9.196-5.778 19.45-8.667 30.762-8.667 17.985 0 31.86 5.737 41.626 17.211 9.847 11.475 14.77 27.71 14.77 48.706v11.963h-86.304c.896 10.905 4.517 19.532 10.865 25.879 6.429 6.348 14.485 9.522 24.17 9.522 13.59 0 24.658-5.493 33.203-16.48l15.991 15.259c-5.29 7.894-12.37 14.038-21.24 18.433-8.789 4.313-18.677 6.469-29.663 6.469Zm-3.54-113.159c-8.138 0-14.73 2.849-19.776 8.545-4.964 5.697-8.138 13.631-9.521 23.804h56.518v-2.197c-.651-9.929-3.296-17.416-7.934-22.461-4.639-5.127-11.068-7.691-19.287-7.691Zm153.686 74.829c0-5.289-2.197-9.318-6.592-12.085-4.313-2.767-11.515-5.208-21.606-7.324-10.091-2.116-18.514-4.801-25.269-8.056-14.811-7.162-22.216-17.538-22.216-31.128 0-11.394 4.801-20.915 14.404-28.565 9.603-7.65 21.81-11.474 36.621-11.474 15.788 0 28.524 3.906 38.208 11.718 9.766 7.813 14.648 17.945 14.648 30.396h-29.663c0-5.697-2.116-10.417-6.347-14.16-4.232-3.825-9.847-5.738-16.846-5.738-6.511 0-11.841 1.506-15.991 4.517-4.069 3.011-6.104 7.039-6.104 12.085 0 4.557 1.913 8.097 5.737 10.62 3.825 2.523 11.556 5.086 23.194 7.69 11.637 2.523 20.752 5.575 27.344 9.156 6.673 3.499 11.596 7.731 14.77 12.695 3.255 4.964 4.883 10.986 4.883 18.066 0 11.882-4.924 21.525-14.771 28.931-9.847 7.324-22.745 10.986-38.696 10.986-10.823 0-20.467-1.953-28.931-5.859-8.463-3.906-15.055-9.277-19.775-16.113-4.72-6.836-7.08-14.201-7.08-22.095h28.809c.406 6.999 3.051 12.411 7.934 16.235 4.883 3.744 11.353 5.616 19.409 5.616 7.813 0 13.754-1.465 17.823-4.395 4.069-3.011 6.103-6.917 6.103-11.719Zm170.776-28.808c0 20.426-4.638 36.743-13.916 48.95-9.277 12.126-21.728 18.188-37.353 18.188-14.486 0-26.082-4.76-34.79-14.282v62.622h-29.663V280.92h27.344l1.22 13.428c8.708-10.58 20.549-15.869 35.523-15.869 16.113 0 28.727 6.022 37.842 18.066 9.195 11.963 13.793 28.605 13.793 49.927v1.831Zm-29.541-2.564c0-13.183-2.644-23.641-7.934-31.372-5.208-7.731-12.695-11.596-22.461-11.596-12.126 0-20.833 5.004-26.123 15.014v58.594c5.371 10.254 14.16 15.381 26.367 15.381 9.44 0 16.805-3.784 22.095-11.353 5.371-7.65 8.056-19.206 8.056-34.668Zm49.195 0c0-12.939 2.563-24.577 7.69-34.912 5.127-10.417 12.329-18.392 21.607-23.926 9.277-5.615 19.938-8.422 31.982-8.422 17.822 0 32.267 5.737 43.335 17.211 11.149 11.475 17.171 26.693 18.066 45.655l.123 6.958c0 13.021-2.523 24.658-7.569 34.912-4.964 10.254-12.125 18.188-21.484 23.804-9.278 5.615-20.02 8.422-32.227 8.422-18.636 0-33.569-6.184-44.8-18.554-11.149-12.451-16.723-29.012-16.723-49.683v-1.465Zm29.663 2.564c0 13.59 2.807 24.251 8.423 31.982 5.615 7.65 13.427 11.475 23.437 11.475 10.01 0 17.782-3.906 23.316-11.719 5.615-7.812 8.423-19.246 8.423-34.302 0-13.346-2.889-23.926-8.667-31.738-5.697-7.813-13.469-11.719-23.316-11.719-9.684 0-17.375 3.866-23.071 11.597-5.697 7.65-8.545 19.124-8.545 34.424Zm145.748-67.383.86 15.259c9.76-11.8 22.58-17.7 38.45-17.7 27.51 0 41.5 15.747 41.99 47.241V413h-29.66v-85.571c0-8.382-1.83-14.567-5.49-18.555-3.58-4.069-9.48-6.103-17.7-6.103-11.97 0-20.88 5.411-26.74 16.235V413h-29.66V280.92h27.95Zm185.67 96.191c0-5.289-2.19-9.318-6.59-12.085-4.31-2.767-11.51-5.208-21.61-7.324-10.09-2.116-18.51-4.801-25.26-8.056-14.82-7.162-22.22-17.538-22.22-31.128 0-11.394 4.8-20.915 14.4-28.565 9.61-7.65 21.81-11.474 36.62-11.474 15.79 0 28.53 3.906 38.21 11.718 9.77 7.813 14.65 17.945 14.65 30.396h-29.66c0-5.697-2.12-10.417-6.35-14.16-4.23-3.825-9.85-5.738-16.85-5.738-6.51 0-11.84 1.506-15.99 4.517-4.07 3.011-6.1 7.039-6.1 12.085 0 4.557 1.91 8.097 5.74 10.62 3.82 2.523 11.55 5.086 23.19 7.69 11.64 2.523 20.75 5.575 27.34 9.156 6.68 3.499 11.6 7.731 14.77 12.695 3.26 4.964 4.89 10.986 4.89 18.066 0 11.882-4.93 21.525-14.77 28.931-9.85 7.324-22.75 10.986-38.7 10.986-10.82 0-20.47-1.953-28.93-5.859-8.46-3.906-15.06-9.277-19.78-16.113-4.72-6.836-7.08-14.201-7.08-22.095h28.81c.41 6.999 3.05 12.411 7.94 16.235 4.88 3.744 11.35 5.616 19.41 5.616 7.81 0 13.75-1.465 17.82-4.395 4.07-3.011 6.1-6.917 6.1-11.719Zm113.28 38.33c-18.79 0-34.05-5.9-45.77-17.7-11.64-11.881-17.46-27.669-17.46-47.363v-3.662c0-13.184 2.52-24.943 7.57-35.278 5.13-10.417 12.29-18.514 21.48-24.292 9.2-5.778 19.45-8.667 30.77-8.667 17.98 0 31.86 5.737 41.62 17.211 9.85 11.475 14.77 27.71 14.77 48.706v11.963h-86.3c.89 10.905 4.52 19.532 10.86 25.879 6.43 6.348 14.49 9.522 24.17 9.522 13.59 0 24.66-5.493 33.21-16.48l15.99 15.259c-5.29 7.894-12.37 14.038-21.24 18.433-8.79 4.313-18.68 6.469-29.67 6.469Zm-3.54-113.159c-8.13 0-14.73 2.849-19.77 8.545-4.97 5.697-8.14 13.631-9.52 23.804h56.52v-2.197c-.66-9.929-3.3-17.416-7.94-22.461-4.64-5.127-11.07-7.691-19.29-7.691Zm153.69 74.829c0-5.289-2.2-9.318-6.59-12.085-4.31-2.767-11.52-5.208-21.61-7.324-10.09-2.116-18.51-4.801-25.27-8.056-14.81-7.162-22.21-17.538-22.21-31.128 0-11.394 4.8-20.915 14.4-28.565 9.6-7.65 21.81-11.474 36.62-11.474 15.79 0 28.53 3.906 38.21 11.718 9.77 7.813 14.65 17.945 14.65 30.396h-29.66c0-5.697-2.12-10.417-6.35-14.16-4.23-3.825-9.85-5.738-16.85-5.738-6.51 0-11.84 1.506-15.99 4.517-4.07 3.011-6.1 7.039-6.1 12.085 0 4.557 1.91 8.097 5.73 10.62 3.83 2.523 11.56 5.086 23.2 7.69 11.64 2.523 20.75 5.575 27.34 9.156 6.68 3.499 11.6 7.731 14.77 12.695 3.26 4.964 4.89 10.986 4.89 18.066 0 11.882-4.93 21.525-14.78 28.931-9.84 7.324-22.74 10.986-38.69 10.986-10.83 0-20.47-1.953-28.93-5.859-8.47-3.906-15.06-9.277-19.78-16.113-4.72-6.836-7.08-14.201-7.08-22.095h28.81c.41 6.999 3.05 12.411 7.94 16.235 4.88 3.744 11.35 5.616 19.4 5.616 7.82 0 13.76-1.465 17.83-4.395 4.07-3.011 6.1-6.917 6.1-11.719Z" fill="#D46899"/></g><defs><filter id="a" x="-46" y="-48" width="1935" height="994" filterUnits="userSpaceOnUse" color-interpolation-filters="sRGB"><feFlood flood-opacity="0" result="BackgroundImageFix"/><feGaussianBlur in="BackgroundImage" stdDeviation="25"/><feComposite in2="SourceAlpha" operator="in" result="effect1_backgroundBlur"/><feColorMatrix in="SourceAlpha" values="0 0 0 0 0 0 0 0 0 0 0 0 0 0 0 0 0 0 127 0" result="hardAlpha"/><feOffset dy="4"/><feGaussianBlur stdDeviation="2"/><feComposite in2="hardAlpha" operator="out"/><feColorMatrix values="0 0 0 0 0 0 0 0 0 0 0 0 0 0 0 0 0 0 0.25 0"/><feBlend in2="effect1_backgroundBlur" result="effect2_dropShadow"/><feBlend in="SourceGraphic" in2="effect2_dropShadow" result="shape"/></filter><filter id="b" x="284" y="545" width="1281" height="366.007" filterUnits="userSpaceOnUse" color-interpolation-filters="sRGB"><feFlood flood-opacity="0" result="BackgroundImageFix"/><feColorMatrix in="SourceAlpha" values="0 0 0 0 0 0 0 0 0 0 0 0 0 0 0 0 0 0 127 0" result="hardAlpha"/><feOffset/><feGaussianBlur stdDeviation="25"/><feComposite in2="hardAlpha" operator="out"/><feColorMatrix values="0 0 0 0 0.258824 0 0 0 0 0.258824 0 0 0 0 0.258824 0 0 0 0.75 0"/><feBlend in2="BackgroundImageFix" result="effect1_dropShadow"/><feBlend in="SourceGraphic" in2="effect1_dropShadow" result="shape"/></filter><filter id="c" x="290.379" y=".266" width="1265.57" height="493.516" filterUnits="userSpaceOnUse" color-interpolation-filters="sRGB"><feFlood flood-opacity="0" result="BackgroundImageFix"/><feColorMatrix in="SourceAlpha" values="0 0 0 0 0 0 0 0 0 0 0 0 0 0 0 0 0 0 127 0" result="hardAlpha"/><feOffset/><feGaussianBlur stdDeviation="15"/><feComposite in2="hardAlpha" operator="out"/><feColorMatrix values="0 0 0 0 0.258824 0 0 0 0 0.258824 0 0 0 0 0.258824 0 0 0 0.75 0"/><feBlend in2="BackgroundImageFix" result="effect1_dropShadow"/><feBlend in="SourceGraphic" in2="effect1_dropShadow" result="shape"/></filter></defs></svg>