<svg width="2444" height="896" fill="none" xmlns="http://www.w3.org/2000/svg"><g filter="url(#a)"><rect x="4" width="2436" height="888" rx="100" fill="#fff" fill-opacity=".65" shape-rendering="crispEdges"/></g><rect x="202" y="29" width="2039" height="98" rx="10" fill="#000" fill-opacity=".25"/><rect x="136" y="161" width="2171" height="148" rx="10" fill="#A8A8A8" fill-opacity=".45"/><rect x="53" y="343" width="2337" height="203" rx="10" fill="#D0D0D0" fill-opacity=".65"/><rect x="136" y="580" width="2171" height="148" rx="10" fill="#A8A8A8" fill-opacity=".45"/><rect x="202" y="762" width="2039" height="98" rx="10" fill="#000" fill-opacity=".25"/><path d="M1133.9 89.36v72.802c-.05 7.178-1.63 13.428-4.76 18.75-3.12 5.322-7.54 9.424-13.26 12.305-5.66 2.832-12.18 4.248-19.55 4.248-11.23 0-20.24-3.052-27.03-9.155-6.74-6.153-10.23-14.649-10.47-25.489V89.359h8.93v72.144c0 8.984 2.57 15.967 7.7 20.947 5.12 4.932 12.08 7.398 20.87 7.398 8.79 0 15.72-2.491 20.8-7.471 5.13-4.981 7.69-11.914 7.69-20.801V89.359h9.08Zm86.79 67.822c0 12.353-2.73 22.168-8.2 29.443-5.47 7.227-12.79 10.84-21.97 10.84-10.84 0-19.14-3.809-24.9-11.426v40.43h-8.72V116.752h8.13l.44 11.206c5.71-8.447 13.99-12.671 24.83-12.671 9.47 0 16.89 3.589 22.26 10.767 5.42 7.177 8.13 17.138 8.13 29.883v1.245Zm-8.78-1.538c0-10.108-2.08-18.091-6.23-23.951-4.15-5.859-9.94-8.789-17.36-8.789-5.37 0-9.98 1.294-13.84 3.882-3.86 2.588-6.81 6.348-8.86 11.279v38.013c2.1 4.541 5.1 8.008 9 10.401 3.91 2.392 8.53 3.588 13.85 3.588 7.37 0 13.11-2.929 17.21-8.789 4.15-5.908 6.23-14.453 6.23-25.634Zm78.36-59.18v20.288h16.41v7.178h-16.41v52.807c0 4.395.79 7.666 2.35 9.815 1.61 2.148 4.27 3.222 7.98 3.222 1.47 0 3.83-.244 7.11-.732l.36 7.178c-2.29.83-5.42 1.245-9.37 1.245-6.01 0-10.38-1.734-13.11-5.2-2.74-3.516-4.1-8.667-4.1-15.454V123.93h-14.58v-7.178h14.58V96.464h8.78Zm28.28 58.74c0-7.617 1.46-14.477 4.39-20.581 2.98-6.103 7.15-10.84 12.52-14.209 5.42-3.418 11.55-5.127 18.39-5.127 10.55 0 19.09 3.711 25.63 11.133 6.55 7.373 9.82 17.163 9.82 29.37v1.831c0 7.666-1.49 14.575-4.47 20.728-2.93 6.103-7.08 10.815-12.45 14.135-5.37 3.321-11.5 4.981-18.38 4.981-10.5 0-19.05-3.687-25.64-11.06-6.54-7.422-9.81-17.236-9.81-29.443v-1.758Zm8.78 2.417c0 9.473 2.45 17.261 7.33 23.364 4.93 6.055 11.38 9.082 19.34 9.082 7.91 0 14.3-3.027 19.18-9.082 4.94-6.103 7.4-14.135 7.4-24.096v-1.685c0-6.055-1.12-11.597-3.37-16.626-2.24-5.029-5.39-8.911-9.45-11.645-4.05-2.784-8.69-4.175-13.91-4.175-7.81 0-14.19 3.076-19.12 9.228-4.93 6.104-7.4 14.112-7.4 24.024v1.611ZM913.736 755.567V799h-9.008V692.359h36.328c11.084 0 19.824 2.832 26.22 8.496 6.446 5.665 9.668 13.453 9.668 23.365 0 10.009-3.1 17.749-9.301 23.218-6.153 5.419-15.088 8.129-26.807 8.129h-27.1Zm0-7.617h27.32c8.74 0 15.405-2.075 19.995-6.225 4.59-4.151 6.885-9.937 6.885-17.359 0-7.373-2.295-13.232-6.885-17.578-4.541-4.394-11.011-6.641-19.409-6.738h-27.906v47.9Zm111.034 52.515c-6.74 0-12.84-1.66-18.31-4.981-5.42-3.32-9.643-7.934-12.67-13.842-3.027-5.957-4.541-12.622-4.541-19.996v-3.149c0-7.617 1.465-14.477 4.395-20.581 2.978-6.104 7.106-10.889 12.376-14.355 5.27-3.516 10.99-5.274 17.14-5.274 9.62 0 17.24 3.296 22.85 9.888 5.67 6.543 8.5 15.503 8.5 26.88v4.907h-56.545v1.684c0 8.985 2.565 16.48 7.695 22.486 5.17 5.957 11.67 8.935 19.48 8.935 4.69 0 8.81-.854 12.38-2.563 3.61-1.709 6.88-4.443 9.81-8.203l5.49 4.175c-6.44 9.326-15.79 13.989-28.05 13.989Zm-1.61-74.707c-6.59 0-12.16 2.417-16.7 7.251-4.49 4.834-7.226 11.328-8.202 19.482h47.532v-.952c-.24-7.617-2.41-13.818-6.52-18.603-4.1-4.786-9.47-7.178-16.11-7.178Zm85.03 1.465c-1.85-.342-3.83-.513-5.93-.513-5.47 0-10.11 1.538-13.91 4.614-3.76 3.028-6.45 7.447-8.06 13.257V799h-8.72v-79.248h8.57l.15 12.598c4.64-9.375 12.08-14.063 22.34-14.063 2.44 0 4.37.317 5.78.952l-.22 7.984Zm97.86 51.635c0-4.345-1.76-7.837-5.28-10.473-3.46-2.637-8.71-4.688-15.74-6.153-7.04-1.513-12.5-3.222-16.41-5.127-3.86-1.953-6.74-4.321-8.64-7.104-1.86-2.783-2.79-6.152-2.79-10.107 0-6.25 2.62-11.402 7.84-15.455 5.22-4.101 11.91-6.152 20.07-6.152 8.84 0 15.92 2.197 21.24 6.592 5.37 4.346 8.06 10.034 8.06 17.065h-8.79c0-4.638-1.96-8.496-5.86-11.572-3.86-3.076-8.74-4.614-14.65-4.614-5.76 0-10.4 1.294-13.92 3.882-3.46 2.539-5.2 5.859-5.2 9.961 0 3.955 1.44 7.031 4.32 9.228 2.93 2.149 8.23 4.126 15.9 5.933 7.71 1.806 13.47 3.735 17.28 5.786 3.86 2.051 6.72 4.516 8.57 7.397 1.86 2.881 2.78 6.372 2.78 10.474 0 6.689-2.71 12.036-8.12 16.04-5.38 4.004-12.41 6.006-21.1 6.006-9.23 0-16.72-2.222-22.48-6.665-5.72-4.492-8.57-10.156-8.57-16.992h8.79c.34 5.127 2.49 9.13 6.44 12.011 4 2.832 9.28 4.248 15.82 4.248 6.1 0 11.04-1.342 14.8-4.028 3.76-2.685 5.64-6.079 5.64-10.181Zm59.25 21.607c-6.74 0-12.84-1.66-18.31-4.981-5.42-3.32-9.65-7.934-12.67-13.842-3.03-5.957-4.54-12.622-4.54-19.996v-3.149c0-7.617 1.46-14.477 4.39-20.581 2.98-6.104 7.11-10.889 12.38-14.355 5.27-3.516 10.99-5.274 17.14-5.274 9.62 0 17.23 3.296 22.85 9.888 5.66 6.543 8.5 15.503 8.5 26.88v4.907h-56.55v1.684c0 8.985 2.57 16.48 7.69 22.486 5.18 5.957 11.67 8.935 19.49 8.935 4.68 0 8.81-.854 12.37-2.563 3.62-1.709 6.89-4.443 9.82-8.203l5.49 4.175c-6.44 9.326-15.8 13.989-28.05 13.989Zm-1.61-74.707c-6.59 0-12.16 2.417-16.7 7.251-4.49 4.834-7.23 11.328-8.2 19.482h47.53v-.952c-.24-7.617-2.42-13.818-6.52-18.603-4.1-4.786-9.47-7.178-16.11-7.178Zm85.03 1.465c-1.85-.342-3.83-.513-5.93-.513-5.47 0-10.11 1.538-13.92 4.614-3.76 3.028-6.44 7.447-8.05 13.257V799h-8.72v-79.248h8.57l.15 12.598c4.64-9.375 12.08-14.063 22.34-14.063 2.44 0 4.37.317 5.78.952l-.22 7.984Zm39.92 59.692 24.1-67.163h9L1392.15 799h-7.1l-29.74-79.248h9.01l24.32 67.163Zm77.2 13.55c-6.74 0-12.85-1.66-18.31-4.981-5.42-3.32-9.65-7.934-12.68-13.842-3.02-5.957-4.54-12.622-4.54-19.996v-3.149c0-7.617 1.47-14.477 4.4-20.581 2.98-6.104 7.1-10.889 12.38-14.355 5.27-3.516 10.98-5.274 17.13-5.274 9.62 0 17.24 3.296 22.86 9.888 5.66 6.543 8.49 15.503 8.49 26.88v4.907h-56.54v1.684c0 8.985 2.56 16.48 7.69 22.486 5.18 5.957 11.67 8.935 19.48 8.935 4.69 0 8.82-.854 12.38-2.563 3.61-1.709 6.88-4.443 9.81-8.203l5.5 4.175c-6.45 9.326-15.8 13.989-28.05 13.989Zm-1.62-74.707c-6.59 0-12.15 2.417-16.69 7.251-4.5 4.834-7.23 11.328-8.21 19.482h47.54v-.952c-.25-7.617-2.42-13.818-6.52-18.603-4.1-4.786-9.47-7.178-16.12-7.178Zm85.04 1.465c-1.86-.342-3.83-.513-5.93-.513-5.47 0-10.11 1.538-13.92 4.614-3.76 3.028-6.45 7.447-8.06 13.257V799h-8.71v-79.248h8.57l.14 12.598c4.64-9.375 12.09-14.063 22.34-14.063 2.44 0 4.37.317 5.79.952l-.22 7.984Z" fill="#000"/><g filter="url(#b)"><path d="M823.76 530H704.253v-20.386l59.204-64.575c8.545-9.521 14.608-17.456 18.189-23.804 3.662-6.429 5.493-12.858 5.493-19.287 0-8.463-2.401-15.299-7.202-20.508-4.721-5.208-11.109-7.812-19.166-7.812-9.602 0-17.049 2.93-22.338 8.789-5.29 5.859-7.935 13.875-7.935 24.048h-29.663c0-10.824 2.441-20.549 7.324-29.175 4.964-8.708 12.004-15.462 21.118-20.264 9.196-4.801 19.776-7.202 31.739-7.202 17.252 0 30.843 4.354 40.771 13.062 10.01 8.626 15.015 20.589 15.015 35.888 0 8.871-2.523 18.189-7.569 27.955-4.964 9.684-13.143 20.711-24.536 33.081l-43.457 46.508h82.52V530Zm30.517-88.135 9.644-89.599h95.459V377.9h-70.801l-4.883 42.481c8.22-4.72 17.497-7.08 27.832-7.08 16.927 0 30.07 5.412 39.429 16.235 9.44 10.824 14.16 25.391 14.16 43.701 0 18.067-5.208 32.471-15.625 43.213-10.416 10.661-24.699 15.991-42.846 15.991-16.277 0-29.786-4.598-40.528-13.794-10.661-9.277-16.439-21.484-17.334-36.621h28.687c1.139 8.627 4.231 15.259 9.277 19.898 5.046 4.557 11.637 6.836 19.775 6.836 9.115 0 16.195-3.255 21.241-9.766 5.127-6.51 7.69-15.381 7.69-26.611 0-10.824-2.808-19.369-8.423-25.635-5.615-6.348-13.346-9.521-23.193-9.521-5.371 0-9.928.732-13.672 2.197-3.743 1.383-7.812 4.15-12.207 8.301l-23.682-5.86Zm303.593 12.818h-71.54V530h-30.88V352.266h112.91v24.902h-82.03v52.856h71.54v24.659Zm23.92 8.056c0-12.939 2.57-24.577 7.69-34.912 5.13-10.417 12.33-18.392 21.61-23.926 9.28-5.615 19.94-8.422 31.98-8.422 17.82 0 32.27 5.737 43.34 17.211 11.15 11.475 17.17 26.693 18.06 45.655l.12 6.958c0 13.021-2.52 24.658-7.56 34.912-4.97 10.254-12.13 18.188-21.49 23.804-9.28 5.615-20.02 8.422-32.22 8.422-18.64 0-33.57-6.184-44.8-18.554-11.15-12.451-16.73-29.012-16.73-49.683v-1.465Zm29.67 2.564c0 13.59 2.8 24.251 8.42 31.982 5.61 7.65 13.43 11.475 23.44 11.475 10.01 0 17.78-3.906 23.31-11.719 5.62-7.812 8.42-19.246 8.42-34.302 0-13.346-2.89-23.926-8.66-31.738-5.7-7.813-13.47-11.719-23.32-11.719-9.68 0-17.37 3.866-23.07 11.597-5.7 7.65-8.54 19.124-8.54 34.424Zm187.37-40.283c-3.9-.652-7.93-.977-12.08-.977-13.59 0-22.75 5.208-27.47 15.625V530h-29.66V397.92h28.32l.73 14.77c7.16-11.474 17.09-17.211 29.79-17.211 4.23 0 7.73.569 10.5 1.709l-.13 27.832Zm46.63-27.1.86 13.794c9.28-10.824 21.97-16.235 38.08-16.235 17.66 0 29.75 6.754 36.26 20.263 9.6-13.509 23.11-20.263 40.53-20.263 14.56 0 25.39 4.028 32.47 12.084 7.16 8.057 10.82 19.939 10.98 35.645V530h-29.66v-85.938c0-8.382-1.83-14.526-5.49-18.432-3.66-3.906-9.73-5.859-18.19-5.859-6.76 0-12.29 1.831-16.6 5.493-4.23 3.58-7.2 8.3-8.91 14.16l.12 90.576h-29.66v-86.914c-.41-15.544-8.35-23.315-23.81-23.315-11.88 0-20.3 4.842-25.27 14.526V530h-29.66V397.92h27.95Zm263.68 96.191c0-5.289-2.2-9.318-6.6-12.085-4.31-2.767-11.51-5.208-21.6-7.324-10.09-2.116-18.52-4.801-25.27-8.056-14.81-7.162-22.22-17.538-22.22-31.128 0-11.394 4.8-20.915 14.41-28.565 9.6-7.65 21.81-11.474 36.62-11.474 15.79 0 28.52 3.906 38.21 11.718 9.76 7.813 14.64 17.945 14.64 30.396h-29.66c0-5.697-2.11-10.417-6.35-14.16-4.23-3.825-9.84-5.738-16.84-5.738-6.51 0-11.84 1.506-15.99 4.517-4.07 3.011-6.11 7.039-6.11 12.085 0 4.557 1.92 8.097 5.74 10.62 3.82 2.523 11.56 5.086 23.19 7.69 11.64 2.523 20.76 5.575 27.35 9.156 6.67 3.499 11.59 7.731 14.77 12.695 3.25 4.964 4.88 10.986 4.88 18.066 0 11.882-4.92 21.525-14.77 28.931-9.85 7.324-22.75 10.986-38.7 10.986-10.82 0-20.46-1.953-28.93-5.859-8.46-3.906-15.05-9.277-19.77-16.113-4.72-6.836-7.08-14.201-7.08-22.095h28.81c.4 6.999 3.05 12.411 7.93 16.235 4.88 3.744 11.35 5.616 19.41 5.616 7.81 0 13.75-1.465 17.82-4.395 4.07-3.011 6.11-6.917 6.11-11.719Z" fill="url(#c)"/></g><defs><filter id="a" x="-46" y="-50" width="2536" height="988" filterUnits="userSpaceOnUse" color-interpolation-filters="sRGB"><feFlood flood-opacity="0" result="BackgroundImageFix"/><feGaussianBlur in="BackgroundImage" stdDeviation="25"/><feComposite in2="SourceAlpha" operator="in" result="effect1_backgroundBlur"/><feColorMatrix in="SourceAlpha" values="0 0 0 0 0 0 0 0 0 0 0 0 0 0 0 0 0 0 127 0" result="hardAlpha"/><feOffset dy="4"/><feGaussianBlur stdDeviation="2"/><feComposite in2="hardAlpha" operator="out"/><feColorMatrix values="0 0 0 0 0 0 0 0 0 0 0 0 0 0 0 0 0 0 0.25 0"/><feBlend in2="effect1_backgroundBlur" result="effect2_dropShadow"/><feBlend in="SourceGraphic" in2="effect2_dropShadow" result="shape"/></filter><filter id="b" x="650.836" y="299.824" width="1137.48" height="282.617" filterUnits="userSpaceOnUse" color-interpolation-filters="sRGB"><feFlood flood-opacity="0" result="BackgroundImageFix"/><feColorMatrix in="SourceAlpha" values="0 0 0 0 0 0 0 0 0 0 0 0 0 0 0 0 0 0 127 0" result="hardAlpha"/><feOffset/><feGaussianBlur stdDeviation="25"/><feComposite in2="hardAlpha" operator="out"/><feColorMatrix values="0 0 0 0 1 0 0 0 0 1 0 0 0 0 1 0 0 0 0.75 0"/><feBlend in2="BackgroundImageFix" result="effect1_dropShadow"/><feBlend in="SourceGraphic" in2="effect1_dropShadow" result="shape"/></filter><linearGradient id="c" x1="307.572" y1="98.965" x2="2335.06" y2="203.835" gradientUnits="userSpaceOnUse"><stop stop-color="#60B358"/><stop offset="1" stop-color="#65CC76"/></linearGradient></defs></svg>