<svg width="1196" height="1844" fill="none" xmlns="http://www.w3.org/2000/svg"><g filter="url(#a)"><rect x="4" width="1188" height="1836" rx="100" fill="#fff" fill-opacity=".65" shape-rendering="crispEdges"/></g><path fill-rule="evenodd" clip-rule="evenodd" d="M560 1258H163v397h397v-397Zm-120.563 77.16c11.278-11.28 29.563-11.28 40.841 0 11.278 11.28 11.278 29.57 0 40.84l-80.19 80.19 80.19 80.19c11.278 11.28 11.278 29.57 0 40.85-11.278 11.27-29.563 11.27-40.841 0l-80.19-80.19-80.191 80.19c-11.278 11.27-29.563 11.27-40.841 0-11.278-11.28-11.278-29.57 0-40.85l80.19-80.19-80.19-80.19c-11.278-11.27-11.278-29.56 0-40.84 11.278-11.28 29.563-11.28 40.841 0l80.191 80.19 80.19-80.19Z" fill="#775EBF" fill-opacity=".5"/><g clip-path="url(#b)"><path fill-rule="evenodd" clip-rule="evenodd" d="M1032.99 1258H635.988v397h397.002v-397Zm-72.681 135.05-167.778 168.32c-11.274 11.28-29.554 11.28-40.829 0l-43.603-43.6c-11.275-11.27-11.275-29.55 0-40.83 11.275-11.27 29.554-11.27 40.829 0l22.914 22.92 147.638-147.64c11.275-11.28 29.554-11.28 40.829 0 11.275 11.27 11.275 29.55 0 40.83Z" fill="#775EBF" fill-opacity=".5"/></g><path d="M129.479 855.644c0-12.403 2.735-22.217 8.204-29.444 5.517-7.275 13.037-10.913 22.558-10.913 10.694 0 18.823 4.077 24.39 12.232l.439-10.767h8.203v109.717h-8.789v-40.283c-5.761 7.519-13.891 11.279-24.389 11.279-9.278 0-16.699-3.662-22.266-10.986-5.566-7.325-8.35-17.212-8.35-29.664v-1.171Zm8.863 1.538c0 10.254 2.051 18.31 6.152 24.17 4.151 5.81 9.888 8.715 17.212 8.715 10.498 0 18.091-4.565 22.778-13.696v-38.818c-2.197-4.737-5.249-8.374-9.155-10.913-3.857-2.588-8.35-3.882-13.476-3.882-7.374 0-13.135 2.93-17.286 8.789-4.15 5.81-6.225 14.355-6.225 25.635Zm129.272 28.784c-5.273 7.666-13.696 11.499-25.268 11.499-8.448 0-14.868-2.442-19.263-7.324-4.395-4.932-6.641-12.207-6.738-21.827v-51.562h8.716v50.464c0 15.088 6.103 22.632 18.31 22.632 12.695 0 20.728-5.249 24.097-15.747v-57.349h8.789V896h-8.496l-.147-10.034Zm62.183 11.499c-6.738 0-12.842-1.66-18.311-4.981-5.42-3.32-9.643-7.934-12.671-13.842-3.027-5.957-4.541-12.622-4.541-19.996v-3.149c0-7.617 1.465-14.477 4.395-20.581 2.978-6.104 7.104-10.889 12.378-14.355 5.273-3.516 10.986-5.274 17.139-5.274 9.619 0 17.236 3.296 22.851 9.888 5.664 6.543 8.496 15.503 8.496 26.88v4.907H302.99v1.684c0 8.985 2.564 16.48 7.691 22.486 5.175 5.957 11.67 8.935 19.482 8.935 4.688 0 8.814-.854 12.378-2.563 3.613-1.709 6.885-4.443 9.814-8.203l5.494 4.175c-6.446 9.326-15.796 13.989-28.052 13.989Zm-1.611-74.707c-6.592 0-12.159 2.417-16.7 7.251-4.492 4.834-7.226 11.328-8.203 19.482h47.534v-.952c-.244-7.617-2.417-13.818-6.518-18.603-4.102-4.786-9.473-7.178-16.113-7.178Zm95.874 53.1c0-4.345-1.758-7.837-5.274-10.473-3.467-2.637-8.716-4.688-15.747-6.153-7.031-1.513-12.5-3.222-16.406-5.127-3.858-1.953-6.738-4.321-8.643-7.104-1.855-2.783-2.783-6.152-2.783-10.107 0-6.25 2.612-11.402 7.837-15.455 5.225-4.101 11.914-6.152 20.068-6.152 8.838 0 15.918 2.197 21.241 6.592 5.371 4.346 8.056 10.034 8.056 17.065h-8.789c0-4.638-1.953-8.496-5.859-11.572-3.858-3.076-8.74-4.614-14.649-4.614-5.761 0-10.4 1.294-13.916 3.882-3.467 2.539-5.2 5.859-5.2 9.961 0 3.955 1.441 7.031 4.321 9.228 2.93 2.149 8.228 4.126 15.894 5.933 7.715 1.806 13.477 3.735 17.285 5.786 3.858 2.051 6.714 4.516 8.569 7.397 1.856 2.881 2.784 6.372 2.784 10.474 0 6.689-2.71 12.036-8.13 16.04-5.371 4.004-12.403 6.006-21.094 6.006-9.229 0-16.724-2.222-22.485-6.665-5.713-4.492-8.57-10.156-8.57-16.992h8.789c.342 5.127 2.491 9.13 6.446 12.011 4.004 2.832 9.277 4.248 15.82 4.248 6.104 0 11.035-1.342 14.795-4.028 3.76-2.685 5.64-6.079 5.64-10.181Zm42.187-79.394v20.288h16.406v7.178h-16.406v52.807c0 4.395.781 7.666 2.344 9.815 1.611 2.148 4.272 3.222 7.983 3.222 1.465 0 3.833-.244 7.105-.732l.366 7.178c-2.295.83-5.42 1.245-9.375 1.245-6.006 0-10.376-1.734-13.11-5.2-2.735-3.516-4.102-8.667-4.102-15.454V823.93h-14.575v-7.178h14.575v-20.288h8.789ZM510.632 896h-8.789v-79.248h8.789V896Zm-10.327-102.173c0-1.66.537-3.052 1.611-4.175 1.074-1.172 2.539-1.757 4.395-1.757 1.855 0 3.32.585 4.394 1.757 1.123 1.123 1.685 2.515 1.685 4.175 0 1.66-.562 3.052-1.685 4.175-1.074 1.123-2.539 1.685-4.394 1.685-1.856 0-3.321-.562-4.395-1.685-1.074-1.123-1.611-2.515-1.611-4.175Zm29.37 61.377c0-7.617 1.465-14.477 4.394-20.581 2.979-6.103 7.154-10.84 12.525-14.209 5.42-3.418 11.548-5.127 18.384-5.127 10.546 0 19.091 3.711 25.634 11.133 6.543 7.373 9.815 17.163 9.815 29.37v1.831c0 7.666-1.489 14.575-4.468 20.728-2.93 6.103-7.08 10.815-12.451 14.135-5.371 3.321-11.499 4.981-18.384 4.981-10.498 0-19.043-3.687-25.635-11.06-6.543-7.422-9.814-17.236-9.814-29.443v-1.758Zm8.789 2.417c0 9.473 2.441 17.261 7.324 23.364 4.932 6.055 11.377 9.082 19.336 9.082 7.91 0 14.307-3.027 19.189-9.082 4.932-6.103 7.398-14.135 7.398-24.096v-1.685c0-6.055-1.123-11.597-3.369-16.626-2.246-5.029-5.396-8.911-9.448-11.645-4.053-2.784-8.692-4.175-13.916-4.175-7.813 0-14.185 3.076-19.117 9.228-4.931 6.104-7.397 14.112-7.397 24.024v1.611Zm88.476-40.869.293 13.55c2.979-4.883 6.69-8.594 11.133-11.133 4.444-2.588 9.351-3.882 14.722-3.882 8.496 0 14.819 2.393 18.97 7.178 4.15 4.785 6.25 11.963 6.298 21.533V896h-8.715v-52.075c-.049-7.08-1.563-12.354-4.541-15.821-2.93-3.466-7.642-5.2-14.136-5.2-5.42 0-10.23 1.709-14.429 5.127-4.15 3.369-7.226 7.935-9.228 13.697V896h-8.716v-79.248h8.349Zm121.582 59.106c0-4.345-1.757-7.837-5.273-10.473-3.467-2.637-8.716-4.688-15.747-6.153-7.031-1.513-12.5-3.222-16.406-5.127-3.858-1.953-6.739-4.321-8.643-7.104-1.855-2.783-2.783-6.152-2.783-10.107 0-6.25 2.612-11.402 7.837-15.455 5.224-4.101 11.914-6.152 20.068-6.152 8.838 0 15.918 2.197 21.24 6.592 5.372 4.346 8.057 10.034 8.057 17.065h-8.789c0-4.638-1.953-8.496-5.859-11.572-3.858-3.076-8.741-4.614-14.649-4.614-5.762 0-10.4 1.294-13.916 3.882-3.467 2.539-5.2 5.859-5.2 9.961 0 3.955 1.44 7.031 4.321 9.228 2.93 2.149 8.228 4.126 15.894 5.933 7.715 1.806 13.476 3.735 17.285 5.786 3.857 2.051 6.714 4.516 8.569 7.397 1.856 2.881 2.784 6.372 2.784 10.474 0 6.689-2.71 12.036-8.13 16.04-5.371 4.004-12.403 6.006-21.094 6.006-9.229 0-16.724-2.222-22.485-6.665-5.713-4.492-8.57-10.156-8.57-16.992h8.789c.342 5.127 2.49 9.13 6.446 12.011 4.003 2.832 9.277 4.248 15.82 4.248 6.103 0 11.035-1.342 14.795-4.028 3.76-2.685 5.639-6.079 5.639-10.181Zm84.009 1.905 1.319 6.811 1.757-7.178 19.043-60.644h7.471l18.823 60.132 2.051 8.349 1.685-7.69 16.259-60.791h9.082L886.95 896h-7.471l-20.361-62.842-.952-4.321-.952 4.394L837.219 896h-7.471l-22.998-79.248h9.009l16.772 61.011ZM936.462 896h-8.789v-79.248h8.789V896Zm-10.327-102.173c0-1.66.537-3.052 1.611-4.175 1.074-1.172 2.539-1.757 4.395-1.757 1.855 0 3.32.585 4.394 1.757 1.123 1.123 1.685 2.515 1.685 4.175 0 1.66-.562 3.052-1.685 4.175-1.074 1.123-2.539 1.685-4.394 1.685-1.856 0-3.321-.562-4.395-1.685-1.074-1.123-1.611-2.515-1.611-4.175Zm47.827 2.637v20.288h16.406v7.178h-16.406v52.807c0 4.395.781 7.666 2.344 9.815 1.611 2.148 4.272 3.222 7.983 3.222 1.465 0 3.833-.244 7.105-.732l.366 7.178c-2.295.83-5.42 1.245-9.375 1.245-6.006 0-10.376-1.734-13.111-5.2-2.734-3.516-4.101-8.667-4.101-15.454V823.93h-14.575v-7.178h14.575v-20.288h8.789Zm43.288 33.691c2.88-4.736 6.57-8.398 11.06-10.986 4.49-2.588 9.4-3.882 14.72-3.882 8.5 0 14.82 2.393 18.97 7.178 4.15 4.785 6.25 11.963 6.3 21.533V896h-8.72v-52.075c-.05-7.08-1.56-12.354-4.54-15.821-2.93-3.466-7.64-5.2-14.13-5.2-5.42 0-10.23 1.709-14.43 5.127-4.15 3.369-7.23 7.935-9.23 13.697V896h-8.72V783.5h8.72v46.655ZM130.871 1061.97c-5.273 7.66-13.696 11.49-25.268 11.49-8.448 0-14.869-2.44-19.263-7.32-4.395-4.93-6.64-12.21-6.738-21.83v-51.558h8.715v50.468c0 15.08 6.104 22.63 18.311 22.63 12.695 0 20.727-5.25 24.097-15.75v-57.348h8.789V1072h-8.496l-.147-10.03Zm95.215-28.79c0 12.36-2.734 22.17-8.203 29.44-5.469 7.23-12.793 10.84-21.973 10.84-10.84 0-19.14-3.8-24.902-11.42v40.43h-8.716V992.752h8.13l.439 11.208c5.713-8.449 13.99-12.673 24.829-12.673 9.473 0 16.895 3.589 22.266 10.763 5.42 7.18 8.13 17.14 8.13 29.89v1.24Zm-8.789-1.54c0-10.1-2.075-18.09-6.226-23.95-4.15-5.86-9.936-8.786-17.358-8.786-5.371 0-9.985 1.296-13.843 3.886-3.857 2.58-6.811 6.34-8.862 11.28v38.01c2.099 4.54 5.102 8.01 9.009 10.4 3.906 2.39 8.52 3.59 13.842 3.59 7.373 0 13.111-2.93 17.212-8.79 4.151-5.91 6.226-14.45 6.226-25.64Zm78.369-59.176v20.288h16.406v7.178h-16.406v52.81c0 4.39.781 7.66 2.344 9.81 1.611 2.15 4.272 3.22 7.983 3.22 1.465 0 3.833-.24 7.105-.73l.366 7.18c-2.295.83-5.42 1.24-9.375 1.24-6.006 0-10.376-1.73-13.11-5.2-2.735-3.51-4.102-8.66-4.102-15.45v-52.88h-14.575v-7.178h14.575v-20.288h8.789Zm28.272 58.736c0-7.61 1.464-14.47 4.394-20.58 2.979-6.1 7.153-10.837 12.524-14.206 5.42-3.418 11.548-5.127 18.384-5.127 10.547 0 19.092 3.711 25.635 11.133 6.543 7.37 9.814 17.16 9.814 29.37v1.83c0 7.67-1.489 14.58-4.467 20.73-2.93 6.1-7.08 10.81-12.451 14.13-5.372 3.32-11.5 4.98-18.384 4.98-10.498 0-19.043-3.68-25.635-11.05-6.543-7.43-9.814-17.24-9.814-29.45v-1.76Zm8.789 2.42c0 9.47 2.441 17.26 7.324 23.37 4.931 6.05 11.377 9.08 19.336 9.08 7.91 0 14.306-3.03 19.189-9.08 4.932-6.11 7.398-14.14 7.398-24.1v-1.69c0-6.05-1.123-11.59-3.37-16.62-2.246-5.03-5.395-8.91-9.448-11.65-4.052-2.78-8.691-4.172-13.916-4.172-7.812 0-14.184 3.072-19.116 9.232-4.932 6.1-7.397 14.11-7.397 24.02v1.61ZM514.733 1072h-66.796v-6.74l36.547-41.45c6.055-6.99 10.254-12.75 12.598-17.29 2.344-4.54 3.516-8.958 3.516-13.255 0-6.739-1.978-12.061-5.933-15.967-3.955-3.955-9.399-5.933-16.333-5.933-7.178 0-12.988 2.295-17.432 6.885-4.394 4.59-6.591 10.547-6.591 17.871h-8.716c0-6.006 1.343-11.475 4.028-16.406 2.734-4.932 6.592-8.789 11.572-11.572 5.03-2.832 10.743-4.248 17.139-4.248 9.766 0 17.383 2.563 22.852 7.69 5.517 5.127 8.276 12.109 8.276 20.947 0 4.981-1.563 10.428-4.688 16.338-3.076 5.9-8.52 13.28-16.333 22.11l-29.736 33.62h56.03v7.4Zm22.339-54.64 5.2-52.001h53.321v8.13h-45.777l-3.735 36.031c5.713-3.9 12.402-5.85 20.068-5.85 9.62 0 17.286 3.12 22.998 9.37 5.713 6.25 8.57 14.58 8.57 24.98 0 11.23-2.783 19.94-8.35 26.14-5.566 6.2-13.403 9.3-23.511 9.3-9.277 0-16.796-2.58-22.558-7.76-5.762-5.17-9.058-12.43-9.888-21.75h8.423c.83 7.27 3.296 12.79 7.397 16.55 4.102 3.71 9.644 5.57 16.626 5.57 7.618 0 13.355-2.42 17.212-7.25 3.907-4.84 5.86-11.72 5.86-20.66 0-7.81-2.173-14.18-6.519-19.11-4.346-4.94-10.278-7.4-17.798-7.4-4.15 0-7.763.54-10.84 1.61-3.076 1.03-6.323 3.05-9.741 6.08l-6.958-1.98Zm110.303 13.84c0-7.61 1.465-14.47 4.395-20.58 2.978-6.1 7.153-10.837 12.524-14.206 5.42-3.418 11.548-5.127 18.384-5.127 10.547 0 19.092 3.711 25.634 11.133 6.543 7.37 9.815 17.16 9.815 29.37v1.83c0 7.67-1.489 14.58-4.468 20.73-2.93 6.1-7.08 10.81-12.451 14.13-5.371 3.32-11.499 4.98-18.384 4.98-10.498 0-19.043-3.68-25.635-11.05-6.543-7.43-9.814-17.24-9.814-29.45v-1.76Zm8.789 2.42c0 9.47 2.441 17.26 7.324 23.37 4.932 6.05 11.377 9.08 19.336 9.08 7.91 0 14.307-3.03 19.19-9.08 4.931-6.11 7.397-14.14 7.397-24.1v-1.69c0-6.05-1.123-11.59-3.369-16.62-2.246-5.03-5.396-8.91-9.448-11.65-4.053-2.78-8.692-4.172-13.916-4.172-7.813 0-14.185 3.072-19.116 9.232-4.932 6.1-7.398 14.11-7.398 24.02v1.61Zm143.848-.44c0 12.36-2.735 22.17-8.203 29.44-5.469 7.23-12.793 10.84-21.973 10.84-10.84 0-19.141-3.8-24.902-11.42v40.43h-8.716V992.752h8.13l.439 11.208c5.713-8.449 13.989-12.673 24.829-12.673 9.473 0 16.895 3.589 22.266 10.763 5.42 7.18 8.13 17.14 8.13 29.89v1.24Zm-8.789-1.54c0-10.1-2.076-18.09-6.226-23.95-4.15-5.86-9.936-8.786-17.358-8.786-5.371 0-9.986 1.296-13.843 3.886-3.858 2.58-6.812 6.34-8.862 11.28v38.01c2.099 4.54 5.102 8.01 9.008 10.4 3.907 2.39 8.521 3.59 13.843 3.59 7.373 0 13.111-2.93 17.212-8.79 4.15-5.91 6.226-14.45 6.226-25.64Zm41.894-59.176v20.288h16.406v7.178h-16.406v52.81c0 4.39.781 7.66 2.344 9.81 1.611 2.15 4.272 3.22 7.983 3.22 1.465 0 3.833-.24 7.105-.73l.366 7.18c-2.295.83-5.42 1.24-9.375 1.24-6.006 0-10.376-1.73-13.11-5.2-2.735-3.51-4.102-8.66-4.102-15.45v-52.88h-14.575v-7.178h14.575v-20.288h8.789ZM877.502 1072h-8.789v-79.248h8.789V1072Zm-10.327-102.173c0-1.66.537-3.052 1.611-4.175 1.074-1.172 2.539-1.757 4.395-1.757 1.855 0 3.32.585 4.394 1.757 1.123 1.123 1.685 2.515 1.685 4.175 0 1.66-.562 3.052-1.685 4.175-1.074 1.123-2.539 1.685-4.394 1.685-1.856 0-3.321-.562-4.395-1.685-1.074-1.123-1.611-2.515-1.611-4.175Zm29.37 61.373c0-7.61 1.465-14.47 4.394-20.58 2.979-6.1 7.154-10.837 12.525-14.206 5.42-3.418 11.548-5.127 18.384-5.127 10.547 0 19.091 3.711 25.634 11.133 6.543 7.37 9.815 17.16 9.815 29.37v1.83c0 7.67-1.489 14.58-4.468 20.73-2.93 6.1-7.08 10.81-12.451 14.13-5.371 3.32-11.499 4.98-18.384 4.98-10.498 0-19.043-3.68-25.635-11.05-6.543-7.43-9.814-17.24-9.814-29.45v-1.76Zm8.789 2.42c0 9.47 2.441 17.26 7.324 23.37 4.932 6.05 11.377 9.08 19.336 9.08 7.91 0 14.307-3.03 19.19-9.08 4.931-6.11 7.397-14.14 7.397-24.1v-1.69c0-6.05-1.123-11.59-3.369-16.62-2.246-5.03-5.396-8.91-9.448-11.65-4.053-2.78-8.692-4.172-13.916-4.172-7.813 0-14.185 3.072-19.117 9.232-4.931 6.1-7.397 14.11-7.397 24.02v1.61Zm88.477-40.868.293 13.548c2.978-4.88 6.686-8.592 11.136-11.131 4.44-2.588 9.35-3.882 14.72-3.882 8.49 0 14.82 2.393 18.97 7.178 4.15 4.785 6.25 11.965 6.3 21.535v52h-8.72v-52.08c-.05-7.08-1.56-12.35-4.54-15.82-2.93-3.46-7.64-5.196-14.14-5.196-5.42 0-10.23 1.706-14.42 5.126-4.155 3.37-7.231 7.94-9.233 13.7V1072h-8.716v-79.248h8.35Zm121.579 59.108c0-4.35-1.76-7.84-5.27-10.48-3.47-2.63-8.72-4.68-15.75-6.15-7.03-1.51-12.5-3.22-16.4-5.12-3.86-1.96-6.74-4.33-8.65-7.11-1.85-2.78-2.78-6.15-2.78-10.11 0-6.25 2.61-11.4 7.84-15.451 5.22-4.101 11.91-6.152 20.07-6.152 8.83 0 15.91 2.197 21.24 6.592 5.37 4.341 8.05 10.031 8.05 17.061h-8.79c0-4.63-1.95-8.49-5.86-11.57-3.85-3.07-8.74-4.612-14.64-4.612-5.77 0-10.41 1.292-13.92 3.882-3.47 2.54-5.2 5.86-5.2 9.96 0 3.96 1.44 7.03 4.32 9.23 2.93 2.15 8.23 4.13 15.89 5.93 7.72 1.81 13.48 3.74 17.29 5.79 3.86 2.05 6.71 4.51 8.57 7.4 1.85 2.88 2.78 6.37 2.78 10.47 0 6.69-2.71 12.04-8.13 16.04-5.37 4-12.4 6-21.09 6-9.23 0-16.73-2.22-22.49-6.66-5.71-4.49-8.57-10.16-8.57-16.99h8.79c.34 5.12 2.49 9.13 6.45 12.01 4 2.83 9.28 4.25 15.82 4.25 6.1 0 11.03-1.35 14.79-4.03 3.76-2.69 5.64-6.08 5.64-10.18Z" fill="#000"/><g filter="url(#c)"><path d="m204.504 158.266 51.269 136.23 51.148-136.23h39.917V336h-30.762v-58.594l3.052-78.369L266.638 336h-22.095l-52.368-136.841 3.052 78.247V336h-30.762V158.266h40.039Zm256.103 164.795c-8.707 10.253-21.077 15.38-37.109 15.38-14.323 0-25.187-4.191-32.593-12.573-7.324-8.382-10.986-20.508-10.986-36.377V203.92h29.663v85.205c0 16.764 6.958 25.146 20.874 25.146 14.404 0 24.129-5.167 29.175-15.502V203.92h29.663V336H461.34l-.733-12.939ZM551.062 336h-29.664V148.5h29.664V336Zm69.58-164.185v32.105h23.315v21.973h-23.315v73.73c0 5.046.976 8.708 2.929 10.986 2.035 2.198 5.616 3.296 10.742 3.296 3.418 0 6.877-.407 10.376-1.22v22.949c-6.754 1.872-13.265 2.807-19.531 2.807-22.786 0-34.179-12.573-34.179-37.719v-74.829H569.25V203.92h21.729v-32.105h29.663ZM698.278 336h-29.663V203.92h29.663V336Zm-31.494-166.382c0-4.557 1.424-8.341 4.273-11.352 2.929-3.011 7.08-4.517 12.451-4.517s9.521 1.506 12.451 4.517c2.93 3.011 4.395 6.795 4.395 11.352 0 4.476-1.465 8.22-4.395 11.231-2.93 2.929-7.08 4.394-12.451 4.394s-9.522-1.465-12.451-4.394c-2.849-3.011-4.273-6.755-4.273-11.231ZM846.35 271.303c0 20.426-4.639 36.743-13.916 48.95-9.278 12.126-21.729 18.188-37.354 18.188-14.486 0-26.082-4.76-34.79-14.282v62.622h-29.663V203.92h27.344l1.22 13.428c8.708-10.58 20.549-15.869 35.523-15.869 16.113 0 28.727 6.022 37.842 18.066 9.196 11.963 13.794 28.605 13.794 49.927v1.831Zm-29.541-2.564c0-13.183-2.645-23.641-7.935-31.372-5.208-7.731-12.695-11.596-22.461-11.596-12.126 0-20.833 5.004-26.123 15.014v58.594c5.371 10.254 14.16 15.381 26.367 15.381 9.44 0 16.805-3.784 22.095-11.353 5.371-7.65 8.057-19.206 8.057-34.668ZM903.112 336h-29.663V148.5h29.663V336Zm90.576 2.441c-18.798 0-34.057-5.9-45.776-17.7-11.637-11.881-17.456-27.669-17.456-47.363v-3.662c0-13.184 2.523-24.943 7.568-35.278 5.127-10.417 12.289-18.514 21.485-24.292 9.196-5.778 19.45-8.667 30.762-8.667 17.989 0 31.859 5.737 41.629 17.211 9.84 11.475 14.77 27.71 14.77 48.706v11.963h-86.307c.895 10.905 4.517 19.532 10.865 25.879 6.429 6.348 14.485 9.522 24.169 9.522 13.593 0 24.663-5.493 33.203-16.48l15.99 15.259c-5.29 7.894-12.37 14.038-21.24 18.433-8.79 4.313-18.68 6.469-29.662 6.469Zm-3.54-113.159c-8.138 0-14.729 2.849-19.775 8.545-4.964 5.697-8.138 13.631-9.521 23.804h56.518v-2.197c-.65-9.929-3.3-17.416-7.93-22.461-4.64-5.127-11.072-7.691-19.292-7.691ZM367.346 571.139c-1.791 18.961-8.789 33.772-20.996 44.433-12.207 10.58-28.443 15.869-48.706 15.869-14.161 0-26.652-3.336-37.476-10.009-10.742-6.755-19.043-16.317-24.902-28.687-5.86-12.37-8.912-26.733-9.156-43.091v-16.601c0-16.765 2.971-31.535 8.911-44.312 5.941-12.776 14.445-22.623 25.513-29.541 11.149-6.917 24.007-10.376 38.574-10.376 19.613 0 35.401 5.331 47.364 15.991 11.963 10.661 18.921 25.717 20.874 45.166h-30.762c-1.465-12.776-5.208-21.972-11.23-27.587-5.941-5.697-14.69-8.545-26.246-8.545-13.427 0-23.763 4.923-31.005 14.77-7.162 9.766-10.824 24.129-10.987 43.091v15.747c0 19.206 3.418 33.854 10.254 43.945 6.917 10.091 17.009 15.137 30.274 15.137 12.125 0 21.24-2.726 27.343-8.179 6.104-5.452 9.969-14.526 11.597-27.221h30.762Zm54.077-59.815c9.684-11.23 21.932-16.845 36.743-16.845 28.158 0 42.44 16.072 42.847 48.217V629H471.35v-85.205c0-9.115-1.994-15.544-5.982-19.287-3.906-3.825-9.684-5.737-17.334-5.737-11.881 0-20.752 5.289-26.611 15.869V629H391.76V441.5h29.663v69.824Zm104.126 50.415c0-12.939 2.563-24.577 7.69-34.912 5.127-10.417 12.329-18.392 21.607-23.926 9.277-5.615 19.938-8.422 31.982-8.422 17.822 0 32.267 5.737 43.335 17.211 11.149 11.475 17.171 26.693 18.066 45.655l.123 6.958c0 13.021-2.523 24.658-7.569 34.912-4.964 10.254-12.125 18.188-21.484 23.804-9.278 5.615-20.02 8.422-32.227 8.422-18.636 0-33.569-6.184-44.8-18.554-11.149-12.451-16.723-29.012-16.723-49.683v-1.465Zm29.663 2.564c0 13.59 2.808 24.251 8.423 31.982 5.615 7.65 13.427 11.475 23.437 11.475 10.01 0 17.782-3.906 23.316-11.719 5.615-7.812 8.423-19.246 8.423-34.302 0-13.346-2.889-23.926-8.667-31.738-5.697-7.813-13.469-11.719-23.316-11.719-9.684 0-17.375 3.866-23.071 11.597-5.697 7.65-8.545 19.124-8.545 34.424ZM704.992 629h-29.663V496.92h29.663V629Zm-31.494-166.382c0-4.557 1.424-8.341 4.273-11.352 2.929-3.011 7.08-4.517 12.451-4.517s9.521 1.506 12.451 4.517c2.93 3.011 4.394 6.795 4.394 11.352 0 4.476-1.464 8.22-4.394 11.231-2.93 2.929-7.08 4.394-12.451 4.394s-9.522-1.465-12.451-4.394c-2.849-3.011-4.273-6.755-4.273-11.231ZM791.662 607.76c7.406 0 13.55-2.157 18.433-6.47 4.883-4.313 7.487-9.644 7.812-15.991h27.954c-.325 8.219-2.889 15.91-7.69 23.071-4.802 7.08-11.312 12.695-19.531 16.846-8.22 4.15-17.09 6.225-26.612 6.225-18.473 0-33.121-5.981-43.945-17.944-10.824-11.963-16.235-28.483-16.235-49.56v-3.052c0-20.101 5.371-36.174 16.113-48.218 10.742-12.126 25.391-18.188 43.945-18.188 15.707 0 28.483 4.597 38.33 13.793 9.929 9.115 15.137 21.119 15.625 36.011h-27.954c-.325-7.568-2.929-13.794-7.812-18.677-4.802-4.882-10.946-7.324-18.433-7.324-9.603 0-17.008 3.5-22.217 10.498-5.208 6.918-7.853 17.456-7.934 31.616v4.761c0 14.323 2.563 25.025 7.69 32.105 5.209 6.998 12.695 10.498 22.461 10.498Zm134.766 23.681c-18.799 0-34.058-5.9-45.777-17.7-11.637-11.881-17.456-27.669-17.456-47.363v-3.662c0-13.184 2.523-24.943 7.569-35.278 5.127-10.417 12.288-18.514 21.484-24.292 9.196-5.778 19.45-8.667 30.762-8.667 17.985 0 31.86 5.737 41.626 17.211 9.847 11.475 14.77 27.71 14.77 48.706v11.963h-86.303c.895 10.905 4.516 19.532 10.864 25.879 6.429 6.348 14.485 9.522 24.17 9.522 13.59 0 24.658-5.493 33.203-16.48l15.991 15.259c-5.29 7.894-12.37 14.038-21.24 18.433-8.789 4.313-18.677 6.469-29.663 6.469Zm-3.54-113.159c-8.138 0-14.73 2.849-19.776 8.545-4.964 5.697-8.138 13.631-9.521 23.804h56.518v-2.197c-.651-9.929-3.296-17.416-7.934-22.461-4.639-5.127-11.068-7.691-19.287-7.691Z" fill="url(#d)"/></g><defs><filter id="a" x="-46" y="-50" width="1288" height="1936" filterUnits="userSpaceOnUse" color-interpolation-filters="sRGB"><feFlood flood-opacity="0" result="BackgroundImageFix"/><feGaussianBlur in="BackgroundImage" stdDeviation="25"/><feComposite in2="SourceAlpha" operator="in" result="effect1_backgroundBlur"/><feColorMatrix in="SourceAlpha" values="0 0 0 0 0 0 0 0 0 0 0 0 0 0 0 0 0 0 127 0" result="hardAlpha"/><feOffset dy="4"/><feGaussianBlur stdDeviation="2"/><feComposite in2="hardAlpha" operator="out"/><feColorMatrix values="0 0 0 0 0 0 0 0 0 0 0 0 0 0 0 0 0 0 0.25 0"/><feBlend in2="effect1_backgroundBlur" result="effect2_dropShadow"/><feBlend in="SourceGraphic" in2="effect2_dropShadow" result="shape"/></filter><filter id="c" x="159.465" y="143.5" width="892.202" height="492.941" filterUnits="userSpaceOnUse" color-interpolation-filters="sRGB"><feFlood flood-opacity="0" result="BackgroundImageFix"/><feColorMatrix in="SourceAlpha" values="0 0 0 0 0 0 0 0 0 0 0 0 0 0 0 0 0 0 127 0" result="hardAlpha"/><feOffset/><feGaussianBlur stdDeviation="2.5"/><feComposite in2="hardAlpha" operator="out"/><feColorMatrix values="0 0 0 0 0.258824 0 0 0 0 0.258824 0 0 0 0 0.258824 0 0 0 0.75 0"/><feBlend in2="BackgroundImageFix" result="effect1_dropShadow"/><feBlend in="SourceGraphic" in2="effect1_dropShadow" result="shape"/></filter><linearGradient id="d" x1="125.5" y1="71.915" x2="1174.23" y2="475.771" gradientUnits="userSpaceOnUse"><stop stop-color="#775EBF"/><stop offset="1" stop-color="#6576CC"/></linearGradient><clipPath id="b"><rect x="635.988" y="1258" width="397" height="397" rx="198.5" fill="#fff"/></clipPath></defs></svg>