<svg width="2139" height="896" fill="none" xmlns="http://www.w3.org/2000/svg"><g filter="url(#a)"><rect x="4" width="2131" height="888" rx="100" fill="#fff" fill-opacity=".65" shape-rendering="crispEdges"/></g><path d="M981.902 85.36v72.802c-.048 7.178-1.635 13.428-4.76 18.75-3.125 5.322-7.544 9.424-13.257 12.305-5.664 2.832-12.183 4.248-19.556 4.248-11.23 0-20.239-3.052-27.026-9.155-6.739-6.153-10.23-14.649-10.474-25.489V85.359h8.936v72.144c0 8.984 2.563 15.967 7.69 20.947 5.127 4.932 12.085 7.398 20.874 7.398 8.789 0 15.723-2.491 20.801-7.471 5.127-4.981 7.69-11.914 7.69-20.801V85.359h9.082Zm86.788 67.822c0 12.353-2.73 22.168-8.2 29.443-5.47 7.227-12.79 10.84-21.97 10.84-10.84 0-19.14-3.809-24.9-11.426v40.43h-8.72V112.752h8.13l.44 11.206c5.71-8.447 13.99-12.671 24.83-12.671 9.47 0 16.89 3.589 22.26 10.767 5.42 7.177 8.13 17.138 8.13 29.883v1.245Zm-8.78-1.538c0-10.108-2.08-18.091-6.23-23.951-4.15-5.859-9.94-8.789-17.36-8.789-5.37 0-9.98 1.294-13.84 3.882-3.86 2.588-6.81 6.348-8.86 11.279v38.013c2.1 4.541 5.1 8.008 9 10.401 3.91 2.392 8.53 3.588 13.85 3.588 7.37 0 13.11-2.929 17.21-8.789 4.15-5.908 6.23-14.453 6.23-25.634Zm78.36-59.18v20.288h16.41v7.178h-16.41v52.807c0 4.395.79 7.666 2.35 9.815 1.61 2.148 4.27 3.222 7.98 3.222 1.47 0 3.83-.244 7.11-.732l.36 7.178c-2.29.83-5.42 1.245-9.37 1.245-6.01 0-10.38-1.734-13.11-5.2-2.74-3.516-4.1-8.667-4.1-15.454V119.93h-14.58v-7.178h14.58V92.464h8.78Zm28.28 58.74c0-7.617 1.46-14.477 4.39-20.581 2.98-6.103 7.15-10.84 12.52-14.209 5.42-3.418 11.55-5.127 18.39-5.127 10.55 0 19.09 3.711 25.63 11.133 6.55 7.373 9.82 17.163 9.82 29.37v1.831c0 7.666-1.49 14.575-4.47 20.728-2.93 6.103-7.08 10.815-12.45 14.135-5.37 3.321-11.5 4.981-18.38 4.981-10.5 0-19.05-3.687-25.64-11.06-6.54-7.422-9.81-17.236-9.81-29.443v-1.758Zm8.78 2.417c0 9.473 2.45 17.261 7.33 23.364 4.93 6.055 11.38 9.082 19.34 9.082 7.91 0 14.3-3.027 19.18-9.082 4.94-6.103 7.4-14.135 7.4-24.096v-1.685c0-6.055-1.12-11.597-3.37-16.626-2.24-5.029-5.39-8.911-9.45-11.645-4.05-2.784-8.69-4.175-13.91-4.175-7.81 0-14.19 3.076-19.12 9.228-4.93 6.104-7.4 14.112-7.4 24.024v1.611ZM862.151 760.182c0 12.353-2.734 22.168-8.203 29.443-5.469 7.227-12.793 10.84-21.972 10.84-10.84 0-19.141-3.809-24.903-11.426v40.43h-8.716V719.752h8.13l.44 11.206c5.713-8.447 13.989-12.671 24.829-12.671 9.473 0 16.894 3.589 22.265 10.767 5.42 7.177 8.13 17.138 8.13 29.883v1.245Zm-8.789-1.538c0-10.108-2.075-18.091-6.225-23.951-4.151-5.859-9.937-8.789-17.359-8.789-5.371 0-9.985 1.294-13.842 3.882-3.858 2.588-6.812 6.348-8.863 11.279v38.013c2.1 4.541 5.103 8.008 9.009 10.401 3.906 2.392 8.521 3.588 13.843 3.588 7.373 0 13.11-2.929 17.212-8.789 4.15-5.908 6.225-14.453 6.225-25.634Zm58.96 41.821c-6.738 0-12.842-1.66-18.31-4.981-5.42-3.32-9.644-7.934-12.671-13.842-3.028-5.957-4.541-12.622-4.541-19.996v-3.149c0-7.617 1.465-14.477 4.394-20.581 2.979-6.104 7.105-10.889 12.378-14.355 5.274-3.516 10.987-5.274 17.139-5.274 9.619 0 17.236 3.296 22.851 9.888 5.665 6.543 8.497 15.503 8.497 26.88v4.907h-56.543v1.684c0 8.985 2.563 16.48 7.69 22.486 5.176 5.957 11.67 8.935 19.482 8.935 4.688 0 8.814-.854 12.378-2.563 3.614-1.709 6.885-4.443 9.815-8.203l5.493 4.175c-6.445 9.326-15.796 13.989-28.052 13.989Zm-1.611-74.707c-6.592 0-12.158 2.417-16.699 7.251-4.492 4.834-7.227 11.328-8.203 19.482h47.534v-.952c-.244-7.617-2.417-13.818-6.519-18.603-4.101-4.786-9.472-7.178-16.113-7.178Zm85.034 1.465c-1.855-.342-3.833-.513-5.933-.513-5.468 0-10.107 1.538-13.916 4.614-3.759 3.028-6.445 7.447-8.056 13.257V799h-8.716v-79.248h8.569l.147 12.598c4.639-9.375 12.085-14.063 22.339-14.063 2.441 0 4.37.317 5.786.952l-.22 7.984ZM1052.43 799v-72.07h-13.11v-7.178h13.11v-9.595c0-8.105 2.06-14.331 6.16-18.677 4.15-4.345 9.91-6.518 17.28-6.518 3.32 0 6.42.415 9.3 1.245l-.66 7.324c-2.44-.586-5.1-.879-7.98-.879-4.83 0-8.59 1.514-11.28 4.541-2.68 2.979-4.03 7.227-4.03 12.745v9.814h18.9v7.178h-18.9V799h-8.79Zm38.53-40.796c0-7.617 1.46-14.477 4.39-20.581 2.98-6.103 7.16-10.84 12.53-14.209 5.42-3.418 11.55-5.127 18.38-5.127 10.55 0 19.09 3.711 25.64 11.133 6.54 7.373 9.81 17.163 9.81 29.37v1.831c0 7.666-1.49 14.575-4.47 20.728-2.93 6.103-7.08 10.815-12.45 14.135-5.37 3.321-11.5 4.981-18.38 4.981-10.5 0-19.04-3.687-25.64-11.06-6.54-7.422-9.81-17.236-9.81-29.443v-1.758Zm8.79 2.417c0 9.473 2.44 17.261 7.32 23.364 4.93 6.055 11.38 9.082 19.34 9.082 7.91 0 14.31-3.027 19.19-9.082 4.93-6.103 7.4-14.135 7.4-24.096v-1.685c0-6.055-1.13-11.597-3.37-16.626-2.25-5.029-5.4-8.911-9.45-11.645-4.05-2.784-8.69-4.175-13.92-4.175-7.81 0-14.18 3.076-19.11 9.228-4.94 6.104-7.4 14.112-7.4 24.024v1.611Zm116.75-33.398c-1.86-.342-3.84-.513-5.94-.513-5.46 0-10.1 1.538-13.91 4.614-3.76 3.028-6.45 7.447-8.06 13.257V799h-8.71v-79.248h8.57l.14 12.598c4.64-9.375 12.09-14.063 22.34-14.063 2.44 0 4.37.317 5.79.952l-.22 7.984Zm21.9-7.471.29 12.891c2.93-4.786 6.59-8.374 10.99-10.767 4.39-2.393 9.27-3.589 14.64-3.589 12.5 0 20.44 5.127 23.81 15.381 2.83-4.932 6.61-8.716 11.35-11.353 4.74-2.685 9.96-4.028 15.67-4.028 17 0 25.66 9.277 26.01 27.832V799h-8.79v-52.222c-.05-7.08-1.59-12.329-4.62-15.747-2.98-3.418-7.86-5.127-14.65-5.127-6.3.098-11.62 2.149-15.96 6.153-4.35 3.955-6.77 8.789-7.25 14.502V799h-8.79v-52.881c-.05-6.787-1.66-11.841-4.84-15.161-3.12-3.369-7.96-5.054-14.5-5.054-5.52 0-10.25 1.587-14.21 4.761-3.95 3.125-6.88 7.788-8.79 13.989V799h-8.79v-79.248h8.43Z" fill="#000"/><g filter="url(#b)"><path d="M462.688 529H343.182v-20.386l59.204-64.575c8.545-9.521 14.607-17.456 18.188-23.804 3.662-6.429 5.493-12.858 5.493-19.287 0-8.463-2.4-15.299-7.202-20.508-4.72-5.208-11.108-7.812-19.165-7.812-9.603 0-17.049 2.93-22.339 8.789-5.289 5.859-7.934 13.875-7.934 24.048h-29.663c0-10.824 2.441-20.549 7.324-29.175 4.964-8.708 12.003-15.462 21.118-20.264 9.196-4.801 19.775-7.202 31.738-7.202 17.253 0 30.843 4.354 40.772 13.062 10.01 8.626 15.014 20.589 15.014 35.888 0 8.871-2.522 18.189-7.568 27.955-4.964 9.684-13.143 20.711-24.536 33.081l-43.457 46.508h82.519V529Zm30.518-88.135 9.644-89.599h95.459V376.9h-70.801l-4.883 42.481c8.219-4.72 17.497-7.08 27.832-7.08 16.927 0 30.07 5.412 39.429 16.235 9.44 10.824 14.16 25.391 14.16 43.701 0 18.067-5.208 32.471-15.625 43.213-10.417 10.661-24.699 15.991-42.847 15.991-16.276 0-29.785-4.598-40.527-13.794-10.661-9.277-16.439-21.484-17.334-36.621h28.686c1.14 8.627 4.232 15.259 9.278 19.898 5.045 4.557 11.637 6.836 19.775 6.836 9.115 0 16.195-3.255 21.24-9.766 5.127-6.51 7.691-15.381 7.691-26.611 0-10.824-2.808-19.369-8.423-25.635-5.615-6.348-13.346-9.521-23.193-9.521-5.371 0-9.929.732-13.672 2.197-3.744 1.383-7.813 4.15-12.207 8.301l-23.682-5.86Zm342.407 3.906c0 16.846-2.685 31.454-8.056 43.824-5.29 12.288-12.736 22.054-22.339 29.297l30.517 23.803-20.019 18.067-37.842-29.908c-4.964 1.058-10.295 1.587-15.991 1.587-14.323 0-27.14-3.499-38.452-10.498-11.231-7.08-19.938-17.13-26.123-30.151-6.104-13.021-9.196-28.035-9.278-45.044v-10.01c0-17.334 3.052-32.633 9.156-45.898 6.184-13.265 14.851-23.397 26.001-30.396 11.23-7.08 24.047-10.62 38.452-10.62 14.648 0 27.547 3.5 38.696 10.498 11.23 6.918 19.897 16.927 26.001 30.03 6.103 13.02 9.196 28.198 9.277 45.532v9.887Zm-31.006-9.277c0-20.019-3.743-35.197-11.23-45.532-7.487-10.335-18.066-15.503-31.738-15.503-13.265 0-23.682 5.249-31.25 15.747-7.487 10.417-11.312 25.147-11.475 44.19v10.375c0 19.206 3.744 34.221 11.231 45.044 7.568 10.824 18.147 16.236 31.738 16.236 13.753 0 24.292-5.209 31.616-15.625 7.406-10.417 11.108-25.635 11.108-45.655v-9.277Zm139.527 80.567c-8.708 10.253-21.078 15.38-37.11 15.38-14.323 0-25.187-4.191-32.592-12.573-7.325-8.382-10.987-20.508-10.987-36.377V396.92h29.663v85.205c0 16.764 6.958 25.146 20.874 25.146 14.405 0 24.13-5.167 29.175-15.502V396.92h29.663V529h-27.954l-.732-12.939Zm117.066 15.38c-18.8 0-34.06-5.9-45.78-17.7-11.63-11.881-17.453-27.669-17.453-47.363v-3.662c0-13.184 2.523-24.943 7.573-35.278 5.12-10.417 12.28-18.514 21.48-24.292 9.2-5.778 19.45-8.667 30.76-8.667 17.99 0 31.86 5.737 41.63 17.211 9.84 11.475 14.77 27.71 14.77 48.706v11.963h-86.31c.9 10.905 4.52 19.532 10.87 25.879 6.43 6.348 14.48 9.522 24.17 9.522 13.59 0 24.66-5.493 33.2-16.48l15.99 15.259c-5.29 7.894-12.37 14.038-21.24 18.433-8.79 4.313-18.67 6.469-29.66 6.469Zm-3.54-113.159c-8.14 0-14.73 2.849-19.78 8.545-4.96 5.697-8.13 13.631-9.52 23.804h56.52v-2.197c-.65-9.929-3.3-17.416-7.93-22.461-4.64-5.127-11.07-7.691-19.29-7.691Zm153.69 74.829c0-5.289-2.2-9.318-6.6-12.085-4.31-2.767-11.51-5.208-21.6-7.324-10.09-2.116-18.52-4.801-25.27-8.056-14.81-7.162-22.22-17.538-22.22-31.128 0-11.394 4.8-20.915 14.41-28.565 9.6-7.65 21.81-11.474 36.62-11.474 15.79 0 28.52 3.906 38.21 11.718 9.76 7.813 14.64 17.945 14.64 30.396h-29.66c0-5.697-2.12-10.417-6.35-14.16-4.23-3.825-9.84-5.738-16.84-5.738-6.51 0-11.84 1.506-15.99 4.517-4.07 3.011-6.11 7.039-6.11 12.085 0 4.557 1.92 8.097 5.74 10.62 3.82 2.523 11.56 5.086 23.19 7.69 11.64 2.523 20.76 5.575 27.35 9.156 6.67 3.499 11.59 7.731 14.77 12.695 3.25 4.964 4.88 10.986 4.88 18.066 0 11.882-4.92 21.525-14.77 28.931-9.85 7.324-22.75 10.986-38.7 10.986-10.82 0-20.46-1.953-28.93-5.859-8.46-3.906-15.05-9.277-19.77-16.113-4.72-6.836-7.08-14.201-7.08-22.095h28.81c.4 6.999 3.05 12.411 7.93 16.235 4.88 3.744 11.35 5.616 19.41 5.616 7.81 0 13.75-1.465 17.82-4.395 4.07-3.011 6.11-6.917 6.11-11.719Zm92.28-128.296v32.105h23.32v21.973h-23.32v73.73c0 5.046.98 8.708 2.93 10.986 2.04 2.198 5.62 3.296 10.74 3.296 3.42 0 6.88-.407 10.38-1.22v22.949c-6.76 1.872-13.27 2.807-19.53 2.807-22.79 0-34.18-12.573-34.18-37.719v-74.829h-21.73V396.92h21.73v-32.105h29.66ZM1381.27 529h-29.67V396.92h29.67V529Zm-31.5-166.382c0-4.557 1.43-8.341 4.28-11.352 2.93-3.011 7.08-4.517 12.45-4.517 5.37 0 9.52 1.506 12.45 4.517 2.93 3.011 4.39 6.795 4.39 11.352 0 4.476-1.46 8.22-4.39 11.231-2.93 2.929-7.08 4.394-12.45 4.394-5.37 0-9.52-1.465-12.45-4.394-2.85-3.011-4.28-6.755-4.28-11.231Zm58.35 99.121c0-12.939 2.57-24.577 7.69-34.912 5.13-10.417 12.33-18.392 21.61-23.926 9.28-5.615 19.94-8.422 31.98-8.422 17.82 0 32.27 5.737 43.34 17.211 11.15 11.475 17.17 26.693 18.06 45.655l.13 6.958c0 13.021-2.53 24.658-7.57 34.912-4.97 10.254-12.13 18.188-21.49 23.804-9.27 5.615-20.02 8.422-32.22 8.422-18.64 0-33.57-6.184-44.8-18.554-11.15-12.451-16.73-29.012-16.73-49.683v-1.465Zm29.67 2.564c0 13.59 2.8 24.251 8.42 31.982 5.61 7.65 13.43 11.475 23.44 11.475 10.01 0 17.78-3.906 23.31-11.719 5.62-7.812 8.42-19.246 8.42-34.302 0-13.346-2.88-23.926-8.66-31.738-5.7-7.813-13.47-11.719-23.32-11.719-9.68 0-17.37 3.866-23.07 11.597-5.7 7.65-8.54 19.124-8.54 34.424Zm145.75-67.383.85 15.259c9.77-11.8 22.59-17.7 38.45-17.7 27.51 0 41.51 15.747 42 47.241V529h-29.67v-85.571c0-8.382-1.83-14.567-5.49-18.555-3.58-4.069-9.48-6.103-17.7-6.103-11.96 0-20.87 5.411-26.73 16.235V529h-29.67V396.92h27.96Zm185.67 96.191c0-5.289-2.2-9.318-6.59-12.085-4.32-2.767-11.52-5.208-21.61-7.324-10.09-2.116-18.52-4.801-25.27-8.056-14.81-7.162-22.22-17.538-22.22-31.128 0-11.394 4.8-20.915 14.41-28.565 9.6-7.65 21.81-11.474 36.62-11.474 15.79 0 28.52 3.906 38.21 11.718 9.76 7.813 14.65 17.945 14.65 30.396h-29.67c0-5.697-2.11-10.417-6.35-14.16-4.23-3.825-9.84-5.738-16.84-5.738-6.51 0-11.84 1.506-15.99 4.517-4.07 3.011-6.11 7.039-6.11 12.085 0 4.557 1.92 8.097 5.74 10.62 3.83 2.523 11.56 5.086 23.19 7.69 11.64 2.523 20.76 5.575 27.35 9.156 6.67 3.499 11.6 7.731 14.77 12.695 3.25 4.964 4.88 10.986 4.88 18.066 0 11.882-4.92 21.525-14.77 28.931-9.85 7.324-22.74 10.986-38.69 10.986-10.83 0-20.47-1.953-28.94-5.859-8.46-3.906-15.05-9.277-19.77-16.113-4.72-6.836-7.08-14.201-7.08-22.095h28.81c.4 6.999 3.05 12.411 7.93 16.235 4.88 3.744 11.35 5.616 19.41 5.616 7.81 0 13.75-1.465 17.82-4.395 4.07-3.011 6.11-6.917 6.11-11.719Z" fill="url(#c)"/></g><defs><filter id="a" x="-46" y="-50" width="2231" height="988" filterUnits="userSpaceOnUse" color-interpolation-filters="sRGB"><feFlood flood-opacity="0" result="BackgroundImageFix"/><feGaussianBlur in="BackgroundImage" stdDeviation="25"/><feComposite in2="SourceAlpha" operator="in" result="effect1_backgroundBlur"/><feColorMatrix in="SourceAlpha" values="0 0 0 0 0 0 0 0 0 0 0 0 0 0 0 0 0 0 127 0" result="hardAlpha"/><feOffset dy="4"/><feGaussianBlur stdDeviation="2"/><feComposite in2="hardAlpha" operator="out"/><feColorMatrix values="0 0 0 0 0 0 0 0 0 0 0 0 0 0 0 0 0 0 0.25 0"/><feBlend in2="effect1_backgroundBlur" result="effect2_dropShadow"/><feBlend in="SourceGraphic" in2="effect2_dropShadow" result="shape"/></filter><filter id="b" x="329.764" y="336.749" width="1478.62" height="233.013" filterUnits="userSpaceOnUse" color-interpolation-filters="sRGB"><feFlood flood-opacity="0" result="BackgroundImageFix"/><feColorMatrix in="SourceAlpha" values="0 0 0 0 0 0 0 0 0 0 0 0 0 0 0 0 0 0 127 0" result="hardAlpha"/><feOffset/><feGaussianBlur stdDeviation="5"/><feComposite in2="hardAlpha" operator="out"/><feColorMatrix values="0 0 0 0 0.258824 0 0 0 0 0.258824 0 0 0 0 0.258824 0 0 0 0.75 0"/><feBlend in2="BackgroundImageFix" result="effect1_dropShadow"/><feBlend in="SourceGraphic" in2="effect1_dropShadow" result="shape"/></filter><linearGradient id="c" x1="270" y1="97.965" x2="2047.65" y2="178.533" gradientUnits="userSpaceOnUse"><stop stop-color="#BDD96B"/><stop offset="1" stop-color="#A1CC65"/></linearGradient></defs></svg>