<svg width="3396" height="896" fill="none" xmlns="http://www.w3.org/2000/svg"><g filter="url(#a)"><rect x="4" width="3388" height="888" rx="100" fill="#fff" fill-opacity=".65" shape-rendering="crispEdges"/></g><path d="M894.545 775.117h-48.413L835.146 805h-9.449l40.357-106.641h8.569L914.979 805h-9.375l-11.059-29.883Zm-45.63-7.69h42.773l-21.386-58.081-21.387 58.081ZM938.49 805h-8.789V692.5h8.789V805Zm33.692 0h-8.789V692.5h8.789V805Zm85.478-12.598 23.14-66.65h9.45l-33.84 92.725-1.76 4.101c-4.34 9.619-11.06 14.429-20.14 14.429-2.1 0-4.34-.342-6.74-1.026l-.07-7.251 4.54.44c4.3 0 7.76-1.074 10.4-3.223 2.69-2.099 4.96-5.737 6.81-10.913l3.88-10.693-29.88-78.589h9.6l24.61 66.65Zm40.21-28.198c0-7.617 1.46-14.477 4.39-20.581 2.98-6.103 7.15-10.84 12.52-14.209 5.42-3.418 11.55-5.127 18.39-5.127 10.54 0 19.09 3.711 25.63 11.133 6.55 7.373 9.82 17.163 9.82 29.37v1.831c0 7.666-1.49 14.575-4.47 20.728-2.93 6.103-7.08 10.815-12.45 14.135-5.37 3.321-11.5 4.981-18.39 4.981-10.49 0-19.04-3.687-25.63-11.06-6.54-7.422-9.81-17.236-9.81-29.443v-1.758Zm8.78 2.417c0 9.473 2.45 17.261 7.33 23.364 4.93 6.055 11.38 9.082 19.33 9.082 7.91 0 14.31-3.027 19.19-9.082 4.94-6.103 7.4-14.135 7.4-24.096v-1.685c0-6.055-1.12-11.597-3.37-16.626-2.24-5.029-5.39-8.911-9.45-11.645-4.05-2.784-8.69-4.175-13.91-4.175-7.81 0-14.19 3.076-19.12 9.228-4.93 6.104-7.4 14.112-7.4 24.024v1.611Zm131.11 28.345c-5.28 7.666-13.7 11.499-25.27 11.499-8.45 0-14.87-2.442-19.26-7.324-4.4-4.932-6.64-12.207-6.74-21.827v-51.562h8.71v50.464c0 15.088 6.11 22.632 18.31 22.632 12.7 0 20.73-5.249 24.1-15.747v-57.349h8.79V805h-8.5l-.14-10.034Zm68.11-61.743c-1.85-.342-3.83-.513-5.93-.513-5.47 0-10.11 1.538-13.92 4.614-3.76 3.028-6.44 7.447-8.05 13.257V805h-8.72v-79.248h8.57l.15 12.598c4.64-9.375 12.08-14.063 22.34-14.063 2.44 0 4.37.317 5.78.952l-.22 7.984Zm87.01 0c-1.85-.342-3.83-.513-5.93-.513-5.47 0-10.11 1.538-13.91 4.614-3.76 3.028-6.45 7.447-8.06 13.257V805h-8.72v-79.248h8.57l.15 12.598c4.64-9.375 12.08-14.063 22.34-14.063 2.44 0 4.37.317 5.78.952l-.22 7.984Zm43.14 73.242c-6.73 0-12.84-1.66-18.31-4.981-5.42-3.32-9.64-7.934-12.67-13.842-3.02-5.957-4.54-12.622-4.54-19.996v-3.149c0-7.617 1.47-14.477 4.4-20.581 2.98-6.104 7.1-10.889 12.37-14.355 5.28-3.516 10.99-5.274 17.14-5.274 9.62 0 17.24 3.296 22.85 9.888 5.67 6.543 8.5 15.503 8.5 26.88v4.907h-56.54v1.684c0 8.985 2.56 16.48 7.69 22.486 5.17 5.957 11.67 8.935 19.48 8.935 4.69 0 8.81-.854 12.38-2.563 3.61-1.709 6.88-4.443 9.81-8.203l5.5 4.175c-6.45 9.326-15.8 13.989-28.06 13.989Zm-1.61-74.707c-6.59 0-12.16 2.417-16.7 7.251-4.49 4.834-7.22 11.328-8.2 19.482h47.53v-.952c-.24-7.617-2.41-13.818-6.51-18.603-4.11-4.786-9.48-7.178-16.12-7.178Zm95.88 53.1c0-4.345-1.76-7.837-5.28-10.473-3.46-2.637-8.71-4.688-15.74-6.153-7.03-1.513-12.5-3.222-16.41-5.127-3.86-1.953-6.74-4.321-8.64-7.104-1.86-2.783-2.79-6.152-2.79-10.107 0-6.25 2.62-11.402 7.84-15.455 5.23-4.101 11.92-6.152 20.07-6.152 8.84 0 15.92 2.197 21.24 6.592 5.37 4.346 8.06 10.034 8.06 17.065h-8.79c0-4.638-1.96-8.496-5.86-11.572-3.86-3.076-8.74-4.614-14.65-4.614-5.76 0-10.4 1.294-13.92 3.882-3.46 2.539-5.2 5.859-5.2 9.961 0 3.955 1.44 7.031 4.32 9.228 2.93 2.149 8.23 4.126 15.9 5.933 7.71 1.806 13.48 3.735 17.28 5.786 3.86 2.051 6.72 4.516 8.57 7.397 1.86 2.881 2.79 6.372 2.79 10.474 0 6.689-2.71 12.036-8.13 16.04-5.37 4.004-12.41 6.006-21.1 6.006-9.23 0-16.72-2.222-22.48-6.665-5.72-4.492-8.57-10.156-8.57-16.992h8.79c.34 5.127 2.49 9.13 6.44 12.011 4.01 2.832 9.28 4.248 15.82 4.248 6.11 0 11.04-1.342 14.8-4.028 3.76-2.685 5.64-6.079 5.64-10.181Zm92.28-18.676c0 12.353-2.73 22.168-8.2 29.443-5.47 7.227-12.79 10.84-21.97 10.84-10.84 0-19.14-3.809-24.91-11.426v40.43h-8.71V725.752h8.13l.44 11.206c5.71-8.447 13.99-12.671 24.83-12.671 9.47 0 16.89 3.589 22.26 10.767 5.42 7.177 8.13 17.138 8.13 29.883v1.245Zm-8.79-1.538c0-10.108-2.07-18.091-6.22-23.951-4.15-5.859-9.94-8.789-17.36-8.789-5.37 0-9.99 1.294-13.84 3.882-3.86 2.588-6.82 6.348-8.87 11.279v38.013c2.1 4.541 5.11 8.008 9.01 10.401 3.91 2.392 8.52 3.588 13.85 3.588 7.37 0 13.11-2.929 17.21-8.789 4.15-5.908 6.22-14.453 6.22-25.634Zm23.44-.44c0-7.617 1.47-14.477 4.4-20.581 2.97-6.103 7.15-10.84 12.52-14.209 5.42-3.418 11.55-5.127 18.38-5.127 10.55 0 19.1 3.711 25.64 11.133 6.54 7.373 9.81 17.163 9.81 29.37v1.831c0 7.666-1.49 14.575-4.47 20.728-2.92 6.103-7.08 10.815-12.45 14.135-5.37 3.321-11.5 4.981-18.38 4.981-10.5 0-19.04-3.687-25.63-11.06-6.55-7.422-9.82-17.236-9.82-29.443v-1.758Zm8.79 2.417c0 9.473 2.44 17.261 7.32 23.364 4.94 6.055 11.38 9.082 19.34 9.082 7.91 0 14.31-3.027 19.19-9.082 4.93-6.103 7.4-14.135 7.4-24.096v-1.685c0-6.055-1.13-11.597-3.37-16.626-2.25-5.029-5.4-8.911-9.45-11.645-4.05-2.784-8.69-4.175-13.92-4.175-7.81 0-14.18 3.076-19.11 9.228-4.93 6.104-7.4 14.112-7.4 24.024v1.611Zm88.48-40.869.29 13.55c2.98-4.883 6.69-8.594 11.13-11.133 4.45-2.588 9.35-3.882 14.72-3.882 8.5 0 14.82 2.393 18.97 7.178 4.15 4.785 6.25 11.963 6.3 21.533V805h-8.71v-52.075c-.05-7.08-1.57-12.354-4.54-15.821-2.93-3.466-7.65-5.2-14.14-5.2-5.42 0-10.23 1.709-14.43 5.127-4.15 3.369-7.23 7.935-9.23 13.697V805h-8.71v-79.248h8.35Zm121.58 59.106c0-4.345-1.76-7.837-5.28-10.473-3.46-2.637-8.71-4.688-15.74-6.153-7.03-1.513-12.5-3.222-16.41-5.127-3.86-1.953-6.74-4.321-8.64-7.104-1.86-2.783-2.78-6.152-2.78-10.107 0-6.25 2.61-11.402 7.83-15.455 5.23-4.101 11.92-6.152 20.07-6.152 8.84 0 15.92 2.197 21.24 6.592 5.37 4.346 8.06 10.034 8.06 17.065h-8.79c0-4.638-1.95-8.496-5.86-11.572-3.86-3.076-8.74-4.614-14.65-4.614-5.76 0-10.4 1.294-13.91 3.882-3.47 2.539-5.21 5.859-5.21 9.961 0 3.955 1.45 7.031 4.33 9.228 2.93 2.149 8.22 4.126 15.89 5.933 7.71 1.806 13.48 3.735 17.28 5.786 3.86 2.051 6.72 4.516 8.57 7.397 1.86 2.881 2.79 6.372 2.79 10.474 0 6.689-2.71 12.036-8.13 16.04-5.37 4.004-12.4 6.006-21.1 6.006-9.22 0-16.72-2.222-22.48-6.665-5.71-4.492-8.57-10.156-8.57-16.992h8.79c.34 5.127 2.49 9.13 6.44 12.011 4.01 2.832 9.28 4.248 15.82 4.248 6.11 0 11.04-1.342 14.8-4.028 3.76-2.685 5.64-6.079 5.64-10.181Zm59.25 21.607c-6.74 0-12.84-1.66-18.31-4.981-5.42-3.32-9.64-7.934-12.67-13.842-3.03-5.957-4.54-12.622-4.54-19.996v-3.149c0-7.617 1.46-14.477 4.39-20.581 2.98-6.104 7.11-10.889 12.38-14.355 5.27-3.516 10.99-5.274 17.14-5.274 9.62 0 17.24 3.296 22.85 9.888 5.67 6.543 8.5 15.503 8.5 26.88v4.907h-56.55v1.684c0 8.985 2.57 16.48 7.7 22.486 5.17 5.957 11.67 8.935 19.48 8.935 4.69 0 8.81-.854 12.38-2.563 3.61-1.709 6.88-4.443 9.81-8.203l5.49 4.175c-6.44 9.326-15.79 13.989-28.05 13.989Zm-1.61-74.707c-6.59 0-12.16 2.417-16.7 7.251-4.49 4.834-7.23 11.328-8.2 19.482h47.53v-.952c-.24-7.617-2.42-13.818-6.52-18.603-4.1-4.786-9.47-7.178-16.11-7.178Zm95.87 53.1c0-4.345-1.75-7.837-5.27-10.473-3.47-2.637-8.72-4.688-15.75-6.153-7.03-1.513-12.5-3.222-16.4-5.127-3.86-1.953-6.74-4.321-8.65-7.104-1.85-2.783-2.78-6.152-2.78-10.107 0-6.25 2.61-11.402 7.84-15.455 5.22-4.101 11.91-6.152 20.07-6.152 8.83 0 15.91 2.197 21.24 6.592 5.37 4.346 8.05 10.034 8.05 17.065h-8.79c0-4.638-1.95-8.496-5.85-11.572-3.86-3.076-8.75-4.614-14.65-4.614-5.76 0-10.4 1.294-13.92 3.882-3.47 2.539-5.2 5.859-5.2 9.961 0 3.955 1.44 7.031 4.32 9.228 2.93 2.149 8.23 4.126 15.9 5.933 7.71 1.806 13.47 3.735 17.28 5.786 3.86 2.051 6.71 4.516 8.57 7.397 1.86 2.881 2.78 6.372 2.78 10.474 0 6.689-2.71 12.036-8.13 16.04-5.37 4.004-12.4 6.006-21.09 6.006-9.23 0-16.72-2.222-22.49-6.665-5.71-4.492-8.57-10.156-8.57-16.992h8.79c.35 5.127 2.49 9.13 6.45 12.011 4 2.832 9.28 4.248 15.82 4.248 6.1 0 11.03-1.342 14.79-4.028 3.76-2.685 5.64-6.079 5.64-10.181ZM2084.44 805h-8.79v-79.248h8.79V805Zm-10.33-102.173c0-1.66.54-3.052 1.61-4.175 1.08-1.172 2.54-1.757 4.4-1.757 1.85 0 3.32.585 4.39 1.757 1.12 1.123 1.69 2.515 1.69 4.175 0 1.66-.57 3.052-1.69 4.175-1.07 1.123-2.54 1.685-4.39 1.685-1.86 0-3.32-.562-4.4-1.685-1.07-1.123-1.61-2.515-1.61-4.175Zm42.55 22.925.3 13.55c2.98-4.883 6.69-8.594 11.13-11.133 4.44-2.588 9.35-3.882 14.72-3.882 8.5 0 14.82 2.393 18.97 7.178 4.15 4.785 6.25 11.963 6.3 21.533V805h-8.72v-52.075c-.04-7.08-1.56-12.354-4.54-15.821-2.93-3.466-7.64-5.2-14.13-5.2-5.42 0-10.23 1.709-14.43 5.127-4.15 3.369-7.23 7.935-9.23 13.697V805h-8.72v-79.248h8.35Zm105.77 38.452c0-7.617 1.46-14.477 4.39-20.581 2.98-6.103 7.15-10.84 12.52-14.209 5.42-3.418 11.55-5.127 18.39-5.127 10.55 0 19.09 3.711 25.63 11.133 6.55 7.373 9.82 17.163 9.82 29.37v1.831c0 7.666-1.49 14.575-4.47 20.728-2.93 6.103-7.08 10.815-12.45 14.135-5.37 3.321-11.5 4.981-18.38 4.981-10.5 0-19.05-3.687-25.64-11.06-6.54-7.422-9.81-17.236-9.81-29.443v-1.758Zm8.78 2.417c0 9.473 2.45 17.261 7.33 23.364 4.93 6.055 11.38 9.082 19.34 9.082 7.91 0 14.3-3.027 19.18-9.082 4.94-6.103 7.4-14.135 7.4-24.096v-1.685c0-6.055-1.12-11.597-3.37-16.626-2.24-5.029-5.39-8.911-9.45-11.645-4.05-2.784-8.69-4.175-13.91-4.175-7.81 0-14.19 3.076-19.12 9.228-4.93 6.104-7.4 14.112-7.4 24.024v1.611Zm88.48-40.869.29 13.55c2.98-4.883 6.69-8.594 11.14-11.133 4.44-2.588 9.35-3.882 14.72-3.882 8.49 0 14.82 2.393 18.97 7.178 4.15 4.785 6.25 11.963 6.3 21.533V805h-8.72v-52.075c-.05-7.08-1.56-12.354-4.54-15.821-2.93-3.466-7.64-5.2-14.14-5.2-5.42 0-10.22 1.709-14.42 5.127-4.15 3.369-7.23 7.935-9.23 13.697V805h-8.72v-79.248h8.35Zm104.81 80.713c-6.74 0-12.84-1.66-18.31-4.981-5.42-3.32-9.64-7.934-12.67-13.842-3.03-5.957-4.54-12.622-4.54-19.996v-3.149c0-7.617 1.46-14.477 4.39-20.581 2.98-6.104 7.11-10.889 12.38-14.355 5.27-3.516 10.99-5.274 17.14-5.274 9.62 0 17.24 3.296 22.85 9.888 5.67 6.543 8.5 15.503 8.5 26.88v4.907h-56.55v1.684c0 8.985 2.57 16.48 7.69 22.486 5.18 5.957 11.67 8.935 19.49 8.935 4.68 0 8.81-.854 12.38-2.563 3.61-1.709 6.88-4.443 9.81-8.203l5.49 4.175c-6.44 9.326-15.79 13.989-28.05 13.989Zm-1.61-74.707c-6.59 0-12.16 2.417-16.7 7.251-4.49 4.834-7.23 11.328-8.2 19.482h47.53v-.952c-.24-7.617-2.42-13.818-6.52-18.603-4.1-4.786-9.47-7.178-16.11-7.178Zm148.61 34.424c0 12.353-2.74 22.168-8.21 29.443-5.46 7.227-12.79 10.84-21.97 10.84-10.84 0-19.14-3.809-24.9-11.426v40.43h-8.72V725.752h8.13l.44 11.206c5.72-8.447 13.99-12.671 24.83-12.671 9.48 0 16.9 3.589 22.27 10.767 5.42 7.177 8.13 17.138 8.13 29.883v1.245Zm-8.79-1.538c0-10.108-2.08-18.091-6.23-23.951-4.15-5.859-9.93-8.789-17.36-8.789-5.37 0-9.98 1.294-13.84 3.882-3.86 2.588-6.81 6.348-8.86 11.279v38.013c2.1 4.541 5.1 8.008 9.01 10.401 3.9 2.392 8.52 3.588 13.84 3.588 7.37 0 13.11-2.929 17.21-8.789 4.15-5.908 6.23-14.453 6.23-25.634ZM2600.79 805h-8.78V692.5h8.78V805Zm73.91 0c-.88-2.49-1.44-6.177-1.69-11.06-3.07 4.004-7.01 7.105-11.79 9.302-4.74 2.149-9.77 3.223-15.09 3.223-7.62 0-13.79-2.124-18.53-6.372-4.69-4.248-7.03-9.619-7.03-16.114 0-7.714 3.2-13.818 9.6-18.31 6.44-4.492 15.4-6.738 26.87-6.738h15.9v-9.009c0-5.664-1.76-10.108-5.27-13.33-3.47-3.272-8.55-4.907-15.24-4.907-6.1 0-11.16 1.562-15.16 4.687s-6.01 6.885-6.01 11.279l-8.79-.073c0-6.299 2.93-11.743 8.79-16.333 5.86-4.639 13.07-6.958 21.61-6.958 8.84 0 15.8 2.222 20.87 6.665 5.13 4.395 7.77 10.547 7.91 18.457v37.5c0 7.666.81 13.403 2.42 17.212V805h-9.37Zm-27.54-6.299c5.86 0 11.08-1.416 15.67-4.248 4.64-2.832 8.01-6.616 10.11-11.352v-17.432h-15.68c-8.74.098-15.57 1.709-20.5 4.834-4.93 3.076-7.4 7.324-7.4 12.744 0 4.443 1.64 8.13 4.91 11.06 3.32 2.929 7.61 4.394 12.89 4.394Zm87.23.366c6.1 0 11.2-1.709 15.31-5.127 4.15-3.466 6.39-7.934 6.73-13.403h8.43c-.25 4.834-1.76 9.253-4.54 13.257-2.79 3.955-6.5 7.056-11.14 9.302-4.59 2.246-9.52 3.369-14.79 3.369-10.4 0-18.65-3.613-24.76-10.84-6.05-7.227-9.08-16.943-9.08-29.15v-2.637c0-7.813 1.37-14.722 4.1-20.728 2.74-6.006 6.64-10.644 11.72-13.916 5.13-3.271 11.11-4.907 17.95-4.907 8.69 0 15.84 2.588 21.46 7.764 5.66 5.176 8.69 11.987 9.08 20.434h-8.43c-.39-6.201-2.63-11.206-6.73-15.014-4.06-3.809-9.18-5.713-15.38-5.713-7.91 0-14.07 2.856-18.46 8.569-4.35 5.713-6.52 13.721-6.52 24.024v2.563c0 10.107 2.17 17.993 6.52 23.657 4.39 5.664 10.57 8.496 18.53 8.496Zm78.73 7.398c-6.73 0-12.84-1.66-18.31-4.981-5.42-3.32-9.64-7.934-12.67-13.842-3.02-5.957-4.54-12.622-4.54-19.996v-3.149c0-7.617 1.47-14.477 4.4-20.581 2.97-6.104 7.1-10.889 12.37-14.355 5.28-3.516 10.99-5.274 17.14-5.274 9.62 0 17.24 3.296 22.85 9.888 5.67 6.543 8.5 15.503 8.5 26.88v4.907h-56.54v1.684c0 8.985 2.56 16.48 7.69 22.486 5.17 5.957 11.67 8.935 19.48 8.935 4.69 0 8.81-.854 12.38-2.563 3.61-1.709 6.88-4.443 9.81-8.203l5.5 4.175c-6.45 9.326-15.8 13.989-28.06 13.989Zm-1.61-74.707c-6.59 0-12.16 2.417-16.7 7.251-4.49 4.834-7.22 11.328-8.2 19.482h47.53v-.952c-.24-7.617-2.41-13.818-6.51-18.603-4.11-4.786-9.48-7.178-16.12-7.178Z" fill="#000"/><g filter="url(#b)"><rect width="727.025" height="311.788" rx="60" transform="matrix(.97237 .23345 0 1 2245.06 93)" stroke="url(#c)" stroke-width="50" shape-rendering="crispEdges"/></g><g filter="url(#d)"><rect width="727.025" height="311.788" rx="60" transform="matrix(.97237 .23345 0 1 1794.8 93)" stroke="url(#e)" stroke-width="50" shape-rendering="crispEdges"/></g><g filter="url(#f)"><rect width="727.025" height="311.788" rx="60" transform="matrix(.97237 .23345 0 1 1344.53 93)" stroke="url(#g)" stroke-width="50" shape-rendering="crispEdges"/></g><g filter="url(#h)" transform="matrix(.97237 .23345 0 1 894.266 93)"><rect width="727.025" height="311.788" rx="60" fill="url(#i)"/><rect width="727.025" height="311.788" rx="60" stroke="url(#j)" stroke-width="50"/></g><g filter="url(#k)"><rect width="727.025" height="311.788" rx="60" transform="matrix(.97237 .23345 0 1 444 93)" stroke="url(#l)" stroke-width="50" shape-rendering="crispEdges"/></g><defs><linearGradient id="c" x1="0" y1="-7.75" x2="667.482" y2="407.834" gradientUnits="userSpaceOnUse"><stop stop-color="#D46899"/><stop offset="1" stop-color="#BF5E9F"/></linearGradient><linearGradient id="e" x1="0" y1="-7.75" x2="667.482" y2="407.834" gradientUnits="userSpaceOnUse"><stop stop-color="#D46899"/><stop offset="1" stop-color="#BF5E9F"/></linearGradient><linearGradient id="g" x1="0" y1="-7.75" x2="667.482" y2="407.834" gradientUnits="userSpaceOnUse"><stop stop-color="#D46899"/><stop offset="1" stop-color="#BF5E9F"/></linearGradient><linearGradient id="i" x1="0" y1="0" x2="567.74" y2="502.51" gradientUnits="userSpaceOnUse"><stop stop-color="#D46899"/><stop offset="1" stop-color="#BF5E9F"/></linearGradient><linearGradient id="j" x1="0" y1="-7.75" x2="667.482" y2="407.834" gradientUnits="userSpaceOnUse"><stop stop-color="#D46899"/><stop offset="1" stop-color="#BF5E9F"/></linearGradient><linearGradient id="l" x1="0" y1="-7.75" x2="667.482" y2="407.834" gradientUnits="userSpaceOnUse"><stop stop-color="#D46899"/><stop offset="1" stop-color="#BF5E9F"/></linearGradient><filter id="a" x="-46" y="-50" width="3488" height="988" filterUnits="userSpaceOnUse" color-interpolation-filters="sRGB"><feFlood flood-opacity="0" result="BackgroundImageFix"/><feGaussianBlur in="BackgroundImage" stdDeviation="25"/><feComposite in2="SourceAlpha" operator="in" result="effect1_backgroundBlur"/><feColorMatrix in="SourceAlpha" values="0 0 0 0 0 0 0 0 0 0 0 0 0 0 0 0 0 0 127 0" result="hardAlpha"/><feOffset dy="4"/><feGaussianBlur stdDeviation="2"/><feComposite in2="hardAlpha" operator="out"/><feColorMatrix values="0 0 0 0 0 0 0 0 0 0 0 0 0 0 0 0 0 0 0.25 0"/><feBlend in2="effect1_backgroundBlur" result="effect2_dropShadow"/><feBlend in="SourceGraphic" in2="effect2_dropShadow" result="shape"/></filter><filter id="b" x="2161.75" y="20.702" width="873.556" height="626.105" filterUnits="userSpaceOnUse" color-interpolation-filters="sRGB"><feFlood flood-opacity="0" result="BackgroundImageFix"/><feColorMatrix in="SourceAlpha" values="0 0 0 0 0 0 0 0 0 0 0 0 0 0 0 0 0 0 127 0" result="hardAlpha"/><feMorphology radius="9" operator="dilate" in="SourceAlpha" result="effect1_dropShadow"/><feOffset/><feGaussianBlur stdDeviation="25"/><feComposite in2="hardAlpha" operator="out"/><feColorMatrix values="0 0 0 0 0.258824 0 0 0 0 0.258824 0 0 0 0 0.258824 0 0 0 0.5 0"/><feBlend in2="BackgroundImageFix" result="effect1_dropShadow"/><feBlend in="SourceGraphic" in2="effect1_dropShadow" result="shape"/></filter><filter id="d" x="1711.49" y="20.702" width="873.556" height="626.105" filterUnits="userSpaceOnUse" color-interpolation-filters="sRGB"><feFlood flood-opacity="0" result="BackgroundImageFix"/><feColorMatrix in="SourceAlpha" values="0 0 0 0 0 0 0 0 0 0 0 0 0 0 0 0 0 0 127 0" result="hardAlpha"/><feMorphology radius="9" operator="dilate" in="SourceAlpha" result="effect1_dropShadow"/><feOffset/><feGaussianBlur stdDeviation="25"/><feComposite in2="hardAlpha" operator="out"/><feColorMatrix values="0 0 0 0 0.258824 0 0 0 0 0.258824 0 0 0 0 0.258824 0 0 0 0.5 0"/><feBlend in2="BackgroundImageFix" result="effect1_dropShadow"/><feBlend in="SourceGraphic" in2="effect1_dropShadow" result="shape"/></filter><filter id="f" x="1261.22" y="20.702" width="873.556" height="626.105" filterUnits="userSpaceOnUse" color-interpolation-filters="sRGB"><feFlood flood-opacity="0" result="BackgroundImageFix"/><feColorMatrix in="SourceAlpha" values="0 0 0 0 0 0 0 0 0 0 0 0 0 0 0 0 0 0 127 0" result="hardAlpha"/><feMorphology radius="9" operator="dilate" in="SourceAlpha" result="effect1_dropShadow"/><feOffset/><feGaussianBlur stdDeviation="25"/><feComposite in2="hardAlpha" operator="out"/><feColorMatrix values="0 0 0 0 0.258824 0 0 0 0 0.258824 0 0 0 0 0.258824 0 0 0 0.5 0"/><feBlend in2="BackgroundImageFix" result="effect1_dropShadow"/><feBlend in="SourceGraphic" in2="effect1_dropShadow" result="shape"/></filter><filter id="h" x="810.957" y="20.702" width="873.556" height="626.105" filterUnits="userSpaceOnUse" color-interpolation-filters="sRGB"><feFlood flood-opacity="0" result="BackgroundImageFix"/><feColorMatrix in="SourceAlpha" values="0 0 0 0 0 0 0 0 0 0 0 0 0 0 0 0 0 0 127 0" result="hardAlpha"/><feMorphology radius="9" operator="dilate" in="SourceAlpha" result="effect1_dropShadow"/><feOffset/><feGaussianBlur stdDeviation="25"/><feComposite in2="hardAlpha" operator="out"/><feColorMatrix values="0 0 0 0 0.258824 0 0 0 0 0.258824 0 0 0 0 0.258824 0 0 0 0.5 0"/><feBlend in2="BackgroundImageFix" result="effect1_dropShadow"/><feBlend in="SourceGraphic" in2="effect1_dropShadow" result="shape"/></filter><filter id="k" x="360.691" y="20.702" width="873.556" height="626.105" filterUnits="userSpaceOnUse" color-interpolation-filters="sRGB"><feFlood flood-opacity="0" result="BackgroundImageFix"/><feColorMatrix in="SourceAlpha" values="0 0 0 0 0 0 0 0 0 0 0 0 0 0 0 0 0 0 127 0" result="hardAlpha"/><feMorphology radius="9" operator="dilate" in="SourceAlpha" result="effect1_dropShadow"/><feOffset/><feGaussianBlur stdDeviation="25"/><feComposite in2="hardAlpha" operator="out"/><feColorMatrix values="0 0 0 0 0.258824 0 0 0 0 0.258824 0 0 0 0 0.258824 0 0 0 0.5 0"/><feBlend in2="BackgroundImageFix" result="effect1_dropShadow"/><feBlend in="SourceGraphic" in2="effect1_dropShadow" result="shape"/></filter></defs></svg>