<svg width="1196" height="896" fill="none" xmlns="http://www.w3.org/2000/svg"><g filter="url(#a)"><rect x="4" width="1188" height="888" rx="100" fill="#fff" fill-opacity=".65" shape-rendering="crispEdges"/></g><g filter="url(#b)" clip-path="url(#c)"><path d="M371.007 444.101v.042l-.003.268c-.004.256-.011.662-.025 1.21-.03 1.096-.091 2.755-.215 4.896A237.56 237.56 0 0 1 369 468.456c-2.032 14.991-6.074 34.737-14.028 54.29-7.963 19.576-19.598 38.349-36.474 52.178-16.645 13.639-39.119 23.085-70.15 23.085-31.032 0-53.505-9.446-70.15-23.085-16.877-13.829-28.512-32.602-36.475-52.178-7.954-19.553-11.995-39.299-14.028-54.29-1.012-7.459-1.514-13.653-1.763-17.939-.125-2.141-.185-3.8-.215-4.896a79.16 79.16 0 0 1-.028-1.478V319.056h245.318v125.045Z" stroke="#F2D478" stroke-width="27.377" shape-rendering="crispEdges"/></g><path d="m123.222 740.763 1.318 6.811 1.758-7.178 19.043-60.644h7.471l18.823 60.132 2.051 8.349 1.684-7.69 16.26-60.791h9.082L177.641 759h-7.471l-20.361-62.842-.953-4.321-.952 4.394L127.909 759h-7.471L97.44 679.752h9.009l16.773 61.011Zm102.832-47.608c2.881-4.736 6.567-8.398 11.059-10.986 4.492-2.588 9.4-3.882 14.722-3.882 8.496 0 14.819 2.393 18.97 7.178 4.15 4.785 6.25 11.963 6.299 21.533V759h-8.716v-52.075c-.049-7.08-1.563-12.354-4.541-15.821-2.93-3.466-7.642-5.2-14.136-5.2-5.42 0-10.23 1.709-14.429 5.127-4.15 3.369-7.226 7.935-9.228 13.697V759h-8.716V646.5h8.716v46.655Zm104.297 67.31c-6.739 0-12.842-1.66-18.311-4.981-5.42-3.32-9.644-7.934-12.671-13.842-3.027-5.957-4.541-12.622-4.541-19.996v-3.149c0-7.617 1.465-14.477 4.395-20.581 2.978-6.104 7.104-10.889 12.378-14.355 5.273-3.516 10.986-5.274 17.138-5.274 9.619 0 17.237 3.296 22.852 9.888 5.664 6.543 8.496 15.503 8.496 26.88v4.907h-56.543v1.684c0 8.985 2.563 16.48 7.69 22.486 5.176 5.957 11.67 8.935 19.483 8.935 4.687 0 8.813-.854 12.378-2.563 3.613-1.709 6.884-4.443 9.814-8.203l5.493 4.175c-6.445 9.326-15.796 13.989-28.051 13.989Zm-1.612-74.707c-6.592 0-12.158 2.417-16.699 7.251-4.492 4.834-7.227 11.328-8.203 19.482h47.534v-.952c-.244-7.617-2.417-13.818-6.518-18.603-4.102-4.786-9.473-7.178-16.114-7.178Zm56.763-6.006.293 13.55c2.978-4.883 6.689-8.594 11.133-11.133 4.443-2.588 9.35-3.882 14.721-3.882 8.497 0 14.82 2.393 18.97 7.178 4.151 4.785 6.25 11.963 6.299 21.533V759h-8.716v-52.075c-.049-7.08-1.562-12.354-4.541-15.821-2.93-3.466-7.641-5.2-14.136-5.2-5.42 0-10.229 1.709-14.428 5.127-4.151 3.369-7.227 7.935-9.229 13.697V759h-8.716v-79.248h8.35Zm139.893 73.315c6.103 0 11.206-1.709 15.307-5.127 4.151-3.466 6.397-7.934 6.738-13.403h8.423c-.244 4.834-1.758 9.253-4.541 13.257-2.783 3.955-6.494 7.056-11.133 9.302-4.589 2.246-9.521 3.369-14.794 3.369-10.401 0-18.653-3.613-24.756-10.84-6.055-7.227-9.082-16.943-9.082-29.15v-2.637c0-7.813 1.367-14.722 4.101-20.728 2.735-6.006 6.641-10.644 11.719-13.916 5.127-3.271 11.108-4.907 17.944-4.907 8.692 0 15.845 2.588 21.46 7.764 5.664 5.176 8.692 11.987 9.082 20.434h-8.423c-.39-6.201-2.636-11.206-6.738-15.014-4.053-3.809-9.18-5.713-15.381-5.713-7.91 0-14.062 2.856-18.457 8.569-4.345 5.713-6.518 13.721-6.518 24.024v2.563c0 10.107 2.173 17.993 6.518 23.657 4.395 5.664 10.572 8.496 18.531 8.496Zm43.212-34.863c0-7.617 1.465-14.477 4.395-20.581 2.978-6.103 7.153-10.84 12.524-14.209 5.42-3.418 11.548-5.127 18.384-5.127 10.547 0 19.092 3.711 25.635 11.133 6.543 7.373 9.814 17.163 9.814 29.37v1.831c0 7.666-1.489 14.575-4.467 20.728-2.93 6.103-7.08 10.815-12.452 14.135-5.371 3.321-11.499 4.981-18.383 4.981-10.498 0-19.043-3.687-25.635-11.06-6.543-7.422-9.815-17.236-9.815-29.443v-1.758Zm8.789 2.417c0 9.473 2.442 17.261 7.325 23.364 4.931 6.055 11.377 9.082 19.336 9.082 7.91 0 14.306-3.027 19.189-9.082 4.932-6.103 7.398-14.135 7.398-24.096v-1.685c0-6.055-1.123-11.597-3.37-16.626-2.246-5.029-5.395-8.911-9.448-11.645-4.053-2.784-8.691-4.175-13.916-4.175-7.812 0-14.184 3.076-19.116 9.228-4.932 6.104-7.398 14.112-7.398 24.024v1.611Zm88.111-40.869.293 12.891c2.929-4.786 6.592-8.374 10.986-10.767 4.395-2.393 9.277-3.589 14.649-3.589 12.5 0 20.434 5.127 23.803 15.381 2.832-4.932 6.616-8.716 11.353-11.353 4.736-2.685 9.961-4.028 15.674-4.028 16.992 0 25.659 9.277 26.001 27.832V759h-8.789v-52.222c-.049-7.08-1.587-12.329-4.615-15.747-2.978-3.418-7.861-5.127-14.648-5.127-6.299.098-11.621 2.149-15.967 6.153-4.346 3.955-6.763 8.789-7.251 14.502V759h-8.789v-52.881c-.049-6.787-1.66-11.841-4.834-15.161-3.125-3.369-7.959-5.054-14.502-5.054-5.517 0-10.254 1.587-14.209 4.761-3.955 3.125-6.885 7.788-8.789 13.989V759h-8.789v-79.248h8.423Zm188.745 40.43c0 12.353-2.734 22.168-8.203 29.443-5.469 7.227-12.793 10.84-21.973 10.84-10.84 0-19.14-3.809-24.902-11.426v40.43h-8.716V679.752h8.13l.439 11.206c5.713-8.447 13.99-12.671 24.829-12.671 9.473 0 16.895 3.589 22.266 10.767 5.42 7.177 8.13 17.138 8.13 29.883v1.245Zm-8.789-1.538c0-10.108-2.075-18.091-6.226-23.951-4.15-5.859-9.936-8.789-17.358-8.789-5.371 0-9.985 1.294-13.843 3.882-3.857 2.588-6.811 6.348-8.862 11.279v38.013c2.099 4.541 5.102 8.008 9.009 10.401 3.906 2.392 8.52 3.588 13.842 3.588 7.373 0 13.111-2.929 17.212-8.789 4.151-5.908 6.226-14.453 6.226-25.634ZM883.549 759h-8.789V646.5h8.789V759Zm54.565 1.465c-6.738 0-12.842-1.66-18.31-4.981-5.42-3.32-9.644-7.934-12.671-13.842-3.028-5.957-4.541-12.622-4.541-19.996v-3.149c0-7.617 1.465-14.477 4.394-20.581 2.979-6.104 7.105-10.889 12.378-14.355 5.274-3.516 10.987-5.274 17.139-5.274 9.619 0 17.236 3.296 22.851 9.888 5.665 6.543 8.497 15.503 8.497 26.88v4.907h-56.543v1.684c0 8.985 2.563 16.48 7.69 22.486 5.176 5.957 11.67 8.935 19.482 8.935 4.688 0 8.814-.854 12.378-2.563 3.614-1.709 6.885-4.443 9.815-8.203l5.493 4.175c-6.445 9.326-15.796 13.989-28.052 13.989Zm-1.611-74.707c-6.592 0-12.158 2.417-16.699 7.251-4.492 4.834-7.227 11.328-8.203 19.482h47.534v-.952c-.244-7.617-2.417-13.818-6.519-18.603-4.101-4.786-9.472-7.178-16.113-7.178Zm62.036-26.294v20.288h16.411v7.178h-16.411v52.807c0 4.395.781 7.666 2.341 9.815 1.61 2.148 4.28 3.222 7.99 3.222 1.46 0 3.83-.244 7.1-.732l.37 7.178c-2.3.83-5.42 1.245-9.38 1.245-6 0-10.374-1.734-13.108-5.2-2.735-3.516-4.102-8.667-4.102-15.454V686.93h-14.575v-7.178h14.575v-20.288h8.789Zm65.261 101.001c-6.74 0-12.84-1.66-18.31-4.981-5.42-3.32-9.65-7.934-12.67-13.842-3.03-5.957-4.54-12.622-4.54-19.996v-3.149c0-7.617 1.46-14.477 4.39-20.581 2.98-6.104 7.1-10.889 12.38-14.355 5.27-3.516 10.98-5.274 17.14-5.274 9.62 0 17.23 3.296 22.85 9.888 5.66 6.543 8.49 15.503 8.49 26.88v4.907h-56.54v1.684c0 8.985 2.56 16.48 7.69 22.486 5.18 5.957 11.67 8.935 19.48 8.935 4.69 0 8.82-.854 12.38-2.563 3.62-1.709 6.89-4.443 9.82-8.203l5.49 4.175c-6.45 9.326-15.8 13.989-28.05 13.989Zm-1.61-74.707c-6.6 0-12.16 2.417-16.7 7.251-4.49 4.834-7.23 11.328-8.21 19.482h47.54v-.952c-.25-7.617-2.42-13.818-6.52-18.603-4.1-4.786-9.47-7.178-16.11-7.178ZM194.633 220.329c-3.125 4.443-8.032 7.91-14.722 10.4-6.64 2.491-14.087 3.736-22.339 3.736-8.349 0-15.771-2.002-22.265-6.006-6.495-4.004-11.524-9.668-15.088-16.992-3.565-7.324-5.371-15.723-5.42-25.196v-13.476c0-14.795 3.735-26.465 11.206-35.01 7.471-8.594 17.505-12.89 30.102-12.89 10.987 0 19.825 2.807 26.514 8.422 6.69 5.567 10.669 13.257 11.939 23.072h-9.009c-1.319-7.813-4.517-13.721-9.595-17.725-5.029-4.053-11.621-6.079-19.775-6.079-9.961 0-17.847 3.54-23.658 10.62-5.81 7.08-8.715 17.066-8.715 29.956v12.598c0 8.105 1.367 15.283 4.101 21.533 2.783 6.201 6.738 11.011 11.865 14.429 5.176 3.418 11.109 5.127 17.798 5.127 7.764 0 14.429-1.221 19.995-3.662 3.614-1.612 6.299-3.492 8.057-5.64v-27.539h-28.638v-7.617h37.647v37.939ZM227.958 233h-8.789v-79.248h8.789V233Zm-10.327-102.173c0-1.66.537-3.052 1.611-4.175 1.074-1.172 2.539-1.757 4.395-1.757 1.855 0 3.32.585 4.394 1.757 1.123 1.123 1.685 2.515 1.685 4.175 0 1.66-.562 3.052-1.685 4.175-1.074 1.123-2.539 1.685-4.394 1.685-1.856 0-3.321-.562-4.395-1.685-1.074-1.123-1.611-2.515-1.611-4.175Zm58.887 90.088 24.096-67.163h9.009L280.033 233h-7.104l-29.737-79.248h9.009l24.317 67.163Zm77.197 13.55c-6.738 0-12.842-1.66-18.311-4.981-5.42-3.32-9.643-7.934-12.671-13.842-3.027-5.957-4.541-12.622-4.541-19.996v-3.149c0-7.617 1.465-14.477 4.395-20.581 2.978-6.104 7.104-10.889 12.378-14.355 5.273-3.516 10.986-5.274 17.139-5.274 9.619 0 17.236 3.296 22.851 9.888 5.664 6.543 8.496 15.503 8.496 26.88v4.907h-56.543v1.684c0 8.985 2.564 16.48 7.691 22.486 5.175 5.957 11.67 8.935 19.482 8.935 4.688 0 8.814-.854 12.378-2.563 3.613-1.709 6.885-4.443 9.814-8.203l5.494 4.175c-6.446 9.326-15.796 13.989-28.052 13.989Zm-1.611-74.707c-6.592 0-12.159 2.417-16.7 7.251-4.492 4.834-7.226 11.328-8.203 19.482h47.534v-.952c-.244-7.617-2.417-13.818-6.518-18.603-4.102-4.786-9.473-7.178-16.113-7.178Zm80.053 32.446c0-7.617 1.465-14.477 4.395-20.581 2.978-6.103 7.153-10.84 12.524-14.209 5.42-3.418 11.548-5.127 18.384-5.127 10.547 0 19.092 3.711 25.635 11.133 6.543 7.373 9.814 17.163 9.814 29.37v1.831c0 7.666-1.489 14.575-4.468 20.728-2.929 6.103-7.08 10.815-12.451 14.135-5.371 3.321-11.499 4.981-18.384 4.981-10.498 0-19.043-3.687-25.634-11.06-6.543-7.422-9.815-17.236-9.815-29.443v-1.758Zm8.789 2.417c0 9.473 2.442 17.261 7.325 23.364 4.931 6.055 11.376 9.082 19.335 9.082 7.911 0 14.307-3.027 19.19-9.082 4.932-6.103 7.397-14.135 7.397-24.096v-1.685c0-6.055-1.123-11.597-3.369-16.626-2.246-5.029-5.395-8.911-9.448-11.645-4.053-2.784-8.691-4.175-13.916-4.175-7.813 0-14.185 3.076-19.116 9.228-4.932 6.104-7.398 14.112-7.398 24.024v1.611Zm116.748-33.398c-1.855-.342-3.833-.513-5.932-.513-5.469 0-10.108 1.538-13.916 4.614-3.76 3.028-6.446 7.447-8.057 13.257V233h-8.716v-79.248h8.57l.146 12.598c4.639-9.375 12.085-14.063 22.339-14.063 2.441 0 4.37.317 5.786.952l-.22 7.984Zm87.012 0c-1.855-.342-3.833-.513-5.933-.513-5.468 0-10.107 1.538-13.916 4.614-3.759 3.028-6.445 7.447-8.056 13.257V233h-8.716v-79.248h8.569l.147 12.598c4.638-9.375 12.085-14.063 22.339-14.063 2.441 0 4.37.317 5.786.952l-.22 7.984Zm43.14 73.242c-6.739 0-12.842-1.66-18.311-4.981-5.42-3.32-9.643-7.934-12.671-13.842-3.027-5.957-4.541-12.622-4.541-19.996v-3.149c0-7.617 1.465-14.477 4.395-20.581 2.978-6.104 7.104-10.889 12.378-14.355 5.273-3.516 10.986-5.274 17.138-5.274 9.62 0 17.237 3.296 22.852 9.888 5.664 6.543 8.496 15.503 8.496 26.88v4.907h-56.543v1.684c0 8.985 2.564 16.48 7.69 22.486 5.176 5.957 11.67 8.935 19.483 8.935 4.687 0 8.813-.854 12.378-2.563 3.613-1.709 6.885-4.443 9.814-8.203l5.493 4.175c-6.445 9.326-15.795 13.989-28.051 13.989Zm-1.612-74.707c-6.591 0-12.158 2.417-16.699 7.251-4.492 4.834-7.226 11.328-8.203 19.482h47.534v-.952c-.244-7.617-2.417-13.818-6.518-18.603-4.102-4.786-9.473-7.178-16.114-7.178Zm56.397-6.006.293 12.891c2.93-4.786 6.592-8.374 10.986-10.767 4.395-2.393 9.278-3.589 14.649-3.589 12.5 0 20.434 5.127 23.803 15.381 2.832-4.932 6.617-8.716 11.353-11.353 4.736-2.685 9.961-4.028 15.674-4.028 16.992 0 25.659 9.277 26.001 27.832V233h-8.789v-52.222c-.049-7.08-1.587-12.329-4.615-15.747-2.978-3.418-7.861-5.127-14.648-5.127-6.299.098-11.621 2.149-15.967 6.153-4.346 3.955-6.763 8.789-7.251 14.502V233h-8.789v-52.881c-.049-6.787-1.66-11.841-4.834-15.161-3.125-3.369-7.959-5.054-14.502-5.054-5.517 0-10.254 1.587-14.209 4.761-3.955 3.125-6.885 7.788-8.789 13.989V233h-8.789v-79.248h8.423Zm120.19 38.452c0-7.617 1.465-14.477 4.395-20.581 2.978-6.103 7.153-10.84 12.524-14.209 5.42-3.418 11.548-5.127 18.384-5.127 10.547 0 19.092 3.711 25.635 11.133 6.543 7.373 9.814 17.163 9.814 29.37v1.831c0 7.666-1.489 14.575-4.468 20.728-2.929 6.103-7.08 10.815-12.451 14.135-5.371 3.321-11.499 4.981-18.383 4.981-10.499 0-19.043-3.687-25.635-11.06-6.543-7.422-9.815-17.236-9.815-29.443v-1.758Zm8.789 2.417c0 9.473 2.442 17.261 7.325 23.364 4.931 6.055 11.377 9.082 19.336 9.082 7.91 0 14.306-3.027 19.189-9.082 4.932-6.103 7.397-14.135 7.397-24.096v-1.685c0-6.055-1.123-11.597-3.369-16.626-2.246-5.029-5.395-8.911-9.448-11.645-4.053-2.784-8.691-4.175-13.916-4.175-7.812 0-14.185 3.076-19.116 9.228-4.932 6.104-7.398 14.112-7.398 24.024v1.611Zm103.638 26.294 24.097-67.163h9.005L978.764 233h-7.105l-29.736-79.248h9.009l24.316 67.163Zm77.202 13.55c-6.74 0-12.85-1.66-18.32-4.981-5.42-3.32-9.64-7.934-12.67-13.842-3.02-5.957-4.54-12.622-4.54-19.996v-3.149c0-7.617 1.47-14.477 4.4-20.581 2.98-6.104 7.1-10.889 12.38-14.355 5.27-3.516 10.98-5.274 17.13-5.274 9.62 0 17.24 3.296 22.86 9.888 5.66 6.543 8.49 15.503 8.49 26.88v4.907h-56.54v1.684c0 8.985 2.56 16.48 7.69 22.486 5.17 5.957 11.67 8.935 19.48 8.935 4.69 0 8.81-.854 12.38-2.563 3.61-1.709 6.88-4.443 9.81-8.203l5.5 4.175c-6.45 9.326-15.8 13.989-28.05 13.989Zm-1.62-74.707c-6.59 0-12.15 2.417-16.7 7.251-4.49 4.834-7.22 11.328-8.2 19.482h47.54v-.952c-.25-7.617-2.42-13.818-6.52-18.603-4.1-4.786-9.48-7.178-16.12-7.178Z" fill="#000"/><g filter="url(#d)"><path d="M572.642 461.519h-34.424V530h-30.884V352.266h62.5c20.508 0 36.336 4.598 47.485 13.794 11.149 9.196 16.724 22.501 16.724 39.917 0 11.881-2.889 21.85-8.667 29.907-5.697 7.975-13.672 14.119-23.926 18.432l39.917 74.097V530h-33.081l-35.644-68.481Zm-34.424-24.781h31.738c10.417 0 18.555-2.604 24.414-7.812 5.859-5.29 8.789-12.492 8.789-21.607 0-9.521-2.726-16.886-8.179-22.094-5.371-5.209-13.427-7.894-24.169-8.057h-32.593v59.57Zm116.699 26.001c0-12.939 2.563-24.577 7.69-34.912 5.127-10.417 12.33-18.392 21.607-23.926 9.277-5.615 19.938-8.422 31.982-8.422 17.823 0 32.268 5.737 43.335 17.211 11.149 11.475 17.171 26.693 18.067 45.655l.122 6.958c0 13.021-2.523 24.658-7.569 34.912-4.964 10.254-12.125 18.188-21.484 23.804-9.277 5.615-20.02 8.422-32.227 8.422-18.636 0-33.569-6.184-44.799-18.554-11.149-12.451-16.724-29.012-16.724-49.683v-1.465Zm29.663 2.564c0 13.59 2.808 24.251 8.423 31.982 5.615 7.65 13.428 11.475 23.437 11.475 10.01 0 17.782-3.906 23.316-11.719 5.615-7.812 8.423-19.246 8.423-34.302 0-13.346-2.889-23.926-8.667-31.738-5.697-7.813-13.469-11.719-23.316-11.719-9.684 0-17.374 3.866-23.071 11.597-5.697 7.65-8.545 19.124-8.545 34.424ZM834.36 530h-29.663V342.5h29.663V530Zm90.577 2.441c-18.799 0-34.058-5.9-45.777-17.7-11.637-11.881-17.456-27.669-17.456-47.363v-3.662c0-13.184 2.523-24.943 7.568-35.278 5.127-10.417 12.289-18.514 21.485-24.292 9.196-5.778 19.45-8.667 30.762-8.667 17.985 0 31.86 5.737 41.626 17.211 9.847 11.475 14.77 27.71 14.77 48.706v11.963h-86.304c.896 10.905 4.517 19.532 10.865 25.879 6.429 6.348 14.485 9.522 24.17 9.522 13.59 0 24.658-5.493 33.203-16.48l15.991 15.259c-5.29 7.894-12.37 14.038-21.24 18.433-8.789 4.313-18.677 6.469-29.663 6.469Zm-3.541-113.159c-8.138 0-14.729 2.849-19.775 8.545-4.964 5.697-8.138 13.631-9.521 23.804h56.518v-2.197c-.651-9.929-3.296-17.416-7.934-22.461-4.639-5.127-11.068-7.691-19.288-7.691Zm153.684 74.829c0-5.289-2.19-9.318-6.59-12.085-4.31-2.767-11.51-5.208-21.61-7.324-10.09-2.116-18.51-4.801-25.26-8.056-14.81-7.162-22.221-17.538-22.221-31.128 0-11.394 4.801-20.915 14.401-28.565 9.61-7.65 21.81-11.474 36.62-11.474 15.79 0 28.53 3.906 38.21 11.718 9.77 7.813 14.65 17.945 14.65 30.396h-29.66c0-5.697-2.12-10.417-6.35-14.16-4.23-3.825-9.85-5.738-16.85-5.738-6.51 0-11.84 1.506-15.99 4.517-4.07 3.011-6.1 7.039-6.1 12.085 0 4.557 1.91 8.097 5.74 10.62 3.82 2.523 11.55 5.086 23.19 7.69 11.64 2.523 20.75 5.575 27.34 9.156 6.68 3.499 11.6 7.731 14.78 12.695 3.25 4.964 4.88 10.986 4.88 18.066 0 11.882-4.93 21.525-14.77 28.931-9.85 7.324-22.75 10.986-38.7 10.986-10.82 0-20.47-1.953-28.93-5.859-8.46-3.906-15.05-9.277-19.78-16.113-4.715-6.836-7.075-14.201-7.075-22.095h28.805c.41 6.999 3.06 12.411 7.94 16.235 4.88 3.744 11.35 5.616 19.41 5.616 7.81 0 13.75-1.465 17.82-4.395 4.07-3.011 6.1-6.917 6.1-11.719Z" fill="url(#e)"/></g><defs><filter id="a" x="-46" y="-50" width="1288" height="988" filterUnits="userSpaceOnUse" color-interpolation-filters="sRGB"><feFlood flood-opacity="0" result="BackgroundImageFix"/><feGaussianBlur in="BackgroundImage" stdDeviation="25"/><feComposite in2="SourceAlpha" operator="in" result="effect1_backgroundBlur"/><feColorMatrix in="SourceAlpha" values="0 0 0 0 0 0 0 0 0 0 0 0 0 0 0 0 0 0 127 0" result="hardAlpha"/><feOffset dy="4"/><feGaussianBlur stdDeviation="2"/><feComposite in2="hardAlpha" operator="out"/><feColorMatrix values="0 0 0 0 0 0 0 0 0 0 0 0 0 0 0 0 0 0 0.25 0"/><feBlend in2="effect1_backgroundBlur" result="effect2_dropShadow"/><feBlend in="SourceGraphic" in2="effect2_dropShadow" result="shape"/></filter><filter id="b" x="44" y="237.367" width="408.695" height="442.33" filterUnits="userSpaceOnUse" color-interpolation-filters="sRGB"><feFlood flood-opacity="0" result="BackgroundImageFix"/><feColorMatrix in="SourceAlpha" values="0 0 0 0 0 0 0 0 0 0 0 0 0 0 0 0 0 0 127 0" result="hardAlpha"/><feMorphology radius="25" operator="dilate" in="SourceAlpha" result="effect1_dropShadow"/><feOffset/><feGaussianBlur stdDeviation="21.5"/><feComposite in2="hardAlpha" operator="out"/><feColorMatrix values="0 0 0 0 0.258824 0 0 0 0 0.258824 0 0 0 0 0.258824 0 0 0 0.75 0"/><feBlend in2="BackgroundImageFix" result="effect1_dropShadow"/><feBlend in="SourceGraphic" in2="effect1_dropShadow" result="shape"/></filter><filter id="d" x="482.334" y="317.5" width="646.924" height="239.941" filterUnits="userSpaceOnUse" color-interpolation-filters="sRGB"><feFlood flood-opacity="0" result="BackgroundImageFix"/><feColorMatrix in="SourceAlpha" values="0 0 0 0 0 0 0 0 0 0 0 0 0 0 0 0 0 0 127 0" result="hardAlpha"/><feOffset/><feGaussianBlur stdDeviation="12.5"/><feComposite in2="hardAlpha" operator="out"/><feColorMatrix values="0 0 0 0 0.258824 0 0 0 0 0.258824 0 0 0 0 0.258824 0 0 0 0.75 0"/><feBlend in2="BackgroundImageFix" result="effect1_dropShadow"/><feBlend in="SourceGraphic" in2="effect1_dropShadow" result="shape"/></filter><linearGradient id="e" x1="197" y1="352" x2="1115" y2="537" gradientUnits="userSpaceOnUse"><stop stop-color="#F2D478"/><stop offset="1" stop-color="#EDC575"/></linearGradient><clipPath id="c"><path fill="#fff" transform="translate(53 249)" d="M0 0h390v390H0z"/></clipPath></defs></svg>