<svg width="1196" height="896" fill="none" xmlns="http://www.w3.org/2000/svg"><g filter="url(#a)"><rect x="4" width="1188" height="888" rx="100" fill="#fff" fill-opacity=".65" shape-rendering="crispEdges"/></g><path d="M179.618 181.329c-3.125 4.443-8.032 7.91-14.722 10.4-6.64 2.491-14.086 3.736-22.338 3.736-8.35 0-15.772-2.002-22.266-6.006-6.494-4.004-11.523-9.668-15.088-16.992-3.564-7.324-5.371-15.723-5.42-25.196v-13.476c0-14.795 3.736-26.465 11.206-35.01 7.471-8.594 17.505-12.89 30.103-12.89 10.986 0 19.824 2.807 26.513 8.422 6.69 5.567 10.669 13.257 11.939 23.072h-9.009c-1.318-7.813-4.516-13.721-9.595-17.725-5.029-4.053-11.621-6.079-19.775-6.079-9.961 0-17.847 3.54-23.657 10.62-5.811 7.08-8.716 17.066-8.716 29.956v12.598c0 8.105 1.367 15.283 4.102 21.533 2.783 6.201 6.738 11.011 11.865 14.429 5.176 3.418 11.108 5.127 17.798 5.127 7.763 0 14.428-1.221 19.995-3.662 3.613-1.612 6.299-3.492 8.056-5.64v-27.539h-28.637v-7.617h37.646v37.939Zm54.199 14.136c-6.738 0-12.841-1.66-18.31-4.981-5.42-3.32-9.644-7.934-12.671-13.842-3.027-5.957-4.541-12.622-4.541-19.996v-3.149c0-7.617 1.465-14.477 4.394-20.581 2.979-6.104 7.105-10.889 12.378-14.355 5.274-3.516 10.987-5.274 17.139-5.274 9.619 0 17.236 3.296 22.852 9.888 5.664 6.543 8.496 15.503 8.496 26.88v4.907h-56.543v1.684c0 8.985 2.563 16.48 7.69 22.486 5.176 5.957 11.67 8.935 19.483 8.935 4.687 0 8.813-.854 12.378-2.563 3.613-1.709 6.884-4.443 9.814-8.203l5.493 4.175c-6.445 9.326-15.796 13.989-28.052 13.989Zm-1.611-74.707c-6.592 0-12.158 2.417-16.699 7.251-4.492 4.834-7.227 11.328-8.203 19.482h47.534v-.952c-.244-7.617-2.417-13.818-6.519-18.603-4.101-4.786-9.472-7.178-16.113-7.178Zm62.036-26.294v20.288h16.406v7.178h-16.406v52.807c0 4.395.781 7.666 2.344 9.815 1.611 2.148 4.272 3.222 7.983 3.222 1.465 0 3.833-.244 7.105-.732l.366 7.178c-2.295.83-5.42 1.245-9.375 1.245-6.006 0-10.376-1.734-13.11-5.2-2.735-3.516-4.102-8.667-4.102-15.454V121.93h-14.575v-7.178h14.575V94.464h8.789ZM415.312 194c-.879-2.49-1.441-6.177-1.685-11.06-3.076 4.004-7.007 7.105-11.792 9.302-4.736 2.149-9.766 3.223-15.088 3.223-7.617 0-13.794-2.124-18.53-6.372-4.688-4.248-7.031-9.619-7.031-16.114 0-7.714 3.198-13.818 9.594-18.31 6.446-4.492 15.406-6.738 26.88-6.738h15.894v-9.009c0-5.664-1.758-10.108-5.274-13.33-3.467-3.272-8.545-4.907-15.234-4.907-6.104 0-11.157 1.562-15.161 4.687s-6.006 6.885-6.006 11.279l-8.789-.073c0-6.299 2.93-11.743 8.789-16.333 5.859-4.639 13.061-6.958 21.606-6.958 8.838 0 15.796 2.222 20.874 6.665 5.127 4.395 7.764 10.547 7.911 18.457v37.5c0 7.666.805 13.403 2.417 17.212V194h-9.375Zm-27.54-6.299c5.86 0 11.084-1.416 15.674-4.248 4.639-2.832 8.008-6.616 10.108-11.352v-17.432H397.88c-8.74.098-15.576 1.709-20.508 4.834-4.932 3.076-7.397 7.324-7.397 12.744 0 4.443 1.635 8.13 4.907 11.06 3.32 2.929 7.617 4.394 12.89 4.394Zm66.285-72.949.293 13.55c2.978-4.883 6.689-8.594 11.132-11.133 4.444-2.588 9.351-3.882 14.722-3.882 8.496 0 14.819 2.393 18.97 7.178 4.15 4.785 6.25 11.963 6.299 21.533V194h-8.716v-52.075c-.049-7.08-1.563-12.354-4.541-15.821-2.93-3.466-7.642-5.2-14.136-5.2-5.42 0-10.229 1.709-14.429 5.127-4.15 3.369-7.226 7.935-9.228 13.697V194h-8.716v-79.248h8.35Zm121.582 59.106c0-4.345-1.758-7.837-5.274-10.473-3.467-2.637-8.716-4.688-15.747-6.153-7.031-1.513-12.5-3.222-16.406-5.127-3.858-1.953-6.738-4.321-8.643-7.104-1.855-2.783-2.783-6.152-2.783-10.107 0-6.25 2.612-11.402 7.837-15.455 5.225-4.101 11.914-6.152 20.068-6.152 8.838 0 15.918 2.197 21.241 6.592 5.371 4.346 8.056 10.034 8.056 17.065h-8.789c0-4.638-1.953-8.496-5.859-11.572-3.858-3.076-8.74-4.614-14.649-4.614-5.761 0-10.4 1.294-13.916 3.882-3.466 2.539-5.2 5.859-5.2 9.961 0 3.955 1.441 7.031 4.321 9.228 2.93 2.149 8.228 4.126 15.894 5.933 7.715 1.806 13.477 3.735 17.285 5.786 3.858 2.051 6.714 4.516 8.57 7.397 1.855 2.881 2.783 6.372 2.783 10.474 0 6.689-2.71 12.036-8.13 16.04-5.371 4.004-12.402 6.006-21.094 6.006-9.228 0-16.724-2.222-22.485-6.665-5.713-4.492-8.57-10.156-8.57-16.992h8.789c.342 5.127 2.491 9.13 6.446 12.011 4.004 2.832 9.277 4.248 15.82 4.248 6.104 0 11.035-1.342 14.795-4.028 3.76-2.685 5.64-6.079 5.64-10.181Zm47.534 1.905 1.318 6.811 1.758-7.178 19.043-60.644h7.471l18.823 60.132 2.051 8.349 1.684-7.69 16.26-60.791h9.082L677.592 194h-7.471l-20.361-62.842-.952-4.321-.953 4.394L627.86 194h-7.47l-22.998-79.248h9.008l16.773 61.011Zm124.805 19.702c-6.739 0-12.842-1.66-18.311-4.981-5.42-3.32-9.644-7.934-12.671-13.842-3.027-5.957-4.541-12.622-4.541-19.996v-3.149c0-7.617 1.465-14.477 4.395-20.581 2.978-6.104 7.104-10.889 12.378-14.355 5.273-3.516 10.986-5.274 17.138-5.274 9.619 0 17.237 3.296 22.852 9.888 5.664 6.543 8.496 15.503 8.496 26.88v4.907h-56.543v1.684c0 8.985 2.563 16.48 7.69 22.486 5.176 5.957 11.67 8.935 19.483 8.935 4.687 0 8.813-.854 12.378-2.563 3.613-1.709 6.884-4.443 9.814-8.203l5.493 4.175c-6.445 9.326-15.796 13.989-28.051 13.989Zm-1.612-74.707c-6.592 0-12.158 2.417-16.699 7.251-4.492 4.834-7.227 11.328-8.203 19.482h47.534v-.952c-.244-7.617-2.417-13.818-6.519-18.603-4.101-4.786-9.472-7.178-16.113-7.178Zm85.034 1.465c-1.855-.342-3.833-.513-5.932-.513-5.469 0-10.108 1.538-13.916 4.614-3.76 3.028-6.446 7.447-8.057 13.257V194h-8.716v-79.248h8.57l.146 12.598c4.639-9.375 12.085-14.063 22.339-14.063 2.441 0 4.37.317 5.786.952l-.22 7.984Zm61.377 51.635c0-4.345-1.757-7.837-5.273-10.473-3.467-2.637-8.716-4.688-15.747-6.153-7.031-1.513-12.5-3.222-16.406-5.127-3.858-1.953-6.739-4.321-8.643-7.104-1.855-2.783-2.783-6.152-2.783-10.107 0-6.25 2.612-11.402 7.837-15.455 5.224-4.101 11.914-6.152 20.068-6.152 8.838 0 15.918 2.197 21.24 6.592 5.371 4.346 8.057 10.034 8.057 17.065h-8.789c0-4.638-1.953-8.496-5.859-11.572-3.858-3.076-8.741-4.614-14.649-4.614-5.762 0-10.4 1.294-13.916 3.882-3.467 2.539-5.2 5.859-5.2 9.961 0 3.955 1.44 7.031 4.321 9.228 2.93 2.149 8.228 4.126 15.894 5.933 7.715 1.806 13.476 3.735 17.285 5.786 3.857 2.051 6.714 4.516 8.569 7.397 1.856 2.881 2.783 6.372 2.783 10.474 0 6.689-2.71 12.036-8.129 16.04-5.372 4.004-12.403 6.006-21.094 6.006-9.229 0-16.724-2.222-22.486-6.665-5.712-4.492-8.569-10.156-8.569-16.992h8.789c.342 5.127 2.49 9.13 6.445 12.011 4.004 2.832 9.278 4.248 15.821 4.248 6.103 0 11.035-1.342 14.795-4.028 3.759-2.685 5.639-6.079 5.639-10.181ZM1007.84 194c-.88-2.49-1.44-6.177-1.68-11.06-3.08 4.004-7.011 7.105-11.796 9.302-4.736 2.149-9.765 3.223-15.088 3.223-7.617 0-13.794-2.124-18.53-6.372-4.687-4.248-7.031-9.619-7.031-16.114 0-7.714 3.198-13.818 9.595-18.31 6.445-4.492 15.405-6.738 26.879-6.738h15.891v-9.009c0-5.664-1.75-10.108-5.27-13.33-3.467-3.272-8.545-4.907-15.235-4.907-6.103 0-11.157 1.562-15.161 4.687s-6.006 6.885-6.006 11.279l-8.789-.073c0-6.299 2.93-11.743 8.789-16.333 5.86-4.639 13.062-6.958 21.607-6.958 8.838 0 15.795 2.222 20.875 6.665 5.13 4.395 7.76 10.547 7.91 18.457v37.5c0 7.666.8 13.403 2.42 17.212V194h-9.38Zm-27.538-6.299c5.859 0 11.084-1.416 15.674-4.248 4.634-2.832 8.004-6.616 10.104-11.352v-17.432h-15.671c-8.74.098-15.576 1.709-20.508 4.834-4.931 3.076-7.397 7.324-7.397 12.744 0 4.443 1.636 8.13 4.907 11.06 3.32 2.929 7.617 4.394 12.891 4.394Zm105.398-13.843c0-4.345-1.76-7.837-5.28-10.473-3.46-2.637-8.71-4.688-15.74-6.153-7.03-1.513-12.5-3.222-16.41-5.127-3.86-1.953-6.74-4.321-8.64-7.104-1.86-2.783-2.79-6.152-2.79-10.107 0-6.25 2.62-11.402 7.84-15.455 5.23-4.101 11.92-6.152 20.07-6.152 8.84 0 15.92 2.197 21.24 6.592 5.37 4.346 8.06 10.034 8.06 17.065h-8.79c0-4.638-1.96-8.496-5.86-11.572-3.86-3.076-8.74-4.614-14.65-4.614-5.76 0-10.4 1.294-13.92 3.882-3.46 2.539-5.2 5.859-5.2 9.961 0 3.955 1.44 7.031 4.33 9.228 2.92 2.149 8.22 4.126 15.89 5.933 7.71 1.806 13.48 3.735 17.28 5.786 3.86 2.051 6.72 4.516 8.57 7.397 1.86 2.881 2.79 6.372 2.79 10.474 0 6.689-2.71 12.036-8.13 16.04-5.37 4.004-12.41 6.006-21.1 6.006-9.23 0-16.72-2.222-22.48-6.665-5.72-4.492-8.57-10.156-8.57-16.992h8.79c.34 5.127 2.49 9.13 6.44 12.011 4.01 2.832 9.28 4.248 15.82 4.248 6.11 0 11.04-1.342 14.8-4.028 3.76-2.685 5.64-6.079 5.64-10.181Z" fill="#000"/><g filter="url(#b)"><path d="M352.348 404V261.812h41.992c12.565 0 23.698 2.8 33.398 8.399 9.766 5.599 17.318 13.542 22.657 23.828 5.338 10.287 8.007 22.07 8.007 35.352v7.129c0 13.476-2.701 25.325-8.105 35.546-5.339 10.222-12.988 18.099-22.949 23.633-9.896 5.534-21.257 8.301-34.082 8.301h-40.918Zm24.707-122.266v102.539h16.113c12.956 0 22.884-4.036 29.785-12.109 6.966-8.138 10.514-19.792 10.645-34.961v-7.91c0-15.43-3.353-27.214-10.059-35.352-6.706-8.138-16.439-12.207-29.199-12.207h-17.285ZM543.852 404c-1.042-2.018-1.954-5.306-2.735-9.863-7.552 7.877-16.797 11.816-27.734 11.816-10.612 0-19.271-3.027-25.977-9.082-6.705-6.055-10.058-13.542-10.058-22.461 0-11.263 4.166-19.889 12.5-25.879 8.398-6.054 20.377-9.082 35.937-9.082h14.551v-6.933c0-5.469-1.53-9.831-4.59-13.086-3.06-3.321-7.715-4.981-13.965-4.981-5.403 0-9.83 1.367-13.281 4.102-3.451 2.669-5.176 6.087-5.176 10.254h-23.73c0-5.795 1.92-11.198 5.761-16.211 3.842-5.078 9.05-9.05 15.625-11.914 6.641-2.865 14.03-4.297 22.168-4.297 12.37 0 22.234 3.125 29.59 9.375 7.357 6.185 11.133 14.909 11.328 26.172v47.656c0 9.505 1.335 17.09 4.004 22.754V404h-24.218Zm-26.075-17.09c4.688 0 9.082-1.139 13.184-3.418 4.167-2.278 7.292-5.338 9.375-9.18v-19.921h-12.793c-8.789 0-15.397 1.53-19.824 4.589-4.427 3.06-6.641 7.39-6.641 12.989 0 4.557 1.498 8.203 4.492 10.937 3.06 2.67 7.129 4.004 12.207 4.004Zm100.879-114.258v25.684h18.653v17.578h-18.653v58.984c0 4.037.782 6.967 2.344 8.79 1.628 1.757 4.492 2.636 8.594 2.636 2.734 0 5.501-.325 8.301-.976v18.359c-5.404 1.497-10.612 2.246-15.625 2.246-18.23 0-27.344-10.058-27.344-30.176v-59.863h-17.383v-17.578h17.383v-25.684h23.73Zm83.399 133.301c-15.039 0-27.246-4.72-36.621-14.16-9.31-9.505-13.965-22.135-13.965-37.891v-2.929c0-10.547 2.018-19.955 6.054-28.223 4.102-8.333 9.831-14.811 17.188-19.434 7.357-4.622 15.56-6.933 24.609-6.933 14.388 0 25.489 4.59 33.301 13.769 7.878 9.18 11.817 22.168 11.817 38.965v9.571h-69.043c.716 8.723 3.613 15.624 8.691 20.703 5.143 5.078 11.588 7.617 19.336 7.617 10.872 0 19.726-4.395 26.562-13.184l12.793 12.207c-4.231 6.315-9.895 11.231-16.992 14.746-7.031 3.451-14.941 5.176-23.73 5.176Zm-2.832-90.527c-6.511 0-11.784 2.278-15.821 6.836-3.971 4.557-6.51 10.905-7.617 19.043H721v-1.758c-.521-7.943-2.637-13.932-6.348-17.969-3.711-4.101-8.854-6.152-15.429-6.152Zm122.949 59.863c0-4.232-1.758-7.454-5.274-9.668-3.45-2.213-9.212-4.167-17.285-5.859-8.073-1.693-14.811-3.841-20.215-6.446-11.849-5.729-17.773-14.03-17.773-24.902 0-9.115 3.841-16.732 11.523-22.852 7.683-6.119 17.448-9.179 29.297-9.179 12.631 0 22.819 3.125 30.567 9.375 7.812 6.25 11.718 14.355 11.718 24.316H821c0-4.557-1.693-8.333-5.078-11.328-3.386-3.06-7.878-4.59-13.477-4.59-5.208 0-9.472 1.205-12.793 3.614-3.255 2.408-4.882 5.631-4.882 9.668 0 3.645 1.529 6.477 4.589 8.496 3.06 2.018 9.245 4.069 18.555 6.152 9.31 2.018 16.602 4.46 21.875 7.324 5.339 2.8 9.277 6.185 11.816 10.156 2.605 3.972 3.907 8.789 3.907 14.454 0 9.505-3.939 17.22-11.817 23.144-7.877 5.859-18.196 8.789-30.957 8.789-8.659 0-16.373-1.562-23.144-4.687-6.771-3.125-12.045-7.422-15.821-12.891s-5.664-11.361-5.664-17.676h23.047c.326 5.599 2.442 9.929 6.348 12.989 3.906 2.994 9.082 4.492 15.527 4.492 6.25 0 11.003-1.172 14.258-3.516 3.255-2.409 4.883-5.534 4.883-9.375Z" fill="#F27878"/></g><g filter="url(#c)"><path d="M434.477 457.734h-44.336V580h-24.512V457.734h-43.945v-19.922h112.793v19.922ZM476.176 580h-23.731V474.336h23.731V580ZM450.98 446.895c0-3.646 1.14-6.674 3.418-9.083 2.344-2.408 5.664-3.613 9.961-3.613 4.297 0 7.618 1.205 9.961 3.613 2.344 2.409 3.516 5.437 3.516 9.083 0 3.58-1.172 6.575-3.516 8.984-2.343 2.344-5.664 3.516-9.961 3.516-4.297 0-7.617-1.172-9.961-3.516-2.278-2.409-3.418-5.404-3.418-8.984Zm73.438 27.441.684 11.035c7.421-8.659 17.578-12.988 30.468-12.988 14.128 0 23.796 5.403 29.004 16.211 7.683-10.808 18.49-16.211 32.422-16.211 11.654 0 20.313 3.222 25.977 9.668 5.729 6.445 8.659 15.95 8.789 28.515V580h-23.731v-68.75c0-6.706-1.465-11.621-4.394-14.746-2.93-3.125-7.78-4.688-14.551-4.688-5.404 0-9.831 1.465-13.281 4.395-3.386 2.865-5.762 6.641-7.129 11.328l.097 72.461h-23.73v-69.531c-.326-12.435-6.673-18.653-19.043-18.653-9.505 0-16.243 3.874-20.215 11.622V580h-23.73V474.336h22.363ZM722.66 581.953c-15.039 0-27.246-4.72-36.621-14.16-9.31-9.505-13.965-22.135-13.965-37.891v-2.929c0-10.547 2.018-19.955 6.055-28.223 4.101-8.333 9.831-14.811 17.187-19.434 7.357-4.622 15.56-6.933 24.61-6.933 14.388 0 25.488 4.59 33.301 13.769 7.877 9.18 11.816 22.168 11.816 38.965v9.571H696c.716 8.723 3.613 15.624 8.691 20.703 5.144 5.078 11.589 7.617 19.336 7.617 10.873 0 19.727-4.395 26.563-13.184l12.793 12.207c-4.232 6.315-9.896 11.231-16.992 14.746-7.032 3.451-14.942 5.176-23.731 5.176Zm-2.832-90.527c-6.51 0-11.784 2.278-15.82 6.836-3.972 4.557-6.511 10.905-7.617 19.043h45.214v-1.758c-.52-7.943-2.636-13.932-6.347-17.969-3.711-4.101-8.854-6.152-15.43-6.152Zm122.949 59.863c0-4.232-1.757-7.454-5.273-9.668-3.451-2.213-9.212-4.167-17.285-5.859-8.073-1.693-14.811-3.841-20.215-6.446-11.849-5.729-17.774-14.03-17.774-24.902 0-9.115 3.842-16.732 11.524-22.852 7.682-6.119 17.448-9.179 29.297-9.179 12.63 0 22.819 3.125 30.566 9.375 7.813 6.25 11.719 14.355 11.719 24.316h-23.731c0-4.557-1.692-8.333-5.078-11.328-3.385-3.06-7.877-4.59-13.476-4.59-5.209 0-9.473 1.205-12.793 3.614-3.255 2.408-4.883 5.631-4.883 9.668 0 3.645 1.53 6.477 4.59 8.496 3.06 2.018 9.245 4.069 18.555 6.152 9.309 2.018 16.601 4.46 21.875 7.324 5.338 2.8 9.277 6.185 11.816 10.156 2.604 3.972 3.906 8.789 3.906 14.454 0 9.505-3.939 17.22-11.816 23.144-7.878 5.859-18.197 8.789-30.957 8.789-8.659 0-16.374-1.562-23.145-4.687-6.771-3.125-12.044-7.422-15.82-12.891s-5.664-11.361-5.664-17.676h23.047c.325 5.599 2.441 9.929 6.347 12.989 3.907 2.994 9.082 4.492 15.528 4.492 6.25 0 11.002-1.172 14.258-3.516 3.255-2.409 4.882-5.534 4.882-9.375Z" fill="#F27878" fill-opacity=".5" shape-rendering="crispEdges"/></g><path fill-rule="evenodd" clip-rule="evenodd" d="M421.771 695.094h57.846v-19.94h-57.846v-42.742h66.336v-20.138h-91.31v143.727h24.974v-60.907Zm85.387 60.907h23.988V649.193h-23.988v106.808Zm1.975-143.727c-2.304 2.435-3.455 5.495-3.455 9.18 0 3.62 1.151 6.647 3.455 9.082 2.369 2.369 5.725 3.554 10.068 3.554 4.344 0 7.7-1.185 10.069-3.554 2.369-2.435 3.554-5.462 3.554-9.082 0-3.685-1.185-6.745-3.554-9.18-2.369-2.435-5.725-3.652-10.069-3.652-4.343 0-7.699 1.217-10.068 3.652Zm49.751 143.727h23.987V604.377h-23.987v151.624Zm60.215-12.34c9.477 9.543 21.816 14.314 37.018 14.314 8.884 0 16.88-1.744 23.987-5.232 7.173-3.554 12.898-8.522 17.176-14.906l-12.931-12.339c-6.91 8.884-15.86 13.326-26.85 13.326-7.832 0-14.347-2.566-19.546-7.699-5.133-5.133-8.061-12.109-8.785-20.927h69.79v-9.674c0-16.979-3.981-30.108-11.944-39.387-7.897-9.279-19.118-13.918-33.661-13.918-9.148 0-17.44 2.336-24.876 7.008-7.437 4.673-13.228 11.221-17.374 19.644-4.08 8.358-6.12 17.867-6.12 28.528v2.962c0 15.925 4.705 28.692 14.116 38.3Zm18.163-70.283c4.08-4.607 9.411-6.91 15.992-6.91 6.647 0 11.845 2.073 15.597 6.219 3.751 4.08 5.889 10.134 6.416 18.163v1.777h-45.704c1.118-8.227 3.685-14.643 7.699-19.249Zm134.941 43.828c3.554 2.238 5.331 5.495 5.331 9.773 0 3.883-1.645 7.041-4.936 9.476-3.29 2.369-8.094 3.554-14.412 3.554-6.515 0-11.747-1.514-15.695-4.541-3.949-3.093-6.088-7.469-6.417-13.129h-23.296c0 6.384 1.908 12.339 5.725 17.867 3.817 5.528 9.148 9.872 15.992 13.031 6.844 3.158 14.642 4.738 23.395 4.738 12.898 0 23.329-2.962 31.292-8.884 7.963-5.989 11.944-13.787 11.944-23.395 0-5.726-1.316-10.596-3.948-14.61-2.567-4.014-6.548-7.436-11.945-10.266-5.33-2.896-12.701-5.364-22.111-7.404-9.411-2.106-15.663-4.179-18.756-6.219s-4.639-4.902-4.639-8.588c0-4.08 1.645-7.337 4.935-9.772 3.357-2.435 7.667-3.653 12.932-3.653 5.659 0 10.2 1.547 13.622 4.64 3.422 3.027 5.133 6.844 5.133 11.451h23.988c0-10.069-3.949-18.262-11.846-24.58-7.831-6.318-18.13-9.476-30.897-9.476-11.977 0-21.849 3.093-29.614 9.279-7.766 6.186-11.648 13.885-11.648 23.098 0 10.991 5.988 19.381 17.965 25.172 5.463 2.633 12.274 4.804 20.434 6.515 8.16 1.711 13.984 3.686 17.472 5.923Z" fill="#F27878" fill-opacity=".25"/><path fill-rule="evenodd" clip-rule="evenodd" d="M220.693 886h-24.974V785.274h24.974L283.927 886h-26.184l-37.05-58.97V886Zm252.509 0h-23.988v-63.807h22.606l.691 11.154c7.502-8.752 17.768-13.128 30.798-13.128 14.281 0 24.053 5.462 29.318 16.386 7.766-10.924 18.69-16.386 32.773-16.386 11.78 0 20.532 3.257 26.258 9.772 5.791 6.515 8.752 16.123 8.884 28.824V886h-23.988v-26.494c0-6.778-1.48-11.747-4.442-14.905-2.961-3.159-7.864-4.739-14.708-4.739-5.462 0-9.937 1.481-13.425 4.443-3.422 2.895-5.824 6.712-7.206 11.45l.041 30.245h-23.93v-27.283c-.329-12.57-6.745-18.855-19.249-18.855-9.608 0-16.419 3.916-20.433 11.747V886Zm245.273 0c.283-2.977.424-6.083.424-9.318V875.3c0-17.373-3.718-30.897-11.155-40.571-7.436-9.674-17.669-14.51-30.699-14.51-11.714 0-21.026 4.08-27.936 12.24v-55.082h-23.988V886h23.988v-32.515c4.211-9.082 11.516-13.623 21.914-13.623 7.766 0 13.688 2.896 17.768 8.687 4.081 5.791 6.121 14.478 6.121 26.061v3.06c-.035 2.974-.206 5.751-.513 8.33h24.076Zm41.012 0h-24.112a73.51 73.51 0 0 1-.386-7.639v-2.962c0-10.661 2.04-20.17 6.12-28.528 4.146-8.423 9.938-14.971 17.374-19.644 7.436-4.672 15.728-7.008 24.876-7.008 14.543 0 25.764 4.639 33.661 13.918 7.963 9.279 11.944 22.408 11.944 39.387v9.674h-69.79c.078.956.183 1.89.313 2.802Zm112.121 0h-23.987v-63.807h22.902l.592 11.944c5.791-9.279 13.82-13.918 24.086-13.918 3.422 0 6.252.46 8.489 1.381l-.099 22.507a59.397 59.397 0 0 0-9.772-.79c-10.99 0-18.394 4.212-22.211 12.636V886Zm127.772 0h-36.476a108.534 108.534 0 0 0-7.093-1.717c-8.16-1.711-14.972-3.882-20.434-6.515-11.977-5.791-17.966-14.181-17.966-25.172 0-9.213 3.883-16.912 11.649-23.098 7.765-6.186 17.636-9.279 29.613-9.279 12.767 0 23.066 3.158 30.898 9.476 7.897 6.318 11.849 14.511 11.849 24.58h-23.991c0-4.607-1.711-8.424-5.133-11.451-3.422-3.093-7.963-4.64-13.623-4.64-5.264 0-9.575 1.218-12.931 3.653-3.29 2.435-4.936 5.692-4.936 9.772 0 3.686 1.547 6.548 4.64 8.588 3.093 2.04 9.345 4.113 18.755 6.219 9.411 2.04 16.782 4.508 22.112 7.404 5.397 2.83 9.378 6.252 11.945 10.266.405.618.779 1.256 1.122 1.914Zm-574.548 0h-23.987v-63.807h23.987V886Zm-64.46 0h-23.987v-63.807h23.987V886Zm-50.639 0h-24.777V785.274h24.777V886Zm457.535-39.622c4.081-4.607 9.411-6.91 15.992-6.91 6.647 0 11.846 2.073 15.597 6.219 3.751 4.08 5.89 10.134 6.416 18.163v1.777h-45.704c1.119-8.227 3.685-14.643 7.699-19.249Z" fill="#F27878" fill-opacity=".1"/><defs><filter id="a" x="-46" y="-50" width="1288" height="988" filterUnits="userSpaceOnUse" color-interpolation-filters="sRGB"><feFlood flood-opacity="0" result="BackgroundImageFix"/><feGaussianBlur in="BackgroundImage" stdDeviation="25"/><feComposite in2="SourceAlpha" operator="in" result="effect1_backgroundBlur"/><feColorMatrix in="SourceAlpha" values="0 0 0 0 0 0 0 0 0 0 0 0 0 0 0 0 0 0 127 0" result="hardAlpha"/><feOffset dy="4"/><feGaussianBlur stdDeviation="2"/><feComposite in2="hardAlpha" operator="out"/><feColorMatrix values="0 0 0 0 0 0 0 0 0 0 0 0 0 0 0 0 0 0 0.25 0"/><feBlend in2="effect1_backgroundBlur" result="effect2_dropShadow"/><feBlend in="SourceGraphic" in2="effect2_dropShadow" result="shape"/></filter><filter id="b" x="327.348" y="236.812" width="543.164" height="194.141" filterUnits="userSpaceOnUse" color-interpolation-filters="sRGB"><feFlood flood-opacity="0" result="BackgroundImageFix"/><feColorMatrix in="SourceAlpha" values="0 0 0 0 0 0 0 0 0 0 0 0 0 0 0 0 0 0 127 0" result="hardAlpha"/><feOffset/><feGaussianBlur stdDeviation="12.5"/><feComposite in2="hardAlpha" operator="out"/><feColorMatrix values="0 0 0 0 0.258824 0 0 0 0 0.258824 0 0 0 0 0.258824 0 0 0 0.75 0"/><feBlend in2="BackgroundImageFix" result="effect1_dropShadow"/><feBlend in="SourceGraphic" in2="effect1_dropShadow" result="shape"/></filter><filter id="c" x="296.684" y="409.199" width="594.434" height="197.754" filterUnits="userSpaceOnUse" color-interpolation-filters="sRGB"><feFlood flood-opacity="0" result="BackgroundImageFix"/><feColorMatrix in="SourceAlpha" values="0 0 0 0 0 0 0 0 0 0 0 0 0 0 0 0 0 0 127 0" result="hardAlpha"/><feOffset/><feGaussianBlur stdDeviation="12.5"/><feComposite in2="hardAlpha" operator="out"/><feColorMatrix values="0 0 0 0 0.258824 0 0 0 0 0.258824 0 0 0 0 0.258824 0 0 0 0.75 0"/><feBlend in2="BackgroundImageFix" result="effect1_dropShadow"/><feBlend in="SourceGraphic" in2="effect1_dropShadow" result="shape"/></filter></defs></svg>