<svg width="53" height="53" fill="none" xmlns="http://www.w3.org/2000/svg"><rect width="52.81" height="52.81" rx="26.405" fill="url(#a)"/><path d="M25.836 30.505c-1.259 0-2.22-.35-2.883-1.05-.656-.701-.984-1.696-.984-2.985 0-.641.1-1.211.302-1.71.2-.507.476-.932.827-1.275.35-.35.767-.614 1.252-.793a4.517 4.517 0 0 1 1.576-.269c.328 0 .626.027.894.079.268.044.503.1.704.167a3.124 3.124 0 0 1 .794.347l-.503 1.408a4.191 4.191 0 0 0-.838-.324 3.913 3.913 0 0 0-1.074-.134c-.268 0-.532.045-.793.134-.254.09-.48.235-.682.436-.194.194-.35.447-.47.76-.119.313-.178.693-.178 1.14 0 .358.037.693.111 1.006.082.306.21.57.38.794.18.224.41.402.694.537.283.126.625.19 1.028.19.253 0 .48-.015.682-.045.2-.03.38-.063.536-.1.157-.046.295-.094.414-.146.12-.052.227-.1.324-.145l.48 1.397c-.245.149-.592.283-1.039.402a6.06 6.06 0 0 1-1.554.18Zm5.952-.045c-.484-.007-.88-.06-1.185-.156a1.837 1.837 0 0 1-.715-.402 1.46 1.46 0 0 1-.358-.638 3.718 3.718 0 0 1-.09-.85v-6.471l1.666-.269v6.405c0 .15.011.284.034.403.022.12.063.22.123.302a.73.73 0 0 0 .279.2c.12.053.28.087.48.101l-.234 1.375Zm.91-3.051c0-.425.067-.824.201-1.196a2.871 2.871 0 0 1 1.554-1.655 3.135 3.135 0 0 1 1.274-.245c.313 0 .6.03.86.089.262.052.515.13.761.235l-.347 1.33a4.175 4.175 0 0 0-.514-.157 2.688 2.688 0 0 0-.626-.067c-.491 0-.86.153-1.106.459-.239.305-.358.707-.358 1.207 0 .529.112.939.335 1.23.231.29.63.435 1.196.435.202 0 .418-.018.649-.056.23-.037.443-.096.637-.178l.235 1.363a3.906 3.906 0 0 1-.727.213c-.29.06-.611.09-.961.09-.537 0-.999-.08-1.386-.236a2.726 2.726 0 0 1-.962-.66 2.658 2.658 0 0 1-.547-.972 4.34 4.34 0 0 1-.168-1.23Zm7.534-.816c.164-.179.331-.365.503-.56.179-.193.35-.383.514-.57.164-.193.317-.376.458-.547.15-.171.276-.32.38-.447h1.979c-.395.455-.783.89-1.163 1.308-.372.41-.782.834-1.23 1.274.224.201.455.444.694.727.238.275.47.562.693.86a12.797 12.797 0 0 1 1.084 1.71h-1.911c-.12-.193-.257-.405-.414-.636-.149-.239-.31-.474-.48-.705a8.123 8.123 0 0 0-.548-.682 4.26 4.26 0 0 0-.56-.547v2.57h-1.665v-8.405l1.666-.269v4.919Zm6.495 2.56c.306 0 .522-.03.649-.09.126-.06.19-.175.19-.346 0-.134-.082-.25-.246-.347a4.308 4.308 0 0 0-.75-.346c-.26-.097-.498-.198-.714-.302a2.201 2.201 0 0 1-.537-.37 1.575 1.575 0 0 1-.347-.524 1.924 1.924 0 0 1-.123-.727c0-.552.206-.987.615-1.308.41-.32.973-.48 1.688-.48.358 0 .7.033 1.029.1.328.06.588.127.782.201l-.29 1.297a5.972 5.972 0 0 0-.638-.179 3.362 3.362 0 0 0-.76-.078c-.521 0-.782.145-.782.436 0 .067.01.127.033.179a.42.42 0 0 0 .134.156c.067.045.157.097.269.157.119.052.268.111.447.178.365.135.667.269.905.403a1.9 1.9 0 0 1 .56.425c.14.149.237.316.29.503.06.186.09.402.09.648 0 .581-.22 1.02-.66 1.319-.433.298-1.047.447-1.845.447-.521 0-.957-.045-1.308-.134a5.31 5.31 0 0 1-.715-.224l.28-1.352c.283.112.573.201.871.268.298.06.593.09.883.09Z" fill="#4A4A4A"/><path d="m7.137 35.258-.003-17.911 5.292 12.581-5.289 5.33Z" fill="#C4C4C4"/><path d="m19.933 29.785-12.8-12.438 5.293 12.581 7.507-.143Z" fill="#8D8D8D"/><defs><linearGradient id="a" x1="52.81" y1="0" x2="0" y2="52.81" gradientUnits="userSpaceOnUse"><stop stop-color="#78ECF2"/><stop offset="1" stop-color="#71AFE5"/></linearGradient></defs></svg>