<svg width="96" height="96" fill="none" xmlns="http://www.w3.org/2000/svg"><path d="M81.421 17.856a78.342 78.342 0 0 0-19.336-5.998.294.294 0 0 0-.311.147c-.835 1.486-1.76 3.423-2.408 4.946-7.302-1.093-14.566-1.093-21.718 0-.648-1.557-1.607-3.46-2.446-4.946a.305.305 0 0 0-.31-.147 78.125 78.125 0 0 0-19.338 5.998.276.276 0 0 0-.127.11C3.111 36.365-.263 54.312 1.393 72.037c.007.086.056.17.123.222 8.126 5.967 15.997 9.59 23.722 11.991a.307.307 0 0 0 .333-.11 56.317 56.317 0 0 0 4.853-7.893.3.3 0 0 0-.165-.418c-2.583-.98-5.044-2.175-7.41-3.532a.305.305 0 0 1-.03-.506c.498-.373.996-.761 1.472-1.153a.294.294 0 0 1 .307-.042c15.547 7.099 32.379 7.099 47.743 0a.293.293 0 0 1 .31.038c.476.392.974.784 1.476 1.157a.305.305 0 0 1-.026.506 48.686 48.686 0 0 1-7.414 3.528.303.303 0 0 0-.161.422 63.224 63.224 0 0 0 4.849 7.89c.075.106.21.151.333.113 7.763-2.401 15.634-6.024 23.76-11.991a.305.305 0 0 0 .123-.219c1.98-20.492-3.318-38.292-14.046-54.072a.241.241 0 0 0-.124-.113ZM32.746 61.245c-4.68 0-8.538-4.297-8.538-9.575s3.782-9.575 8.538-9.575c4.793 0 8.612 4.335 8.537 9.575 0 5.277-3.782 9.575-8.537 9.575Zm31.566 0c-4.68 0-8.537-4.297-8.537-9.575s3.782-9.575 8.538-9.575c4.793 0 8.612 4.335 8.537 9.575 0 5.277-3.744 9.575-8.537 9.575Z" fill="#5865F2"/></svg>