<svg width="100" height="100" viewBox="0 0 100 100" fill="none" xmlns="http://www.w3.org/2000/svg">
<g clip-path="url(#clip0_6268_1090)">
<path d="M69.2308 0H7.69231C3.44396 0 0 3.44396 0 7.69231V69.2308C0 73.4791 3.44396 76.9231 7.69231 76.9231H69.2308C73.4791 76.9231 76.9231 73.4791 76.9231 69.2308V7.69231C76.9231 3.44396 73.4791 0 69.2308 0Z" fill="#FFAAAA"/>
<path d="M92.3079 23.0771H30.7695C26.5211 23.0771 23.0771 26.5211 23.0771 30.7695V92.3079C23.0771 96.5563 26.5211 100 30.7695 100H92.3079C96.5563 100 100 96.5563 100 92.3079V30.7695C100 26.5211 96.5563 23.0771 92.3079 23.0771Z" fill="#AAFFAA"/>
<path d="M34.6152 42.3076H57.6922V49.9999H34.6152V42.3076Z" fill="#FF0000"/>
<path d="M65.3848 42.3076H88.4617V49.9999H65.3848V42.3076Z" fill="#FF0000"/>
<path d="M34.6152 69.2304H42.3075V61.5381H49.9999V69.2304H57.6922V76.9227H49.9999V84.615H42.3075V76.9227H34.6152V69.2304Z" fill="#008000"/>
<path d="M65.3848 69.2304H73.0771V61.5381H80.7694V69.2304H88.4617V76.9227H80.7694V84.615H73.0771V76.9227H65.3848V69.2304Z" fill="#008000"/>
</g>
<defs>
<clipPath id="clip0_6268_1090">
<rect width="100" height="100" fill="white"/>
</clipPath>
</defs>
</svg>
