<svg width="100" height="100" fill="none" xmlns="http://www.w3.org/2000/svg"><rect width="100" height="100" rx="50" fill="#fff"/><path fill-rule="evenodd" clip-rule="evenodd" d="M50.5 7C25.914 7 6 26.73 6 51.088c0 19.508 12.738 35.986 30.427 41.828 2.225.386 3.06-.937 3.06-2.094 0-1.047-.056-4.52-.056-8.212-11.181 2.04-14.073-2.7-14.963-5.18-.501-1.268-2.67-5.18-4.562-6.227-1.557-.827-3.782-2.866-.055-2.921 3.504-.055 6.007 3.196 6.841 4.519 4.006 6.668 10.402 4.794 12.961 3.637.39-2.866 1.558-4.794 2.837-5.897-9.901-1.102-20.248-4.904-20.248-21.768 0-4.795 1.725-8.762 4.562-11.849-.445-1.102-2.003-5.62.445-11.683 0 0 3.727-1.157 12.237 4.52 3.56-.993 7.343-1.489 11.125-1.489 3.783 0 7.565.496 11.125 1.488 8.51-5.731 12.238-4.519 12.238-4.519 2.447 6.062.89 10.581.445 11.684 2.837 3.086 4.561 6.998 4.561 11.848 0 16.919-10.402 20.666-20.303 21.768 1.613 1.378 3.004 4.023 3.004 8.157 0 5.896-.056 10.636-.056 12.124 0 1.157.834 2.535 3.06 2.094C82.261 87.074 95 70.54 95 51.088 95 26.729 75.086 7 50.5 7Z" fill="#1B1F23"/></svg>