<svg width="32" height="32" fill="none" xmlns="http://www.w3.org/2000/svg"><g clip-path="url(#a)" fill="#fff"><circle cx="16" cy="16" r="8"/><path d="M15 1a1 1 0 1 1 2 0v4a1 1 0 1 1-2 0V1ZM25.9 4.686a1 1 0 1 1 1.414 1.415l-2.829 2.828a1 1 0 1 1-1.414-1.414L25.9 4.686ZM31 15a1 1 0 1 1 0 2h-4a1 1 0 1 1 0-2h4ZM27.314 25.9a1 1 0 0 1-1.415 1.414l-2.828-2.829a1 1 0 1 1 1.414-1.414l2.829 2.828ZM15 27a1 1 0 1 1 2 0v4a1 1 0 1 1-2 0v-4ZM7.515 23.071a1 1 0 1 1 1.414 1.414L6.1 27.314a1 1 0 0 1-1.415-1.415l2.829-2.828ZM5 15a1 1 0 1 1 0 2H1a1 1 0 1 1 0-2h4ZM8.929 7.515a1 1 0 1 1-1.414 1.414L4.686 6.1a1 1 0 0 1 1.415-1.414l2.828 2.829Z"/></g><defs><clipPath id="a"><path fill="#fff" d="M0 0h32v32H0z"/></clipPath></defs></svg>