<svg width="100" height="100" viewBox="0 0 100 100" fill="none" xmlns="http://www.w3.org/2000/svg">
<g clip-path="url(#clip0_2637_5251)">
<rect width="100" height="100" fill="white"/>
<g clip-path="url(#clip1_2637_5251)">
<path d="M2.63462 2.28846V97.7115H9.5V100H0V0H9.5V2.28846H2.63462Z" fill="black"/>
<path d="M31.9808 32.5387V37.3656H32.1154C33.4038 35.5195 34.9615 34.0964 36.7692 33.0964C38.5769 32.0772 40.6731 31.5771 43.0192 31.5771C45.2692 31.5771 47.3269 32.0195 49.1923 32.8848C51.0577 33.7502 52.4615 35.3079 53.4423 37.5002C54.5 35.9425 55.9423 34.5579 57.75 33.3656C59.5577 32.1733 61.7115 31.5771 64.1923 31.5771C66.0769 31.5771 67.8269 31.8079 69.4423 32.2695C71.0577 32.731 72.4231 33.4618 73.5769 34.481C74.7308 35.5002 75.6154 36.8079 76.2692 38.4425C76.9038 40.0771 77.2308 42.0387 77.2308 44.3464V68.2118H67.4423V48.0002C67.4423 46.8079 67.4038 45.6733 67.3077 44.6156C67.2115 43.5579 66.9615 42.6348 66.5577 41.8656C66.1346 41.0771 65.5385 40.4618 64.7308 40.0002C63.9231 39.5387 62.8269 39.3079 61.4615 39.3079C60.0769 39.3079 58.9615 39.5771 58.1154 40.0964C57.2692 40.6348 56.5962 41.3079 56.1154 42.1733C55.6346 43.0195 55.3077 43.981 55.1538 45.0771C55 46.1541 54.9038 47.2502 54.9038 48.3464V68.2118H45.1154V48.2118C45.1154 47.1541 45.0962 46.1156 45.0385 45.0771C45 44.0387 44.7885 43.0964 44.4423 42.2118C44.0962 41.3464 43.5192 40.6348 42.7115 40.1156C41.9038 39.5964 40.7308 39.3271 39.1538 39.3271C38.6923 39.3271 38.0769 39.4233 37.3269 39.6348C36.5769 39.8464 35.8269 40.231 35.1154 40.8079C34.4038 41.3848 33.7885 42.2118 33.2885 43.2887C32.7885 44.3656 32.5385 45.7887 32.5385 47.5387V68.231H22.75V32.5387H31.9808Z" fill="black"/>
<path d="M97.3654 97.7115V2.28846H90.5V0H100V100H90.5V97.7115H97.3654Z" fill="black"/>
</g>
</g>
<defs>
<clipPath id="clip0_2637_5251">
<rect width="100" height="100" fill="white"/>
</clipPath>
<clipPath id="clip1_2637_5251">
<rect width="100" height="100" fill="white"/>
</clipPath>
</defs>
</svg>
