<svg width="100" height="100" viewBox="0 0 100 100" fill="none" xmlns="http://www.w3.org/2000/svg">
<rect width="100" height="100" rx="7" fill="white"/>
<g clip-path="url(#clip0_2637_5251)">
<path d="M9.29212 7.99096V91.009H15.265V93H7V6H15.265V7.99096H9.29212Z" fill="black"/>
<path d="M34.8232 34.3082V38.5076H34.9404C36.0613 36.9015 37.4165 35.6634 38.9892 34.7934C40.5619 33.9067 42.3856 33.4717 44.4267 33.4717C46.3842 33.4717 48.1744 33.8565 49.7973 34.6094C51.4202 35.3623 52.6415 36.7174 53.4948 38.6248C54.415 37.2696 55.6698 36.0649 57.2425 35.0276C58.8152 33.9903 60.689 33.4717 62.8473 33.4717C64.4869 33.4717 66.0094 33.6724 67.4148 34.074C68.8202 34.4755 70.0081 35.1113 71.0119 35.998C72.0157 36.8848 72.7854 38.0224 73.3542 39.4446C73.9063 40.8667 74.1907 42.5732 74.1907 44.5809V65.3438H65.6748V47.7598C65.6748 46.7225 65.6413 45.7353 65.5577 44.8151C65.474 43.895 65.2565 43.0919 64.9052 42.4226C64.5371 41.7367 64.0184 41.2013 63.3157 40.7998C62.6131 40.3982 61.6594 40.1974 60.4715 40.1974C59.2669 40.1974 58.2965 40.4317 57.5604 40.8834C56.8242 41.3519 56.2386 41.9375 55.8204 42.6903C55.4021 43.4265 55.1177 44.263 54.9838 45.2167C54.85 46.1536 54.7663 47.1073 54.7663 48.0609V65.3438H46.2504V47.9438C46.2504 47.0236 46.2336 46.1201 46.1834 45.2167C46.15 44.3132 45.9659 43.4934 45.6648 42.7238C45.3636 41.9709 44.8617 41.3519 44.159 40.9001C43.4563 40.4484 42.4357 40.2142 41.0638 40.2142C40.6623 40.2142 40.1269 40.2978 39.4744 40.4819C38.8219 40.6659 38.1694 41.0005 37.5504 41.5024C36.9313 42.0044 36.3959 42.7238 35.9609 43.6607C35.5259 44.5976 35.3084 45.8357 35.3084 47.3582V65.3605H26.7925V34.3082H34.8232Z" fill="black"/>
<path d="M91.7077 91.009V7.99096H85.7349V6H93.9999V93H85.7349V91.009H91.7077Z" fill="black"/>
</g>
<defs>
<clipPath id="clip0_2637_5251">
<rect width="87" height="87" fill="white" transform="translate(7 6)"/>
</clipPath>
</defs>
</svg>
