<svg width="101" height="101" fill="none" xmlns="http://www.w3.org/2000/svg"><g clip-path="url(#a)"><path d="M74.588 65.192v19.501l16.837-6.128V59.063l-16.837 6.129Z" fill="#fff" stroke="#CCC" stroke-width=".379" stroke-linejoin="bevel"/><path d="M57.922 71.252v19.5l16.839-6.127V65.123l-16.839 6.13Z" fill="#FFD242" stroke="#CCC" stroke-width=".379" stroke-linejoin="bevel"/><path d="M71.709 76.006c0 .452-.084.93-.246 1.407-.163.477-.4.943-.701 1.372-.3.429-.657.812-1.05 1.127a4.388 4.388 0 0 1-1.237.713c-.857.311-1.68.248-2.286-.176-.606-.425-.947-1.175-.947-2.088 0-.452.083-.93.245-1.406.163-.477.401-.943.701-1.372.3-.429.657-.812 1.05-1.128a4.389 4.389 0 0 1 1.237-.712 2.969 2.969 0 0 1 1.237-.189c.393.03.75.154 1.05.364.3.21.538.503.7.862.163.358.247.775.247 1.227Z" fill="#fff"/><path d="M41.258 77.312v19.502l16.838-6.13V71.183l-16.838 6.129Z" fill="#FFD242" stroke="#CCC" stroke-width=".379" stroke-linejoin="bevel"/><path d="M24.593 83.371v19.502l16.838-6.13v-19.5l-16.838 6.128Z" fill="#fff" stroke="#CCC" stroke-width=".379" stroke-linejoin="bevel"/><path d="m8 77.332 16.593 6.04v19.501L8 96.833V77.333Z" fill="#EFEEEA" stroke="#CCC" stroke-width=".379" stroke-linejoin="bevel"/><path d="M74.588 45.497v19.501l16.837-6.128V39.368l-16.837 6.13Z" fill="#FFD242" stroke="#CCC" stroke-width=".379" stroke-linejoin="bevel"/><path d="m57.995 19.763 16.593 6.04 16.837-6.13-16.592-6.04-16.838 6.13Z" fill="#FFC91D" stroke="#CCC" stroke-width=".379" stroke-linejoin="bevel"/><path d="M74.588 25.803v19.5l16.837-6.127V19.674l-16.837 6.129ZM57.922 51.557v19.501l16.839-6.128V45.428l-16.839 6.13Z" fill="#FFD242" stroke="#CCC" stroke-width=".379" stroke-linejoin="bevel"/><path d="M57.922 31.863v19.5l16.839-6.128V25.733l-16.839 6.13Z" fill="#3775A9" stroke="#CCC" stroke-width=".379" stroke-linejoin="bevel"/><path d="m41.33 6.128 16.592 6.04 16.838-6.13L58.168 0 41.33 6.128Z" fill="#2F6491" stroke="#CCC" stroke-width=".379" stroke-linejoin="bevel"/><path d="M57.922 12.166v19.502l16.839-6.128V6.038l-16.839 6.128Z" fill="#3775A9" stroke="#CCC" stroke-width=".379" stroke-linejoin="bevel"/><path d="M41.258 57.617V77.12l16.838-6.129V51.488l-16.838 6.13Z" fill="#FFD242" stroke="#CCC" stroke-width=".379" stroke-linejoin="bevel"/><path d="M41.258 37.922v19.502l16.838-6.13V31.794l-16.838 6.129ZM24.593 63.677v19.502l16.838-6.13v-19.5l-16.838 6.128Z" fill="#3775A9" stroke="#CCC" stroke-width=".379" stroke-linejoin="bevel"/><path d="m8 57.638 16.593 6.039v19.502L8 77.139v-19.5Zm0-19.696 16.593 6.04 16.837-6.128-16.592-6.04L8 37.942Z" fill="#2F6491" stroke="#CCC" stroke-width=".379" stroke-linejoin="bevel"/><path d="M24.593 43.981v19.502l16.838-6.129v-19.5L24.593 43.98Z" fill="#3775A9" stroke="#CCC" stroke-width=".379" stroke-linejoin="bevel"/><path d="m8 37.942 16.593 6.04v19.502L8 57.444V37.942Zm16.666-25.754 16.591 6.039 16.839-6.129L41.503 6.06l-16.837 6.128Z" fill="#2F6491" stroke="#CCC" stroke-width=".379" stroke-linejoin="bevel"/><path d="M41.258 18.227v19.501L58.096 31.6V12.098l-16.838 6.129Z" fill="#3775A9" stroke="#CCC" stroke-width=".379" stroke-linejoin="bevel"/><path d="m24.666 12.188 16.591 6.039v19.502l-16.591-6.04V12.187Z" fill="#2F6491" stroke="#CCC" stroke-width=".379" stroke-linejoin="bevel"/><path d="M50.778 24.49c0 .453-.084.93-.246 1.407-.163.477-.4.943-.701 1.372a5.5 5.5 0 0 1-1.05 1.128 4.385 4.385 0 0 1-1.237.712 2.967 2.967 0 0 1-1.238.189 2.088 2.088 0 0 1-1.05-.364 2.09 2.09 0 0 1-.7-.862 2.97 2.97 0 0 1-.246-1.227c0-.452.083-.93.245-1.407.163-.477.401-.943.702-1.372.3-.429.657-.812 1.049-1.128a4.388 4.388 0 0 1 1.238-.712 2.969 2.969 0 0 1 1.237-.188c.393.03.75.153 1.05.364.3.21.538.503.7.861.163.358.247.776.247 1.228Z" fill="#fff"/></g><defs><clipPath id="a"><path fill="#fff" d="M0 0h101v101H0z"/></clipPath></defs></svg>