<svg width="2048" height="2048" fill="none" xmlns="http://www.w3.org/2000/svg"><path fill="#424242" d="M0 0h2048v2048H0z"/><path fill-rule="evenodd" clip-rule="evenodd" d="M354 478c-35.899 0-65 29.101-65 65v181c0 35.898 29.102 65 65 65h1339c35.9 0 65-29.102 65-65V543c0-35.899-29.1-65-65-65H354Zm1248 283c70.14 0 127-56.86 127-127s-56.86-127-127-127-127 56.86-127 127 56.86 127 127 127Z" fill="url(#a)"/><path fill-rule="evenodd" clip-rule="evenodd" d="M354 1258c-35.899 0-65 29.1-65 65v181c0 35.9 29.102 65 65 65h1339c35.9 0 65-29.1 65-65v-181c0-35.9-29.1-65-65-65H354Zm1248 283c70.14 0 127-56.86 127-127s-56.86-127-127-127-127 56.86-127 127 56.86 127 127 127Z" fill="url(#b)"/><path fill-rule="evenodd" clip-rule="evenodd" d="M1465 1179V868h228c35.9 0 65 29.102 65 65v181c0 35.9-29.1 65-65 65h-228Zm264-155c0 70.14-56.86 127-127 127s-127-56.86-127-127 56.86-127 127-127 127 56.86 127 127Z" fill="#6576CC"/><path d="M1171 1179V868h293.8v311H1171Z" fill="#D46899"/><path d="M877 1179V868h293.8v311H877Z" fill="#fff"/><path d="M583 1179V868h293.8v311H583Z" fill="#D46899"/><path d="M289 933v181c0 35.9 29.102 65 65 65h228.8V868H354c-35.898 0-65 29.102-65 65Z" fill="#6576CC"/><defs><linearGradient id="a" x1="289" y1="634" x2="1758" y2="634" gradientUnits="userSpaceOnUse"><stop stop-color="#F27878"/><stop offset="1" stop-color="#D96B6B"/></linearGradient><linearGradient id="b" x1="289" y1="1414" x2="1758" y2="1414" gradientUnits="userSpaceOnUse"><stop stop-color="#F27878"/><stop offset="1" stop-color="#D96B6B"/></linearGradient></defs></svg>