<svg width="2048" height="2048" viewBox="0 0 2048 2048" fill="none" xmlns="http://www.w3.org/2000/svg">
<rect width="2048" height="2048" fill="url(#paint0_linear_3104:7828)"/>
<path d="M749 1024.46L889.219 1164.68C913.101 1188.56 951.822 1188.56 975.704 1164.68L1299.38 841" stroke="white" stroke-width="121.684" stroke-linecap="round" stroke-linejoin="round"/>
<path d="M1561.84 700V699.885C1561.84 581.847 1466.15 486.158 1348.12 486.158H699.885C581.847 486.158 486.158 581.847 486.158 699.885V700H607.842V699.885C607.842 649.051 649.051 607.842 699.885 607.842H1348.12C1398.95 607.842 1440.16 649.051 1440.16 699.885V700H1561.84Z" fill="#71AFE5"/>
<path d="M486.158 916V700H607.842V916H486.158Z" fill="#D46899"/>
<path d="M1561.84 700V916H1440.16V700H1561.84Z" fill="#D46899"/>
<path d="M486.158 1130V916H607.842V1130H486.158Z" fill="white"/>
<path d="M1561.84 916V1130H1440.16V916H1561.84Z" fill="white"/>
<path d="M486.158 1345V1130H607.842V1345H486.158Z" fill="#D46899"/>
<path d="M1561.84 1130V1345H1440.16V1130H1561.84Z" fill="#D46899"/>
<path d="M1561.84 1345V1348.12C1561.84 1466.15 1466.15 1561.84 1348.12 1561.84H699.885C581.847 1561.84 486.158 1466.15 486.158 1348.12V1345H607.842V1348.12C607.842 1398.95 649.051 1440.16 699.885 1440.16H1348.12C1398.95 1440.16 1440.16 1398.95 1440.16 1348.12V1345H1561.84Z" fill="#71AFE5"/>
<defs>
<linearGradient id="paint0_linear_3104:7828" x1="2048" y1="0" x2="0" y2="2048" gradientUnits="userSpaceOnUse">
<stop stop-color="#6576CC"/>
<stop offset="1" stop-color="#775EBF"/>
</linearGradient>
</defs>
</svg>
