<svg width="2049" height="2048" viewBox="0 0 2049 2048" fill="none" xmlns="http://www.w3.org/2000/svg">
<mask id="mask0_4845_8027" style="mask-type:alpha" maskUnits="userSpaceOnUse" x="-24" y="-85" width="2126" height="3046">
<path fill-rule="evenodd" clip-rule="evenodd" d="M-23.2001 -60.2073C-23.2001 -73.4204 -12.4888 -84.1319 0.724308 -84.1319L2077.75 -84.1318C2090.97 -84.1318 2101.68 -73.4205 2101.68 -60.2074L2101.68 2936.5C2101.68 2949.71 2090.97 2960.42 2077.75 2960.42L0.72437 2960.42C-12.4887 2960.42 -23.2002 2949.71 -23.2002 2936.5L-23.2001 -60.2073ZM806.343 530.524C801.866 518.092 808.315 504.385 820.747 499.908L949.8 453.434C962.232 448.957 975.939 455.406 980.416 467.838L1120.92 858C1125.4 870.432 1118.95 884.139 1106.52 888.615L977.462 935.09C965.031 939.567 951.324 933.118 946.847 920.686L806.343 530.524Z" fill="#C4C4C4"/>
</mask>
<g mask="url(#mask0_4845_8027)">
<path d="M784.676 250.137L651.447 298.115C485.693 357.806 399.711 540.565 459.402 706.32L762.684 1548.5C848.872 1787.83 1112.76 1911.98 1352.09 1825.79V1825.79L784.676 250.137Z" fill="black"/>
<path d="M1359.78 382.08C1300.09 216.325 1117.33 130.344 951.572 190.035L815.042 239.201L1382.46 1814.86V1814.86C1623.62 1728.01 1748.71 1462.11 1661.87 1220.96L1359.78 382.08Z" fill="black"/>
</g>
</svg>
