<svg width="2048" height="2048" fill="none" xmlns="http://www.w3.org/2000/svg"><g clip-path="url(#a)"><path d="M543.255-1242.55c75.251 52.43 112.94 102.03 102.134 248.152-24.411 330.107-127.65 356.176 7.428 819.824C760.88 196.345 783.834 202.78 793.6 229.686" stroke="#71AFE5" stroke-width="32" stroke-linecap="square"/><path d="M819.876 499.908c-12.431 4.477-18.88 18.184-14.403 30.616l140.504 390.162c4.476 12.432 18.183 18.881 30.615 14.404l47.688-17.175 326.94 907.875c-239.33 86.19-503.218-37.96-589.407-277.29L458.532 706.319c-59.691-165.754 26.29-348.514 192.045-408.205l133.228-47.977 83.762 232.597-47.691 17.174ZM897.934 471.798l50.996-18.364c12.432-4.477 26.139 1.972 30.615 14.403L1120.05 858c4.48 12.431-1.97 26.138-14.4 30.615l-51 18.365 326.94 907.88c241.16-86.85 366.25-352.75 279.41-593.9l-302.09-838.88c-59.69-165.755-242.45-251.736-408.208-192.045l-136.53 49.166 83.762 232.597Z" fill="#71AFE5"/></g><defs><clipPath id="a"><path fill="#fff" d="M0 0h2048v2048H0z"/></clipPath></defs></svg>