<svg width="2048" height="2048" viewBox="0 0 2048 2048" fill="none" xmlns="http://www.w3.org/2000/svg">
<g clip-path="url(#clip0_31047876)">
<path d="M543.255 -1242.55C618.506 -1190.12 656.195 -1140.52 645.389 -994.398C620.978 -664.291 517.739 -638.222 652.817 -174.574C760.88 196.345 783.834 202.78 793.6 229.686" stroke="#71AFE5" stroke-width="32" stroke-linecap="square"/>
<path d="M819.876 499.908C807.445 504.385 800.996 518.092 805.473 530.524L945.977 920.686C950.453 933.118 964.16 939.567 976.592 935.09L1024.28 917.915L1351.22 1825.79C1111.89 1911.98 848.002 1787.83 761.813 1548.5L458.532 706.319C398.841 540.565 484.822 357.805 650.577 298.114L783.805 250.137L867.567 482.734L819.876 499.908Z" fill="#71AFE5"/>
<path d="M897.934 471.798L948.93 453.434C961.362 448.957 975.069 455.406 979.545 467.837L1120.05 858C1124.53 870.431 1118.08 884.138 1105.65 888.615L1054.65 906.98L1381.59 1814.86C1622.75 1728.01 1747.84 1462.11 1661 1220.96L1358.91 382.08C1299.22 216.325 1116.46 130.344 950.702 190.035L814.172 239.201L897.934 471.798Z" fill="#71AFE5"/>
</g>
<defs>
<clipPath id="clip0_31047876">
<rect width="2048" height="2048" fill="white"/>
</clipPath>
</defs>
</svg>
