<svg width="2048" height="2048" viewBox="0 0 2048 2048" fill="none" xmlns="http://www.w3.org/2000/svg">
<g clip-path="url(#clip0_25968161)">
<g filter="url(#filter0_d_25968161)">
<path d="M655.143 112.925C698.266 149.832 723.701 179.239 742.772 245.844C785.854 396.308 742.805 391.533 880.97 630.711C991.502 822.054 1022.34 863.285 1023.95 859.982" stroke="black" stroke-width="34.3049" stroke-linecap="round" stroke-linejoin="bevel"/>
</g>
<path d="M742.984 228.529L581.605 286.645C403.351 350.837 310.885 547.379 375.078 725.633L694.711 1613.22C790.999 1880.6 1085.81 2019.3 1353.19 1923.01V1923.01L742.984 228.529Z" fill="#C4C4C4"/>
<path d="M1343.35 376.944C1279.16 198.689 1082.62 106.224 904.365 170.416L742.986 228.531L1353.2 1923.01V1923.01C1620.58 1826.72 1759.28 1531.91 1662.99 1264.53L1343.35 376.944Z" fill="#8D8D8D"/>
<g filter="url(#filter1_i_25968161)">
<rect width="198.968" height="497.42" rx="25.7286" transform="matrix(-0.940853 0.338816 0.338816 0.940853 926.664 444.963)" fill="#424242"/>
</g>
</g>
<defs>
<filter id="filter0_d_25968161" x="552.228" y="10.0113" width="574.636" height="953.065" filterUnits="userSpaceOnUse" color-interpolation-filters="sRGB">
<feFlood flood-opacity="0" result="BackgroundImageFix"/>
<feColorMatrix in="SourceAlpha" type="matrix" values="0 0 0 0 0 0 0 0 0 0 0 0 0 0 0 0 0 0 127 0" result="hardAlpha"/>
<feOffset/>
<feGaussianBlur stdDeviation="42.8811"/>
<feColorMatrix type="matrix" values="0 0 0 0 1 0 0 0 0 1 0 0 0 0 1 0 0 0 1 0"/>
<feBlend mode="normal" in2="BackgroundImageFix" result="effect1_dropShadow_25968161"/>
<feBlend mode="normal" in="SourceGraphic" in2="effect1_dropShadow_25968161" result="shape"/>
</filter>
<filter id="filter1_i_25968161" x="746.652" y="452.152" width="348.218" height="534.757" filterUnits="userSpaceOnUse" color-interpolation-filters="sRGB">
<feFlood flood-opacity="0" result="BackgroundImageFix"/>
<feBlend mode="normal" in="SourceGraphic" in2="BackgroundImageFix" result="shape"/>
<feColorMatrix in="SourceAlpha" type="matrix" values="0 0 0 0 0 0 0 0 0 0 0 0 0 0 0 0 0 0 127 0" result="hardAlpha"/>
<feOffset dx="6.86097" dy="13.7219"/>
<feGaussianBlur stdDeviation="13.7219"/>
<feComposite in2="hardAlpha" operator="arithmetic" k2="-1" k3="1"/>
<feColorMatrix type="matrix" values="0 0 0 0 0.816667 0 0 0 0 0.816667 0 0 0 0 0.816667 0 0 0 0.2 0"/>
<feBlend mode="normal" in2="shape" result="effect1_innerShadow_25968161"/>
</filter>
<clipPath id="clip0_25968161">
<rect width="2048" height="2048" fill="white"/>
</clipPath>
</defs>
</svg>
