<svg width="2049" height="2048" viewBox="0 0 2049 2048" fill="none" xmlns="http://www.w3.org/2000/svg">
<path fill-rule="evenodd" clip-rule="evenodd" d="M925.13 201.774C1090.88 142.083 1273.64 228.065 1333.34 393.819L1635.43 1232.7C1722.27 1473.85 1597.18 1739.75 1356.02 1826.6L1029.08 918.718L1080.07 900.354C1092.51 895.877 1098.95 882.17 1094.48 869.738L953.974 479.576C949.497 467.144 935.79 460.695 923.358 465.172L872.362 483.537L788.6 250.94L925.13 201.774ZM758.234 261.876L625.005 309.853C459.251 369.544 373.269 552.304 432.96 718.058L736.242 1560.24C822.43 1799.57 1086.32 1923.72 1325.65 1837.53L998.712 929.654L951.02 946.828C938.589 951.305 924.882 944.856 920.405 932.425L779.901 542.262C775.424 529.83 781.873 516.123 794.305 511.647L841.996 494.472L758.234 261.876Z" fill="white"/>
</svg>
