<svg width="2048" height="2048" fill="none" xmlns="http://www.w3.org/2000/svg"><g clip-path="url(#a)"><path fill="url(#b)" d="M0 0h2048v2048H0z"/><g filter="url(#c)"><path d="M943 922.5c0 49.114-9.674 97.75-28.469 143.12a373.986 373.986 0 0 1-81.073 121.34 373.889 373.889 0 0 1-121.334 81.07A373.912 373.912 0 0 1 569 1296.5c-49.114 0-97.748-9.67-143.123-28.47a373.893 373.893 0 0 1-121.335-81.07 374.002 374.002 0 0 1-81.073-121.34A373.967 373.967 0 0 1 195 922.5V0h112.2v922.5a261.79 261.79 0 0 0 161.614 241.87A261.737 261.737 0 0 0 569 1184.3c34.38 0 68.424-6.77 100.187-19.93a261.863 261.863 0 0 0 84.934-56.75 261.822 261.822 0 0 0 56.751-84.93A261.826 261.826 0 0 0 830.8 922.5H943Z" fill="#F27878"/><path fill-rule="evenodd" clip-rule="evenodd" d="M291.619 1173.37a373.815 373.815 0 0 1-42.277-56.72l82.745-82.74a261.933 261.933 0 0 0 39.012 59.98l-79.48 79.48Zm132.084-33.09a261.496 261.496 0 0 0 45.111 24.09c7.176 2.97 14.47 5.62 21.857 7.94l-86.105 86.1a373.8 373.8 0 0 1-61.287-37.71l80.424-80.42ZM476.972 1285l100.85-100.85a261.862 261.862 0 0 0 91.365-19.78 261.663 261.663 0 0 0 72.583-45.17l-177.275 177.27a373.728 373.728 0 0 1-87.523-11.47Zm203.484-5.49 245.551-245.55a373.747 373.747 0 0 1-11.476 31.66 373.986 373.986 0 0 1-81.073 121.34 373.889 373.889 0 0 1-121.334 81.07 375.465 375.465 0 0 1-31.668 11.48ZM938.467 922.5l-172.77 172.77a261.838 261.838 0 0 0 45.175-72.58 261.853 261.853 0 0 0 19.78-91.369l8.821-8.821h98.994Zm-628.923 34.953-92.248 92.247a374.032 374.032 0 0 1-19.27-79.724L307.2 860.802V922.5c0 11.716.787 23.392 2.344 34.953ZM307.2 761.807 195 874.007v-98.994l112.2-112.2v98.994Zm0-197.989L195 676.018v-98.995l112.2-112.2v98.995Zm0-197.99L195 478.028v-98.995l112.2-112.2v98.995Zm0-197.99L195 280.038v-98.995l112.2-112.2v98.995ZM277.048 0 195 82.048V0h82.048Z" fill="#fff"/></g><g filter="url(#d)"><path d="M1246 922.5c0 49.114-9.67 97.75-28.47 143.12a373.882 373.882 0 0 1-81.07 121.34 373.882 373.882 0 0 1-121.34 81.07A373.878 373.878 0 0 1 872 1296.5c-49.114 0-97.748-9.67-143.123-28.47a373.893 373.893 0 0 1-121.335-81.07 374.002 374.002 0 0 1-81.073-121.34A373.967 373.967 0 0 1 498 922.5V0h112.2v922.5a261.79 261.79 0 0 0 161.614 241.87A261.737 261.737 0 0 0 872 1184.3c34.38 0 68.424-6.77 100.187-19.93a261.848 261.848 0 0 0 84.933-56.75 261.708 261.708 0 0 0 56.75-84.93 261.772 261.772 0 0 0 19.93-100.19H1246Z" fill="#F27878"/><path fill-rule="evenodd" clip-rule="evenodd" d="M594.619 1173.37a373.815 373.815 0 0 1-42.277-56.72l82.745-82.74a261.933 261.933 0 0 0 39.012 59.98l-79.48 79.48Zm132.084-33.09a261.496 261.496 0 0 0 45.111 24.09c7.176 2.97 14.47 5.62 21.857 7.94l-86.105 86.1a373.8 373.8 0 0 1-61.287-37.71l80.424-80.42ZM779.972 1285l100.85-100.85a261.862 261.862 0 0 0 91.365-19.78 261.706 261.706 0 0 0 72.583-45.17l-177.275 177.27a373.728 373.728 0 0 1-87.523-11.47Zm203.484-5.49 245.554-245.55c-3.35 10.7-7.17 21.27-11.48 31.66a373.882 373.882 0 0 1-81.07 121.34 373.882 373.882 0 0 1-121.34 81.07 374.623 374.623 0 0 1-31.664 11.48ZM1241.47 922.5l-172.77 172.77a261.705 261.705 0 0 0 45.17-72.58 261.898 261.898 0 0 0 19.78-91.369l8.82-8.821h99Zm-628.926 34.953-92.248 92.247a374.032 374.032 0 0 1-19.27-79.724L610.2 860.802V922.5c0 11.716.787 23.392 2.344 34.953ZM610.2 761.807 498 874.007v-98.994l112.2-112.2v98.994Zm0-197.989L498 676.018v-98.995l112.2-112.2v98.995Zm0-197.99L498 478.028v-98.995l112.2-112.2v98.995Zm0-197.99L498 280.038v-98.995l112.2-112.2v98.995ZM580.048 0 498 82.048V0h82.048Z" fill="#fff"/></g><g filter="url(#e)"><path d="M1549 922.5c0 49.114-9.67 97.75-28.47 143.12a373.882 373.882 0 0 1-81.07 121.34 373.882 373.882 0 0 1-121.34 81.07A373.889 373.889 0 0 1 1175 1296.5c-49.11 0-97.75-9.67-143.12-28.47a373.874 373.874 0 0 1-121.338-81.07 374.002 374.002 0 0 1-81.073-121.34A373.967 373.967 0 0 1 801 922.5V0h112.2v922.5a261.79 261.79 0 0 0 76.68 185.12 261.783 261.783 0 0 0 285.31 56.75 261.867 261.867 0 0 0 84.93-56.75 261.708 261.708 0 0 0 56.75-84.93 261.772 261.772 0 0 0 19.93-100.19H1549Z" fill="#F27878"/><path fill-rule="evenodd" clip-rule="evenodd" d="M897.619 1173.37a373.815 373.815 0 0 1-42.277-56.72l82.745-82.74a261.933 261.933 0 0 0 39.012 59.98l-79.48 79.48Zm132.081-33.09a261.67 261.67 0 0 0 45.11 24.09 264.25 264.25 0 0 0 21.86 7.94l-86.1 86.1a373.668 373.668 0 0 1-61.291-37.71l80.421-80.42Zm53.27 144.72 100.85-100.85c31.37-1.06 62.32-7.75 91.37-19.78a261.705 261.705 0 0 0 72.58-45.17l-177.28 177.27c-29.58-.35-58.95-4.22-87.52-11.47Zm203.49-5.49 245.55-245.55c-3.35 10.7-7.17 21.27-11.48 31.66a373.882 373.882 0 0 1-81.07 121.34 373.882 373.882 0 0 1-121.34 81.07 375.172 375.172 0 0 1-31.66 11.48Zm258.01-357.01-172.77 172.77a261.705 261.705 0 0 0 45.17-72.58 261.898 261.898 0 0 0 19.78-91.369l8.82-8.821h99Zm-628.926 34.953-92.248 92.247a374.032 374.032 0 0 1-19.27-79.724L913.2 860.802V922.5c0 11.716.787 23.392 2.344 34.953ZM913.2 761.807 801 874.007v-98.994l112.2-112.2v98.994Zm0-197.989L801 676.018v-98.995l112.2-112.2v98.995Zm0-197.99L801 478.028v-98.995l112.2-112.2v98.995Zm0-197.99L801 280.038v-98.995l112.2-112.2v98.995ZM883.048 0 801 82.048V0h82.048Z" fill="#fff"/></g><g filter="url(#f)"><path d="M1852 922.5c0 49.114-9.67 97.75-28.47 143.12a373.882 373.882 0 0 1-81.07 121.34 373.882 373.882 0 0 1-121.34 81.07A373.889 373.889 0 0 1 1478 1296.5c-49.11 0-97.75-9.67-143.12-28.47a373.882 373.882 0 0 1-121.34-81.07 373.882 373.882 0 0 1-81.07-121.34A373.874 373.874 0 0 1 1104 922.5V0h112.2v922.5c0 34.38 6.77 68.423 19.93 100.19a261.867 261.867 0 0 0 56.75 84.93 261.783 261.783 0 0 0 285.31 56.75 261.867 261.867 0 0 0 84.93-56.75 261.708 261.708 0 0 0 56.75-84.93 261.772 261.772 0 0 0 19.93-100.19H1852Z" fill="#F27878"/><path fill-rule="evenodd" clip-rule="evenodd" d="M1200.62 1173.37a374.369 374.369 0 0 1-42.28-56.72l82.75-82.74a261.925 261.925 0 0 0 39.01 59.98l-79.48 79.48Zm132.08-33.09a261.67 261.67 0 0 0 45.11 24.09 264.25 264.25 0 0 0 21.86 7.94l-86.1 86.1a373.449 373.449 0 0 1-61.29-37.71l80.42-80.42Zm53.27 144.72 100.85-100.85c31.37-1.06 62.32-7.75 91.37-19.78a261.705 261.705 0 0 0 72.58-45.17l-177.28 177.27c-29.58-.35-58.95-4.22-87.52-11.47Zm203.49-5.49 245.55-245.55c-3.35 10.7-7.17 21.27-11.48 31.66a373.882 373.882 0 0 1-81.07 121.34 373.882 373.882 0 0 1-121.34 81.07 375.172 375.172 0 0 1-31.66 11.48Zm258.01-357.01-172.77 172.77a261.705 261.705 0 0 0 45.17-72.58 261.898 261.898 0 0 0 19.78-91.369l8.82-8.821h99Zm-628.93 34.953-92.24 92.247a373.432 373.432 0 0 1-19.27-79.724l109.17-109.174V922.5c0 11.716.79 23.392 2.34 34.953Zm-2.34-195.646-112.2 112.2v-98.994l112.2-112.2v98.994Zm0-197.989-112.2 112.2v-98.995l112.2-112.2v98.995Zm0-197.99-112.2 112.2v-98.995l112.2-112.2v98.995Zm0-197.99-112.2 112.2v-98.995l112.2-112.2v98.995ZM1186.05 0 1104 82.048V0h82.05Z" fill="#fff"/></g></g><defs><filter id="c" x="185" y="-10" width="788" height="1336.5" filterUnits="userSpaceOnUse" color-interpolation-filters="sRGB"><feFlood flood-opacity="0" result="BackgroundImageFix"/><feColorMatrix in="SourceAlpha" values="0 0 0 0 0 0 0 0 0 0 0 0 0 0 0 0 0 0 127 0" result="hardAlpha"/><feOffset dx="10" dy="10"/><feGaussianBlur stdDeviation="10"/><feColorMatrix values="0 0 0 0 0 0 0 0 0 0 0 0 0 0 0 0 0 0 0.25 0"/><feBlend in2="BackgroundImageFix" result="effect1_dropShadow_3645_7597"/><feBlend in="SourceGraphic" in2="effect1_dropShadow_3645_7597" result="shape"/></filter><filter id="d" x="488" y="-10" width="788" height="1336.5" filterUnits="userSpaceOnUse" color-interpolation-filters="sRGB"><feFlood flood-opacity="0" result="BackgroundImageFix"/><feColorMatrix in="SourceAlpha" values="0 0 0 0 0 0 0 0 0 0 0 0 0 0 0 0 0 0 127 0" result="hardAlpha"/><feOffset dx="10" dy="10"/><feGaussianBlur stdDeviation="10"/><feColorMatrix values="0 0 0 0 0 0 0 0 0 0 0 0 0 0 0 0 0 0 0.25 0"/><feBlend in2="BackgroundImageFix" result="effect1_dropShadow_3645_7597"/><feBlend in="SourceGraphic" in2="effect1_dropShadow_3645_7597" result="shape"/></filter><filter id="e" x="791" y="-10" width="788" height="1336.5" filterUnits="userSpaceOnUse" color-interpolation-filters="sRGB"><feFlood flood-opacity="0" result="BackgroundImageFix"/><feColorMatrix in="SourceAlpha" values="0 0 0 0 0 0 0 0 0 0 0 0 0 0 0 0 0 0 127 0" result="hardAlpha"/><feOffset dx="10" dy="10"/><feGaussianBlur stdDeviation="10"/><feColorMatrix values="0 0 0 0 0 0 0 0 0 0 0 0 0 0 0 0 0 0 0.25 0"/><feBlend in2="BackgroundImageFix" result="effect1_dropShadow_3645_7597"/><feBlend in="SourceGraphic" in2="effect1_dropShadow_3645_7597" result="shape"/></filter><filter id="f" x="1094" y="-10" width="788" height="1336.5" filterUnits="userSpaceOnUse" color-interpolation-filters="sRGB"><feFlood flood-opacity="0" result="BackgroundImageFix"/><feColorMatrix in="SourceAlpha" values="0 0 0 0 0 0 0 0 0 0 0 0 0 0 0 0 0 0 127 0" result="hardAlpha"/><feOffset dx="10" dy="10"/><feGaussianBlur stdDeviation="10"/><feColorMatrix values="0 0 0 0 0 0 0 0 0 0 0 0 0 0 0 0 0 0 0.25 0"/><feBlend in2="BackgroundImageFix" result="effect1_dropShadow_3645_7597"/><feBlend in="SourceGraphic" in2="effect1_dropShadow_3645_7597" result="shape"/></filter><linearGradient id="b" x1="2048" y1="0" x2="0" y2="2048" gradientUnits="userSpaceOnUse"><stop stop-color="#65CC76"/><stop offset="1" stop-color="#68D49E"/></linearGradient><clipPath id="a"><path fill="#fff" d="M0 0h2048v2048H0z"/></clipPath></defs></svg>