<svg width="2048" height="2048" viewBox="0 0 2048 2048" fill="none" xmlns="http://www.w3.org/2000/svg">
<g clip-path="url(#clip0_4841_8062)">
<rect width="2048" height="2048" fill="url(#paint0_linear_4841_8062)"/>
<g filter="url(#filter0_d_4841_8062)">
<path d="M1398 922.5C1398 971.614 1388.33 1020.25 1369.53 1065.62C1350.74 1111 1323.19 1152.23 1288.46 1186.96C1253.73 1221.69 1212.5 1249.24 1167.12 1268.03C1121.75 1286.83 1073.11 1296.5 1024 1296.5C974.886 1296.5 926.252 1286.83 880.877 1268.03C835.501 1249.24 794.271 1221.69 759.542 1186.96C724.813 1152.23 697.265 1111 678.469 1065.62C659.674 1020.25 650 971.614 650 922.5L650 0L762.2 -9.80884e-06L762.2 922.5C762.2 956.88 768.972 990.923 782.129 1022.69C795.285 1054.45 814.569 1083.31 838.88 1107.62C863.19 1131.93 892.051 1151.21 923.814 1164.37C955.577 1177.53 989.62 1184.3 1024 1184.3C1058.38 1184.3 1092.42 1177.53 1124.19 1164.37C1155.95 1151.21 1184.81 1131.93 1209.12 1107.62C1233.43 1083.31 1252.72 1054.45 1265.87 1022.69C1279.03 990.923 1285.8 956.88 1285.8 922.5L1398 922.5Z" fill="#F27878"/>
<path fill-rule="evenodd" clip-rule="evenodd" d="M746.619 1173.37C730.747 1155.82 716.596 1136.83 704.342 1116.65L787.087 1033.91C797.288 1055.6 810.418 1075.78 826.099 1093.89L746.619 1173.37ZM878.703 1140.28C892.884 1149.74 907.988 1157.82 923.814 1164.37C930.99 1167.34 938.284 1169.99 945.671 1172.31L859.566 1258.41C837.953 1247.83 817.431 1235.2 798.279 1220.7L878.703 1140.28ZM931.972 1285L1032.82 1184.15C1064.19 1183.09 1095.14 1176.4 1124.19 1164.37C1150.73 1153.38 1175.24 1138.11 1196.77 1119.2L1019.49 1296.47C989.912 1296.12 960.535 1292.25 931.972 1285ZM1135.46 1279.51L1381.01 1033.96C1377.66 1044.66 1373.84 1055.23 1369.53 1065.62C1350.74 1111 1323.19 1152.23 1288.46 1186.96C1253.73 1221.69 1212.5 1249.24 1167.12 1268.03C1156.73 1272.34 1146.16 1276.16 1135.46 1279.51ZM1393.47 922.5L1220.7 1095.27C1239.61 1073.74 1254.88 1049.23 1265.87 1022.69C1277.9 993.643 1284.59 962.692 1285.65 931.321L1294.47 922.5L1393.47 922.5ZM764.544 957.453L672.296 1049.7C662.959 1023.88 656.503 997.147 653.026 969.976L762.2 860.802L762.2 922.5C762.2 934.216 762.987 945.892 764.544 957.453ZM762.2 761.807L650 874.007L650 775.013L762.2 662.813L762.2 761.807ZM762.2 563.818L650 676.018L650 577.023L762.2 464.822L762.2 563.818ZM762.2 365.828L650 478.028L650 379.033L762.2 266.833L762.2 365.828ZM762.2 167.838L650 280.038L650 181.043L762.2 68.8431L762.2 167.838ZM732.048 -0.000251314L650 82.0481L650 -0.000244141L732.048 -0.000251314Z" fill="white"/>
</g>
</g>
<defs>
<filter id="filter0_d_4841_8062" x="640" y="-10" width="788" height="1336.5" filterUnits="userSpaceOnUse" color-interpolation-filters="sRGB">
<feFlood flood-opacity="0" result="BackgroundImageFix"/>
<feColorMatrix in="SourceAlpha" type="matrix" values="0 0 0 0 0 0 0 0 0 0 0 0 0 0 0 0 0 0 127 0" result="hardAlpha"/>
<feOffset dx="10" dy="10"/>
<feGaussianBlur stdDeviation="10"/>
<feColorMatrix type="matrix" values="0 0 0 0 0 0 0 0 0 0 0 0 0 0 0 0 0 0 0.25 0"/>
<feBlend mode="normal" in2="BackgroundImageFix" result="effect1_dropShadow_4841_8062"/>
<feBlend mode="normal" in="SourceGraphic" in2="effect1_dropShadow_4841_8062" result="shape"/>
</filter>
<linearGradient id="paint0_linear_4841_8062" x1="2048" y1="0" x2="0" y2="2048" gradientUnits="userSpaceOnUse">
<stop stop-color="#65CC76"/>
<stop offset="1" stop-color="#68D49E"/>
</linearGradient>
<clipPath id="clip0_4841_8062">
<rect width="2048" height="2048" fill="white"/>
</clipPath>
</defs>
</svg>
