<svg width="2048" height="2048" viewBox="0 0 2048 2048" fill="none" xmlns="http://www.w3.org/2000/svg">
<g clip-path="url(#clip0_1716_3027)">
<rect width="2048" height="2048" fill="url(#paint0_linear_1716_3027)"/>
<g filter="url(#filter0_d_1716_3027)">
<path d="M1402.08 1038.28C1409.66 1011.73 1394.28 984.055 1367.73 976.473C1341.17 968.892 1313.5 984.272 1305.92 1010.82L1402.08 1038.28ZM1305.92 1010.82C1291.3 1062.02 1262.73 1108.14 1223.4 1144.02L1290.8 1217.89C1343.84 1169.5 1382.37 1107.31 1402.08 1038.28L1305.92 1010.82ZM1223.4 1144.02C1184.07 1179.91 1135.53 1204.14 1083.21 1214.02L1101.76 1312.28C1172.31 1298.96 1237.77 1266.28 1290.8 1217.89L1223.4 1144.02ZM1083.21 1214.02C1030.89 1223.9 976.855 1219.02 927.147 1199.95L891.318 1293.31C958.347 1319.03 1031.21 1325.6 1101.76 1312.28L1083.21 1214.02ZM927.147 1199.95C877.438 1180.87 834.018 1148.34 801.742 1106L722.213 1166.62C765.737 1223.72 824.289 1267.58 891.318 1293.31L927.147 1199.95ZM801.742 1106C769.465 1063.66 749.606 1013.17 744.384 960.192L644.866 970.001C651.908 1041.45 678.689 1109.53 722.213 1166.62L801.742 1106ZM744.384 960.192C739.162 907.211 748.783 853.821 772.173 805.994L682.34 762.062C650.799 826.557 637.824 898.554 644.866 970.001L744.384 960.192ZM772.173 805.994C794.374 760.596 836.365 719.539 884.046 689.452L830.682 604.881C772.618 641.52 715.068 695.138 682.34 762.062L772.173 805.994ZM976.645 2.1019e-06V415.592L1076.64 415.592V-2.1019e-06L976.645 2.1019e-06ZM884.046 689.452C928.67 661.295 975.794 624.92 1012.22 580.453C1048.79 535.811 1076.64 480.342 1076.64 415.592L976.645 415.592C976.645 450.275 961.909 484.063 934.859 517.085C907.667 550.281 870.15 579.977 830.682 604.881L884.046 689.452Z" fill="#424242"/>
</g>
</g>
<defs>
<filter id="filter0_d_1716_3027" x="633" y="-10" width="801.014" height="1359" filterUnits="userSpaceOnUse" color-interpolation-filters="sRGB">
<feFlood flood-opacity="0" result="BackgroundImageFix"/>
<feColorMatrix in="SourceAlpha" type="matrix" values="0 0 0 0 0 0 0 0 0 0 0 0 0 0 0 0 0 0 127 0" result="hardAlpha"/>
<feOffset dx="10" dy="10"/>
<feGaussianBlur stdDeviation="10"/>
<feColorMatrix type="matrix" values="0 0 0 0 0 0 0 0 0 0 0 0 0 0 0 0 0 0 0.25 0"/>
<feBlend mode="normal" in2="BackgroundImageFix" result="effect1_dropShadow_1716_3027"/>
<feBlend mode="normal" in="SourceGraphic" in2="effect1_dropShadow_1716_3027" result="shape"/>
</filter>
<linearGradient id="paint0_linear_1716_3027" x1="2048" y1="0" x2="0" y2="2048" gradientUnits="userSpaceOnUse">
<stop stop-color="#CC7665"/>
<stop offset="1" stop-color="#E6AB71"/>
</linearGradient>
<clipPath id="clip0_1716_3027">
<rect width="2048" height="2048" fill="white"/>
</clipPath>
</defs>
</svg>
