<svg width="2048" height="2048" fill="none" xmlns="http://www.w3.org/2000/svg"><g clip-path="url(#a)"><path fill="url(#b)" d="M0 0h2048v2048H0z"/><g filter="url(#c)"><path d="M818.079 1038.28c7.581-26.55-7.799-54.225-34.352-61.807-26.553-7.581-54.224 7.799-61.806 34.347l96.158 27.46Zm-96.158-27.46a286.897 286.897 0 0 1-82.519 133.2l67.4 73.87a386.963 386.963 0 0 0 111.277-179.61l-96.158-27.46Zm-82.519 133.2a286.968 286.968 0 0 1-140.191 70l18.55 98.26a386.911 386.911 0 0 0 189.041-94.39l-67.4-73.87Zm-140.191 70a287.024 287.024 0 0 1-156.064-14.07l-35.829 93.36a387.01 387.01 0 0 0 210.443 18.97l-18.55-98.26Zm-156.064-14.07A287.01 287.01 0 0 1 217.742 1106l-79.529 60.62a387.01 387.01 0 0 0 169.105 126.69l35.829-93.36ZM217.742 1106a286.942 286.942 0 0 1-57.358-145.808l-99.518 9.809a386.894 386.894 0 0 0 77.347 196.619l79.529-60.62Zm-57.358-145.808a286.923 286.923 0 0 1 27.789-154.198l-89.834-43.932a386.933 386.933 0 0 0-37.473 207.939l99.518-9.809Zm27.789-154.198c22.201-45.398 64.192-86.455 111.873-116.542l-53.364-84.571C188.618 641.52 131.068 695.138 98.34 762.062l89.833 43.932ZM392.645 0v415.592h100V0h-100Zm-92.599 689.452c44.624-28.157 91.748-64.532 128.173-108.999 36.567-44.642 64.426-100.111 64.426-164.861h-100c0 34.683-14.736 68.471-41.786 101.493-27.192 33.196-64.709 62.892-104.177 87.796l53.364 84.571Z" fill="#6476CC"/></g><g filter="url(#d)"><path d="M1110.08 1038.28c7.58-26.55-7.8-54.225-34.35-61.807-26.56-7.581-54.23 7.799-61.81 34.347l96.16 27.46Zm-96.16-27.46a286.887 286.887 0 0 1-82.518 133.2l67.4 73.87a386.948 386.948 0 0 0 111.278-179.61l-96.16-27.46Zm-82.518 133.2a286.968 286.968 0 0 1-140.191 70l18.55 98.26a386.911 386.911 0 0 0 189.041-94.39l-67.4-73.87Zm-140.191 70a287.024 287.024 0 0 1-156.064-14.07l-35.829 93.36a387.01 387.01 0 0 0 210.443 18.97l-18.55-98.26Zm-156.064-14.07A287.01 287.01 0 0 1 509.742 1106l-79.529 60.62a387.01 387.01 0 0 0 169.105 126.69l35.829-93.36ZM509.742 1106a286.942 286.942 0 0 1-57.358-145.808l-99.518 9.809a386.898 386.898 0 0 0 77.347 196.619l79.529-60.62Zm-57.358-145.808a286.923 286.923 0 0 1 27.789-154.198l-89.833-43.932a386.926 386.926 0 0 0-37.474 207.939l99.518-9.809Zm27.789-154.198c22.201-45.398 64.192-86.455 111.873-116.542l-53.364-84.571c-58.064 36.639-115.614 90.257-148.342 157.181l89.833 43.932ZM684.645 0v415.592h100V0h-100Zm-92.599 689.452c44.624-28.157 91.748-64.532 128.173-108.999 36.567-44.642 64.426-100.111 64.426-164.861h-100c0 34.683-14.736 68.471-41.786 101.493-27.192 33.196-64.709 62.892-104.177 87.796l53.364 84.571Z" fill="#D46899"/></g><g filter="url(#e)"><path d="M1402.08 1038.28c7.58-26.55-7.8-54.225-34.35-61.807-26.56-7.581-54.23 7.799-61.81 34.347l96.16 27.46Zm-96.16-27.46a286.94 286.94 0 0 1-82.52 133.2l67.4 73.87a386.936 386.936 0 0 0 111.28-179.61l-96.16-27.46Zm-82.52 133.2a286.96 286.96 0 0 1-140.19 70l18.55 98.26c70.55-13.31 136.01-46 189.04-94.39l-67.4-73.87Zm-140.19 70a287.02 287.02 0 0 1-156.063-14.07l-35.829 93.36a387.005 387.005 0 0 0 210.442 18.97l-18.55-98.26Zm-156.063-14.07A287.01 287.01 0 0 1 801.742 1106l-79.529 60.62a387.01 387.01 0 0 0 169.105 126.69l35.829-93.36ZM801.742 1106a286.942 286.942 0 0 1-57.358-145.808l-99.518 9.809a386.898 386.898 0 0 0 77.347 196.619l79.529-60.62Zm-57.358-145.808a286.923 286.923 0 0 1 27.789-154.198l-89.833-43.932a386.926 386.926 0 0 0-37.474 207.939l99.518-9.809Zm27.789-154.198c22.201-45.398 64.192-86.455 111.873-116.542l-53.364-84.571c-58.064 36.639-115.614 90.257-148.342 157.181l89.833 43.932ZM976.645 0v415.592h99.995V0h-99.995Zm-92.599 689.452c44.624-28.157 91.748-64.532 128.174-108.999 36.57-44.642 64.42-100.111 64.42-164.861h-99.995c0 34.683-14.736 68.471-41.786 101.493-27.192 33.196-64.709 62.892-104.177 87.796l53.364 84.571Z" fill="#fff"/></g><g filter="url(#f)"><path d="M1694.08 1038.28c7.58-26.55-7.8-54.225-34.35-61.807-26.56-7.581-54.23 7.799-61.81 34.347l96.16 27.46Zm-96.16-27.46a286.94 286.94 0 0 1-82.52 133.2l67.4 73.87a386.936 386.936 0 0 0 111.28-179.61l-96.16-27.46Zm-82.52 133.2a286.96 286.96 0 0 1-140.19 70l18.55 98.26c70.55-13.31 136.01-46 189.04-94.39l-67.4-73.87Zm-140.19 70a287.01 287.01 0 0 1-156.06-14.07l-35.83 93.36a386.999 386.999 0 0 0 210.44 18.97l-18.55-98.26Zm-156.06-14.07a287.042 287.042 0 0 1-125.41-93.95l-79.53 60.62a387.052 387.052 0 0 0 169.11 126.69l35.83-93.36ZM1093.74 1106a287.077 287.077 0 0 1-57.36-145.808l-99.514 9.809a386.92 386.92 0 0 0 77.344 196.619l79.53-60.62Zm-57.36-145.808a286.942 286.942 0 0 1 27.79-154.198l-89.83-43.932a386.926 386.926 0 0 0-37.474 207.939l99.514-9.809Zm27.79-154.198c22.2-45.398 64.19-86.455 111.88-116.542l-53.37-84.571c-58.06 36.639-115.61 90.257-148.34 157.181l89.83 43.932ZM1268.64 0v415.592h100V0h-100Zm-92.59 689.452c44.62-28.157 91.74-64.532 128.17-108.999 36.57-44.642 64.42-100.111 64.42-164.861h-100c0 34.683-14.73 68.471-41.78 101.493-27.19 33.196-64.71 62.892-104.18 87.796l53.37 84.571Z" fill="#D46899"/></g><g filter="url(#g)"><path d="M1986.08 1038.28c7.58-26.55-7.8-54.225-34.35-61.807-26.56-7.581-54.23 7.799-61.81 34.347l96.16 27.46Zm-96.16-27.46a286.94 286.94 0 0 1-82.52 133.2l67.4 73.87a386.936 386.936 0 0 0 111.28-179.61l-96.16-27.46Zm-82.52 133.2a286.96 286.96 0 0 1-140.19 70l18.55 98.26c70.55-13.31 136.01-46 189.04-94.39l-67.4-73.87Zm-140.19 70a287.01 287.01 0 0 1-156.06-14.07l-35.83 93.36a386.999 386.999 0 0 0 210.44 18.97l-18.55-98.26Zm-156.06-14.07a287.042 287.042 0 0 1-125.41-93.95l-79.53 60.62a387.052 387.052 0 0 0 169.11 126.69l35.83-93.36ZM1385.74 1106a287.077 287.077 0 0 1-57.36-145.808l-99.51 9.809a386.906 386.906 0 0 0 77.34 196.619l79.53-60.62Zm-57.36-145.808a286.942 286.942 0 0 1 27.79-154.198l-89.83-43.932a386.858 386.858 0 0 0-37.47 207.939l99.51-9.809Zm27.79-154.198c22.2-45.398 64.19-86.455 111.88-116.542l-53.37-84.571c-58.06 36.639-115.61 90.257-148.34 157.181l89.83 43.932ZM1560.64 0v415.592h100V0h-100Zm-92.59 689.452c44.62-28.157 91.74-64.532 128.17-108.999 36.57-44.642 64.42-100.111 64.42-164.861h-100c0 34.683-14.73 68.471-41.78 101.493-27.19 33.196-64.71 62.892-104.18 87.796l53.37 84.571Z" fill="#6476CC"/></g></g><defs><filter id="c" x="49" y="-10" width="801.013" height="1359" filterUnits="userSpaceOnUse" color-interpolation-filters="sRGB"><feFlood flood-opacity="0" result="BackgroundImageFix"/><feColorMatrix in="SourceAlpha" values="0 0 0 0 0 0 0 0 0 0 0 0 0 0 0 0 0 0 127 0" result="hardAlpha"/><feOffset dx="10" dy="10"/><feGaussianBlur stdDeviation="10"/><feColorMatrix values="0 0 0 0 0 0 0 0 0 0 0 0 0 0 0 0 0 0 0.25 0"/><feBlend in2="BackgroundImageFix" result="effect1_dropShadow_31047822"/><feBlend in="SourceGraphic" in2="effect1_dropShadow_31047822" result="shape"/></filter><filter id="d" x="341" y="-10" width="801.013" height="1359" filterUnits="userSpaceOnUse" color-interpolation-filters="sRGB"><feFlood flood-opacity="0" result="BackgroundImageFix"/><feColorMatrix in="SourceAlpha" values="0 0 0 0 0 0 0 0 0 0 0 0 0 0 0 0 0 0 127 0" result="hardAlpha"/><feOffset dx="10" dy="10"/><feGaussianBlur stdDeviation="10"/><feColorMatrix values="0 0 0 0 0 0 0 0 0 0 0 0 0 0 0 0 0 0 0.25 0"/><feBlend in2="BackgroundImageFix" result="effect1_dropShadow_31047822"/><feBlend in="SourceGraphic" in2="effect1_dropShadow_31047822" result="shape"/></filter><filter id="e" x="633" y="-10" width="801.013" height="1359" filterUnits="userSpaceOnUse" color-interpolation-filters="sRGB"><feFlood flood-opacity="0" result="BackgroundImageFix"/><feColorMatrix in="SourceAlpha" values="0 0 0 0 0 0 0 0 0 0 0 0 0 0 0 0 0 0 127 0" result="hardAlpha"/><feOffset dx="10" dy="10"/><feGaussianBlur stdDeviation="10"/><feColorMatrix values="0 0 0 0 0 0 0 0 0 0 0 0 0 0 0 0 0 0 0.25 0"/><feBlend in2="BackgroundImageFix" result="effect1_dropShadow_31047822"/><feBlend in="SourceGraphic" in2="effect1_dropShadow_31047822" result="shape"/></filter><filter id="f" x="925" y="-10" width="801.013" height="1359" filterUnits="userSpaceOnUse" color-interpolation-filters="sRGB"><feFlood flood-opacity="0" result="BackgroundImageFix"/><feColorMatrix in="SourceAlpha" values="0 0 0 0 0 0 0 0 0 0 0 0 0 0 0 0 0 0 127 0" result="hardAlpha"/><feOffset dx="10" dy="10"/><feGaussianBlur stdDeviation="10"/><feColorMatrix values="0 0 0 0 0 0 0 0 0 0 0 0 0 0 0 0 0 0 0.25 0"/><feBlend in2="BackgroundImageFix" result="effect1_dropShadow_31047822"/><feBlend in="SourceGraphic" in2="effect1_dropShadow_31047822" result="shape"/></filter><filter id="g" x="1217" y="-10" width="801.013" height="1359" filterUnits="userSpaceOnUse" color-interpolation-filters="sRGB"><feFlood flood-opacity="0" result="BackgroundImageFix"/><feColorMatrix in="SourceAlpha" values="0 0 0 0 0 0 0 0 0 0 0 0 0 0 0 0 0 0 127 0" result="hardAlpha"/><feOffset dx="10" dy="10"/><feGaussianBlur stdDeviation="10"/><feColorMatrix values="0 0 0 0 0 0 0 0 0 0 0 0 0 0 0 0 0 0 0.25 0"/><feBlend in2="BackgroundImageFix" result="effect1_dropShadow_31047822"/><feBlend in="SourceGraphic" in2="effect1_dropShadow_31047822" result="shape"/></filter><linearGradient id="b" x1="2048" y1="0" x2="0" y2="2048" gradientUnits="userSpaceOnUse"><stop stop-color="#F2D478"/><stop offset="1" stop-color="#EDC575"/></linearGradient><clipPath id="a"><path fill="#fff" d="M0 0h2048v2048H0z"/></clipPath></defs></svg>