<svg width="528" height="157" viewBox="0 0 528 157" fill="none" xmlns="http://www.w3.org/2000/svg">
<path fill-rule="evenodd" clip-rule="evenodd" d="M0 29.8155L18 24.8155C35 19.8155 70 8.81549 106 3.81549C141 -1.18451 176 -1.18451 211 6.81549C246 13.8155 282 29.8155 317 42.8155C352 56.8155 387 66.8155 422 66.8155C458 66.8155 493 56.8155 510 50.8155L528 45.8155V157H510C493 157 458 157 422 157C387 157 352 157 317 157C282 157 246 157 211 157C176 157 141 157 106 157C70 157 35 157 18 157H0V29.8155Z" fill="#7289DA"/>
</svg>
