<svg width="528" height="191" viewBox="0 0 528 191" fill="none" xmlns="http://www.w3.org/2000/svg">
<path fill-rule="evenodd" clip-rule="evenodd" d="M0 110.963L21.8625 94.875C44.1375 79.2 87.8625 47.4375 132 52.8C176.138 58.1625 219.862 100.237 264 118.8C308.138 137.362 351.862 132 396 108.075C440.138 84.5625 483.862 42.075 506.137 21.0375L528 0V191H506.137C483.862 191 440.138 191 396 191C351.862 191 308.138 191 264 191C219.862 191 176.138 191 132 191C87.8625 191 44.1375 191 21.8625 191H0V110.963Z" fill="url(#paint0_linear_2629_5540)"/>
<defs>
<linearGradient id="paint0_linear_2629_5540" x1="0" y1="190.575" x2="528" y2="190.575" gradientUnits="userSpaceOnUse">
<stop stop-color="#71AFE5"/>
<stop offset="1" stop-color="#6576CC"/>
</linearGradient>
</defs>
</svg>
