<svg width="528" height="179" viewBox="0 0 528 179" fill="none" xmlns="http://www.w3.org/2000/svg">
<path fill-rule="evenodd" clip-rule="evenodd" d="M0 0.575195L21.8668 5.93875C44.1462 11.3023 87.8798 22.0294 132.026 40.183C176.172 58.7491 219.906 85.1543 264.052 85.1543C308.198 85.1543 351.932 58.7491 396.078 56.2737C440.224 53.3856 483.958 74.8398 506.237 85.1543L528 96V179H506.427C484.147 179 440.414 179 396.268 179C352.121 179 308.388 179 264.242 179C220.096 179 176.362 179 132.216 179C88.0695 179 44.3359 179 22.0565 179H0V0.575195Z" fill="url(#paint0_linear_2629_5542)"/>
<defs>
<linearGradient id="paint0_linear_2629_5542" x1="0" y1="178.81" x2="528.104" y2="178.81" gradientUnits="userSpaceOnUse">
<stop stop-color="#EDC575"/>
<stop offset="1" stop-color="#E6AB71"/>
</linearGradient>
</defs>
</svg>
