<svg width="528" height="176" viewBox="0 0 528 176" fill="none" xmlns="http://www.w3.org/2000/svg">
<path fill-rule="evenodd" clip-rule="evenodd" d="M0 0L22 13.6324C44 27.2647 88 54.5295 132 72.2312C176 89.7295 220 97.6647 264 81.9977C308 66.3306 352 27.2647 396 23.3988C440 19.5329 484 50.6636 506 66.3306L528 81.9977V176H506C484 176 440 176 396 176C352 176 308 176 264 176C220 176 176 176 132 176C88 176 44 176 22 176H0V0Z" fill="url(#paint0_linear_6268_1075)"/>
<defs>
<linearGradient id="paint0_linear_6268_1075" x1="6.46159e-06" y1="216.473" x2="528" y2="216.473" gradientUnits="userSpaceOnUse">
<stop/>
<stop offset="1" stop-color="#424242"/>
</linearGradient>
</defs>
</svg>
