<svg width="528" height="207" viewBox="0 0 528 207" fill="none" xmlns="http://www.w3.org/2000/svg">
<path fill-rule="evenodd" clip-rule="evenodd" d="M528 126.775L506 129.408C484 132.042 440 137.308 396 118.875C352 100.442 308 58.3083 264 50.4083C220 42.5083 176 68.8417 132 66.2083C88 63.575 44 31.975 22 16.175L0 0.375V207H22C44 207 88 207 132 207C176 207 220 207 264 207C308 207 352 207 396 207C440 207 484 207 506 207H528V126.775Z" fill="url(#paint0_linear_2629_5544)"/>
<defs>
<linearGradient id="paint0_linear_2629_5544" x1="-1.65241e-05" y1="206.375" x2="528" y2="206.375" gradientUnits="userSpaceOnUse">
<stop stop-color="#F9DE65"/>
<stop offset="1" stop-color="#FFC91E"/>
</linearGradient>
</defs>
</svg>
