<svg width="2048" height="2048" viewBox="0 0 2048 2048" fill="none" xmlns="http://www.w3.org/2000/svg">
<rect width="2048" height="2048" fill="url(#paint0_linear_5066_8053)"/>
<path d="M424.041 1526.58C1026.15 1526.58 1514.26 1038.47 1514.26 436.36C1514.26 428.642 1514.18 420.943 1514.02 413.263C1513.15 371.265 1566.56 351.774 1584.92 389.556C1642.59 508.226 1674.94 641.477 1674.94 782.283C1674.94 1279.15 1272.14 1681.94 775.274 1681.94C639.304 1681.94 510.378 1651.78 394.825 1597.78C356.771 1580 375.444 1526.31 417.448 1526.56C419.644 1526.57 421.842 1526.58 424.041 1526.58Z" fill="#F2D478"/>
<rect x="1510.19" y="249.751" width="55.4839" height="177.941" rx="27.7419" transform="rotate(-3.87524 1510.19 249.751)" fill="#424242"/>
<path fill-rule="evenodd" clip-rule="evenodd" d="M477.073 1525.31C459.502 1526.15 441.821 1526.58 424.041 1526.58C421.841 1526.58 419.644 1526.57 417.447 1526.56C375.444 1526.31 356.77 1580 394.825 1597.78C421.551 1610.27 448.994 1621.48 477.073 1631.35V1525.31Z" fill="#424242"/>
<defs>
<linearGradient id="paint0_linear_5066_8053" x1="2048" y1="0" x2="0" y2="2048" gradientUnits="userSpaceOnUse">
<stop stop-color="#78ECF2"/>
<stop offset="1" stop-color="#71AFE5"/>
</linearGradient>
</defs>
</svg>
