<svg width="256" height="256" fill="none" xmlns="http://www.w3.org/2000/svg"><circle cx="127.999" cy="128" r="33" fill="#fff"/><path d="M232 128c0 8.837-7.163 16-16 16s-16-7.163-16-16 7.163-16 16-16 16 7.163 16 16Zm-30.461 73.539c-6.248 6.248-16.379 6.248-22.627 0-6.249-6.248-6.249-16.379 0-22.627 6.248-6.249 16.379-6.249 22.627 0 6.248 6.248 6.248 16.379 0 22.627ZM128 232c-8.837 0-16-7.163-16-16s7.163-16 16-16 16 7.163 16 16-7.163 16-16 16Zm-73.54-30.461c-6.248-6.248-6.248-16.379 0-22.627 6.25-6.249 16.38-6.249 22.628 0 6.249 6.248 6.249 16.379 0 22.627-6.248 6.248-16.379 6.248-22.627 0ZM56 128c0 8.837-7.163 16-16 16s-16-7.163-16-16 7.163-16 16-16 16 7.163 16 16Zm21.088-50.912c-6.248 6.249-16.379 6.249-22.627 0-6.248-6.248-6.248-16.379 0-22.627 6.248-6.248 16.379-6.248 22.627 0 6.249 6.248 6.249 16.379 0 22.627ZM128 56c-8.837 0-16-7.163-16-16s7.163-16 16-16 16 7.163 16 16-7.163 16-16 16Zm50.912 21.088c-6.249-6.248-6.249-16.379 0-22.627 6.248-6.248 16.379-6.248 22.627 0 6.248 6.248 6.248 16.379 0 22.627-6.248 6.249-16.379 6.249-22.627 0Z" fill="#fff"/><path fill-rule="evenodd" clip-rule="evenodd" d="M216.842 104.014a91.445 91.445 0 0 0-9.066-21.869 23.999 23.999 0 0 1-6.419 4.9 83.493 83.493 0 0 1 7.48 18.042 24.005 24.005 0 0 1 8.005-1.073Zm-6.193 39.069A84.415 84.415 0 0 0 212 128c0-5.149-.463-10.19-1.351-15.083a16.105 16.105 0 0 1 8.003-.698A92.62 92.62 0 0 1 220 128a92.62 92.62 0 0 1-1.348 15.781 16.105 16.105 0 0 1-8.003-.698Zm-13.548-62.856a84.455 84.455 0 0 0-21.328-21.328 16.14 16.14 0 0 1 5.162-6.154 92.522 92.522 0 0 1 22.32 22.32 16.092 16.092 0 0 1-1.716 2.023 15.98 15.98 0 0 1-4.438 3.139Zm-23.246-32.003a23.973 23.973 0 0 0-4.899 6.42 83.505 83.505 0 0 0-18.043-7.481 24.006 24.006 0 0 0 1.073-8.005 91.444 91.444 0 0 1 21.869 9.066Zm-61.636-10.876A92.58 92.58 0 0 1 128 36a92.58 92.58 0 0 1 15.781 1.348 16.094 16.094 0 0 1-.698 8.002A84.489 84.489 0 0 0 128 44c-5.149 0-10.19.463-15.083 1.35a16.094 16.094 0 0 1-.698-8.002Zm-8.205 1.81a91.446 91.446 0 0 0-21.869 9.066 23.992 23.992 0 0 1 4.9 6.42 83.49 83.49 0 0 1 18.042-7.481 24.006 24.006 0 0 1-1.073-8.005Zm-23.787 19.74a84.468 84.468 0 0 0-21.328 21.329 16.107 16.107 0 0 1-6.154-5.162 92.521 92.521 0 0 1 22.32-22.32 16.107 16.107 0 0 1 5.162 6.154ZM48.224 82.146a23.992 23.992 0 0 0 6.42 4.9 83.49 83.49 0 0 0-7.481 18.042 24.006 24.006 0 0 0-8.005-1.073 91.446 91.446 0 0 1 9.066-21.869Zm-10.876 61.636A92.58 92.58 0 0 1 36 128a92.58 92.58 0 0 1 1.348-15.781 16.094 16.094 0 0 1 8.002.698A84.489 84.489 0 0 0 44 128c0 5.149.463 10.19 1.35 15.083a16.094 16.094 0 0 1-8.002.698ZM216 152c.282 0 .563-.005.842-.014a91.443 91.443 0 0 1-9.066 21.869 23.98 23.98 0 0 0-6.419-4.899 83.509 83.509 0 0 0 7.48-18.043A24.005 24.005 0 0 0 216 152Zm-40.227 45.101a84.442 84.442 0 0 0 21.328-21.328 16.125 16.125 0 0 1 6.154 5.162 92.522 92.522 0 0 1-22.32 22.32 16.125 16.125 0 0 1-5.162-6.154Zm-6.817 4.256a83.509 83.509 0 0 1-18.043 7.48 24.005 24.005 0 0 1 1.073 8.005 91.443 91.443 0 0 0 21.869-9.066 23.98 23.98 0 0 1-4.899-6.419Zm-25.175 17.295A92.62 92.62 0 0 1 128 220a92.62 92.62 0 0 1-15.781-1.348 16.105 16.105 0 0 1 .698-8.003A84.415 84.415 0 0 0 128 212c5.149 0 10.19-.463 15.083-1.351a16.105 16.105 0 0 1 .698 8.003Zm-38.694-9.815a24.005 24.005 0 0 0-1.073 8.005 91.445 91.445 0 0 1-21.869-9.066 23.999 23.999 0 0 0 4.9-6.419 83.493 83.493 0 0 0 18.042 7.48Zm-46.188-33.064a84.457 84.457 0 0 0 21.328 21.328 15.98 15.98 0 0 1-3.139 4.438 16.092 16.092 0 0 1-2.023 1.716 92.522 92.522 0 0 1-22.32-22.32 16.14 16.14 0 0 1 6.154-5.162Zm-4.255-6.817a83.505 83.505 0 0 1-7.481-18.043 24.006 24.006 0 0 1-8.005 1.073 91.444 91.444 0 0 0 9.066 21.869 23.973 23.973 0 0 1 6.42-4.899Z" fill="#fff"/></svg>