<svg width="2048" height="2048" fill="none" xmlns="http://www.w3.org/2000/svg"><path fill="#71AFE5" d="M0 0h2048v2048H0z"/><circle cx="1023.99" cy="1024" r="264" fill="#fff"/><path d="M1856 1024c0 70.69-57.31 128-128 128s-128-57.31-128-128c0-70.692 57.31-128 128-128s128 57.308 128 128ZM1612.31 1612.31c-49.98 49.99-131.03 49.99-181.02 0-49.98-49.98-49.98-131.03 0-181.02 49.99-49.98 131.04-49.98 181.02 0 49.99 49.99 49.99 131.04 0 181.02ZM1024 1856c-70.692 0-128-57.31-128-128s57.308-128 128-128c70.69 0 128 57.31 128 128s-57.31 128-128 128ZM435.687 1612.31c-49.987-49.98-49.987-131.03 0-181.02 49.987-49.98 131.032-49.98 181.019 0 49.988 49.99 49.988 131.04 0 181.02-49.987 49.99-131.032 49.99-181.019 0ZM448 1024c0 70.69-57.308 128-128 128-70.692 0-128-57.31-128-128 0-70.692 57.308-128 128-128 70.692 0 128 57.308 128 128ZM616.707 616.706c-49.988 49.988-131.033 49.988-181.02 0-49.987-49.987-49.987-131.032 0-181.019 49.987-49.987 131.032-49.987 181.02 0 49.987 49.987 49.987 131.032 0 181.019ZM1024 448c-70.692 0-128-57.308-128-128 0-70.692 57.308-128 128-128 70.69 0 128 57.308 128 128 0 70.692-57.31 128-128 128ZM1431.29 616.706c-49.98-49.987-49.98-131.032 0-181.019 49.99-49.987 131.04-49.987 181.02 0 49.99 49.987 49.99 131.032 0 181.02-49.98 49.987-131.03 49.987-181.02-.001Z" fill="#fff"/><path fill-rule="evenodd" clip-rule="evenodd" d="M1734.74 832.116c-16.68-61.929-41.24-120.628-72.53-174.955-1.52 1.62-3.06 3.221-4.64 4.8-14.13 14.126-29.91 25.591-46.72 34.395a667.83 667.83 0 0 1 59.85 144.341c18.09-5.651 37.34-8.697 57.3-8.697 2.25 0 4.5.039 6.74.116Zm-49.54 312.554c7.09-39.15 10.8-79.48 10.8-120.67 0-41.193-3.71-81.521-10.8-120.668 13.38-4.748 27.79-7.332 42.8-7.332 7.23 0 14.31.599 21.21 1.75 7.09 41.02 10.79 83.203 10.79 126.25 0 43.05-3.7 85.23-10.79 126.25-6.9 1.15-13.98 1.75-21.21 1.75-15.01 0-29.42-2.58-42.8-7.33Zm-108.39-502.857a675.794 675.794 0 0 0-170.62-170.623c6.11-12.841 14.47-24.874 25.1-35.503 5.1-5.095 10.52-9.67 16.19-13.726a740.262 740.262 0 0 1 178.56 178.559 128.826 128.826 0 0 1-13.73 16.187c-10.63 10.629-22.66 18.997-35.5 25.106Zm-185.97-256.02c-1.62 1.513-3.22 3.06-4.8 4.639-14.13 14.126-25.59 29.906-34.4 46.716a667.71 667.71 0 0 0-144.34-59.844c5.65-18.097 8.7-37.345 8.7-57.304 0-2.255-.04-4.501-.12-6.737 61.93 16.679 120.63 41.236 174.96 72.53Zm-493.09-87.006C938.77 291.696 980.953 288 1024 288c43.05 0 85.23 3.696 126.25 10.787 1.15 6.9 1.75 13.986 1.75 21.213 0 15.012-2.58 29.42-7.33 42.804C1105.52 355.706 1065.19 352 1024 352c-41.193 0-81.521 3.706-120.668 10.804C898.584 349.42 896 335.012 896 320c0-7.227.599-14.313 1.75-21.213Zm-65.634 14.476c-61.929 16.679-120.628 41.236-174.955 72.53a195.58 195.58 0 0 1 4.8 4.639c14.126 14.126 25.591 29.906 34.394 46.716a667.892 667.892 0 0 1 144.342-59.844C835.045 359.207 832 339.959 832 320c0-2.255.039-4.501.116-6.737ZM641.813 471.19A675.757 675.757 0 0 0 471.19 641.813c-12.841-6.109-24.874-14.477-35.503-25.107a128.795 128.795 0 0 1-13.726-16.186A740.151 740.151 0 0 1 600.52 421.961a128.875 128.875 0 0 1 16.187 13.726c10.629 10.629 18.997 22.662 25.106 35.503Zm-256.02 185.971a195.58 195.58 0 0 0 4.639 4.8c14.126 14.126 29.906 25.591 46.716 34.394a667.892 667.892 0 0 0-59.844 144.342C359.207 835.046 339.959 832 320 832c-2.255 0-4.501.039-6.737.116 16.679-61.929 41.236-120.628 72.53-174.955Zm-87.006 493.089C291.696 1109.23 288 1067.05 288 1024c0-43.047 3.696-85.23 10.787-126.25 6.9-1.151 13.986-1.75 21.213-1.75 15.012 0 29.42 2.584 42.804 7.332C355.706 942.479 352 982.807 352 1024c0 41.19 3.706 81.52 10.804 120.67-13.384 4.75-27.792 7.33-42.804 7.33-7.227 0-14.313-.6-21.213-1.75ZM1728 1216c2.25 0 4.5-.04 6.74-.12-16.68 61.93-41.24 120.63-72.53 174.96-1.52-1.62-3.06-3.22-4.64-4.8-14.13-14.13-29.91-25.59-46.72-34.4a667.677 667.677 0 0 0 59.85-144.34c18.09 5.65 37.34 8.7 57.3 8.7Zm-321.81 360.81a675.83 675.83 0 0 0 170.62-170.62c12.84 6.11 24.87 14.47 35.5 25.1 5.1 5.1 9.67 10.52 13.73 16.19a740.391 740.391 0 0 1-178.56 178.56c-5.67-4.06-11.09-8.63-16.19-13.73-10.63-10.63-18.99-22.66-25.1-35.5Zm-54.55 34.04a667.677 667.677 0 0 1-144.34 59.85c5.65 18.09 8.7 37.34 8.7 57.3 0 2.25-.04 4.5-.12 6.74 61.93-16.68 120.63-41.24 174.96-72.53-1.62-1.52-3.22-3.06-4.8-4.64-14.13-14.13-25.59-29.91-34.4-46.72Zm-201.39 138.36c-41.02 7.09-83.2 10.79-126.25 10.79-43.047 0-85.23-3.7-126.25-10.79-1.151-6.9-1.75-13.98-1.75-21.21 0-15.01 2.584-29.42 7.332-42.8 39.147 7.09 79.475 10.8 120.668 10.8 41.19 0 81.52-3.71 120.67-10.8 4.75 13.38 7.33 27.79 7.33 42.8 0 7.23-.6 14.31-1.75 21.21Zm-309.553-78.51c-5.651 18.09-8.697 37.34-8.697 57.3 0 2.25.039 4.5.116 6.74-61.929-16.68-120.628-41.24-174.955-72.53 1.62-1.52 3.221-3.06 4.8-4.64 14.126-14.13 25.591-29.91 34.394-46.72a667.86 667.86 0 0 0 144.342 59.85ZM471.19 1406.19a675.794 675.794 0 0 0 170.623 170.62c-6.109 12.84-14.478 24.87-25.107 35.5a128.746 128.746 0 0 1-16.186 13.73 740.262 740.262 0 0 1-178.559-178.56 129.544 129.544 0 0 1 13.726-16.19c10.629-10.63 22.662-18.99 35.503-25.1Zm-34.042-54.55a667.71 667.71 0 0 1-59.844-144.34c-18.097 5.65-37.345 8.7-57.304 8.7-2.255 0-4.501-.04-6.737-.12 16.679 61.93 41.236 120.63 72.53 174.96 1.513-1.62 3.06-3.22 4.639-4.8 14.126-14.13 29.906-25.59 46.716-34.4Z" fill="#BF5E9F"/><path d="M1024 448c-70.692 0-128-57.308-128-128 0-70.692 57.308-128 128-128 70.69 0 128 57.308 128 128 0 70.692-57.31 128-128 128ZM1431.29 616.706c-49.98-49.987-49.98-131.032 0-181.019 49.99-49.987 131.04-49.987 181.02 0 49.99 49.987 49.99 131.032 0 181.019-49.98 49.988-131.03 49.988-181.02 0ZM1599.82 1023.82c0-70.69 57.31-127.998 128-127.998s128 57.308 128 127.998-57.31 128-128 128-128-57.31-128-128ZM1431.29 1431.29c49.99-49.98 131.04-49.98 181.02 0 49.99 49.99 49.99 131.04 0 181.02-49.98 49.99-131.03 49.99-181.02 0-49.98-49.98-49.98-131.03 0-181.02ZM1024 1856c-70.692 0-128-57.31-128-128s57.308-128 128-128c70.69 0 128 57.31 128 128s-57.31 128-128 128ZM435.688 1612.31c-49.988-49.98-49.988-131.03 0-181.02 49.987-49.98 131.032-49.98 181.019 0 49.987 49.99 49.987 131.04 0 181.02-49.987 49.99-131.032 49.99-181.019 0ZM191.822 1023.82c0-70.69 57.308-127.997 128-127.997 70.693 0 128 57.307 128 127.997 0 70.7-57.307 128-128 128-70.692 0-128-57.3-128-128ZM435.688 435.688c49.987-49.988 131.032-49.988 181.019 0 49.987 49.987 49.987 131.032 0 181.019-49.987 49.987-131.032 49.987-181.019 0-49.987-49.987-49.987-131.032 0-181.019Z" fill="#fff"/></svg>