<svg width="2048" height="2048" viewBox="0 0 2048 2048" fill="none" xmlns="http://www.w3.org/2000/svg">
<g clip-path="url(#clip0_5066_8085)">
<rect width="2048" height="2048" fill="url(#paint0_linear_5066_8085)"/>
<path d="M1264.09 517.731C1215.9 383.909 1068.35 314.492 934.524 362.684L813.372 406.313L1271.47 1678.41C1472.21 1606.13 1576.33 1384.8 1504.05 1184.07L1478.63 1113.48C1476.5 1113.77 1474.36 1114.04 1472.22 1114.28C1469.15 1127.31 1457.46 1137 1443.5 1137C1429.7 1137 1418.11 1127.52 1414.89 1114.71C1403.45 1113.6 1392.22 1111.78 1381.24 1109.29C1375.83 1115.83 1367.65 1120 1358.5 1120C1342.6 1120 1329.64 1107.42 1329.02 1091.68C1318.86 1087.05 1309.03 1081.8 1299.58 1076C1294.44 1080.37 1287.78 1083 1280.5 1083C1264.21 1083 1251 1069.79 1251 1053.5C1251 1048.93 1252.04 1044.61 1253.89 1040.75C1246.35 1033.54 1239.22 1025.9 1232.55 1017.86C1229.13 1019.24 1225.41 1020 1221.5 1020C1205.21 1020 1192 1006.79 1192 990.5C1192 982.402 1195.26 975.066 1200.55 969.735C1196.53 962.026 1192.88 954.1 1189.6 945.98C1189.24 945.993 1188.87 946 1188.5 946C1172.21 946 1159 932.792 1159 916.5C1159 905.503 1165.02 895.912 1173.94 890.838C1171.89 878.905 1170.61 866.705 1170.17 854.294C1161.12 849.256 1155 839.593 1155 828.5C1155 816.117 1162.63 805.517 1173.44 801.142C1174.59 794.006 1176.01 786.964 1177.7 780.025C1168.91 774.918 1163 765.399 1163 754.5C1163 738.208 1176.21 725 1192.5 725C1194.18 725 1195.84 725.141 1197.44 725.412C1200.83 718.49 1204.5 711.732 1208.44 705.156C1203.22 699.834 1200 692.543 1200 684.5C1200 668.208 1213.21 655 1229.5 655C1234.62 655 1239.43 656.304 1243.63 658.597C1245.49 656.614 1247.39 654.659 1249.31 652.733C1245.36 647.715 1243 641.383 1243 634.5C1243 618.208 1256.21 605 1272.5 605C1281.66 605 1289.84 609.172 1295.25 615.718C1296.36 615.004 1297.48 614.298 1298.61 613.599L1264.09 517.731Z" fill="#8D8D8D"/>
<path d="M813.371 406.312L692.219 449.941C558.398 498.133 488.981 645.683 537.172 779.504L777.131 1445.84C849.417 1646.57 1070.74 1750.7 1271.47 1678.41L813.371 406.312Z" fill="#C4C4C4"/>
<path d="M957.81 586.968C954.196 576.931 943.13 571.725 933.093 575.339L828.902 612.86C818.866 616.474 813.659 627.541 817.274 637.577L930.709 952.573C934.323 962.61 945.389 967.816 955.426 964.202L1059.62 926.681C1069.65 923.067 1074.86 912 1071.25 901.964L957.81 586.968Z" fill="#424242"/>
</g>
<defs>
<linearGradient id="paint0_linear_5066_8085" x1="2048" y1="0" x2="0" y2="2048" gradientUnits="userSpaceOnUse">
<stop stop-color="#71AFE5"/>
<stop offset="1" stop-color="#78ECF2"/>
<stop offset="1" stop-color="#78ECF2"/>
</linearGradient>
<clipPath id="clip0_5066_8085">
<rect width="2048" height="2048" fill="white"/>
</clipPath>
</defs>
</svg>
