<svg width="2048" height="2048" viewBox="0 0 2048 2048" fill="none" xmlns="http://www.w3.org/2000/svg">
<g clip-path="url(#clip0_4841_8105)">
<rect y="2048" width="2048" height="2048" transform="rotate(-90 0 2048)" fill="url(#paint0_angular_4841_8105)"/>
<rect width="2048" height="2048" fill="url(#paint1_linear_4841_8105)"/>
<path d="M700.836 1393.4C641.27 1393.4 595.802 1376.84 564.433 1343.7C533.416 1310.57 517.908 1263.52 517.908 1202.54C517.908 1172.23 522.666 1145.27 532.182 1121.65C541.699 1097.68 554.74 1077.59 571.306 1061.38C587.872 1044.82 607.61 1032.3 630.52 1023.84C653.43 1015.38 678.279 1011.15 705.066 1011.15C720.574 1011.15 734.673 1012.39 747.362 1014.86C760.05 1016.97 771.153 1019.61 780.669 1022.79C790.186 1025.61 798.116 1028.6 804.461 1031.77C810.805 1034.95 815.387 1037.41 818.207 1039.18L794.415 1105.79C783.137 1099.8 769.919 1094.69 754.763 1090.46C739.96 1086.23 723.041 1084.11 704.008 1084.11C691.32 1084.11 678.807 1086.23 666.471 1090.46C654.487 1094.69 643.737 1101.56 634.221 1111.08C625.057 1120.24 617.655 1132.23 612.015 1147.03C606.376 1161.83 603.556 1179.81 603.556 1200.96C603.556 1217.87 605.319 1233.74 608.843 1248.54C612.72 1262.99 618.712 1275.5 626.819 1286.08C635.278 1296.65 646.204 1305.11 659.598 1311.45C672.992 1317.45 689.205 1320.44 708.238 1320.44C720.222 1320.44 730.972 1319.74 740.488 1318.33C750.005 1316.92 758.464 1315.33 765.866 1313.57C773.268 1311.45 779.788 1309.16 785.428 1306.7C791.067 1304.23 796.178 1301.94 800.76 1299.82L823.494 1365.91C811.862 1372.96 795.473 1379.3 774.325 1384.94C753.177 1390.58 728.681 1393.4 700.836 1393.4ZM982.334 1391.29C959.424 1390.93 940.743 1388.47 926.292 1383.89C912.193 1379.3 900.915 1372.96 892.455 1364.85C884.349 1356.39 878.709 1346.35 875.537 1334.72C872.717 1322.73 871.308 1309.34 871.308 1294.54V988.421L950.083 975.732V1278.67C950.083 1285.72 950.612 1292.07 951.669 1297.71C952.727 1303.35 954.665 1308.11 957.485 1311.98C960.657 1315.86 965.063 1319.03 970.702 1321.5C976.342 1323.97 983.92 1325.55 993.436 1326.26L982.334 1391.29ZM1117.37 1386H1038.59V1107.91H1117.37V1386ZM1124.77 1027.54C1124.77 1042 1120.01 1053.45 1110.49 1061.91C1101.33 1070.02 1090.4 1074.07 1077.71 1074.07C1065.02 1074.07 1053.92 1070.02 1044.41 1061.91C1035.24 1053.45 1030.66 1042 1030.66 1027.54C1030.66 1013.09 1035.24 1001.81 1044.41 993.708C1053.92 985.249 1065.02 981.019 1077.71 981.019C1090.4 981.019 1101.33 985.249 1110.49 993.708C1120.01 1001.81 1124.77 1013.09 1124.77 1027.54ZM1178.2 1246.95C1178.2 1226.86 1181.37 1208.01 1187.72 1190.38C1194.41 1172.41 1203.93 1156.9 1216.26 1143.86C1228.6 1130.46 1243.58 1119.89 1261.2 1112.14C1278.83 1104.38 1298.92 1100.5 1321.48 1100.5C1336.28 1100.5 1349.85 1101.91 1362.18 1104.73C1374.52 1107.2 1386.51 1110.9 1398.14 1115.84L1381.75 1178.75C1374.34 1175.93 1366.24 1173.46 1357.43 1171.35C1348.62 1169.23 1338.75 1168.18 1327.82 1168.18C1304.56 1168.18 1287.11 1175.4 1275.48 1189.85C1264.2 1204.3 1258.56 1223.34 1258.56 1246.95C1258.56 1271.98 1263.85 1291.36 1274.42 1305.11C1285.35 1318.86 1304.2 1325.73 1330.99 1325.73C1340.51 1325.73 1350.73 1324.85 1361.66 1323.09C1372.58 1321.32 1382.63 1318.5 1391.79 1314.63L1402.89 1379.13C1393.73 1383 1382.28 1386.35 1368.53 1389.17C1354.78 1391.99 1339.63 1393.4 1323.06 1393.4C1297.68 1393.4 1275.83 1389.7 1257.5 1382.3C1239.18 1374.54 1224.02 1364.15 1212.04 1351.11C1200.4 1338.06 1191.77 1322.73 1186.13 1305.11C1180.84 1287.13 1178.2 1267.75 1178.2 1246.95ZM1534.54 1208.36C1542.29 1199.9 1550.22 1191.09 1558.33 1181.92C1566.79 1172.76 1574.9 1163.77 1582.65 1154.96C1590.41 1145.8 1597.63 1137.16 1604.33 1129.05C1611.38 1120.95 1617.37 1113.9 1622.3 1107.91H1715.88C1697.2 1129.41 1678.87 1150.03 1660.9 1169.76C1643.27 1189.15 1623.89 1209.24 1602.74 1230.03C1613.32 1239.55 1624.24 1251.01 1635.52 1264.4C1646.8 1277.44 1657.73 1291.01 1668.3 1305.11C1678.87 1319.21 1688.57 1333.31 1697.38 1347.41C1706.19 1361.5 1713.59 1374.37 1719.58 1386H1629.18C1623.54 1376.84 1617.02 1366.79 1609.61 1355.86C1602.57 1344.59 1594.99 1333.48 1586.88 1322.56C1578.77 1311.28 1570.14 1300.53 1560.97 1290.31C1552.16 1280.08 1543.35 1271.45 1534.54 1264.4V1386H1455.76V988.421L1534.54 975.732V1208.36ZM1841.77 1329.43C1856.22 1329.43 1866.44 1328.02 1872.43 1325.2C1878.42 1322.38 1881.42 1316.92 1881.42 1308.81C1881.42 1302.47 1877.54 1297 1869.79 1292.42C1862.03 1287.49 1850.22 1282.02 1834.36 1276.03C1822.03 1271.45 1810.75 1266.69 1800.53 1261.76C1790.66 1256.82 1782.2 1251.01 1775.15 1244.31C1768.1 1237.26 1762.64 1228.98 1758.76 1219.46C1754.88 1209.94 1752.94 1198.49 1752.94 1185.1C1752.94 1159.01 1762.64 1138.39 1782.02 1123.24C1801.41 1108.08 1828.02 1100.5 1861.86 1100.5C1878.77 1100.5 1894.99 1102.09 1910.5 1105.26C1926 1108.08 1938.34 1111.25 1947.5 1114.78L1933.76 1176.11C1924.59 1172.94 1914.55 1170.12 1903.62 1167.65C1893.05 1165.18 1881.07 1163.95 1867.67 1163.95C1843 1163.95 1830.66 1170.82 1830.66 1184.57C1830.66 1187.74 1831.19 1190.56 1832.25 1193.03C1833.31 1195.49 1835.42 1197.96 1838.59 1200.43C1841.77 1202.54 1846 1205.01 1851.28 1207.83C1856.92 1210.3 1863.97 1213.12 1872.43 1216.29C1889.7 1222.63 1903.98 1228.98 1915.25 1235.32C1926.53 1241.31 1935.34 1248.01 1941.69 1255.41C1948.39 1262.46 1952.97 1270.39 1955.44 1279.2C1958.25 1288.02 1959.66 1298.24 1959.66 1309.87C1959.66 1337.36 1949.27 1358.16 1928.47 1372.25C1908.03 1386.35 1878.95 1393.4 1841.24 1393.4C1816.56 1393.4 1795.95 1391.29 1779.38 1387.06C1763.17 1382.83 1751.89 1379.3 1745.54 1376.48L1758.76 1312.51C1772.15 1317.8 1785.9 1322.03 1800 1325.2C1814.1 1328.02 1828.02 1329.43 1841.77 1329.43Z" fill="#4A4A4A"/>
<g filter="url(#filter0_d_4841_8105)">
<path d="M1222 884C1222 822.016 1209.79 760.639 1186.07 703.373C1162.35 646.108 1127.58 594.075 1083.75 550.246C1039.93 506.416 987.892 471.649 930.627 447.929C873.361 424.209 811.984 412 750 412C688.016 412 626.639 424.209 569.374 447.929C512.108 471.649 460.075 506.416 416.246 550.246C372.417 594.075 337.649 646.108 313.929 703.373C290.209 760.639 278 822.016 278 884L278 2048.22L419.6 2048.22L419.6 884C419.6 840.611 428.146 797.647 444.75 757.561C461.355 717.475 485.692 681.052 516.372 650.372C547.053 619.691 583.476 595.354 623.562 578.75C663.648 562.146 706.611 553.6 750 553.6C793.389 553.6 836.353 562.146 876.439 578.75C916.525 595.354 952.948 619.691 983.628 650.372C1014.31 681.052 1038.65 717.475 1055.25 757.561C1071.85 797.647 1080.4 840.611 1080.4 884L1222 884Z" fill="#F27878"/>
<path fill-rule="evenodd" clip-rule="evenodd" d="M399.937 567.396C379.906 589.544 362.047 613.515 346.582 638.976L451.009 743.403C463.884 716.024 480.453 690.554 500.244 667.703L399.937 567.396ZM566.633 609.157C584.528 597.217 603.59 587.025 623.562 578.753C632.62 575.001 641.825 571.661 651.148 568.737L542.48 460.069C515.204 473.421 489.305 489.363 465.134 507.658L566.633 609.157ZM633.86 426.515L761.136 553.791C800.726 555.126 839.786 563.571 876.439 578.753C909.946 592.632 940.893 611.914 968.067 635.787L744.317 412.037C706.983 412.487 669.908 417.363 633.86 426.515ZM890.665 433.451L1200.55 743.338C1196.33 729.83 1191.51 716.495 1186.07 703.376C1162.35 646.111 1127.58 594.078 1083.75 550.249C1039.93 506.419 987.892 471.652 930.627 447.932C917.508 442.498 904.173 437.668 890.665 433.451ZM1216.28 884.003L998.216 665.936C1022.09 693.11 1041.37 724.057 1055.25 757.564C1070.43 794.217 1078.88 833.277 1080.21 872.867L1091.35 884.003L1216.28 884.003ZM422.559 839.888L306.139 723.468C294.355 756.05 286.208 789.793 281.819 824.083L419.6 961.864L419.6 884.003C419.6 869.216 420.593 854.479 422.559 839.888ZM419.6 1086.8L278 945.199L278 1070.13L419.6 1211.73L419.6 1086.8ZM419.6 1336.67L278 1195.07L278 1320L419.6 1461.6L419.6 1336.67ZM419.6 1586.54L278 1444.94L278 1569.87L419.6 1711.47L419.6 1586.54ZM419.6 1836.41L278 1694.81L278 1819.74L419.6 1961.34L419.6 1836.41ZM381.551 2048.23L278 1944.68L278 2048.23L381.551 2048.23Z" fill="white"/>
</g>
</g>
<defs>
<filter id="filter0_d_4841_8105" x="270.622" y="404.622" width="973.51" height="1665.74" filterUnits="userSpaceOnUse" color-interpolation-filters="sRGB">
<feFlood flood-opacity="0" result="BackgroundImageFix"/>
<feColorMatrix in="SourceAlpha" type="matrix" values="0 0 0 0 0 0 0 0 0 0 0 0 0 0 0 0 0 0 127 0" result="hardAlpha"/>
<feOffset dx="7.37756" dy="7.37756"/>
<feGaussianBlur stdDeviation="7.37756"/>
<feColorMatrix type="matrix" values="0 0 0 0 0 0 0 0 0 0 0 0 0 0 0 0 0 0 0.25 0"/>
<feBlend mode="normal" in2="BackgroundImageFix" result="effect1_dropShadow_4841_8105"/>
<feBlend mode="normal" in="SourceGraphic" in2="effect1_dropShadow_4841_8105" result="shape"/>
</filter>
<radialGradient id="paint0_angular_4841_8105" cx="0" cy="0" r="1" gradientUnits="userSpaceOnUse" gradientTransform="translate(1024 3072) rotate(90) scale(1024)">
<stop stop-color="#F27878"/>
<stop offset="0.249993" stop-color="#EC8282" stop-opacity="0.868056"/>
<stop offset="0.250005" stop-color="#F2D478"/>
<stop offset="0.500138" stop-color="#F2D478"/>
<stop offset="0.500309" stop-color="#6576CC"/>
<stop offset="0.750062" stop-color="#6576CC"/>
<stop offset="0.750162" stop-color="#60B358"/>
<stop offset="1" stop-color="#60B358"/>
</radialGradient>
<linearGradient id="paint1_linear_4841_8105" x1="2048" y1="0" x2="0" y2="2048" gradientUnits="userSpaceOnUse">
<stop stop-color="#65CC76"/>
<stop offset="1" stop-color="#68D49E"/>
</linearGradient>
<clipPath id="clip0_4841_8105">
<rect width="2048" height="2048" fill="white"/>
</clipPath>
</defs>
</svg>
