<svg width="2048" height="2048" viewBox="0 0 2048 2048" fill="none" xmlns="http://www.w3.org/2000/svg">
<rect width="2048" height="2048" fill="url(#paint0_linear_4845_8005)"/>
<path d="M618.728 490.6C573.661 490.6 539.261 478.067 515.528 453C492.061 427.933 480.328 392.333 480.328 346.2C480.328 323.267 483.928 302.867 491.128 285C498.328 266.867 508.195 251.667 520.728 239.4C533.261 226.867 548.195 217.4 565.528 211C582.861 204.6 601.661 201.4 621.928 201.4C633.661 201.4 644.328 202.333 653.928 204.2C663.528 205.8 671.928 207.8 679.128 210.2C686.328 212.333 692.328 214.6 697.128 217C701.928 219.4 705.395 221.267 707.528 222.6L689.528 273C680.995 268.467 670.995 264.6 659.528 261.4C648.328 258.2 635.528 256.6 621.128 256.6C611.528 256.6 602.061 258.2 592.728 261.4C583.661 264.6 575.528 269.8 568.328 277C561.395 283.933 555.795 293 551.528 304.2C547.261 315.4 545.128 329 545.128 345C545.128 357.8 546.461 369.8 549.128 381C552.061 391.933 556.595 401.4 562.728 409.4C569.128 417.4 577.395 423.8 587.528 428.6C597.661 433.133 609.928 435.4 624.328 435.4C633.395 435.4 641.528 434.867 648.728 433.8C655.928 432.733 662.328 431.533 667.928 430.2C673.528 428.6 678.461 426.867 682.728 425C686.995 423.133 690.861 421.4 694.328 419.8L711.528 469.8C702.728 475.133 690.328 479.933 674.328 484.2C658.328 488.467 639.795 490.6 618.728 490.6ZM831.703 489C814.37 488.733 800.236 486.867 789.303 483.4C778.636 479.933 770.103 475.133 763.703 469C757.57 462.6 753.303 455 750.903 446.2C748.77 437.133 747.703 427 747.703 415.8V184.2L807.303 174.6V403.8C807.303 409.133 807.703 413.933 808.503 418.2C809.303 422.467 810.77 426.067 812.903 429C815.303 431.933 818.636 434.333 822.903 436.2C827.17 438.067 832.903 439.267 840.103 439.8L831.703 489ZM933.866 485H874.266V274.6H933.866V485ZM939.466 213.8C939.466 224.733 935.866 233.4 928.666 239.8C921.732 245.933 913.466 249 903.866 249C894.266 249 885.866 245.933 878.666 239.8C871.732 233.4 868.266 224.733 868.266 213.8C868.266 202.867 871.732 194.333 878.666 188.2C885.866 181.8 894.266 178.6 903.866 178.6C913.466 178.6 921.732 181.8 928.666 188.2C935.866 194.333 939.466 202.867 939.466 213.8ZM979.891 379.8C979.891 364.6 982.291 350.333 987.091 337C992.157 323.4 999.357 311.667 1008.69 301.8C1018.02 291.667 1029.36 283.667 1042.69 277.8C1056.02 271.933 1071.22 269 1088.29 269C1099.49 269 1109.76 270.067 1119.09 272.2C1128.42 274.067 1137.49 276.867 1146.29 280.6L1133.89 328.2C1128.29 326.067 1122.16 324.2 1115.49 322.6C1108.82 321 1101.36 320.2 1093.09 320.2C1075.49 320.2 1062.29 325.667 1053.49 336.6C1044.96 347.533 1040.69 361.933 1040.69 379.8C1040.69 398.733 1044.69 413.4 1052.69 423.8C1060.96 434.2 1075.22 439.4 1095.49 439.4C1102.69 439.4 1110.42 438.733 1118.69 437.4C1126.96 436.067 1134.56 433.933 1141.49 431L1149.89 479.8C1142.96 482.733 1134.29 485.267 1123.89 487.4C1113.49 489.533 1102.02 490.6 1089.49 490.6C1070.29 490.6 1053.76 487.8 1039.89 482.2C1026.02 476.333 1014.56 468.467 1005.49 458.6C996.691 448.733 990.157 437.133 985.891 423.8C981.891 410.2 979.891 395.533 979.891 379.8ZM1249.49 350.6C1255.36 344.2 1261.36 337.533 1267.49 330.6C1273.89 323.667 1280.02 316.867 1285.89 310.2C1291.76 303.267 1297.22 296.733 1302.29 290.6C1307.62 284.467 1312.16 279.133 1315.89 274.6H1386.69C1372.56 290.867 1358.69 306.467 1345.09 321.4C1331.76 336.067 1317.09 351.267 1301.09 367C1309.09 374.2 1317.36 382.867 1325.89 393C1334.42 402.867 1342.69 413.133 1350.69 423.8C1358.69 434.467 1366.02 445.133 1372.69 455.8C1379.36 466.467 1384.96 476.2 1389.49 485H1321.09C1316.82 478.067 1311.89 470.467 1306.29 462.2C1300.96 453.667 1295.22 445.267 1289.09 437C1282.96 428.467 1276.42 420.333 1269.49 412.6C1262.82 404.867 1256.16 398.333 1249.49 393V485H1189.89V184.2L1249.49 174.6V350.6ZM1481.93 442.2C1492.86 442.2 1500.6 441.133 1505.13 439C1509.66 436.867 1511.93 432.733 1511.93 426.6C1511.93 421.8 1509 417.667 1503.13 414.2C1497.26 410.467 1488.33 406.333 1476.33 401.8C1467 398.333 1458.46 394.733 1450.73 391C1443.26 387.267 1436.86 382.867 1431.53 377.8C1426.2 372.467 1422.06 366.2 1419.13 359C1416.2 351.8 1414.73 343.133 1414.73 333C1414.73 313.267 1422.06 297.667 1436.73 286.2C1451.4 274.733 1471.53 269 1497.13 269C1509.93 269 1522.2 270.2 1533.93 272.6C1545.66 274.733 1555 277.133 1561.93 279.8L1551.53 326.2C1544.6 323.8 1537 321.667 1528.73 319.8C1520.73 317.933 1511.66 317 1501.53 317C1482.86 317 1473.53 322.2 1473.53 332.6C1473.53 335 1473.93 337.133 1474.73 339C1475.53 340.867 1477.13 342.733 1479.53 344.6C1481.93 346.2 1485.13 348.067 1489.13 350.2C1493.4 352.067 1498.73 354.2 1505.13 356.6C1518.2 361.4 1529 366.2 1537.53 371C1546.06 375.533 1552.73 380.6 1557.53 386.2C1562.6 391.533 1566.06 397.533 1567.93 404.2C1570.06 410.867 1571.13 418.6 1571.13 427.4C1571.13 448.2 1563.26 463.933 1547.53 474.6C1532.06 485.267 1510.06 490.6 1481.53 490.6C1462.86 490.6 1447.26 489 1434.73 485.8C1422.46 482.6 1413.93 479.933 1409.13 477.8L1419.13 429.4C1429.26 433.4 1439.66 436.6 1450.33 439C1461 441.133 1471.53 442.2 1481.93 442.2Z" fill="#4A4A4A"/>
<path d="M565.949 774.753C572.835 774.753 578.469 774.231 582.851 773.188C587.442 771.936 591.093 770.371 593.806 768.493C596.519 766.406 598.397 764.007 599.44 761.294C600.483 758.581 601.005 755.556 601.005 752.217C601.005 745.122 597.666 739.28 590.989 734.689C584.312 729.89 572.835 724.777 556.559 719.352C549.464 716.848 542.37 714.031 535.275 710.901C528.18 707.562 521.816 703.493 516.182 698.694C510.548 693.686 505.957 687.739 502.41 680.853C498.863 673.758 497.089 665.203 497.089 655.187C497.089 645.171 498.967 636.198 502.723 628.269C506.479 620.131 511.8 613.245 518.686 607.611C525.572 601.977 533.919 597.699 543.726 594.778C553.533 591.648 564.593 590.083 576.904 590.083C591.511 590.083 604.135 591.648 614.777 594.778C625.419 597.908 634.183 601.351 641.069 605.107L626.984 643.606C620.933 640.476 614.151 637.763 606.639 635.468C599.336 632.964 590.467 631.712 580.034 631.712C568.349 631.712 559.898 633.381 554.681 636.72C549.673 639.85 547.169 644.754 547.169 651.431C547.169 655.396 548.108 658.734 549.986 661.447C551.864 664.16 554.472 666.664 557.811 668.959C561.358 671.046 565.323 673.028 569.705 674.906C574.296 676.575 579.304 678.349 584.729 680.227C595.997 684.4 605.804 688.574 614.151 692.747C622.498 696.712 629.384 701.407 634.809 706.832C640.443 712.257 644.616 718.622 647.329 725.925C650.042 733.228 651.398 742.097 651.398 752.53C651.398 772.771 644.303 788.525 630.114 799.793C615.925 810.852 594.536 816.382 565.949 816.382C556.35 816.382 547.691 815.756 539.97 814.504C532.249 813.461 525.363 812.104 519.312 810.435C513.469 808.766 508.357 806.992 503.975 805.114C499.802 803.236 496.254 801.462 493.333 799.793L507.105 760.981C513.574 764.528 521.503 767.763 530.893 770.684C540.492 773.397 552.177 774.753 565.949 774.753ZM791.319 730.933C791.319 716.535 788.084 705.058 781.616 696.503C775.147 687.739 765.548 683.357 752.82 683.357C748.646 683.357 744.786 683.566 741.239 683.983C737.691 684.192 734.77 684.505 732.475 684.922V769.119C735.396 770.997 739.152 772.562 743.743 773.814C748.542 775.066 753.341 775.692 758.141 775.692C780.259 775.692 791.319 760.772 791.319 730.933ZM838.895 729.681C838.895 742.41 837.33 753.991 834.2 764.424C831.07 774.857 826.479 783.83 820.428 791.342C814.376 798.854 806.864 804.697 797.892 808.87C788.919 813.043 778.59 815.13 766.905 815.13C760.436 815.13 754.385 814.504 748.751 813.252C743.117 812 737.691 810.226 732.475 807.931V869.905H685.838V652.996C690.011 651.744 694.81 650.596 700.236 649.553C705.661 648.301 711.295 647.258 717.138 646.423C723.189 645.588 729.24 644.962 735.292 644.545C741.552 643.919 747.499 643.606 753.133 643.606C766.696 643.606 778.799 645.693 789.441 649.866C800.083 653.831 809.055 659.569 816.359 667.081C823.662 674.384 829.192 683.357 832.948 693.999C836.912 704.641 838.895 716.535 838.895 729.681ZM1028.73 729.368C1028.73 742.305 1026.86 754.199 1023.1 765.05C1019.34 775.692 1013.92 784.873 1006.82 792.594C999.729 800.106 991.174 805.949 981.158 810.122C971.351 814.295 960.291 816.382 947.98 816.382C935.877 816.382 924.818 814.295 914.802 810.122C904.995 805.949 896.544 800.106 889.449 792.594C882.354 784.873 876.825 775.692 872.86 765.05C868.895 754.199 866.913 742.305 866.913 729.368C866.913 716.431 868.895 704.641 872.86 693.999C877.033 683.357 882.667 674.28 889.762 666.768C897.065 659.256 905.621 653.413 915.428 649.24C925.444 645.067 936.295 642.98 947.98 642.98C959.874 642.98 970.725 645.067 980.532 649.24C990.548 653.413 999.103 659.256 1006.2 666.768C1013.29 674.28 1018.82 683.357 1022.79 693.999C1026.75 704.641 1028.73 716.431 1028.73 729.368ZM981.158 729.368C981.158 714.97 978.237 703.702 972.394 695.564C966.76 687.217 958.622 683.044 947.98 683.044C937.338 683.044 929.096 687.217 923.253 695.564C917.41 703.702 914.489 714.97 914.489 729.368C914.489 743.766 917.41 755.243 923.253 763.798C929.096 772.145 937.338 776.318 947.98 776.318C958.622 776.318 966.76 772.145 972.394 763.798C978.237 755.243 981.158 743.766 981.158 729.368ZM1218.86 729.368C1218.86 742.305 1216.98 754.199 1213.22 765.05C1209.47 775.692 1204.04 784.873 1196.95 792.594C1189.85 800.106 1181.3 805.949 1171.28 810.122C1161.47 814.295 1150.41 816.382 1138.1 816.382C1126 816.382 1114.94 814.295 1104.93 810.122C1095.12 805.949 1086.67 800.106 1079.57 792.594C1072.48 784.873 1066.95 775.692 1062.98 765.05C1059.02 754.199 1057.04 742.305 1057.04 729.368C1057.04 716.431 1059.02 704.641 1062.98 693.999C1067.16 683.357 1072.79 674.28 1079.89 666.768C1087.19 659.256 1095.74 653.413 1105.55 649.24C1115.57 645.067 1126.42 642.98 1138.1 642.98C1150 642.98 1160.85 645.067 1170.66 649.24C1180.67 653.413 1189.23 659.256 1196.32 666.768C1203.42 674.28 1208.95 683.357 1212.91 693.999C1216.87 704.641 1218.86 716.431 1218.86 729.368ZM1171.28 729.368C1171.28 714.97 1168.36 703.702 1162.52 695.564C1156.88 687.217 1148.75 683.044 1138.1 683.044C1127.46 683.044 1119.22 687.217 1113.38 695.564C1107.53 703.702 1104.61 714.97 1104.61 729.368C1104.61 743.766 1107.53 755.243 1113.38 763.798C1119.22 772.145 1127.46 776.318 1138.1 776.318C1148.75 776.318 1156.88 772.145 1162.52 763.798C1168.36 755.243 1171.28 743.766 1171.28 729.368ZM1301.62 706.832C1306.21 701.824 1310.91 696.607 1315.71 691.182C1320.71 685.757 1325.51 680.436 1330.1 675.219C1334.69 669.794 1338.97 664.681 1342.94 659.882C1347.11 655.083 1350.66 650.909 1353.58 647.362H1408.98C1397.92 660.091 1387.07 672.298 1376.43 683.983C1365.99 695.46 1354.52 707.354 1342 719.665C1348.26 725.299 1354.73 732.081 1361.4 740.01C1368.08 747.731 1374.55 755.764 1380.81 764.111C1387.07 772.458 1392.81 780.804 1398.03 789.151C1403.24 797.498 1407.62 805.114 1411.17 812H1357.65C1354.31 806.575 1350.45 800.628 1346.07 794.159C1341.89 787.482 1337.41 780.909 1332.61 774.44C1327.81 767.763 1322.7 761.398 1317.27 755.347C1312.05 749.296 1306.84 744.183 1301.62 740.01V812H1254.98V576.624L1301.62 569.112V706.832ZM1483.51 778.509C1492.06 778.509 1498.11 777.674 1501.66 776.005C1505.21 774.336 1506.98 771.101 1506.98 766.302C1506.98 762.546 1504.69 759.312 1500.1 756.599C1495.5 753.678 1488.51 750.443 1479.12 746.896C1471.82 744.183 1465.14 741.366 1459.09 738.445C1453.25 735.524 1448.24 732.081 1444.07 728.116C1439.89 723.943 1436.66 719.039 1434.37 713.405C1432.07 707.771 1430.92 700.989 1430.92 693.06C1430.92 677.619 1436.66 665.412 1448.14 656.439C1459.61 647.466 1475.37 642.98 1495.4 642.98C1505.42 642.98 1515.01 643.919 1524.2 645.797C1533.38 647.466 1540.68 649.344 1546.11 651.431L1537.97 687.739C1532.54 685.861 1526.6 684.192 1520.13 682.731C1513.87 681.27 1506.77 680.54 1498.84 680.54C1484.24 680.54 1476.93 684.609 1476.93 692.747C1476.93 694.625 1477.25 696.294 1477.87 697.755C1478.5 699.216 1479.75 700.676 1481.63 702.137C1483.51 703.389 1486.01 704.85 1489.14 706.519C1492.48 707.98 1496.65 709.649 1501.66 711.527C1511.88 715.283 1520.34 719.039 1527.01 722.795C1533.69 726.342 1538.91 730.307 1542.66 734.689C1546.63 738.862 1549.34 743.557 1550.8 748.774C1552.47 753.991 1553.31 760.042 1553.31 766.928C1553.31 783.204 1547.15 795.515 1534.84 803.862C1522.74 812.209 1505.52 816.382 1483.19 816.382C1468.59 816.382 1456.38 815.13 1446.57 812.626C1436.97 810.122 1430.3 808.035 1426.54 806.366L1434.37 768.493C1442.29 771.623 1450.43 774.127 1458.78 776.005C1467.13 777.674 1475.37 778.509 1483.51 778.509Z" fill="#4A4A4A"/>
<g clip-path="url(#clip0_4845_8005)">
<path d="M872.565 1029.16L785.883 1060.38C690.137 1094.86 640.471 1200.43 674.951 1296.17L846.636 1772.92C898.356 1916.54 1056.71 1991.04 1200.33 1939.32L872.565 1029.16Z" fill="#C4C4C4"/>
<path d="M1195.04 1109.03C1160.56 1013.17 1054.99 963.44 959.246 997.962L872.564 1029.22L1200.33 1940.5C1343.95 1888.72 1418.45 1730.17 1366.73 1586.37L1195.04 1109.03Z" fill="#8D8D8D"/>
<path d="M975.907 1139.42C973.321 1132.24 965.404 1128.51 958.223 1131.1L883.676 1157.94C876.495 1160.53 872.77 1168.45 875.356 1175.63L956.517 1401C959.103 1408.18 967.02 1411.91 974.201 1409.32L1048.75 1382.48C1055.93 1379.89 1059.65 1371.97 1057.07 1364.79L975.907 1139.42Z" fill="#424242"/>
</g>
<defs>
<linearGradient id="paint0_linear_4845_8005" x1="2048" y1="0" x2="0" y2="2048" gradientUnits="userSpaceOnUse">
<stop stop-color="#D9906B"/>
<stop offset="1" stop-color="#CC7665"/>
</linearGradient>
<clipPath id="clip0_4845_8005">
<rect width="719" height="988" fill="white" transform="translate(664 968)"/>
</clipPath>
</defs>
</svg>
