<svg width="2048" height="2048" viewBox="0 0 2048 2048" fill="none" xmlns="http://www.w3.org/2000/svg">
<g clip-path="url(#clip0_4844_8179)">
<rect y="2048" width="2048" height="2048" transform="rotate(-90 0 2048)" fill="url(#paint0_angular_4844_8179)"/>
<g clip-path="url(#clip1_4844_8179)">
<rect width="2048" height="2048" fill="url(#paint1_linear_4844_8179)"/>
<path d="M487.836 682.402C428.27 682.402 382.802 665.836 351.433 632.704C320.416 599.573 304.908 552.519 304.908 491.543C304.908 461.231 309.666 434.267 319.182 410.652C328.699 386.685 341.74 366.594 358.306 350.381C374.872 333.815 394.61 321.303 417.52 312.843C440.43 304.384 465.279 300.155 492.066 300.155C507.574 300.155 521.673 301.388 534.362 303.856C547.05 305.97 558.153 308.614 567.669 311.786C577.186 314.606 585.116 317.602 591.461 320.774C597.805 323.946 602.387 326.413 605.207 328.176L581.415 394.791C570.137 388.799 556.919 383.689 541.763 379.459C526.96 375.23 510.041 373.115 491.008 373.115C478.32 373.115 465.807 375.23 453.471 379.459C441.487 383.689 430.737 390.562 421.221 400.078C412.057 409.242 404.655 421.226 399.015 436.03C393.376 450.833 390.556 468.809 390.556 489.956C390.556 506.875 392.319 522.736 395.843 537.539C399.72 551.99 405.712 564.503 413.819 575.077C422.278 585.65 433.204 594.11 446.598 600.454C459.992 606.446 476.205 609.442 495.238 609.442C507.222 609.442 517.972 608.737 527.488 607.327C537.005 605.917 545.464 604.331 552.866 602.569C560.268 600.454 566.788 598.163 572.428 595.696C578.067 593.228 583.178 590.937 587.76 588.823L610.494 654.91C598.862 661.959 582.473 668.303 561.325 673.943C540.177 679.582 515.681 682.402 487.836 682.402ZM769.334 680.287C746.424 679.934 727.743 677.467 713.292 672.885C699.193 668.303 687.915 661.959 679.455 653.852C671.349 645.393 665.709 635.348 662.537 623.717C659.717 611.733 658.308 598.339 658.308 583.536V277.421L737.083 264.732V567.675C737.083 574.724 737.612 581.068 738.669 586.708C739.727 592.347 741.665 597.106 744.485 600.983C747.657 604.86 752.063 608.032 757.702 610.499C763.342 612.966 770.92 614.552 780.436 615.257L769.334 680.287ZM904.366 675H825.59V396.906H904.366V675ZM911.768 316.544C911.768 330.995 907.009 342.45 897.493 350.91C888.329 359.016 877.402 363.07 864.714 363.07C852.025 363.07 840.922 359.016 831.406 350.91C822.242 342.45 817.66 330.995 817.66 316.544C817.66 302.093 822.242 290.814 831.406 282.708C840.922 274.249 852.025 270.019 864.714 270.019C877.402 270.019 888.329 274.249 897.493 282.708C907.009 290.814 911.768 302.093 911.768 316.544ZM965.199 535.953C965.199 515.863 968.371 497.006 974.715 479.383C981.412 461.407 990.929 445.899 1003.26 432.857C1015.6 419.464 1030.58 408.89 1048.2 401.136C1065.83 393.381 1085.92 389.504 1108.48 389.504C1123.28 389.504 1136.85 390.914 1149.18 393.734C1161.52 396.201 1173.51 399.902 1185.14 404.836L1168.75 467.751C1161.34 464.932 1153.24 462.464 1144.43 460.35C1135.62 458.235 1125.75 457.177 1114.82 457.177C1091.56 457.177 1074.11 464.403 1062.48 478.854C1051.2 493.305 1045.56 512.338 1045.56 535.953C1045.56 560.978 1050.85 580.363 1061.42 594.11C1072.35 607.856 1091.2 614.729 1117.99 614.729C1127.51 614.729 1137.73 613.848 1148.66 612.085C1159.58 610.323 1169.63 607.503 1178.79 603.626L1189.89 668.127C1180.73 672.004 1169.28 675.352 1155.53 678.172C1141.78 680.992 1126.63 682.402 1110.06 682.402C1084.68 682.402 1062.83 678.701 1044.5 671.299C1026.18 663.545 1011.02 653.147 999.035 640.106C987.404 627.065 978.769 611.733 973.129 594.11C967.842 576.134 965.199 556.748 965.199 535.953ZM1321.54 497.358C1329.29 488.899 1337.22 480.088 1345.33 470.923C1353.79 461.759 1361.9 452.772 1369.65 443.96C1377.41 434.796 1384.63 426.161 1391.33 418.054C1398.38 409.947 1404.37 402.898 1409.3 396.906H1502.88C1484.2 418.406 1465.87 439.025 1447.9 458.763C1430.27 478.149 1410.89 498.239 1389.74 519.035C1400.32 528.551 1411.24 540.006 1422.52 553.4C1433.8 566.441 1444.73 580.011 1455.3 594.11C1465.87 608.208 1475.57 622.307 1484.38 636.405C1493.19 650.504 1500.59 663.369 1506.58 675H1416.18C1410.54 665.836 1404.02 655.791 1396.61 644.864C1389.57 633.586 1381.99 622.483 1373.88 611.557C1365.77 600.278 1357.14 589.528 1347.97 579.306C1339.16 569.085 1330.35 560.449 1321.54 553.4V675H1242.76V277.421L1321.54 264.732V497.358ZM1628.77 618.43C1643.22 618.43 1653.44 617.02 1659.43 614.2C1665.42 611.38 1668.42 605.917 1668.42 597.81C1668.42 591.466 1664.54 586.003 1656.79 581.421C1649.03 576.486 1637.22 571.023 1621.36 565.031C1609.03 560.449 1597.75 555.691 1587.53 550.757C1577.66 545.822 1569.2 540.006 1562.15 533.31C1555.1 526.26 1549.64 517.977 1545.76 508.461C1541.88 498.944 1539.94 487.489 1539.94 474.096C1539.94 448.013 1549.64 427.394 1569.02 412.238C1588.41 397.082 1615.02 389.504 1648.86 389.504C1665.77 389.504 1681.99 391.09 1697.5 394.263C1713 397.082 1725.34 400.254 1734.5 403.779L1720.76 465.108C1711.59 461.936 1701.55 459.116 1690.62 456.649C1680.05 454.181 1668.07 452.948 1654.67 452.948C1630 452.948 1617.66 459.821 1617.66 473.567C1617.66 476.739 1618.19 479.559 1619.25 482.026C1620.31 484.493 1622.42 486.961 1625.59 489.428C1628.77 491.543 1633 494.01 1638.28 496.83C1643.92 499.297 1650.97 502.117 1659.43 505.289C1676.7 511.633 1690.98 517.977 1702.25 524.322C1713.53 530.314 1722.34 537.01 1728.69 544.412C1735.39 551.461 1739.97 559.392 1742.44 568.203C1745.25 577.015 1746.66 587.237 1746.66 598.868C1746.66 626.36 1736.27 647.155 1715.47 661.254C1695.03 675.352 1665.95 682.402 1628.24 682.402C1603.56 682.402 1582.95 680.287 1566.38 676.057C1550.17 671.828 1538.89 668.303 1532.54 665.483L1545.76 601.511C1559.15 606.798 1572.9 611.028 1587 614.2C1601.1 617.02 1615.02 618.43 1628.77 618.43Z" fill="#4A4A4A"/>
<rect x="606" y="976" width="63" height="1302" rx="31.5" fill="#424242"/>
</g>
<path d="M862 928C755.409 928 669 1005.5 669 1005.5V1080.08C669 1080.08 755.409 1002.58 862 1002.58C968.591 1002.58 1055 1080.08 1055 1080.08C1055 1080.08 1141.41 1157.58 1248 1157.58C1354.59 1157.58 1441 1080.08 1441 1080.08V1005.5C1441 1005.5 1354.59 1083 1248 1083C1141.41 1083 1055 1005.5 1055 1005.5C1055 1005.5 968.591 928 862 928Z" fill="#6476CC"/>
<path d="M862 1002C755.409 1002 669 1079.5 669 1079.5V1154.08C669 1154.08 755.409 1076.58 862 1076.58C968.591 1076.58 1055 1154.08 1055 1154.08C1055 1154.08 1141.41 1231.58 1248 1231.58C1354.59 1231.58 1441 1154.08 1441 1154.08V1079.5C1441 1079.5 1354.59 1157 1248 1157C1141.41 1157 1055 1079.5 1055 1079.5C1055 1079.5 968.591 1002 862 1002Z" fill="#D46899"/>
<path d="M862 1076C755.409 1076 669 1153.5 669 1153.5V1228.08C669 1228.08 755.409 1150.58 862 1150.58C968.591 1150.58 1055 1228.08 1055 1228.08C1055 1228.08 1141.41 1305.58 1248 1305.58C1354.59 1305.58 1441 1228.08 1441 1228.08V1153.5C1441 1153.5 1354.59 1231 1248 1231C1141.41 1231 1055 1153.5 1055 1153.5C1055 1153.5 968.591 1076 862 1076Z" fill="white"/>
<path d="M862 1150C755.409 1150 669 1227.5 669 1227.5V1302.08C669 1302.08 755.409 1224.58 862 1224.58C968.591 1224.58 1055 1302.08 1055 1302.08C1055 1302.08 1141.41 1379.58 1248 1379.58C1354.59 1379.58 1441 1302.08 1441 1302.08V1227.5C1441 1227.5 1354.59 1305 1248 1305C1141.41 1305 1055 1227.5 1055 1227.5C1055 1227.5 968.591 1150 862 1150Z" fill="#D46899"/>
<path d="M862 1224C755.409 1224 669 1301.5 669 1301.5V1376.08C669 1376.08 755.409 1298.58 862 1298.58C968.591 1298.58 1055 1376.08 1055 1376.08C1055 1376.08 1141.41 1453.58 1248 1453.58C1354.59 1453.58 1441 1376.08 1441 1376.08V1301.5C1441 1301.5 1354.59 1379 1248 1379C1141.41 1379 1055 1301.5 1055 1301.5C1055 1301.5 968.591 1224 862 1224Z" fill="#6476CC"/>
</g>
<defs>
<radialGradient id="paint0_angular_4844_8179" cx="0" cy="0" r="1" gradientUnits="userSpaceOnUse" gradientTransform="translate(1024 3072) rotate(90) scale(1024)">
<stop stop-color="#F27878"/>
<stop offset="0.249993" stop-color="#EC8282" stop-opacity="0.868056"/>
<stop offset="0.250005" stop-color="#F2D478"/>
<stop offset="0.500138" stop-color="#F2D478"/>
<stop offset="0.500309" stop-color="#6576CC"/>
<stop offset="0.750062" stop-color="#6576CC"/>
<stop offset="0.750162" stop-color="#60B358"/>
<stop offset="1" stop-color="#60B358"/>
</radialGradient>
<linearGradient id="paint1_linear_4844_8179" x1="2048" y1="0" x2="0" y2="2048" gradientUnits="userSpaceOnUse">
<stop stop-color="#71AFE5"/>
<stop offset="1" stop-color="#78ECF2"/>
<stop offset="1" stop-color="#78ECF2"/>
</linearGradient>
<clipPath id="clip0_4844_8179">
<rect width="2048" height="2048" fill="white"/>
</clipPath>
<clipPath id="clip1_4844_8179">
<rect width="2048" height="2048" fill="white"/>
</clipPath>
</defs>
</svg>
