<svg width="2048" height="2048" fill="none" xmlns="http://www.w3.org/2000/svg"><rect width="2048" height="2048" rx="1024" fill="url(#a)"/><g filter="url(#b)"><rect x="525" y="298" width="888.715" height="1335.2" rx="50" fill="#424242"/></g><g filter="url(#c)"><rect x="634.992" y="413.947" width="888.715" height="1335.2" rx="50" fill="#C4C4C4"/></g><path d="M1065.15 1251.77a43.2 43.2 0 0 1 27.16 0l111.89 37.03c46.61 15.42 35.51 84.27-13.58 84.27H966.838c-49.093 0-60.19-68.85-13.583-84.27l111.895-37.03ZM911.019 922.31l45.383-12.899c-12.09-42.537-49.062-71.275-90.641-74.914a70.176 70.176 0 0 0-1.333 3.582c-4.63 13.548-5.218 28.692-.54 43.673 21.725 2.782 40.764 18.156 47.131 40.558Zm55.18 210.67 32.926-33.79-74.703-72.8a86.979 86.979 0 0 0-9.994-8.35l37.576 101.11 14.195 13.83Zm193.371-33.79 32.93 33.79 14.2-13.83 37.57-101.11c-3.44 2.47-6.8 5.24-9.99 8.35l-74.71 72.8Zm42.73-189.779 45.38 12.899c6.37-22.402 25.41-37.776 47.13-40.558 4.68-14.981 4.09-30.125-.54-43.673a74.145 74.145 0 0 0-1.33-3.582c-41.58 3.639-78.55 32.377-90.64 74.914Z" fill="#424242"/><path d="M1109.02 1249.58c29.58 0 56.04-18.4 66.34-46.12l31.34-84.31-14.2 13.83-32.93-33.79 74.71-72.8c3.19-3.11 6.55-5.88 9.99-8.35l49.28-132.591a66.32 66.32 0 0 0 1.26-3.697c-21.72 2.782-40.76 18.156-47.13 40.558l-45.38-12.899c12.09-42.537 49.06-71.275 90.64-74.914-10.27-25.478-35.08-44.474-65.73-44.474H931.489c-30.651 0-55.46 18.996-65.728 44.474 41.579 3.639 78.551 32.377 90.641 74.914l-45.383 12.899c-6.367-22.402-25.406-37.776-47.131-40.558a73.635 73.635 0 0 0 1.263 3.697l49.277 132.591a86.979 86.979 0 0 1 9.994 8.35l74.703 72.8-32.926 33.79-14.195-13.83 31.335 84.31c10.304 27.72 36.761 46.12 66.341 46.12h59.34Z" fill="#424242"/><path d="M1306.46 994.624c-9.49 2.161-20.51 4.668-30.59 7.986-10.38 3.41-21.41 8.12-31.6 15.43l-37.57 101.11 60.5-58.96c5.5-5.36 13.05-9.36 23.39-12.76 7.81-2.57 15.62-4.35 24.47-6.36l.02-.01c3.49-.79 7.14-1.62 11.02-2.56 22.05-5.3 41.99-17.78 56.41-35.57 17.46-21.55 23.99-50.937 23.99-78.674v-14.897c-2.75-40.067-36.06-71.28-76.22-71.28h-36.01c4.63 13.548 5.22 28.692.54 43.673 7.35-.941 15-.442 22.57 1.71 29.98 8.52 47.37 39.726 38.85 69.702-5.77 20.284-21.92 34.842-41.16 39.466-2.65.639-5.55 1.298-8.61 1.994Zm-423.628 7.986c-10.086-3.318-21.1-5.825-30.595-7.986-3.055-.696-5.953-1.355-8.612-1.994-19.236-4.624-35.39-19.182-41.155-39.466-8.52-29.976 8.873-61.182 38.848-69.702a56.245 56.245 0 0 1 22.57-1.71c-4.678-14.981-4.09-30.125.54-43.673h-36.01c-40.191 0-73.557 31.191-76.418 71.28v14.897c0 27.737 6.73 57.124 24.192 78.674 14.415 17.79 34.356 30.27 56.406 35.57 3.88.94 7.534 1.77 11.026 2.56l.013.01h.003c8.846 2.01 16.656 3.79 24.465 6.36 10.342 3.4 17.893 7.4 23.39 12.76l60.509 58.96-37.576-101.11c-10.191-7.31-21.22-12.02-31.596-15.43Z" fill="#424242"/><defs><filter id="b" x="510" y="288" width="928.715" height="1375.2" filterUnits="userSpaceOnUse" color-interpolation-filters="sRGB"><feFlood flood-opacity="0" result="BackgroundImageFix"/><feColorMatrix in="SourceAlpha" values="0 0 0 0 0 0 0 0 0 0 0 0 0 0 0 0 0 0 127 0" result="hardAlpha"/><feOffset dx="5" dy="10"/><feGaussianBlur stdDeviation="10"/><feColorMatrix values="0 0 0 0 0.258824 0 0 0 0 0.258824 0 0 0 0 0.258824 0 0 0 1 0"/><feBlend in2="BackgroundImageFix" result="effect1_dropShadow_31037629"/><feBlend in="SourceGraphic" in2="effect1_dropShadow_31037629" result="shape"/></filter><filter id="c" x="619.992" y="403.947" width="928.715" height="1375.2" filterUnits="userSpaceOnUse" color-interpolation-filters="sRGB"><feFlood flood-opacity="0" result="BackgroundImageFix"/><feColorMatrix in="SourceAlpha" values="0 0 0 0 0 0 0 0 0 0 0 0 0 0 0 0 0 0 127 0" result="hardAlpha"/><feOffset dx="5" dy="10"/><feGaussianBlur stdDeviation="10"/><feColorMatrix values="0 0 0 0 0.258824 0 0 0 0 0.258824 0 0 0 0 0.258824 0 0 0 1 0"/><feBlend in2="BackgroundImageFix" result="effect1_dropShadow_31037629"/><feBlend in="SourceGraphic" in2="effect1_dropShadow_31037629" result="shape"/></filter><linearGradient id="a" x1="0" y1="0" x2="1024" y2="2048" gradientUnits="userSpaceOnUse"><stop stop-color="#78ECF2"/><stop offset="1" stop-color="#71AFE5"/></linearGradient></defs></svg>