<svg width="2048" height="2048" fill="none" xmlns="http://www.w3.org/2000/svg"><g clip-path="url(#a)"><path fill="url(#b)" d="M0 0h2048v2048H0z"/><g filter="url(#c)"><path d="M426.499 27.5c67.646 49.769 103 94.733 103 219.501 0 281.858-86.608 297.713 58.177 704.301 115.829 325.268 155.379 391.178 160.676 383.478" stroke="#000" stroke-width="20" stroke-linecap="round" stroke-linejoin="bevel"/><g filter="url(#d)"><path d="m588.736 958.744-94.085 33.882c-103.924 37.424-157.832 152.014-120.407 255.934l186.349 517.47c56.137 155.88 228.015 236.75 383.9 180.61L588.736 958.744Z" fill="#C4C4C4"/><path d="M938.755 1045.27c-37.424-103.924-152.01-157.832-255.933-120.407l-94.086 33.881 355.757 987.896c155.887-56.14 236.747-228.02 180.607-383.9l-186.345-517.47Z" fill="#8D8D8D"/><g filter="url(#e)"><rect width="116" height="290" rx="15" transform="scale(-1 1) rotate(19.805 -3455.334 -1450.487)" fill="#424242"/></g></g></g><path d="M816.728 493.6c-45.067 0-79.467-12.533-103.2-37.6-23.467-25.067-35.2-60.667-35.2-106.8 0-22.933 3.6-43.333 10.8-61.2 7.2-18.133 17.067-33.333 29.6-45.6 12.533-12.533 27.467-22 44.8-28.4 17.333-6.4 36.133-9.6 56.4-9.6 11.733 0 22.4.933 32 2.8 9.6 1.6 18 3.6 25.2 6 7.2 2.133 13.2 4.4 18 6.8 4.8 2.4 8.267 4.267 10.4 5.6l-18 50.4c-8.533-4.533-18.533-8.4-30-11.6-11.2-3.2-24-4.8-38.4-4.8-9.6 0-19.067 1.6-28.4 4.8-9.067 3.2-17.2 8.4-24.4 15.6-6.933 6.933-12.533 16-16.8 27.2-4.267 11.2-6.4 24.8-6.4 40.8 0 12.8 1.333 24.8 4 36 2.933 10.933 7.467 20.4 13.6 28.4 6.4 8 14.667 14.4 24.8 19.2 10.133 4.533 22.4 6.8 36.8 6.8 9.067 0 17.2-.533 24.4-1.6 7.2-1.067 13.6-2.267 19.2-3.6 5.6-1.6 10.533-3.333 14.8-5.2 4.267-1.867 8.133-3.6 11.6-5.2l17.2 50c-8.8 5.333-21.2 10.133-37.2 14.4-16 4.267-34.533 6.4-55.6 6.4ZM1029.7 492c-17.33-.267-31.464-2.133-42.397-5.6-10.667-3.467-19.2-8.267-25.6-14.4-6.133-6.4-10.4-14-12.8-22.8-2.133-9.067-3.2-19.2-3.2-30.4V187.2l59.597-9.6v229.2c0 5.333.4 10.133 1.2 14.4.8 4.267 2.27 7.867 4.4 10.8 2.4 2.933 5.74 5.333 10 7.2 4.27 1.867 10 3.067 17.2 3.6l-8.4 49.2Zm102.17-4h-59.6V277.6h59.6V488Zm5.6-271.2c0 10.933-3.6 19.6-10.8 26-6.94 6.133-15.2 9.2-24.8 9.2-9.6 0-18-3.067-25.2-9.2-6.94-6.4-10.4-15.067-10.4-26s3.46-19.467 10.4-25.6c7.2-6.4 15.6-9.6 25.2-9.6s17.86 3.2 24.8 9.6c7.2 6.133 10.8 14.667 10.8 25.6Zm40.42 166c0-15.2 2.4-29.467 7.2-42.8 5.07-13.6 12.27-25.333 21.6-35.2 9.33-10.133 20.67-18.133 34-24 13.33-5.867 28.53-8.8 45.6-8.8 11.2 0 21.47 1.067 30.8 3.2 9.33 1.867 18.4 4.667 27.2 8.4l-12.4 47.6c-5.6-2.133-11.73-4-18.4-5.6-6.67-1.6-14.13-2.4-22.4-2.4-17.6 0-30.8 5.467-39.6 16.4-8.53 10.933-12.8 25.333-12.8 43.2 0 18.933 4 33.6 12 44 8.27 10.4 22.53 15.6 42.8 15.6 7.2 0 14.93-.667 23.2-2s15.87-3.467 22.8-6.4l8.4 48.8c-6.93 2.933-15.6 5.467-26 7.6s-21.87 3.2-34.4 3.2c-19.2 0-35.73-2.8-49.6-8.4-13.87-5.867-25.33-13.733-34.4-23.6-8.8-9.867-15.33-21.467-19.6-34.8-4-13.6-6-28.267-6-44Zm269.6-29.2c5.87-6.4 11.87-13.067 18-20 6.4-6.933 12.53-13.733 18.4-20.4 5.87-6.933 11.33-13.467 16.4-19.6 5.33-6.133 9.87-11.467 13.6-16h70.8c-14.13 16.267-28 31.867-41.6 46.8-13.33 14.667-28 29.867-44 45.6 8 7.2 16.27 15.867 24.8 26a570.088 570.088 0 0 1 24.8 30.8c8 10.667 15.33 21.333 22 32 6.67 10.667 12.27 20.4 16.8 29.2h-68.4c-4.27-6.933-9.2-14.533-14.8-22.8a382.88 382.88 0 0 0-17.2-25.2 290.514 290.514 0 0 0-19.6-24.4c-6.67-7.733-13.33-14.267-20-19.6v92h-59.6V187.2l59.6-9.6v176Zm232.44 91.6c10.93 0 18.67-1.067 23.2-3.2 4.53-2.133 6.8-6.267 6.8-12.4 0-4.8-2.93-8.933-8.8-12.4-5.87-3.733-14.8-7.867-26.8-12.4-9.33-3.467-17.87-7.067-25.6-10.8-7.47-3.733-13.87-8.133-19.2-13.2-5.33-5.333-9.47-11.6-12.4-18.8-2.93-7.2-4.4-15.867-4.4-26 0-19.733 7.33-35.333 22-46.8 14.67-11.467 34.8-17.2 60.4-17.2 12.8 0 25.07 1.2 36.8 3.6 11.73 2.133 21.07 4.533 28 7.2l-10.4 46.4c-6.93-2.4-14.53-4.533-22.8-6.4-8-1.867-17.07-2.8-27.2-2.8-18.67 0-28 5.2-28 15.6 0 2.4.4 4.533 1.2 6.4.8 1.867 2.4 3.733 4.8 5.6 2.4 1.6 5.6 3.467 9.6 5.6 4.27 1.867 9.6 4 16 6.4 13.07 4.8 23.87 9.6 32.4 14.4 8.53 4.533 15.2 9.6 20 15.2 5.07 5.333 8.53 11.333 10.4 18 2.13 6.667 3.2 14.4 3.2 23.2 0 20.8-7.87 36.533-23.6 47.2-15.47 10.667-37.47 16-66 16-18.67 0-34.27-1.6-46.8-4.8-12.27-3.2-20.8-5.867-25.6-8l10-48.4c10.13 4 20.53 7.2 31.2 9.6 10.67 2.133 21.2 3.2 31.6 3.2ZM743.877 572.538c4.008 7.348 8.573 16.477 13.694 27.388 5.344 10.688 10.8 22.378 16.366 35.07a1237.422 1237.422 0 0 1 17.034 38.41c5.567 13.137 10.8 25.495 15.698 37.074a80226.189 80226.189 0 0 1 15.698-37.074 2202.757 2202.757 0 0 1 16.7-38.41c5.79-12.692 11.245-24.382 16.366-35.07 5.344-10.911 10.02-20.04 14.028-27.388h47.428c2.227 15.364 4.231 32.621 6.012 51.77 2.004 18.927 3.674 38.744 5.01 59.452a2781.409 2781.409 0 0 1 4.008 61.79c1.336 20.708 2.45 40.191 3.34 58.45h-50.768c-.668-22.489-1.558-46.983-2.672-73.48a1983.757 1983.757 0 0 0-5.01-80.16c-4.008 9.352-8.461 19.706-13.36 31.062l-14.696 34.068a3016.063 3016.063 0 0 1-13.694 32.732 3339.456 3339.456 0 0 0-11.356 26.386h-36.406a3266.092 3266.092 0 0 0-11.356-26.386 7166.935 7166.935 0 0 0-14.028-32.732 2217.361 2217.361 0 0 0-14.362-34.068 14747.73 14747.73 0 0 1-13.36-31.062 1987.416 1987.416 0 0 0-5.01 80.16c-1.113 26.497-2.004 50.991-2.672 73.48h-50.768c.891-18.259 1.893-37.742 3.006-58.45 1.336-20.708 2.672-41.305 4.008-61.79a3198.732 3198.732 0 0 1 5.01-59.452c2.004-19.149 4.12-36.406 6.346-51.77h49.766ZM1028.6 804h-49.767V628.316h49.767V804Zm4.68-226.452c0 9.129-3.01 16.366-9.02 21.71-5.79 5.121-12.69 7.682-20.71 7.682-8.017 0-15.031-2.561-21.043-7.682-5.789-5.344-8.684-12.581-8.684-21.71 0-9.129 2.895-16.255 8.684-21.376 6.012-5.344 13.026-8.016 21.043-8.016 8.02 0 14.92 2.672 20.71 8.016 6.01 5.121 9.02 12.247 9.02 21.376Zm42.1 56.78c8.46-2.449 19.37-4.676 32.73-6.68 13.36-2.227 27.39-3.34 42.09-3.34 14.91 0 27.27 2.004 37.07 6.012 10.02 3.785 17.92 9.241 23.71 16.366 5.79 7.125 9.91 15.587 12.36 25.384 2.45 9.797 3.68 20.708 3.68 32.732V804h-49.77v-93.186c0-16.032-2.12-27.388-6.35-34.068-4.23-6.68-12.13-10.02-23.71-10.02-3.56 0-7.35.223-11.36.668-4 .223-7.57.557-10.68 1.002V804h-49.77V634.328Zm346.65 163.66c-8.46 2.449-19.37 4.676-32.73 6.68-13.36 2.227-27.39 3.34-42.09 3.34-14.92 0-27.39-2.004-37.41-6.012-9.79-4.008-17.59-9.575-23.38-16.7-5.79-7.348-9.91-16.032-12.35-26.052-2.45-10.02-3.68-21.042-3.68-33.066v-97.862h49.77v91.85c0 16.032 2.11 27.611 6.34 34.736 4.23 7.125 12.14 10.688 23.72 10.688 3.56 0 7.35-.111 11.35-.334 4.01-.445 7.57-.891 10.69-1.336V628.316h49.77v169.672Zm45.04-213.426 49.77-8.016v51.77h59.79v41.416h-59.79v61.79c0 10.465 1.78 18.815 5.34 25.05 3.79 6.235 11.25 9.352 22.38 9.352 5.35 0 10.8-.445 16.37-1.336 5.79-1.113 11.02-2.561 15.7-4.342l7.01 38.744c-6.01 2.449-12.69 4.565-20.04 6.346-7.35 1.781-16.37 2.672-27.05 2.672-13.59 0-24.83-1.781-33.74-5.344-8.91-3.785-16.03-8.907-21.37-15.364-5.35-6.68-9.13-14.696-11.36-24.048-2-9.352-3.01-19.706-3.01-31.062V584.562Zm135.21 132.932c0-15.587 2.34-29.169 7.01-40.748 4.9-11.801 11.25-21.599 19.04-29.392 7.79-7.793 16.7-13.694 26.72-17.702 10.24-4.008 20.71-6.012 31.4-6.012 24.93 0 44.64 7.682 59.11 23.046 14.48 15.141 21.71 37.519 21.71 67.134 0 2.895-.11 6.123-.33 9.686-.22 3.34-.45 6.346-.67 9.018h-112.89c1.11 10.243 5.9 18.37 14.36 24.382 8.46 6.012 19.82 9.018 34.07 9.018 9.13 0 18.04-.779 26.72-2.338 8.91-1.781 16.14-3.897 21.71-6.346l6.68 40.414c-2.67 1.336-6.23 2.672-10.69 4.008-4.45 1.336-9.46 2.449-15.03 3.34-5.34 1.113-11.13 2.004-17.37 2.672-6.23.668-12.47 1.002-18.7 1.002-15.81 0-29.61-2.338-41.42-7.014-11.57-4.676-21.26-11.022-29.05-19.038-7.57-8.239-13.25-17.925-17.04-29.058-3.56-11.133-5.34-23.157-5.34-36.072Zm116.9-19.038c-.22-4.231-1-8.35-2.34-12.358a27.53 27.53 0 0 0-5.68-10.688c-2.45-3.117-5.68-5.678-9.68-7.682-3.79-2.004-8.58-3.006-14.37-3.006-5.56 0-10.35 1.002-14.36 3.006-4.01 1.781-7.35 4.231-10.02 7.348s-4.79 6.791-6.34 11.022a76.76 76.76 0 0 0-3.01 12.358h65.8ZM1247.29 902.6c41.34 0 73.07 7.333 95.2 22 22.14 14.4 33.2 38.133 33.2 71.2 0 33.33-11.2 57.47-33.6 72.4-22.4 14.67-54.4 22-96 22h-19.6v92.8h-62.4V909.8c13.6-2.667 28-4.533 43.2-5.6 15.2-1.067 28.54-1.6 40-1.6Zm4 53.2c-4.53 0-9.06.133-13.6.4-4.26.267-8 .533-11.2.8v80h19.6c21.6 0 37.87-2.93 48.8-8.8 10.94-5.87 16.4-16.8 16.4-32.8 0-7.733-1.46-14.133-4.4-19.2-2.66-5.067-6.66-9.067-12-12-5.06-3.2-11.33-5.333-18.8-6.4-7.46-1.333-15.73-2-24.8-2Zm150.37 123.6c0-18.67 2.8-34.93 8.4-48.8 5.86-14.13 13.46-25.87 22.8-35.2 9.33-9.333 20-16.4 32-21.2 12.26-4.8 24.8-7.2 37.6-7.2 29.86 0 53.46 9.2 70.8 27.6 17.33 18.13 26 44.93 26 80.4 0 3.47-.14 7.33-.4 11.6-.27 4-.54 7.6-.8 10.8h-135.2c1.33 12.27 7.06 22 17.2 29.2 10.13 7.2 23.73 10.8 40.8 10.8 10.93 0 21.6-.93 32-2.8 10.66-2.13 19.33-4.67 26-7.6l8 48.4c-3.2 1.6-7.47 3.2-12.8 4.8-5.34 1.6-11.34 2.93-18 4-6.4 1.33-13.34 2.4-20.8 3.2-7.47.8-14.94 1.2-22.4 1.2-18.94 0-35.47-2.8-49.6-8.4-13.87-5.6-25.47-13.2-34.8-22.8-9.07-9.87-15.87-21.47-20.4-34.8-4.27-13.33-6.4-27.73-6.4-43.2Zm140-22.8c-.27-5.07-1.2-10-2.8-14.8-1.34-4.8-3.6-9.07-6.8-12.8-2.94-3.73-6.8-6.8-11.6-9.2-4.54-2.4-10.27-3.6-17.2-3.6-6.67 0-12.4 1.2-17.2 3.6-4.8 2.13-8.8 5.07-12 8.8-3.2 3.73-5.74 8.13-7.6 13.2-1.6 4.8-2.8 9.73-3.6 14.8h78.8Zm230.39-31.2c-5.33-1.33-11.6-2.67-18.8-4-7.2-1.6-14.93-2.4-23.2-2.4-3.73 0-8.27.4-13.6 1.2-5.07.53-8.93 1.2-11.6 2V1183h-59.6V983.8c10.67-3.733 23.2-7.2 37.6-10.4 14.67-3.467 30.93-5.2 48.8-5.2 3.2 0 7.07.267 11.6.8 4.53.267 9.07.8 13.6 1.6 4.53.533 9.07 1.333 13.6 2.4 4.53.8 8.4 1.867 11.6 3.2l-10 49.2Z" fill="#4A4A4A"/></g><defs><filter id="c" x="346.359" y="1.5" width="844.571" height="2094.79" filterUnits="userSpaceOnUse" color-interpolation-filters="sRGB"><feFlood flood-opacity="0" result="BackgroundImageFix"/><feColorMatrix in="SourceAlpha" values="0 0 0 0 0 0 0 0 0 0 0 0 0 0 0 0 0 0 127 0" result="hardAlpha"/><feOffset dx="16" dy="16"/><feGaussianBlur stdDeviation="16"/><feColorMatrix values="0 0 0 0 0.3625 0 0 0 0 0.3625 0 0 0 0 0.3625 0 0 0 0.2 0"/><feBlend in2="BackgroundImageFix" result="effect1_dropShadow_25968133"/><feBlend in="SourceGraphic" in2="effect1_dropShadow_25968133" result="shape"/></filter><filter id="d" x="362.359" y="912.979" width="788.571" height="1143.31" filterUnits="userSpaceOnUse" color-interpolation-filters="sRGB"><feFlood flood-opacity="0" result="BackgroundImageFix"/><feBlend in="SourceGraphic" in2="BackgroundImageFix" result="shape"/><feColorMatrix in="SourceAlpha" values="0 0 0 0 0 0 0 0 0 0 0 0 0 0 0 0 0 0 127 0" result="hardAlpha"/><feOffset dx="8" dy="8"/><feGaussianBlur stdDeviation="8"/><feComposite in2="hardAlpha" operator="arithmetic" k2="-1" k3="1"/><feColorMatrix values="0 0 0 0 0.975 0 0 0 0 0.975 0 0 0 0 0.975 0 0 0 0.25 0"/><feBlend in2="shape" result="effect1_innerShadow_25968133"/></filter><filter id="e" x="590.874" y="1089.12" width="203.014" height="311.768" filterUnits="userSpaceOnUse" color-interpolation-filters="sRGB"><feFlood flood-opacity="0" result="BackgroundImageFix"/><feBlend in="SourceGraphic" in2="BackgroundImageFix" result="shape"/><feColorMatrix in="SourceAlpha" values="0 0 0 0 0 0 0 0 0 0 0 0 0 0 0 0 0 0 127 0" result="hardAlpha"/><feOffset dx="4" dy="8"/><feGaussianBlur stdDeviation="8"/><feComposite in2="hardAlpha" operator="arithmetic" k2="-1" k3="1"/><feColorMatrix values="0 0 0 0 0.816667 0 0 0 0 0.816667 0 0 0 0 0.816667 0 0 0 0.2 0"/><feBlend in2="shape" result="effect1_innerShadow_25968133"/></filter><linearGradient id="b" x1="2048" y1="0" x2="0" y2="2048" gradientUnits="userSpaceOnUse"><stop stop-color="#71AFE5"/><stop offset="1" stop-color="#78ECF2"/><stop offset="1" stop-color="#78ECF2"/></linearGradient><clipPath id="a"><path fill="#fff" d="M0 0h2048v2048H0z"/></clipPath></defs></svg>