<svg width="2048" height="2048" viewBox="0 0 2048 2048" fill="none" xmlns="http://www.w3.org/2000/svg">
<g clip-path="url(#clip0_4844_8097)">
<rect width="2048" height="2048" fill="url(#paint0_linear_4844_8097)"/>
<path d="M487.836 680.402C428.27 680.402 382.802 663.836 351.433 630.704C320.416 597.573 304.908 550.519 304.908 489.543C304.908 459.231 309.666 432.267 319.182 408.652C328.699 384.685 341.74 364.594 358.306 348.381C374.872 331.815 394.61 319.303 417.52 310.843C440.43 302.384 465.279 298.155 492.066 298.155C507.574 298.155 521.673 299.388 534.362 301.856C547.05 303.97 558.153 306.614 567.669 309.786C577.186 312.606 585.116 315.602 591.461 318.774C597.805 321.946 602.387 324.413 605.207 326.176L581.415 392.791C570.137 386.799 556.919 381.689 541.763 377.459C526.96 373.23 510.041 371.115 491.008 371.115C478.32 371.115 465.807 373.23 453.471 377.459C441.487 381.689 430.737 388.562 421.221 398.078C412.057 407.242 404.655 419.226 399.015 434.03C393.376 448.833 390.556 466.809 390.556 487.956C390.556 504.875 392.319 520.736 395.843 535.539C399.72 549.99 405.712 562.503 413.819 573.077C422.278 583.65 433.204 592.11 446.598 598.454C459.992 604.446 476.205 607.442 495.238 607.442C507.222 607.442 517.972 606.737 527.488 605.327C537.005 603.917 545.464 602.331 552.866 600.569C560.268 598.454 566.788 596.163 572.428 593.696C578.067 591.228 583.178 588.937 587.76 586.823L610.494 652.91C598.862 659.959 582.473 666.303 561.325 671.943C540.177 677.582 515.681 680.402 487.836 680.402ZM769.334 678.287C746.424 677.934 727.743 675.467 713.292 670.885C699.193 666.303 687.915 659.959 679.455 651.852C671.349 643.393 665.709 633.348 662.537 621.717C659.717 609.733 658.308 596.339 658.308 581.536V275.421L737.083 262.732V565.675C737.083 572.724 737.612 579.068 738.669 584.708C739.727 590.347 741.665 595.106 744.485 598.983C747.657 602.86 752.063 606.032 757.702 608.499C763.342 610.966 770.92 612.552 780.436 613.257L769.334 678.287ZM904.366 673H825.59V394.906H904.366V673ZM911.768 314.544C911.768 328.995 907.009 340.45 897.493 348.91C888.329 357.016 877.402 361.07 864.714 361.07C852.025 361.07 840.922 357.016 831.406 348.91C822.242 340.45 817.66 328.995 817.66 314.544C817.66 300.093 822.242 288.814 831.406 280.708C840.922 272.249 852.025 268.019 864.714 268.019C877.402 268.019 888.329 272.249 897.493 280.708C907.009 288.814 911.768 300.093 911.768 314.544ZM965.199 533.953C965.199 513.863 968.371 495.006 974.715 477.383C981.412 459.407 990.929 443.899 1003.26 430.857C1015.6 417.464 1030.58 406.89 1048.2 399.136C1065.83 391.381 1085.92 387.504 1108.48 387.504C1123.28 387.504 1136.85 388.914 1149.18 391.734C1161.52 394.201 1173.51 397.902 1185.14 402.836L1168.75 465.751C1161.34 462.932 1153.24 460.464 1144.43 458.35C1135.62 456.235 1125.75 455.177 1114.82 455.177C1091.56 455.177 1074.11 462.403 1062.48 476.854C1051.2 491.305 1045.56 510.338 1045.56 533.953C1045.56 558.978 1050.85 578.363 1061.42 592.11C1072.35 605.856 1091.2 612.729 1117.99 612.729C1127.51 612.729 1137.73 611.848 1148.66 610.085C1159.58 608.323 1169.63 605.503 1178.79 601.626L1189.89 666.127C1180.73 670.004 1169.28 673.352 1155.53 676.172C1141.78 678.992 1126.63 680.402 1110.06 680.402C1084.68 680.402 1062.83 676.701 1044.5 669.299C1026.18 661.545 1011.02 651.147 999.035 638.106C987.404 625.065 978.769 609.733 973.129 592.11C967.842 574.134 965.199 554.748 965.199 533.953ZM1321.54 495.358C1329.29 486.899 1337.22 478.088 1345.33 468.923C1353.79 459.759 1361.9 450.772 1369.65 441.96C1377.41 432.796 1384.63 424.161 1391.33 416.054C1398.38 407.947 1404.37 400.898 1409.3 394.906H1502.88C1484.2 416.406 1465.87 437.025 1447.9 456.763C1430.27 476.149 1410.89 496.239 1389.74 517.035C1400.32 526.551 1411.24 538.006 1422.52 551.4C1433.8 564.441 1444.73 578.011 1455.3 592.11C1465.87 606.208 1475.57 620.307 1484.38 634.405C1493.19 648.504 1500.59 661.369 1506.58 673H1416.18C1410.54 663.836 1404.02 653.791 1396.61 642.864C1389.57 631.586 1381.99 620.483 1373.88 609.557C1365.77 598.278 1357.14 587.528 1347.97 577.306C1339.16 567.085 1330.35 558.449 1321.54 551.4V673H1242.76V275.421L1321.54 262.732V495.358ZM1628.77 616.43C1643.22 616.43 1653.44 615.02 1659.43 612.2C1665.42 609.38 1668.42 603.917 1668.42 595.81C1668.42 589.466 1664.54 584.003 1656.79 579.421C1649.03 574.486 1637.22 569.023 1621.36 563.031C1609.03 558.449 1597.75 553.691 1587.53 548.757C1577.66 543.822 1569.2 538.006 1562.15 531.31C1555.1 524.26 1549.64 515.977 1545.76 506.461C1541.88 496.944 1539.94 485.489 1539.94 472.096C1539.94 446.013 1549.64 425.394 1569.02 410.238C1588.41 395.082 1615.02 387.504 1648.86 387.504C1665.77 387.504 1681.99 389.09 1697.5 392.263C1713 395.082 1725.34 398.254 1734.5 401.779L1720.76 463.108C1711.59 459.936 1701.55 457.116 1690.62 454.649C1680.05 452.181 1668.07 450.948 1654.67 450.948C1630 450.948 1617.66 457.821 1617.66 471.567C1617.66 474.739 1618.19 477.559 1619.25 480.026C1620.31 482.493 1622.42 484.961 1625.59 487.428C1628.77 489.543 1633 492.01 1638.28 494.83C1643.92 497.297 1650.97 500.117 1659.43 503.289C1676.7 509.633 1690.98 515.977 1702.25 522.322C1713.53 528.314 1722.34 535.01 1728.69 542.412C1735.39 549.461 1739.97 557.392 1742.44 566.203C1745.25 575.015 1746.66 585.237 1746.66 596.868C1746.66 624.36 1736.27 645.155 1715.47 659.254C1695.03 673.352 1665.95 680.402 1628.24 680.402C1603.56 680.402 1582.95 678.287 1566.38 674.057C1550.17 669.828 1538.89 666.303 1532.54 663.483L1545.76 599.511C1559.15 604.798 1572.9 609.028 1587 612.2C1601.1 615.02 1615.02 616.43 1628.77 616.43Z" fill="#4A4A4A"/>
<g clip-path="url(#clip1_4844_8097)">
<path d="M856.654 851.855L760.845 886.358C655.018 924.468 600.122 1041.15 638.232 1146.98L827.995 1673.93C885.16 1832.67 1060.19 1915.01 1218.93 1857.85L856.654 851.855Z" fill="#C4C4C4"/>
<path d="M1213.08 939.967C1174.97 834.139 1058.29 779.243 952.463 817.354L856.654 851.856L1218.93 1857.85C1377.67 1800.68 1460.01 1625.65 1402.85 1466.91L1213.08 939.967Z" fill="#8D8D8D"/>
<path d="M970.878 994.721C968.019 986.784 959.268 982.667 951.331 985.525L868.936 1015.2C860.999 1018.05 856.881 1026.81 859.74 1034.74L949.445 1283.85C952.304 1291.78 961.055 1295.9 968.992 1293.04L1051.39 1263.37C1059.32 1260.51 1063.44 1251.76 1060.58 1243.82L970.878 994.721Z" fill="#424242"/>
</g>
</g>
<defs>
<linearGradient id="paint0_linear_4844_8097" x1="2048" y1="0" x2="0" y2="2048" gradientUnits="userSpaceOnUse">
<stop stop-color="#71AFE5"/>
<stop offset="1" stop-color="#78ECF2"/>
<stop offset="1" stop-color="#78ECF2"/>
</linearGradient>
<clipPath id="clip0_4844_8097">
<rect width="2048" height="2048" rx="1024" fill="white"/>
</clipPath>
<clipPath id="clip1_4844_8097">
<rect width="794.869" height="1070.75" fill="white" transform="translate(626.131 805.252)"/>
</clipPath>
</defs>
</svg>
