<svg width="2048" height="2048" viewBox="0 0 2048 2048" fill="none" xmlns="http://www.w3.org/2000/svg">
<g clip-path="url(#clip0_2596:8143)">
<rect width="2048" height="2048" fill="url(#paint0_linear_2596:8143)"/>
<g filter="url(#filter0_d_2596:8143)">
<path d="M426.499 27.5009C494.145 77.2686 529.499 122.233 529.499 247.001C529.499 528.859 442.891 544.714 587.676 951.302C703.505 1276.57 743.055 1342.48 748.352 1334.78" stroke="black" stroke-width="20" stroke-linecap="round" stroke-linejoin="bevel"/>
<g filter="url(#filter1_i_2596:8143)">
<path d="M588.736 958.744L494.651 992.626C390.727 1030.05 336.819 1144.64 374.244 1248.56L560.593 1766.03C616.73 1921.91 788.608 2002.78 944.493 1946.64L588.736 958.744Z" fill="#C4C4C4"/>
<path d="M938.755 1045.27C901.331 941.346 786.745 887.438 682.822 924.863L588.736 958.744L944.493 1946.64C1100.38 1890.5 1181.24 1718.62 1125.1 1562.74L938.755 1045.27Z" fill="url(#paint1_linear_2596:8143)"/>
<g filter="url(#filter2_i_2596:8143)">
<rect width="116" height="290" rx="15" transform="matrix(-0.940853 0.338816 0.338816 0.940853 695.822 1084.93)" fill="#424242"/>
</g>
</g>
</g>
<path d="M816.728 493.6C771.661 493.6 737.261 481.067 713.528 456C690.061 430.933 678.328 395.333 678.328 349.2C678.328 326.267 681.928 305.867 689.128 288C696.328 269.867 706.195 254.667 718.728 242.4C731.261 229.867 746.195 220.4 763.528 214C780.861 207.6 799.661 204.4 819.928 204.4C831.661 204.4 842.328 205.333 851.928 207.2C861.528 208.8 869.928 210.8 877.128 213.2C884.328 215.333 890.328 217.6 895.128 220C899.928 222.4 903.395 224.267 905.528 225.6L887.528 276C878.995 271.467 868.995 267.6 857.528 264.4C846.328 261.2 833.528 259.6 819.128 259.6C809.528 259.6 800.061 261.2 790.728 264.4C781.661 267.6 773.528 272.8 766.328 280C759.395 286.933 753.795 296 749.528 307.2C745.261 318.4 743.128 332 743.128 348C743.128 360.8 744.461 372.8 747.128 384C750.061 394.933 754.595 404.4 760.728 412.4C767.128 420.4 775.395 426.8 785.528 431.6C795.661 436.133 807.928 438.4 822.328 438.4C831.395 438.4 839.528 437.867 846.728 436.8C853.928 435.733 860.328 434.533 865.928 433.2C871.528 431.6 876.461 429.867 880.728 428C884.995 426.133 888.861 424.4 892.328 422.8L909.528 472.8C900.728 478.133 888.328 482.933 872.328 487.2C856.328 491.467 837.795 493.6 816.728 493.6ZM1029.7 492C1012.37 491.733 998.236 489.867 987.303 486.4C976.636 482.933 968.103 478.133 961.703 472C955.57 465.6 951.303 458 948.903 449.2C946.77 440.133 945.703 430 945.703 418.8V187.2L1005.3 177.6V406.8C1005.3 412.133 1005.7 416.933 1006.5 421.2C1007.3 425.467 1008.77 429.067 1010.9 432C1013.3 434.933 1016.64 437.333 1020.9 439.2C1025.17 441.067 1030.9 442.267 1038.1 442.8L1029.7 492ZM1131.87 488H1072.27V277.6H1131.87V488ZM1137.47 216.8C1137.47 227.733 1133.87 236.4 1126.67 242.8C1119.73 248.933 1111.47 252 1101.87 252C1092.27 252 1083.87 248.933 1076.67 242.8C1069.73 236.4 1066.27 227.733 1066.27 216.8C1066.27 205.867 1069.73 197.333 1076.67 191.2C1083.87 184.8 1092.27 181.6 1101.87 181.6C1111.47 181.6 1119.73 184.8 1126.67 191.2C1133.87 197.333 1137.47 205.867 1137.47 216.8ZM1177.89 382.8C1177.89 367.6 1180.29 353.333 1185.09 340C1190.16 326.4 1197.36 314.667 1206.69 304.8C1216.02 294.667 1227.36 286.667 1240.69 280.8C1254.02 274.933 1269.22 272 1286.29 272C1297.49 272 1307.76 273.067 1317.09 275.2C1326.42 277.067 1335.49 279.867 1344.29 283.6L1331.89 331.2C1326.29 329.067 1320.16 327.2 1313.49 325.6C1306.82 324 1299.36 323.2 1291.09 323.2C1273.49 323.2 1260.29 328.667 1251.49 339.6C1242.96 350.533 1238.69 364.933 1238.69 382.8C1238.69 401.733 1242.69 416.4 1250.69 426.8C1258.96 437.2 1273.22 442.4 1293.49 442.4C1300.69 442.4 1308.42 441.733 1316.69 440.4C1324.96 439.067 1332.56 436.933 1339.49 434L1347.89 482.8C1340.96 485.733 1332.29 488.267 1321.89 490.4C1311.49 492.533 1300.02 493.6 1287.49 493.6C1268.29 493.6 1251.76 490.8 1237.89 485.2C1224.02 479.333 1212.56 471.467 1203.49 461.6C1194.69 451.733 1188.16 440.133 1183.89 426.8C1179.89 413.2 1177.89 398.533 1177.89 382.8ZM1447.49 353.6C1453.36 347.2 1459.36 340.533 1465.49 333.6C1471.89 326.667 1478.02 319.867 1483.89 313.2C1489.76 306.267 1495.22 299.733 1500.29 293.6C1505.62 287.467 1510.16 282.133 1513.89 277.6H1584.69C1570.56 293.867 1556.69 309.467 1543.09 324.4C1529.76 339.067 1515.09 354.267 1499.09 370C1507.09 377.2 1515.36 385.867 1523.89 396C1532.42 405.867 1540.69 416.133 1548.69 426.8C1556.69 437.467 1564.02 448.133 1570.69 458.8C1577.36 469.467 1582.96 479.2 1587.49 488H1519.09C1514.82 481.067 1509.89 473.467 1504.29 465.2C1498.96 456.667 1493.22 448.267 1487.09 440C1480.96 431.467 1474.42 423.333 1467.49 415.6C1460.82 407.867 1454.16 401.333 1447.49 396V488H1387.89V187.2L1447.49 177.6V353.6ZM1679.93 445.2C1690.86 445.2 1698.6 444.133 1703.13 442C1707.66 439.867 1709.93 435.733 1709.93 429.6C1709.93 424.8 1707 420.667 1701.13 417.2C1695.26 413.467 1686.33 409.333 1674.33 404.8C1665 401.333 1656.46 397.733 1648.73 394C1641.26 390.267 1634.86 385.867 1629.53 380.8C1624.2 375.467 1620.06 369.2 1617.13 362C1614.2 354.8 1612.73 346.133 1612.73 336C1612.73 316.267 1620.06 300.667 1634.73 289.2C1649.4 277.733 1669.53 272 1695.13 272C1707.93 272 1720.2 273.2 1731.93 275.6C1743.66 277.733 1753 280.133 1759.93 282.8L1749.53 329.2C1742.6 326.8 1735 324.667 1726.73 322.8C1718.73 320.933 1709.66 320 1699.53 320C1680.86 320 1671.53 325.2 1671.53 335.6C1671.53 338 1671.93 340.133 1672.73 342C1673.53 343.867 1675.13 345.733 1677.53 347.6C1679.93 349.2 1683.13 351.067 1687.13 353.2C1691.4 355.067 1696.73 357.2 1703.13 359.6C1716.2 364.4 1727 369.2 1735.53 374C1744.06 378.533 1750.73 383.6 1755.53 389.2C1760.6 394.533 1764.06 400.533 1765.93 407.2C1768.06 413.867 1769.13 421.6 1769.13 430.4C1769.13 451.2 1761.26 466.933 1745.53 477.6C1730.06 488.267 1708.06 493.6 1679.53 493.6C1660.86 493.6 1645.26 492 1632.73 488.8C1620.46 485.6 1611.93 482.933 1607.13 480.8L1617.13 432.4C1627.26 436.4 1637.66 439.6 1648.33 442C1659 444.133 1669.53 445.2 1679.93 445.2Z" fill="#4A4A4A"/>
<path d="M743.877 572.538C747.885 579.886 752.45 589.015 757.571 599.926C762.915 610.614 768.371 622.304 773.937 634.996C779.727 647.465 785.405 660.269 790.971 673.406C796.538 686.543 801.771 698.901 806.669 710.48C811.568 698.901 816.801 686.543 822.367 673.406C827.934 660.269 833.501 647.465 839.067 634.996C844.857 622.304 850.312 610.614 855.433 599.926C860.777 589.015 865.453 579.886 869.461 572.538H916.889C919.116 587.902 921.12 605.159 922.901 624.308C924.905 643.235 926.575 663.052 927.911 683.76C929.47 704.245 930.806 724.842 931.919 745.55C933.255 766.258 934.369 785.741 935.259 804H884.491C883.823 781.511 882.933 757.017 881.819 730.52C880.706 704.023 879.036 677.303 876.809 650.36C872.801 659.712 868.348 670.066 863.449 681.422C858.551 692.778 853.652 704.134 848.753 715.49C844.077 726.846 839.513 737.757 835.059 748.222C830.606 758.465 826.821 767.26 823.703 774.608H787.297C784.18 767.26 780.395 758.465 775.941 748.222C771.488 737.757 766.812 726.846 761.913 715.49C757.237 704.134 752.45 692.778 747.551 681.422C742.653 670.066 738.199 659.712 734.191 650.36C731.965 677.303 730.295 704.023 729.181 730.52C728.068 757.017 727.177 781.511 726.509 804H675.741C676.632 785.741 677.634 766.258 678.747 745.55C680.083 724.842 681.419 704.245 682.755 683.76C684.314 663.052 685.984 643.235 687.765 624.308C689.769 605.159 691.885 587.902 694.111 572.538H743.877ZM1028.6 804H978.833V628.316H1028.6V804ZM1033.28 577.548C1033.28 586.677 1030.27 593.914 1024.26 599.258C1018.47 604.379 1011.57 606.94 1003.55 606.94C995.533 606.94 988.519 604.379 982.507 599.258C976.718 593.914 973.823 586.677 973.823 577.548C973.823 568.419 976.718 561.293 982.507 556.172C988.519 550.828 995.533 548.156 1003.55 548.156C1011.57 548.156 1018.47 550.828 1024.26 556.172C1030.27 561.293 1033.28 568.419 1033.28 577.548ZM1075.38 634.328C1083.84 631.879 1094.75 629.652 1108.11 627.648C1121.47 625.421 1135.5 624.308 1150.2 624.308C1165.11 624.308 1177.47 626.312 1187.27 630.32C1197.29 634.105 1205.19 639.561 1210.98 646.686C1216.77 653.811 1220.89 662.273 1223.34 672.07C1225.79 681.867 1227.02 692.778 1227.02 704.802V804H1177.25V710.814C1177.25 694.782 1175.13 683.426 1170.9 676.746C1166.67 670.066 1158.77 666.726 1147.19 666.726C1143.63 666.726 1139.84 666.949 1135.83 667.394C1131.83 667.617 1128.26 667.951 1125.15 668.396V804H1075.38V634.328ZM1422.03 797.988C1413.57 800.437 1402.66 802.664 1389.3 804.668C1375.94 806.895 1361.91 808.008 1347.21 808.008C1332.29 808.008 1319.82 806.004 1309.8 801.996C1300.01 797.988 1292.21 792.421 1286.42 785.296C1280.63 777.948 1276.51 769.264 1274.07 759.244C1271.62 749.224 1270.39 738.202 1270.39 726.178V628.316H1320.16V720.166C1320.16 736.198 1322.27 747.777 1326.5 754.902C1330.73 762.027 1338.64 765.59 1350.22 765.59C1353.78 765.59 1357.57 765.479 1361.57 765.256C1365.58 764.811 1369.14 764.365 1372.26 763.92V628.316H1422.03V797.988ZM1467.07 584.562L1516.84 576.546V628.316H1576.63V669.732H1516.84V731.522C1516.84 741.987 1518.62 750.337 1522.18 756.572C1525.97 762.807 1533.43 765.924 1544.56 765.924C1549.91 765.924 1555.36 765.479 1560.93 764.588C1566.72 763.475 1571.95 762.027 1576.63 760.246L1583.64 798.99C1577.63 801.439 1570.95 803.555 1563.6 805.336C1556.25 807.117 1547.23 808.008 1536.55 808.008C1522.96 808.008 1511.72 806.227 1502.81 802.664C1493.9 798.879 1486.78 793.757 1481.44 787.3C1476.09 780.62 1472.31 772.604 1470.08 763.252C1468.08 753.9 1467.07 743.546 1467.07 732.19V584.562ZM1602.28 717.494C1602.28 701.907 1604.62 688.325 1609.29 676.746C1614.19 664.945 1620.54 655.147 1628.33 647.354C1636.12 639.561 1645.03 633.66 1655.05 629.652C1665.29 625.644 1675.76 623.64 1686.45 623.64C1711.38 623.64 1731.09 631.322 1745.56 646.686C1760.04 661.827 1767.27 684.205 1767.27 713.82C1767.27 716.715 1767.16 719.943 1766.94 723.506C1766.72 726.846 1766.49 729.852 1766.27 732.524H1653.38C1654.49 742.767 1659.28 750.894 1667.74 756.906C1676.2 762.918 1687.56 765.924 1701.81 765.924C1710.94 765.924 1719.85 765.145 1728.53 763.586C1737.44 761.805 1744.67 759.689 1750.24 757.24L1756.92 797.654C1754.25 798.99 1750.69 800.326 1746.23 801.662C1741.78 802.998 1736.77 804.111 1731.2 805.002C1725.86 806.115 1720.07 807.006 1713.83 807.674C1707.6 808.342 1701.36 808.676 1695.13 808.676C1679.32 808.676 1665.52 806.338 1653.71 801.662C1642.14 796.986 1632.45 790.64 1624.66 782.624C1617.09 774.385 1611.41 764.699 1607.62 753.566C1604.06 742.433 1602.28 730.409 1602.28 717.494ZM1719.18 698.456C1718.96 694.225 1718.18 690.106 1716.84 686.098C1715.73 682.09 1713.83 678.527 1711.16 675.41C1708.71 672.293 1705.48 669.732 1701.48 667.728C1697.69 665.724 1692.9 664.722 1687.11 664.722C1681.55 664.722 1676.76 665.724 1672.75 667.728C1668.74 669.509 1665.4 671.959 1662.73 675.076C1660.06 678.193 1657.94 681.867 1656.39 686.098C1655.05 690.106 1654.05 694.225 1653.38 698.456H1719.18Z" fill="#4A4A4A"/>
<path d="M1247.29 902.6C1288.63 902.6 1320.36 909.933 1342.49 924.6C1364.63 939 1375.69 962.733 1375.69 995.8C1375.69 1029.13 1364.49 1053.27 1342.09 1068.2C1319.69 1082.87 1287.69 1090.2 1246.09 1090.2H1226.49V1183H1164.09V909.8C1177.69 907.133 1192.09 905.267 1207.29 904.2C1222.49 903.133 1235.83 902.6 1247.29 902.6ZM1251.29 955.8C1246.76 955.8 1242.23 955.933 1237.69 956.2C1233.43 956.467 1229.69 956.733 1226.49 957V1037H1246.09C1267.69 1037 1283.96 1034.07 1294.89 1028.2C1305.83 1022.33 1311.29 1011.4 1311.29 995.4C1311.29 987.667 1309.83 981.267 1306.89 976.2C1304.23 971.133 1300.23 967.133 1294.89 964.2C1289.83 961 1283.56 958.867 1276.09 957.8C1268.63 956.467 1260.36 955.8 1251.29 955.8ZM1401.66 1079.4C1401.66 1060.73 1404.46 1044.47 1410.06 1030.6C1415.92 1016.47 1423.52 1004.73 1432.86 995.4C1442.19 986.067 1452.86 979 1464.86 974.2C1477.12 969.4 1489.66 967 1502.46 967C1532.32 967 1555.92 976.2 1573.26 994.6C1590.59 1012.73 1599.26 1039.53 1599.26 1075C1599.26 1078.47 1599.12 1082.33 1598.86 1086.6C1598.59 1090.6 1598.32 1094.2 1598.06 1097.4H1462.86C1464.19 1109.67 1469.92 1119.4 1480.06 1126.6C1490.19 1133.8 1503.79 1137.4 1520.86 1137.4C1531.79 1137.4 1542.46 1136.47 1552.86 1134.6C1563.52 1132.47 1572.19 1129.93 1578.86 1127L1586.86 1175.4C1583.66 1177 1579.39 1178.6 1574.06 1180.2C1568.72 1181.8 1562.72 1183.13 1556.06 1184.2C1549.66 1185.53 1542.72 1186.6 1535.26 1187.4C1527.79 1188.2 1520.32 1188.6 1512.86 1188.6C1493.92 1188.6 1477.39 1185.8 1463.26 1180.2C1449.39 1174.6 1437.79 1167 1428.46 1157.4C1419.39 1147.53 1412.59 1135.93 1408.06 1122.6C1403.79 1109.27 1401.66 1094.87 1401.66 1079.4ZM1541.66 1056.6C1541.39 1051.53 1540.46 1046.6 1538.86 1041.8C1537.52 1037 1535.26 1032.73 1532.06 1029C1529.12 1025.27 1525.26 1022.2 1520.46 1019.8C1515.92 1017.4 1510.19 1016.2 1503.26 1016.2C1496.59 1016.2 1490.86 1017.4 1486.06 1019.8C1481.26 1021.93 1477.26 1024.87 1474.06 1028.6C1470.86 1032.33 1468.32 1036.73 1466.46 1041.8C1464.86 1046.6 1463.66 1051.53 1462.86 1056.6H1541.66ZM1772.05 1025.4C1766.72 1024.07 1760.45 1022.73 1753.25 1021.4C1746.05 1019.8 1738.32 1019 1730.05 1019C1726.32 1019 1721.78 1019.4 1716.45 1020.2C1711.38 1020.73 1707.52 1021.4 1704.85 1022.2V1183H1645.25V983.8C1655.92 980.067 1668.45 976.6 1682.85 973.4C1697.52 969.933 1713.78 968.2 1731.65 968.2C1734.85 968.2 1738.72 968.467 1743.25 969C1747.78 969.267 1752.32 969.8 1756.85 970.6C1761.38 971.133 1765.92 971.933 1770.45 973C1774.98 973.8 1778.85 974.867 1782.05 976.2L1772.05 1025.4Z" fill="#4A4A4A"/>
</g>
<defs>
<filter id="filter0_d_2596:8143" x="346.359" y="1.5" width="844.571" height="2094.79" filterUnits="userSpaceOnUse" color-interpolation-filters="sRGB">
<feFlood flood-opacity="0" result="BackgroundImageFix"/>
<feColorMatrix in="SourceAlpha" type="matrix" values="0 0 0 0 0 0 0 0 0 0 0 0 0 0 0 0 0 0 127 0" result="hardAlpha"/>
<feOffset dx="16" dy="16"/>
<feGaussianBlur stdDeviation="16"/>
<feColorMatrix type="matrix" values="0 0 0 0 0.3625 0 0 0 0 0.3625 0 0 0 0 0.3625 0 0 0 0.2 0"/>
<feBlend mode="normal" in2="BackgroundImageFix" result="effect1_dropShadow_2596:8143"/>
<feBlend mode="normal" in="SourceGraphic" in2="effect1_dropShadow_2596:8143" result="shape"/>
</filter>
<filter id="filter1_i_2596:8143" x="362.359" y="912.979" width="788.571" height="1143.31" filterUnits="userSpaceOnUse" color-interpolation-filters="sRGB">
<feFlood flood-opacity="0" result="BackgroundImageFix"/>
<feBlend mode="normal" in="SourceGraphic" in2="BackgroundImageFix" result="shape"/>
<feColorMatrix in="SourceAlpha" type="matrix" values="0 0 0 0 0 0 0 0 0 0 0 0 0 0 0 0 0 0 127 0" result="hardAlpha"/>
<feOffset dx="8" dy="8"/>
<feGaussianBlur stdDeviation="8"/>
<feComposite in2="hardAlpha" operator="arithmetic" k2="-1" k3="1"/>
<feColorMatrix type="matrix" values="0 0 0 0 0.975 0 0 0 0 0.975 0 0 0 0 0.975 0 0 0 0.25 0"/>
<feBlend mode="normal" in2="shape" result="effect1_innerShadow_2596:8143"/>
</filter>
<filter id="filter2_i_2596:8143" x="590.874" y="1089.12" width="203.014" height="311.768" filterUnits="userSpaceOnUse" color-interpolation-filters="sRGB">
<feFlood flood-opacity="0" result="BackgroundImageFix"/>
<feBlend mode="normal" in="SourceGraphic" in2="BackgroundImageFix" result="shape"/>
<feColorMatrix in="SourceAlpha" type="matrix" values="0 0 0 0 0 0 0 0 0 0 0 0 0 0 0 0 0 0 127 0" result="hardAlpha"/>
<feOffset dx="4" dy="8"/>
<feGaussianBlur stdDeviation="8"/>
<feComposite in2="hardAlpha" operator="arithmetic" k2="-1" k3="1"/>
<feColorMatrix type="matrix" values="0 0 0 0 0.816667 0 0 0 0 0.816667 0 0 0 0 0.816667 0 0 0 0.2 0"/>
<feBlend mode="normal" in2="shape" result="effect1_innerShadow_2596:8143"/>
</filter>
<linearGradient id="paint0_linear_2596:8143" x1="2048" y1="0" x2="0" y2="2048" gradientUnits="userSpaceOnUse">
<stop stop-color="#71AFE5"/>
<stop offset="1" stop-color="#78ECF2"/>
<stop offset="1" stop-color="#78ECF2"/>
</linearGradient>
<linearGradient id="paint1_linear_2596:8143" x1="729.864" y1="907.922" x2="1085.62" y2="1895.82" gradientUnits="userSpaceOnUse">
<stop stop-color="#6576CC"/>
<stop offset="0.2" stop-color="#6576CC"/>
<stop offset="0.2001" stop-color="#D46899"/>
<stop offset="0.4" stop-color="#D46899"/>
<stop offset="0.4001" stop-color="white"/>
<stop offset="0.6" stop-color="white"/>
<stop offset="0.6001" stop-color="#D46899"/>
<stop offset="0.8" stop-color="#D46899"/>
<stop offset="0.8001" stop-color="#6576CC"/>
<stop offset="1" stop-color="#6576CC"/>
</linearGradient>
<clipPath id="clip0_2596:8143">
<rect width="2048" height="2048" fill="white"/>
</clipPath>
</defs>
</svg>
