<svg width="2048" height="2048" fill="none" xmlns="http://www.w3.org/2000/svg"><path fill="url(#a)" d="M0 0h2048v2048H0z"/><g filter="url(#b)"><rect x="525" y="298" width="888.715" height="1335.2" rx="50" fill="#F27878"/></g><g filter="url(#c)"><rect x="634.992" y="413.947" width="888.715" height="1335.2" rx="50" fill="#65CC76"/></g><g filter="url(#d)"><path d="M1354.84 879.921a276.04 276.04 0 0 0-21-105.591 276.005 276.005 0 0 0-59.81-89.515 276.01 276.01 0 0 0-89.52-59.812A275.918 275.918 0 0 0 824.003 774.33 275.93 275.93 0 0 0 803 879.921V1560.5h82.776V879.921a193.141 193.141 0 0 1 119.234-178.443 193.139 193.139 0 0 1 252.35 104.529 193.092 193.092 0 0 1 14.71 73.914h82.77Z" fill="#F27878"/><path fill-rule="evenodd" clip-rule="evenodd" d="M874.281 694.84a275.907 275.907 0 0 0-31.19 41.845l61.046 61.045a193.149 193.149 0 0 1 28.781-44.253l-58.637-58.637Zm97.446 24.412a193.124 193.124 0 0 1 49.403-23.628l-63.522-63.525a275.815 275.815 0 0 0-45.214 27.82l59.333 59.333Zm39.303-106.768 74.4 74.402a193.205 193.205 0 0 1 120.96 47.923L1075.6 604.02a275.85 275.85 0 0 0-64.57 8.464Zm150.12 4.053 181.15 181.156a276.43 276.43 0 0 0-8.46-23.363 276.005 276.005 0 0 0-59.81-89.515 276.01 276.01 0 0 0-112.88-68.278Zm190.35 263.384-127.47-127.465a193.132 193.132 0 0 1 33.33 53.551 193.049 193.049 0 0 1 14.6 67.405l6.5 6.509h73.04Zm-463.994-25.788-68.057-68.056a275.988 275.988 0 0 0-14.217 58.817l80.544 80.544v-45.517c0-8.644.581-17.259 1.73-25.788Zm-1.73 144.339L803 915.696v73.034l82.776 82.78v-73.038Zm0 146.068L803 1061.76v73.04l82.776 82.77v-73.03Zm0 146.07L803 1207.83v73.04l82.776 82.77v-73.03Zm0 146.07L803 1353.9v73.03l82.776 82.78v-73.03Zm-22.244 123.82L803 1499.97v60.53h60.532Z" fill="#fff"/></g><defs><filter id="b" x="510" y="288" width="928.715" height="1375.2" filterUnits="userSpaceOnUse" color-interpolation-filters="sRGB"><feFlood flood-opacity="0" result="BackgroundImageFix"/><feColorMatrix in="SourceAlpha" values="0 0 0 0 0 0 0 0 0 0 0 0 0 0 0 0 0 0 127 0" result="hardAlpha"/><feOffset dx="5" dy="10"/><feGaussianBlur stdDeviation="10"/><feColorMatrix values="0 0 0 0 0.258824 0 0 0 0 0.258824 0 0 0 0 0.258824 0 0 0 1 0"/><feBlend in2="BackgroundImageFix" result="effect1_dropShadow_3645_7543"/><feBlend in="SourceGraphic" in2="effect1_dropShadow_3645_7543" result="shape"/></filter><filter id="c" x="619.992" y="403.947" width="928.715" height="1375.2" filterUnits="userSpaceOnUse" color-interpolation-filters="sRGB"><feFlood flood-opacity="0" result="BackgroundImageFix"/><feColorMatrix in="SourceAlpha" values="0 0 0 0 0 0 0 0 0 0 0 0 0 0 0 0 0 0 127 0" result="hardAlpha"/><feOffset dx="5" dy="10"/><feGaussianBlur stdDeviation="10"/><feColorMatrix values="0 0 0 0 0.258824 0 0 0 0 0.258824 0 0 0 0 0.258824 0 0 0 1 0"/><feBlend in2="BackgroundImageFix" result="effect1_dropShadow_3645_7543"/><feBlend in="SourceGraphic" in2="effect1_dropShadow_3645_7543" result="shape"/></filter><filter id="d" x="795.622" y="596.622" width="581.352" height="986.01" filterUnits="userSpaceOnUse" color-interpolation-filters="sRGB"><feFlood flood-opacity="0" result="BackgroundImageFix"/><feColorMatrix in="SourceAlpha" values="0 0 0 0 0 0 0 0 0 0 0 0 0 0 0 0 0 0 127 0" result="hardAlpha"/><feOffset dx="7.378" dy="7.378"/><feGaussianBlur stdDeviation="7.378"/><feColorMatrix values="0 0 0 0 0 0 0 0 0 0 0 0 0 0 0 0 0 0 0.25 0"/><feBlend in2="BackgroundImageFix" result="effect1_dropShadow_3645_7543"/><feBlend in="SourceGraphic" in2="effect1_dropShadow_3645_7543" result="shape"/></filter><linearGradient id="a" x1="0" y1="0" x2="1024" y2="2048" gradientUnits="userSpaceOnUse"><stop stop-color="#78ECF2"/><stop offset="1" stop-color="#71AFE5"/></linearGradient></defs></svg>