<svg width="18" height="24" viewBox="0 0 18 24" fill="none" xmlns="http://www.w3.org/2000/svg">
<path fill-rule="evenodd" clip-rule="evenodd" d="M7.28876 0.270443C9.65246 -0.581228 12.2587 0.645559 13.1099 3.01055L17.4178 14.9797C18.6562 18.4205 16.8723 22.2144 13.4333 23.4535L8.77108 10.4998L9.4983 10.2378C9.67558 10.1739 9.76754 9.97836 9.70369 9.80099L7.70008 4.23413C7.63623 4.05676 7.44077 3.96475 7.26349 4.02862L6.53627 4.29065L5.34181 0.971954L7.28876 0.270443ZM4.90878 1.12798L3.00891 1.81253C0.645207 2.6642 -0.580911 5.27182 0.270295 7.63681L4.59517 19.653C5.82423 23.0679 9.58735 24.8392 13.0003 23.6095L8.33805 10.6559L7.65796 10.9009C7.48068 10.9648 7.28522 10.8728 7.22138 10.6954L5.21776 5.12854C5.15392 4.95117 5.24588 4.7556 5.42315 4.69172L6.10324 4.44667L4.90878 1.12798Z" fill="#F27878"/>
</svg>
